*
*
G04 PADS VX.2.4 Build Number: 11282995 generated Gerber (RS-274-X) file*
G04 PC Version=2.1*
*
%IN "UP201 MCU BOARD 2V0-250"*%
*
%MOIN*%
*
%FSLAX35Y35*%
*
*
*
*
G04 PC Standard Apertures*
*
*
G04 Thermal Relief Aperture macro.*
%AMTER*
1,1,$1,0,0*
1,0,$1-$2,0,0*
21,0,$3,$4,0,0,45*
21,0,$3,$4,0,0,135*
%
*
*
G04 Annular Aperture macro.*
%AMANN*
1,1,$1,0,0*
1,0,$2,0,0*
%
*
*
G04 Odd Aperture macro.*
%AMODD*
1,1,$1,0,0*
1,0,$1-0.005,0,0*
%
*
*
G04 PC Custom Aperture Macros*
*
*
*
*
*
*
G04 PC Aperture Table*
*
%ADD010C,0.01*%
%ADD024C,0.03*%
%ADD028C,0.02*%
%ADD030C,0.008*%
%ADD032C,0.005*%
%ADD048C,0.015*%
%ADD091C,0.01575*%
%ADD120C,0.06*%
%ADD122C,0.001*%
%ADD280O,0.03937X0.07874*%
%ADD281O,0.04331X0.07087*%
%ADD282O,0.06299X0.03937*%
%ADD287C,0.016*%
*
*
*
*
G04 PC Circuitry*
G04 Layer Name UP201 MCU BOARD 2V0-250 - circuitry*
%LPD*%
*
*
G04 PC Custom Flashes*
G04 Layer Name UP201 MCU BOARD 2V0-250 - flashes*
%LPD*%
*
*
G04 PC Circuitry*
G04 Layer Name UP201 MCU BOARD 2V0-250 - circuitry*
%LPD*%
*
G54D10*
G01X600000Y840157D02*
X642835D01*
Y820276*
X642903*
X642905D02*
G75*
G03X642902Y816929I108J-1674D01*
G01X642903D02*
X679311D01*
G03Y820276I38J1673*
G01X679213*
Y840157*
X722047*
Y600000*
X600000*
Y840157*
G54D24*
X640099Y809054D02*
X643899D01*
Y813388*
X677899Y813354D02*
Y809054D01*
X684599*
G54D28*
X632899Y662854D02*
X635820Y665775D01*
Y694020*
X645453Y703653*
X678313*
X650200Y701200D02*
X650221Y701221D01*
X666792*
X647400Y701200D02*
X650200D01*
X639899Y813354D02*
X639933Y813388D01*
X643899*
X645197*
X676884Y813354D02*
X677899D01*
X684399*
G54D30*
X654399Y624454D02*
X655699Y623154D01*
X671599*
X675899Y627454*
Y635354*
X686599Y646054*
Y666127*
X651799Y626154D02*
X656199D01*
X657599Y624754*
X670499*
X674199Y628454*
Y636154*
X685099Y647054*
Y665154*
X650799Y631354D02*
X655028D01*
X659828Y626554*
X669599*
X672599Y629554*
Y637295*
X676399Y641095*
Y664354*
X666799Y673954*
Y685254*
X669199Y687654*
X679699*
X680832Y686521*
X670099Y673354D02*
Y675254D01*
X677232Y682387*
X680832*
X677199Y675854D02*
Y673054D01*
X685099Y665154*
X677199Y675854D02*
X678199Y676854D01*
X679799*
X672499Y681154D02*
X674050D01*
X676661Y683765*
X680832*
X679399Y674654D02*
Y673327D01*
X686599Y666127*
X680799Y679954D02*
Y680976D01*
X680832Y681009*
X683588D02*
Y679702D01*
X685136Y678154*
X703099*
X705799Y680854*
Y698830*
X712047Y705079*
X678799Y685854D02*
X679405Y685615D01*
X679877Y685143*
X680832*
X684966D02*
X689284D01*
X694367Y680060*
X684966Y687899D02*
X685275Y688224D01*
Y688230*
X685399Y688354*
X683588Y686521D02*
Y692161D01*
X686200Y694774*
Y703800*
X705500Y723100*
Y758531*
X712047Y765079*
X701999Y691254D02*
X703899Y693154D01*
Y716930*
X712047Y725079*
X646280Y695547D02*
X646987Y696254D01*
X658118*
X665221Y689151*
Y672776*
X671899Y666098*
Y647654*
X683800Y695000D02*
X684757Y695957D01*
X671478Y710133D02*
X679730D01*
X684757Y705106*
Y695957*
X610000Y745079D02*
X610512Y744567D01*
X623041*
X642354Y725254*
X655699*
X657599Y723354*
X610000Y755079D02*
X617879Y747200D01*
X623470*
X643770Y726900*
X656926*
X667100Y716726*
Y711688*
X670288Y708500*
X678641*
X681200Y705941*
Y691984*
X682210Y690974*
Y686521*
X655499Y803254D02*
X655999Y803754D01*
Y810154*
X658599Y812754*
X684966Y682387D03*
X683588Y681009D03*
X686344Y683765D03*
X682210Y682387D03*
X683588D03*
X682210Y681009D03*
X680832Y682387D03*
Y683765D03*
X684966D03*
X683588D03*
X680832Y681009D03*
X682210Y683765D03*
X683588Y685143D03*
X684966Y686521D03*
Y685143D03*
X682210Y686521D03*
X680832D03*
X684966Y687899D03*
X680832Y685143D03*
X682210D03*
X683588Y686521D03*
G54D32*
X656749Y642504D02*
X669949D01*
Y631504*
X657149*
Y633504*
X656749*
Y642504*
Y642302D02*
X669949D01*
X656749Y641852D02*
X669949D01*
X656749Y641402D02*
X669949D01*
X656749Y640952D02*
X669949D01*
X656749Y640502D02*
X669949D01*
X656749Y640052D02*
X669949D01*
X656749Y639602D02*
X669949D01*
X656749Y639152D02*
X669949D01*
X656749Y638702D02*
X669949D01*
X656749Y638252D02*
X669949D01*
X656749Y637802D02*
X669949D01*
X656749Y637352D02*
X669949D01*
X656749Y636902D02*
X669949D01*
X656749Y636452D02*
X669949D01*
X656749Y636002D02*
X669949D01*
X656749Y635552D02*
X669949D01*
X656749Y635102D02*
X669949D01*
X656749Y634652D02*
X669949D01*
X656749Y634202D02*
X669949D01*
X656749Y633752D02*
X669949D01*
X657149Y633302D02*
X669949D01*
X657149Y632852D02*
X669949D01*
X657149Y632402D02*
X669949D01*
X657149Y631952D02*
X669949D01*
X715897Y775079D02*
G03X715897I-3850J0D01*
G01Y785079D02*
G03X715897I-3850J0D01*
G01Y795079D02*
G03X715897I-3850J0D01*
G01X716097Y805079D02*
G03X716097I-4050J0D01*
G01X715897Y815079D02*
G03X715897I-3850J0D01*
G01X702886Y741448D02*
G03X702886I-1650J0D01*
G01X702449Y762954D02*
G03X702449I-1850J0D01*
G01X700188Y773589D02*
G03X700188I-1650J0D01*
G01X694623Y749501D02*
G03X694623I-1650J0D01*
G01X695849Y763754D02*
G03X695849I-1650J0D01*
G01X694149Y773454D02*
G03X694149I-1650J0D01*
G01X694549Y782454D02*
G03X694549I-1650J0D01*
G01X697149Y786854D02*
G03X697149I-1650J0D01*
G01X704649Y799954D02*
G03X704649I-1850J0D01*
G01X705049Y809754D02*
G03X705049I-1650J0D01*
G01X690749Y818454D02*
G03X690749I-1850J0D01*
G01Y826454D02*
G03X690749I-1850J0D01*
G01X689692Y722897D02*
G03X689692I-1650J0D01*
G01X688935Y748511D02*
G03X688935I-1850J0D01*
G01X690749Y763154D02*
G03X690749I-1650J0D01*
G01X691649Y786854D02*
G03X691649I-1650J0D01*
G01X694449Y792854D02*
G03X694449I-1650J0D01*
G01X686749Y762754D02*
G03X686749I-1650J0D01*
G01X685949Y773254D02*
G03X685949I-1650J0D01*
G01X680285Y730446D02*
G03X680285I-1650J0D01*
G01X679538Y735458D02*
G03X679538I-1850J0D01*
G01X677049Y764854D02*
G03X677049I-1650J0D01*
G01X678449Y792754D02*
G03X678449I-1650J0D01*
G01X678649Y801154D02*
G03X678649I-1850J0D01*
G01X671249Y729254D02*
G03X671249I-1650J0D01*
G01X672160Y744650D02*
G03X672160I-1850J0D01*
G01X667549Y769754D02*
G03X667549I-1650J0D01*
G01X670449Y780154D02*
G03X670449I-1650J0D01*
G01X668749Y805854D02*
G03X668749I-1850J0D01*
G01X663749Y744254D02*
G03X663749I-1650J0D01*
G01X657849Y734054D02*
G03X657849I-1650J0D01*
G01X658949Y744154D02*
G03X658949I-1650J0D01*
G01X659949Y769354D02*
G03X659949I-1650J0D01*
G01X659649Y777254D02*
G03X659649I-1650J0D01*
G01X653949Y731254D02*
G03X653949I-1850J0D01*
G01X655849Y788554D02*
G03X655849I-1650J0D01*
G01X650749Y773154D02*
G03X650749I-1650J0D01*
G01X650949Y788954D02*
G03X650949I-1650J0D01*
G01X647049Y791954D02*
G03X647049I-1850J0D01*
G01X643849Y796754D02*
G03X643849I-1850J0D01*
G01X637683Y782232D02*
G03X637683I-1850J0D01*
G01X715897Y735079D02*
G03X715897I-3850J0D01*
G01Y745079D02*
G03X715897I-3850J0D01*
G01Y755079D02*
G03X715897I-3850J0D01*
G01X702949Y685254D02*
G03X702949I-1650J0D01*
G01X715897Y715079D02*
G03X715897I-3850J0D01*
G01Y635079D02*
G03X715897I-3850J0D01*
G01Y655079D02*
G03X715897I-3850J0D01*
G01Y665079D02*
G03X715897I-3850J0D01*
G01Y675079D02*
G03X715897I-3850J0D01*
G01Y685079D02*
G03X715897I-3850J0D01*
G01Y695079D02*
G03X715897I-3850J0D01*
G01X699349Y670154D02*
G03X699349I-1850J0D01*
G01X694449Y670354D02*
G03X694449I-1650J0D01*
G01X681349Y611654D02*
G03X681349I-1650J0D01*
G01X683949Y623654D02*
G03X683949I-1650J0D01*
G01X682449Y634254D02*
G03X682449I-1650J0D01*
G01X675049Y620054D02*
G03X675049I-1650J0D01*
G01X653450Y662300D02*
G03X653450I-1850J0D01*
G01X644449Y612154D02*
G03X644449I-1650J0D01*
G01X642149Y624654D02*
G03X642149I-1850J0D01*
G01Y629454D02*
G03X642149I-1650J0D01*
G01X634649Y611854D02*
G03X634649I-1850J0D01*
G01X631949Y620054D02*
G03X631949I-1850J0D01*
G01X632449Y624954D02*
G03X632449I-1850J0D01*
G01X636639Y702373D02*
G03X636639I-1650J0D01*
G01X631349Y692654D02*
G03X631349I-1650J0D01*
G01Y702054D02*
G03X631349I-1650J0D01*
G01X627749Y633454D02*
G03X627749I-1650J0D01*
G01X622149Y632454D02*
G03X622149I-1650J0D01*
G01X622845Y706802D02*
G03X622845I-1850J0D01*
G01Y712153D02*
G03X622845I-1850J0D01*
G01X623149Y718254D02*
G03X623149I-1850J0D01*
G01X625449Y736854D02*
G03X625449I-1650J0D01*
G01X621249Y727754D02*
G03X621249I-1850J0D01*
G01X615649Y613254D02*
G03X615649I-1850J0D01*
G01X614050Y625079D02*
G03X614050I-4050J0D01*
G01Y635079D02*
G03X614050I-4050J0D01*
G01X613850Y645079D02*
G03X613850I-3850J0D01*
G01Y655079D02*
G03X613850I-3850J0D01*
G01Y665079D02*
G03X613850I-3850J0D01*
G01Y675079D02*
G03X613850I-3850J0D01*
G01Y685079D02*
G03X613850I-3850J0D01*
G01Y695079D02*
G03X613850I-3850J0D01*
G01Y705079D02*
G03X613850I-3850J0D01*
G01Y715079D02*
G03X613850I-3850J0D01*
G01Y725079D02*
G03X613850I-3850J0D01*
G01Y735079D02*
G03X613850I-3850J0D01*
G01X673450Y697900D02*
G03X673450I-1650J0D01*
G01X648089Y683373D02*
G03X648089I-1850J0D01*
G01X642649Y745954D02*
G03X642649I-1850J0D01*
G01X619649Y763854D02*
G03X619649I-1850J0D01*
G01X614050Y765079D02*
G03X614050I-4050J0D01*
G01Y775079D02*
G03X614050I-4050J0D01*
G01Y785079D02*
G03X614050I-4050J0D01*
G01Y795079D02*
G03X614050I-4050J0D01*
G01Y805079D02*
G03X614050I-4050J0D01*
G01Y815079D02*
G03X614050I-4050J0D01*
G01X720297Y838157D02*
G03X720047Y838407I-250J0D01*
G01X681213*
G03X680963Y838157I-0J-250*
G01Y834994*
G03X681324Y834771I250J0*
G01X685971Y831892D02*
G03X681324Y834771I-3215J-0D01*
G01X685971Y831892D02*
Y829136D01*
X681324Y826257D02*
G03X685971Y829136I1432J2879D01*
G01X681324Y826257D02*
G03X680963Y826033I-111J-224D01*
G01Y821768*
G03X681086Y821553I250J0*
G01X682773Y818602D02*
G03X681086Y821553I-3424J0D01*
G01X681391Y815854D02*
G03X682773Y818602I-2042J2748D01*
G01X681391Y815854D02*
G03X681540Y815404I149J-200D01*
G01X684399*
X685685Y811757D02*
G03X684399Y815404I-1286J1597D01*
G01X685685Y811757D02*
G03X685592Y811563I157J-194D01*
X685731Y811339I250J-0*
G01X684599Y806504D02*
G03X685731Y811339I-0J2550D01*
G01X684599Y806504D02*
X678711D01*
G03X678659Y806498I0J-250*
G01X675013Y809451D02*
G03X678659Y806498I3018J-0D01*
G01X675013Y809451D02*
Y810247D01*
G03X674832Y810488I-250J0*
G01X673007Y814811D02*
G03X674832Y810488I2662J-1423D01*
G01X673007Y814811D02*
G03X672787Y815179I-220J118D01*
G01X649260*
G03X649040Y814811I0J-250*
G01X647215Y810488D02*
G03X649040Y814811I-837J2900D01*
G01X647215Y810488D02*
G03X647034Y810247I69J-241D01*
G01Y809451*
X643388Y806498D02*
G03X647034Y809451I628J2953D01*
G01X643388Y806498D02*
G03X643336Y806504I-52J-244D01*
G01X640099*
X639901Y806511D02*
G03X640099Y806504I198J2543D01*
G01X639901Y806511D02*
G03X639645Y806344I-20J-249D01*
G01X638248Y805137D02*
G03X639645Y806344I-349J1817D01*
G01X638248Y805137D02*
G03X638093Y804744I47J-246D01*
G01X638240Y802799D02*
G03X638093Y804744I-1641J855D01*
G01X638240Y802799D02*
G03X638211Y802684I221J-115D01*
X638525Y802442I250J-0*
G01X637358Y801508D02*
G03X638525Y802442I1641J-854D01*
G01X637358Y801508D02*
G03X637386Y801624I-222J116D01*
X637072Y801865I-250J-0*
G01X636249Y805470D02*
G03X637072Y801865I350J-1816D01*
G01X636249Y805470D02*
G03X636404Y805863I-47J246D01*
G01X636128Y807490D02*
G03X636404Y805863I1771J-536D01*
G01X636128Y807490D02*
G03X635866Y807811I-239J72D01*
G01X637421Y810328D02*
G03X635866Y807811I-1722J-674D01*
G01X637421Y810328D02*
G03X637872Y810297I233J91D01*
G01X638759Y811224D02*
G03X637872Y810297I1340J-2170D01*
G01X638759Y811224D02*
G03X638766Y811645I-131J213D01*
G01X638449Y814803D02*
G03X638766Y811645I1450J-1449D01*
G01X638449Y814803D02*
X638483Y814837D01*
X639933Y815438D02*
G03X638483Y814837I-0J-2050D01*
G01X639933Y815438D02*
X640771D01*
G03X640924Y815886I0J250*
G01X640983Y821363D02*
G03X640924Y815886I2030J-2761D01*
G01X640983Y821363D02*
G03X641085Y821565I-148J202D01*
G01Y826033*
G03X640723Y826257I-250J0*
G01X636076Y829136D02*
G03X640723Y826257I3215J-0D01*
G01X636076Y829136D02*
Y831892D01*
X640723Y834771D02*
G03X636076Y831892I-1432J-2879D01*
G01X640723Y834771D02*
G03X641085Y834994I112J223D01*
G01Y838157*
G03X640835Y838407I-250J0*
G01X624399*
G03X624149Y838157I-0J-250*
G01Y788715*
G03X624446Y788470I250J0*
G01Y784838D02*
G03Y788470I353J1816D01*
G01Y784838D02*
G03X624149Y784592I-47J-246D01*
G01Y780638*
G03X624583Y780469I250J0*
G01Y778238D02*
G03Y780469I1216J1116D01*
G01Y778238D02*
G03X624149Y778069I-184J-169D01*
G01Y776577*
G03X624293Y776350I250J0*
G01Y773357D02*
G03Y776350I-694J1497D01*
G01Y773357D02*
G03X624149Y773130I106J-227D01*
G01Y762430*
G03X624359Y762183I250J-0*
G01Y758924D02*
G03Y762183I-260J1630D01*
G01Y758924D02*
G03X624149Y758678I40J-246D01*
G01Y756954*
G03X624399Y756704I250J-0*
G01X645149*
Y755927*
G03X645241Y755733I250J-0*
G01Y753174D02*
G03Y755733I-1042J1280D01*
G01Y753174D02*
G03X645149Y752981I158J-193D01*
G01Y752530*
G03X645438Y752283I250J-0*
G01Y749024D02*
G03Y752283I261J1630D01*
G01Y749024D02*
G03X645149Y748778I-39J-246D01*
G01Y747843*
G03X645425Y747595I250J0*
G01Y744313D02*
G03Y747595I174J1641D01*
G01Y744313D02*
G03X645149Y744064I-26J-249D01*
G01Y742443*
G03X645372Y742195I250J0*
G01X646501Y741567D02*
G03X645372Y742195I-1302J-1013D01*
G01X646501Y741567D02*
G03X646896I198J153D01*
G01Y739541D02*
G03Y741567I1303J1013D01*
G01Y739541D02*
G03X646501I-197J-153D01*
G01X645372Y738913D02*
G03X646501Y739541I-173J1641D01*
G01X645372Y738913D02*
G03X645149Y738664I27J-249D01*
G01Y729792*
G03X645222Y729615I250J0*
G01X646614Y728223*
G03X646791Y728150I177J177*
G01X656926*
X657810Y727784D02*
G03X656926Y728150I-884J-884D01*
G01X657810Y727784D02*
X667984Y717610D01*
X668350Y716726D02*
G03X667984Y717610I-1250J0D01*
G01X668350Y716726D02*
Y712309D01*
G03X668423Y712133I250J0*
G01X669653Y710902*
G03X670047Y710955I177J177*
G01X670914Y711683D02*
G03X670047Y710955I564J-1550D01*
G01X670914Y711683D02*
G03X671078Y711918I-86J235D01*
X671075Y711963I-250J0*
G01X671385Y713252D02*
G03X671075Y711963I1314J-998D01*
G01X671385Y713252D02*
G03Y713555I-199J152D01*
G01X671692Y715861D02*
G03X671385Y713555I1007J-1307D01*
G01X671692Y715861D02*
G03X671784Y716111I-152J199D01*
G01X674405Y715146D02*
G03X671785Y716111I-1006J1308D01*
G01X674405Y715146D02*
G03X674313Y714896I152J-198D01*
G01X674012Y713555D02*
G03X674313Y714896I-1313J999D01*
G01X674012Y713555D02*
G03Y713252I199J-151D01*
G01X674349Y712254D02*
G03X674012Y713252I-1650J-0D01*
G01X674258Y711714D02*
G03X674349Y712254I-1559J540D01*
G01X674258Y711714D02*
G03X674494Y711383I236J-81D01*
G01X679730*
X680614Y711017D02*
G03X679730Y711383I-884J-884D01*
G01X680614Y711017D02*
X685641Y705990D01*
X685863Y705689D02*
G03X685641Y705990I-1106J-583D01*
G01X685863Y705689D02*
G03X686261Y705628I221J116D01*
G01X704177Y723545*
G03X704250Y723721I-177J176*
G01Y758531*
X704616Y759415D02*
G03X704250Y758531I884J-884D01*
G01X704616Y759415D02*
X708465Y763264D01*
G03X708538Y763441I-177J177*
X708518Y763541I-250J0*
G01X710510Y761549D02*
G03X708518Y763541I1537J3530D01*
G01X710510Y761549D02*
G03X710233Y761497I-100J-229D01*
G01X706823Y758087*
G03X706750Y757910I177J-177*
G01Y723100*
X706384Y722216D02*
G03X706750Y723100I-884J884D01*
G01X706384Y722216D02*
X687523Y703355D01*
G03X687450Y703179I177J-176*
G01Y697203*
G03X687779Y696966I250J-0*
G01X689949Y695443D02*
G03X687779Y696966I-1649J-43D01*
G01X689949Y695443D02*
G03X690199Y695200I250J7D01*
G01X690496*
G03X690673Y695273I-0J250*
G01X692304Y696904*
G03X692338Y696947I-177J177*
G01X694892Y694393D02*
G03X692338Y696947I-993J1561D01*
G01X694892Y694393D02*
G03X694849Y694359I134J-211D01*
G01X692681Y692191*
G03X692732Y691798I177J-177*
G01X693650Y690200D02*
G03X692732Y691798I-1850J0D01*
G01X691622Y688359D02*
G03X693650Y690200I178J1841D01*
G01X691622Y688359D02*
G03X691348Y688115I-24J-249D01*
G01X690142Y686564D02*
G03X691348Y688116I-443J1590D01*
G01X690142Y686564D02*
G03X689959Y686323I67J-241D01*
X690055Y686127I250J0*
G01X690168Y686027D02*
G03X690055Y686127I-884J-884D01*
G01X690168Y686027D02*
X694426Y681768D01*
G03X694572Y681697I177J177*
G01X696017Y680060D02*
G03X694572Y681697I-1650J-0D01*
G01X696017Y680060D02*
X696017D01*
X695979Y679707D02*
G03X696017Y680060I-1612J353D01*
G01X695979Y679707D02*
G03X696223Y679404I244J-53D01*
G01X702477*
G03X702654Y679477I0J250*
G01X704475Y681298*
G03X704549Y681475I-176J177*
G01Y691432*
G03X704122Y691609I-250J0*
G01X703707Y691194*
G03X703636Y691049I177J-176*
G01X701794Y692891D02*
G03X703636Y691049I205J-1637D01*
G01X701794Y692891D02*
G03X701939Y692962I-31J248D01*
G01X702575Y693598*
G03X702649Y693775I-176J177*
G01Y716930*
X703015Y717814D02*
G03X702649Y716930I884J-884D01*
G01X703015Y717814D02*
X708465Y723264D01*
G03X708538Y723441I-177J177*
X708518Y723541I-250J0*
G01X710510Y721549D02*
G03X708518Y723541I1537J3530D01*
G01X710510Y721549D02*
G03X710233Y721497I-100J-229D01*
G01X705222Y716486*
G03X705149Y716309I177J-177*
G01Y700551*
G03X705575Y700375I250J0*
G01X708465Y703264*
G03X708538Y703441I-177J177*
X708518Y703541I-250J0*
G01X710510Y701549D02*
G03X708518Y703541I1537J3530D01*
G01X710510Y701549D02*
G03X710233Y701497I-100J-229D01*
G01X707122Y698386*
G03X707049Y698209I177J-177*
G01Y680854*
X706683Y679970D02*
G03X707049Y680854I-884J884D01*
G01X706683Y679970D02*
X703983Y677270D01*
X703099Y676904D02*
G03X703983Y677270I-0J1250D01*
G01X703099Y676904D02*
X695696D01*
G03X695446Y676654I0J-250*
X695470Y676547I250J-0*
G01X692127D02*
G03X695470I1672J-793D01*
G01X692127D02*
G03X692151Y676654I-226J107D01*
X691901Y676904I-250J-0*
G01X685372*
G03X685152Y676535I-0J-250*
G01X685333Y675524D02*
G03X685152Y676535I-1634J230D01*
G01X685333Y675524D02*
G03X685727Y675288I247J-34D01*
G01X685065Y674183D02*
G03X685727Y675288I1634J-229D01*
G01X685065Y674183D02*
G03X684670Y674420I-248J35D01*
G01X683681Y674104D02*
G03X684670Y674420I18J1650D01*
G01X683681Y674104D02*
G03X683443Y673937I-2J-250D01*
G01X682232Y672782D02*
G03X683443Y673937I-533J1772D01*
G01X682232Y672782D02*
G03X682054Y672543I72J-239D01*
X682128Y672366I250J-0*
G01X687482Y667012*
X687849Y666127D02*
G03X687482Y667012I-1250J0D01*
G01X687849Y666127D02*
Y660715D01*
G03X688146Y660470I250J0*
G01Y656838D02*
G03Y660470I353J1816D01*
G01Y656838D02*
G03X687849Y656592I-47J-246D01*
G01Y646054*
X687483Y645170D02*
G03X687849Y646054I-884J884D01*
G01X687483Y645170D02*
X677222Y634909D01*
G03X677149Y634732I177J-177*
G01Y627454*
X677070Y627017D02*
G03X677149Y627454I-1171J437D01*
G01X677070Y627017D02*
G03X677054Y626929I234J-88D01*
X677264Y626682I250J0*
G01X675399Y624651D02*
G03X677264Y626682I1600J403D01*
G01X675399Y624651D02*
G03X674979Y624767I-243J-61D01*
G01X672483Y622270*
X671599Y621904D02*
G03X672483Y622270I-0J1250D01*
G01X671599Y621904D02*
X666807D01*
G03X666727Y621417I0J-250*
G01X667399Y620986D02*
G03X666727Y621417I-1200J-1132D01*
G01X667399Y620986D02*
G03X667714Y620947I181J172D01*
G01X670249Y619554D02*
G03X667714Y620947I-1650J-0D01*
G01X667399Y618421D02*
G03X670249Y619554I1200J1133D01*
G01X667399Y618421D02*
G03X667083Y618461I-182J-171D01*
G01X665670Y621417D02*
G03X667083Y618461I529J-1563D01*
G01X665670Y621417D02*
G03X665590Y621904I-80J237D01*
G01X660175*
G03X659928Y621614I-0J-250*
G01X659949Y621354D02*
G03X659928Y621614I-1650J-0D01*
G01X659949Y621354D02*
X659949D01*
X656649D02*
G03X659949I1650J-0D01*
G01X656649D02*
X656649D01*
X656669Y621614D02*
G03X656649Y621354I1630J-260D01*
G01X656669Y621614D02*
G03X656422Y621904I-247J40D01*
G01X655699*
X654815Y622270D02*
G03X655699Y621904I884J884D01*
G01X654815Y622270D02*
X654339Y622745D01*
G03X654194Y622817I-176J-177*
G01X652750Y624396D02*
G03X654194Y622817I1649J58D01*
G01X652750Y624396D02*
G03X652407Y624620I-250J-8D01*
G01X652811Y627456D02*
G03X652407Y624620I-1012J-1302D01*
G01X652811Y627456D02*
G03X652965Y627404I154J198D01*
G01X656199*
X656608Y627335D02*
G03X656199Y627404I-409J-1181D01*
G01X656608Y627335D02*
G03X656866Y627748I82J236D01*
G01X654584Y630030*
G03X654407Y630104I-177J-176*
G01X651965*
G03X651811Y630051I-0J-250*
G01X649412Y632248D02*
G03X651811Y630051I1387J-894D01*
G01X649412Y632248D02*
G03X649452Y632383I-210J135D01*
X649399Y632537I-250J0*
G01X652233Y632946D02*
G03X649399Y632537I-1534J608D01*
G01X652233Y632946D02*
G03X652215Y632854I232J-92D01*
X652465Y632604I250J-0*
G01X655028*
X655912Y632238D02*
G03X655028Y632604I-884J-884D01*
G01X655912Y632238D02*
X656941Y631209D01*
G03X657368Y631386I177J177*
X657349Y631479I-250J-0*
G01X660405Y632656D02*
G03X657349Y631479I-1537J-564D01*
G01X660405Y632656D02*
G03X660874I235J86D01*
G01X662976Y630555D02*
G03X660874Y632656I-565J1537D01*
G01X662976Y630555D02*
G03Y630085I86J-235D01*
G01X663992Y628119D02*
G03X662976Y630085I-1581J429D01*
G01X663992Y628119D02*
G03X664233Y627804I241J-65D01*
G01X665314*
G03X665556Y628119I0J250*
G01X666571Y630085D02*
G03X665556Y628119I565J-1537D01*
G01X666571Y630085D02*
G03Y630555I-86J235D01*
G01X668673Y632656D02*
G03X666571Y630555I-1537J-564D01*
G01X668673Y632656D02*
G03X669142I234J86D01*
G01X671043Y633688D02*
G03X669142Y632656I-364J-1596D01*
G01X671043Y633688D02*
G03X671349Y633932I56J244D01*
G01Y634976*
G03X671043Y635219I-250J-0*
G01X669142Y636251D02*
G03X671043Y635219I1537J565D01*
G01X669142Y636251D02*
G03X668673I-235J-86D01*
G01X666571Y638353D02*
G03X668673Y636251I565J-1537D01*
G01X666571Y638353D02*
G03Y638822I-86J235D01*
G01X667700D02*
G03X666571I-564J1537D01*
G01X667700D02*
G03Y638353I87J-234D01*
G01X668673Y637381D02*
G03X667700Y638353I-1537J-565D01*
G01X668673Y637381D02*
G03X669142I234J86D01*
G01X671503Y638231D02*
G03X669142Y637381I-824J-1415D01*
G01X671503Y638231D02*
G03X671806Y638270I126J216D01*
G01X675075Y641540*
G03X675149Y641716I-176J176*
G01Y647669*
G03X674714Y647838I-250J0*
G01X673678Y647313D02*
G03X674714Y647838I-179J1641D01*
G01X673678Y647313D02*
G03X673467Y647142I27J-248D01*
G01X670596Y648666D02*
G03X673467Y647142I1303J-1012D01*
G01X670596Y648666D02*
G03X670649Y648820I-197J154D01*
G01Y665477*
G03X670575Y665654I-250J0*
G01X666099Y670131*
G03X665922Y670204I-177J-177*
G01X653670*
G03X653424Y669912I0J-250*
G01X649776D02*
G03X653424I1824J-312D01*
G01X649776D02*
G03X649530Y670204I-246J42D01*
G01X642399*
G03X642149Y669954I-0J-250*
G01Y660857*
G03X642478Y660619I250J-0*
G01Y657488D02*
G03Y660619I521J1566D01*
G01Y657488D02*
G03X642149Y657251I-79J-237D01*
G01Y652404*
G03X642399Y652154I250J-0*
G01X647299*
G03X647549Y652404I0J250*
X647523Y652516I-250J-0*
G01X650474D02*
G03X647523I-1475J738D01*
G01X650474D02*
G03X650448Y652404I224J-112D01*
X650698Y652154I250J-0*
G01X660753*
G03X661003Y652404I-0J250*
X660983Y652502I-250J-0*
G01X663478Y651826D02*
G03X660983Y652502I-979J1328D01*
G01X663478Y651826D02*
G03X663450Y651448I149J-201D01*
G01X665549Y649349*
G03X665592Y649315I177J176*
G01X663227Y646512D02*
G03X665592Y649315I1372J1242D01*
G01X663227Y646512D02*
G03X662838Y646491I-186J-167D01*
G01X660500Y646140D02*
G03X662838Y646491I999J1314D01*
G01X660500Y646140D02*
G03X660197I-151J-199D01*
G01X657723Y648192D02*
G03X660197Y646140I1476J-738D01*
G01X657723Y648192D02*
G03X657749Y648304I-224J112D01*
X657499Y648554I-250J-0*
G01X656319*
G03X656090Y648203I-0J-250*
G01X652707D02*
G03X656090I1692J-749D01*
G01X652707D02*
G03X652478Y648554I-229J101D01*
G01X643898*
G03X643753Y648100I-0J-250*
G01X644449Y646754D02*
G03X643753Y648100I-1650J-0D01*
G01X641453Y645799D02*
G03X644449Y646754I1346J955D01*
G01X641453Y645799D02*
G03X640999Y645655I-204J-144D01*
G01Y642853*
G03X641453Y642708I250J-0*
G01Y640799D02*
G03Y642708I1346J955D01*
G01Y640799D02*
G03X640999Y640655I-204J-144D01*
G01Y637103*
G03X641072Y636926I250J-0*
G01X641349Y636649*
G03X641392Y636615I177J176*
G01X638838Y634060D02*
G03X641392Y636615I1561J994D01*
G01X638838Y634060D02*
G03X638804Y634103I-211J-134D01*
G01X638047Y634860*
G03X637620Y634683I-177J-177*
X637624Y634640I250J0*
G01X634754Y635436D02*
G03X637624Y634640I1245J-1082D01*
G01X634754Y635436D02*
G03X634740Y635779I-189J165D01*
G01X635296Y638490D02*
G03X634740Y635779I603J-1536D01*
G01X635296Y638490D02*
G03X635454Y638722I-92J232D01*
Y638726I-250J0*
G01Y638748D02*
G03Y638726I1650J-0D01*
G01Y638748D02*
X635454D01*
X637143Y640398D02*
G03X635454Y638748I-39J-1650D01*
G01X637143Y640398D02*
G03X637399Y640647I6J249D01*
G01X637399D02*
Y646954D01*
G03X637149Y647204I-250J-0*
G01X630649*
Y656655*
G03X630575Y656831I-250J-0*
G01X628326Y659081*
X627799Y660354D02*
G03X628326Y659081I1800J-0D01*
G01X627799Y660354D02*
Y661360D01*
G03X627328Y661478I-250J-0*
G01Y663229D02*
G03Y661478I-1629J-875D01*
G01Y663229D02*
G03X627799Y663348I221J119D01*
G01Y686798*
G03X627793Y686852I-250J0*
G01X627749Y687254D02*
G03X627793Y686852I1850J-0D01*
G01X631449Y687254D02*
G03X627749I-1850J-0D01*
G01X631405Y686852D02*
G03X631449Y687254I-1806J402D01*
G01X631405Y686852D02*
G03X631399Y686798I244J-54D01*
G01Y683373*
G03X631698Y683128I250J0*
G01X632802Y682963D02*
G03X631698Y683128I-782J-1453D01*
G01X632802Y682963D02*
G03X633098Y683006I119J220D01*
G01X633897Y683805*
G03X633970Y683982I-177J177*
G01Y694020*
X634512Y695328D02*
G03X633970Y694020I1308J-1308D01*
G01X634512Y695328D02*
X639575Y700392D01*
G03X639649Y700569I-176J177*
G01X639649D02*
Y702105D01*
G03X639622Y702217I-250J0*
G01Y703691D02*
G03Y702217I1477J-737D01*
G01Y703691D02*
G03X639649Y703802I-223J111D01*
G01Y711115*
G03X639575Y711292I-250J0*
G01X633229Y717638*
X632971Y718007D02*
G03X633229Y717638I1178J550D01*
G01X632971Y718007D02*
G03X632921Y718078I-226J-106D01*
G01X632649Y718350*
Y719865*
G03X632268Y720078I-250J-0*
G01X632221Y723257D02*
G03X632268Y720078I-922J-1603D01*
G01X632221Y723257D02*
G03X632589Y723419I125J217D01*
G01X632635Y723582D02*
G03X632589Y723419I1564J-528D01*
G01X632635Y723582D02*
G03X632649Y723662I-236J80D01*
G01Y733088*
G03X632575Y733265I-250J-0*
G01X625710Y740131*
G03X625533Y740204I-177J-177*
G01X619889*
G03X619640Y739978I0J-250*
G01X615957D02*
G03X619640I1842J176D01*
G01X615957D02*
G03X615708Y740204I-249J-24D01*
G01X602000*
G03X601750Y739954I0J-250*
G01Y738658*
G03X601878Y738440I250J-0*
G01Y731718D02*
G03Y738440I-1878J3361D01*
G01Y731718D02*
G03X601750Y731500I122J-218D01*
G01Y728658*
G03X601878Y728440I250J-0*
G01Y721718D02*
G03Y728440I-1878J3361D01*
G01Y721718D02*
G03X601750Y721500I122J-218D01*
G01Y718658*
G03X601878Y718440I250J-0*
G01Y711718D02*
G03Y718440I-1878J3361D01*
G01Y711718D02*
G03X601750Y711500I122J-218D01*
G01Y708658*
G03X601878Y708440I250J-0*
G01Y701718D02*
G03Y708440I-1878J3361D01*
G01Y701718D02*
G03X601750Y701500I122J-218D01*
G01Y698658*
G03X601878Y698440I250J-0*
G01Y691718D02*
G03Y698440I-1878J3361D01*
G01Y691718D02*
G03X601750Y691500I122J-218D01*
G01Y688658*
G03X601878Y688440I250J-0*
G01Y681718D02*
G03Y688440I-1878J3361D01*
G01Y681718D02*
G03X601750Y681500I122J-218D01*
G01Y678658*
G03X601878Y678440I250J-0*
G01Y671718D02*
G03Y678440I-1878J3361D01*
G01Y671718D02*
G03X601750Y671500I122J-218D01*
G01Y668658*
G03X601878Y668440I250J-0*
G01Y661718D02*
G03Y668440I-1878J3361D01*
G01Y661718D02*
G03X601750Y661500I122J-218D01*
G01Y658658*
G03X601878Y658440I250J-0*
G01Y651718D02*
G03Y658440I-1878J3361D01*
G01Y651718D02*
G03X601750Y651500I122J-218D01*
G01Y648658*
G03X601878Y648440I250J-0*
G01Y641718D02*
G03Y648440I-1878J3361D01*
G01Y641718D02*
G03X601750Y641500I122J-218D01*
G01Y638885*
G03X601884Y638664I250J0*
G01Y631493D02*
G03Y638664I-1884J3586D01*
G01Y631493D02*
G03X601750Y631272I116J-221D01*
G01Y628885*
G03X601884Y628664I250J0*
G01Y621493D02*
G03Y628664I-1884J3586D01*
G01Y621493D02*
G03X601750Y621272I116J-221D01*
G01Y602000*
G03X602000Y601750I250J0*
G01X720047*
G03X720297Y602000I0J250*
G01Y621500*
G03X720169Y621718I-250J-0*
G01Y628440D02*
G03Y621718I1878J-3361D01*
G01Y628440D02*
G03X720297Y628658I-122J218D01*
G01Y631500*
G03X720169Y631718I-250J-0*
G01Y638440D02*
G03Y631718I1878J-3361D01*
G01Y638440D02*
G03X720297Y638658I-122J218D01*
G01Y641500*
G03X720169Y641718I-250J-0*
G01Y648440D02*
G03Y641718I1878J-3361D01*
G01Y648440D02*
G03X720297Y648658I-122J218D01*
G01Y651500*
G03X720169Y651718I-250J-0*
G01Y658440D02*
G03Y651718I1878J-3361D01*
G01Y658440D02*
G03X720297Y658658I-122J218D01*
G01Y661500*
G03X720169Y661718I-250J-0*
G01Y668440D02*
G03Y661718I1878J-3361D01*
G01Y668440D02*
G03X720297Y668658I-122J218D01*
G01Y671500*
G03X720169Y671718I-250J-0*
G01Y678440D02*
G03Y671718I1878J-3361D01*
G01Y678440D02*
G03X720297Y678658I-122J218D01*
G01Y681500*
G03X720169Y681718I-250J-0*
G01Y688440D02*
G03Y681718I1878J-3361D01*
G01Y688440D02*
G03X720297Y688658I-122J218D01*
G01Y691500*
G03X720169Y691718I-250J-0*
G01Y698440D02*
G03Y691718I1878J-3361D01*
G01Y698440D02*
G03X720297Y698658I-122J218D01*
G01Y701500*
G03X720169Y701718I-250J-0*
G01Y708440D02*
G03Y701718I1878J-3361D01*
G01Y708440D02*
G03X720297Y708658I-122J218D01*
G01Y711500*
G03X720169Y711718I-250J-0*
G01Y718440D02*
G03Y711718I1878J-3361D01*
G01Y718440D02*
G03X720297Y718658I-122J218D01*
G01Y721500*
G03X720169Y721718I-250J-0*
G01Y728440D02*
G03Y721718I1878J-3361D01*
G01Y728440D02*
G03X720297Y728658I-122J218D01*
G01Y731500*
G03X720169Y731718I-250J-0*
G01Y738440D02*
G03Y731718I1878J-3361D01*
G01Y738440D02*
G03X720297Y738658I-122J218D01*
G01Y741500*
G03X720169Y741718I-250J-0*
G01Y748440D02*
G03Y741718I1878J-3361D01*
G01Y748440D02*
G03X720297Y748658I-122J218D01*
G01Y751500*
G03X720169Y751718I-250J-0*
G01Y758440D02*
G03Y751718I1878J-3361D01*
G01Y758440D02*
G03X720297Y758658I-122J218D01*
G01Y761500*
G03X720169Y761718I-250J-0*
G01Y768440D02*
G03Y761718I1878J-3361D01*
G01Y768440D02*
G03X720297Y768658I-122J218D01*
G01Y771500*
G03X720169Y771718I-250J-0*
G01Y778440D02*
G03Y771718I1878J-3361D01*
G01Y778440D02*
G03X720297Y778658I-122J218D01*
G01Y781500*
G03X720169Y781718I-250J-0*
G01Y788440D02*
G03Y781718I1878J-3361D01*
G01Y788440D02*
G03X720297Y788658I-122J218D01*
G01Y791500*
G03X720169Y791718I-250J-0*
G01Y798440D02*
G03Y791718I1878J-3361D01*
G01Y798440D02*
G03X720297Y798658I-122J218D01*
G01Y801272*
G03X720164Y801493I-250J0*
G01Y808664D02*
G03Y801493I1883J-3585D01*
G01Y808664D02*
G03X720297Y808885I-117J221D01*
G01Y811500*
G03X720169Y811718I-250J-0*
G01Y818440D02*
G03Y811718I1878J-3361D01*
G01Y818440D02*
G03X720297Y818658I-122J218D01*
G01Y838157*
X683849Y664532D02*
G03X683775Y664709I-250J0D01*
G01X676315Y672170*
X675949Y673054D02*
G03X676315Y672170I1250J-0D01*
G01X675949Y673054D02*
Y675068D01*
G03X675528Y675250I-250J0*
G01X674051Y674841D02*
G03X675528Y675250I348J1613D01*
G01X674051Y674841D02*
G03X673748Y674591I-53J-245D01*
G01X673749Y674554D02*
G03X673748Y674591I-1650J-0D01*
G01X673749Y674554D02*
X673749D01*
X671900Y672916D02*
G03X673749Y674554I199J1638D01*
G01X671900Y672916D02*
G03X671637Y672758I-30J-249D01*
G01X670987Y671963D02*
G03X671637Y672758I-888J1391D01*
G01X670987Y671963D02*
G03X670945Y671576I134J-211D01*
G01X677132Y665388*
G03X677558Y665539I177J177*
G01X678077Y664059D02*
G03X677558Y665539I1322J1295D01*
G01X678077Y664059D02*
G03X677649Y663884I-178J-175D01*
G01Y654539*
G03X678070Y654357I250J0*
G01Y651950D02*
G03Y654357I1129J1204D01*
G01Y651950D02*
G03X677649Y651768I-171J-182D01*
G01Y644151*
G03X677912Y643902I250J0*
G01X679241Y643341D02*
G03X677912Y643902I-1242J-1087D01*
G01X679241Y643341D02*
G03X679606Y643329I188J164D01*
G01X683775Y647498*
G03X683849Y647675I-176J177*
G01Y664532*
X680960Y690353D02*
G03X680886Y690530I-250J-0D01*
G01X680316Y691100*
X679950Y691984D02*
G03X680316Y691100I1250J-0D01*
G01X679950Y691984D02*
Y692379D01*
G03X679555Y692582I-250J-0*
G01X676941Y693062D02*
G03X679555Y692582I1539J1026D01*
G01X676941Y693062D02*
G03X676532Y693072I-208J-139D01*
G01X676587Y695203D02*
G03X676532Y693072I-1539J-1026D01*
G01X676587Y695203D02*
G03X676996Y695193I208J139D01*
G01X679555Y695594D02*
G03X676996Y695193I-1075J-1506D01*
G01X679555Y695594D02*
G03X679950Y695797I145J203D01*
G01Y702076*
G03X679535Y702264I-250J0*
G01X678313Y701803D02*
G03X679535Y702264I-0J1850D01*
G01X678313Y701803D02*
X668866D01*
G03X668619Y701513I-0J-250*
G01X666792Y699371D02*
G03X668619Y701513I0J1850D01*
G01X666792Y699371D02*
X666399D01*
G03X666149Y699121I-0J-250*
G01Y690080*
G03X666202Y689925I250J-0*
G01X666471Y689151D02*
G03X666202Y689925I-1250J-0D01*
G01X666471Y689151D02*
Y687297D01*
G03X666898Y687121I250J0*
G01X668315Y688538*
X669199Y688904D02*
G03X668315Y688538I-0J-1250D01*
G01X669199Y688904D02*
X679699D01*
X680541Y688577D02*
G03X679699Y688904I-842J-923D01*
G01X680541Y688577D02*
G03X680960Y688762I169J185D01*
G01Y690353*
X664649Y698921D02*
G03X664399Y699171I-250J-0D01*
G01X650510*
G03X650476Y699169I0J-250*
G01X650200Y699150D02*
G03X650476Y699169I0J2050D01*
G01X650200Y699150D02*
X647400D01*
X645532Y700355D02*
G03X647400Y699150I1868J845D01*
G01X645532Y700355D02*
G03X645128Y700429I-227J-103D01*
G01X641222Y696523*
G03X641149Y696346I177J-177*
G01Y692790*
G03X641595Y692635I250J0*
G01Y690343D02*
G03Y692635I1452J1146D01*
G01Y690343D02*
G03X641149Y690188I-196J-155D01*
G01Y688350*
X637943Y685145*
G03X637870Y684968I177J-177*
G01Y683445*
G03X638296Y683267I250J-0*
G01Y680640D02*
G03Y683267I1303J1314D01*
G01Y680640D02*
G03X637870Y680462I-176J-178D01*
G01Y665775*
X637270Y664326D02*
G03X637870Y665775I-1450J1449D01*
G01X637270Y664326D02*
X634348Y661404D01*
X632453Y660853D02*
G03X634348Y661404I446J2001D01*
G01X632453Y660853D02*
G03X632149Y660609I-54J-244D01*
G01Y660453*
G03X632222Y660276I250J-0*
G01X640222Y652276*
G03X640649Y652453I177J177*
G01Y671704*
X657233*
G03X657420Y672120I0J250*
G01X660178D02*
G03X657420I-1379J1234D01*
G01X660178D02*
G03X660364Y671704I186J-166D01*
G01X663733*
G03X663952Y672075I0J250*
G01X663771Y672776D02*
G03X663952Y672075I1450J-0D01*
G01X663771Y672776D02*
Y686572D01*
G03X663488Y686820I-250J0*
G01X661657Y689606D02*
G03X663488Y686820I1587J-952D01*
G01X661657Y689606D02*
G03X661331Y689957I-214J128D01*
G01X659130Y692854D02*
G03X661331Y689957I1369J-1244D01*
G01X659130Y692854D02*
G03X659122Y693199I-185J169D01*
G01X657590Y694731*
G03X657414Y694804I-176J-177*
G01X653171*
G03X652949Y694440I0J-250*
G01X649655D02*
G03X652949I1647J-843D01*
G01X649655D02*
G03X649433Y694804I-222J114D01*
G01X648130*
G03X647910Y694672I0J-250*
G01X646018Y697378D02*
G03X647910Y694672I262J-1831D01*
G01X646018Y697378D02*
G03X646131Y697424I-35J248D01*
G01X646987Y697704D02*
G03X646131Y697424I0J-1450D01*
G01X646987Y697704D02*
X658118D01*
X659143Y697279D02*
G03X658118Y697704I-1025J-1025D01*
G01X659143Y697279D02*
X664222Y692201D01*
G03X664649Y692377I177J176*
G01Y698921*
X643649Y748956D02*
G03X643291Y749182I-250J0D01*
G01X642714Y752691D02*
G03X643291Y749182I-215J-1837D01*
G01X642714Y752691D02*
G03X642917Y753120I30J248D01*
G01X642402Y754894D02*
G03X642917Y753120I1797J-440D01*
G01X642402Y754894D02*
G03X642409Y754954I-243J60D01*
X642159Y755204I-250J-0*
G01X622649*
Y759321*
G03X622601Y759468I-250J-0*
G01X622249Y760554D02*
G03X622601Y759468I1850J-0D01*
G01X622249Y760554D02*
X622249D01*
X622601Y761640D02*
G03X622249Y760554I1498J-1086D01*
G01X622601Y761640D02*
G03X622649Y761787I-202J147D01*
G01Y766513*
G03X622161Y766590I-250J0*
G01Y767718D02*
G03Y766590I-1762J-564D01*
G01Y767718D02*
G03X622649Y767794I238J76D01*
G01Y773130*
G03X622541Y773336I-250J0*
G01Y776372D02*
G03Y773336I1058J-1518D01*
G01Y776372D02*
G03X622649Y776577I-142J205D01*
G01Y781613*
G03X622161Y781690I-250J0*
G01Y782818D02*
G03Y781690I-1762J-564D01*
G01Y782818D02*
G03X622649Y782894I238J76D01*
G01Y789088*
G03X622232Y789275I-250J0*
G01Y792033D02*
G03Y789275I-1233J-1379D01*
G01Y792033D02*
G03X622649Y792219I167J186D01*
G01Y838157*
G03X622399Y838407I-250J0*
G01X602000*
G03X601750Y838157I0J-250*
G01Y818885*
G03X601884Y818664I250J0*
G01Y811493D02*
G03Y818664I-1884J3586D01*
G01Y811493D02*
G03X601750Y811272I116J-221D01*
G01Y808885*
G03X601884Y808664I250J0*
G01Y801493D02*
G03Y808664I-1884J3586D01*
G01Y801493D02*
G03X601750Y801272I116J-221D01*
G01Y798885*
G03X601884Y798664I250J0*
G01Y791493D02*
G03Y798664I-1884J3586D01*
G01Y791493D02*
G03X601750Y791272I116J-221D01*
G01Y788885*
G03X601884Y788664I250J0*
G01Y781493D02*
G03Y788664I-1884J3586D01*
G01Y781493D02*
G03X601750Y781272I116J-221D01*
G01Y778885*
G03X601884Y778664I250J0*
G01Y771493D02*
G03Y778664I-1884J3586D01*
G01Y771493D02*
G03X601750Y771272I116J-221D01*
G01Y768885*
G03X601884Y768664I250J0*
G01Y761493D02*
G03Y768664I-1884J3586D01*
G01Y761493D02*
G03X601750Y761272I116J-221D01*
G01Y758885*
G03X601884Y758664I250J0*
G01Y751493D02*
G03Y758664I-1884J3586D01*
G01Y751493D02*
G03X601750Y751272I116J-221D01*
G01Y748885*
G03X601884Y748664I250J0*
G01X602782Y742135D02*
G03X601884Y748664I-2782J2944D01*
G01X602782Y742135D02*
G03X602954Y741704I172J-181D01*
G01X607046*
G03X607218Y742135I0J250*
G01X613892Y746198D02*
G03X607218Y742135I-3892J-1119D01*
G01X613892Y746198D02*
G03X614133Y746017I241J69D01*
G01X616408*
G03X616584Y746444I-0J250*
G01X611768Y751261*
G03X611498Y751316I-177J-177*
G01X605950Y755079D02*
G03X611498Y751316I4050J-0D01*
G01X614050Y755079D02*
G03X605950I-4050J-0D01*
G01X614050D02*
X614050D01*
X613763Y753580D02*
G03X614050Y755079I-3763J1499D01*
G01X613763Y753580D02*
G03X613818Y753311I232J-92D01*
G01X618406Y748723*
G03X618583Y748650I177J177*
G01X618714*
G03X618914Y749049I-0J250*
G01X618549Y750154D02*
G03X618914Y749049I1850J-0D01*
G01X619060Y751431D02*
G03X618549Y750154I1339J-1277D01*
G01X619060Y751431D02*
G03X619129Y751603I-181J172D01*
X618894Y751853I-250J0*
G01X617150Y753700D02*
G03X618894Y751853I1850J0D01*
G01X620338Y752423D02*
G03X617150Y753700I-1338J1277D01*
G01X620338Y752423D02*
G03X620269Y752250I181J-173D01*
X620505Y752001I250J0*
G01X622134Y750796D02*
G03X620505Y752001I-1735J-642D01*
G01X622134Y750796D02*
G03X622586Y750760I234J87D01*
G01X625639Y751015D02*
G03X622586Y750760I-1440J-1161D01*
G01X625639Y751015D02*
G03X626084Y751172I195J157D01*
G01X626084*
G03X626079Y751217I-250J-0*
G01X626049Y751554D02*
G03X626079Y751217I1850J-0D01*
G01X626049Y751554D02*
X626049D01*
X626458Y750393D02*
G03X626049Y751554I1441J1161D01*
G01X626458Y750393D02*
G03X626014Y750236I-194J-157D01*
G01X626014*
G03X626018Y750190I250J-0*
G01X626049Y749854D02*
G03X626018Y750190I-1850J-0D01*
G01X626049Y749854D02*
X626049D01*
X625003Y748188D02*
G03X626049Y749854I-804J1666D01*
G01X625003Y748188D02*
G03X624935Y747786I108J-226D01*
G01X630943Y741777*
G03X631120Y741704I177J177*
G01X633329*
G03X633504Y741775I-0J250*
G01X634728Y738605D02*
G03X633504Y741775I71J1849D01*
G01X634728Y738605D02*
G03X634542Y738178I-10J-250D01*
G01X643222Y729498*
G03X643649Y729675I177J177*
G01Y736930*
G03X643256Y737136I-250J0*
G01X642991Y740325D02*
G03X643256Y737136I-792J-1671D01*
G01X642991Y740325D02*
G03X643349Y740551I108J226D01*
G01Y740554*
X643613Y741507D02*
G03X643349Y740554I1586J-953D01*
G01X643613Y741507D02*
G03X643649Y741635I-214J128D01*
G01Y748956*
X715897Y775079D02*
G03X715897I-3850J0D01*
G01Y785079D02*
G03X715897I-3850J0D01*
G01Y795079D02*
G03X715897I-3850J0D01*
G01X716097Y805079D02*
G03X716097I-4050J0D01*
G01X715897Y815079D02*
G03X715897I-3850J0D01*
G01X702886Y741448D02*
G03X702886I-1650J0D01*
G01X702449Y762954D02*
G03X702449I-1850J0D01*
G01X700188Y773589D02*
G03X700188I-1650J0D01*
G01X700044Y784095D02*
G03X699749Y783154I1355J-941D01*
G01X700044Y784095D02*
G03X700031Y784398I-206J143D01*
G01X699649Y785454D02*
G03X700031Y784398I1650J-0D01*
G01X699923Y786366D02*
G03X699649Y785454I1376J-912D01*
G01X699923Y786366D02*
G03Y786642I-208J138D01*
G01X702674D02*
G03X699923I-1375J912D01*
G01X702674D02*
G03Y786366I208J-138D01*
G01X702949Y785454D02*
G03X702674Y786366I-1650J-0D01*
G01X702654Y784512D02*
G03X702949Y785454I-1355J942D01*
G01X702654Y784512D02*
G03X702667Y784209I205J-143D01*
G01X699749Y783154D02*
G03X702667Y784209I1650J-0D01*
G01X694623Y749501D02*
G03X694623I-1650J0D01*
G01X695849Y763754D02*
G03X695849I-1650J0D01*
G01X694149Y773454D02*
G03X694149I-1650J0D01*
G01X694549Y782454D02*
G03X694549I-1650J0D01*
G01X697149Y786854D02*
G03X697149I-1650J0D01*
G01X701204Y791767D02*
G03X700915Y791754I-135J-210D01*
G01X699117Y791601D02*
G03X700915Y791754I782J1453D01*
G01X699117Y791601D02*
G03X698841Y791574I-119J-221D01*
G01X698580Y794307D02*
G03X698841Y791574I-781J-1453D01*
G01X698580Y794307D02*
G03X698857Y794333I119J220D01*
G01X700793Y794440D02*
G03X698857Y794333I-894J-1386D01*
G01X700793Y794440D02*
G03X701082Y794454I135J211D01*
G01X701204Y791767D02*
G03X701082Y794454I895J1387D01*
G01X704649Y799954D02*
G03X704649I-1850J0D01*
G01X705049Y809754D02*
G03X705049I-1650J0D01*
G01X690749Y818454D02*
G03X690749I-1850J0D01*
G01Y826454D02*
G03X690749I-1850J0D01*
G01X689692Y722897D02*
G03X689692I-1650J0D01*
G01X687274Y727518D02*
G03X686932Y727387I-110J-224D01*
G01X685611Y726364D02*
G03X686932Y727387I-211J1636D01*
G01X685611Y726364D02*
G03X685478Y725928I32J-248D01*
G01X686038Y724690D02*
G03X685478Y725928I-1650J-0D01*
G01X684886Y723117D02*
G03X686038Y724690I-498J1573D01*
G01X684886Y723117D02*
G03X684717Y722829I76J-238D01*
G01X682601Y724073D02*
G03X684717Y722829I499J-1573D01*
G01X682601Y724073D02*
G03X682771Y724361I-75J238D01*
G01X682738Y724690D02*
G03X682771Y724361I1650J-0D01*
G01X684176Y726326D02*
G03X682738Y724690I212J-1636D01*
G01X684176Y726326D02*
G03X684309Y726762I-32J248D01*
G01X683750Y728000D02*
G03X684309Y726762I1650J0D01*
G01X686126Y729482D02*
G03X683750Y728000I-726J-1482D01*
G01X686126Y729482D02*
G03X686468Y729613I110J224D01*
G01X687274Y727518D02*
G03X686468Y729613I726J1482D01*
G01X688935Y748511D02*
G03X688935I-1850J0D01*
G01X690749Y763154D02*
G03X690749I-1650J0D01*
G01X691649Y786854D02*
G03X691649I-1650J0D01*
G01X694449Y792854D02*
G03X694449I-1650J0D01*
G01X681730Y756275D02*
G03X681662Y756621I-208J139D01*
G01X684123Y756973D02*
G03X681662Y756621I-1424J1181D01*
G01X684123Y756973D02*
G03X684155Y756621I192J-160D01*
G01X681730Y756275D02*
G03X684155Y756621I1369J-921D01*
G01X686749Y762754D02*
G03X686749I-1650J0D01*
G01X685949Y773254D02*
G03X685949I-1650J0D01*
G01X684381Y780040D02*
G03X684468Y780109I-108J225D01*
X684579Y780120I32J248*
G01X684381Y780040D02*
G03X684579Y780120I718J-1486D01*
G01X674688Y724304D02*
G03X674377Y724300I-153J-197D01*
G01X674345Y726882D02*
G03X674377Y724300I-1011J-1303D01*
G01X674345Y726882D02*
G03X674656Y726886I153J198D01*
G01X674688Y724304D02*
G03X674656Y726886I1012J1304D01*
G01X680285Y730446D02*
G03X680285I-1650J0D01*
G01X679538Y735458D02*
G03X679538I-1850J0D01*
G01X684393Y780583D02*
G03X684304Y780513I107J-226D01*
X684192Y780502I-31J-248*
G01X682312Y780925D02*
G03X684192Y780502I1287J1329D01*
G01X682312Y780925D02*
G03X681964I-174J-180D01*
G01Y783583D02*
G03Y780925I-1287J-1329D01*
G01Y783583D02*
G03X682312I174J179D01*
G01X684393Y780583D02*
G03X682312Y783583I-794J1671D01*
G01X677049Y764854D02*
G03X677049I-1650J0D01*
G01X676201Y780946D02*
G03X676101Y780746I150J-200D01*
X676160Y780584I250J-0*
G01X673916Y780840D02*
G03X676160Y780584I986J-1323D01*
G01X673916Y780840D02*
G03X674017Y781041I-149J201D01*
X673957Y781202I-250J-0*
G01X676201Y780946D02*
G03X673957Y781202I-985J1324D01*
G01X678449Y792754D02*
G03X678449I-1650J0D01*
G01X678649Y801154D02*
G03X678649I-1850J0D01*
G01X671249Y729254D02*
G03X671249I-1650J0D01*
G01X672160Y744650D02*
G03X672160I-1850J0D01*
G01X667549Y769754D02*
G03X667549I-1650J0D01*
G01X670449Y780154D02*
G03X670449I-1650J0D01*
G01X668749Y805854D02*
G03X668749I-1850J0D01*
G01X663749Y744254D02*
G03X663749I-1650J0D01*
G01X657849Y734054D02*
G03X657849I-1650J0D01*
G01X658949Y744154D02*
G03X658949I-1650J0D01*
G01X659949Y769354D02*
G03X659949I-1650J0D01*
G01X659649Y777254D02*
G03X659649I-1650J0D01*
G01X660560Y804297D02*
G03X660297Y804310I-142J-206D01*
G01X660437Y807111D02*
G03X660297Y804310I-938J-1357D01*
G01X660437Y807111D02*
G03X660700Y807098I142J206D01*
G01X660560Y804297D02*
G03X660700Y807098I939J1357D01*
G01X653949Y731254D02*
G03X653949I-1850J0D01*
G01X655849Y788554D02*
G03X655849I-1650J0D01*
G01X661608Y810634D02*
G03X661342Y810645I-142J-206D01*
G01X659224Y811057D02*
G03X661342Y810645I1298J1020D01*
G01X659224Y811057D02*
G03X658971Y811146I-196J-154D01*
G01X658804Y811117D02*
G03X658971Y811146I-205J1637D01*
G01X658804Y811116D02*
G03X658658Y811045I31J-248D01*
G01X657322Y809709*
G03X657249Y809532I177J-177*
G01Y803754*
X657165Y803304D02*
G03X657249Y803754I-1166J450D01*
G01X657165Y803304D02*
G03X657148Y803219I233J-90D01*
G01X653849Y803254D02*
G03X657148Y803219I1650J-0D01*
G01X653849Y803287D02*
G03Y803254I1650J-33D01*
G01Y803287D02*
G03Y803292I-250J5D01*
G01X653849*
G03X653647Y803538I-250J0*
G01X652149Y805354D02*
G03X653647Y803538I1850J-0D01*
G01X654439Y807151D02*
G03X652149Y805354I-440J-1797D01*
G01X654439Y807151D02*
G03X654749Y807393I60J242D01*
G01Y810154*
X655115Y811038D02*
G03X654749Y810154I884J-884D01*
G01X655115Y811038D02*
X656890Y812813D01*
G03X656961Y812959I-177J177*
G01X659896Y813773D02*
G03X656961Y812959I-1297J-1019D01*
G01X659896Y813773D02*
G03X660149Y813684I197J155D01*
G01X661459Y813435D02*
G03X660149Y813684I-937J-1358D01*
G01X661459Y813435D02*
G03X661725Y813423I142J205D01*
G01X661608Y810634D02*
G03X661725Y813423I938J1358D01*
G01X645662Y763821D02*
G03X645386Y763505I-36J-248D01*
G01X643451Y761441D02*
G03X645386Y763505I348J1613D01*
G01X643451Y761441D02*
G03X643160Y761120I-53J-245D01*
G01X641893Y762337D02*
G03X643160Y761120I-494J-1783D01*
G01X641893Y762337D02*
G03X642201Y762640I66J241D01*
G01X644035Y764687D02*
G03X642201Y762640I-236J-1633D01*
G01X644035Y764687D02*
G03X644311Y765002I36J247D01*
G01X645662Y763821D02*
G03X644312Y765003I237J1633D01*
G01X650749Y773154D02*
G03X650749I-1650J0D01*
G01X650949Y788954D02*
G03X650949I-1650J0D01*
G01X642412Y773247D02*
G03X642415Y772784I97J-231D01*
G01X643449Y771254D02*
G03X642415Y772784I-1650J-0D01*
G01X640149Y771254D02*
G03X643449I1650J-0D01*
G01X641100Y772749D02*
G03X640149Y771254I699J-1495D01*
G01X641100Y772749D02*
G03X641078Y773211I-105J226D01*
G01X642412Y773247D02*
G03X641078Y773211I-713J1707D01*
G01X647049Y791954D02*
G03X647049I-1850J0D01*
G01X643849Y796754D02*
G03X643849I-1850J0D01*
G01X637683Y782232D02*
G03X637683I-1850J0D01*
G01X715897Y735079D02*
G03X715897I-3850J0D01*
G01Y745079D02*
G03X715897I-3850J0D01*
G01Y755079D02*
G03X715897I-3850J0D01*
G01X702949Y685254D02*
G03X702949I-1650J0D01*
G01X696041Y684536D02*
G03X695756I-142J-206D01*
G01Y687572D02*
G03Y684536I-1057J-1518D01*
G01Y687572D02*
G03X696041I143J205D01*
G01Y684536D02*
G03Y687572I1058J1518D01*
G01X715897Y715079D02*
G03X715897I-3850J0D01*
G01X708483Y626535D02*
G03X708502Y626630I-231J95D01*
X708061Y626791I-250J-0*
G01X705800Y626540D02*
G03X708061Y626791I999J1314D01*
G01X705800Y626540D02*
G03X705497I-151J-199D01*
G01Y629167D02*
G03Y626540I-998J-1313D01*
G01Y629167D02*
G03X705800I152J199D01*
G01X708388Y627409D02*
G03X705800Y629167I-1589J445D01*
G01X708388Y627409D02*
G03X708837Y627204I240J-67D01*
G01X708483Y626535D02*
G03X708837Y627204I3564J-1456D01*
G01X706411Y610151D02*
G03Y609756I154J-197D01*
G01X704313Y607211D02*
G03X706411Y609756I1086J1243D01*
G01X704313Y607211D02*
G03X703984I-164J-188D01*
G01X701886Y609756D02*
G03X703984Y607211I1013J-1302D01*
G01X701886Y609756D02*
G03Y610151I-154J198D01*
G01X703984Y612696D02*
G03X701886Y610151I-1085J-1242D01*
G01X703984Y612696D02*
G03X704313I165J189D01*
G01X706411Y610151D02*
G03X704313Y612696I-1012J1303D01*
G01X715897Y635079D02*
G03X715897I-3850J0D01*
G01X708958Y647377D02*
G03X708197Y645079I3089J-2298D01*
G01X708958Y647377D02*
G03X709007Y647548I-200J149D01*
X709164Y647630I-30J248*
G01X708197Y645079D02*
G03X709164Y647630I3850J-0D01*
G01X708769Y647935D02*
G03X708728Y647774I208J-139D01*
X708579Y647701I30J-248*
G01X706126Y649904D02*
G03X708579Y647701I1273J-1050D01*
G01X706126Y649904D02*
G03X705849Y650298I-193J159D01*
G01X706572Y650804D02*
G03X705849Y650298I-1273J1050D01*
G01X706572Y650804D02*
G03X706848Y650409I192J-159D01*
G01X708769Y647935D02*
G03X706848Y650409I-1370J919D01*
G01X715897Y655079D02*
G03X715897I-3850J0D01*
G01Y665079D02*
G03X715897I-3850J0D01*
G01Y675079D02*
G03X715897I-3850J0D01*
G01Y685079D02*
G03X715897I-3850J0D01*
G01Y695079D02*
G03X715897I-3850J0D01*
G01X699349Y670154D02*
G03X699349I-1850J0D01*
G01X694449Y670354D02*
G03X694449I-1650J0D01*
G01X681349Y611654D02*
G03X681349I-1650J0D01*
G01X683949Y623654D02*
G03X683949I-1650J0D01*
G01X682449Y634254D02*
G03X682449I-1650J0D01*
G01X674969Y611520D02*
G03X674733Y611125I-34J-248D01*
G01X673628Y611788D02*
G03X674732Y611125I-229J-1634D01*
G01X673628Y611788D02*
G03X673865Y612182I35J247D01*
G01X674969Y611520D02*
G03X673865Y612182I230J1634D01*
G01X675049Y620054D02*
G03X675049I-1650J0D01*
G01X664770Y658550D02*
G03X664428I-171J-182D01*
G01X661735Y659225D02*
G03X664428Y658550I1564J529D01*
G01X661735Y659225D02*
G03X661249Y659146I-236J-80D01*
G01X661162Y659682D02*
G03X661249Y659146I-1563J-528D01*
G01X661162Y659682D02*
G03X661649Y659761I237J80D01*
G01X664428Y660957D02*
G03X661649Y659761I-1129J-1203D01*
G01X664428Y660957D02*
G03X664770I171J182D01*
G01Y658550D02*
G03Y660957I1129J1204D01*
G01X653450Y662300D02*
G03X653450I-1850J0D01*
G01X662976Y638822D02*
G03Y638353I86J-234D01*
G01X660874Y636251D02*
G03X662976Y638353I1537J565D01*
G01X660874Y636251D02*
G03X660405I-234J-86D01*
G01Y637381D02*
G03Y636251I-1537J-565D01*
G01Y637381D02*
G03X660874I235J86D01*
G01X661847Y638353D02*
G03X660874Y637381I564J-1537D01*
G01X661847Y638353D02*
G03Y638822I-86J235D01*
G01X662976D02*
G03X661847I-565J1537D01*
G01X652141Y609368D02*
G03Y609039I189J-164D01*
G01X652549Y607954D02*
G03X652141Y609039I-1650J-0D01*
G01X649813Y606711D02*
G03X652549Y607954I1086J1243D01*
G01X649813Y606711D02*
G03X649484I-164J-188D01*
G01X646749Y607954D02*
G03X649484Y606711I1650J-0D01*
G01X647156Y609039D02*
G03X646749Y607954I1243J-1085D01*
G01X647156Y609039D02*
G03Y609368I-188J165D01*
G01X646749Y610454D02*
G03X647156Y609368I1650J-0D01*
G01X649484Y611696D02*
G03X646749Y610454I-1085J-1242D01*
G01X649484Y611696D02*
G03X649813I165J189D01*
G01X652141Y609368D02*
G03X649813Y611696I-1242J1086D01*
G01X644449Y612154D02*
G03X644449I-1650J0D01*
G01X642149Y624654D02*
G03X642149I-1850J0D01*
G01Y629454D02*
G03X642149I-1650J0D01*
G01X634649Y611854D02*
G03X634649I-1850J0D01*
G01X631949Y620054D02*
G03X631949I-1850J0D01*
G01X632449Y624954D02*
G03X632449I-1850J0D01*
G01X636639Y702373D02*
G03X636639I-1650J0D01*
G01X631349Y692654D02*
G03X631349I-1650J0D01*
G01Y702054D02*
G03X631349I-1650J0D01*
G01X627749Y633454D02*
G03X627749I-1650J0D01*
G01X622149Y632454D02*
G03X622149I-1650J0D01*
G01X622845Y706802D02*
G03X622845I-1850J0D01*
G01Y712153D02*
G03X622845I-1850J0D01*
G01X623149Y718254D02*
G03X623149I-1850J0D01*
G01X625449Y736854D02*
G03X625449I-1650J0D01*
G01X621249Y727754D02*
G03X621249I-1850J0D01*
G01X611982Y607343D02*
G03X611624Y607652I-232J93D01*
G01X612416Y608565D02*
G03X611624Y607652I-1717J689D01*
G01X612416Y608565D02*
G03X612773Y608255I232J-93D01*
G01X611982Y607343D02*
G03X612773Y608255I1717J-689D01*
G01X615649Y613254D02*
G03X615649I-1850J0D01*
G01X614050Y625079D02*
G03X614050I-4050J0D01*
G01Y635079D02*
G03X614050I-4050J0D01*
G01X613850Y645079D02*
G03X613850I-3850J0D01*
G01Y655079D02*
G03X613850I-3850J0D01*
G01Y665079D02*
G03X613850I-3850J0D01*
G01Y675079D02*
G03X613850I-3850J0D01*
G01Y685079D02*
G03X613850I-3850J0D01*
G01Y695079D02*
G03X613850I-3850J0D01*
G01Y705079D02*
G03X613850I-3850J0D01*
G01Y715079D02*
G03X613850I-3850J0D01*
G01Y725079D02*
G03X613850I-3850J0D01*
G01Y735079D02*
G03X613850I-3850J0D01*
G01X673450Y697900D02*
G03X673450I-1650J0D01*
G01X655633Y681306D02*
G03X655264I-184J-169D01*
G01X653691Y680715D02*
G03X655264Y681306I208J1839D01*
G01X653691Y680715D02*
G03X653417Y680513I-28J-248D01*
G01X651806Y682692D02*
G03X653417Y680513I-207J-1838D01*
G01X651806Y682692D02*
G03X652080Y682894I29J248D01*
G01X655264Y683802D02*
G03X652080Y682894I-1365J-1248D01*
G01X655264Y683802D02*
G03X655633I185J169D01*
G01Y681306D02*
G03Y683802I1366J1248D01*
G01X648089Y683373D02*
G03X648089I-1850J0D01*
G01X642649Y745954D02*
G03X642649I-1850J0D01*
G01X619649Y763854D02*
G03X619649I-1850J0D01*
G01X614050Y765079D02*
G03X614050I-4050J0D01*
G01Y775079D02*
G03X614050I-4050J0D01*
G01Y785079D02*
G03X614050I-4050J0D01*
G01Y795079D02*
G03X614050I-4050J0D01*
G01Y805079D02*
G03X614050I-4050J0D01*
G01Y815079D02*
G03X614050I-4050J0D01*
G01X680963Y837999D02*
X720297D01*
X680963Y837549D02*
X720297D01*
X680963Y837099D02*
X720297D01*
X680963Y836649D02*
X720297D01*
X680963Y836199D02*
X720297D01*
X680963Y835749D02*
X720297D01*
X680963Y835299D02*
X720297D01*
X684019Y834849D02*
X720297D01*
X684769Y834399D02*
X720297D01*
X685227Y833949D02*
X720297D01*
X685541Y833499D02*
X720297D01*
X685756Y833049D02*
X720297D01*
X685893Y832599D02*
X720297D01*
X685961Y832149D02*
X720297D01*
X685971Y831699D02*
X720297D01*
X685971Y831249D02*
X720297D01*
X685971Y830799D02*
X720297D01*
X685971Y830349D02*
X720297D01*
X685971Y829899D02*
X720297D01*
X685971Y829449D02*
X720297D01*
X685968Y828999D02*
X720297D01*
X685917Y828549D02*
X720297D01*
X689745Y828099D02*
X720297D01*
X690311Y827649D02*
X720297D01*
X690592Y827199D02*
X720297D01*
X690725Y826749D02*
X720297D01*
X690742Y826299D02*
X720297D01*
X690647Y825849D02*
X720297D01*
X690418Y825399D02*
X720297D01*
X689974Y824949D02*
X720297D01*
X680963Y824499D02*
X720297D01*
X680963Y824049D02*
X720297D01*
X680963Y823599D02*
X720297D01*
X680963Y823149D02*
X720297D01*
X680963Y822699D02*
X720297D01*
X680963Y822249D02*
X720297D01*
X680963Y821799D02*
X720297D01*
X681393Y821349D02*
X720297D01*
X681888Y820899D02*
X720297D01*
X682232Y820449D02*
X720297D01*
X689916Y819999D02*
X720297D01*
X690390Y819549D02*
X720297D01*
X690633Y819099D02*
X720297D01*
X713330Y811449D02*
X720297D01*
X704481Y810999D02*
X720297D01*
X704845Y810549D02*
X720297D01*
X705012Y810099D02*
X720297D01*
X705045Y809649D02*
X720297D01*
X704952Y809199D02*
X720297D01*
X712797Y801099D02*
X720297D01*
X704513Y800649D02*
X720297D01*
X704632Y800199D02*
X720297D01*
X704637Y799749D02*
X720297D01*
X704529Y799299D02*
X720297D01*
X712828Y798849D02*
X720297D01*
X677350Y791199D02*
X720297D01*
X646602Y790749D02*
X720297D01*
X650254Y790299D02*
X720297D01*
X655221Y789849D02*
X720297D01*
X655616Y789399D02*
X720297D01*
X702180Y788949D02*
X720297D01*
X712778Y781299D02*
X720297D01*
X693281Y780849D02*
X720297D01*
X676296Y780399D02*
X720297D01*
X685980Y779949D02*
X720297D01*
X686451Y779499D02*
X720297D01*
X686673Y779049D02*
X720297D01*
X713179Y771399D02*
X720297D01*
X667036Y770949D02*
X720297D01*
X667371Y770499D02*
X720297D01*
X667522Y770049D02*
X720297D01*
X667541Y769599D02*
X720297D01*
X667434Y769149D02*
X720297D01*
X713358Y768699D02*
X720297D01*
X713464Y761499D02*
X720297D01*
X709785Y761049D02*
X720297D01*
X709335Y760599D02*
X720297D01*
X708885Y760149D02*
X720297D01*
X708435Y759699D02*
X720297D01*
X707985Y759249D02*
X720297D01*
X713039Y758799D02*
X720297D01*
X706750Y751149D02*
X720297D01*
X706750Y750699D02*
X720297D01*
X706750Y750249D02*
X720297D01*
X706750Y749799D02*
X720297D01*
X706750Y749349D02*
X720297D01*
X712527Y748899D02*
X720297D01*
X712439Y741249D02*
X720297D01*
X706750Y740799D02*
X720297D01*
X706750Y740349D02*
X720297D01*
X706750Y739899D02*
X720297D01*
X706750Y739449D02*
X720297D01*
X706750Y738999D02*
X720297D01*
X713001Y731349D02*
X720297D01*
X706750Y730899D02*
X720297D01*
X706750Y730449D02*
X720297D01*
X706750Y729999D02*
X720297D01*
X706750Y729549D02*
X720297D01*
X706750Y729099D02*
X720297D01*
X713330Y721449D02*
X720297D01*
X709735Y720999D02*
X720297D01*
X709285Y720549D02*
X720297D01*
X708835Y720099D02*
X720297D01*
X708385Y719649D02*
X720297D01*
X707935Y719199D02*
X720297D01*
X713211Y718749D02*
X720297D01*
X705149Y711099D02*
X720297D01*
X705149Y710649D02*
X720297D01*
X705149Y710199D02*
X720297D01*
X705149Y709749D02*
X720297D01*
X705149Y709299D02*
X720297D01*
X712828Y708849D02*
X720297D01*
X709935Y701199D02*
X720297D01*
X709485Y700749D02*
X720297D01*
X709035Y700299D02*
X720297D01*
X708585Y699849D02*
X720297D01*
X708135Y699399D02*
X720297D01*
X707685Y698949D02*
X720297D01*
X712778Y691299D02*
X720297D01*
X707049Y690849D02*
X720297D01*
X707049Y690399D02*
X720297D01*
X707049Y689949D02*
X720297D01*
X707049Y689499D02*
X720297D01*
X707049Y689049D02*
X720297D01*
X713179Y681399D02*
X720297D01*
X707049Y680949D02*
X720297D01*
X706997Y680499D02*
X720297D01*
X706755Y680049D02*
X720297D01*
X706311Y679599D02*
X720297D01*
X705861Y679149D02*
X720297D01*
X713358Y678699D02*
X720297D01*
X713464Y671499D02*
X720297D01*
X699118Y671049D02*
X720297D01*
X699294Y670599D02*
X720297D01*
X699349Y670149D02*
X720297D01*
X699292Y669699D02*
X720297D01*
X699112Y669249D02*
X720297D01*
X713039Y668799D02*
X720297D01*
X687849Y661149D02*
X720297D01*
X687849Y660699D02*
X720297D01*
X689436Y660249D02*
X720297D01*
X689952Y659799D02*
X720297D01*
X690213Y659349D02*
X720297D01*
X712527Y658899D02*
X720297D01*
X712439Y651249D02*
X720297D01*
X706567Y650799D02*
X720297D01*
X708097Y650349D02*
X720297D01*
X708676Y649899D02*
X720297D01*
X708938Y649449D02*
X720297D01*
X709042Y648999D02*
X720297D01*
X713001Y641349D02*
X720297D01*
X683211Y640899D02*
X720297D01*
X682761Y640449D02*
X720297D01*
X682311Y639999D02*
X720297D01*
X681861Y639549D02*
X720297D01*
X681411Y639099D02*
X720297D01*
X713330Y631449D02*
X720297D01*
X677149Y630999D02*
X720297D01*
X677149Y630549D02*
X720297D01*
X677149Y630099D02*
X720297D01*
X677149Y629649D02*
X720297D01*
X707754Y629199D02*
X720297D01*
X713211Y628749D02*
X720297D01*
X674676Y621099D02*
X720297D01*
X674938Y620649D02*
X720297D01*
X675042Y620199D02*
X720297D01*
X675020Y619749D02*
X720297D01*
X674866Y619299D02*
X720297D01*
X674526Y618849D02*
X720297D01*
X669777Y618399D02*
X720297D01*
X668981Y617949D02*
X720297D01*
X601750Y617499D02*
X720297D01*
X601750Y617049D02*
X720297D01*
X601750Y616599D02*
X720297D01*
X601750Y616149D02*
X720297D01*
X601750Y615699D02*
X720297D01*
X601750Y615249D02*
X720297D01*
X675328Y614799D02*
X720297D01*
X676336Y614349D02*
X720297D01*
X676671Y613899D02*
X720297D01*
X676822Y613449D02*
X720297D01*
X705978Y612999D02*
X720297D01*
X706633Y612549D02*
X720297D01*
X706917Y612099D02*
X720297D01*
X707037Y611649D02*
X720297D01*
X707029Y611199D02*
X720297D01*
X706890Y610749D02*
X720297D01*
X706577Y610299D02*
X720297D01*
X706338Y609849D02*
X720297D01*
X706751Y609399D02*
X720297D01*
X706973Y608949D02*
X720297D01*
X707048Y608499D02*
X720297D01*
X706998Y608049D02*
X720297D01*
X706810Y607599D02*
X720297D01*
X706408Y607149D02*
X720297D01*
X651970Y606699D02*
X720297D01*
X615504Y606249D02*
X720297D01*
X615339Y605799D02*
X720297D01*
X615010Y605349D02*
X720297D01*
X614284Y604899D02*
X720297D01*
X601750Y604449D02*
X720297D01*
X601750Y603999D02*
X720297D01*
X601750Y603549D02*
X720297D01*
X601750Y603099D02*
X720297D01*
X601750Y602649D02*
X720297D01*
X601750Y602199D02*
X720297D01*
X713489Y818649D02*
X720297D01*
X713489Y728649D02*
X720297D01*
X713489Y638649D02*
X720297D01*
X713584Y711549D02*
X720292D01*
X713584Y621549D02*
X720292D01*
X713607Y778599D02*
X720290D01*
X713607Y688599D02*
X720290D01*
X713694Y751599D02*
X720277D01*
X713694Y661599D02*
X720277D01*
X713715Y738549D02*
X720272D01*
X713715Y648549D02*
X720272D01*
X713760Y808749D02*
X720257D01*
X713796Y791649D02*
X720248D01*
X713796Y701649D02*
X720248D01*
X713815Y788499D02*
X720240D01*
X713815Y698499D02*
X720240D01*
X713891Y741699D02*
X720198D01*
X713891Y651699D02*
X720198D01*
X713909Y748449D02*
X720184D01*
X713909Y658449D02*
X720184D01*
X713979Y781749D02*
X720115D01*
X713979Y691749D02*
X720115D01*
X713997Y798399D02*
X720098D01*
X713997Y708399D02*
X720098D01*
X714033Y801549D02*
X720062D01*
X714063Y731799D02*
X720031D01*
X714063Y641799D02*
X720031D01*
X714079Y758349D02*
X720015D01*
X714079Y668349D02*
X720015D01*
X714142Y771849D02*
X719952D01*
X714142Y681849D02*
X719952D01*
X714158Y718299D02*
X719937D01*
X714158Y628299D02*
X719937D01*
X714218Y811899D02*
X719877D01*
X714218Y721899D02*
X719877D01*
X714218Y631899D02*
X719877D01*
X714232Y768249D02*
X719862D01*
X714232Y678249D02*
X719862D01*
X714289Y761949D02*
X719805D01*
X714289Y671949D02*
X719805D01*
X714303Y818199D02*
X719791D01*
X714303Y728199D02*
X719791D01*
X714303Y638199D02*
X719791D01*
X714357Y711999D02*
X719737D01*
X714357Y621999D02*
X719737D01*
X714371Y778149D02*
X719724D01*
X714371Y688149D02*
X719724D01*
X714422Y752049D02*
X719672D01*
X714422Y662049D02*
X719672D01*
X714435Y738099D02*
X719659D01*
X714435Y648099D02*
X719659D01*
X714485Y792099D02*
X719610D01*
X714485Y702099D02*
X719610D01*
X714497Y788049D02*
X719597D01*
X714497Y698049D02*
X719597D01*
X714504Y808299D02*
X719591D01*
X714545Y742149D02*
X719550D01*
X714545Y652149D02*
X719550D01*
X714557Y747999D02*
X719538D01*
X714557Y657999D02*
X719538D01*
X714602Y782199D02*
X719492D01*
X714602Y692199D02*
X719492D01*
X714614Y797949D02*
X719481D01*
X714614Y707949D02*
X719481D01*
X714658Y732249D02*
X719437D01*
X714658Y642249D02*
X719437D01*
X714668Y757899D02*
X719426D01*
X714668Y667899D02*
X719426D01*
X714677Y801999D02*
X719417D01*
X714711Y772299D02*
X719384D01*
X714711Y682299D02*
X719384D01*
X714721Y717849D02*
X719373D01*
X714721Y627849D02*
X719373D01*
X714762Y812349D02*
X719333D01*
X714762Y722349D02*
X719333D01*
X714762Y632349D02*
X719333D01*
X714772Y767799D02*
X719322D01*
X714772Y677799D02*
X719322D01*
X714811Y762399D02*
X719283D01*
X714811Y672399D02*
X719283D01*
X714821Y817749D02*
X719273D01*
X714821Y727749D02*
X719273D01*
X714821Y637749D02*
X719273D01*
X714859Y712449D02*
X719236D01*
X714859Y622449D02*
X719236D01*
X714868Y777699D02*
X719226D01*
X714868Y687699D02*
X719226D01*
X714905Y752499D02*
X719190D01*
X714905Y662499D02*
X719190D01*
X714914Y737649D02*
X719181D01*
X714914Y647649D02*
X719181D01*
X714949Y792549D02*
X719145D01*
X714949Y702549D02*
X719145D01*
X714958Y787599D02*
X719137D01*
X714958Y697599D02*
X719137D01*
X714992Y742599D02*
X719102D01*
X714992Y652599D02*
X719102D01*
X715001Y747549D02*
X719094D01*
X715001Y657549D02*
X719094D01*
X715002Y807849D02*
X719093D01*
X715033Y782649D02*
X719061D01*
X715033Y692649D02*
X719061D01*
X715042Y797499D02*
X719053D01*
X715042Y707499D02*
X719053D01*
X715073Y732699D02*
X719021D01*
X715073Y642699D02*
X719021D01*
X715081Y757449D02*
X719013D01*
X715081Y667449D02*
X719013D01*
X715112Y772749D02*
X718982D01*
X715112Y682749D02*
X718982D01*
X715120Y717399D02*
X718975D01*
X715120Y627399D02*
X718975D01*
X715127Y802449D02*
X718967D01*
X715150Y812799D02*
X718945D01*
X715150Y722799D02*
X718945D01*
X715150Y632799D02*
X718945D01*
X715157Y767349D02*
X718938D01*
X715157Y677349D02*
X718938D01*
X715186Y762849D02*
X718909D01*
X715186Y672849D02*
X718909D01*
X715193Y817299D02*
X718902D01*
X715193Y727299D02*
X718902D01*
X715193Y637299D02*
X718902D01*
X715221Y712899D02*
X718874D01*
X715221Y622899D02*
X718874D01*
X715227Y777249D02*
X718867D01*
X715227Y687249D02*
X718867D01*
X715254Y752949D02*
X718840D01*
X715254Y662949D02*
X718840D01*
X715261Y737199D02*
X718833D01*
X715261Y647199D02*
X718833D01*
X715287Y792999D02*
X718807D01*
X715287Y702999D02*
X718807D01*
X715293Y787149D02*
X718801D01*
X715293Y697149D02*
X718801D01*
X715319Y743049D02*
X718776D01*
X715319Y653049D02*
X718776D01*
X715325Y747099D02*
X718770D01*
X715325Y657099D02*
X718770D01*
X715349Y783099D02*
X718745D01*
X715349Y693099D02*
X718745D01*
X715355Y797049D02*
X718739D01*
X715355Y707049D02*
X718739D01*
X715367Y807399D02*
X718728D01*
X715379Y733149D02*
X718716D01*
X715379Y643149D02*
X718716D01*
X715384Y756999D02*
X718710D01*
X715384Y666999D02*
X718710D01*
X715407Y773199D02*
X718687D01*
X715407Y683199D02*
X718687D01*
X715413Y716949D02*
X718682D01*
X715413Y626949D02*
X718682D01*
X715435Y813249D02*
X718660D01*
X715435Y723249D02*
X718660D01*
X715435Y633249D02*
X718660D01*
X715440Y766899D02*
X718655D01*
X715440Y676899D02*
X718655D01*
X715460Y802899D02*
X718634D01*
X715461Y763299D02*
X718633D01*
X715461Y673299D02*
X718633D01*
X715466Y816849D02*
X718628D01*
X715466Y726849D02*
X718628D01*
X715466Y636849D02*
X718628D01*
X715487Y713349D02*
X718608D01*
X715487Y623349D02*
X718608D01*
X715492Y776799D02*
X718603D01*
X715492Y686799D02*
X718603D01*
X715511Y753399D02*
X718583D01*
X715511Y663399D02*
X718583D01*
X715516Y736749D02*
X718578D01*
X715516Y646749D02*
X718578D01*
X715535Y793449D02*
X718559D01*
X715535Y703449D02*
X718559D01*
X715540Y786699D02*
X718555D01*
X715540Y696699D02*
X718555D01*
X715558Y743499D02*
X718536D01*
X715558Y653499D02*
X718536D01*
X715563Y746649D02*
X718532D01*
X715563Y656649D02*
X718532D01*
X715580Y783549D02*
X718514D01*
X715580Y693549D02*
X718514D01*
X715585Y796599D02*
X718510D01*
X715585Y706599D02*
X718510D01*
X715601Y733599D02*
X718493D01*
X715601Y643599D02*
X718493D01*
X715606Y756549D02*
X718489D01*
X715606Y666549D02*
X718489D01*
X715622Y773649D02*
X718473D01*
X715622Y683649D02*
X718473D01*
X715626Y716499D02*
X718469D01*
X715626Y626499D02*
X718469D01*
X715640Y806949D02*
X718455D01*
X715641Y813699D02*
X718453D01*
X715641Y723699D02*
X718453D01*
X715641Y633699D02*
X718453D01*
X715645Y766449D02*
X718449D01*
X715645Y676449D02*
X718449D01*
X715660Y763749D02*
X718434D01*
X715660Y673749D02*
X718434D01*
X715664Y816399D02*
X718431D01*
X715664Y726399D02*
X718431D01*
X715664Y636399D02*
X718431D01*
X715678Y713799D02*
X718416D01*
X715678Y623799D02*
X718416D01*
X715682Y776349D02*
X718413D01*
X715682Y686349D02*
X718413D01*
X715695Y753849D02*
X718399D01*
X715695Y663849D02*
X718399D01*
X715699Y736299D02*
X718396D01*
X715699Y646299D02*
X718396D01*
X715709Y803349D02*
X718385D01*
X715712Y793899D02*
X718383D01*
X715712Y703899D02*
X718383D01*
X715715Y786249D02*
X718379D01*
X715715Y696249D02*
X718379D01*
X715728Y743949D02*
X718367D01*
X715728Y653949D02*
X718367D01*
X715731Y746199D02*
X718364D01*
X715731Y656199D02*
X718364D01*
X715743Y783999D02*
X718352D01*
X715743Y693999D02*
X718352D01*
X715746Y796149D02*
X718349D01*
X715746Y706149D02*
X718349D01*
X715757Y734049D02*
X718338D01*
X715757Y644049D02*
X718338D01*
X715760Y756099D02*
X718335D01*
X715760Y666099D02*
X718335D01*
X715770Y774099D02*
X718324D01*
X715770Y684099D02*
X718324D01*
X715773Y716049D02*
X718321D01*
X715773Y626049D02*
X718321D01*
X715783Y814149D02*
X718311D01*
X715783Y724149D02*
X718311D01*
X715783Y634149D02*
X718311D01*
X715786Y765999D02*
X718309D01*
X715786Y675999D02*
X718309D01*
X715795Y764199D02*
X718299D01*
X715795Y674199D02*
X718299D01*
X715798Y815949D02*
X718297D01*
X715798Y725949D02*
X718297D01*
X715798Y635949D02*
X718297D01*
X715807Y714249D02*
X718288D01*
X715807Y624249D02*
X718288D01*
X715809Y775899D02*
X718286D01*
X715809Y685899D02*
X718286D01*
X715817Y754299D02*
X718277D01*
X715817Y664299D02*
X718277D01*
X715819Y735849D02*
X718275D01*
X715819Y645849D02*
X718275D01*
X715827Y794349D02*
X718267D01*
X715827Y704349D02*
X718267D01*
X715829Y785799D02*
X718265D01*
X715829Y695799D02*
X718265D01*
X715837Y744399D02*
X718258D01*
X715837Y654399D02*
X718258D01*
X715839Y745749D02*
X718256D01*
X715839Y655749D02*
X718256D01*
X715840Y806499D02*
X718254D01*
X715845Y784449D02*
X718249D01*
X715845Y694449D02*
X718249D01*
X715847Y795699D02*
X718247D01*
X715847Y705699D02*
X718247D01*
X715853Y734499D02*
X718241D01*
X715853Y644499D02*
X718241D01*
X715855Y755649D02*
X718240D01*
X715855Y665649D02*
X718240D01*
X715861Y774549D02*
X718234D01*
X715861Y684549D02*
X718234D01*
X715862Y715599D02*
X718232D01*
X715862Y625599D02*
X718232D01*
X715867Y814599D02*
X718227D01*
X715867Y724599D02*
X718227D01*
X715867Y634599D02*
X718227D01*
X715868Y765549D02*
X718226D01*
X715868Y675549D02*
X718226D01*
X715873Y764649D02*
X718221D01*
X715873Y674649D02*
X718221D01*
X715874Y815499D02*
X718220D01*
X715874Y725499D02*
X718220D01*
X715874Y635499D02*
X718220D01*
X715878Y714699D02*
X718216D01*
X715878Y624699D02*
X718216D01*
X715879Y775449D02*
X718215D01*
X715879Y685449D02*
X718215D01*
X715883Y754749D02*
X718211D01*
X715883Y664749D02*
X718211D01*
X715884Y735399D02*
X718211D01*
X715884Y645399D02*
X718211D01*
X715887Y794799D02*
X718207D01*
X715887Y704799D02*
X718207D01*
X715888Y785349D02*
X718207D01*
X715888Y695349D02*
X718207D01*
X715890Y803799D02*
X718205D01*
X715890Y744849D02*
X718204D01*
X715890Y654849D02*
X718204D01*
X715891Y745299D02*
X718204D01*
X715891Y655299D02*
X718204D01*
X715893Y784899D02*
X718201D01*
X715893Y694899D02*
X718201D01*
X715894Y795249D02*
X718201D01*
X715894Y705249D02*
X718201D01*
X715895Y734949D02*
X718199D01*
X715895Y644949D02*
X718199D01*
X715895Y755199D02*
X718199D01*
X715895Y665199D02*
X718199D01*
X715896Y774999D02*
X718198D01*
X715896Y684999D02*
X718198D01*
X715897Y715149D02*
X718198D01*
X715897Y625149D02*
X718198D01*
X715897Y815049D02*
X718197D01*
X715897Y725049D02*
X718197D01*
X715897Y635049D02*
X718197D01*
X715897Y765099D02*
X718197D01*
X715897Y675099D02*
X718197D01*
X715979Y806049D02*
X718115D01*
X716011Y804249D02*
X718083D01*
X716064Y805599D02*
X718031D01*
X716079Y804699D02*
X718015D01*
X716097Y805149D02*
X717998D01*
X706750Y741249D02*
X711655D01*
X706834Y651249D02*
X711655D01*
X706750Y748899D02*
X711567D01*
X690332Y658899D02*
X711567D01*
X694077Y781299D02*
X711316D01*
X707049Y691299D02*
X711316D01*
X704252Y801099D02*
X711298D01*
X704282Y798849D02*
X711266D01*
X705149Y708849D02*
X711266D01*
X706750Y731349D02*
X711094D01*
X683661Y641349D02*
X711094D01*
X707535Y758799D02*
X711055D01*
X698758Y668799D02*
X711055D01*
X666028Y771399D02*
X710916D01*
X707049Y681399D02*
X710916D01*
X708185Y628749D02*
X710884D01*
X707485Y718749D02*
X710884D01*
X685619Y811449D02*
X710764D01*
X677149Y631449D02*
X710764D01*
X710185Y721449D02*
X710764D01*
X705411Y678699D02*
X710736D01*
X667167Y768699D02*
X710736D01*
X710235Y761499D02*
X710631D01*
X698769Y671499D02*
X710631D01*
X690738Y818649D02*
X710606D01*
X680961Y638649D02*
X710606D01*
X706750Y728649D02*
X710606D01*
X705149Y711549D02*
X710511D01*
X674097Y621549D02*
X710511D01*
X686748Y778599D02*
X710488D01*
X707049Y688599D02*
X710488D01*
X706750Y751599D02*
X710400D01*
X687849Y661599D02*
X710400D01*
X709020Y648549D02*
X710379D01*
X706750Y738549D02*
X710379D01*
X704707Y808749D02*
X710334D01*
X702775Y791649D02*
X710299D01*
X702651Y788499D02*
X710279D01*
X707235Y698499D02*
X710279D01*
X706750Y741699D02*
X710204D01*
X706941Y651699D02*
X710204D01*
X706750Y748449D02*
X710186D01*
X690337Y658449D02*
X710186D01*
X702264Y781749D02*
X710115D01*
X707049Y691749D02*
X710115D01*
X703801Y798399D02*
X710098D01*
X705149Y708399D02*
X710098D01*
X703736Y801549D02*
X710062D01*
X706750Y731799D02*
X710031D01*
X684111Y641799D02*
X710031D01*
X707085Y758349D02*
X710015D01*
X697904Y668349D02*
X710015D01*
X692881Y771849D02*
X709952D01*
X707049Y681849D02*
X709952D01*
X708388Y628299D02*
X709937D01*
X707035Y718299D02*
X709937D01*
X685843Y811899D02*
X709877D01*
X677149Y631899D02*
X709877D01*
X704961Y678249D02*
X709862D01*
X666575Y768249D02*
X709862D01*
X697947Y671949D02*
X709805D01*
X690731Y818199D02*
X709791D01*
X680511Y638199D02*
X709791D01*
X706750Y728199D02*
X709791D01*
X705149Y711999D02*
X709737D01*
X672077Y621999D02*
X709737D01*
X686698Y778149D02*
X709724D01*
X707049Y688149D02*
X709724D01*
X706750Y752049D02*
X709672D01*
X687849Y662049D02*
X709672D01*
X708866Y648099D02*
X709659D01*
X706750Y738099D02*
X709659D01*
X703367Y792099D02*
X709610D01*
X702873Y788049D02*
X709597D01*
X707049Y698049D02*
X709597D01*
X704177Y808299D02*
X709591D01*
X706750Y742149D02*
X709550D01*
X706922Y652149D02*
X709550D01*
X706750Y747999D02*
X709538D01*
X690229Y657999D02*
X709538D01*
X702744Y782199D02*
X709492D01*
X707049Y692199D02*
X709492D01*
X643411Y797949D02*
X709481D01*
X705149Y707949D02*
X709481D01*
X706750Y732249D02*
X709437D01*
X684561Y642249D02*
X709437D01*
X706750Y757899D02*
X709426D01*
X686595Y667899D02*
X709426D01*
X678444Y801999D02*
X709417D01*
X699566Y772299D02*
X709384D01*
X707049Y682299D02*
X709384D01*
X708449Y627849D02*
X709373D01*
X706585Y717849D02*
X709373D01*
X686185Y812349D02*
X709333D01*
X677149Y632349D02*
X709333D01*
X704511Y677799D02*
X709322D01*
X658850Y767799D02*
X709322D01*
X687250Y672399D02*
X709283D01*
X690609Y817749D02*
X709273D01*
X680061Y637749D02*
X709273D01*
X706750Y727749D02*
X709273D01*
X705149Y712449D02*
X709236D01*
X683426Y622449D02*
X709236D01*
X686510Y777699D02*
X709226D01*
X707049Y687699D02*
X709226D01*
X706750Y752499D02*
X709190D01*
X687849Y662499D02*
X709190D01*
X708526Y647649D02*
X709181D01*
X706750Y737649D02*
X709181D01*
X703634Y792549D02*
X709145D01*
X702948Y787599D02*
X709137D01*
X707049Y697599D02*
X709137D01*
X706750Y742599D02*
X709102D01*
X706771Y652599D02*
X709102D01*
X706750Y747549D02*
X709094D01*
X689982Y657549D02*
X709094D01*
X686846Y807849D02*
X709093D01*
X702969Y782649D02*
X709061D01*
X707049Y692649D02*
X709061D01*
X643692Y797499D02*
X709053D01*
X705149Y707499D02*
X709053D01*
X706750Y732699D02*
X709021D01*
X685011Y642699D02*
X709021D01*
X706750Y757449D02*
X709013D01*
X687045Y667449D02*
X709013D01*
X699958Y772749D02*
X708982D01*
X707049Y682749D02*
X708982D01*
X708385Y627399D02*
X708975D01*
X706135Y717399D02*
X708975D01*
X678120Y802449D02*
X708967D01*
X686372Y812799D02*
X708945D01*
X681577Y632799D02*
X708945D01*
X704061Y677349D02*
X708938D01*
X624149Y767349D02*
X708938D01*
X687924Y672849D02*
X708909D01*
X690344Y817299D02*
X708902D01*
X679611Y637299D02*
X708902D01*
X706750Y727299D02*
X708902D01*
X705149Y712899D02*
X708874D01*
X683766Y622899D02*
X708874D01*
X686108Y777249D02*
X708867D01*
X707049Y687249D02*
X708867D01*
X706750Y752949D02*
X708840D01*
X687849Y662949D02*
X708840D01*
X706750Y737199D02*
X708833D01*
X687849Y647199D02*
X708833D01*
X703741Y792999D02*
X708807D01*
X702898Y787149D02*
X708801D01*
X707049Y697149D02*
X708801D01*
X706750Y743049D02*
X708776D01*
X706436Y653049D02*
X708776D01*
X706750Y747099D02*
X708770D01*
X689501Y657099D02*
X708770D01*
X703048Y783099D02*
X708745D01*
X707049Y693099D02*
X708745D01*
X643825Y797049D02*
X708739D01*
X705149Y707049D02*
X708739D01*
X686539Y807399D02*
X708728D01*
X706750Y733149D02*
X708716D01*
X685461Y643149D02*
X708716D01*
X706750Y756999D02*
X708710D01*
X687495Y666999D02*
X708710D01*
X700141Y773199D02*
X708687D01*
X707049Y683199D02*
X708687D01*
X705685Y716949D02*
X708682D01*
X686446Y813249D02*
X708660D01*
X682107Y633249D02*
X708660D01*
X695646Y676899D02*
X708655D01*
X646695Y766899D02*
X708655D01*
X677413Y802899D02*
X708634D01*
X688213Y673299D02*
X708633D01*
X689819Y816849D02*
X708628D01*
X679161Y636849D02*
X708628D01*
X706750Y726849D02*
X708628D01*
X705149Y713349D02*
X708608D01*
X683920Y623349D02*
X708608D01*
X659585Y776799D02*
X708603D01*
X707049Y686799D02*
X708603D01*
X706750Y753399D02*
X708583D01*
X687849Y663399D02*
X708583D01*
X706750Y736749D02*
X708578D01*
X687849Y646749D02*
X708578D01*
X703722Y793449D02*
X708559D01*
X702710Y786699D02*
X708555D01*
X707049Y696699D02*
X708555D01*
X705149Y703449D02*
X708538D01*
X706750Y743499D02*
X708536D01*
X705428Y653499D02*
X708536D01*
X706750Y746649D02*
X708532D01*
X687855Y656649D02*
X708532D01*
X703001Y783549D02*
X708514D01*
X707049Y693549D02*
X708514D01*
X643842Y796599D02*
X708510D01*
X705149Y706599D02*
X708510D01*
X702416Y763299D02*
X708494D01*
X706750Y733599D02*
X708493D01*
X685911Y643599D02*
X708493D01*
X706750Y756549D02*
X708489D01*
X687775Y666549D02*
X708489D01*
X700187Y773649D02*
X708473D01*
X707049Y683649D02*
X708473D01*
X705235Y716499D02*
X708469D01*
X707740Y626499D02*
X708469D01*
X686038Y806949D02*
X708455D01*
X686419Y813699D02*
X708453D01*
X682352Y633699D02*
X708453D01*
X706750Y723699D02*
X708453D01*
X706750Y723249D02*
X708449D01*
X695513Y676449D02*
X708449D01*
X675821Y766449D02*
X708449D01*
X688336Y673749D02*
X708434D01*
X702269Y763749D02*
X708434D01*
X681969Y816399D02*
X708431D01*
X678711Y636399D02*
X708431D01*
X706750Y726399D02*
X708431D01*
X705149Y713799D02*
X708416D01*
X683942Y623799D02*
X708416D01*
X659378Y776349D02*
X708413D01*
X707049Y686349D02*
X708413D01*
X706750Y753849D02*
X708399D01*
X687849Y663849D02*
X708399D01*
X706750Y736299D02*
X708396D01*
X687849Y646299D02*
X708396D01*
X657181Y803349D02*
X708385D01*
X703571Y793899D02*
X708383D01*
X705149Y703899D02*
X708383D01*
X702745Y786249D02*
X708379D01*
X707049Y696249D02*
X708379D01*
X706750Y743949D02*
X708367D01*
X687849Y653949D02*
X708367D01*
X706750Y746199D02*
X708364D01*
X687849Y656199D02*
X708364D01*
X702816Y783999D02*
X708352D01*
X707049Y693999D02*
X708352D01*
X643747Y796149D02*
X708349D01*
X705149Y706149D02*
X708349D01*
X706750Y734049D02*
X708338D01*
X686361Y644049D02*
X708338D01*
X706750Y756099D02*
X708335D01*
X687849Y666099D02*
X708335D01*
X700107Y774099D02*
X708324D01*
X707049Y684099D02*
X708324D01*
X705149Y716049D02*
X708321D01*
X678315Y626049D02*
X708321D01*
X686288Y814149D02*
X708311D01*
X682445Y634149D02*
X708311D01*
X706750Y724149D02*
X708311D01*
X695632Y675999D02*
X708309D01*
X676587Y765999D02*
X708309D01*
X701967Y764199D02*
X708299D01*
X694801Y674199D02*
X708299D01*
X681512Y815949D02*
X708297D01*
X678261Y635949D02*
X708297D01*
X706750Y725949D02*
X708297D01*
X705149Y714249D02*
X708288D01*
X683838Y624249D02*
X708288D01*
X658940Y775899D02*
X708286D01*
X707049Y685899D02*
X708286D01*
X706750Y754299D02*
X708277D01*
X687849Y664299D02*
X708277D01*
X706750Y735849D02*
X708275D01*
X687832Y645849D02*
X708275D01*
X703236Y794349D02*
X708267D01*
X705149Y704349D02*
X708267D01*
X702912Y785799D02*
X708265D01*
X707049Y695799D02*
X708265D01*
X706750Y744399D02*
X708258D01*
X687849Y654399D02*
X708258D01*
X706750Y745749D02*
X708256D01*
X687849Y655749D02*
X708256D01*
X678661Y806499D02*
X708254D01*
X702622Y784449D02*
X708249D01*
X707049Y694449D02*
X708249D01*
X643518Y795699D02*
X708247D01*
X705149Y705699D02*
X708247D01*
X706750Y734499D02*
X708241D01*
X686811Y644499D02*
X708241D01*
X706750Y755649D02*
X708240D01*
X687849Y665649D02*
X708240D01*
X699880Y774549D02*
X708234D01*
X707049Y684549D02*
X708234D01*
X678556Y625599D02*
X708232D01*
X705149Y715599D02*
X708232D01*
X686027Y814599D02*
X708227D01*
X706750Y724599D02*
X708227D01*
X682412Y634599D02*
X708227D01*
X695637Y675549D02*
X708226D01*
X676895Y765549D02*
X708226D01*
X695282Y674649D02*
X708221D01*
X701340Y764649D02*
X708221D01*
X681344Y815499D02*
X708220D01*
X681881Y635499D02*
X708220D01*
X706750Y725499D02*
X708220D01*
X705149Y714699D02*
X708216D01*
X683576Y624699D02*
X708216D01*
X643481Y775449D02*
X708215D01*
X707049Y685449D02*
X708215D01*
X706750Y754749D02*
X708211D01*
X687849Y664749D02*
X708211D01*
X706750Y735399D02*
X708211D01*
X687663Y645399D02*
X708211D01*
X702228Y794799D02*
X708207D01*
X705149Y704799D02*
X708207D01*
X702945Y785349D02*
X708207D01*
X707049Y695349D02*
X708207D01*
X657249Y803799D02*
X708205D01*
X706750Y744849D02*
X708204D01*
X687849Y654849D02*
X708204D01*
X706750Y745299D02*
X708204D01*
X687849Y655299D02*
X708204D01*
X702852Y784899D02*
X708201D01*
X707049Y694899D02*
X708201D01*
X643074Y795249D02*
X708201D01*
X705149Y705249D02*
X708201D01*
X706750Y734949D02*
X708199D01*
X687261Y644949D02*
X708199D01*
X705149Y702999D02*
X708199D01*
X706750Y755199D02*
X708199D01*
X687849Y665199D02*
X708199D01*
X699395Y774999D02*
X708198D01*
X707049Y684999D02*
X708198D01*
X705149Y715149D02*
X708198D01*
X682997Y625149D02*
X708198D01*
X685552Y815049D02*
X708197D01*
X682245Y635049D02*
X708197D01*
X706750Y725049D02*
X708197D01*
X695529Y675099D02*
X708197D01*
X695154Y765099D02*
X708197D01*
X668738Y806049D02*
X708115D01*
X667819Y804249D02*
X708083D01*
X702446Y762849D02*
X708049D01*
X668731Y805599D02*
X708031D01*
X668344Y804699D02*
X708015D01*
X706713Y722799D02*
X707999D01*
X668609Y805149D02*
X707998D01*
X705149Y702549D02*
X707749D01*
X702363Y762399D02*
X707599D01*
X706499Y722349D02*
X707549D01*
X705149Y702099D02*
X707299D01*
X702152Y761949D02*
X707149D01*
X706067Y721899D02*
X707099D01*
X705149Y701649D02*
X706849D01*
X701741Y761499D02*
X706699D01*
X705617Y721449D02*
X706649D01*
X705149Y701199D02*
X706399D01*
X687849Y647649D02*
X706271D01*
X643181Y761049D02*
X706249D01*
X705167Y720999D02*
X706199D01*
X687849Y649899D02*
X706122D01*
X705149Y700749D02*
X705949D01*
X687849Y648099D02*
X705931D01*
X687849Y649449D02*
X705860D01*
X705440Y626499D02*
X705857D01*
X705454Y629199D02*
X705843D01*
X643248Y760599D02*
X705799D01*
X687849Y648549D02*
X705777D01*
X687849Y648999D02*
X705755D01*
X704717Y720549D02*
X705749D01*
X643204Y760149D02*
X705349D01*
X704267Y720099D02*
X705299D01*
X687849Y653499D02*
X705170D01*
X683716Y759699D02*
X704899D01*
X703817Y719649D02*
X704849D01*
X703478Y612999D02*
X704819D01*
X687849Y650349D02*
X704622D01*
X703811Y691299D02*
X704549D01*
X703598Y690849D02*
X704549D01*
X703410Y690399D02*
X704549D01*
X703008Y689949D02*
X704549D01*
X693512Y689499D02*
X704549D01*
X693248Y689049D02*
X704549D01*
X692727Y688599D02*
X704549D01*
X691351Y688149D02*
X704549D01*
X697945Y687699D02*
X704549D01*
X698511Y687249D02*
X704549D01*
X701878Y686799D02*
X704549D01*
X702533Y686349D02*
X704549D01*
X702817Y685899D02*
X704549D01*
X702937Y685449D02*
X704549D01*
X702929Y684999D02*
X704549D01*
X702790Y684549D02*
X704549D01*
X702477Y684099D02*
X704549D01*
X701681Y683649D02*
X704549D01*
X692995Y683199D02*
X704549D01*
X693445Y682749D02*
X704549D01*
X693895Y682299D02*
X704549D01*
X694345Y681849D02*
X704549D01*
X695331Y681399D02*
X704537D01*
X684190Y759249D02*
X704476D01*
X703367Y719199D02*
X704399D01*
X703908Y607149D02*
X704389D01*
X684433Y758799D02*
X704279D01*
X684538Y758349D02*
X704250D01*
X684531Y757899D02*
X704250D01*
X684409Y757449D02*
X704250D01*
X684144Y756999D02*
X704250D01*
X684236Y756549D02*
X704250D01*
X684571Y756099D02*
X704250D01*
X684722Y755649D02*
X704250D01*
X684741Y755199D02*
X704250D01*
X684634Y754749D02*
X704250D01*
X684367Y754299D02*
X704250D01*
X683775Y753849D02*
X704250D01*
X645467Y753399D02*
X704250D01*
X645149Y752949D02*
X704250D01*
X645151Y752499D02*
X704250D01*
X646580Y752049D02*
X704250D01*
X647051Y751599D02*
X704250D01*
X693060Y751149D02*
X704250D01*
X694108Y750699D02*
X704250D01*
X694444Y750249D02*
X704250D01*
X694596Y749799D02*
X704250D01*
X694616Y749349D02*
X704250D01*
X694509Y748899D02*
X704250D01*
X694244Y748449D02*
X704250D01*
X693655Y747999D02*
X704250D01*
X688665Y747549D02*
X704250D01*
X688280Y747099D02*
X704250D01*
X647095Y746649D02*
X704250D01*
X671321Y746199D02*
X704250D01*
X671798Y745749D02*
X704250D01*
X672042Y745299D02*
X704250D01*
X672149Y744849D02*
X704250D01*
X672143Y744399D02*
X704250D01*
X672022Y743949D02*
X704250D01*
X671758Y743499D02*
X704250D01*
X701636Y743049D02*
X704250D01*
X702419Y742599D02*
X704250D01*
X702730Y742149D02*
X704250D01*
X702867Y741699D02*
X704250D01*
X702874Y741249D02*
X704250D01*
X702753Y740799D02*
X704250D01*
X702466Y740349D02*
X704250D01*
X701804Y739899D02*
X704250D01*
X649424Y739449D02*
X704250D01*
X648750Y738999D02*
X704250D01*
X645149Y738549D02*
X704250D01*
X645149Y738099D02*
X704250D01*
X645149Y737649D02*
X704250D01*
X678315Y737199D02*
X704250D01*
X679013Y736749D02*
X704250D01*
X679336Y736299D02*
X704250D01*
X679496Y735849D02*
X704250D01*
X679537Y735399D02*
X704250D01*
X679467Y734949D02*
X704250D01*
X679270Y734499D02*
X704250D01*
X678887Y734049D02*
X704250D01*
X657785Y733599D02*
X704250D01*
X657578Y733149D02*
X704250D01*
X657140Y732699D02*
X704250D01*
X653658Y732249D02*
X704250D01*
X679580Y731799D02*
X704250D01*
X680016Y731349D02*
X704250D01*
X680222Y730899D02*
X704250D01*
X688790Y730449D02*
X704250D01*
X689313Y729999D02*
X704250D01*
X689556Y729549D02*
X704250D01*
X689647Y729099D02*
X704250D01*
X689612Y728649D02*
X704250D01*
X689442Y728199D02*
X704250D01*
X689076Y727749D02*
X704250D01*
X686894Y727299D02*
X704250D01*
X686582Y726849D02*
X704250D01*
X685798Y726399D02*
X704250D01*
X685457Y725949D02*
X704250D01*
X685826Y725499D02*
X704250D01*
X685998Y725049D02*
X704250D01*
X686035Y724599D02*
X704250D01*
X689116Y724149D02*
X704250D01*
X689484Y723699D02*
X704249D01*
X687849Y653049D02*
X704161D01*
X695757Y680949D02*
X704126D01*
X687849Y650799D02*
X704030D01*
X702917Y718749D02*
X703949D01*
X689654Y723249D02*
X703881D01*
X687849Y652599D02*
X703826D01*
X687849Y651249D02*
X703764D01*
X695957Y680499D02*
X703676D01*
X687849Y652149D02*
X703675D01*
X687849Y651699D02*
X703656D01*
X677795Y626499D02*
X703557D01*
X677149Y629199D02*
X703543D01*
X702467Y718299D02*
X703499D01*
X689689Y722799D02*
X703431D01*
X696017Y680049D02*
X703226D01*
X677055Y626949D02*
X703119D01*
X677149Y628749D02*
X703112D01*
X702017Y717849D02*
X703049D01*
X689598Y722349D02*
X702981D01*
X677147Y627399D02*
X702913D01*
X677149Y628299D02*
X702910D01*
X677149Y627849D02*
X702849D01*
X695979Y679599D02*
X702776D01*
X701567Y717399D02*
X702740D01*
X701117Y716949D02*
X702649D01*
X700667Y716499D02*
X702649D01*
X700217Y716049D02*
X702649D01*
X699767Y715599D02*
X702649D01*
X699317Y715149D02*
X702649D01*
X698867Y714699D02*
X702649D01*
X698417Y714249D02*
X702649D01*
X697967Y713799D02*
X702649D01*
X697517Y713349D02*
X702649D01*
X697067Y712899D02*
X702649D01*
X696617Y712449D02*
X702649D01*
X696167Y711999D02*
X702649D01*
X695717Y711549D02*
X702649D01*
X695267Y711099D02*
X702649D01*
X694817Y710649D02*
X702649D01*
X694367Y710199D02*
X702649D01*
X693917Y709749D02*
X702649D01*
X693467Y709299D02*
X702649D01*
X693017Y708849D02*
X702649D01*
X692567Y708399D02*
X702649D01*
X692117Y707949D02*
X702649D01*
X691667Y707499D02*
X702649D01*
X691217Y707049D02*
X702649D01*
X690767Y706599D02*
X702649D01*
X690317Y706149D02*
X702649D01*
X689867Y705699D02*
X702649D01*
X689417Y705249D02*
X702649D01*
X688967Y704799D02*
X702649D01*
X688517Y704349D02*
X702649D01*
X688067Y703899D02*
X702649D01*
X687617Y703449D02*
X702649D01*
X687450Y702999D02*
X702649D01*
X687450Y702549D02*
X702649D01*
X687450Y702099D02*
X702649D01*
X687450Y701649D02*
X702649D01*
X687450Y701199D02*
X702649D01*
X687450Y700749D02*
X702649D01*
X687450Y700299D02*
X702649D01*
X687450Y699849D02*
X702649D01*
X687450Y699399D02*
X702649D01*
X687450Y698949D02*
X702649D01*
X687450Y698499D02*
X702649D01*
X687450Y698049D02*
X702649D01*
X694745Y697599D02*
X702649D01*
X695311Y697149D02*
X702649D01*
X695592Y696699D02*
X702649D01*
X695725Y696249D02*
X702649D01*
X695742Y695799D02*
X702649D01*
X695647Y695349D02*
X702649D01*
X695418Y694899D02*
X702649D01*
X694974Y694449D02*
X702649D01*
X694489Y693999D02*
X702649D01*
X687034Y808299D02*
X702621D01*
X689356Y721899D02*
X702531D01*
X694039Y693549D02*
X702526D01*
X680654Y612999D02*
X702319D01*
X686248Y810999D02*
X702316D01*
X687130Y808749D02*
X702090D01*
X688833Y721449D02*
X702081D01*
X693589Y693099D02*
X702076D01*
X624149Y794799D02*
X701970D01*
X675020Y609849D02*
X701959D01*
X686664Y810549D02*
X701953D01*
X652339Y607149D02*
X701889D01*
X678606Y801549D02*
X701861D01*
X687145Y809199D02*
X701845D01*
X642845Y798399D02*
X701796D01*
X686925Y810099D02*
X701785D01*
X687078Y809649D02*
X701752D01*
X680640Y610299D02*
X701720D01*
X681085Y612549D02*
X701664D01*
X683785Y720999D02*
X701631D01*
X674866Y609399D02*
X701546D01*
X652510Y607599D02*
X701487D01*
X700764Y791649D02*
X701422D01*
X681078Y610749D02*
X701407D01*
X681288Y612099D02*
X701380D01*
X678648Y801099D02*
X701345D01*
X674526Y608949D02*
X701325D01*
X639404Y798849D02*
X701315D01*
X652546Y608049D02*
X701299D01*
X681285Y611199D02*
X701268D01*
X681349Y611649D02*
X701260D01*
X652456Y608499D02*
X701249D01*
X665045Y720549D02*
X701181D01*
X693139Y692649D02*
X701117D01*
X678578Y800649D02*
X701084D01*
X640258Y799299D02*
X701068D01*
X693633Y689949D02*
X700989D01*
X678383Y800199D02*
X700965D01*
X678002Y799749D02*
X700960D01*
X692545Y683649D02*
X700916D01*
X671237Y743049D02*
X700836D01*
X665495Y720099D02*
X700731D01*
X698792Y686799D02*
X700719D01*
X649713Y739899D02*
X700668D01*
X692689Y692199D02*
X700646D01*
X693639Y690399D02*
X700587D01*
X694390Y781749D02*
X700533D01*
X692812Y691749D02*
X700425D01*
X655801Y788949D02*
X700417D01*
X693533Y690849D02*
X700399D01*
X693288Y691299D02*
X700349D01*
X665945Y719649D02*
X700281D01*
X692095Y684099D02*
X700120D01*
X698925Y686349D02*
X700064D01*
X657850Y742599D02*
X700053D01*
X694529Y782199D02*
X700053D01*
X649836Y740349D02*
X700006D01*
X624149Y784449D02*
X699990D01*
X693478Y783999D02*
X699981D01*
X695628Y788499D02*
X699946D01*
X697141Y786699D02*
X699887D01*
X695585Y764649D02*
X699857D01*
X697034Y786249D02*
X699853D01*
X666395Y719199D02*
X699831D01*
X694537Y782649D02*
X699828D01*
X698174Y684549D02*
X699807D01*
X694133Y783549D02*
X699797D01*
X698942Y685899D02*
X699780D01*
X694417Y783099D02*
X699750D01*
X625384Y784899D02*
X699745D01*
X648621Y742149D02*
X699742D01*
X696636Y788049D02*
X699725D01*
X649830Y740799D02*
X699719D01*
X697122Y787149D02*
X699699D01*
X696767Y785799D02*
X699685D01*
X698618Y684999D02*
X699668D01*
X698847Y685449D02*
X699660D01*
X696175Y785349D02*
X699652D01*
X696971Y787599D02*
X699649D01*
X649387Y741699D02*
X699605D01*
X649695Y741249D02*
X699598D01*
X686170Y761499D02*
X699456D01*
X666845Y718749D02*
X699381D01*
X695788Y764199D02*
X699230D01*
X690226Y761949D02*
X699045D01*
X667295Y718299D02*
X698931D01*
X695849Y763749D02*
X698928D01*
X698497Y794349D02*
X698876D01*
X695140Y762399D02*
X698834D01*
X695785Y763299D02*
X698781D01*
X695578Y762849D02*
X698752D01*
X674280Y717849D02*
X698481D01*
X674751Y717399D02*
X698031D01*
X693078Y774999D02*
X697681D01*
X674973Y716949D02*
X697581D01*
X693677Y772299D02*
X697509D01*
X693733Y774549D02*
X697196D01*
X675048Y716499D02*
X697131D01*
X693990Y772749D02*
X697117D01*
X693497Y794349D02*
X697100D01*
X686145Y668349D02*
X697093D01*
X693221Y671949D02*
X697051D01*
X694017Y774099D02*
X696968D01*
X694129Y773199D02*
X696934D01*
X694137Y773649D02*
X696889D01*
X674998Y716049D02*
X696681D01*
X693926Y791649D02*
X696671D01*
X694076Y793899D02*
X696522D01*
X694266Y792099D02*
X696331D01*
X694338Y793449D02*
X696260D01*
X695545Y687699D02*
X696252D01*
X693350Y668799D02*
X696239D01*
X674810Y715599D02*
X696231D01*
X693987Y671499D02*
X696228D01*
X694420Y792549D02*
X696177D01*
X694442Y792999D02*
X696155D01*
X695777Y684549D02*
X696020D01*
X694024Y669249D02*
X695885D01*
X694295Y671049D02*
X695879D01*
X674408Y715149D02*
X695781D01*
X694313Y669699D02*
X695705D01*
X694430Y670599D02*
X695703D01*
X694436Y670149D02*
X695649D01*
X690128Y788499D02*
X695370D01*
X674342Y714699D02*
X695331D01*
X674320Y714249D02*
X694881D01*
X690675Y785349D02*
X694822D01*
X674166Y713799D02*
X694431D01*
X691136Y788049D02*
X694361D01*
X691267Y785799D02*
X694230D01*
X691471Y787599D02*
X694026D01*
X673967Y713349D02*
X693981D01*
X691534Y786249D02*
X693964D01*
X691622Y787149D02*
X693875D01*
X691641Y786699D02*
X693856D01*
X691285Y687699D02*
X693852D01*
X691645Y684549D02*
X693623D01*
X674217Y712899D02*
X693531D01*
X691078Y687249D02*
X693286D01*
X690566Y762399D02*
X693257D01*
X677030Y765099D02*
X693243D01*
X691195Y684999D02*
X693179D01*
X674337Y712449D02*
X693081D01*
X687450Y697599D02*
X693052D01*
X690640Y686799D02*
X693005D01*
X690745Y685449D02*
X692950D01*
X647273Y751149D02*
X692886D01*
X689960Y686349D02*
X692872D01*
X690295Y685899D02*
X692855D01*
X690720Y762849D02*
X692819D01*
X689797Y764649D02*
X692812D01*
X688330Y674199D02*
X692796D01*
X674329Y711999D02*
X692631D01*
X690742Y763299D02*
X692613D01*
X690376Y764199D02*
X692610D01*
X690638Y763749D02*
X692549D01*
X684802Y780849D02*
X692516D01*
X687456Y697149D02*
X692486D01*
X682545Y671949D02*
X692376D01*
X684213Y783999D02*
X692319D01*
X688195Y674649D02*
X692315D01*
X688863Y747999D02*
X692291D01*
X685695Y668799D02*
X692247D01*
X674259Y711549D02*
X692181D01*
X685164Y771849D02*
X692116D01*
X677221Y794349D02*
X692100D01*
X689318Y696699D02*
X692098D01*
X685195Y676449D02*
X692084D01*
X687887Y675099D02*
X692068D01*
X685330Y675999D02*
X691965D01*
X687121Y675549D02*
X691960D01*
X685322Y676899D02*
X691951D01*
X643548Y774999D02*
X691919D01*
X647348Y750699D02*
X691838D01*
X680523Y711099D02*
X691731D01*
X685183Y781299D02*
X691720D01*
X688934Y748449D02*
X691702D01*
X678024Y791649D02*
X691671D01*
X684920Y783549D02*
X691664D01*
X689715Y696249D02*
X691648D01*
X682995Y671499D02*
X691611D01*
X685245Y669249D02*
X691573D01*
X677987Y793899D02*
X691522D01*
X687720Y750249D02*
X691502D01*
X688894Y748899D02*
X691437D01*
X685378Y781749D02*
X691407D01*
X685244Y783099D02*
X691380D01*
X688413Y749799D02*
X691350D01*
X678313Y792099D02*
X691331D01*
X688734Y749349D02*
X691330D01*
X685644Y772299D02*
X691320D01*
X683445Y671049D02*
X691302D01*
X684795Y669699D02*
X691284D01*
X680982Y710649D02*
X691281D01*
X685448Y782199D02*
X691268D01*
X685321Y774549D02*
X691264D01*
X685406Y782649D02*
X691260D01*
X678295Y793449D02*
X691260D01*
X689901Y695799D02*
X691198D01*
X678436Y792549D02*
X691177D01*
X683895Y670599D02*
X691167D01*
X684345Y670149D02*
X691161D01*
X678430Y792999D02*
X691155D01*
X685869Y772749D02*
X691007D01*
X685716Y774099D02*
X690980D01*
X685948Y773199D02*
X690868D01*
X685901Y773649D02*
X690860D01*
X681432Y710199D02*
X690831D01*
X689971Y695349D02*
X690748D01*
X681882Y709749D02*
X690381D01*
X682332Y709299D02*
X689931D01*
X655848Y788499D02*
X689870D01*
X682782Y708849D02*
X689481D01*
X626110Y785349D02*
X689322D01*
X683232Y708399D02*
X689031D01*
X655769Y788049D02*
X688861D01*
X626439Y785799D02*
X688730D01*
X683682Y707949D02*
X688581D01*
X655544Y787599D02*
X688526D01*
X626604Y786249D02*
X688464D01*
X677036Y764649D02*
X688400D01*
X655064Y787149D02*
X688375D01*
X626648Y786699D02*
X688356D01*
X684132Y707499D02*
X688131D01*
X685799Y828099D02*
X688052D01*
X682289Y816849D02*
X687979D01*
X686539Y761949D02*
X687971D01*
X682475Y819999D02*
X687881D01*
X680963Y824949D02*
X687823D01*
X685895Y764199D02*
X687822D01*
X684582Y707049D02*
X687681D01*
X686710Y762399D02*
X687631D01*
X686415Y763749D02*
X687560D01*
X685607Y827649D02*
X687486D01*
X686746Y762849D02*
X687477D01*
X686656Y763299D02*
X687455D01*
X682515Y817299D02*
X687453D01*
X682639Y819549D02*
X687407D01*
X680963Y825399D02*
X687379D01*
X684372Y721449D02*
X687251D01*
X685032Y706599D02*
X687231D01*
X680285Y730449D02*
X687210D01*
X685322Y827199D02*
X687205D01*
X682665Y817749D02*
X687188D01*
X682737Y819099D02*
X687165D01*
X680963Y825849D02*
X687150D01*
X684910Y826749D02*
X687072D01*
X682749Y818199D02*
X687066D01*
X682772Y818649D02*
X687059D01*
X684269Y826299D02*
X687055D01*
X685946Y724149D02*
X686967D01*
X685482Y706149D02*
X686781D01*
X684637Y721899D02*
X686728D01*
X680223Y729999D02*
X686687D01*
X685707Y723699D02*
X686600D01*
X684743Y722349D02*
X686485D01*
X647298Y750249D02*
X686450D01*
X685969Y729549D02*
X686430D01*
X685191Y723249D02*
X686430D01*
X684723Y722799D02*
X686395D01*
X685857Y705699D02*
X686331D01*
X685336Y675549D02*
X686276D01*
X682100Y672399D02*
X686147D01*
X646787Y747099D02*
X685890D01*
X647110Y749799D02*
X685757D01*
X646021Y747549D02*
X685505D01*
X682417Y672849D02*
X685473D01*
X646708Y749349D02*
X685436D01*
X645149Y747999D02*
X685307D01*
X645180Y748899D02*
X685276D01*
X645149Y748449D02*
X685236D01*
X683058Y673299D02*
X685184D01*
X684250Y674199D02*
X685066D01*
X683364Y673749D02*
X685061D01*
X680020Y729549D02*
X684831D01*
X677148Y726399D02*
X684322D01*
X676913Y764199D02*
X684302D01*
X676787Y726849D02*
X684218D01*
X676494Y779949D02*
X684217D01*
X679588Y729099D02*
X684169D01*
X659649Y777249D02*
X684089D01*
X644350Y761499D02*
X684027D01*
X658295Y727299D02*
X683906D01*
X671134Y728649D02*
X683883D01*
X676624Y763749D02*
X683782D01*
X670275Y727749D02*
X683769D01*
X670867Y728199D02*
X683762D01*
X676552Y779499D02*
X683746D01*
X659588Y777699D02*
X683687D01*
X645024Y761949D02*
X683658D01*
X675950Y763299D02*
X683541D01*
X676484Y779049D02*
X683525D01*
X675824Y778149D02*
X683499D01*
X645313Y762399D02*
X683487D01*
X645436Y762849D02*
X683451D01*
X676273Y778599D02*
X683449D01*
X650108Y771849D02*
X683433D01*
X677314Y725949D02*
X683321D01*
X649980Y774549D02*
X683276D01*
X681291Y783999D02*
X682984D01*
X650510Y772299D02*
X682953D01*
X677346Y725499D02*
X682950D01*
X650451Y774099D02*
X682881D01*
X677252Y725049D02*
X682777D01*
X677005Y724599D02*
X682740D01*
X650698Y772749D02*
X682728D01*
X676470Y724149D02*
X682716D01*
X650673Y773649D02*
X682697D01*
X650748Y773199D02*
X682650D01*
X645734Y753849D02*
X682422D01*
X664595Y720999D02*
X682415D01*
X681880Y780849D02*
X682395D01*
X682008Y783549D02*
X682268D01*
X661895Y723699D02*
X681966D01*
X645841Y754299D02*
X681830D01*
X664145Y721449D02*
X681828D01*
X645149Y756549D02*
X681733D01*
X643039Y759699D02*
X681681D01*
X662345Y723249D02*
X681630D01*
X645149Y756099D02*
X681626D01*
X678646Y625149D02*
X681600D01*
X645822Y754749D02*
X681564D01*
X663695Y721899D02*
X681563D01*
X681010Y834849D02*
X681493D01*
X662795Y722799D02*
X681477D01*
X645336Y755649D02*
X681475D01*
X663245Y722349D02*
X681457D01*
X645671Y755199D02*
X681456D01*
X624149Y756999D02*
X681253D01*
X642710Y759249D02*
X681207D01*
X672661Y622449D02*
X681171D01*
X678610Y624699D02*
X681022D01*
X624149Y757449D02*
X680988D01*
X641984Y758799D02*
X680965D01*
X624149Y757899D02*
X680866D01*
X624149Y758349D02*
X680859D01*
X673111Y622899D02*
X680831D01*
X678439Y624249D02*
X680760D01*
X673561Y623349D02*
X680677D01*
X678070Y623799D02*
X680655D01*
X636381Y783999D02*
X680062D01*
X677149Y632799D02*
X680021D01*
X677811Y635499D02*
X679716D01*
X677149Y633249D02*
X679490D01*
X676123Y780849D02*
X679473D01*
X676258Y783549D02*
X679355D01*
X677361Y635049D02*
X679353D01*
X677149Y633699D02*
X679245D01*
X677149Y634599D02*
X679185D01*
X677149Y634149D02*
X679152D01*
X676550Y781299D02*
X679092D01*
X676642Y783099D02*
X679031D01*
X676781Y781749D02*
X678897D01*
X676822Y782649D02*
X678869D01*
X676864Y782199D02*
X678827D01*
X675042Y610299D02*
X678757D01*
X676841Y612999D02*
X678743D01*
X674938Y610749D02*
X678319D01*
X676734Y612549D02*
X678312D01*
X674696Y611199D02*
X678113D01*
X676467Y612099D02*
X678110D01*
X675875Y611649D02*
X678049D01*
X653867Y731799D02*
X677690D01*
X671241Y729099D02*
X677682D01*
X668633Y806499D02*
X677402D01*
X653946Y731349D02*
X677254D01*
X671222Y729549D02*
X677250D01*
X645149Y737199D02*
X677061D01*
X669728Y730899D02*
X677048D01*
X671071Y729999D02*
X677047D01*
X670736Y730449D02*
X676985D01*
X657849Y734049D02*
X676489D01*
X624149Y794349D02*
X676376D01*
X645149Y736749D02*
X676363D01*
X668390Y806949D02*
X676343D01*
X646888Y791199D02*
X676247D01*
X657110Y802899D02*
X676184D01*
X657788Y734499D02*
X676106D01*
X645149Y736299D02*
X676040D01*
X674011Y623799D02*
X675927D01*
X657585Y734949D02*
X675909D01*
X645149Y735849D02*
X675880D01*
X657154Y735399D02*
X675839D01*
X667916Y807399D02*
X675818D01*
X624149Y793899D02*
X675611D01*
X640612Y799749D02*
X675595D01*
X647023Y791649D02*
X675573D01*
X674461Y624249D02*
X675558D01*
X656939Y802449D02*
X675477D01*
X657249Y807849D02*
X675473D01*
X674911Y624699D02*
X675381D01*
X646288Y793449D02*
X675302D01*
X647043Y792099D02*
X675284D01*
X657249Y808299D02*
X675241D01*
X640792Y800199D02*
X675214D01*
X646725Y792999D02*
X675167D01*
X646950Y792549D02*
X675161D01*
X656570Y801999D02*
X675153D01*
X674508Y647649D02*
X675149D01*
X673494Y647199D02*
X675149D01*
X673278Y646749D02*
X675149D01*
X672840Y646299D02*
X675149D01*
X661881Y645849D02*
X675149D01*
X643740Y645399D02*
X675149D01*
X640999Y644949D02*
X675149D01*
X640999Y644499D02*
X675149D01*
X640999Y644049D02*
X675149D01*
X640999Y643599D02*
X675149D01*
X643680Y643149D02*
X675149D01*
X644151Y642699D02*
X675149D01*
X644373Y642249D02*
X675149D01*
X667916Y641799D02*
X675149D01*
X657249Y808749D02*
X675096D01*
X614816Y614799D02*
X675070D01*
X657249Y809199D02*
X675024D01*
X640849Y800649D02*
X675019D01*
X657711Y810099D02*
X675013D01*
X657277Y809649D02*
X675013D01*
X640618Y801549D02*
X674991D01*
X647215Y766449D02*
X674976D01*
X640794Y801099D02*
X674949D01*
X674157Y724149D02*
X674929D01*
X668440Y641349D02*
X674885D01*
X645430Y763299D02*
X674847D01*
X663346Y810549D02*
X674644D01*
X674403Y726849D02*
X674594D01*
X668682Y640899D02*
X674435D01*
X647456Y765999D02*
X674211D01*
X645448Y763749D02*
X674173D01*
X637132Y783549D02*
X674173D01*
X615290Y614349D02*
X674061D01*
X668771Y640449D02*
X673985D01*
X659385Y778149D02*
X673979D01*
X670295Y780849D02*
X673927D01*
X651028Y612099D02*
X673904D01*
X647546Y765549D02*
X673902D01*
X646970Y764199D02*
X673884D01*
X669987Y781299D02*
X673882D01*
X663863Y810999D02*
X673824D01*
X637467Y783099D02*
X673789D01*
X647510Y765099D02*
X673767D01*
X647339Y764649D02*
X673761D01*
X615533Y613899D02*
X673726D01*
X644401Y612549D02*
X673664D01*
X669221Y781749D02*
X673650D01*
X637635Y782649D02*
X673610D01*
X643821Y613449D02*
X673575D01*
X637682Y782199D02*
X673567D01*
X644216Y612999D02*
X673556D01*
X668733Y639999D02*
X673535D01*
X669350Y778599D02*
X673531D01*
X670430Y780399D02*
X673507D01*
X664104Y811449D02*
X673356D01*
X670024Y779049D02*
X673319D01*
X670436Y779949D02*
X673309D01*
X670313Y779499D02*
X673252D01*
X668559Y639549D02*
X673085D01*
X664193Y811899D02*
X673044D01*
X649041Y815049D02*
X673007D01*
X649143Y814599D02*
X672904D01*
X664157Y812349D02*
X672835D01*
X659480Y814149D02*
X672748D01*
X663985Y812799D02*
X672709D01*
X666580Y621549D02*
X672700D01*
X652036Y611649D02*
X672700D01*
X660825Y813699D02*
X672667D01*
X663615Y813249D02*
X672654D01*
X668181Y639099D02*
X672635D01*
X667745Y717849D02*
X672517D01*
X661445Y724149D02*
X672510D01*
X658745Y726849D02*
X672280D01*
X670090Y618849D02*
X672271D01*
X652215Y608949D02*
X672271D01*
X667544Y638649D02*
X672185D01*
X669178Y621099D02*
X672122D01*
X652371Y611199D02*
X672122D01*
X668154Y717399D02*
X672046D01*
X660995Y724599D02*
X672006D01*
X670229Y619299D02*
X671931D01*
X652167Y609399D02*
X671931D01*
X659195Y726399D02*
X671902D01*
X669833Y620649D02*
X671860D01*
X652522Y610749D02*
X671860D01*
X668330Y716949D02*
X671825D01*
X668350Y716049D02*
X671790D01*
X670237Y619749D02*
X671777D01*
X652434Y609849D02*
X671777D01*
X660545Y725049D02*
X671771D01*
X670117Y620199D02*
X671755D01*
X652541Y610299D02*
X671755D01*
X668350Y716499D02*
X671749D01*
X659645Y725949D02*
X671726D01*
X660095Y725499D02*
X671686D01*
X671599Y638199D02*
X671660D01*
X668350Y713349D02*
X671430D01*
X668350Y715599D02*
X671422D01*
X651976Y634599D02*
X671349D01*
X652238Y634149D02*
X671349D01*
X651397Y635049D02*
X671338D01*
X668350Y713799D02*
X671231D01*
X670992Y633699D02*
X671189D01*
X668350Y712899D02*
X671180D01*
X668350Y715149D02*
X671160D01*
X668350Y714249D02*
X671077D01*
X668557Y711999D02*
X671068D01*
X668350Y712449D02*
X671060D01*
X668350Y714699D02*
X671055D01*
X665741Y646299D02*
X670957D01*
X642149Y665199D02*
X670649D01*
X642149Y664749D02*
X670649D01*
X642149Y664299D02*
X670649D01*
X652612Y663849D02*
X670649D01*
X653088Y663399D02*
X670649D01*
X653333Y662949D02*
X670649D01*
X653439Y662499D02*
X670649D01*
X653433Y662049D02*
X670649D01*
X653312Y661599D02*
X670649D01*
X666780Y661149D02*
X670649D01*
X667251Y660699D02*
X670649D01*
X667473Y660249D02*
X670649D01*
X667548Y659799D02*
X670649D01*
X667498Y659349D02*
X670649D01*
X667310Y658899D02*
X670649D01*
X666908Y658449D02*
X670649D01*
X660777Y657999D02*
X670649D01*
X659981Y657549D02*
X670649D01*
X642149Y657099D02*
X670649D01*
X642149Y656649D02*
X670649D01*
X642149Y656199D02*
X670649D01*
X642149Y655749D02*
X670649D01*
X642149Y655299D02*
X670649D01*
X649421Y654849D02*
X670649D01*
X663582Y654399D02*
X670649D01*
X663945Y653949D02*
X670649D01*
X664112Y653499D02*
X670649D01*
X664145Y653049D02*
X670649D01*
X664052Y652599D02*
X670649D01*
X663807Y652149D02*
X670649D01*
X663388Y651699D02*
X670649D01*
X663649Y651249D02*
X670649D01*
X664099Y650799D02*
X670649D01*
X664549Y650349D02*
X670649D01*
X664999Y649899D02*
X670649D01*
X665449Y649449D02*
X670649D01*
X665967Y648999D02*
X670649D01*
X669007Y711549D02*
X670631D01*
X642149Y665649D02*
X670580D01*
X666152Y646749D02*
X670519D01*
X666269Y648549D02*
X670512D01*
X667449Y633699D02*
X670366D01*
X666363Y647199D02*
X670313D01*
X666416Y648099D02*
X670310D01*
X666446Y647649D02*
X670249D01*
X669457Y711099D02*
X670140D01*
X642149Y666099D02*
X670130D01*
X668013Y638199D02*
X669802D01*
X668108Y635499D02*
X669706D01*
X642149Y666549D02*
X669680D01*
X668294Y633249D02*
X669521D01*
X653914Y730899D02*
X669470D01*
X663226Y743049D02*
X669383D01*
X668482Y637749D02*
X669333D01*
X647230Y746199D02*
X669298D01*
X668525Y635949D02*
X669290D01*
X642149Y666999D02*
X669230D01*
X668613Y632799D02*
X669202D01*
X668722Y637299D02*
X669093D01*
X668818Y636399D02*
X668996D01*
X657845Y727749D02*
X668922D01*
X663566Y743499D02*
X668861D01*
X662797Y745749D02*
X668821D01*
X642149Y667449D02*
X668780D01*
X663720Y743949D02*
X668598D01*
X663376Y745299D02*
X668577D01*
X663742Y744399D02*
X668477D01*
X663638Y744849D02*
X668470D01*
X653764Y730449D02*
X668461D01*
X637618Y781749D02*
X668376D01*
X652327Y667899D02*
X668330D01*
X646643Y728199D02*
X668330D01*
X658954Y778599D02*
X668247D01*
X601750Y617949D02*
X668216D01*
X653458Y729999D02*
X668126D01*
X646189Y728649D02*
X668064D01*
X667282Y621099D02*
X668019D01*
X652817Y729549D02*
X667975D01*
X645739Y729099D02*
X667956D01*
X652963Y668349D02*
X667880D01*
X637430Y781299D02*
X667611D01*
X627420Y779049D02*
X667573D01*
X653267Y668799D02*
X667430D01*
X666977Y618399D02*
X667420D01*
X637061Y780849D02*
X667302D01*
X627442Y779499D02*
X667284D01*
X636083Y780399D02*
X667167D01*
X627338Y779949D02*
X667161D01*
X653416Y669249D02*
X666980D01*
X662725Y633699D02*
X666823D01*
X662820Y638649D02*
X666727D01*
X662946Y630099D02*
X666602D01*
X662962Y630549D02*
X666586D01*
X653447Y669699D02*
X666530D01*
X663192Y641799D02*
X666355D01*
X663288Y638199D02*
X666259D01*
X663384Y635499D02*
X666163D01*
X663456Y639099D02*
X666091D01*
X653514Y670149D02*
X666078D01*
X662364Y804249D02*
X665979D01*
X663570Y633249D02*
X665977D01*
X663624Y629649D02*
X665923D01*
X663631Y630999D02*
X665916D01*
X659628Y807399D02*
X665881D01*
X663716Y641349D02*
X665831D01*
X659937Y621549D02*
X665817D01*
X663757Y637749D02*
X665790D01*
X643442Y771399D02*
X665770D01*
X663800Y635949D02*
X665747D01*
X663834Y639549D02*
X665713D01*
X663888Y632799D02*
X665659D01*
X663914Y629199D02*
X665633D01*
X663917Y631449D02*
X665630D01*
X663957Y640899D02*
X665590D01*
X663976Y637299D02*
X665571D01*
X663995Y636399D02*
X665552D01*
X664009Y639999D02*
X665539D01*
X664029Y632349D02*
X665519D01*
X664030Y628299D02*
X665518D01*
X664037Y628749D02*
X665511D01*
X664037Y631899D02*
X665510D01*
X664046Y640449D02*
X665501D01*
X664049Y636849D02*
X665499D01*
X664090Y627849D02*
X665457D01*
X662844Y804699D02*
X665453D01*
X630925Y618399D02*
X665421D01*
X662521Y806949D02*
X665407D01*
X659524Y768249D02*
X665222D01*
X663069Y805149D02*
X665188D01*
X662916Y806499D02*
X665165D01*
X659929Y621099D02*
X665116D01*
X663148Y805599D02*
X665066D01*
X663101Y806049D02*
X665059D01*
X664180Y661149D02*
X665017D01*
X631502Y618849D02*
X664890D01*
X664308Y658449D02*
X664889D01*
X658721Y770949D02*
X664761D01*
X659790Y620649D02*
X664753D01*
X631788Y619299D02*
X664645D01*
X659813Y768699D02*
X664630D01*
X659477Y620199D02*
X664585D01*
X658681Y619749D02*
X664552D01*
X659487Y770499D02*
X664426D01*
X659936Y769149D02*
X664364D01*
X659795Y770049D02*
X664275D01*
X659930Y769599D02*
X664256D01*
X662677Y646299D02*
X663456D01*
X653048Y661149D02*
X662417D01*
X661090Y658449D02*
X662289D01*
X659181Y633699D02*
X662098D01*
X640999Y638649D02*
X662003D01*
X660178Y660699D02*
X661946D01*
X661229Y658899D02*
X661887D01*
X661144Y810549D02*
X661745D01*
X660833Y660249D02*
X661725D01*
X661117Y659799D02*
X661649D01*
X661353Y659349D02*
X661644D01*
X644448Y641799D02*
X661631D01*
X659745Y638199D02*
X661534D01*
X659841Y635499D02*
X661439D01*
X650187Y654399D02*
X661416D01*
X657721Y745749D02*
X661400D01*
X640999Y639099D02*
X661366D01*
X660027Y633249D02*
X661253D01*
X659581Y645849D02*
X661116D01*
X644398Y641349D02*
X661107D01*
X660214Y637749D02*
X661066D01*
X650495Y653949D02*
X661053D01*
X660257Y635949D02*
X661023D01*
X640999Y639549D02*
X660989D01*
X658524Y743049D02*
X660971D01*
X650513Y652599D02*
X660945D01*
X660345Y632799D02*
X660935D01*
X650630Y653499D02*
X660885D01*
X644210Y640899D02*
X660865D01*
X650636Y653049D02*
X660852D01*
X660455Y637299D02*
X660825D01*
X658487Y745299D02*
X660822D01*
X640999Y639999D02*
X660814D01*
X643808Y640449D02*
X660776D01*
X660551Y636399D02*
X660729D01*
X660175Y804249D02*
X660633D01*
X658813Y743499D02*
X660631D01*
X658795Y744849D02*
X660560D01*
X658936Y743949D02*
X660477D01*
X658930Y744399D02*
X660455D01*
X659992Y813699D02*
X660219D01*
X658161Y810549D02*
X659899D01*
X657249Y807399D02*
X659370D01*
X658611Y810999D02*
X659272D01*
X643675Y657549D02*
X659216D01*
X652527Y660699D02*
X659019D01*
X657249Y804249D02*
X658822D01*
X655319Y645849D02*
X658816D01*
X652342Y633699D02*
X658555D01*
X644267Y657999D02*
X658420D01*
X644136Y660249D02*
X658364D01*
X657249Y806949D02*
X658361D01*
X657249Y804699D02*
X658230D01*
X644534Y658449D02*
X658107D01*
X644471Y659799D02*
X658080D01*
X657249Y806499D02*
X658026D01*
X655844Y646299D02*
X658020D01*
X640999Y638199D02*
X657991D01*
X644641Y658899D02*
X657968D01*
X657249Y805149D02*
X657964D01*
X644622Y659349D02*
X657960D01*
X631923Y619749D02*
X657916D01*
X642194Y635499D02*
X657895D01*
X643420Y770949D02*
X657876D01*
X657249Y806049D02*
X657875D01*
X657249Y805599D02*
X657856D01*
X624149Y767799D02*
X657747D01*
X649299Y814149D02*
X657717D01*
X652320Y633249D02*
X657710D01*
X656109Y646749D02*
X657707D01*
X656133Y648099D02*
X657680D01*
X656231Y647199D02*
X657568D01*
X656238Y647649D02*
X657560D01*
X656269Y648549D02*
X657549D01*
X640999Y637749D02*
X657522D01*
X642018Y635949D02*
X657479D01*
X652221Y632799D02*
X657391D01*
X656701Y631449D02*
X657360D01*
X640999Y637299D02*
X657303D01*
X641669Y636399D02*
X657285D01*
X655785Y632349D02*
X657251D01*
X649380Y813699D02*
X657246D01*
X656251Y631899D02*
X657242D01*
X641149Y636849D02*
X657231D01*
X631943Y620199D02*
X657120D01*
X643266Y770499D02*
X657111D01*
X624149Y768249D02*
X657073D01*
X643289Y775899D02*
X657057D01*
X627266Y778599D02*
X657043D01*
X649393Y813249D02*
X657025D01*
X647236Y745749D02*
X656876D01*
X649338Y812799D02*
X656876D01*
X656311Y627399D02*
X656871D01*
X631850Y620649D02*
X656807D01*
X642926Y770049D02*
X656802D01*
X624149Y768699D02*
X656784D01*
X640881Y627849D02*
X656766D01*
X645149Y742599D02*
X656747D01*
X631625Y621099D02*
X656668D01*
X624149Y769599D02*
X656667D01*
X624149Y769149D02*
X656661D01*
X631188Y621549D02*
X656660D01*
X642914Y776349D02*
X656619D01*
X626926Y778149D02*
X656612D01*
X649212Y812349D02*
X656426D01*
X641835Y776799D02*
X656413D01*
X624149Y777699D02*
X656410D01*
X624149Y777249D02*
X656349D01*
X641677Y628299D02*
X656316D01*
X647113Y745299D02*
X656111D01*
X645149Y743049D02*
X656073D01*
X649004Y811899D02*
X655976D01*
X641990Y628749D02*
X655866D01*
X646824Y744849D02*
X655802D01*
X645149Y743499D02*
X655784D01*
X646150Y744399D02*
X655667D01*
X645149Y743949D02*
X655661D01*
X648691Y811449D02*
X655526D01*
X642129Y629199D02*
X655416D01*
X653254Y732699D02*
X655257D01*
X645149Y735399D02*
X655243D01*
X612630Y621999D02*
X655221D01*
X648223Y810999D02*
X655077D01*
X642137Y629649D02*
X654966D01*
X645149Y733149D02*
X654819D01*
X647403Y810549D02*
X654813D01*
X645149Y734949D02*
X654812D01*
X647034Y810099D02*
X654749D01*
X647034Y809649D02*
X654749D01*
X647024Y809199D02*
X654749D01*
X646951Y808749D02*
X654749D01*
X646806Y808299D02*
X654749D01*
X646574Y807849D02*
X654749D01*
X646229Y807399D02*
X654749D01*
X613080Y622449D02*
X654636D01*
X645149Y733599D02*
X654613D01*
X645149Y734499D02*
X654610D01*
X645149Y734049D02*
X654549D01*
X651915Y630099D02*
X654457D01*
X640269Y801999D02*
X654427D01*
X639447Y802449D02*
X654058D01*
X638288Y802899D02*
X653887D01*
X640884Y622899D02*
X653847D01*
X638423Y803349D02*
X653842D01*
X644178Y645849D02*
X653479D01*
X626581Y787149D02*
X653333D01*
X650685Y789849D02*
X653176D01*
X641610Y623349D02*
X653173D01*
X645704Y806949D02*
X653061D01*
X638443Y803799D02*
X652996D01*
X644385Y646299D02*
X652953D01*
X641939Y623799D02*
X652884D01*
X650240Y787599D02*
X652853D01*
X650888Y789399D02*
X652781D01*
X642104Y624249D02*
X652761D01*
X644449Y646749D02*
X652688D01*
X643754Y648099D02*
X652665D01*
X650678Y788049D02*
X652628D01*
X650949Y788949D02*
X652597D01*
X644388Y647199D02*
X652566D01*
X644185Y647649D02*
X652559D01*
X650885Y788499D02*
X652550D01*
X644646Y806499D02*
X652545D01*
X643848Y648549D02*
X652528D01*
X638350Y804249D02*
X652515D01*
X639512Y806049D02*
X652284D01*
X638125Y804699D02*
X652268D01*
X639158Y805599D02*
X652165D01*
X638304Y805149D02*
X652160D01*
X645289Y729549D02*
X651381D01*
X642148Y624699D02*
X651021D01*
X645149Y732699D02*
X650943D01*
X642149Y667899D02*
X650873D01*
X648528Y612099D02*
X650770D01*
X645149Y729999D02*
X650739D01*
X613320Y627399D02*
X650716D01*
X643128Y660699D02*
X650673D01*
X642149Y663849D02*
X650588D01*
X645149Y732249D02*
X650539D01*
X642081Y625149D02*
X650490D01*
X645149Y730449D02*
X650433D01*
X613592Y626949D02*
X650353D01*
X645149Y731799D02*
X650331D01*
X645149Y730899D02*
X650283D01*
X645149Y731349D02*
X650251D01*
X641889Y625599D02*
X650245D01*
X642149Y668349D02*
X650237D01*
X640435Y626499D02*
X650185D01*
X641514Y626049D02*
X650152D01*
X642149Y661149D02*
X650152D01*
X642149Y663399D02*
X650112D01*
X642249Y635049D02*
X650000D01*
X642149Y668799D02*
X649933D01*
X642149Y661599D02*
X649888D01*
X642149Y662949D02*
X649867D01*
X649470Y606699D02*
X649827D01*
X642149Y669249D02*
X649784D01*
X642149Y662049D02*
X649767D01*
X642149Y662499D02*
X649761D01*
X642149Y669699D02*
X649753D01*
X649566Y611649D02*
X649731D01*
X642017Y630099D02*
X649727D01*
X642242Y670149D02*
X649686D01*
X627324Y632349D02*
X649449D01*
X642192Y634599D02*
X649422D01*
X641733Y630549D02*
X649358D01*
X626650Y631899D02*
X649241D01*
X636550Y632799D02*
X649231D01*
X641078Y630999D02*
X649187D01*
X642012Y634149D02*
X649160D01*
X621807Y631449D02*
X649151D01*
X640804Y633249D02*
X649077D01*
X641658Y633699D02*
X649055D01*
X642149Y654849D02*
X648576D01*
X626389Y787599D02*
X648357D01*
X646025Y790299D02*
X648343D01*
X644448Y612099D02*
X648270D01*
X643504Y774549D02*
X648217D01*
X643338Y771849D02*
X648089D01*
X626014Y788049D02*
X647919D01*
X624149Y789849D02*
X647912D01*
X642149Y654399D02*
X647811D01*
X645621Y742149D02*
X647776D01*
X643339Y774099D02*
X647746D01*
X624935Y788499D02*
X647713D01*
X624149Y789399D02*
X647710D01*
X643076Y772299D02*
X647687D01*
X624149Y788949D02*
X647649D01*
X645750Y738999D02*
X647647D01*
X643010Y773649D02*
X647525D01*
X642149Y653949D02*
X647502D01*
X642497Y772749D02*
X647499D01*
X642149Y652599D02*
X647484D01*
X642338Y773199D02*
X647449D01*
X642149Y653499D02*
X647367D01*
X642149Y653049D02*
X647361D01*
X615548Y606699D02*
X647327D01*
X644369Y611649D02*
X647261D01*
X612543Y609399D02*
X647130D01*
X612523Y608949D02*
X647082D01*
X646387Y741699D02*
X647011D01*
X646424Y739449D02*
X646973D01*
X615481Y607149D02*
X646958D01*
X644144Y611199D02*
X646926D01*
X612450Y609849D02*
X646864D01*
X613835Y608499D02*
X646841D01*
X615289Y607599D02*
X646787D01*
X643664Y610749D02*
X646775D01*
X633801Y610299D02*
X646756D01*
X614914Y608049D02*
X646751D01*
X624149Y766899D02*
X645102D01*
X624149Y766449D02*
X644582D01*
X624149Y790299D02*
X644372D01*
X624149Y765999D02*
X644341D01*
X624149Y765099D02*
X644287D01*
X624149Y765549D02*
X644251D01*
X624149Y793449D02*
X644109D01*
X624149Y790749D02*
X643795D01*
X624149Y792999D02*
X643672D01*
X624149Y791199D02*
X643510D01*
X624149Y792549D02*
X643447D01*
X639801Y806499D02*
X643386D01*
X624149Y764649D02*
X643376D01*
X624149Y791649D02*
X643374D01*
X624149Y792099D02*
X643354D01*
X642205Y660699D02*
X642870D01*
X624149Y764199D02*
X642611D01*
X624149Y763749D02*
X642302D01*
X624149Y763299D02*
X642167D01*
X624149Y762849D02*
X642161D01*
X641535Y762399D02*
X642134D01*
X634282Y610749D02*
X641933D01*
X640999Y643149D02*
X641917D01*
X640999Y645399D02*
X641857D01*
X640999Y640449D02*
X641789D01*
X633736Y613449D02*
X641776D01*
X624149Y776799D02*
X641562D01*
X634529Y611199D02*
X641453D01*
X641052Y642699D02*
X641446D01*
X641091Y645849D02*
X641406D01*
X634252Y612999D02*
X641381D01*
X641194Y640899D02*
X641304D01*
X624151Y762399D02*
X641262D01*
X634637Y611649D02*
X641228D01*
X634513Y612549D02*
X641197D01*
X624149Y798399D02*
X641152D01*
X634632Y612099D02*
X641150D01*
X624158Y773199D02*
X641107D01*
X624149Y772749D02*
X641100D01*
X624149Y837999D02*
X641085D01*
X624149Y837549D02*
X641085D01*
X624149Y837099D02*
X641085D01*
X624149Y836649D02*
X641085D01*
X624149Y836199D02*
X641085D01*
X624149Y835749D02*
X641085D01*
X624149Y835299D02*
X641085D01*
X624149Y825849D02*
X641085D01*
X624149Y825399D02*
X641085D01*
X624149Y824949D02*
X641085D01*
X624149Y824499D02*
X641085D01*
X624149Y824049D02*
X641085D01*
X624149Y823599D02*
X641085D01*
X624149Y823149D02*
X641085D01*
X624149Y822699D02*
X641085D01*
X624149Y822249D02*
X641085D01*
X624149Y821799D02*
X641085D01*
X640554Y834849D02*
X641038D01*
X624149Y821349D02*
X640963D01*
X624149Y815499D02*
X640935D01*
X624149Y795249D02*
X640923D01*
X624149Y815949D02*
X640845D01*
X624180Y758799D02*
X640813D01*
X624149Y770049D02*
X640671D01*
X624149Y797949D02*
X640586D01*
X624149Y772299D02*
X640522D01*
X624297Y776349D02*
X640483D01*
X624149Y795699D02*
X640479D01*
X624149Y820899D02*
X640469D01*
X624149Y816399D02*
X640389D01*
X624726Y773649D02*
X640387D01*
X624149Y770499D02*
X640331D01*
X624149Y797499D02*
X640305D01*
X624149Y771849D02*
X640260D01*
X624149Y796149D02*
X640250D01*
X624980Y761949D02*
X640183D01*
X624149Y770949D02*
X640177D01*
X624149Y797049D02*
X640172D01*
X631616Y626499D02*
X640162D01*
X624149Y796599D02*
X640155D01*
X624149Y771399D02*
X640155D01*
X624149Y820449D02*
X640126D01*
X612955Y627849D02*
X640116D01*
X624876Y775899D02*
X640108D01*
X625108Y759249D02*
X640087D01*
X624149Y816849D02*
X640069D01*
X625066Y774099D02*
X640058D01*
X637224Y633249D02*
X639993D01*
X621277Y630999D02*
X639919D01*
X625138Y775449D02*
X639916D01*
X625220Y774549D02*
X639893D01*
X624149Y819999D02*
X639883D01*
X625242Y774999D02*
X639849D01*
X624149Y817299D02*
X639844D01*
X625451Y761499D02*
X639808D01*
X625510Y759699D02*
X639758D01*
X624149Y819549D02*
X639719D01*
X613413Y622899D02*
X639713D01*
X624149Y817749D02*
X639694D01*
X622515Y711099D02*
X639649D01*
X622072Y710649D02*
X639649D01*
X601750Y710199D02*
X639649D01*
X601750Y709749D02*
X639649D01*
X601750Y709299D02*
X639649D01*
X610781Y708849D02*
X639649D01*
X621929Y708399D02*
X639649D01*
X622446Y707949D02*
X639649D01*
X622708Y707499D02*
X639649D01*
X622828Y707049D02*
X639649D01*
X622833Y706599D02*
X639649D01*
X622726Y706149D02*
X639649D01*
X622480Y705699D02*
X639649D01*
X622000Y705249D02*
X639649D01*
X613840Y704799D02*
X639649D01*
X613780Y704349D02*
X639649D01*
X635616Y703899D02*
X639649D01*
X636616Y702099D02*
X639649D01*
X636471Y701649D02*
X639649D01*
X636148Y701199D02*
X639649D01*
X635280Y700749D02*
X639649D01*
X624149Y819099D02*
X639622D01*
X625673Y761049D02*
X639616D01*
X624149Y818199D02*
X639610D01*
X625698Y760149D02*
X639593D01*
X624149Y818649D02*
X639586D01*
X625748Y760599D02*
X639549D01*
X636240Y703449D02*
X639525D01*
X636629Y702549D02*
X639499D01*
X601750Y700299D02*
X639482D01*
X636515Y702999D02*
X639449D01*
X612457Y628299D02*
X639320D01*
X622743Y711549D02*
X639319D01*
X601750Y630549D02*
X639264D01*
X637513Y633699D02*
X639139D01*
X632090Y626049D02*
X639083D01*
X601750Y699849D02*
X639032D01*
X611713Y628749D02*
X639007D01*
X631519Y623349D02*
X638987D01*
X601750Y630099D02*
X638980D01*
X636147Y811449D02*
X638878D01*
X622838Y711999D02*
X638869D01*
X601750Y629199D02*
X638868D01*
X601750Y629649D02*
X638860D01*
X637636Y634149D02*
X638758D01*
X624149Y815049D02*
X638731D01*
X632333Y625599D02*
X638708D01*
X632044Y623799D02*
X638658D01*
X624149Y798849D02*
X638593D01*
X601750Y699399D02*
X638582D01*
X638376Y802449D02*
X638551D01*
X632438Y625149D02*
X638516D01*
X632309Y624249D02*
X638493D01*
X624149Y811899D02*
X638455D01*
X636969Y810999D02*
X638449D01*
X632431Y624699D02*
X638449D01*
X622821Y712449D02*
X638419D01*
X637630Y634599D02*
X638308D01*
X624149Y814599D02*
X638270D01*
X601750Y698949D02*
X638132D01*
X624149Y812349D02*
X638112D01*
X637318Y810549D02*
X638033D01*
X624149Y834849D02*
X638028D01*
X624149Y814149D02*
X638009D01*
X622688Y712899D02*
X637969D01*
X624149Y812799D02*
X637925D01*
X624149Y813699D02*
X637878D01*
X624149Y813249D02*
X637851D01*
X624149Y826299D02*
X637778D01*
X624149Y799299D02*
X637739D01*
X611768Y698499D02*
X637682D01*
X622406Y713349D02*
X637519D01*
X613469Y646749D02*
X637399D01*
X613652Y646299D02*
X637399D01*
X613772Y645849D02*
X637399D01*
X613837Y645399D02*
X637399D01*
X613848Y644949D02*
X637399D01*
X613806Y644499D02*
X637399D01*
X613710Y644049D02*
X637399D01*
X613554Y643599D02*
X637399D01*
X613331Y643149D02*
X637399D01*
X613026Y642699D02*
X637399D01*
X612610Y642249D02*
X637399D01*
X612016Y641799D02*
X637399D01*
X610954Y641349D02*
X637399D01*
X601750Y640899D02*
X637399D01*
X624149Y799749D02*
X637385D01*
X624149Y801549D02*
X637375D01*
X601750Y640449D02*
X637300D01*
X624149Y834399D02*
X637278D01*
X612450Y698049D02*
X637232D01*
X624149Y800199D02*
X637205D01*
X624149Y801099D02*
X637203D01*
X613214Y647199D02*
X637199D01*
X624149Y800649D02*
X637149D01*
X624149Y826749D02*
X637137D01*
X621839Y713799D02*
X637069D01*
X624149Y833949D02*
X636820D01*
X612911Y697599D02*
X636782D01*
X624149Y827199D02*
X636725D01*
X613759Y714249D02*
X636619D01*
X624149Y833499D02*
X636506D01*
X624149Y827649D02*
X636441D01*
X624149Y805599D02*
X636423D01*
X613246Y697149D02*
X636332D01*
X624149Y833049D02*
X636291D01*
X624149Y806049D02*
X636285D01*
X624149Y828099D02*
X636248D01*
X613831Y714699D02*
X636169D01*
X624149Y832599D02*
X636155D01*
X624149Y828549D02*
X636130D01*
X624149Y806499D02*
X636105D01*
X624149Y807399D02*
X636103D01*
X624149Y832149D02*
X636086D01*
X624149Y828999D02*
X636079D01*
X624149Y831699D02*
X636076D01*
X624149Y831249D02*
X636076D01*
X624149Y830799D02*
X636076D01*
X624149Y830349D02*
X636076D01*
X624149Y829899D02*
X636076D01*
X624149Y829449D02*
X636076D01*
X624149Y806949D02*
X636049D01*
X601750Y639999D02*
X636028D01*
X613493Y696699D02*
X635882D01*
X624149Y801999D02*
X635772D01*
X613849Y715149D02*
X635719D01*
X601750Y639549D02*
X635661D01*
X627076Y780399D02*
X635582D01*
X624149Y805149D02*
X635509D01*
X610492Y639099D02*
X635492D01*
X627613Y632799D02*
X635447D01*
X611913Y638649D02*
X635443D01*
X613668Y696249D02*
X635432D01*
X624149Y807849D02*
X635293D01*
X624149Y783999D02*
X635285D01*
X613815Y715599D02*
X635269D01*
X624149Y811449D02*
X635251D01*
X624149Y802449D02*
X635195D01*
X624149Y804699D02*
X635072D01*
X613782Y695799D02*
X634982D01*
X624149Y802899D02*
X634910D01*
X624149Y804249D02*
X634847D01*
X613726Y716049D02*
X634819D01*
X612582Y638199D02*
X634816D01*
X614028Y635499D02*
X634793D01*
X624149Y803349D02*
X634774D01*
X627736Y633249D02*
X634773D01*
X624149Y803799D02*
X634754D01*
X630708Y700749D02*
X634697D01*
X626497Y780849D02*
X634604D01*
X613955Y635949D02*
X634590D01*
X624149Y783549D02*
X634533D01*
X613841Y695349D02*
X634532D01*
X626521Y635049D02*
X634502D01*
X627730Y633699D02*
X634484D01*
X613045Y637749D02*
X634453D01*
X624149Y808299D02*
X634439D01*
X624149Y810999D02*
X634428D01*
X621884Y716499D02*
X634369D01*
X627287Y634599D02*
X634367D01*
X627595Y634149D02*
X634361D01*
X613665Y703899D02*
X634361D01*
X613829Y636399D02*
X634345D01*
X613387Y637299D02*
X634285D01*
X613643Y636849D02*
X634252D01*
X624149Y781299D02*
X634235D01*
X624149Y783099D02*
X634198D01*
X613846Y694899D02*
X634192D01*
X624149Y808749D02*
X634085D01*
X624149Y810549D02*
X634079D01*
X624149Y781749D02*
X634047D01*
X624149Y782649D02*
X634030D01*
X613798Y694449D02*
X634020D01*
X624149Y782199D02*
X633983D01*
X630654Y693999D02*
X633970D01*
X631085Y693549D02*
X633970D01*
X631288Y693099D02*
X633970D01*
X631349Y692649D02*
X633970D01*
X631285Y692199D02*
X633970D01*
X631078Y691749D02*
X633970D01*
X630640Y691299D02*
X633970D01*
X601750Y690849D02*
X633970D01*
X601750Y690399D02*
X633970D01*
X601750Y689949D02*
X633970D01*
X601750Y689499D02*
X633970D01*
X630047Y689049D02*
X633970D01*
X630869Y688599D02*
X633970D01*
X631218Y688149D02*
X633970D01*
X631394Y687699D02*
X633970D01*
X631449Y687249D02*
X633970D01*
X631399Y686799D02*
X633970D01*
X631399Y686349D02*
X633970D01*
X631399Y685899D02*
X633970D01*
X631399Y685449D02*
X633970D01*
X631399Y684999D02*
X633970D01*
X631399Y684549D02*
X633970D01*
X631399Y684099D02*
X633970D01*
X622610Y716949D02*
X633919D01*
X624149Y809199D02*
X633905D01*
X624149Y810099D02*
X633903D01*
X624149Y809649D02*
X633849D01*
X631110Y701199D02*
X633829D01*
X631399Y683649D02*
X633740D01*
X630580Y703449D02*
X633738D01*
X631298Y701649D02*
X633506D01*
X622939Y717399D02*
X633469D01*
X631051Y702999D02*
X633462D01*
X631348Y702099D02*
X633362D01*
X631273Y702549D02*
X633348D01*
X631470Y683199D02*
X633290D01*
X623104Y717849D02*
X633059D01*
X623148Y718299D02*
X632700D01*
X613026Y732699D02*
X632649D01*
X612610Y732249D02*
X632649D01*
X612016Y731799D02*
X632649D01*
X610954Y731349D02*
X632649D01*
X601750Y730899D02*
X632649D01*
X601750Y730449D02*
X632649D01*
X601750Y729999D02*
X632649D01*
X619847Y729549D02*
X632649D01*
X620669Y729099D02*
X632649D01*
X621018Y728649D02*
X632649D01*
X621194Y728199D02*
X632649D01*
X621249Y727749D02*
X632649D01*
X621192Y727299D02*
X632649D01*
X621012Y726849D02*
X632649D01*
X620658Y726399D02*
X632649D01*
X619804Y725949D02*
X632649D01*
X613827Y725499D02*
X632649D01*
X613850Y725049D02*
X632649D01*
X613820Y724599D02*
X632649D01*
X613736Y724149D02*
X632649D01*
X613594Y723699D02*
X632649D01*
X622514Y719649D02*
X632649D01*
X622889Y719199D02*
X632649D01*
X623081Y718749D02*
X632649D01*
X613331Y733149D02*
X632641D01*
X632310Y720099D02*
X632487D01*
X632238Y723249D02*
X632454D01*
X613554Y733599D02*
X632241D01*
X615638Y613449D02*
X631861D01*
X612225Y610299D02*
X631796D01*
X613710Y734049D02*
X631791D01*
X615631Y612999D02*
X631345D01*
X613806Y734499D02*
X631341D01*
X611788Y610749D02*
X631315D01*
X615509Y612549D02*
X631084D01*
X601750Y611199D02*
X631068D01*
X615244Y612099D02*
X630965D01*
X614719Y611649D02*
X630960D01*
X613848Y734949D02*
X630891D01*
X613515Y656649D02*
X630649D01*
X613684Y656199D02*
X630649D01*
X613791Y655749D02*
X630649D01*
X613844Y655299D02*
X630649D01*
X613843Y654849D02*
X630649D01*
X613789Y654399D02*
X630649D01*
X613680Y653949D02*
X630649D01*
X613511Y653499D02*
X630649D01*
X613271Y653049D02*
X630649D01*
X612945Y652599D02*
X630649D01*
X612498Y652149D02*
X630649D01*
X611843Y651699D02*
X630649D01*
X610392Y651249D02*
X630649D01*
X601750Y650799D02*
X630649D01*
X601750Y650349D02*
X630649D01*
X601750Y649899D02*
X630649D01*
X601750Y649449D02*
X630649D01*
X601750Y648999D02*
X630649D01*
X611668Y648549D02*
X630649D01*
X612388Y648099D02*
X630649D01*
X612867Y647649D02*
X630649D01*
X624577Y735399D02*
X630441D01*
X613387Y723249D02*
X630361D01*
X613278Y657099D02*
X630308D01*
X621435Y720099D02*
X630296D01*
X625107Y735849D02*
X629991D01*
X612953Y657549D02*
X629858D01*
X613102Y722799D02*
X629845D01*
X601750Y720549D02*
X629815D01*
X613662Y623349D02*
X629679D01*
X612715Y722349D02*
X629584D01*
X613793Y626499D02*
X629581D01*
X601750Y720999D02*
X629568D01*
X625352Y736299D02*
X629541D01*
X612170Y721899D02*
X629465D01*
X611283Y721449D02*
X629460D01*
X612509Y657999D02*
X629408D01*
X601750Y618399D02*
X629272D01*
X613842Y623799D02*
X629153D01*
X601750Y689049D02*
X629151D01*
X613932Y626049D02*
X629107D01*
X625445Y736749D02*
X629091D01*
X611985Y621549D02*
X629009D01*
X611862Y658449D02*
X628958D01*
X613964Y624249D02*
X628888D01*
X614017Y625599D02*
X628865D01*
X613488Y703449D02*
X628817D01*
X614032Y624699D02*
X628766D01*
X614049Y625149D02*
X628759D01*
X610731Y691299D02*
X628757D01*
X613695Y693999D02*
X628743D01*
X601750Y618849D02*
X628695D01*
X601750Y700749D02*
X628689D01*
X625412Y737199D02*
X628641D01*
X610750Y621099D02*
X628572D01*
X610480Y658899D02*
X628508D01*
X601750Y619299D02*
X628410D01*
X601750Y620649D02*
X628347D01*
X613240Y702999D02*
X628346D01*
X611560Y688599D02*
X628328D01*
X611932Y691749D02*
X628319D01*
X613533Y693549D02*
X628312D01*
X601750Y701199D02*
X628287D01*
X601750Y619749D02*
X628274D01*
X601750Y620199D02*
X628254D01*
X625245Y737649D02*
X628191D01*
X612902Y702549D02*
X628125D01*
X612555Y692199D02*
X628113D01*
X613302Y693099D02*
X628110D01*
X601750Y659349D02*
X628105D01*
X611749Y701649D02*
X628099D01*
X612438Y702099D02*
X628049D01*
X612986Y692649D02*
X628049D01*
X612323Y688149D02*
X627979D01*
X601750Y659799D02*
X627886D01*
X612821Y687699D02*
X627803D01*
X601750Y660249D02*
X627802D01*
X613635Y686349D02*
X627799D01*
X613762Y685899D02*
X627799D01*
X613832Y685449D02*
X627799D01*
X613849Y684999D02*
X627799D01*
X613813Y684549D02*
X627799D01*
X613723Y684099D02*
X627799D01*
X613575Y683649D02*
X627799D01*
X613360Y683199D02*
X627799D01*
X613065Y682749D02*
X627799D01*
X612663Y682299D02*
X627799D01*
X612095Y681849D02*
X627799D01*
X611131Y681399D02*
X627799D01*
X601750Y680949D02*
X627799D01*
X601750Y680499D02*
X627799D01*
X601750Y680049D02*
X627799D01*
X601750Y679599D02*
X627799D01*
X601750Y679149D02*
X627799D01*
X611311Y678699D02*
X627799D01*
X612185Y678249D02*
X627799D01*
X612725Y677799D02*
X627799D01*
X613110Y677349D02*
X627799D01*
X613393Y676899D02*
X627799D01*
X613598Y676449D02*
X627799D01*
X613738Y675999D02*
X627799D01*
X613821Y675549D02*
X627799D01*
X613850Y675099D02*
X627799D01*
X613826Y674649D02*
X627799D01*
X613748Y674199D02*
X627799D01*
X613613Y673749D02*
X627799D01*
X613414Y673299D02*
X627799D01*
X613138Y672849D02*
X627799D01*
X612764Y672399D02*
X627799D01*
X612242Y671949D02*
X627799D01*
X611416Y671499D02*
X627799D01*
X601750Y671049D02*
X627799D01*
X601750Y670599D02*
X627799D01*
X601750Y670149D02*
X627799D01*
X601750Y669699D02*
X627799D01*
X601750Y669249D02*
X627799D01*
X610992Y668799D02*
X627799D01*
X612032Y668349D02*
X627799D01*
X612621Y667899D02*
X627799D01*
X613034Y667449D02*
X627799D01*
X613337Y666999D02*
X627799D01*
X613558Y666549D02*
X627799D01*
X613712Y666099D02*
X627799D01*
X613808Y665649D02*
X627799D01*
X613848Y665199D02*
X627799D01*
X613836Y664749D02*
X627799D01*
X613770Y664299D02*
X627799D01*
X626788Y663849D02*
X627799D01*
X627225Y663399D02*
X627799D01*
X627102Y661149D02*
X627799D01*
X626525Y660699D02*
X627799D01*
X613444Y686799D02*
X627799D01*
X613180Y687249D02*
X627749D01*
X624881Y738099D02*
X627741D01*
X627475Y661599D02*
X627623D01*
X618719Y738549D02*
X627291D01*
X619244Y738999D02*
X626841D01*
X619509Y739449D02*
X626391D01*
X619631Y739899D02*
X625941D01*
X614050Y635049D02*
X625676D01*
X622052Y631899D02*
X625547D01*
X624149Y780849D02*
X625100D01*
X614021Y634599D02*
X624911D01*
X622145Y632349D02*
X624873D01*
X601750Y660699D02*
X624872D01*
X624162Y778149D02*
X624671D01*
X624274Y788499D02*
X624662D01*
X613648Y663849D02*
X624609D01*
X613942Y634149D02*
X624602D01*
X622112Y632799D02*
X624584D01*
X624327Y780399D02*
X624470D01*
X621581Y633699D02*
X624467D01*
X621945Y633249D02*
X624461D01*
X601750Y661149D02*
X624295D01*
X613464Y663399D02*
X624172D01*
X611647Y661599D02*
X624010D01*
X613207Y662949D02*
X623947D01*
X612375Y662049D02*
X623874D01*
X612858Y662499D02*
X623854D01*
X613837Y735399D02*
X623021D01*
X612388Y738099D02*
X622716D01*
X613772Y735849D02*
X622490D01*
X612867Y737649D02*
X622353D01*
X613652Y736299D02*
X622245D01*
X613214Y737199D02*
X622185D01*
X613469Y736749D02*
X622152D01*
X601750Y720099D02*
X621162D01*
X613579Y716499D02*
X620713D01*
X613631Y713799D02*
X620150D01*
X601750Y719649D02*
X620083D01*
X611949Y708399D02*
X620061D01*
X613846Y705249D02*
X619989D01*
X613365Y716949D02*
X619987D01*
X601750Y710649D02*
X619917D01*
X601750Y630999D02*
X619721D01*
X601750Y719199D02*
X619708D01*
X613073Y717399D02*
X619658D01*
X613439Y713349D02*
X619583D01*
X612566Y707949D02*
X619543D01*
X611164Y718749D02*
X619516D01*
X613800Y705699D02*
X619509D01*
X612674Y717849D02*
X619493D01*
X601750Y711099D02*
X619474D01*
X612111Y718299D02*
X619449D01*
X613808Y633699D02*
X619416D01*
X613173Y712899D02*
X619302D01*
X612994Y707499D02*
X619281D01*
X613698Y706149D02*
X619264D01*
X611537Y711549D02*
X619246D01*
X611796Y631449D02*
X619190D01*
X612812Y712449D02*
X619168D01*
X613308Y707049D02*
X619161D01*
X613537Y706599D02*
X619156D01*
X612310Y711999D02*
X619151D01*
X613613Y633249D02*
X619053D01*
X613750Y725949D02*
X618993D01*
X601750Y729549D02*
X618951D01*
X612508Y631899D02*
X618945D01*
X613347Y632799D02*
X618885D01*
X612992Y632349D02*
X618852D01*
X613617Y726399D02*
X618139D01*
X601750Y729099D02*
X618128D01*
X613419Y726849D02*
X617785D01*
X611442Y728649D02*
X617779D01*
X613146Y727299D02*
X617605D01*
X612256Y728199D02*
X617603D01*
X612774Y727749D02*
X617549D01*
X611668Y738549D02*
X616879D01*
X601750Y738999D02*
X616353D01*
X601750Y739449D02*
X616088D01*
X601750Y739899D02*
X615966D01*
X612399Y608499D02*
X613562D01*
X601750Y604899D02*
X613113D01*
X601750Y611649D02*
X612879D01*
X601750Y614799D02*
X612781D01*
X601750Y605349D02*
X612387D01*
X601750Y612099D02*
X612353D01*
X601750Y614349D02*
X612307D01*
X601750Y612549D02*
X612088D01*
X601750Y613899D02*
X612065D01*
X601750Y605799D02*
X612058D01*
X601750Y612999D02*
X611966D01*
X601750Y613449D02*
X611959D01*
X611525Y607599D02*
X611939D01*
X601750Y607149D02*
X611916D01*
X601750Y606249D02*
X611893D01*
X601750Y606699D02*
X611849D01*
X601750Y607599D02*
X609872D01*
X601750Y610749D02*
X609609D01*
X601750Y651249D02*
X609608D01*
X601750Y658899D02*
X609520D01*
X601750Y639099D02*
X609508D01*
X601750Y608049D02*
X609295D01*
X601750Y691299D02*
X609269D01*
X601750Y621099D02*
X609250D01*
X601750Y708849D02*
X609219D01*
X601750Y610299D02*
X609172D01*
X601750Y731349D02*
X609046D01*
X601750Y641349D02*
X609046D01*
X601750Y608499D02*
X609010D01*
X601750Y668799D02*
X609008D01*
X601750Y609849D02*
X608947D01*
X601750Y608949D02*
X608874D01*
X601750Y681399D02*
X608869D01*
X601750Y609399D02*
X608854D01*
X601750Y718749D02*
X608836D01*
X601750Y721449D02*
X608717D01*
X601750Y678699D02*
X608689D01*
X601750Y671499D02*
X608584D01*
X601750Y728649D02*
X608558D01*
X601755Y711549D02*
X608463D01*
X601757Y688599D02*
X608440D01*
X601770Y661599D02*
X608353D01*
X601775Y738549D02*
X608332D01*
X601775Y648549D02*
X608332D01*
X601791Y628749D02*
X608287D01*
X601799Y701649D02*
X608251D01*
X601807Y698499D02*
X608232D01*
X601823Y631449D02*
X608204D01*
X601849Y651699D02*
X608157D01*
X601863Y658449D02*
X608138D01*
X601913Y638649D02*
X608087D01*
X601932Y691749D02*
X608068D01*
X601949Y708399D02*
X608051D01*
X601985Y621549D02*
X608015D01*
X602016Y731799D02*
X607984D01*
X602016Y641799D02*
X607984D01*
X602032Y668349D02*
X607968D01*
X602095Y681849D02*
X607905D01*
X602111Y718299D02*
X607889D01*
X602170Y721899D02*
X607830D01*
X602185Y678249D02*
X607815D01*
X602242Y671949D02*
X607758D01*
X602256Y728199D02*
X607744D01*
X602310Y711999D02*
X607690D01*
X602323Y688149D02*
X607677D01*
X602375Y662049D02*
X607625D01*
X602388Y738099D02*
X607612D01*
X602388Y648099D02*
X607612D01*
X602438Y702099D02*
X607562D01*
X602450Y698049D02*
X607550D01*
X602457Y628299D02*
X607543D01*
X602498Y652149D02*
X607502D01*
X602508Y631899D02*
X607492D01*
X602509Y657999D02*
X607491D01*
X602555Y692199D02*
X607445D01*
X602566Y707949D02*
X607434D01*
X602582Y638199D02*
X607418D01*
X602610Y732249D02*
X607390D01*
X602610Y642249D02*
X607390D01*
X602621Y667899D02*
X607379D01*
X602630Y621999D02*
X607370D01*
X602663Y682299D02*
X607337D01*
X602674Y717849D02*
X607326D01*
X602715Y722349D02*
X607285D01*
X602725Y677799D02*
X607275D01*
X602764Y672399D02*
X607236D01*
X602774Y727749D02*
X607226D01*
X602812Y712449D02*
X607188D01*
X602821Y687699D02*
X607179D01*
X602858Y662499D02*
X607142D01*
X602867Y737649D02*
X607133D01*
X602867Y647649D02*
X607133D01*
X602902Y702549D02*
X607098D01*
X602911Y697599D02*
X607089D01*
X602945Y652599D02*
X607055D01*
X602953Y657549D02*
X607047D01*
X602955Y627849D02*
X607045D01*
X602986Y692649D02*
X607014D01*
X602992Y632349D02*
X607008D01*
X602994Y707499D02*
X607006D01*
X603026Y732699D02*
X606974D01*
X603026Y642699D02*
X606974D01*
X603034Y667449D02*
X606966D01*
X603045Y637749D02*
X606955D01*
X603065Y682749D02*
X606935D01*
X603073Y717399D02*
X606927D01*
X603080Y622449D02*
X606920D01*
X603102Y722799D02*
X606898D01*
X603110Y677349D02*
X606890D01*
X603138Y672849D02*
X606862D01*
X603146Y727299D02*
X606854D01*
X603173Y712899D02*
X606827D01*
X603180Y687249D02*
X606820D01*
X603207Y662949D02*
X606793D01*
X603214Y737199D02*
X606786D01*
X603214Y647199D02*
X606786D01*
X603240Y702999D02*
X606760D01*
X603246Y697149D02*
X606754D01*
X603271Y653049D02*
X606729D01*
X603278Y657099D02*
X606722D01*
X603302Y693099D02*
X606698D01*
X603308Y707049D02*
X606692D01*
X603320Y627399D02*
X606680D01*
X603331Y733149D02*
X606669D01*
X603331Y643149D02*
X606669D01*
X603337Y666999D02*
X606663D01*
X603347Y632799D02*
X606653D01*
X603360Y683199D02*
X606640D01*
X603365Y716949D02*
X606635D01*
X603387Y723249D02*
X606613D01*
X603387Y637299D02*
X606613D01*
X603393Y676899D02*
X606607D01*
X603413Y622899D02*
X606587D01*
X603414Y673299D02*
X606586D01*
X603419Y726849D02*
X606581D01*
X603439Y713349D02*
X606561D01*
X603444Y686799D02*
X606556D01*
X603464Y663399D02*
X606536D01*
X603469Y736749D02*
X606531D01*
X603469Y646749D02*
X606531D01*
X603488Y703449D02*
X606512D01*
X603493Y696699D02*
X606507D01*
X603511Y653499D02*
X606489D01*
X603515Y656649D02*
X606485D01*
X603533Y693549D02*
X606467D01*
X603537Y706599D02*
X606463D01*
X603554Y733599D02*
X606446D01*
X603554Y643599D02*
X606446D01*
X603558Y666549D02*
X606442D01*
X603575Y683649D02*
X606425D01*
X603579Y716499D02*
X606421D01*
X603592Y626949D02*
X606408D01*
X603594Y723699D02*
X606406D01*
X603598Y676449D02*
X606402D01*
X603613Y633249D02*
X606387D01*
X603613Y673749D02*
X606387D01*
X603617Y726399D02*
X606383D01*
X603631Y713799D02*
X606369D01*
X603635Y686349D02*
X606365D01*
X603643Y636849D02*
X606357D01*
X603648Y663849D02*
X606352D01*
X603652Y736299D02*
X606348D01*
X603652Y646299D02*
X606348D01*
X603662Y623349D02*
X606338D01*
X603665Y703899D02*
X606335D01*
X603668Y696249D02*
X606332D01*
X603680Y653949D02*
X606320D01*
X603684Y656199D02*
X606316D01*
X603695Y693999D02*
X606305D01*
X603698Y706149D02*
X606302D01*
X603710Y734049D02*
X606290D01*
X603710Y644049D02*
X606290D01*
X603712Y666099D02*
X606288D01*
X603723Y684099D02*
X606277D01*
X603726Y716049D02*
X606274D01*
X603736Y724149D02*
X606264D01*
X603738Y675999D02*
X606262D01*
X603748Y674199D02*
X606252D01*
X603750Y725949D02*
X606250D01*
X603759Y714249D02*
X606241D01*
X603762Y685899D02*
X606238D01*
X603770Y664299D02*
X606230D01*
X603772Y735849D02*
X606228D01*
X603772Y645849D02*
X606228D01*
X603780Y704349D02*
X606220D01*
X603782Y695799D02*
X606218D01*
X603789Y654399D02*
X606211D01*
X603791Y655749D02*
X606209D01*
X603793Y626499D02*
X606207D01*
X603798Y694449D02*
X606202D01*
X603800Y705699D02*
X606200D01*
X603806Y734499D02*
X606194D01*
X603806Y644499D02*
X606194D01*
X603808Y665649D02*
X606192D01*
X603808Y633699D02*
X606192D01*
X603813Y684549D02*
X606187D01*
X603815Y715599D02*
X606185D01*
X603820Y724599D02*
X606180D01*
X603821Y675549D02*
X606179D01*
X603826Y674649D02*
X606174D01*
X603827Y725499D02*
X606173D01*
X603829Y636399D02*
X606171D01*
X603831Y714699D02*
X606169D01*
X603832Y685449D02*
X606168D01*
X603836Y664749D02*
X606164D01*
X603837Y735399D02*
X606163D01*
X603837Y645399D02*
X606163D01*
X603840Y704799D02*
X606160D01*
X603841Y695349D02*
X606159D01*
X603842Y623799D02*
X606158D01*
X603843Y654849D02*
X606157D01*
X603844Y655299D02*
X606156D01*
X603846Y694899D02*
X606154D01*
X603846Y705249D02*
X606154D01*
X603848Y734949D02*
X606152D01*
X603848Y644949D02*
X606152D01*
X603848Y665199D02*
X606152D01*
X603849Y684999D02*
X606151D01*
X603849Y715149D02*
X606151D01*
X603850Y725049D02*
X606150D01*
X603850Y675099D02*
X606150D01*
X603932Y626049D02*
X606068D01*
X603942Y634149D02*
X606058D01*
X603955Y635949D02*
X606045D01*
X603964Y624249D02*
X606036D01*
X604017Y625599D02*
X605983D01*
X604021Y634599D02*
X605979D01*
X604028Y635499D02*
X605972D01*
X604032Y624699D02*
X605968D01*
X604049Y625149D02*
X605951D01*
X604050Y635049D02*
X605950D01*
X680918Y664299D02*
X683849D01*
X680474Y663849D02*
X683849D01*
X677649Y663399D02*
X683849D01*
X677649Y662949D02*
X683849D01*
X677649Y662499D02*
X683849D01*
X677649Y662049D02*
X683849D01*
X677649Y661599D02*
X683849D01*
X677649Y661149D02*
X683849D01*
X677649Y660699D02*
X683849D01*
X677649Y660249D02*
X683849D01*
X677649Y659799D02*
X683849D01*
X677649Y659349D02*
X683849D01*
X677649Y658899D02*
X683849D01*
X677649Y658449D02*
X683849D01*
X677649Y657999D02*
X683849D01*
X677649Y657549D02*
X683849D01*
X677649Y657099D02*
X683849D01*
X677649Y656649D02*
X683849D01*
X677649Y656199D02*
X683849D01*
X677649Y655749D02*
X683849D01*
X677649Y655299D02*
X683849D01*
X677649Y654849D02*
X683849D01*
X680282Y654399D02*
X683849D01*
X680645Y653949D02*
X683849D01*
X680812Y653499D02*
X683849D01*
X680845Y653049D02*
X683849D01*
X680752Y652599D02*
X683849D01*
X680507Y652149D02*
X683849D01*
X679977Y651699D02*
X683849D01*
X677649Y651249D02*
X683849D01*
X677649Y650799D02*
X683849D01*
X677649Y650349D02*
X683849D01*
X677649Y649899D02*
X683849D01*
X677649Y649449D02*
X683849D01*
X677649Y648999D02*
X683849D01*
X677649Y648549D02*
X683849D01*
X677649Y648099D02*
X683849D01*
X677649Y647649D02*
X683847D01*
X681147Y664749D02*
X683736D01*
X677649Y647199D02*
X683476D01*
X681242Y665199D02*
X683286D01*
X677649Y646749D02*
X683026D01*
X681225Y665649D02*
X682836D01*
X677649Y646299D02*
X682576D01*
X681092Y666099D02*
X682386D01*
X677649Y645849D02*
X682126D01*
X680811Y666549D02*
X681936D01*
X677649Y645399D02*
X681676D01*
X680245Y666999D02*
X681486D01*
X677649Y644949D02*
X681226D01*
X675071Y667449D02*
X681036D01*
X677649Y644499D02*
X680776D01*
X674621Y667899D02*
X680586D01*
X677671Y644049D02*
X680326D01*
X674171Y668349D02*
X680136D01*
X678955Y643599D02*
X679876D01*
X673721Y668799D02*
X679686D01*
X673271Y669249D02*
X679236D01*
X672821Y669699D02*
X678786D01*
X675521Y666999D02*
X678552D01*
X677649Y651699D02*
X678421D01*
X672371Y670149D02*
X678336D01*
X677649Y663849D02*
X678323D01*
X677692Y654399D02*
X678116D01*
X675971Y666549D02*
X677986D01*
X671921Y670599D02*
X677886D01*
X676421Y666099D02*
X677705D01*
X676871Y665649D02*
X677572D01*
X671471Y671049D02*
X677436D01*
X671021Y671499D02*
X676986D01*
X670966Y671949D02*
X676536D01*
X671444Y672399D02*
X676134D01*
X671698Y672849D02*
X675966D01*
X673754Y674649D02*
X675949D01*
X673710Y674199D02*
X675949D01*
X673539Y673749D02*
X675949D01*
X673170Y673299D02*
X675949D01*
X675340Y675099D02*
X675947D01*
X666186Y689949D02*
X680960D01*
X666422Y689499D02*
X680960D01*
X666471Y689049D02*
X680960D01*
X666149Y690399D02*
X680955D01*
X680517Y688599D02*
X680899D01*
X666149Y690849D02*
X680567D01*
X666149Y691299D02*
X680154D01*
X666149Y691749D02*
X679972D01*
X668635Y701649D02*
X679950D01*
X668642Y701199D02*
X679950D01*
X668581Y700749D02*
X679950D01*
X668396Y700299D02*
X679950D01*
X668033Y699849D02*
X679950D01*
X672490Y699399D02*
X679950D01*
X673074Y698949D02*
X679950D01*
X673338Y698499D02*
X679950D01*
X673443Y698049D02*
X679950D01*
X673422Y697599D02*
X679950D01*
X673269Y697149D02*
X679950D01*
X672931Y696699D02*
X679950D01*
X666149Y696249D02*
X679950D01*
X679184Y695799D02*
X679950D01*
X666149Y692199D02*
X679950D01*
X679316Y702099D02*
X679949D01*
X675938Y695799D02*
X677776D01*
X676091Y692649D02*
X677318D01*
X676480Y695349D02*
X677126D01*
X676555Y693099D02*
X676911D01*
X666149Y695799D02*
X674158D01*
X666149Y692649D02*
X674005D01*
X666149Y695349D02*
X673616D01*
X666149Y693099D02*
X673545D01*
X666149Y694899D02*
X673345D01*
X666149Y693549D02*
X673308D01*
X666149Y694449D02*
X673218D01*
X666149Y693999D02*
X673207D01*
X667111Y699399D02*
X671110D01*
X666149Y696699D02*
X670669D01*
X666149Y698949D02*
X670526D01*
X666149Y697149D02*
X670331D01*
X666149Y698499D02*
X670262D01*
X666149Y697599D02*
X670178D01*
X666149Y698049D02*
X670157D01*
X666471Y688599D02*
X668380D01*
X666471Y688149D02*
X667926D01*
X666471Y687699D02*
X667476D01*
X666476Y687249D02*
X667026D01*
X643251Y698552D02*
X664649D01*
X642801Y698102D02*
X664649D01*
X658504Y697652D02*
X664649D01*
X659221Y697202D02*
X664649D01*
X659671Y696752D02*
X664649D01*
X660121Y696302D02*
X664649D01*
X660571Y695852D02*
X664649D01*
X661021Y695402D02*
X664649D01*
X661471Y694952D02*
X664649D01*
X661921Y694502D02*
X664649D01*
X662371Y694052D02*
X664649D01*
X662821Y693602D02*
X664649D01*
X663271Y693152D02*
X664649D01*
X663721Y692702D02*
X664649D01*
X643701Y699002D02*
X664635D01*
X664171Y692252D02*
X664615D01*
X660119Y672002D02*
X663978D01*
X660414Y672452D02*
X663808D01*
X639200Y686402D02*
X663771D01*
X638750Y685952D02*
X663771D01*
X638300Y685502D02*
X663771D01*
X647017Y685052D02*
X663771D01*
X647622Y684602D02*
X663771D01*
X657931Y684152D02*
X663771D01*
X658449Y683702D02*
X663771D01*
X658712Y683252D02*
X663771D01*
X658832Y682802D02*
X663771D01*
X658838Y682352D02*
X663771D01*
X658730Y681902D02*
X663771D01*
X658485Y681452D02*
X663771D01*
X658005Y681002D02*
X663771D01*
X653427Y680552D02*
X663771D01*
X653289Y680102D02*
X663771D01*
X653005Y679652D02*
X663771D01*
X652431Y679202D02*
X663771D01*
X637870Y678752D02*
X663771D01*
X637870Y678302D02*
X663771D01*
X637870Y677852D02*
X663771D01*
X637870Y677402D02*
X663771D01*
X637870Y676952D02*
X663771D01*
X637870Y676502D02*
X663771D01*
X637870Y676052D02*
X663771D01*
X637870Y675602D02*
X663771D01*
X659235Y675152D02*
X663771D01*
X660066Y674702D02*
X663771D01*
X660416Y674252D02*
X663771D01*
X660594Y673802D02*
X663771D01*
X660649Y673352D02*
X663771D01*
X660593Y672902D02*
X663771D01*
X639650Y686852D02*
X662827D01*
X640100Y687302D02*
X661982D01*
X640550Y687752D02*
X661629D01*
X641149Y689552D02*
X661626D01*
X641000Y688202D02*
X661450D01*
X641149Y689102D02*
X661449D01*
X641149Y688652D02*
X661394D01*
X644147Y690002D02*
X659585D01*
X653098Y693152D02*
X659159D01*
X644579Y690452D02*
X659057D01*
X652921Y692702D02*
X659005D01*
X644801Y690902D02*
X658790D01*
X652572Y692252D02*
X658764D01*
X653152Y693602D02*
X658720D01*
X644892Y691352D02*
X658667D01*
X651748Y691802D02*
X658659D01*
X637870Y675152D02*
X658362D01*
X653095Y694052D02*
X658270D01*
X652927Y694502D02*
X657820D01*
X637870Y674702D02*
X657531D01*
X637870Y672002D02*
X657479D01*
X637870Y672452D02*
X657183D01*
X637870Y674252D02*
X657181D01*
X637870Y672902D02*
X657005D01*
X637870Y673802D02*
X657004D01*
X637870Y673352D02*
X656949D01*
X654831Y684152D02*
X656066D01*
X654905Y681002D02*
X655992D01*
X647917Y684152D02*
X652966D01*
X648060Y683702D02*
X652448D01*
X648085Y683252D02*
X652185D01*
X647999Y682802D02*
X652042D01*
X644870Y691802D02*
X650856D01*
X637870Y679202D02*
X650766D01*
X647781Y682352D02*
X650513D01*
X637870Y679652D02*
X650192D01*
X647360Y681902D02*
X650074D01*
X644733Y692252D02*
X650032D01*
X637870Y680102D02*
X649908D01*
X641379Y681452D02*
X649848D01*
X640806Y680552D02*
X649773D01*
X641185Y681002D02*
X649755D01*
X644444Y692702D02*
X649683D01*
X647806Y694502D02*
X649677D01*
X647369Y694052D02*
X649509D01*
X643858Y693152D02*
X649506D01*
X641149Y693602D02*
X649452D01*
X642351Y697652D02*
X646601D01*
X644151Y699452D02*
X646330D01*
X644601Y699902D02*
X645814D01*
X645051Y700352D02*
X645534D01*
X637884Y685052D02*
X645461D01*
X641901Y697202D02*
X645452D01*
X641149Y694052D02*
X645191D01*
X641448Y681902D02*
X645118D01*
X641451Y696752D02*
X644876D01*
X637870Y684602D02*
X644856D01*
X641149Y694502D02*
X644754D01*
X641405Y682352D02*
X644697D01*
X641149Y696302D02*
X644591D01*
X637870Y684152D02*
X644561D01*
X641149Y694952D02*
X644528D01*
X641243Y682802D02*
X644479D01*
X641149Y695852D02*
X644455D01*
X641149Y695402D02*
X644436D01*
X640205Y683702D02*
X644418D01*
X640917Y683252D02*
X644393D01*
X641149Y693152D02*
X642236D01*
X641149Y690002D02*
X641947D01*
X641165Y692702D02*
X641650D01*
X637870Y671552D02*
X640649D01*
X637870Y671102D02*
X640649D01*
X637870Y670652D02*
X640649D01*
X637870Y670202D02*
X640649D01*
X637870Y669752D02*
X640649D01*
X637870Y669302D02*
X640649D01*
X637870Y668852D02*
X640649D01*
X637870Y668402D02*
X640649D01*
X637870Y667952D02*
X640649D01*
X637870Y667502D02*
X640649D01*
X637870Y667052D02*
X640649D01*
X637870Y666602D02*
X640649D01*
X637870Y666152D02*
X640649D01*
X637869Y665702D02*
X640649D01*
X637802Y665252D02*
X640649D01*
X637624Y664802D02*
X640649D01*
X637295Y664352D02*
X640649D01*
X636846Y663902D02*
X640649D01*
X636396Y663452D02*
X640649D01*
X635946Y663002D02*
X640649D01*
X635496Y662552D02*
X640649D01*
X635046Y662102D02*
X640649D01*
X634596Y661652D02*
X640649D01*
X634112Y661202D02*
X640649D01*
X632193Y660752D02*
X640649D01*
X632200Y660302D02*
X640649D01*
X632646Y659852D02*
X640649D01*
X633096Y659402D02*
X640649D01*
X633546Y658952D02*
X640649D01*
X633996Y658502D02*
X640649D01*
X634446Y658052D02*
X640649D01*
X634896Y657602D02*
X640649D01*
X635346Y657152D02*
X640649D01*
X635796Y656702D02*
X640649D01*
X636246Y656252D02*
X640649D01*
X636696Y655802D02*
X640649D01*
X637146Y655352D02*
X640649D01*
X637596Y654902D02*
X640649D01*
X638046Y654452D02*
X640649D01*
X638496Y654002D02*
X640649D01*
X638946Y653552D02*
X640649D01*
X639396Y653102D02*
X640649D01*
X639846Y652652D02*
X640649D01*
X637870Y683702D02*
X638992D01*
X637886Y680552D02*
X638392D01*
X637962Y683252D02*
X638278D01*
X625814Y748952D02*
X643649D01*
X625461Y748502D02*
X643649D01*
X624878Y748052D02*
X643649D01*
X641640Y747602D02*
X643649D01*
X642208Y747152D02*
X643649D01*
X642491Y746702D02*
X643649D01*
X642625Y746252D02*
X643649D01*
X642642Y745802D02*
X643649D01*
X642548Y745352D02*
X643649D01*
X642320Y744902D02*
X643649D01*
X641878Y744452D02*
X643649D01*
X628719Y744002D02*
X643649D01*
X629169Y743552D02*
X643649D01*
X629619Y743102D02*
X643649D01*
X630069Y742652D02*
X643649D01*
X635405Y742202D02*
X643649D01*
X636117Y741752D02*
X643649D01*
X635919Y736802D02*
X643649D01*
X636369Y736352D02*
X643649D01*
X636819Y735902D02*
X643649D01*
X637269Y735452D02*
X643649D01*
X637719Y735002D02*
X643649D01*
X638169Y734552D02*
X643649D01*
X638619Y734102D02*
X643649D01*
X639069Y733652D02*
X643649D01*
X639519Y733202D02*
X643649D01*
X639969Y732752D02*
X643649D01*
X640419Y732302D02*
X643649D01*
X640869Y731852D02*
X643649D01*
X641319Y731402D02*
X643649D01*
X641769Y730952D02*
X643649D01*
X642219Y730502D02*
X643649D01*
X642669Y730052D02*
X643649D01*
X643119Y729602D02*
X643638D01*
X636443Y741302D02*
X643506D01*
X636605Y740852D02*
X643373D01*
X642805Y740402D02*
X643299D01*
X629050Y753002D02*
X642986D01*
X620833Y753452D02*
X642644D01*
X620839Y753902D02*
X642433D01*
X620486Y754802D02*
X642382D01*
X620731Y754352D02*
X642351D01*
X629456Y752552D02*
X641764D01*
X636648Y740402D02*
X641592D01*
X625993Y749402D02*
X641352D01*
X629666Y752102D02*
X641133D01*
X635469Y737252D02*
X640992D01*
X628623Y749852D02*
X640944D01*
X636579Y739952D02*
X640880D01*
X629746Y751652D02*
X640829D01*
X629260Y750302D02*
X640733D01*
X629715Y751202D02*
X640682D01*
X629566Y750752D02*
X640651D01*
X635019Y737702D02*
X640612D01*
X636385Y739502D02*
X640554D01*
X634569Y738152D02*
X640418D01*
X636006Y739052D02*
X640392D01*
X634676Y738602D02*
X640349D01*
X625119Y747602D02*
X639958D01*
X628269Y744452D02*
X639719D01*
X625569Y747152D02*
X639389D01*
X627819Y744902D02*
X639277D01*
X626019Y746702D02*
X639106D01*
X627369Y745352D02*
X639049D01*
X626469Y746252D02*
X638973D01*
X626919Y745802D02*
X638955D01*
X630519Y742202D02*
X634192D01*
X630973Y741752D02*
X633476D01*
X626049Y749852D02*
X627174D01*
X620713Y753002D02*
X626747D01*
X626022Y750302D02*
X626537D01*
X620450Y752552D02*
X626341D01*
X620318Y752102D02*
X626132D01*
X625466Y751202D02*
X626082D01*
X624635Y751652D02*
X626051D01*
X621484D02*
X623762D01*
X621923Y751202D02*
X622931D01*
X601750Y838052D02*
X622649D01*
X601750Y837602D02*
X622649D01*
X601750Y837152D02*
X622649D01*
X601750Y836702D02*
X622649D01*
X601750Y836252D02*
X622649D01*
X601750Y835802D02*
X622649D01*
X601750Y835352D02*
X622649D01*
X601750Y834902D02*
X622649D01*
X601750Y834452D02*
X622649D01*
X601750Y834002D02*
X622649D01*
X601750Y833552D02*
X622649D01*
X601750Y833102D02*
X622649D01*
X601750Y832652D02*
X622649D01*
X601750Y832202D02*
X622649D01*
X601750Y831752D02*
X622649D01*
X601750Y831302D02*
X622649D01*
X601750Y830852D02*
X622649D01*
X601750Y830402D02*
X622649D01*
X601750Y829952D02*
X622649D01*
X601750Y829502D02*
X622649D01*
X601750Y829052D02*
X622649D01*
X601750Y828602D02*
X622649D01*
X601750Y828152D02*
X622649D01*
X601750Y827702D02*
X622649D01*
X601750Y827252D02*
X622649D01*
X601750Y826802D02*
X622649D01*
X601750Y826352D02*
X622649D01*
X601750Y825902D02*
X622649D01*
X601750Y825452D02*
X622649D01*
X601750Y825002D02*
X622649D01*
X601750Y824552D02*
X622649D01*
X601750Y824102D02*
X622649D01*
X601750Y823652D02*
X622649D01*
X601750Y823202D02*
X622649D01*
X601750Y822752D02*
X622649D01*
X601750Y822302D02*
X622649D01*
X601750Y821852D02*
X622649D01*
X601750Y821402D02*
X622649D01*
X601750Y820952D02*
X622649D01*
X601750Y820502D02*
X622649D01*
X601750Y820052D02*
X622649D01*
X601750Y819602D02*
X622649D01*
X601750Y819152D02*
X622649D01*
X611810Y818702D02*
X622649D01*
X612517Y818252D02*
X622649D01*
X612998Y817802D02*
X622649D01*
X613352Y817352D02*
X622649D01*
X613617Y816902D02*
X622649D01*
X613810Y816452D02*
X622649D01*
X613943Y816002D02*
X622649D01*
X614022Y815552D02*
X622649D01*
X614050Y815102D02*
X622649D01*
X614027Y814652D02*
X622649D01*
X613954Y814202D02*
X622649D01*
X613826Y813752D02*
X622649D01*
X613639Y813302D02*
X622649D01*
X613383Y812852D02*
X622649D01*
X613039Y812402D02*
X622649D01*
X612574Y811952D02*
X622649D01*
X611899Y811502D02*
X622649D01*
X610430Y811052D02*
X622649D01*
X601750Y810602D02*
X622649D01*
X601750Y810152D02*
X622649D01*
X601750Y809702D02*
X622649D01*
X601750Y809252D02*
X622649D01*
X611595Y808802D02*
X622649D01*
X612386Y808352D02*
X622649D01*
X612904Y807902D02*
X622649D01*
X613282Y807452D02*
X622649D01*
X613564Y807002D02*
X622649D01*
X613773Y806552D02*
X622649D01*
X613919Y806102D02*
X622649D01*
X614009Y805652D02*
X622649D01*
X614048Y805202D02*
X622649D01*
X614037Y804752D02*
X622649D01*
X613975Y804302D02*
X622649D01*
X613860Y803852D02*
X622649D01*
X613686Y803402D02*
X622649D01*
X613446Y802952D02*
X622649D01*
X613124Y802502D02*
X622649D01*
X612691Y802052D02*
X622649D01*
X612077Y801602D02*
X622649D01*
X610990Y801152D02*
X622649D01*
X601750Y800702D02*
X622649D01*
X601750Y800252D02*
X622649D01*
X601750Y799802D02*
X622649D01*
X601750Y799352D02*
X622649D01*
X611337Y798902D02*
X622649D01*
X612242Y798452D02*
X622649D01*
X612803Y798002D02*
X622649D01*
X613207Y797552D02*
X622649D01*
X613509Y797102D02*
X622649D01*
X613732Y796652D02*
X622649D01*
X613891Y796202D02*
X622649D01*
X613994Y795752D02*
X622649D01*
X614044Y795302D02*
X622649D01*
X614044Y794852D02*
X622649D01*
X613993Y794402D02*
X622649D01*
X613890Y793952D02*
X622649D01*
X613730Y793502D02*
X622649D01*
X613506Y793052D02*
X622649D01*
X613204Y792602D02*
X622649D01*
X621831Y789002D02*
X622649D01*
X612084Y788552D02*
X622649D01*
X612695Y788102D02*
X622649D01*
X613128Y787652D02*
X622649D01*
X613449Y787202D02*
X622649D01*
X613688Y786752D02*
X622649D01*
X613861Y786302D02*
X622649D01*
X613976Y785852D02*
X622649D01*
X614037Y785402D02*
X622649D01*
X614048Y784952D02*
X622649D01*
X614009Y784502D02*
X622649D01*
X620835Y784052D02*
X622649D01*
X621666Y783602D02*
X622649D01*
X622016Y783152D02*
X622649D01*
X622014Y781352D02*
X622649D01*
X621661Y780902D02*
X622649D01*
X620817Y780452D02*
X622649D01*
X601750Y780002D02*
X622649D01*
X601750Y779552D02*
X622649D01*
X610468Y779102D02*
X622649D01*
X611907Y778652D02*
X622649D01*
X612579Y778202D02*
X622649D01*
X613043Y777752D02*
X622649D01*
X613385Y777302D02*
X622649D01*
X613641Y776852D02*
X622649D01*
X613349Y772802D02*
X622649D01*
X612994Y772352D02*
X622649D01*
X612512Y771902D02*
X622649D01*
X611802Y771452D02*
X622649D01*
X601750Y771002D02*
X622649D01*
X601750Y770552D02*
X622649D01*
X601750Y770102D02*
X622649D01*
X601750Y769652D02*
X622649D01*
X601750Y769202D02*
X622649D01*
X621331Y768752D02*
X622649D01*
X621849Y768302D02*
X622649D01*
X622112Y767852D02*
X622649D01*
X622130Y766502D02*
X622649D01*
X621885Y766052D02*
X622649D01*
X621405Y765602D02*
X622649D01*
X619117Y765152D02*
X622649D01*
X619443Y764702D02*
X622649D01*
X619605Y764252D02*
X622649D01*
X619648Y763802D02*
X622649D01*
X619579Y763352D02*
X622649D01*
X619385Y762902D02*
X622649D01*
X619006Y762452D02*
X622649D01*
X612633Y762002D02*
X622649D01*
X601750Y759302D02*
X622649D01*
X611472Y758852D02*
X622649D01*
X612315Y758402D02*
X622649D01*
X612855Y757952D02*
X622649D01*
X613245Y757502D02*
X622649D01*
X613537Y757052D02*
X622649D01*
X613753Y756602D02*
X622649D01*
X613905Y756152D02*
X622649D01*
X614002Y755702D02*
X622649D01*
X620008Y755252D02*
X622649D01*
X622084Y792152D02*
X622639D01*
X613614Y773252D02*
X622617D01*
X622155Y750752D02*
X622581D01*
X613828Y776402D02*
X622577D01*
X622234Y781802D02*
X622563D01*
X622239Y782702D02*
X622558D01*
X611990Y761552D02*
X622541D01*
X601750Y759752D02*
X622432D01*
X610765Y761102D02*
X622332D01*
X601750Y760202D02*
X622282D01*
X601750Y760652D02*
X622251D01*
X613809Y773702D02*
X622151D01*
X613955Y775952D02*
X622110D01*
X613942Y774152D02*
X621887D01*
X614028Y775502D02*
X621866D01*
X614022Y774602D02*
X621766D01*
X614050Y775052D02*
X621759D01*
X611007Y789002D02*
X620166D01*
X601750Y780452D02*
X619980D01*
X613918Y784052D02*
X619962D01*
X612799Y792152D02*
X619913D01*
X601750Y789452D02*
X619592D01*
X612236Y791702D02*
X619474D01*
X611707Y768752D02*
X619466D01*
X618405Y765602D02*
X619392D01*
X601750Y789902D02*
X619308D01*
X611325Y791252D02*
X619248D01*
X601750Y790352D02*
X619173D01*
X601750Y790802D02*
X619155D01*
X601750Y780902D02*
X619136D01*
X613771Y783602D02*
X619131D01*
X615478Y751652D02*
X619125D01*
X618178Y748952D02*
X618959D01*
X612453Y768302D02*
X618948D01*
X613931Y766052D02*
X618913D01*
X615928Y751202D02*
X618874D01*
X611585Y781352D02*
X618783D01*
X613562Y783152D02*
X618781D01*
X617728Y749402D02*
X618708D01*
X612952Y767852D02*
X618685D01*
X613792Y766502D02*
X618667D01*
X616378Y750752D02*
X618648D01*
X612380Y781802D02*
X618605D01*
X613279Y782702D02*
X618604D01*
X617278Y749852D02*
X618573D01*
X613318Y767402D02*
X618565D01*
X613591Y766952D02*
X618560D01*
X616828Y750302D02*
X618555D01*
X612900Y782252D02*
X618549D01*
X615028Y752102D02*
X618069D01*
X614046Y755252D02*
X617992D01*
X614578Y752552D02*
X617550D01*
X614041Y754802D02*
X617514D01*
X614128Y753002D02*
X617287D01*
X613984Y754352D02*
X617269D01*
X614016Y765602D02*
X617192D01*
X613748Y753452D02*
X617167D01*
X613875Y753902D02*
X617161D01*
X613876Y746252D02*
X616657D01*
X613082Y762452D02*
X616592D01*
X614049Y765152D02*
X616480D01*
X613711Y746702D02*
X616327D01*
X613415Y762902D02*
X616212D01*
X614032Y764702D02*
X616154D01*
X613663Y763352D02*
X616018D01*
X613965Y764252D02*
X615992D01*
X613843Y763802D02*
X615949D01*
X613479Y747152D02*
X615877D01*
X613168Y747602D02*
X615427D01*
X612750Y748052D02*
X614977D01*
X612165Y748502D02*
X614527D01*
X611185Y748952D02*
X614077D01*
X601750Y749402D02*
X613627D01*
X601750Y749852D02*
X613177D01*
X601750Y750302D02*
X612727D01*
X601750Y750752D02*
X612277D01*
X611171Y751202D02*
X611827D01*
X601750Y811052D02*
X609570D01*
X601750Y779102D02*
X609532D01*
X601750Y761102D02*
X609235D01*
X601750Y801152D02*
X609010D01*
X601750Y789002D02*
X608993D01*
X601750Y751202D02*
X608829D01*
X601750Y748952D02*
X608815D01*
X601750Y791252D02*
X608675D01*
X601750Y798902D02*
X608663D01*
X601752Y758852D02*
X608528D01*
X601763Y781352D02*
X608415D01*
X601764Y808802D02*
X608405D01*
X601789Y768752D02*
X608293D01*
X601826Y771452D02*
X608198D01*
X601830Y818702D02*
X608190D01*
X601899Y811502D02*
X608101D01*
X601907Y778652D02*
X608093D01*
X601990Y761552D02*
X608010D01*
X602077Y801602D02*
X607923D01*
X602084Y788552D02*
X607916D01*
X602158Y751652D02*
X607842D01*
X602165Y748502D02*
X607835D01*
X602236Y791702D02*
X607764D01*
X602242Y798452D02*
X607758D01*
X602315Y758402D02*
X607685D01*
X602380Y781802D02*
X607620D01*
X602386Y808352D02*
X607614D01*
X602453Y768302D02*
X607547D01*
X602512Y771902D02*
X607488D01*
X602517Y818252D02*
X607483D01*
X602574Y811952D02*
X607426D01*
X602579Y778202D02*
X607421D01*
X602633Y762002D02*
X607367D01*
X602691Y802052D02*
X607309D01*
X602695Y788102D02*
X607305D01*
X602746Y752102D02*
X607254D01*
X602750Y748052D02*
X607250D01*
X602799Y792152D02*
X607201D01*
X602803Y798002D02*
X607197D01*
X602807Y741752D02*
X607193D01*
X602850Y742202D02*
X607150D01*
X602855Y757952D02*
X607145D01*
X602900Y782252D02*
X607100D01*
X602904Y807902D02*
X607096D01*
X602952Y767852D02*
X607048D01*
X602994Y772352D02*
X607006D01*
X602998Y817802D02*
X607002D01*
X603039Y812402D02*
X606961D01*
X603043Y777752D02*
X606957D01*
X603082Y762452D02*
X606918D01*
X603124Y802502D02*
X606876D01*
X603128Y787652D02*
X606872D01*
X603165Y752552D02*
X606835D01*
X603168Y747602D02*
X606832D01*
X603204Y792602D02*
X606796D01*
X603207Y797552D02*
X606793D01*
X603242Y742652D02*
X606758D01*
X603245Y757502D02*
X606755D01*
X603279Y782702D02*
X606721D01*
X603282Y807452D02*
X606718D01*
X603318Y767402D02*
X606682D01*
X603349Y772802D02*
X606651D01*
X603352Y817352D02*
X606648D01*
X603383Y812852D02*
X606617D01*
X603385Y777302D02*
X606615D01*
X603415Y762902D02*
X606585D01*
X603446Y802952D02*
X606554D01*
X603449Y787202D02*
X606551D01*
X603477Y753002D02*
X606523D01*
X603479Y747152D02*
X606521D01*
X603506Y793052D02*
X606494D01*
X603509Y797102D02*
X606491D01*
X603535Y743102D02*
X606465D01*
X603537Y757052D02*
X606463D01*
X603562Y783152D02*
X606438D01*
X603564Y807002D02*
X606436D01*
X603591Y766952D02*
X606409D01*
X603614Y773252D02*
X606386D01*
X603617Y816902D02*
X606383D01*
X603639Y813302D02*
X606361D01*
X603641Y776852D02*
X606359D01*
X603663Y763352D02*
X606337D01*
X603686Y803402D02*
X606314D01*
X603688Y786752D02*
X606312D01*
X603709Y753452D02*
X606291D01*
X603711Y746702D02*
X606289D01*
X603730Y793502D02*
X606270D01*
X603732Y796652D02*
X606268D01*
X603751Y743552D02*
X606249D01*
X603753Y756602D02*
X606247D01*
X603771Y783602D02*
X606229D01*
X603773Y806552D02*
X606227D01*
X603792Y766502D02*
X606208D01*
X603809Y773702D02*
X606191D01*
X603810Y816452D02*
X606190D01*
X603826Y813752D02*
X606174D01*
X603828Y776402D02*
X606172D01*
X603843Y763802D02*
X606157D01*
X603860Y803852D02*
X606140D01*
X603861Y786302D02*
X606139D01*
X603875Y753902D02*
X606125D01*
X603876Y746252D02*
X606124D01*
X603890Y793952D02*
X606110D01*
X603891Y796202D02*
X606109D01*
X603904Y744002D02*
X606096D01*
X603905Y756152D02*
X606095D01*
X603918Y784052D02*
X606082D01*
X603919Y806102D02*
X606081D01*
X603931Y766052D02*
X606069D01*
X603942Y774152D02*
X606058D01*
X603943Y816002D02*
X606057D01*
X603954Y814202D02*
X606046D01*
X603955Y775952D02*
X606045D01*
X603965Y764252D02*
X606035D01*
X603975Y804302D02*
X606025D01*
X603976Y785852D02*
X606024D01*
X603984Y754352D02*
X606016D01*
X603985Y745802D02*
X606015D01*
X603993Y794402D02*
X606007D01*
X603994Y795752D02*
X606006D01*
X604001Y744452D02*
X605999D01*
X604002Y755702D02*
X605998D01*
X604009Y784502D02*
X605991D01*
X604009Y805652D02*
X605991D01*
X604016Y765602D02*
X605984D01*
X604022Y774602D02*
X605978D01*
X604022Y815552D02*
X605978D01*
X604027Y814652D02*
X605973D01*
X604028Y775502D02*
X605972D01*
X604032Y764702D02*
X605968D01*
X604037Y804752D02*
X605963D01*
X604037Y785402D02*
X605963D01*
X604041Y754802D02*
X605959D01*
X604041Y745352D02*
X605959D01*
X604044Y794852D02*
X605956D01*
X604044Y795302D02*
X605956D01*
X604046Y744902D02*
X605954D01*
X604046Y755252D02*
X605954D01*
X604048Y784952D02*
X605952D01*
X604048Y805202D02*
X605952D01*
X604049Y765152D02*
X605951D01*
X604050Y775052D02*
X605950D01*
X604050Y815102D02*
X605950D01*
G54D48*
X639199Y650754D02*
Y636254D01*
X640399Y635054*
X639199Y650754D02*
X639599Y650354D01*
X661999*
X664599Y647754*
X670044Y683654D02*
X670457D01*
X672657Y685854*
X678799*
X680799Y679954D02*
X681749Y679004D01*
X681699Y674554D02*
X681749Y674604D01*
Y679004*
X629599Y687254D02*
Y660354D01*
X639199Y650754*
X685399Y688354D02*
X685700Y688655D01*
Y691858*
X687242Y693400*
X691345*
X693899Y695954*
X676850Y813388D02*
X676884Y813354D01*
X714770Y797801D02*
X714169Y797200D01*
X709325Y797801D02*
X709926Y797200D01*
X709325Y792356D02*
X709926Y792957D01*
X714770Y792356D02*
X714169Y792957D01*
X714770Y717801D02*
X714169Y717200D01*
X709325Y717801D02*
X709926Y717200D01*
X709325Y712356D02*
X709926Y712957D01*
X714770Y712356D02*
X714169Y712957D01*
X714770Y657801D02*
X714169Y657200D01*
X709325Y657801D02*
X709926Y657200D01*
X709325Y652356D02*
X709926Y652957D01*
X714770Y652356D02*
X714169Y652957D01*
X714770Y627801D02*
X714169Y627200D01*
X709325Y627801D02*
X709926Y627200D01*
X709325Y622356D02*
X709926Y622957D01*
X714770Y622356D02*
X714169Y622957D01*
X612722Y647801D02*
X612121Y647200D01*
X607278Y647801D02*
X607879Y647200D01*
X607278Y642356D02*
X607879Y642957D01*
X612722Y642356D02*
X612121Y642957D01*
X612722Y697801D02*
X612121Y697200D01*
X607278Y697801D02*
X607879Y697200D01*
X607278Y692356D02*
X607879Y692957D01*
X612722Y692356D02*
X612121Y692957D01*
X612722Y737801D02*
X612121Y737200D01*
X607278Y737801D02*
X607879Y737200D01*
X607278Y732356D02*
X607879Y732957D01*
X612722Y732356D02*
X612121Y732957D01*
X665978Y635658D02*
X666579Y636259D01*
X668294Y635658D02*
X667693Y636259D01*
X668294Y637974D02*
X667693Y637373D01*
X665978Y637974D02*
X666579Y637373D01*
X669521Y635658D02*
X670122Y636259D01*
X669521Y637974D02*
X670122Y637373D01*
X669521Y633249D02*
X670122Y632648D01*
X660026Y633249D02*
X659425Y632648D01*
X657710Y633249D02*
X658311Y632648D01*
X663569Y630934D02*
X662968Y631535D01*
X663569Y633249D02*
X662968Y632648D01*
X661254Y633249D02*
X661855Y632648D01*
X661254Y639201D02*
X661855Y639802D01*
X663569Y639201D02*
X662968Y639802D01*
X663569Y641517D02*
X662968Y640916D01*
X661254Y641517D02*
X661855Y640916D01*
X665978Y630934D02*
X666579Y631535D01*
X668294Y633249D02*
X667693Y632648D01*
X665978Y633249D02*
X666579Y632648D01*
X663569Y629706D02*
X662968Y629105D01*
X661254Y635658D02*
X661855Y636259D01*
X663569Y635658D02*
X662968Y636259D01*
X663569Y637974D02*
X662968Y637373D01*
X661254Y637974D02*
X661855Y637373D01*
X657710Y635658D02*
X658311Y636259D01*
X660026Y635658D02*
X659425Y636259D01*
X660026Y637974D02*
X659425Y637373D01*
X657710Y637974D02*
X658311Y637373D01*
X665978Y629706D02*
X666579Y629105D01*
X665978Y639201D02*
X666579Y639802D01*
X668294Y639201D02*
X667693Y639802D01*
X668294Y641517D02*
X667693Y640916D01*
X665978Y641517D02*
X666579Y640916D01*
X612864Y787943D02*
X612121Y787200D01*
X607136Y787943D02*
X607879Y787200D01*
X607136Y782215D02*
X607879Y782957D01*
X612864Y782215D02*
X612121Y782957D01*
X612864Y817943D02*
X612121Y817200D01*
X607136Y817943D02*
X607879Y817200D01*
X607136Y812215D02*
X607879Y812957D01*
X612864Y812215D02*
X612121Y812957D01*
G54D91*
X662411Y628548D03*
X667136D03*
Y632092D03*
X662411D03*
X670679D03*
X658868D03*
X670679Y636816D03*
X667136D03*
X662411D03*
X658868D03*
X662411Y640359D03*
X667136D03*
G54D120*
X600000Y815079D03*
Y805079D03*
Y795079D03*
Y785079D03*
Y775079D03*
Y765079D03*
Y755079D03*
Y745079D03*
Y735079D03*
Y725079D03*
Y715079D03*
Y705079D03*
Y695079D03*
Y685079D03*
Y675079D03*
Y665079D03*
Y655079D03*
Y645079D03*
Y635079D03*
Y625079D03*
X722047D03*
Y635079D03*
Y645079D03*
Y655079D03*
Y665079D03*
Y675079D03*
Y685079D03*
Y695079D03*
Y705079D03*
Y715079D03*
Y725079D03*
Y735079D03*
Y745079D03*
Y755079D03*
Y765079D03*
Y775079D03*
Y785079D03*
Y795079D03*
Y805079D03*
Y815079D03*
X610000D03*
Y805079D03*
Y795079D03*
Y785079D03*
Y775079D03*
Y765079D03*
Y755079D03*
Y745079D03*
Y735079D03*
Y725079D03*
Y715079D03*
Y705079D03*
Y695079D03*
Y685079D03*
Y675079D03*
Y665079D03*
Y655079D03*
Y645079D03*
Y635079D03*
Y625079D03*
X712047D03*
Y635079D03*
Y645079D03*
Y655079D03*
Y665079D03*
Y675079D03*
Y685079D03*
Y695079D03*
Y705079D03*
Y715079D03*
Y725079D03*
Y735079D03*
Y745079D03*
Y755079D03*
Y765079D03*
Y775079D03*
Y785079D03*
Y795079D03*
Y805079D03*
Y815079D03*
G54D122*
G54D280*
X678031Y811419D03*
X644016D03*
G54D281*
X682756Y830514D03*
X639291D03*
G54D282*
X645197Y813388D03*
X676850D03*
G54D287*
X662199Y602554D03*
X684299Y603854D03*
X691199Y604054D03*
X603899Y607254D03*
X610699Y609254D03*
X613699Y606654D03*
X613799Y613254D03*
X632799Y611854D03*
X640399Y605154D03*
X648399Y607954D03*
Y610454D03*
X642799Y612154D03*
X650899Y610454D03*
Y607954D03*
X679699Y611654D03*
X675199Y613154D03*
X673399Y610154D03*
X679499Y608054D03*
X705399Y611454D03*
Y608454D03*
X702899Y611454D03*
Y608454D03*
X701499Y604554D03*
X604999Y616354D03*
X620199Y622554D03*
X630099Y620054D03*
X626199Y621954D03*
X658299Y621354D03*
X654399Y624454D03*
X668599Y619554D03*
X666199Y619854D03*
X661999Y618454D03*
X673399Y620054D03*
X682299Y623654D03*
X704599Y622554D03*
X620499Y632454D03*
X630599Y624954D03*
X626099Y633454D03*
X635999Y634354D03*
X640299Y624654D03*
X640499Y629454D03*
X638299Y632554D03*
X650699Y633554D03*
X651799Y626154D03*
X650799Y631354D03*
X676999Y625054D03*
X680799Y634254D03*
X682599Y626854D03*
X706799Y627854D03*
X704499D03*
X630199Y643954D03*
X627799Y635654D03*
X637104Y638748D03*
X635899Y636954D03*
X640399Y635054D03*
X642799Y641754D03*
X677999Y642254D03*
X683799Y640554D03*
X705499Y640254D03*
X703199Y642554D03*
X622099Y654054D03*
X629299Y650754D03*
X633299Y650254D03*
X648999Y653254D03*
X642799Y646754D03*
X643000Y653287D03*
X654399Y647454D03*
X659199D03*
X651199Y647254D03*
X662499Y653154D03*
X661499Y647454D03*
X664599Y647754D03*
X673499Y648954D03*
X671899Y647654D03*
X679199Y653154D03*
X679299Y650154D03*
X681999Y652754D03*
X707399Y648854D03*
X705299Y651854D03*
X625699Y662354D03*
X632899Y662854D03*
X642999Y659054D03*
X649899Y661154D03*
X659599Y659154D03*
X651600Y662300D03*
X652199Y659254D03*
X663299Y659754D03*
X665899D03*
X674399Y662554D03*
X673599Y658554D03*
X688499Y658654D03*
X658799Y673354D03*
X651600Y669600D03*
X670099Y673354D03*
X663100Y665200D03*
X663200Y669400D03*
X679399Y665354D03*
X674099Y674054D03*
X686699Y673954D03*
X682799Y665154D03*
X685899Y671954D03*
X692799Y670354D03*
X697499Y670154D03*
X693599Y664854D03*
X690799Y666054D03*
X701899Y670254D03*
X639599Y681954D03*
X632020Y681510D03*
X646239Y683373D03*
X651599Y680854D03*
X653899Y682554D03*
X656999D03*
X658299Y680654D03*
X660499Y680554D03*
X670044Y683654D03*
X673399Y683354D03*
X672099Y674554D03*
X672499Y681154D03*
X679799Y676854D03*
X679399Y674654D03*
X674399Y676454D03*
X683699Y675754D03*
X689699Y680754D03*
X681699Y674554D03*
X694367Y680060D03*
X693799Y675754D03*
X701799Y680854D03*
X629599Y687254D03*
X629699Y692654D03*
X643047Y691489D03*
X651302Y693597D03*
X660499Y691610D03*
X663244Y688654D03*
X670099Y686054D03*
X660799Y688554D03*
Y685353D03*
X675048Y694177D03*
X678480Y694088D03*
X674384Y691800D03*
X675973Y690235D03*
X689699Y688154D03*
X688000Y691400D03*
X691800Y690200D03*
X697099Y686054D03*
X694699D03*
X701999Y691254D03*
X701299Y685254D03*
X629699Y702054D03*
X621636Y702402D03*
X634989Y702373D03*
X635999Y699254D03*
X646280Y695547D03*
X650200Y701200D03*
X647400D03*
X641099Y702954D03*
X666792Y701221D03*
X671800Y697900D03*
X678313Y703653D03*
X671973Y700896D03*
X688300Y695400D03*
X683157Y703765D03*
X683800Y695000D03*
X693899Y695954D03*
X700599Y697054D03*
X691500Y697100D03*
X620995Y706802D03*
Y712153D03*
X632299Y712054D03*
X638099Y712254D03*
X646299Y711554D03*
X655800Y708600D03*
X657500Y710700D03*
X662700Y712700D03*
X665000Y708200D03*
X673078Y706885D03*
X672699Y712254D03*
X671478Y710133D03*
X621299Y718254D03*
X634199Y723054D03*
X639899Y721154D03*
X631299Y721654D03*
X647399Y722054D03*
X642900Y719200D03*
X657599Y723354D03*
X662599Y715254D03*
X662799Y717554D03*
X673399Y716454D03*
X672699Y714554D03*
X683100Y722500D03*
X688042Y722897D03*
X699400Y723400D03*
X693105Y723539D03*
X619399Y727754D03*
X624299Y727054D03*
X630799Y727354D03*
X646099Y730854D03*
X656199Y734054D03*
X652099Y731254D03*
X655999Y729154D03*
X669599Y729254D03*
Y733454D03*
X670300Y725300D03*
X678635Y730446D03*
X673334Y725579D03*
X675700Y725608D03*
X684388Y724690D03*
X685400Y728000D03*
X688000Y729000D03*
X690222Y731288D03*
X701236Y729006D03*
X617799Y740154D03*
X623799Y736854D03*
X626599Y737154D03*
X634799Y740454D03*
X639899Y735654D03*
X642199Y738654D03*
X645199Y740554D03*
X648199D03*
X646799Y742654D03*
X657299Y744154D03*
X662099Y744254D03*
X677688Y735458D03*
X673495Y735195D03*
X701236Y741448D03*
X620399Y750154D03*
X619000Y753700D03*
X627899Y751554D03*
X624199Y749854D03*
X644199Y754454D03*
X645599Y745954D03*
X642499Y750854D03*
X640799Y745954D03*
X645699Y750654D03*
X657899Y754454D03*
X670310Y744650D03*
X661899Y750454D03*
X665899Y754454D03*
Y750454D03*
X661899Y754454D03*
X669899Y750454D03*
Y754454D03*
X661013Y746514D03*
X675399Y748454D03*
X675699Y753254D03*
X687085Y748511D03*
X689199Y752854D03*
X692973Y749501D03*
X695199Y752254D03*
X617799Y763854D03*
X624099Y760554D03*
X634565Y758510D03*
X643799Y763054D03*
X641399Y760554D03*
X657899Y758454D03*
X652499Y764154D03*
X654199Y759354D03*
X651799Y756554D03*
X661899Y762454D03*
Y758454D03*
X669899D03*
X665899D03*
X673499Y760854D03*
X685099Y762754D03*
X689099Y763154D03*
X683099Y755354D03*
X682699Y758154D03*
X694199Y763754D03*
X700599Y762954D03*
X620399Y767154D03*
X626337Y767461D03*
X638095Y770592D03*
X645899Y765454D03*
X649099Y773154D03*
X641799Y771254D03*
X658299Y769354D03*
X665899Y769754D03*
X675399Y764854D03*
X674899Y767754D03*
X684299Y773254D03*
X687099Y766354D03*
X692499Y773454D03*
X698538Y773589D03*
X694689Y772378D03*
X701899Y770854D03*
X620399Y782254D03*
X625799Y779354D03*
X623599Y774854D03*
X635833Y782232D03*
X641699Y774954D03*
X657999Y777254D03*
X668799Y780154D03*
X674902Y779517D03*
X675216Y782270D03*
X680677Y782254D03*
X685099Y778554D03*
X683599Y782254D03*
X692899Y782454D03*
X701399Y783154D03*
X624799Y786654D03*
X620999Y790654D03*
X637299Y785354D03*
X645199Y791954D03*
X649299Y788954D03*
X654199Y788554D03*
X669799Y791354D03*
X668499Y789854D03*
X676799Y792754D03*
X677799Y789154D03*
X672999Y788854D03*
X689999Y786854D03*
X695499D03*
X699899Y793054D03*
X692799Y792854D03*
X697799D03*
X701299Y785454D03*
X702099Y793154D03*
X701299Y787554D03*
X617100Y797200D03*
X620899Y800454D03*
X627599Y800754D03*
X638999Y800654D03*
X636599Y803654D03*
X632999Y796454D03*
X641999Y796754D03*
X648999Y794554D03*
X648899Y799454D03*
X655499Y803254D03*
X658399Y803554D03*
X652599Y803354D03*
X668199D03*
X676799Y801154D03*
X673799Y799454D03*
X671099Y802854D03*
X684899Y804454D03*
X691899Y796254D03*
X693099Y800054D03*
X695699Y802154D03*
X702799Y799954D03*
X619149Y810704D03*
X637899Y806954D03*
X635699Y809654D03*
X639899Y813354D03*
X640099Y809054D03*
X631599Y804554D03*
X653999Y805354D03*
X660522Y812077D03*
X659499Y805754D03*
X658599Y812754D03*
X650699Y812354D03*
Y805554D03*
X666899Y805854D03*
X661499Y805654D03*
X662546Y811992D03*
X672299Y812254D03*
X671399Y806054D03*
X684399Y813354D03*
X684599Y809054D03*
X695699Y812254D03*
X694899Y807754D03*
X703399Y809754D03*
X616649Y820704D03*
X688899Y818454D03*
X697899Y822454D03*
X694899Y818054D03*
X712899Y823454D03*
X615399Y831954D03*
X688899Y826454D03*
X694899D03*
X703899Y825454D03*
X606649Y835704D03*
X696899Y835454D03*
X717899D03*
G74*
X0Y0D02*
M02*
