*
*
G04 PADS VX.2.4 Build Number: 11282995 generated Gerber (RS-274-X) file*
G04 PC Version=2.1*
*
%IN "UP201 MCU BOARD 2V0-250"*%
*
%MOIN*%
*
%FSLAX35Y35*%
*
*
*
*
G04 PC Standard Apertures*
*
*
G04 Thermal Relief Aperture macro.*
%AMTER*
1,1,$1,0,0*
1,0,$1-$2,0,0*
21,0,$3,$4,0,0,45*
21,0,$3,$4,0,0,135*
%
*
*
G04 Annular Aperture macro.*
%AMANN*
1,1,$1,0,0*
1,0,$2,0,0*
%
*
*
G04 Odd Aperture macro.*
%AMODD*
1,1,$1,0,0*
1,0,$1-0.005,0,0*
%
*
*
G04 PC Custom Aperture Macros*
*
*
*
*
*
*
G04 PC Aperture Table*
*
%ADD010C,0.01*%
%ADD024C,0.03*%
%ADD028C,0.02*%
%ADD029C,0.006*%
%ADD030C,0.008*%
%ADD032C,0.005*%
%ADD048C,0.015*%
%ADD091C,0.01575*%
%ADD120C,0.06*%
%ADD122C,0.001*%
%ADD280O,0.03937X0.07874*%
%ADD281O,0.04331X0.07087*%
%ADD282O,0.06299X0.03937*%
%ADD287C,0.016*%
*
*
*
*
G04 PC Circuitry*
G04 Layer Name UP201 MCU BOARD 2V0-250 - circuitry*
%LPD*%
*
*
G04 PC Custom Flashes*
G04 Layer Name UP201 MCU BOARD 2V0-250 - flashes*
%LPD*%
*
*
G04 PC Circuitry*
G04 Layer Name UP201 MCU BOARD 2V0-250 - circuitry*
%LPD*%
*
G54D10*
G01X600000Y840157D02*
X642835D01*
Y820276*
X642903*
X642905D02*
G75*
G03X642902Y816929I108J-1674D01*
G01X642903D02*
X679311D01*
G03Y820276I38J1673*
G01X679213*
Y840157*
X722047*
Y600000*
X600000*
Y840157*
G54D24*
X712047Y635079D02*
X722047D01*
X712047Y645079D02*
X722047D01*
G54D28*
X688499Y658654D02*
X698699D01*
X704499Y664454*
Y798254*
X699699Y655654D02*
X707199Y663154D01*
Y805954*
X699699Y655654D02*
X663099D01*
X659599Y659154*
X704499Y798254D02*
X702799Y799954D01*
X707199Y805954D02*
X703399Y809754D01*
G54D29*
X682210Y685143D02*
X681873Y685479D01*
X681873D02*
X681793D01*
G54D30*
X686930Y670354D02*
X670836D01*
X667244Y673946*
Y690522*
X651500Y706266*
Y715448*
X643894Y723054*
X634199*
X686930Y670354D02*
X689699Y673123D01*
Y680754*
X687920Y669154D02*
X670339D01*
X666044Y673449*
Y690025*
X650200Y705869*
Y715051*
X644097Y721154*
X639899*
X687920Y669154D02*
X691469Y672703D01*
Y681595*
X689299Y683765*
X686344*
X692799Y670354D02*
X690398Y667953D01*
X669843*
X664844Y672952*
Y689528*
X648900Y705472*
X683089Y679554D02*
X684971Y681436D01*
Y682381*
X683089Y679554D02*
X670390D01*
X668444Y681500*
Y691019*
X652900Y706563*
Y716552*
X647399Y722054*
X684971Y682381D02*
X684966Y682387D01*
X682210D02*
X678773D01*
X654200Y706960*
Y717515*
X646615Y725100*
X643124*
X629624Y738600*
X682210Y683765D02*
X679188D01*
X659200Y703753*
Y721752*
X657599Y723354*
X684966Y686521D02*
X683609D01*
X676764Y693366*
Y694724*
X675288Y696200*
X668450*
X660500Y704150D02*
Y716740D01*
X661314Y717554*
X662799*
X668450Y696200D02*
X660500Y704150D01*
X648900Y705472D02*
Y714654D01*
X655800Y708600D02*
Y717612D01*
X646812Y726600*
X643638*
X631200Y739038*
Y792079*
X657500Y710700D02*
Y718154D01*
X648900Y714654D02*
X644354Y719200D01*
X642900*
X657500Y718154D02*
X647500Y728154D01*
X643782*
X632687Y739249*
X629624Y738600D02*
Y767836D01*
X632687Y739249D02*
Y792639D01*
X610000Y765079D02*
X611984D01*
X616969Y770064*
X627396*
X629624Y767836*
X632687Y792639D02*
X620247Y805079D01*
X610000*
X631200Y792079D02*
X628200Y795079D01*
X610000*
X684966Y682387D03*
X686344Y683765D03*
X682210Y682387D03*
X683588D03*
X682210Y681009D03*
X684966Y683765D03*
X683588D03*
X682210D03*
X683588Y685143D03*
X684966Y686521D03*
X682210Y685143D03*
G54D32*
X715897Y625079D02*
G03X715897I-3850J0D01*
G01Y635079D02*
G03X715897I-3850J0D01*
G01Y645079D02*
G03X715897I-3850J0D01*
G01X703149Y604554D02*
G03X703149I-1650J0D01*
G01X706249Y622554D02*
G03X706249I-1650J0D01*
G01X692849Y604054D02*
G03X692849I-1650J0D01*
G01X685449Y640554D02*
G03X685449I-1650J0D01*
G01X679649Y642254D02*
G03X679649I-1650J0D01*
G01X675049Y620054D02*
G03X675049I-1650J0D01*
G01X670249Y619554D02*
G03X670249I-1650J0D01*
G01X663649Y618454D02*
G03X663649I-1650J0D01*
G01X659949Y621354D02*
G03X659949I-1650J0D01*
G01X642049Y605154D02*
G03X642049I-1650J0D01*
G01X642149Y624654D02*
G03X642149I-1850J0D01*
G01X634649Y611854D02*
G03X634649I-1850J0D01*
G01X631949Y620054D02*
G03X631949I-1850J0D01*
G01X632449Y624954D02*
G03X632449I-1850J0D01*
G01X627849Y621954D02*
G03X627849I-1650J0D01*
G01X629449Y635654D02*
G03X629449I-1650J0D01*
G01X631849Y643954D02*
G03X631849I-1650J0D01*
G01X635149Y650254D02*
G03X635149I-1850J0D01*
G01X634549Y662854D02*
G03X634549I-1650J0D01*
G01X637649Y699254D02*
G03X637649I-1650J0D01*
G01X639749Y712254D02*
G03X639749I-1650J0D01*
G01X630949Y650754D02*
G03X630949I-1650J0D01*
G01X633670Y681510D02*
G03X633670I-1650J0D01*
G01X631449Y687254D02*
G03X631449I-1850J0D01*
G01X631349Y692654D02*
G03X631349I-1650J0D01*
G01X633949Y712054D02*
G03X633949I-1650J0D01*
G01X627549Y662354D02*
G03X627549I-1850J0D01*
G01X621849Y622554D02*
G03X621849I-1650J0D01*
G01X623749Y654054D02*
G03X623749I-1650J0D01*
G01X623286Y702402D02*
G03X623286I-1650J0D01*
G01X622845Y706802D02*
G03X622845I-1850J0D01*
G01Y712153D02*
G03X622845I-1850J0D01*
G01X623149Y718254D02*
G03X623149I-1850J0D01*
G01X625949Y727054D02*
G03X625949I-1650J0D01*
G01X621249Y727754D02*
G03X621249I-1850J0D01*
G01X619649Y740154D02*
G03X619649I-1850J0D01*
G01X625749Y760554D02*
G03X625749I-1650J0D01*
G01X615649Y613254D02*
G03X615649I-1850J0D01*
G01X606649Y616354D02*
G03X606649I-1650J0D01*
G01X614050Y625079D02*
G03X614050I-4050J0D01*
G01Y635079D02*
G03X614050I-4050J0D01*
G01X613850Y645079D02*
G03X613850I-3850J0D01*
G01Y655079D02*
G03X613850I-3850J0D01*
G01Y665079D02*
G03X613850I-3850J0D01*
G01Y675079D02*
G03X613850I-3850J0D01*
G01Y685079D02*
G03X613850I-3850J0D01*
G01Y695079D02*
G03X613850I-3850J0D01*
G01Y705079D02*
G03X613850I-3850J0D01*
G01Y715079D02*
G03X613850I-3850J0D01*
G01Y725079D02*
G03X613850I-3850J0D01*
G01Y735079D02*
G03X613850I-3850J0D01*
G01Y745079D02*
G03X613850I-3850J0D01*
G01Y755079D02*
G03X613850I-3850J0D01*
G01X627449Y779354D02*
G03X627449I-1650J0D01*
G01X622049Y782254D02*
G03X622049I-1650J0D01*
G01X613850Y775079D02*
G03X613850I-3850J0D01*
G01X701050Y723400D02*
G03X701050I-1650J0D01*
G01X694755Y723539D02*
G03X694755I-1650J0D01*
G01X685007Y703765D02*
G03X685007I-1850J0D01*
G01X688935Y748511D02*
G03X688935I-1850J0D01*
G01X679963Y703653D02*
G03X679963I-1650J0D01*
G01X671950Y725300D02*
G03X671950I-1650J0D01*
G01X685650Y695000D02*
G03X685650I-1850J0D01*
G01X664950Y665200D02*
G03X664950I-1850J0D01*
G01X660649Y673354D02*
G03X660649I-1850J0D01*
G01X653450Y669600D02*
G03X653450I-1850J0D01*
G01X653449Y680854D02*
G03X653449I-1850J0D01*
G01X653152Y693597D02*
G03X653152I-1850J0D01*
G01X648089Y683373D02*
G03X648089I-1850J0D01*
G01X696049Y763754D02*
G03X696049I-1850J0D01*
G01X694749Y782454D02*
G03X694749I-1850J0D01*
G01X686149Y773254D02*
G03X686149I-1850J0D01*
G01X686949Y778554D02*
G03X686949I-1850J0D01*
G01X675345Y735195D02*
G03X675345I-1850J0D01*
G01X677249Y748454D02*
G03X677249I-1850J0D01*
G01X677549Y753254D02*
G03X677549I-1850J0D01*
G01X675349Y760854D02*
G03X675349I-1850J0D01*
G01X667749Y769754D02*
G03X667749I-1850J0D01*
G01X670649Y780154D02*
G03X670649I-1850J0D01*
G01X658049Y734054D02*
G03X658049I-1850J0D01*
G01X659149Y744154D02*
G03X659149I-1850J0D01*
G01X660149Y769354D02*
G03X660149I-1850J0D01*
G01X659849Y777254D02*
G03X659849I-1850J0D01*
G01X654349Y764154D02*
G03X654349I-1850J0D01*
G01X642649Y745954D02*
G03X642649I-1850J0D01*
G01X650949Y773154D02*
G03X650949I-1850J0D01*
G01X716097Y815079D02*
G03X716097I-4050J0D01*
G01X719749Y835454D02*
G03X719749I-1850J0D01*
G01X714749Y823454D02*
G03X714749I-1850J0D01*
G01X705749Y825454D02*
G03X705749I-1850J0D01*
G01X696749Y807754D02*
G03X696749I-1850J0D01*
G01X697549Y812254D02*
G03X697549I-1850J0D01*
G01X696749Y818054D02*
G03X696749I-1850J0D01*
G01X699749Y822454D02*
G03X699749I-1850J0D01*
G01X696749Y826454D02*
G03X696749I-1850J0D01*
G01X698749Y835454D02*
G03X698749I-1850J0D01*
G01X690749Y818454D02*
G03X690749I-1850J0D01*
G01Y826454D02*
G03X690749I-1850J0D01*
G01X686749Y804454D02*
G03X686749I-1850J0D01*
G01X686449Y809054D02*
G03X686449I-1850J0D01*
G01X686249Y813354D02*
G03X686249I-1850J0D01*
G01X675649Y799454D02*
G03X675649I-1850J0D01*
G01X650849Y794554D02*
G03X650849I-1850J0D01*
G01X650749Y799454D02*
G03X650749I-1850J0D01*
G01X622849Y790654D02*
G03X622849I-1850J0D01*
G01X633449Y804554D02*
G03X633449I-1850J0D01*
G01X620999Y810704D02*
G03X620999I-1850J0D01*
G01X618499Y820704D02*
G03X618499I-1850J0D01*
G01X614050Y815079D02*
G03X614050I-4050J0D01*
G01X617249Y831954D02*
G03X617249I-1850J0D01*
G01X608499Y835704D02*
G03X608499I-1850J0D01*
G01X720297Y651500D02*
G03X720169Y651718I-250J-0D01*
G01X718236Y654535D02*
G03X720169Y651718I3811J544D01*
G01X718236Y654535D02*
G03X717988Y654750I-248J-35D01*
G01X716106*
G03X715859Y654535I0J-250*
G01X708236D02*
G03X715859I3811J544D01*
G01X708236D02*
G03X707988Y654750I-248J-35D01*
G01X701515*
G03X701338Y654677I-0J-250*
G01X701007Y654346*
X699697Y653804D02*
G03X701007Y654346I2J1850D01*
G01X699697Y653804D02*
X683722D01*
G03X683472Y653554I0J-250*
X683495Y653448I250J-0*
G01X681014Y651429D02*
G03X683495Y653448I985J1325D01*
G01X681014Y651429D02*
G03X680659Y651087I-149J-200D01*
G01X680283Y651478D02*
G03X680659Y651087I-984J-1324D01*
G01X680283Y651478D02*
G03X680638Y651820I149J201D01*
G01X680502Y653448D02*
G03X680638Y651820I1497J-694D01*
G01X680502Y653448D02*
G03X680525Y653554I-227J106D01*
X680275Y653804I-250J-0*
G01X664356*
G03X664106Y653554I0J-250*
G01X664106*
G03X664112Y653501I250J-0*
G01X664149Y653154D02*
G03X664112Y653501I-1650J-0D01*
G01X662941Y651564D02*
G03X664149Y653154I-442J1590D01*
G01X662941Y651564D02*
G03X662804Y651179I67J-241D01*
G01X663099Y650254D02*
G03X662804Y651179I-1600J-0D01*
G01X663099Y650254D02*
Y649441D01*
G03X663497Y649240I250J0*
G01X663227Y646512D02*
G03X663497Y649240I1372J1242D01*
G01X663227Y646512D02*
G03X662838Y646491I-186J-167D01*
G01X659849Y647454D02*
G03X662838Y646491I1650J-0D01*
G01X659849Y647454D02*
X659849D01*
X659892Y647830D02*
G03X659849Y647454I1607J-376D01*
G01X659892Y647830D02*
G03X659899Y647887I-243J57D01*
G01Y649487*
G03X659825Y649664I-250J0*
G01X657909Y651580*
G03X657732Y651654I-177J-176*
G01X649432*
G03X649375Y651647I-0J-250*
G01X647753Y654336D02*
G03X649375Y651647I1246J-1082D01*
G01X647753Y654336D02*
G03X647564Y654750I-189J164D01*
G01X644462*
G03X644270Y654340I0J-250*
G01X644650Y653287D02*
G03X644270Y654340I-1650J0D01*
G01X641350Y653287D02*
G03X644650I1650J0D01*
G01X641730Y654340D02*
G03X641350Y653287I1270J-1053D01*
G01X641730Y654340D02*
G03X641538Y654750I-192J160D01*
G01X639774*
Y680055*
G03X639533Y680305I-250J0*
G01Y683602D02*
G03Y680305I66J-1648D01*
G01Y683602D02*
G03X639774Y683852I-9J250D01*
G01Y699250*
X652500*
G03X652750Y699500I0J250*
G01Y699750*
G03X652677Y699927I-250J0*
G01X648017Y704587*
X647650Y705472D02*
G03X648017Y704587I1250J-0D01*
G01X647650Y705472D02*
Y710005D01*
G03X647255Y710209I-250J0*
G01Y712898D02*
G03Y710209I-956J-1344D01*
G01Y712898D02*
G03X647650Y713102I145J204D01*
G01Y714032*
G03X647577Y714209I-250J0*
G01X644044Y717742*
G03X643740Y717780I-176J-177*
G01X641296Y719586D02*
G03X643740Y717780I1604J-386D01*
G01X641296Y719586D02*
G03X641303Y719644I-243J58D01*
G01X641303*
G03X640901Y719843I-250J0*
G01X638286Y721501D02*
G03X640901Y719843I1613J-347D01*
G01X638286Y721501D02*
G03X638291Y721554I-245J53D01*
G01X638291*
G03X638041Y721804I-250J-0*
G01X635365*
G03X635211Y721751I-0J-250*
G01X633484Y721567D02*
G03X635211Y721751I715J1487D01*
G01X633484Y721567D02*
G03X633128Y721379I-109J-226D01*
G01X632221Y723257D02*
G03X633128Y721379I-922J-1603D01*
G01X632221Y723257D02*
G03X632589Y723419I125J217D01*
G01X635211Y724356D02*
G03X632589Y723419I-1012J-1302D01*
G01X635211Y724356D02*
G03X635365Y724304I154J198D01*
G01X641549*
G03X641725Y724731I-0J250*
G01X638779Y727677*
G03X638602Y727750I-177J-177*
G01X632693*
G03X632443Y727500I0J-250*
X632444Y727481I250J0*
G01X632449Y727354D02*
G03X632444Y727481I-1650J-0D01*
G01X632449Y727354D02*
X632449D01*
X630451Y728967D02*
G03X632449Y727354I348J-1613D01*
G01X630451Y728967D02*
G03X630649Y729211I-52J244D01*
G01Y735704*
G03X630575Y735880I-250J-0*
G01X628741Y737715*
X628616Y737860D02*
G03X628741Y737715I1008J740D01*
G01X628616Y737860D02*
G03X628165Y737712I-201J-148D01*
X628176Y737638I250J-0*
G01X625501Y735922D02*
G03X628176Y737638I1098J1232D01*
G01X625501Y735922D02*
G03X625132Y735882I-166J-187D01*
G01X624896Y738086D02*
G03X625132Y735882I-1097J-1232D01*
G01X624896Y738086D02*
G03X625265Y738125I167J186D01*
G01X627966Y738077D02*
G03X625265Y738125I-1367J-923D01*
G01X627966Y738077D02*
G03X628415Y738281I207J140D01*
G01X628374Y738600D02*
G03X628415Y738281I1250J-0D01*
G01X628374Y738600D02*
Y749667D01*
G03X628094Y749915I-250J0*
G01Y753192D02*
G03Y749915I-195J-1638D01*
G01Y753192D02*
G03X628374Y753440I30J248D01*
G01Y766815*
G03X627888Y766900I-250J0*
G01X624993Y768419D02*
G03X627888Y766900I1344J-958D01*
G01X624993Y768419D02*
G03X624790Y768814I-203J145D01*
G01X617590*
G03X617413Y768740I-0J-250*
G01X613923Y765251*
G03X613850Y765074I177J-177*
G01X612657Y767865D02*
G03X613850Y765074I-2657J-2786D01*
G01X612657Y767865D02*
G03X613006Y767869I172J181D01*
G01X616085Y770948*
X616969Y771314D02*
G03X616085Y770948I-0J-1250D01*
G01X616969Y771314D02*
X627396D01*
X628280Y770947D02*
G03X627396Y771314I-884J-883D01*
G01X628280Y770947D02*
X629523Y769704D01*
G03X629950Y769881I177J177*
G01Y784954*
G03X629700Y785204I-250J-0*
G01X626032*
G03X625885Y785156I-0J-250*
G01X623712D02*
G03X625885I1087J1498D01*
G01X623712D02*
G03X623566Y785204I-146J-202D01*
G01X614298*
G03X614048Y784961I0J-250*
G01X605952D02*
G03X614048I4048J118D01*
G01X605952D02*
G03X605702Y785204I-250J-7D01*
G01X604298*
G03X604048Y784961I0J-250*
G01X601884Y781493D02*
G03X604048Y784961I-1884J3586D01*
G01X601884Y781493D02*
G03X601750Y781272I116J-221D01*
G01Y778658*
G03X601878Y778440I250J-0*
G01Y771718D02*
G03Y778440I-1878J3361D01*
G01Y771718D02*
G03X601750Y771500I122J-218D01*
G01Y768658*
G03X601878Y768440I250J-0*
G01Y761718D02*
G03Y768440I-1878J3361D01*
G01Y761718D02*
G03X601750Y761500I122J-218D01*
G01Y758658*
G03X601878Y758440I250J-0*
G01Y751718D02*
G03Y758440I-1878J3361D01*
G01Y751718D02*
G03X601750Y751500I122J-218D01*
G01Y748658*
G03X601878Y748440I250J-0*
G01Y741718D02*
G03Y748440I-1878J3361D01*
G01Y741718D02*
G03X601750Y741500I122J-218D01*
G01Y738658*
G03X601878Y738440I250J-0*
G01Y731718D02*
G03Y738440I-1878J3361D01*
G01Y731718D02*
G03X601750Y731500I122J-218D01*
G01Y728658*
G03X601878Y728440I250J-0*
G01Y721718D02*
G03Y728440I-1878J3361D01*
G01Y721718D02*
G03X601750Y721500I122J-218D01*
G01Y718658*
G03X601878Y718440I250J-0*
G01Y711718D02*
G03Y718440I-1878J3361D01*
G01Y711718D02*
G03X601750Y711500I122J-218D01*
G01Y708658*
G03X601878Y708440I250J-0*
G01Y701718D02*
G03Y708440I-1878J3361D01*
G01Y701718D02*
G03X601750Y701500I122J-218D01*
G01Y698658*
G03X601878Y698440I250J-0*
G01Y691718D02*
G03Y698440I-1878J3361D01*
G01Y691718D02*
G03X601750Y691500I122J-218D01*
G01Y688658*
G03X601878Y688440I250J-0*
G01Y681718D02*
G03Y688440I-1878J3361D01*
G01Y681718D02*
G03X601750Y681500I122J-218D01*
G01Y678658*
G03X601878Y678440I250J-0*
G01Y671718D02*
G03Y678440I-1878J3361D01*
G01Y671718D02*
G03X601750Y671500I122J-218D01*
G01Y668658*
G03X601878Y668440I250J-0*
G01Y661718D02*
G03Y668440I-1878J3361D01*
G01Y661718D02*
G03X601750Y661500I122J-218D01*
G01Y658658*
G03X601878Y658440I250J-0*
G01Y651718D02*
G03Y658440I-1878J3361D01*
G01Y651718D02*
G03X601750Y651500I122J-218D01*
G01Y648658*
G03X601878Y648440I250J-0*
G01Y641718D02*
G03Y648440I-1878J3361D01*
G01Y641718D02*
G03X601750Y641500I122J-218D01*
G01Y638885*
G03X601884Y638664I250J0*
G01Y631493D02*
G03Y638664I-1884J3586D01*
G01Y631493D02*
G03X601750Y631272I116J-221D01*
G01Y628885*
G03X601884Y628664I250J0*
G01Y621493D02*
G03Y628664I-1884J3586D01*
G01Y621493D02*
G03X601750Y621272I116J-221D01*
G01Y607327*
G03X601761Y607254I250J0*
X601750Y607180I239J-74*
G01Y602000*
G03X602000Y601750I250J0*
G01X660381*
G03X660620Y602073I0J250*
G01X660549Y602554D02*
G03X660620Y602073I1650J-0D01*
G01X663849Y602554D02*
G03X660549I-1650J-0D01*
G01X663777Y602073D02*
G03X663849Y602554I-1578J481D01*
G01X663777Y602073D02*
G03X664016Y601750I239J-73D01*
G01X683882*
G03X683937Y602244I-0J250*
G01X684661D02*
G03X683937I-362J1610D01*
G01X684661D02*
G03X684716Y601750I55J-244D01*
G01X720047*
G03X720297Y602000I0J250*
G01Y621500*
G03X720169Y621718I-250J-0*
G01Y628440D02*
G03Y621718I1878J-3361D01*
G01Y628440D02*
G03X720297Y628658I-122J218D01*
G01Y631500*
G03X720169Y631718I-250J-0*
G01Y638440D02*
G03Y631718I1878J-3361D01*
G01Y638440D02*
G03X720297Y638658I-122J218D01*
G01Y641500*
G03X720169Y641718I-250J-0*
G01Y648440D02*
G03Y641718I1878J-3361D01*
G01Y648440D02*
G03X720297Y648658I-122J218D01*
G01Y651500*
X702449Y752500D02*
G03X702199Y752750I-250J0D01*
G01X697083*
G03X696833Y752500I-0J-250*
G01X696833*
G03X696835Y752468I250J-0*
G01X693563D02*
G03X696835I1636J-214D01*
G01X693563D02*
G03X693565Y752500I-248J32D01*
G01X693565*
G03X693315Y752750I-250J0*
G01X691065*
G03X690820Y752547I0J-250*
G01X687577D02*
G03X690820I1622J307D01*
G01X687577D02*
G03X687332Y752750I-245J-47D01*
G01X680500*
G03X680250Y752500I0J-250*
G01Y730809*
G03X680255Y730761I250J0*
G01X680285Y730446D02*
G03X680255Y730761I-1650J0D01*
G01X680285Y730446D02*
X680285D01*
X680255Y730131D02*
G03X680285Y730446I-1620J315D01*
G01X680255Y730131D02*
G03X680250Y730083I245J-48D01*
G01Y727750*
X670330*
G03X670234Y727731I-0J-250*
G01X668964D02*
G03X670234I635J1523D01*
G01X668964D02*
G03X668868Y727750I-96J-231D01*
G01X656934*
G03X656811Y727718I0J-250*
G01X655186D02*
G03X656811I813J1436D01*
G01X655186D02*
G03X655063Y727750I-123J-218D01*
G01X654500*
G03X654250Y727500I0J-250*
G01Y723275*
G03X654323Y723098I250J0*
G01X657523Y719898*
G03X657950Y720075I177J177*
G01Y721131*
G03X657877Y721308I-250J0*
G01X657539Y721645*
G03X657394Y721717I-176J-177*
G01X659236Y723559D02*
G03X657394Y721717I-1637J-205D01*
G01X659236Y723559D02*
G03X659307Y723413I248J31D01*
G01X660084Y722636*
X660450Y721752D02*
G03X660084Y722636I-1250J0D01*
G01X660450Y721752D02*
Y718922D01*
G03X660802Y718694I250J0*
G01X661314Y718804D02*
G03X660802Y718694I-0J-1250D01*
G01X661314Y718804D02*
X661632D01*
G03X661786Y718856I0J250*
G01X664017Y716442D02*
G03X661786Y718856I-1218J1112D01*
G01X664017Y716442D02*
G03X663991Y716139I185J-169D01*
G01X663863Y714193D02*
G03X663991Y716139I-1264J1061D01*
G01X663863Y714193D02*
G03X663876Y713857I191J-160D01*
G01X662092Y711166D02*
G03X663876Y713857I608J1534D01*
G01X662092Y711166D02*
G03X661750Y710934I-92J-232D01*
G01Y704771*
G03X661823Y704594I250J0*
G01X664803Y701615*
G03X665218Y701716I177J176*
G01X667491Y699726D02*
G03X665218Y701716I-699J1495D01*
G01X667491Y699726D02*
G03X667597Y699250I106J-226D01*
G01X670684*
G03X670854Y699684I0J250*
G01X673092D02*
G03X670854I-1119J1212D01*
G01X673092D02*
G03X673262Y699250I170J-184D01*
G01X702199*
G03X702449Y699500I-0J250*
G01Y727368*
G03X702072Y727583I-250J-0*
G01Y730429D02*
G03Y727583I-836J-1423D01*
G01Y730429D02*
G03X702449Y730644I127J215D01*
G01Y752500*
Y695694D02*
G03X702008Y695855I-250J-0D01*
G01X698791Y697447D02*
G03X702008Y695855I1808J-393D01*
G01X698791Y697447D02*
G03X698797Y697500I-244J53D01*
G01X698797*
G03X698547Y697750I-250J0*
G01X693562*
G03X693316Y697452I-0J-250*
G01X693350Y697100D02*
G03X693316Y697452I-1850J0D01*
G01X693350Y697100D02*
X693350D01*
X690529Y695525D02*
G03X693350Y697100I971J1575D01*
G01X690529Y695525D02*
G03X690148Y695323I-131J-213D01*
G01X688715Y693597D02*
G03X690148Y695323I-415J1803D01*
G01X688715Y693597D02*
G03X688521Y693353I56J-244D01*
X688679Y693121I250J0*
G01X689550Y690389D02*
G03X688679Y693121I-1550J1011D01*
G01X689550Y690389D02*
G03X689752Y690003I209J-136D01*
G01X688149Y689164D02*
G03X689752Y690003I1550J-1010D01*
G01X688149Y689164D02*
G03X687947Y689551I-209J137D01*
G01X687585Y693203D02*
G03X687947Y689551I415J-1803D01*
G01X687585Y693203D02*
G03X687779Y693447I-56J244D01*
X687621Y693679I-250J-0*
G01X688292Y697250D02*
G03X687621Y693679I8J-1850D01*
G01X688292Y697250D02*
G03X688300I-1J250D01*
X688308I9J250*
G01X689271Y696975D02*
G03X688308Y697250I-971J-1575D01*
G01X689271Y696975D02*
G03X689652Y697177I131J213D01*
G01X689684Y697452D02*
G03X689652Y697177I1816J-352D01*
G01X689684Y697452D02*
G03X689438Y697750I-246J48D01*
G01X688309*
G03X688300I0J-250*
X688291I-9J-250*
G01X676383*
G03X676133Y697500I0J-250*
X676222Y697309I250J0*
G01X676313Y697225D02*
G03X676222Y697309I-1025J-1025D01*
G01X676313Y697225D02*
X677636Y695902D01*
G03X677892Y695842I177J177*
G01X679773Y692765D02*
G03X677892Y695842I-1293J1323D01*
G01X679773Y692765D02*
G03X679771Y692409I175J-179D01*
G01X684137Y688044*
G03X684314Y687971I177J177*
G01X684966*
X686102Y685620D02*
G03X684966Y687971I-1136J901D01*
G01X686102Y685620D02*
G03X686304Y685214I195J-156D01*
G01X686344Y685215D02*
G03X686304Y685214I-1J-1450D01*
G01X686344Y685215D02*
X689299D01*
X690325Y684790D02*
G03X689299Y685215I-1026J-1025D01*
G01X690325Y684790D02*
X692494Y682620D01*
X692911Y681751D02*
G03X692494Y682620I-1442J-156D01*
G01X692911Y681751D02*
G03X693303Y681573I248J27D01*
G01X693312Y678540D02*
G03X693303Y681573I1055J1520D01*
G01X693312Y678540D02*
G03X692919Y678335I-143J-205D01*
G01Y672703*
X692899Y672466D02*
G03X692919Y672703I-1430J237D01*
G01X692899Y672466D02*
G03X693105Y672178I247J-41D01*
G01X694649Y670354D02*
G03X693105Y672178I-1850J-0D01*
G01X693090Y668527D02*
G03X694649Y670354I-291J1827D01*
G01X693090Y668527D02*
G03X692952Y668457I39J-247D01*
G01X692158Y667662*
G03X692152Y667315I177J-176*
G01X692534Y666696D02*
G03X692152Y667315I-1735J-642D01*
G01X692534Y666696D02*
G03X692867Y666553I234J87D01*
G01X691864Y664212D02*
G03X692867Y666553I1735J642D01*
G01X691864Y664212D02*
G03X691530Y664355I-235J-87D01*
G01X688949Y666054D02*
G03X691530Y664355I1850J-0D01*
G01X688949Y666054D02*
X688949D01*
X688957Y666229D02*
G03X688949Y666054I1842J-175D01*
G01X688957Y666229D02*
G03X688708Y666503I-249J24D01*
G01X684588*
G03X684338Y666253I-0J-250*
X684375Y666122I250J-0*
G01X681222D02*
G03X684375I1577J-968D01*
G01X681222D02*
G03X681259Y666253I-213J131D01*
X681009Y666503I-250J-0*
G01X669843*
X668817Y666928D02*
G03X669843Y666503I1026J1025D01*
G01X668817Y666928D02*
X665280Y670465D01*
G03X664876Y670183I-177J-176*
G01X663983Y671076D02*
G03X664876Y670183I-783J-1676D01*
G01X663983Y671076D02*
G03X664265Y671480I106J227D01*
G01X663819Y671926*
X663394Y672952D02*
G03X663819Y671926I1450J-0D01*
G01X663394Y672952D02*
Y686556D01*
G03X663156Y686806I-250J0*
G01X662477Y686971D02*
G03X663156Y686806I767J1683D01*
G01X662477Y686971D02*
G03X662186Y686578I-104J-228D01*
G01X662649Y685353D02*
G03X662186Y686578I-1850J0D01*
G01X659601Y686763D02*
G03X662649Y685353I1198J-1410D01*
G01X659601Y686763D02*
G03X659689Y686953I-162J190D01*
X659601Y687144I-250J0*
G01X659411Y689777D02*
G03X659601Y687144I1388J-1223D01*
G01X659411Y689777D02*
G03X659473Y689942I-188J165D01*
X659375Y690141I-250J0*
G01X659130Y692854D02*
G03X659375Y690141I1369J-1244D01*
G01X659130Y692854D02*
G03X659122Y693199I-185J169D01*
G01X654644Y697677*
G03X654468Y697750I-176J-177*
G01X647052*
G03X646960Y697268I-0J-250*
G01X645600Y697267D02*
G03X646960I680J-1720D01*
G01X645600Y697268D02*
G03X645508Y697750I-92J232D01*
G01X641524*
G03X641274Y697500I-0J-250*
G01Y692934*
G03X641705Y692762I250J0*
G01Y690216D02*
G03Y692762I1342J1273D01*
G01Y690216D02*
G03X641274Y690044I-181J-172D01*
G01Y682793*
G03X641294Y682693I250J0*
G01Y681214D02*
G03Y682693I-1695J740D01*
G01Y681214D02*
G03X641274Y681114I230J-100D01*
G01Y660549*
G03X641699Y660371I250J-0*
G01Y657737D02*
G03Y660371I1300J1317D01*
G01Y657737D02*
G03X641274Y657559I-175J-178D01*
G01Y656500*
G03X641524Y656250I250J0*
G01X659000*
G03X659176Y656677I-0J250*
G01X658149Y657704*
X661048Y660603D02*
G03X658149Y657704I-1449J-1449D01*
G01X661048Y660603D02*
X661209Y660443D01*
G03X661613Y660517I176J177*
G01X664444Y661207D02*
G03X661613Y660517I-1145J-1453D01*
G01X664444Y661207D02*
G03X664753I155J196D01*
G01X666852Y658168D02*
G03X664753Y661207I-953J1586D01*
G01X666852Y658168D02*
G03X666980Y657704I128J-214D01*
G01X671586*
G03X671836Y657954I0J250*
X671826Y658025I-250J-0*
G01X675372D02*
G03X671826I-1773J529D01*
G01X675372D02*
G03X675361Y657954I239J-71D01*
X675611Y657704I250J-0*
G01X686308*
G03X686546Y658030I-0J250*
G01X688499Y660704D02*
G03X686546Y658030I-0J-2050D01*
G01X688499Y660704D02*
X697746D01*
G03X697923Y660777I-0J250*
G01X702375Y665230*
G03X702449Y665406I-176J176*
G01Y668175*
G03X702163Y668423I-250J0*
G01Y672085D02*
G03Y668423I-264J-1831D01*
G01Y672085D02*
G03X702449Y672332I36J247D01*
G01Y678792*
G03X702151Y679038I-250J0*
G01Y682670D02*
G03Y679038I-352J-1816D01*
G01Y682670D02*
G03X702449Y682915I48J245D01*
G01Y683356*
G03X702091Y683582I-250J0*
G01Y686925D02*
G03Y683582I-792J-1671D01*
G01Y686925D02*
G03X702449Y687151I108J226D01*
G01Y689163*
G03X702175Y689412I-250J0*
G01Y693095D02*
G03Y689412I-176J-1841D01*
G01Y693095D02*
G03X702449Y693344I24J249D01*
G01Y695694*
Y781212D02*
G03X702103Y781443I-250J0D01*
G01X699809Y784100D02*
G03X702103Y781443I1590J-946D01*
G01X699809Y784100D02*
G03X699844Y784227I-215J127D01*
X699797Y784373I-250J0*
G01X699502Y785013D02*
G03X699797Y784373I1797J441D01*
G01X699502Y785013D02*
G03X699259Y785204I-243J-59D01*
G01X696393*
G03X696287Y785180I0J-250*
G01X694711D02*
G03X696287I788J1674D01*
G01X694711D02*
G03X694604Y785204I-107J-226D01*
G01X690893*
G03X690787Y785180I0J-250*
G01X689211D02*
G03X690787I788J1674D01*
G01X689211D02*
G03X689104Y785204I-107J-226D01*
G01X639360*
G03X639115Y785001I0J-250*
G01X637608Y783530D02*
G03X639115Y785001I-309J1824D01*
G01X637608Y783530D02*
G03X637400Y783283I42J-247D01*
X637434Y783158I250J0*
G01X634559Y780890D02*
G03X637434Y783158I1274J1342D01*
G01X634559Y780890D02*
G03X634137Y780709I-172J-181D01*
G01Y760602*
G03X634408Y760353I250J0*
G01Y756666D02*
G03Y760353I157J1844D01*
G01Y756666D02*
G03X634137Y756417I-21J-249D01*
G01Y742513*
G03X634436Y742268I250J-0*
G01X635641Y738807D02*
G03X634436Y742268I-842J1647D01*
G01X635641Y738807D02*
G03X635505Y738584I114J-223D01*
X635579Y738408I250J0*
G01Y738407D02*
X637760Y736226D01*
G03X638170Y736314I177J177*
G01X640272Y737466D02*
G03X638170Y736314I-373J-1812D01*
G01X640272Y737466D02*
G03X640546Y737823I50J245D01*
G01X640349Y738654D02*
G03X640546Y737823I1850J-0D01*
G01X642991Y740325D02*
G03X640349Y738654I-792J-1671D01*
G01X642991Y740325D02*
G03X643349Y740551I108J226D01*
G01Y740554*
X644759Y742351D02*
G03X643349Y740554I440J-1797D01*
G01X644759Y742351D02*
G03X644949Y742594I-60J243D01*
G01X644949*
G03Y742601I-250J-0*
G01Y742654D02*
G03Y742601I1850J-0D01*
G01Y742654D02*
X644949D01*
X645316Y743760D02*
G03X644949Y742654I1483J-1106D01*
G01X645316Y743760D02*
G03X645173Y744153I-200J150D01*
G01X647081Y744847D02*
G03X645173Y744153I-1482J1107D01*
G01X647081Y744847D02*
G03X647224Y744454I200J-150D01*
G01X648649Y742654D02*
G03X647224Y744454I-1850J-0D01*
G01X648649Y742654D02*
X648649D01*
X648646Y742549D02*
G03X648649Y742654I-1847J105D01*
G01X648646Y742549D02*
G03X648645Y742535I249J-14D01*
X648812Y742299I250J-0*
G01X650049Y740554D02*
G03X648812Y742299I-1850J-0D01*
G01X646877Y739259D02*
G03X650049Y740554I1322J1295D01*
G01X646877Y739259D02*
G03X646520I-178J-175D01*
G01X644406Y738882D02*
G03X646520Y739259I793J1672D01*
G01X644406Y738882D02*
G03X644049Y738656I-107J-226D01*
G01Y738654*
X641825Y736842D02*
G03X644049Y738654I374J1812D01*
G01X641825Y736842D02*
G03X641552Y736485I-50J-245D01*
G01X641749Y735654D02*
G03X641552Y736485I-1850J-0D01*
G01X640559Y733925D02*
G03X641749Y735654I-660J1729D01*
G01X640559Y733925D02*
G03X640471Y733515I89J-233D01*
G01X643909Y730077*
X643910D02*
G03X644326Y730325I176J176D01*
G01X644249Y730854D02*
G03X644326Y730325I1850J-0D01*
G01X647700Y729927D02*
G03X644249Y730854I-1601J927D01*
G01X647700Y729927D02*
G03X647666Y729802I216J-125D01*
X647855Y729560I250J0*
G01X648385Y729302D02*
G03X647855Y729560I-885J-1148D01*
G01X648385Y729302D02*
G03X648538Y729250I153J198D01*
G01X653927*
G03X654174Y729459I0J250*
G01X657823D02*
G03X654174I-1824J-305D01*
G01X657823D02*
G03X658070Y729250I247J41D01*
G01X667513*
G03X667761Y729471I0J250*
G01X669590Y731104D02*
G03X667761Y729471I9J-1850D01*
G01X669590Y731104D02*
G03X669599I-1J250D01*
X669607I9J250*
G01X671436Y729471D02*
G03X669607Y731104I-1837J-217D01*
G01X671436Y729471D02*
G03X671684Y729250I248J29D01*
G01X676760*
G03X676983Y729613I0J250*
G01X678516Y732292D02*
G03X676983Y729613I119J-1846D01*
G01X678516Y732292D02*
G03X678750Y732542I-16J250D01*
G01Y733521*
G03X678403Y733752I-250J0*
G01Y737164D02*
G03Y733752I-715J-1706D01*
G01Y737164D02*
G03X678750Y737395I97J231D01*
G01Y754250*
X681180*
G03X681408Y754602I-0J250*
G01X684789D02*
G03X681408I-1690J752D01*
G01X684789D02*
G03X685017Y754250I228J-102D01*
G01X687895*
G03X688050Y754304I-0J250*
G01X690347D02*
G03X688050I-1148J-1450D01*
G01X690347D02*
G03X690502Y754250I155J196D01*
G01X702199*
G03X702449Y754500I-0J250*
G01Y761594*
G03X702008Y761755I-250J-0*
G01Y764152D02*
G03Y761755I-1409J-1198D01*
G01Y764152D02*
G03X702449Y764314I191J162D01*
G01Y768775*
G03X702163Y769023I-250J0*
G01Y772685D02*
G03Y769023I-264J-1831D01*
G01Y772685D02*
G03X702449Y772932I36J247D01*
G01Y781212*
X720297Y838157D02*
G03X720047Y838407I-250J0D01*
G01X681213*
G03X680963Y838157I-0J-250*
G01Y834994*
G03X681324Y834771I250J0*
G01X685971Y831892D02*
G03X681324Y834771I-3215J-0D01*
G01X685971Y831892D02*
Y829136D01*
X681324Y826257D02*
G03X685971Y829136I1432J2879D01*
G01X681324Y826257D02*
G03X680963Y826033I-111J-224D01*
G01Y821768*
G03X681086Y821553I250J0*
G01X680653Y815437D02*
G03X681086Y821553I-1304J3165D01*
G01X680653Y815437D02*
G03X680498Y815205I95J-232D01*
X680540Y815066I250J0*
G01X681050Y813388D02*
G03X680540Y815066I-3019J-0D01*
G01X681050Y813388D02*
Y809451D01*
X675013D02*
G03X681050I3018J-0D01*
G01X675013D02*
Y810247D01*
G03X674832Y810488I-250J0*
G01X673900Y810942D02*
G03X674832Y810488I1769J2446D01*
G01X673900Y810942D02*
G03X673580Y810920I-146J-203D01*
G01X672513Y814091D02*
G03X673580Y810920I-214J-1837D01*
G01X672513Y814091D02*
G03X672782Y814267I29J249D01*
G01X673007Y814811D02*
G03X672782Y814267I2662J-1423D01*
G01X673007Y814811D02*
G03X672787Y815179I-220J118D01*
G01X649260*
G03X649040Y814811I0J-250*
G01X649320Y814064D02*
G03X649040Y814811I-2942J-676D01*
G01X649320Y814064D02*
G03X649698Y813910I243J56D01*
G01X649102Y811419D02*
G03X649698Y813910I1597J935D01*
G01X649102Y811419D02*
G03X648695Y811453I-215J-127D01*
G01X647215Y810488D02*
G03X648695Y811453I-837J2900D01*
G01X647215Y810488D02*
G03X647034Y810247I69J-241D01*
G01Y809451*
X641637Y807592D02*
G03X647034Y809451I2379J1859D01*
G01X641637Y807592D02*
G03X641281Y807631I-197J-154D01*
G01X640670Y810813D02*
G03X641281Y807631I-571J-1759D01*
G01X640670Y810813D02*
G03X640997Y811051I77J238D01*
G01Y811433*
G03X640646Y811661I-250J-0*
G01X641029Y814818D02*
G03X640646Y811661I-1130J-1464D01*
G01X641029Y814818D02*
G03X641399Y814892I153J198D01*
G01X641575Y815164D02*
G03X641399Y814892I2441J-1776D01*
G01X641575Y815164D02*
G03X641623Y815311I-202J147D01*
X641485Y815535I-250J0*
G01X640983Y821363D02*
G03X641485Y815535I2030J-2761D01*
G01X640983Y821363D02*
G03X641085Y821565I-148J202D01*
G01Y826033*
G03X640723Y826257I-250J0*
G01X636076Y829136D02*
G03X640723Y826257I3215J-0D01*
G01X636076Y829136D02*
Y831892D01*
X640723Y834771D02*
G03X636076Y831892I-1432J-2879D01*
G01X640723Y834771D02*
G03X641085Y834994I112J223D01*
G01Y838157*
G03X640835Y838407I-250J0*
G01X602000*
G03X601750Y838157I0J-250*
G01Y818885*
G03X601884Y818664I250J0*
G01Y811493D02*
G03Y818664I-1884J3586D01*
G01Y811493D02*
G03X601750Y811272I116J-221D01*
G01Y808885*
G03X601884Y808664I250J0*
G01Y801493D02*
G03Y808664I-1884J3586D01*
G01Y801493D02*
G03X601750Y801272I116J-221D01*
G01Y798885*
G03X601884Y798664I250J0*
G01Y791493D02*
G03Y798664I-1884J3586D01*
G01Y791493D02*
G03X601750Y791272I116J-221D01*
G01Y788885*
G03X601884Y788664I250J0*
G01X603645Y786845D02*
G03X601884Y788664I-3645J-1766D01*
G01X603645Y786845D02*
G03X603870Y786704I225J109D01*
G01X606130*
G03X606355Y786845I0J250*
G01X613645D02*
G03X606355I-3645J-1766D01*
G01X613645D02*
G03X613870Y786704I225J109D01*
G01X622720*
G03X622968Y786918I0J250*
G01X626630D02*
G03X622968I-1831J-264D01*
G01X626630D02*
G03X626877Y786704I247J36D01*
G01X629500*
G03X629750Y786954I-0J250*
G01Y791375*
G03X629677Y791551I-250J-0*
G01X627673Y793555*
G03X627496Y793629I-177J-176*
G01X613950*
G03X613720Y793478I-0J-250*
G01Y796680D02*
G03Y793478I-3720J-1601D01*
G01Y796680D02*
G03X613950Y796529I230J99D01*
G01X615043*
G03X615288Y796829I-0J250*
G01X618912D02*
G03X615288I-1812J371D01*
G01X618912D02*
G03X619157Y796529I245J-50D01*
G01X626142*
G03X626319Y796956I0J250*
G01X623121Y800154*
G03X622700Y800034I-177J-177*
G01X620479Y802256D02*
G03X622700Y800034I420J-1802D01*
G01X620479Y802256D02*
G03X620599Y802676I-57J243D01*
G01X619719Y803555*
G03X619542Y803629I-177J-176*
G01X613950*
G03X613720Y803478I-0J-250*
G01Y806680D02*
G03Y803478I-3720J-1601D01*
G01Y806680D02*
G03X613950Y806529I230J99D01*
G01X620247*
X621272Y806104D02*
G03X620247Y806529I-1025J-1025D01*
G01X621272Y806104D02*
X625659Y801717D01*
G03X626045Y801758I176J177*
G01X629449Y800754D02*
G03X626045Y801758I-1850J-0D01*
G01X628603Y799200D02*
G03X629449Y800754I-1004J1554D01*
G01X628603Y799200D02*
G03X628562Y798814I136J-210D01*
G01X630751Y796625*
G03X631174Y796760I177J177*
G01X633305Y794629D02*
G03X631174Y796760I-306J1825D01*
G01X633305Y794629D02*
G03X633170Y794206I42J-246D01*
G01X633712Y793664*
X634137Y792639D02*
G03X633712Y793664I-1450J-0D01*
G01X634137Y792639D02*
Y786954D01*
G03X634387Y786704I250J-0*
G01X635938*
G03X636100Y786763I0J250*
G01X638497D02*
G03X636100I-1198J-1409D01*
G01X638497D02*
G03X638659Y786704I162J191D01*
G01X648658*
G03X648734Y787192I0J250*
G01X649863D02*
G03X648734I-564J1762D01*
G01X649863D02*
G03X649939Y786704I76J-238D01*
G01X652838*
G03X653000Y787144I0J250*
G01X655397D02*
G03X653000I-1198J1410D01*
G01X655397D02*
G03X655559Y786704I162J-190D01*
G01X672104*
G03X672354Y786954I0J250*
X672211Y787180I-250J-0*
G01X671149Y788854D02*
G03X672211Y787180I1850J-0D01*
G01X671298Y789583D02*
G03X671149Y788854I1701J-729D01*
G01X671298Y789583D02*
G03X670917Y789880I-230J98D01*
G01X670458Y789625D02*
G03X670917Y789880I-659J1729D01*
G01X670458Y789625D02*
G03X670303Y789447I89J-233D01*
G01X667839Y791582D02*
G03X670303Y789447I660J-1728D01*
G01X667839Y791582D02*
G03X667994Y791761I-89J234D01*
G01X671649Y791354D02*
G03X667994Y791761I-1850J-0D01*
G01X671499Y790625D02*
G03X671649Y791354I-1700J729D01*
G01X671499Y790625D02*
G03X671880Y790327I230J-99D01*
G01X673787Y787180D02*
G03X671880Y790327I-788J1674D01*
G01X673787Y787180D02*
G03X673643Y786954I106J-226D01*
X673893Y786704I250J-0*
G01X687901*
G03X688151Y786942I-0J250*
G01X691847D02*
G03X688151I-1848J-88D01*
G01X691847D02*
G03X692096Y786704I249J12D01*
G01X693401*
G03X693651Y786942I-0J250*
G01X697347D02*
G03X693651I-1848J-88D01*
G01X697347D02*
G03X697596Y786704I249J12D01*
G01X699286*
G03X699536Y786954I0J250*
X699526Y787025I-250J-0*
G01X702091Y789225D02*
G03X699526Y787025I-792J-1671D01*
G01X702091Y789225D02*
G03X702449Y789451I108J226D01*
G01Y791056*
G03X702187Y791306I-250J0*
G01X701201Y791536D02*
G03X702187Y791306I898J1618D01*
G01X701201Y791536D02*
G03X700939Y791524I-121J-219D01*
G01X699125Y791373D02*
G03X700939Y791524I774J1681D01*
G01X699125Y791373D02*
G03X698875Y791349I-104J-227D01*
G01X698572Y794534D02*
G03X698875Y791349I-773J-1680D01*
G01X698572Y794534D02*
G03X698822Y794558I104J227D01*
G01X700796Y794671D02*
G03X698822Y794558I-897J-1617D01*
G01X700796Y794671D02*
G03X701058Y794683I121J219D01*
G01X702187Y795002D02*
G03X701058Y794683I-88J-1848D01*
G01X702187Y795002D02*
G03X702449Y795251I12J249D01*
G01Y797301*
G03X702375Y797478I-250J0*
G01X701349Y798504*
X704248Y801403D02*
G03X701349Y798504I-1449J-1449D01*
G01X704248Y801403D02*
X704722Y800930D01*
G03X705149Y801106I177J176*
G01Y805001*
G03X705075Y805178I-250J0*
G01X701949Y808304*
X704848Y811203D02*
G03X701949Y808304I-1449J-1449D01*
G01X704848Y811203D02*
X708491Y807561D01*
G03X708864Y807583I177J176*
G01X709647Y801817D02*
G03X708864Y807583I2400J3262D01*
G01X709647Y801817D02*
G03X709249Y801615I-148J-202D01*
G01Y798542*
G03X709647Y798341I250J0*
G01Y791817D02*
G03Y798341I2400J3262D01*
G01Y791817D02*
G03X709249Y791615I-148J-202D01*
G01Y788542*
G03X709647Y788341I250J0*
G01X715692Y786845D02*
G03X709647Y788341I-3645J-1766D01*
G01X715692Y786845D02*
G03X715917Y786704I225J109D01*
G01X718178*
G03X718403Y786845I-0J250*
G01X720164Y788664D02*
G03X718403Y786845I1883J-3585D01*
G01X720164Y788664D02*
G03X720297Y788885I-117J221D01*
G01Y791272*
G03X720164Y791493I-250J0*
G01Y798664D02*
G03Y791493I1883J-3585D01*
G01Y798664D02*
G03X720297Y798885I-117J221D01*
G01Y801272*
G03X720164Y801493I-250J0*
G01Y808664D02*
G03Y801493I1883J-3585D01*
G01Y808664D02*
G03X720297Y808885I-117J221D01*
G01Y811272*
G03X720164Y811493I-250J0*
G01Y818664D02*
G03Y811493I1883J-3585D01*
G01Y818664D02*
G03X720297Y818885I-117J221D01*
G01Y838157*
X715897Y625079D02*
G03X715897I-3850J0D01*
G01Y635079D02*
G03X715897I-3850J0D01*
G01Y645079D02*
G03X715897I-3850J0D01*
G01X703149Y604554D02*
G03X703149I-1650J0D01*
G01X706411Y610151D02*
G03Y609756I154J-197D01*
G01X704313Y607211D02*
G03X706411Y609756I1086J1243D01*
G01X704313Y607211D02*
G03X703984I-164J-188D01*
G01X701886Y609756D02*
G03X703984Y607211I1013J-1302D01*
G01X701886Y609756D02*
G03Y610151I-154J198D01*
G01X703984Y612696D02*
G03X701886Y610151I-1085J-1242D01*
G01X703984Y612696D02*
G03X704313I165J189D01*
G01X706411Y610151D02*
G03X704313Y612696I-1012J1303D01*
G01X706249Y622554D02*
G03X706249I-1650J0D01*
G01X703897Y640649D02*
G03X703849Y640254I1602J-395D01*
G01X703897Y640649D02*
G03X703594Y640952I-243J60D01*
G01X704849Y642554D02*
G03X703594Y640952I-1650J-0D01*
G01X704801Y642158D02*
G03X704849Y642554I-1602J396D01*
G01X704801Y642158D02*
G03X705103Y641856I242J-60D01*
G01X703849Y640254D02*
G03X705103Y641856I1650J-0D01*
G01X692849Y604054D02*
G03X692849I-1650J0D01*
G01X680132Y610062D02*
G03X680106Y609588I66J-242D01*
G01X679065Y609646D02*
G03X680106Y609588I434J-1592D01*
G01X679065Y609646D02*
G03X679091Y610119I-66J241D01*
G01X680132Y610062D02*
G03X679091Y610119I-433J1592D01*
G01X683345Y625382D02*
G03X683305Y624961I113J-223D01*
G01X683949Y623654D02*
G03X683305Y624961I-1650J-0D01*
G01X681552Y625125D02*
G03X683949Y623654I747J-1471D01*
G01X681552Y625125D02*
G03X681592Y625546I-113J223D01*
G01X680949Y626854D02*
G03X681592Y625546I1650J-0D01*
G01X683345Y625382D02*
G03X680949Y626854I-746J1472D01*
G01X685449Y640554D02*
G03X685449I-1650J0D01*
G01X679649Y642254D02*
G03X679649I-1650J0D01*
G01X675049Y620054D02*
G03X675049I-1650J0D01*
G01X670249Y619554D02*
G03X670249I-1650J0D01*
G01X669142Y631527D02*
G03X668673I-235J-86D01*
G01X667700Y630555D02*
G03X668673Y631527I-564J1537D01*
G01X667700Y630555D02*
G03Y630085I87J-235D01*
G01X666571D02*
G03X667700I565J-1537D01*
G01X666571D02*
G03Y630555I-86J235D01*
G01X668673Y632656D02*
G03X666571Y630555I-1537J-564D01*
G01X668673Y632656D02*
G03X669142I234J86D01*
G01Y631527D02*
G03Y632656I1537J565D01*
G01Y636251D02*
G03X668673I-235J-86D01*
G01X666571Y638353D02*
G03X668673Y636251I565J-1537D01*
G01X666571Y638353D02*
G03Y638822I-86J235D01*
G01X667700D02*
G03X666571I-564J1537D01*
G01X667700D02*
G03Y638353I87J-234D01*
G01X668673Y637381D02*
G03X667700Y638353I-1537J-565D01*
G01X668673Y637381D02*
G03X669142I234J86D01*
G01Y636251D02*
G03Y637381I1537J565D01*
G01X673678Y647313D02*
G03X673467Y647142I27J-248D01*
G01X671719Y649294D02*
G03X673467Y647142I180J-1640D01*
G01X671719Y649294D02*
G03X671930Y649465I-27J249D01*
G01X673678Y647313D02*
G03X671930Y649465I-179J1641D01*
G01X663649Y618454D02*
G03X663649I-1650J0D01*
G01X662976Y630555D02*
G03Y630085I86J-235D01*
G01X661847D02*
G03X662976I564J-1537D01*
G01X661847D02*
G03Y630555I-86J235D01*
G01X660874Y631527D02*
G03X661847Y630555I1537J565D01*
G01X660874Y631527D02*
G03X660405I-234J-86D01*
G01Y632656D02*
G03Y631527I-1537J-564D01*
G01Y632656D02*
G03X660874I235J86D01*
G01X662976Y630555D02*
G03X660874Y632656I-565J1537D01*
G01X659949Y621354D02*
G03X659949I-1650J0D01*
G01X662976Y638822D02*
G03Y638353I86J-234D01*
G01X660874Y636251D02*
G03X662976Y638353I1537J565D01*
G01X660874Y636251D02*
G03X660405I-234J-86D01*
G01Y637381D02*
G03Y636251I-1537J-565D01*
G01Y637381D02*
G03X660874I235J86D01*
G01X661847Y638353D02*
G03X660874Y637381I564J-1537D01*
G01X661847Y638353D02*
G03Y638822I-86J235D01*
G01X662976D02*
G03X661847I-565J1537D01*
G01X652141Y609368D02*
G03Y609039I189J-164D01*
G01X652549Y607954D02*
G03X652141Y609039I-1650J-0D01*
G01X649813Y606711D02*
G03X652549Y607954I1086J1243D01*
G01X649813Y606711D02*
G03X649484I-164J-188D01*
G01X646749Y607954D02*
G03X649484Y606711I1650J-0D01*
G01X647156Y609039D02*
G03X646749Y607954I1243J-1085D01*
G01X647156Y609039D02*
G03Y609368I-188J165D01*
G01X646749Y610454D02*
G03X647156Y609368I1650J-0D01*
G01X649484Y611696D02*
G03X646749Y610454I-1085J-1242D01*
G01X649484Y611696D02*
G03X649813I165J189D01*
G01X652141Y609368D02*
G03X649813Y611696I-1242J1086D01*
G01X652750Y624396D02*
G03X652407Y624620I-250J-8D01*
G01X653448Y626211D02*
G03X652407Y624620I-1649J-57D01*
G01X653448Y626211D02*
G03X653790Y625987I249J9D01*
G01X652750Y624396D02*
G03X653790Y625987I1649J58D01*
G01X649412Y632248D02*
G03X649452Y632383I-210J135D01*
X649399Y632537I-250J0*
G01X652085Y632660D02*
G03X649399Y632537I-1386J894D01*
G01X652085Y632660D02*
G03X652045Y632524I210J-136D01*
X652098Y632370I250J0*
G01X649412Y632248D02*
G03X652098Y632370I1387J-894D01*
G01X652945Y646309D02*
G03X652545Y646299I-196J-154D01*
G01X652415Y648368D02*
G03X652545Y646299I-1216J-1114D01*
G01X652415Y648368D02*
G03X652814Y648408I185J169D01*
G01X652945Y646309D02*
G03X652814Y648408I1454J1145D01*
G01X642049Y605154D02*
G03X642049I-1650J0D01*
G01X642149Y624654D02*
G03X642149I-1850J0D01*
G01X634649Y611854D02*
G03X634649I-1850J0D01*
G01X640182Y633216D02*
G03X639909Y632914I-29J-248D01*
G01X636649Y632504D02*
G03X639909Y632914I1650J50D01*
G01X636649Y632504D02*
G03X636347Y632741I-250J-8D01*
G01X634754Y635436D02*
G03X636347Y632741I1245J-1082D01*
G01X634754Y635436D02*
G03X634740Y635779I-189J165D01*
G01X635296Y638490D02*
G03X634740Y635779I603J-1536D01*
G01X635296Y638490D02*
G03X635454Y638722I-92J232D01*
Y638726I-250J0*
G01Y638748D02*
G03Y638726I1650J-0D01*
G01Y638748D02*
X635454D01*
X637707Y637212D02*
G03X635454Y638748I-603J1536D01*
G01X637707Y637212D02*
G03X637548Y636979I91J-233D01*
Y636976I250J1*
G01X637549Y636954D02*
G03X637548Y636976I-1650J-0D01*
G01X637549Y636954D02*
X637549D01*
X637144Y635871D02*
G03X637549Y636954I-1245J1083D01*
G01X637144Y635871D02*
G03X637157Y635529I188J-164D01*
G01X637648Y634403D02*
G03X637157Y635529I-1649J-49D01*
G01X637648Y634403D02*
G03X637951Y634167I250J8D01*
G01X638375Y634202D02*
G03X637951Y634167I-76J-1648D01*
G01X638375Y634202D02*
G03X638626Y634523I12J250D01*
G01X638549Y635054D02*
G03X638626Y634523I1850J-0D01*
G01X640182Y633216D02*
G03X638549Y635054I217J1838D01*
G01X631949Y620054D02*
G03X631949I-1850J0D01*
G01X632449Y624954D02*
G03X632449I-1850J0D01*
G01X627849Y621954D02*
G03X627849I-1650J0D01*
G01X629449Y635654D02*
G03X629449I-1650J0D01*
G01X631849Y643954D02*
G03X631849I-1650J0D01*
G01X635149Y650254D02*
G03X635149I-1850J0D01*
G01X634549Y662854D02*
G03X634549I-1650J0D01*
G01X637649Y699254D02*
G03X637649I-1650J0D01*
G01X639749Y712254D02*
G03X639749I-1650J0D01*
G01X630949Y650754D02*
G03X630949I-1650J0D01*
G01X633670Y681510D02*
G03X633670I-1650J0D01*
G01X631449Y687254D02*
G03X631449I-1850J0D01*
G01X631349Y692654D02*
G03X631349I-1650J0D01*
G01X633949Y712054D02*
G03X633949I-1650J0D01*
G01X627549Y662354D02*
G03X627549I-1850J0D01*
G01X621849Y622554D02*
G03X621849I-1650J0D01*
G01X623749Y654054D02*
G03X623749I-1650J0D01*
G01X623286Y702402D02*
G03X623286I-1650J0D01*
G01X622845Y706802D02*
G03X622845I-1850J0D01*
G01Y712153D02*
G03X622845I-1850J0D01*
G01X623149Y718254D02*
G03X623149I-1850J0D01*
G01X625949Y727054D02*
G03X625949I-1650J0D01*
G01X621249Y727754D02*
G03X621249I-1850J0D01*
G01X619649Y740154D02*
G03X619649I-1850J0D01*
G01X622598Y749453D02*
G03X622123Y749483I-242J-61D01*
G01X622207Y750546D02*
G03X622123Y749483I-1808J-392D01*
G01X622207Y750546D02*
G03X622681Y750501I244J53D01*
G01X622598Y749453D02*
G03X622681Y750501I1601J401D01*
G01X625749Y760554D02*
G03X625749I-1650J0D01*
G01X611982Y607343D02*
G03X611624Y607652I-232J93D01*
G01X612416Y608565D02*
G03X611624Y607652I-1717J689D01*
G01X612416Y608565D02*
G03X612773Y608255I232J-93D01*
G01X611982Y607343D02*
G03X612773Y608255I1717J-689D01*
G01X615649Y613254D02*
G03X615649I-1850J0D01*
G01X602250Y607190D02*
G03X602239Y607254I-250J-10D01*
X602250Y607318I-239J73*
G01Y607190D02*
G03Y607318I1649J64D01*
G01X606649Y616354D02*
G03X606649I-1650J0D01*
G01X614050Y625079D02*
G03X614050I-4050J0D01*
G01Y635079D02*
G03X614050I-4050J0D01*
G01X613850Y645079D02*
G03X613850I-3850J0D01*
G01Y655079D02*
G03X613850I-3850J0D01*
G01Y665079D02*
G03X613850I-3850J0D01*
G01Y675079D02*
G03X613850I-3850J0D01*
G01Y685079D02*
G03X613850I-3850J0D01*
G01Y695079D02*
G03X613850I-3850J0D01*
G01Y705079D02*
G03X613850I-3850J0D01*
G01Y715079D02*
G03X613850I-3850J0D01*
G01Y725079D02*
G03X613850I-3850J0D01*
G01Y735079D02*
G03X613850I-3850J0D01*
G01Y745079D02*
G03X613850I-3850J0D01*
G01Y755079D02*
G03X613850I-3850J0D01*
G01X627449Y779354D02*
G03X627449I-1650J0D01*
G01X622049Y782254D02*
G03X622049I-1650J0D01*
G01X613850Y775079D02*
G03X613850I-3850J0D01*
G01X701050Y723400D02*
G03X701050I-1650J0D01*
G01X694755Y723539D02*
G03X694755I-1650J0D01*
G01X685007Y703765D02*
G03X685007I-1850J0D01*
G01X689901Y729670D02*
G03X689608Y729369I-49J-246D01*
G01X687274Y727518D02*
G03X689608Y729369I726J1482D01*
G01X687274Y727518D02*
G03X686932Y727387I-110J-224D01*
G01X685611Y726364D02*
G03X686932Y727387I-211J1636D01*
G01X685611Y726364D02*
G03X685478Y725928I32J-248D01*
G01X686038Y724690D02*
G03X685478Y725928I-1650J-0D01*
G01X684886Y723117D02*
G03X686038Y724690I-498J1573D01*
G01X684886Y723117D02*
G03X684717Y722829I76J-238D01*
G01X682601Y724073D02*
G03X684717Y722829I499J-1573D01*
G01X682601Y724073D02*
G03X682771Y724361I-75J238D01*
G01X682738Y724690D02*
G03X682771Y724361I1650J-0D01*
G01X684176Y726326D02*
G03X682738Y724690I212J-1636D01*
G01X684176Y726326D02*
G03X684309Y726762I-32J248D01*
G01X683750Y728000D02*
G03X684309Y726762I1650J0D01*
G01X686126Y729482D02*
G03X683750Y728000I-726J-1482D01*
G01X686126Y729482D02*
G03X686468Y729613I110J224D01*
G01X688321Y730618D02*
G03X686468Y729613I-321J-1618D01*
G01X688321Y730618D02*
G03X688614Y730919I49J246D01*
G01X689901Y729670D02*
G03X688614Y730919I321J1618D01*
G01X688935Y748511D02*
G03X688935I-1850J0D01*
G01X679963Y703653D02*
G03X679963I-1650J0D01*
G01X674405Y715146D02*
G03X674313Y714896I152J-198D01*
G01X674012Y713555D02*
G03X674313Y714896I-1313J999D01*
G01X674012Y713555D02*
G03Y713252I199J-151D01*
G01X673262Y710703D02*
G03X674012Y713252I-563J1551D01*
G01X673262Y710703D02*
G03X673098Y710468I86J-235D01*
X673102Y710424I250J0*
G01X672622Y708944D02*
G03X673102Y710424I-1144J1189D01*
G01X672622Y708944D02*
G03X672832Y708516I173J-180D01*
G01X671934Y708074D02*
G03X672832Y708516I1144J-1189D01*
G01X671934Y708074D02*
G03X671723Y708501I-174J180D01*
G01X670914Y711683D02*
G03X671723Y708501I564J-1550D01*
G01X670914Y711683D02*
G03X671078Y711918I-86J235D01*
X671075Y711963I-250J0*
G01X671385Y713252D02*
G03X671075Y711963I1314J-998D01*
G01X671385Y713252D02*
G03Y713555I-199J152D01*
G01X671692Y715861D02*
G03X671385Y713555I1007J-1307D01*
G01X671692Y715861D02*
G03X671784Y716111I-152J199D01*
G01X674405Y715146D02*
G03X671785Y716111I-1006J1308D01*
G01X671950Y725300D02*
G03X671950I-1650J0D01*
G01X696041Y684536D02*
G03X695756I-142J-206D01*
G01Y687572D02*
G03Y684536I-1057J-1518D01*
G01Y687572D02*
G03X696041I143J205D01*
G01Y684536D02*
G03Y687572I1058J1518D01*
G01X685650Y695000D02*
G03X685650I-1850J0D01*
G01X664950Y665200D02*
G03X664950I-1850J0D01*
G01X660649Y673354D02*
G03X660649I-1850J0D01*
G01X659458Y679024D02*
G03X659196Y679036I-141J-207D01*
G01X659339Y682183D02*
G03X659196Y679036I-1040J-1529D01*
G01X659339Y682183D02*
G03X659601Y682171I141J207D01*
G01X659458Y679024D02*
G03X659601Y682171I1041J1530D01*
G01X650356Y659087D02*
G03X650082Y659313I-249J-23D01*
G01X649746Y662997D02*
G03X650082Y659313I153J-1843D01*
G01X649746Y662997D02*
G03X649949Y663134I-21J250D01*
G01X653086Y661198D02*
G03X649949Y663134I-1486J1102D01*
G01X653086Y661198D02*
G03X653158Y660836I201J-148D01*
G01X650356Y659087D02*
G03X653158Y660836I1843J167D01*
G01X653450Y669600D02*
G03X653450I-1850J0D01*
G01X653449Y680854D02*
G03X653449I-1850J0D01*
G01X653152Y693597D02*
G03X653152I-1850J0D01*
G01X648089Y683373D02*
G03X648089I-1850J0D01*
G01X696049Y763754D02*
G03X696049I-1850J0D01*
G01X687390Y762444D02*
G03X686914Y762397I-231J-96D01*
G01X683249Y762754D02*
G03X686914Y762397I1850J-0D01*
G01X685662Y764516D02*
G03X683249Y762754I-563J-1762D01*
G01X685662Y764516D02*
G03X685900Y764944I76J238D01*
G01X688668Y765375D02*
G03X685900Y764944I-1569J979D01*
G01X688668Y765375D02*
G03X688906Y764994I212J-133D01*
G01X687390Y762444D02*
G03X688906Y764994I1709J710D01*
G01X696996Y772565D02*
G03X696538Y772427I-208J-138D01*
G01X696538*
G03Y772421I250J0*
G01X696539Y772378D02*
G03X696538Y772421I-1850J-0D01*
G01X696539Y772378D02*
X696539D01*
X693060Y771500D02*
G03X696539Y772378I1629J878D01*
G01X693060Y771500D02*
G03X692799Y771628I-220J-118D01*
G01X694127Y774331D02*
G03X692799Y771628I-1628J-877D01*
G01X694127Y774331D02*
G03X694388Y774203I220J119D01*
G01X696230Y773401D02*
G03X694388Y774203I-1541J-1023D01*
G01X696230Y773401D02*
G03X696688Y773539I208J138D01*
G01X696688*
G03Y773545I-250J0*
G01Y773589D02*
G03Y773545I1850J-0D01*
G01Y773589D02*
X696688D01*
X696996Y772566D02*
G03X696688Y773589I1542J1023D01*
G01X694749Y782454D02*
G03X694749I-1850J0D01*
G01X686149Y773254D02*
G03X686149I-1850J0D01*
G01X686949Y778554D02*
G03X686949I-1850J0D01*
G01X675345Y735195D02*
G03X675345I-1850J0D01*
G01X677249Y748454D02*
G03X677249I-1850J0D01*
G01X677549Y753254D02*
G03X677549I-1850J0D01*
G01X669607Y731604D02*
G03X669599I1J-250D01*
X669590I-10J-250*
G01X669607D02*
G03X669590I-8J1850D01*
G01X670463Y756692D02*
G03Y756216I76J-238D01*
G01Y752692D02*
G03Y756216I-564J1762D01*
G01Y752692D02*
G03Y752216I76J-238D01*
G01X668137Y749890D02*
G03X670463Y752216I1762J564D01*
G01X668137Y749890D02*
G03X667661I-238J-77D01*
G01X664137D02*
G03X667661I1762J564D01*
G01X664137D02*
G03X663661I-238J-77D01*
G01X662004Y748607D02*
G03X663661Y749890I-105J1847D01*
G01X662004Y748607D02*
G03X661899Y748138I15J-250D01*
G01X662863Y746514D02*
G03X661899Y748138I-1850J-0D01*
G01X662863Y746514D02*
X662863D01*
X662829Y746161D02*
G03X662863Y746514I-1816J353D01*
G01X662829Y746161D02*
G03X662824Y746113I245J-48D01*
X662958Y745892I250J0*
G01X660249Y744254D02*
G03X662958Y745892I1850J-0D01*
G01X660249Y744254D02*
X660249D01*
X660283Y744606D02*
G03X660249Y744254I1816J-352D01*
G01X660283Y744606D02*
G03X660287Y744654I-246J48D01*
X660153Y744875I-250J0*
G01X660907Y748361D02*
G03X660153Y744875I106J-1847D01*
G01X660907Y748361D02*
G03X661012Y748830I-14J249D01*
G01X661334Y752216D02*
G03X661012Y748830I565J-1762D01*
G01X661334Y752216D02*
G03Y752692I-76J238D01*
G01X660137Y753890D02*
G03X661334Y752692I1762J564D01*
G01X660137Y753890D02*
G03X659661I-238J-77D01*
G01X657334Y756216D02*
G03X659661Y753890I565J-1762D01*
G01X657334Y756216D02*
G03Y756692I-76J238D01*
G01X656084Y758092D02*
G03X657334Y756692I1815J362D01*
G01X656084Y758092D02*
G03X655644Y758199I-245J-49D01*
G01X653814Y757544D02*
G03X655644Y758199I385J1810D01*
G01X653814Y757544D02*
G03X653528Y757211I-52J-244D01*
G01X652184Y758363D02*
G03X653528Y757211I-385J-1809D01*
G01X652184Y758363D02*
G03X652469Y758697I52J245D01*
G01X656013Y759716D02*
G03X652469Y758697I-1814J-362D01*
G01X656013Y759716D02*
G03X656453Y759609I245J49D01*
G01X659661Y759018D02*
G03X656453Y759609I-1762J-564D01*
G01X659661Y759018D02*
G03X660137I238J76D01*
G01X661334Y760216D02*
G03X660137Y759018I565J-1762D01*
G01X661334Y760216D02*
G03Y760692I-76J238D01*
G01X662463D02*
G03X661334I-564J1762D01*
G01X662463D02*
G03Y760216I76J-238D01*
G01X663661Y759018D02*
G03X662463Y760216I-1762J-564D01*
G01X663661Y759018D02*
G03X664137I238J76D01*
G01X667661D02*
G03X664137I-1762J-564D01*
G01X667661D02*
G03X668137I238J76D01*
G01X670463Y756692D02*
G03X668137Y759018I-564J1762D01*
G01X675349Y760854D02*
G03X675349I-1850J0D01*
G01X673878Y765907D02*
G03X673818Y766252I-206J142D01*
G01X673049Y767754D02*
G03X673818Y766252I1850J-0D01*
G01X676420Y766701D02*
G03X673049Y767754I-1521J1053D01*
G01X676420Y766701D02*
G03X676479Y766355I205J-143D01*
G01X673878Y765907D02*
G03X676479Y766355I1521J-1053D01*
G01X676459Y780900D02*
G03X676421Y780572I168J-186D01*
G01X673659Y780887D02*
G03X676421Y780572I1243J-1370D01*
G01X673659Y780887D02*
G03X673696Y781215I-168J185D01*
G01X676459Y780900D02*
G03X673696Y781215I-1243J1370D01*
G01X667749Y769754D02*
G03X667749I-1850J0D01*
G01X670649Y780154D02*
G03X670649I-1850J0D01*
G01X658049Y734054D02*
G03X658049I-1850J0D01*
G01X659149Y744154D02*
G03X659149I-1850J0D01*
G01X660149Y769354D02*
G03X660149I-1850J0D01*
G01X659849Y777254D02*
G03X659849I-1850J0D01*
G01X654349Y764154D02*
G03X654349I-1850J0D01*
G01X642649Y745954D02*
G03X642649I-1850J0D01*
G01X644215Y749549D02*
G03X643834Y749573I-201J-149D01*
G01X640649Y750854D02*
G03X643834Y749573I1850J-0D01*
G01X642714Y752691D02*
G03X640649Y750854I-215J-1837D01*
G01X642714Y752691D02*
G03X642917Y753120I30J248D01*
G01X645259Y752938D02*
G03X642917Y753120I-1060J1516D01*
G01X645259Y752938D02*
G03X645437Y752485I143J-205D01*
G01X644215Y749549D02*
G03X645437Y752485I1484J1105D01*
G01X645880Y763604D02*
G03X645627Y763354I-3J-250D01*
G01X645627*
G03X645630Y763318I250J-0*
G01X643818Y764904D02*
G03X645630Y763318I-19J-1850D01*
G01X643818Y764904D02*
G03X644070Y765154I2J250D01*
G01X644070*
G03X644068Y765189I-250J-0*
G01X645880Y763604D02*
G03X644068Y765189I19J1850D01*
G01X650949Y773154D02*
G03X650949I-1850J0D01*
G01X640312Y770153D02*
G03X639871Y770074I-201J-149D01*
G01X639582Y771693D02*
G03X639871Y770074I-1487J-1101D01*
G01X639582Y771693D02*
G03X640022Y771771I200J148D01*
G01X640881Y772860D02*
G03X640022Y771771I918J-1606D01*
G01X640881Y772860D02*
G03X641006Y773077I-125J217D01*
X640869Y773300I-250J-0*
G01X642617Y773348D02*
G03X640869Y773300I-918J1606D01*
G01X642617Y773348D02*
G03X642491Y773131I124J-217D01*
X642629Y772907I250J-0*
G01X640312Y770153D02*
G03X642629Y772907I1487J1101D01*
G01X716097Y815079D02*
G03X716097I-4050J0D01*
G01X719749Y835454D02*
G03X719749I-1850J0D01*
G01X714749Y823454D02*
G03X714749I-1850J0D01*
G01X705749Y825454D02*
G03X705749I-1850J0D01*
G01X695257Y800357D02*
G03X694948Y800114I-59J-243D01*
Y800107I250J0*
G01X694949Y800054D02*
G03X694948Y800107I-1850J-0D01*
G01X694949Y800054D02*
X694949D01*
X693127Y798204D02*
G03X694949Y800054I-28J1850D01*
G01X693127Y798204D02*
G03X692881Y797954I4J-250D01*
X692984Y797752I250J-0*
G01X693749Y796254D02*
G03X692984Y797752I-1850J-0D01*
G01X693273Y795015D02*
G03X693749Y796254I-1374J1239D01*
G01X693273Y795015D02*
G03X693380Y794610I185J-168D01*
G01X690949Y792854D02*
G03X693380Y794610I1850J-0D01*
G01X691425Y794093D02*
G03X690949Y792854I1374J-1239D01*
G01X691425Y794093D02*
G03X691318Y794497I-186J167D01*
G01X691870Y798104D02*
G03X691318Y794497I29J-1850D01*
G01X691870Y798104D02*
G03X692116Y798354I-4J250D01*
X692013Y798556I-250J-0*
G01X693540Y801850D02*
G03X692013Y798556I-441J-1796D01*
G01X693540Y801850D02*
G03X693849Y802093I59J243D01*
Y802100I-250J0*
G01Y802154D02*
G03Y802100I1850J-0D01*
G01Y802154D02*
X693849D01*
X695257Y800357D02*
G03X693849Y802154I442J1797D01*
G01X696749Y807754D02*
G03X696749I-1850J0D01*
G01X697549Y812254D02*
G03X697549I-1850J0D01*
G01X696749Y818054D02*
G03X696749I-1850J0D01*
G01X699749Y822454D02*
G03X699749I-1850J0D01*
G01X696749Y826454D02*
G03X696749I-1850J0D01*
G01X698749Y835454D02*
G03X698749I-1850J0D01*
G01X690749Y818454D02*
G03X690749I-1850J0D01*
G01Y826454D02*
G03X690749I-1850J0D01*
G01X686749Y804454D02*
G03X686749I-1850J0D01*
G01X686449Y809054D02*
G03X686449I-1850J0D01*
G01X686249Y813354D02*
G03X686249I-1850J0D01*
G01X676544Y790513D02*
G03X676624Y790697I-170J184D01*
X676425Y790942I-250J0*
G01X678053Y791394D02*
G03X676425Y790942I-1254J1360D01*
G01X678053Y791394D02*
G03X677973Y791210I170J-184D01*
X678172Y790966I250J0*
G01X676544Y790513D02*
G03X678172Y790966I1255J-1359D01*
G01X675649Y799454D02*
G03X675649I-1850J0D01*
G01X672452Y804533D02*
G03X672417Y804152I143J-205D01*
G01X669597Y801773D02*
G03X672417Y804152I1502J1081D01*
G01X669597Y801773D02*
G03X669252Y801833I-203J-146D01*
G01X669514Y804655D02*
G03X669252Y801833I-1315J-1301D01*
G01X669514Y804655D02*
G03X669942Y804831I178J176D01*
X669895Y804976I-250J-0*
G01X672452Y804533D02*
G03X669895Y804976I-1053J1521D01*
G01X650849Y794554D02*
G03X650849I-1850J0D01*
G01X650749Y799454D02*
G03X650749I-1850J0D01*
G01X660603Y804035D02*
G03X660232Y803816I-121J-219D01*
X660234Y803785I250J0*
G01X657258Y802097D02*
G03X660234Y803785I1141J1457D01*
G01X657258Y802097D02*
G03X656913Y802061I-154J-197D01*
G01X654175Y801961D02*
G03X656913Y802061I1324J1293D01*
G01X654175Y801961D02*
G03X653830Y801973I-179J-175D01*
G01X650749Y803354D02*
G03X653830Y801973I1850J-0D01*
G01X650751Y803450D02*
G03X650749Y803354I1848J-96D01*
G01X650751Y803450D02*
G03Y803463I-250J13D01*
X650525Y803712I-250J-0*
G01X652549Y805554D02*
G03X650525Y803712I-1850J-0D01*
G01X652546Y805457D02*
G03X652549Y805554I-1847J97D01*
G01X652546Y805457D02*
G03Y805444I250J-13D01*
X652772Y805196I250J0*
G01X653922Y804646D02*
G03X652772Y805196I-1323J-1292D01*
G01X653922Y804646D02*
G03X654267Y804635I179J175D01*
G01X656639Y804711D02*
G03X654267Y804634I-1140J-1457D01*
G01X656639Y804711D02*
G03X656984Y804746I154J196D01*
G01X657542Y805193D02*
G03X656984Y804746I857J-1639D01*
G01X657542Y805193D02*
G03X657676Y805415I-116J222D01*
G01X657676*
G03X657673Y805455I-250J0*
G01X657649Y805754D02*
G03X657673Y805455I1850J-0D01*
G01X657649Y805754D02*
X657649D01*
X660461Y807334D02*
G03X657649Y805754I-962J-1580D01*
G01X660461Y807334D02*
G03X660699Y807322I130J213D01*
G01X660603Y804035D02*
G03X660699Y807322I896J1619D01*
G01X661586Y810410D02*
G03X661345Y810420I-130J-214D01*
G01X659137Y810849D02*
G03X661345Y810420I1385J1228D01*
G01X659137Y810849D02*
G03X658909Y810930I-187J-166D01*
G01X659983Y813981D02*
G03X658909Y810930I-1384J-1227D01*
G01X659983Y813981D02*
G03X660212Y813901I187J166D01*
G01X661481Y813658D02*
G03X660212Y813901I-959J-1581D01*
G01X661481Y813658D02*
G03X661722Y813648I130J214D01*
G01X661586Y810410D02*
G03X661722Y813648I960J1582D01*
G01X622849Y790654D02*
G03X622849I-1850J0D01*
G01X633449Y804554D02*
G03X633449I-1850J0D01*
G01X620999Y810704D02*
G03X620999I-1850J0D01*
G01X618499Y820704D02*
G03X618499I-1850J0D01*
G01X614050Y815079D02*
G03X614050I-4050J0D01*
G01X617249Y831954D02*
G03X617249I-1850J0D01*
G01X608499Y835704D02*
G03X608499I-1850J0D01*
G01X712439Y651249D02*
X720297D01*
X680817Y650799D02*
X720297D01*
X680937Y650349D02*
X720297D01*
X680929Y649899D02*
X720297D01*
X680790Y649449D02*
X720297D01*
X680477Y648999D02*
X720297D01*
X713001Y641349D02*
X720297D01*
X707017Y640899D02*
X720297D01*
X707137Y640449D02*
X720297D01*
X707129Y639999D02*
X720297D01*
X706990Y639549D02*
X720297D01*
X706677Y639099D02*
X720297D01*
X713330Y631449D02*
X720297D01*
X671899Y630999D02*
X720297D01*
X671228Y630549D02*
X720297D01*
X667670Y630099D02*
X720297D01*
X668348Y629649D02*
X720297D01*
X668638Y629199D02*
X720297D01*
X713211Y628749D02*
X720297D01*
X705377Y621099D02*
X720297D01*
X674938Y620649D02*
X720297D01*
X675042Y620199D02*
X720297D01*
X675020Y619749D02*
X720297D01*
X674866Y619299D02*
X720297D01*
X674526Y618849D02*
X720297D01*
X669777Y618399D02*
X720297D01*
X668981Y617949D02*
X720297D01*
X663344Y617499D02*
X720297D01*
X662864Y617049D02*
X720297D01*
X606630Y616599D02*
X720297D01*
X606636Y616149D02*
X720297D01*
X606513Y615699D02*
X720297D01*
X606224Y615249D02*
X720297D01*
X614816Y614799D02*
X720297D01*
X615290Y614349D02*
X720297D01*
X615533Y613899D02*
X720297D01*
X633736Y613449D02*
X720297D01*
X705978Y612999D02*
X720297D01*
X706633Y612549D02*
X720297D01*
X706917Y612099D02*
X720297D01*
X707037Y611649D02*
X720297D01*
X707029Y611199D02*
X720297D01*
X706890Y610749D02*
X720297D01*
X706577Y610299D02*
X720297D01*
X706338Y609849D02*
X720297D01*
X706751Y609399D02*
X720297D01*
X706973Y608949D02*
X720297D01*
X707048Y608499D02*
X720297D01*
X706998Y608049D02*
X720297D01*
X706810Y607599D02*
X720297D01*
X706408Y607149D02*
X720297D01*
X680440Y606699D02*
X720297D01*
X641633Y606249D02*
X720297D01*
X702581Y605799D02*
X720297D01*
X702945Y605349D02*
X720297D01*
X703112Y604899D02*
X720297D01*
X703145Y604449D02*
X720297D01*
X703052Y603999D02*
X720297D01*
X702807Y603549D02*
X720297D01*
X702277Y603099D02*
X720297D01*
X692064Y602649D02*
X720297D01*
X684564Y602199D02*
X720297D01*
X713489Y638649D02*
X720297D01*
X713584Y621549D02*
X720292D01*
X713715Y648549D02*
X720272D01*
X713891Y651699D02*
X720198D01*
X714063Y641799D02*
X720031D01*
X714158Y628299D02*
X719937D01*
X714218Y631899D02*
X719877D01*
X714303Y638199D02*
X719791D01*
X714357Y621999D02*
X719737D01*
X714435Y648099D02*
X719659D01*
X714545Y652149D02*
X719550D01*
X714658Y642249D02*
X719437D01*
X714721Y627849D02*
X719373D01*
X714762Y632349D02*
X719333D01*
X714821Y637749D02*
X719273D01*
X714859Y622449D02*
X719236D01*
X714914Y647649D02*
X719181D01*
X714992Y652599D02*
X719102D01*
X715073Y642699D02*
X719021D01*
X715120Y627399D02*
X718975D01*
X715150Y632799D02*
X718945D01*
X715193Y637299D02*
X718902D01*
X715221Y622899D02*
X718874D01*
X715261Y647199D02*
X718833D01*
X715319Y653049D02*
X718776D01*
X715379Y643149D02*
X718716D01*
X715413Y626949D02*
X718682D01*
X715435Y633249D02*
X718660D01*
X715466Y636849D02*
X718628D01*
X715487Y623349D02*
X718608D01*
X715516Y646749D02*
X718578D01*
X715558Y653499D02*
X718536D01*
X715601Y643599D02*
X718493D01*
X715626Y626499D02*
X718469D01*
X715641Y633699D02*
X718453D01*
X715664Y636399D02*
X718431D01*
X715678Y623799D02*
X718416D01*
X715699Y646299D02*
X718396D01*
X715728Y653949D02*
X718367D01*
X715757Y644049D02*
X718338D01*
X715773Y626049D02*
X718321D01*
X715783Y634149D02*
X718311D01*
X715798Y635949D02*
X718297D01*
X715807Y624249D02*
X718288D01*
X715819Y645849D02*
X718275D01*
X715837Y654399D02*
X718258D01*
X715853Y644499D02*
X718241D01*
X715862Y625599D02*
X718232D01*
X715867Y634599D02*
X718227D01*
X715874Y635499D02*
X718220D01*
X715878Y624699D02*
X718216D01*
X715884Y645399D02*
X718211D01*
X715895Y644949D02*
X718199D01*
X715897Y625149D02*
X718198D01*
X715897Y635049D02*
X718197D01*
X682675Y651249D02*
X711655D01*
X706733Y641349D02*
X711094D01*
X668761Y628749D02*
X710884D01*
X672185Y631449D02*
X710764D01*
X705881Y638649D02*
X710606D01*
X705907Y621549D02*
X710511D01*
X679681Y648549D02*
X710379D01*
X683267Y651699D02*
X710204D01*
X706078Y641799D02*
X710031D01*
X683395Y628299D02*
X709937D01*
X672305Y631899D02*
X709877D01*
X671556Y638199D02*
X709791D01*
X706152Y621999D02*
X709737D01*
X674910Y648099D02*
X709659D01*
X683534Y652149D02*
X709550D01*
X704820Y642249D02*
X709437D01*
X683915Y627849D02*
X709373D01*
X672296Y632349D02*
X709333D01*
X672025Y637749D02*
X709273D01*
X706245Y622449D02*
X709236D01*
X674508Y647649D02*
X709181D01*
X683641Y652599D02*
X709102D01*
X704842Y642699D02*
X709021D01*
X684156Y627399D02*
X708975D01*
X672156Y632799D02*
X708945D01*
X672244Y637299D02*
X708902D01*
X706212Y622899D02*
X708874D01*
X673494Y647199D02*
X708833D01*
X683622Y653049D02*
X708776D01*
X704738Y643149D02*
X708716D01*
X684246Y626949D02*
X708682D01*
X671838Y633249D02*
X708660D01*
X672316Y636849D02*
X708628D01*
X706045Y623349D02*
X708608D01*
X673278Y646749D02*
X708578D01*
X683478Y653499D02*
X708536D01*
X704476Y643599D02*
X708493D01*
X684210Y626499D02*
X708469D01*
X670992Y633699D02*
X708453D01*
X672263Y636399D02*
X708431D01*
X705681Y623799D02*
X708416D01*
X672840Y646299D02*
X708396D01*
X700417Y653949D02*
X708367D01*
X703897Y644049D02*
X708338D01*
X684039Y626049D02*
X708321D01*
X652238Y634149D02*
X708311D01*
X672068Y635949D02*
X708297D01*
X683838Y624249D02*
X708288D01*
X661881Y645849D02*
X708275D01*
X701060Y654399D02*
X708258D01*
X631756Y644499D02*
X708241D01*
X683670Y625599D02*
X708232D01*
X651976Y634599D02*
X708227D01*
X671652Y635499D02*
X708220D01*
X683576Y624699D02*
X708216D01*
X630995Y645399D02*
X708211D01*
X631515Y644949D02*
X708199D01*
X683208Y625149D02*
X708198D01*
X651397Y635049D02*
X708197D01*
X667544Y638649D02*
X705116D01*
X703478Y612999D02*
X704819D01*
X703908Y607149D02*
X704389D01*
X684577Y639099D02*
X704320D01*
X685107Y639549D02*
X704007D01*
X685352Y639999D02*
X703868D01*
X685445Y640449D02*
X703860D01*
X674676Y621099D02*
X703821D01*
X685412Y640899D02*
X703817D01*
X683942Y623799D02*
X703516D01*
X674097Y621549D02*
X703290D01*
X683920Y623349D02*
X703153D01*
X659817Y621999D02*
X703045D01*
X683766Y622899D02*
X702985D01*
X683426Y622449D02*
X702952D01*
X631846Y644049D02*
X702500D01*
X680654Y612999D02*
X702319D01*
X685245Y641349D02*
X702071D01*
X679949Y609849D02*
X701959D01*
X678955Y643599D02*
X701922D01*
X680878Y607149D02*
X701889D01*
X684881Y641799D02*
X701731D01*
X680640Y610299D02*
X701720D01*
X681085Y612549D02*
X701664D01*
X679385Y643149D02*
X701660D01*
X679649Y642249D02*
X701577D01*
X679588Y642699D02*
X701555D01*
X680454Y609399D02*
X701546D01*
X681085Y607599D02*
X701487D01*
X681078Y610749D02*
X701407D01*
X681288Y612099D02*
X701380D01*
X680885Y608949D02*
X701325D01*
X681149Y608049D02*
X701299D01*
X681285Y611199D02*
X701268D01*
X681349Y611649D02*
X701260D01*
X681088Y608499D02*
X701249D01*
X692544Y603099D02*
X700721D01*
X641917Y605799D02*
X700416D01*
X692769Y603549D02*
X700190D01*
X692221Y605349D02*
X700053D01*
X692848Y603999D02*
X699945D01*
X692616Y604899D02*
X699885D01*
X692801Y604449D02*
X699852D01*
X685426Y602649D02*
X690333D01*
X684997Y605349D02*
X690176D01*
X685766Y603099D02*
X689853D01*
X685576Y604899D02*
X689781D01*
X685920Y603549D02*
X689628D01*
X685838Y604449D02*
X689597D01*
X685942Y603999D02*
X689550D01*
X663810Y602199D02*
X684033D01*
X642037Y605349D02*
X683600D01*
X663846Y602649D02*
X683171D01*
X642029Y604899D02*
X683022D01*
X668181Y639099D02*
X683021D01*
X663756Y603099D02*
X682831D01*
X641890Y604449D02*
X682760D01*
X679585Y641799D02*
X682716D01*
X663515Y603549D02*
X682677D01*
X662995Y603999D02*
X682655D01*
X668559Y639549D02*
X682490D01*
X679378Y641349D02*
X682353D01*
X668733Y639999D02*
X682245D01*
X678940Y640899D02*
X682185D01*
X668771Y640449D02*
X682152D01*
X668754Y628299D02*
X681802D01*
X655895Y625149D02*
X681590D01*
X655587Y625599D02*
X681527D01*
X680616Y651249D02*
X681322D01*
X668616Y627849D02*
X681282D01*
X659533Y622449D02*
X681171D01*
X654821Y626049D02*
X681158D01*
X668302Y627399D02*
X681041D01*
X656030Y624699D02*
X681022D01*
X653412Y626499D02*
X680987D01*
X667486Y626949D02*
X680951D01*
X658878Y622899D02*
X680831D01*
X656036Y624249D02*
X680760D01*
X679878Y651699D02*
X680681D01*
X655624Y623349D02*
X680677D01*
X655913Y623799D02*
X680655D01*
X664112Y653499D02*
X680519D01*
X663807Y652149D02*
X680464D01*
X664145Y653049D02*
X680375D01*
X664052Y652599D02*
X680356D01*
X652434Y609849D02*
X679247D01*
X675098Y648549D02*
X678916D01*
X652541Y610299D02*
X678757D01*
X634252Y612999D02*
X678743D01*
X663277Y651699D02*
X678719D01*
X651970Y606699D02*
X678557D01*
X652167Y609399D02*
X678543D01*
X652522Y610749D02*
X678319D01*
X634513Y612549D02*
X678312D01*
X675148Y648999D02*
X678120D01*
X652339Y607149D02*
X678119D01*
X652371Y611199D02*
X678113D01*
X652215Y608949D02*
X678112D01*
X651028Y612099D02*
X678110D01*
X662770Y651249D02*
X678064D01*
X652036Y611649D02*
X678049D01*
X652510Y607599D02*
X677913D01*
X652456Y608499D02*
X677910D01*
X652546Y608049D02*
X677849D01*
X675073Y649449D02*
X677807D01*
X663003Y650799D02*
X677780D01*
X674851Y649899D02*
X677668D01*
X674380Y650349D02*
X677660D01*
X668682Y640899D02*
X677058D01*
X631810Y643599D02*
X677043D01*
X668440Y641349D02*
X676620D01*
X631639Y643149D02*
X676613D01*
X667916Y641799D02*
X676413D01*
X631270Y642699D02*
X676410D01*
X612610Y642249D02*
X676349D01*
X659937Y621549D02*
X672700D01*
X663096Y650349D02*
X672617D01*
X670090Y618849D02*
X672271D01*
X663099Y649899D02*
X672146D01*
X669178Y621099D02*
X672122D01*
X670229Y619299D02*
X671931D01*
X665340Y649449D02*
X671924D01*
X669833Y620649D02*
X671860D01*
X670237Y619749D02*
X671777D01*
X670117Y620199D02*
X671755D01*
X665741Y646299D02*
X670957D01*
X665967Y648999D02*
X670943D01*
X666152Y646749D02*
X670519D01*
X666269Y648549D02*
X670512D01*
X667449Y633699D02*
X670366D01*
X666363Y647199D02*
X670313D01*
X666416Y648099D02*
X670310D01*
X666446Y647649D02*
X670249D01*
X667686Y630549D02*
X670131D01*
X668013Y638199D02*
X669802D01*
X668108Y635499D02*
X669706D01*
X668294Y633249D02*
X669521D01*
X668355Y630999D02*
X669460D01*
X668482Y637749D02*
X669333D01*
X668525Y635949D02*
X669290D01*
X668613Y632799D02*
X669202D01*
X668642Y631449D02*
X669173D01*
X668722Y637299D02*
X669093D01*
X668818Y636399D02*
X668996D01*
X663569Y617949D02*
X668216D01*
X659929Y621099D02*
X668019D01*
X663648Y618399D02*
X667420D01*
X659790Y620649D02*
X667364D01*
X663601Y618849D02*
X667107D01*
X659477Y620199D02*
X667080D01*
X663416Y619299D02*
X666968D01*
X663021Y619749D02*
X666960D01*
X662725Y633699D02*
X666823D01*
X662762Y626949D02*
X666786D01*
X662820Y638649D02*
X666727D01*
X662946Y630099D02*
X666602D01*
X662962Y630549D02*
X666586D01*
X663192Y641799D02*
X666355D01*
X663288Y638199D02*
X666259D01*
X663384Y635499D02*
X666163D01*
X663456Y639099D02*
X666091D01*
X663570Y633249D02*
X665977D01*
X663577Y627399D02*
X665970D01*
X663624Y629649D02*
X665923D01*
X663631Y630999D02*
X665916D01*
X663716Y641349D02*
X665831D01*
X663757Y637749D02*
X665790D01*
X663800Y635949D02*
X665747D01*
X663834Y639549D02*
X665713D01*
X663888Y632799D02*
X665659D01*
X663892Y627849D02*
X665655D01*
X663914Y629199D02*
X665633D01*
X663917Y631449D02*
X665630D01*
X663957Y640899D02*
X665590D01*
X663976Y637299D02*
X665571D01*
X663995Y636399D02*
X665552D01*
X664009Y639999D02*
X665539D01*
X664029Y632349D02*
X665519D01*
X664030Y628299D02*
X665518D01*
X664037Y628749D02*
X665511D01*
X664037Y631899D02*
X665510D01*
X664046Y640449D02*
X665501D01*
X664049Y636849D02*
X665499D01*
X663099Y649449D02*
X663857D01*
X662677Y646299D02*
X663456D01*
X659181Y633699D02*
X662098D01*
X653245Y626949D02*
X662061D01*
X638751Y638649D02*
X662003D01*
X651870Y630099D02*
X661877D01*
X659417Y630549D02*
X661861D01*
X612016Y641799D02*
X661631D01*
X659745Y638199D02*
X661534D01*
X659841Y635499D02*
X661439D01*
X641577Y603999D02*
X661402D01*
X638716Y639099D02*
X661366D01*
X660027Y633249D02*
X661253D01*
X652881Y627399D02*
X661245D01*
X601750Y629649D02*
X661199D01*
X660087Y630999D02*
X661192D01*
X606495Y617049D02*
X661133D01*
X655319Y645849D02*
X661116D01*
X610954Y641349D02*
X661107D01*
X660214Y637749D02*
X661066D01*
X660257Y635949D02*
X661023D01*
X638547Y639549D02*
X660989D01*
X658681Y619749D02*
X660976D01*
X660345Y632799D02*
X660935D01*
X612955Y627849D02*
X660931D01*
X601750Y629199D02*
X660909D01*
X660374Y631449D02*
X660905D01*
X640781Y603549D02*
X660882D01*
X601750Y640899D02*
X660865D01*
X660455Y637299D02*
X660825D01*
X638180Y639999D02*
X660814D01*
X612457Y628299D02*
X660793D01*
X611713Y628749D02*
X660786D01*
X601750Y640449D02*
X660776D01*
X660551Y636399D02*
X660729D01*
X606187Y617499D02*
X660653D01*
X601750Y603099D02*
X660641D01*
X601750Y602199D02*
X660587D01*
X631788Y619299D02*
X660581D01*
X601750Y602649D02*
X660551D01*
X605421Y617949D02*
X660428D01*
X631502Y618849D02*
X660397D01*
X630925Y618399D02*
X660350D01*
X655844Y646299D02*
X660320D01*
X656109Y646749D02*
X660007D01*
X634964Y649449D02*
X659899D01*
X655416Y648999D02*
X659899D01*
X655890Y648549D02*
X659899D01*
X656133Y648099D02*
X659899D01*
X656231Y647199D02*
X659868D01*
X656238Y647649D02*
X659860D01*
X635114Y649899D02*
X659591D01*
X635146Y650349D02*
X659141D01*
X635067Y650799D02*
X658691D01*
X652342Y633699D02*
X658555D01*
X652239Y630549D02*
X658320D01*
X634858Y651249D02*
X658241D01*
X638660Y638199D02*
X657991D01*
X631923Y619749D02*
X657916D01*
X642194Y635499D02*
X657895D01*
X654950Y622899D02*
X657719D01*
X652320Y633249D02*
X657710D01*
X652410Y630999D02*
X657649D01*
X638417Y637749D02*
X657522D01*
X642018Y635949D02*
X657479D01*
X652166Y632799D02*
X657391D01*
X652446Y631449D02*
X657362D01*
X637893Y637299D02*
X657303D01*
X641669Y636399D02*
X657285D01*
X652115Y632349D02*
X657251D01*
X652356Y631899D02*
X657242D01*
X640847Y636849D02*
X657231D01*
X631943Y620199D02*
X657120D01*
X627773Y622449D02*
X657064D01*
X631850Y620649D02*
X656807D01*
X627848Y621999D02*
X656780D01*
X631625Y621099D02*
X656668D01*
X631188Y621549D02*
X656660D01*
X653515Y626049D02*
X653976D01*
X640884Y622899D02*
X653847D01*
X652064Y645849D02*
X653479D01*
X634658Y648999D02*
X653381D01*
X641610Y623349D02*
X653173D01*
X652544Y646299D02*
X652953D01*
X652221Y648549D02*
X652907D01*
X641939Y623799D02*
X652884D01*
X642104Y624249D02*
X652761D01*
X637538Y699849D02*
X652730D01*
X637642Y699399D02*
X652729D01*
X637276Y700299D02*
X652305D01*
X636697Y700749D02*
X651855D01*
X622765Y701199D02*
X651405D01*
X642148Y624699D02*
X651021D01*
X623104Y701649D02*
X650955D01*
X648528Y612099D02*
X650770D01*
X613320Y627399D02*
X650716D01*
X623258Y702099D02*
X650505D01*
X642081Y625149D02*
X650490D01*
X613592Y626949D02*
X650353D01*
X613772Y645849D02*
X650333D01*
X641889Y625599D02*
X650245D01*
X640435Y626499D02*
X650185D01*
X634017Y648549D02*
X650176D01*
X641514Y626049D02*
X650152D01*
X623279Y702549D02*
X650055D01*
X642249Y635049D02*
X650000D01*
X613652Y646299D02*
X649853D01*
X649470Y606699D02*
X649827D01*
X612388Y648099D02*
X649781D01*
X649566Y611649D02*
X649731D01*
X601750Y630099D02*
X649727D01*
X613469Y646749D02*
X649628D01*
X623174Y702999D02*
X649605D01*
X612867Y647649D02*
X649597D01*
X613214Y647199D02*
X649550D01*
X639936Y632349D02*
X649449D01*
X642192Y634599D02*
X649422D01*
X601750Y630549D02*
X649358D01*
X639813Y631899D02*
X649241D01*
X639930Y632799D02*
X649231D01*
X638850Y630999D02*
X649187D01*
X642012Y634149D02*
X649160D01*
X622911Y703449D02*
X649155D01*
X639524Y631449D02*
X649151D01*
X640804Y633249D02*
X649077D01*
X641658Y633699D02*
X649055D01*
X622330Y703899D02*
X648705D01*
X643447Y651699D02*
X648447D01*
X634632Y612099D02*
X648270D01*
X613780Y704349D02*
X648255D01*
X613840Y704799D02*
X647847D01*
X644234Y654399D02*
X647793D01*
X644195Y652149D02*
X647773D01*
X622000Y705249D02*
X647670D01*
X638678Y713799D02*
X647650D01*
X639333Y713349D02*
X647650D01*
X601750Y709749D02*
X647650D01*
X601750Y709299D02*
X647650D01*
X610781Y708849D02*
X647650D01*
X621929Y708399D02*
X647650D01*
X622446Y707949D02*
X647650D01*
X622708Y707499D02*
X647650D01*
X622828Y707049D02*
X647650D01*
X622833Y706599D02*
X647650D01*
X622726Y706149D02*
X647650D01*
X622480Y705699D02*
X647650D01*
X647240Y710199D02*
X647559D01*
X647254Y712899D02*
X647545D01*
X613759Y714249D02*
X647537D01*
X644512Y653949D02*
X647502D01*
X644500Y652599D02*
X647484D01*
X644636Y653499D02*
X647367D01*
X644633Y653049D02*
X647361D01*
X640978Y606699D02*
X647327D01*
X634637Y611649D02*
X647261D01*
X612543Y609399D02*
X647130D01*
X613831Y714699D02*
X647087D01*
X612523Y608949D02*
X647082D01*
X615481Y607149D02*
X646958D01*
X634529Y611199D02*
X646926D01*
X612450Y609849D02*
X646864D01*
X613835Y608499D02*
X646841D01*
X615289Y607599D02*
X646787D01*
X634282Y610749D02*
X646775D01*
X633801Y610299D02*
X646756D01*
X614914Y608049D02*
X646751D01*
X613849Y715149D02*
X646637D01*
X613815Y715599D02*
X646187D01*
X613726Y716049D02*
X645737D01*
X601750Y710199D02*
X645357D01*
X639617Y712899D02*
X645343D01*
X621884Y716499D02*
X645287D01*
X638481Y710649D02*
X644919D01*
X639737Y712449D02*
X644912D01*
X622610Y716949D02*
X644837D01*
X639277Y711099D02*
X644713D01*
X639729Y711999D02*
X644710D01*
X639590Y711549D02*
X644649D01*
X622939Y717399D02*
X644387D01*
X634454Y651699D02*
X642553D01*
X623104Y717849D02*
X641953D01*
X630180Y652149D02*
X641805D01*
X634778Y724599D02*
X641794D01*
X623712Y654399D02*
X641766D01*
X623148Y718299D02*
X641518D01*
X622877Y652599D02*
X641500D01*
X623745Y653949D02*
X641488D01*
X613850Y725049D02*
X641407D01*
X623407Y653049D02*
X641367D01*
X623652Y653499D02*
X641364D01*
X623081Y718749D02*
X641313D01*
X640575Y719649D02*
X641303D01*
X622889Y719199D02*
X641250D01*
X624850Y725499D02*
X640957D01*
X631664Y725949D02*
X640507D01*
X631616Y626499D02*
X640162D01*
X632144Y726399D02*
X640057D01*
X601750Y603549D02*
X640016D01*
X637545Y636849D02*
X639951D01*
X615548Y606699D02*
X639819D01*
X637620Y698949D02*
X639774D01*
X637466Y698499D02*
X639774D01*
X637126Y698049D02*
X639774D01*
X612911Y697599D02*
X639774D01*
X613246Y697149D02*
X639774D01*
X613493Y696699D02*
X639774D01*
X613668Y696249D02*
X639774D01*
X613782Y695799D02*
X639774D01*
X613841Y695349D02*
X639774D01*
X613846Y694899D02*
X639774D01*
X613798Y694449D02*
X639774D01*
X630654Y693999D02*
X639774D01*
X631085Y693549D02*
X639774D01*
X631288Y693099D02*
X639774D01*
X631349Y692649D02*
X639774D01*
X631285Y692199D02*
X639774D01*
X631078Y691749D02*
X639774D01*
X630640Y691299D02*
X639774D01*
X601750Y690849D02*
X639774D01*
X601750Y690399D02*
X639774D01*
X601750Y689949D02*
X639774D01*
X601750Y689499D02*
X639774D01*
X630047Y689049D02*
X639774D01*
X630869Y688599D02*
X639774D01*
X631218Y688149D02*
X639774D01*
X631394Y687699D02*
X639774D01*
X631449Y687249D02*
X639774D01*
X631392Y686799D02*
X639774D01*
X631212Y686349D02*
X639774D01*
X630858Y685899D02*
X639774D01*
X630004Y685449D02*
X639774D01*
X613849Y684999D02*
X639774D01*
X613813Y684549D02*
X639774D01*
X613723Y684099D02*
X639774D01*
X632786Y680049D02*
X639774D01*
X601750Y679599D02*
X639774D01*
X601750Y679149D02*
X639774D01*
X611311Y678699D02*
X639774D01*
X612185Y678249D02*
X639774D01*
X612725Y677799D02*
X639774D01*
X613110Y677349D02*
X639774D01*
X613393Y676899D02*
X639774D01*
X613598Y676449D02*
X639774D01*
X613738Y675999D02*
X639774D01*
X613821Y675549D02*
X639774D01*
X613850Y675099D02*
X639774D01*
X613826Y674649D02*
X639774D01*
X613748Y674199D02*
X639774D01*
X613613Y673749D02*
X639774D01*
X613414Y673299D02*
X639774D01*
X613138Y672849D02*
X639774D01*
X612764Y672399D02*
X639774D01*
X612242Y671949D02*
X639774D01*
X611416Y671499D02*
X639774D01*
X601750Y671049D02*
X639774D01*
X601750Y670599D02*
X639774D01*
X601750Y670149D02*
X639774D01*
X601750Y669699D02*
X639774D01*
X601750Y669249D02*
X639774D01*
X610992Y668799D02*
X639774D01*
X612032Y668349D02*
X639774D01*
X612621Y667899D02*
X639774D01*
X613034Y667449D02*
X639774D01*
X613337Y666999D02*
X639774D01*
X613558Y666549D02*
X639774D01*
X613712Y666099D02*
X639774D01*
X613808Y665649D02*
X639774D01*
X613848Y665199D02*
X639774D01*
X613836Y664749D02*
X639774D01*
X633695Y664299D02*
X639774D01*
X634215Y663849D02*
X639774D01*
X634456Y663399D02*
X639774D01*
X634546Y662949D02*
X639774D01*
X634510Y662499D02*
X639774D01*
X634339Y662049D02*
X639774D01*
X633970Y661599D02*
X639774D01*
X627102Y661149D02*
X639774D01*
X626525Y660699D02*
X639774D01*
X601750Y660249D02*
X639774D01*
X601750Y659799D02*
X639774D01*
X601750Y659349D02*
X639774D01*
X610480Y658899D02*
X639774D01*
X611862Y658449D02*
X639774D01*
X612509Y657999D02*
X639774D01*
X612953Y657549D02*
X639774D01*
X613278Y657099D02*
X639774D01*
X613515Y656649D02*
X639774D01*
X613684Y656199D02*
X639774D01*
X613791Y655749D02*
X639774D01*
X623181Y655299D02*
X639774D01*
X623545Y654849D02*
X639774D01*
X627551Y622899D02*
X639713D01*
X613575Y683649D02*
X639669D01*
X632369Y726849D02*
X639607D01*
X622514Y719649D02*
X639222D01*
X601750Y603999D02*
X639220D01*
X615504Y606249D02*
X639164D01*
X632448Y727299D02*
X639157D01*
X637452Y636399D02*
X639128D01*
X632090Y626049D02*
X639083D01*
X631519Y623349D02*
X638987D01*
X601750Y604449D02*
X638907D01*
X615339Y605799D02*
X638880D01*
X633324Y680499D02*
X638821D01*
X637207Y635949D02*
X638779D01*
X614284Y604899D02*
X638768D01*
X615010Y605349D02*
X638760D01*
X632333Y625599D02*
X638708D01*
X632044Y623799D02*
X638658D01*
X632301Y720099D02*
X638630D01*
X632668Y727749D02*
X638628D01*
X637630Y634599D02*
X638605D01*
X637187Y635499D02*
X638603D01*
X637495Y635049D02*
X638549D01*
X632438Y625149D02*
X638516D01*
X613360Y683199D02*
X638516D01*
X632309Y624249D02*
X638493D01*
X632431Y624699D02*
X638449D01*
X632782Y720549D02*
X638364D01*
X633572Y680949D02*
X638290D01*
X634581Y721449D02*
X638275D01*
X633029Y720999D02*
X638256D01*
X633110Y682749D02*
X638153D01*
X633666Y681399D02*
X638045D01*
X633469Y682299D02*
X637985D01*
X633635Y681849D02*
X637952D01*
X601750Y630999D02*
X637747D01*
X633164Y710649D02*
X637716D01*
X621839Y713799D02*
X637519D01*
X611796Y631449D02*
X637073D01*
X633644Y711099D02*
X636920D01*
X633321Y713349D02*
X636864D01*
X612508Y631899D02*
X636784D01*
X612992Y632349D02*
X636661D01*
X633869Y711549D02*
X636607D01*
X633716Y712899D02*
X636580D01*
X633948Y711999D02*
X636468D01*
X633901Y712449D02*
X636460D01*
X601750Y639999D02*
X636028D01*
X601750Y639549D02*
X635661D01*
X610492Y639099D02*
X635492D01*
X613347Y632799D02*
X635447D01*
X611913Y638649D02*
X635443D01*
X601750Y700749D02*
X635300D01*
X612450Y698049D02*
X634871D01*
X612582Y638199D02*
X634816D01*
X629441Y635499D02*
X634793D01*
X613613Y633249D02*
X634773D01*
X601750Y700299D02*
X634722D01*
X629422Y635949D02*
X634590D01*
X611768Y698499D02*
X634531D01*
X629334Y635049D02*
X634502D01*
X613808Y633699D02*
X634484D01*
X601750Y699849D02*
X634460D01*
X613045Y637749D02*
X634453D01*
X601750Y698949D02*
X634377D01*
X629067Y634599D02*
X634367D01*
X628475Y634149D02*
X634361D01*
X601750Y699399D02*
X634355D01*
X629271Y636399D02*
X634345D01*
X627928Y637299D02*
X634285D01*
X628936Y636849D02*
X634252D01*
X633149Y721449D02*
X633816D01*
X613820Y724599D02*
X633619D01*
X613736Y724149D02*
X632964D01*
X613594Y723699D02*
X632680D01*
X611668Y648549D02*
X632581D01*
X632238Y723249D02*
X632454D01*
X630651Y651699D02*
X632143D01*
X613770Y664299D02*
X632102D01*
X601750Y648999D02*
X631939D01*
X615638Y613449D02*
X631861D01*
X627388Y661599D02*
X631827D01*
X612225Y610299D02*
X631796D01*
X630873Y651249D02*
X631739D01*
X630308Y649449D02*
X631633D01*
X626788Y663849D02*
X631582D01*
X630948Y650799D02*
X631531D01*
X630710Y649899D02*
X631483D01*
X627523Y662049D02*
X631458D01*
X630898Y650349D02*
X631451D01*
X622072Y710649D02*
X631433D01*
X615631Y612999D02*
X631345D01*
X627225Y663399D02*
X631341D01*
X611788Y610749D02*
X631315D01*
X627543Y662499D02*
X631287D01*
X622406Y713349D02*
X631276D01*
X601750Y680049D02*
X631254D01*
X627450Y662949D02*
X631251D01*
X615509Y612549D02*
X631084D01*
X601750Y611199D02*
X631068D01*
X615244Y612099D02*
X630965D01*
X614719Y611649D02*
X630960D01*
X622515Y711099D02*
X630953D01*
X613065Y682749D02*
X630930D01*
X622688Y712899D02*
X630881D01*
X622743Y711549D02*
X630728D01*
X601750Y680499D02*
X630716D01*
X622821Y712449D02*
X630697D01*
X622838Y711999D02*
X630650D01*
X624577Y735399D02*
X630649D01*
X613848Y734949D02*
X630649D01*
X613806Y734499D02*
X630649D01*
X613710Y734049D02*
X630649D01*
X613554Y733599D02*
X630649D01*
X613331Y733149D02*
X630649D01*
X613026Y732699D02*
X630649D01*
X612610Y732249D02*
X630649D01*
X612016Y731799D02*
X630649D01*
X610954Y731349D02*
X630649D01*
X601750Y730899D02*
X630649D01*
X601750Y730449D02*
X630649D01*
X601750Y729999D02*
X630649D01*
X619847Y729549D02*
X630649D01*
X620669Y729099D02*
X630622D01*
X627608Y735849D02*
X630602D01*
X612663Y682299D02*
X630571D01*
X601750Y680949D02*
X630468D01*
X612095Y681849D02*
X630405D01*
X611131Y681399D02*
X630374D01*
X613387Y723249D02*
X630361D01*
X621435Y720099D02*
X630296D01*
X628010Y736299D02*
X630157D01*
X625384Y784899D02*
X629950D01*
X614001Y784449D02*
X629950D01*
X613903Y783999D02*
X629950D01*
X621421Y783549D02*
X629950D01*
X621816Y783099D02*
X629950D01*
X622001Y782649D02*
X629950D01*
X622048Y782199D02*
X629950D01*
X621969Y781749D02*
X629950D01*
X621744Y781299D02*
X629950D01*
X626497Y780849D02*
X629950D01*
X627076Y780399D02*
X629950D01*
X627338Y779949D02*
X629950D01*
X627442Y779499D02*
X629950D01*
X627420Y779049D02*
X629950D01*
X627266Y778599D02*
X629950D01*
X626926Y778149D02*
X629950D01*
X612821Y777699D02*
X629950D01*
X613180Y777249D02*
X629950D01*
X613444Y776799D02*
X629950D01*
X613635Y776349D02*
X629950D01*
X613762Y775899D02*
X629950D01*
X613832Y775449D02*
X629950D01*
X613849Y774999D02*
X629950D01*
X613813Y774549D02*
X629950D01*
X613723Y774099D02*
X629950D01*
X613575Y773649D02*
X629950D01*
X613360Y773199D02*
X629950D01*
X613065Y772749D02*
X629950D01*
X612663Y772299D02*
X629950D01*
X612095Y771849D02*
X629950D01*
X611131Y771399D02*
X629950D01*
X628278Y770949D02*
X629950D01*
X628728Y770499D02*
X629950D01*
X629178Y770049D02*
X629950D01*
X625524Y725949D02*
X629933D01*
X613102Y722799D02*
X629845D01*
X601750Y720549D02*
X629815D01*
X624721Y728649D02*
X629776D01*
X628198Y736749D02*
X629707D01*
X627080Y623349D02*
X629679D01*
X612715Y722349D02*
X629584D01*
X613793Y626499D02*
X629581D01*
X601750Y720999D02*
X629568D01*
X612170Y721899D02*
X629465D01*
X611283Y721449D02*
X629460D01*
X625813Y726399D02*
X629453D01*
X613837Y645399D02*
X629402D01*
X625487Y728199D02*
X629381D01*
X601750Y618399D02*
X629272D01*
X628248Y737199D02*
X629257D01*
X625936Y726849D02*
X629228D01*
X625795Y727749D02*
X629197D01*
X613832Y685449D02*
X629193D01*
X621281Y623799D02*
X629153D01*
X601750Y689049D02*
X629151D01*
X625930Y727299D02*
X629150D01*
X613026Y642699D02*
X629127D01*
X613932Y626049D02*
X629107D01*
X627798Y621549D02*
X629009D01*
X613964Y624249D02*
X628888D01*
X613848Y644949D02*
X628882D01*
X614017Y625599D02*
X628865D01*
X628173Y737649D02*
X628807D01*
X614032Y624699D02*
X628766D01*
X614049Y625149D02*
X628759D01*
X613331Y643149D02*
X628758D01*
X610731Y691299D02*
X628757D01*
X613695Y693999D02*
X628743D01*
X601750Y618849D02*
X628695D01*
X613806Y644499D02*
X628641D01*
X613554Y643599D02*
X628587D01*
X627610Y621099D02*
X628572D01*
X613710Y644049D02*
X628551D01*
X612498Y652149D02*
X628417D01*
X601750Y619299D02*
X628410D01*
X627951Y738099D02*
X628394D01*
X627480Y738549D02*
X628375D01*
X627640Y766449D02*
X628374D01*
X627101Y765999D02*
X628374D01*
X614221Y765549D02*
X628374D01*
X613851Y765099D02*
X628374D01*
X613826Y764649D02*
X628374D01*
X613748Y764199D02*
X628374D01*
X613613Y763749D02*
X628374D01*
X613414Y763299D02*
X628374D01*
X613138Y762849D02*
X628374D01*
X612764Y762399D02*
X628374D01*
X624980Y761949D02*
X628374D01*
X625451Y761499D02*
X628374D01*
X625673Y761049D02*
X628374D01*
X625748Y760599D02*
X628374D01*
X625698Y760149D02*
X628374D01*
X625510Y759699D02*
X628374D01*
X625108Y759249D02*
X628374D01*
X610992Y758799D02*
X628374D01*
X612032Y758349D02*
X628374D01*
X612621Y757899D02*
X628374D01*
X613034Y757449D02*
X628374D01*
X613337Y756999D02*
X628374D01*
X613558Y756549D02*
X628374D01*
X613712Y756099D02*
X628374D01*
X613808Y755649D02*
X628374D01*
X613848Y755199D02*
X628374D01*
X613836Y754749D02*
X628374D01*
X613770Y754299D02*
X628374D01*
X613648Y753849D02*
X628374D01*
X625769Y749349D02*
X628374D01*
X625544Y748899D02*
X628374D01*
X625064Y748449D02*
X628374D01*
X612509Y747999D02*
X628374D01*
X612953Y747549D02*
X628374D01*
X613278Y747099D02*
X628374D01*
X613515Y746649D02*
X628374D01*
X613684Y746199D02*
X628374D01*
X613791Y745749D02*
X628374D01*
X613844Y745299D02*
X628374D01*
X613843Y744849D02*
X628374D01*
X613789Y744399D02*
X628374D01*
X613680Y743949D02*
X628374D01*
X613511Y743499D02*
X628374D01*
X613271Y743049D02*
X628374D01*
X612945Y742599D02*
X628374D01*
X612498Y742149D02*
X628374D01*
X618816Y741699D02*
X628374D01*
X619290Y741249D02*
X628374D01*
X619533Y740799D02*
X628374D01*
X619638Y740349D02*
X628374D01*
X619631Y739899D02*
X628374D01*
X619509Y739449D02*
X628374D01*
X619244Y738999D02*
X628374D01*
X613464Y753399D02*
X628370D01*
X627888Y766899D02*
X628359D01*
X627208Y620649D02*
X628347D01*
X613762Y685899D02*
X628339D01*
X625848Y749799D02*
X628336D01*
X611560Y688599D02*
X628328D01*
X611932Y691749D02*
X628319D01*
X613533Y693549D02*
X628312D01*
X601750Y649449D02*
X628289D01*
X601750Y619749D02*
X628274D01*
X601750Y620199D02*
X628254D01*
X612555Y692199D02*
X628113D01*
X613302Y693099D02*
X628110D01*
X612986Y692649D02*
X628049D01*
X613635Y686349D02*
X627985D01*
X612323Y688149D02*
X627979D01*
X611843Y651699D02*
X627946D01*
X601750Y649899D02*
X627887D01*
X613444Y686799D02*
X627805D01*
X612821Y687699D02*
X627803D01*
X613180Y687249D02*
X627749D01*
X610392Y651249D02*
X627725D01*
X601750Y650349D02*
X627699D01*
X613387Y637299D02*
X627670D01*
X601750Y650799D02*
X627649D01*
X613942Y634149D02*
X627122D01*
X613207Y752949D02*
X627017D01*
X625801Y750249D02*
X626889D01*
X613643Y636849D02*
X626661D01*
X612858Y752499D02*
X626546D01*
X614021Y634599D02*
X626530D01*
X625616Y750699D02*
X626487D01*
X613829Y636399D02*
X626326D01*
X612375Y752049D02*
X626325D01*
X625221Y751149D02*
X626299D01*
X614050Y635049D02*
X626264D01*
X621554Y751599D02*
X626249D01*
X613955Y635949D02*
X626175D01*
X614028Y635499D02*
X626156D01*
X618719Y738549D02*
X625717D01*
X625107Y735849D02*
X625589D01*
X614671Y765999D02*
X625572D01*
X621645Y623349D02*
X625317D01*
X624881Y738099D02*
X625243D01*
X601750Y620649D02*
X625189D01*
X621264Y780849D02*
X625100D01*
X615121Y766449D02*
X625033D01*
X617371Y768699D02*
X625000D01*
X616921Y768249D02*
X624887D01*
X601750Y660699D02*
X624872D01*
X621812Y622899D02*
X624846D01*
X620977Y621099D02*
X624787D01*
X615571Y766899D02*
X624785D01*
X616471Y767799D02*
X624722D01*
X616021Y767349D02*
X624690D01*
X612323Y778149D02*
X624671D01*
X621845Y622449D02*
X624625D01*
X613648Y663849D02*
X624609D01*
X621507Y621549D02*
X624599D01*
X621752Y621999D02*
X624549D01*
X601750Y780399D02*
X624522D01*
X611560Y778599D02*
X624331D01*
X601750Y661149D02*
X624295D01*
X601750Y779949D02*
X624260D01*
X614046Y784899D02*
X624213D01*
X601750Y779049D02*
X624177D01*
X613464Y663399D02*
X624172D01*
X601750Y779499D02*
X624155D01*
X611647Y661599D02*
X624010D01*
X613207Y662949D02*
X623947D01*
X621018Y728649D02*
X623876D01*
X612375Y662049D02*
X623874D01*
X612858Y662499D02*
X623854D01*
X613827Y725499D02*
X623747D01*
X621117Y748449D02*
X623333D01*
X612242Y761949D02*
X623217D01*
X621958Y751149D02*
X623176D01*
X621194Y728199D02*
X623111D01*
X601750Y759249D02*
X623089D01*
X619804Y725949D02*
X623073D01*
X613837Y735399D02*
X623021D01*
X621758Y748899D02*
X622853D01*
X621249Y727749D02*
X622802D01*
X620658Y726399D02*
X622784D01*
X622167Y750699D02*
X622781D01*
X611416Y761499D02*
X622746D01*
X612388Y738099D02*
X622716D01*
X601750Y759699D02*
X622687D01*
X621192Y727299D02*
X622667D01*
X621012Y726849D02*
X622661D01*
X622064Y749349D02*
X622628D01*
X601750Y761049D02*
X622525D01*
X601750Y760149D02*
X622499D01*
X613772Y735849D02*
X622490D01*
X601750Y760599D02*
X622449D01*
X612867Y737649D02*
X622353D01*
X613652Y736299D02*
X622245D01*
X613214Y737199D02*
X622185D01*
X613469Y736749D02*
X622152D01*
X612945Y652599D02*
X621321D01*
X601750Y720099D02*
X621162D01*
X613844Y655299D02*
X621016D01*
X613665Y703899D02*
X620942D01*
X613271Y653049D02*
X620790D01*
X613579Y716499D02*
X620713D01*
X613843Y654849D02*
X620653D01*
X613511Y653499D02*
X620545D01*
X601750Y701199D02*
X620506D01*
X613789Y654399D02*
X620485D01*
X613680Y653949D02*
X620452D01*
X613488Y703449D02*
X620360D01*
X611749Y701649D02*
X620167D01*
X613631Y713799D02*
X620150D01*
X613240Y702999D02*
X620097D01*
X601750Y719649D02*
X620083D01*
X611949Y708399D02*
X620061D01*
X612438Y702099D02*
X620014D01*
X612902Y702549D02*
X619992D01*
X613846Y705249D02*
X619989D01*
X613365Y716949D02*
X619987D01*
X601750Y710649D02*
X619917D01*
X601750Y719199D02*
X619708D01*
X611862Y748449D02*
X619681D01*
X613073Y717399D02*
X619658D01*
X613439Y713349D02*
X619583D01*
X612566Y707949D02*
X619543D01*
X601750Y780849D02*
X619533D01*
X611164Y718749D02*
X619516D01*
X613800Y705699D02*
X619509D01*
X612674Y717849D02*
X619493D01*
X601750Y711099D02*
X619474D01*
X612111Y718299D02*
X619449D01*
X610750Y621099D02*
X619421D01*
X613750Y783549D02*
X619376D01*
X613173Y712899D02*
X619302D01*
X612994Y707499D02*
X619281D01*
X613698Y706149D02*
X619264D01*
X611537Y711549D02*
X619246D01*
X611647Y751599D02*
X619243D01*
X612812Y712449D02*
X619168D01*
X613308Y707049D02*
X619161D01*
X613537Y706599D02*
X619156D01*
X612310Y711999D02*
X619151D01*
X613842Y623799D02*
X619116D01*
X611454Y781299D02*
X619053D01*
X610480Y748899D02*
X619039D01*
X613750Y725949D02*
X618993D01*
X613533Y783099D02*
X618981D01*
X601750Y729549D02*
X618951D01*
X611985Y621549D02*
X618890D01*
X601750Y751149D02*
X618839D01*
X612305Y781749D02*
X618828D01*
X613240Y782649D02*
X618797D01*
X613662Y623349D02*
X618753D01*
X612847Y782199D02*
X618750D01*
X601750Y749349D02*
X618733D01*
X612630Y621999D02*
X618645D01*
X601750Y750699D02*
X618631D01*
X613413Y622899D02*
X618585D01*
X601750Y749799D02*
X618583D01*
X613080Y622449D02*
X618552D01*
X601750Y750249D02*
X618551D01*
X613617Y726399D02*
X618139D01*
X601750Y729099D02*
X618128D01*
X613419Y726849D02*
X617785D01*
X611442Y728649D02*
X617779D01*
X613146Y727299D02*
X617605D01*
X612256Y728199D02*
X617603D01*
X612774Y727749D02*
X617549D01*
X611668Y738549D02*
X616879D01*
X611843Y741699D02*
X616781D01*
X601750Y738999D02*
X616353D01*
X610392Y741249D02*
X616307D01*
X601750Y739449D02*
X616088D01*
X601750Y770949D02*
X616086D01*
X601750Y740799D02*
X616065D01*
X601750Y739899D02*
X615966D01*
X601750Y740349D02*
X615959D01*
X601750Y770499D02*
X615636D01*
X601750Y770049D02*
X615186D01*
X601750Y769599D02*
X614736D01*
X601750Y769149D02*
X614286D01*
X611311Y768699D02*
X613836D01*
X612399Y608499D02*
X613562D01*
X612185Y768249D02*
X613386D01*
X601750Y604899D02*
X613113D01*
X601750Y611649D02*
X612879D01*
X612792Y767799D02*
X612867D01*
X605550Y614799D02*
X612781D01*
X601750Y605349D02*
X612387D01*
X601750Y612099D02*
X612353D01*
X601750Y614349D02*
X612307D01*
X601750Y612549D02*
X612088D01*
X601750Y613899D02*
X612065D01*
X604677Y605799D02*
X612058D01*
X601750Y612999D02*
X611966D01*
X601750Y613449D02*
X611959D01*
X611525Y607599D02*
X611939D01*
X605545Y607149D02*
X611916D01*
X605207Y606249D02*
X611893D01*
X605452Y606699D02*
X611849D01*
X605512Y607599D02*
X609872D01*
X601750Y610749D02*
X609609D01*
X601750Y741249D02*
X609608D01*
X601750Y651249D02*
X609608D01*
X601750Y748899D02*
X609520D01*
X601750Y658899D02*
X609520D01*
X601750Y639099D02*
X609508D01*
X605345Y608049D02*
X609295D01*
X601750Y691299D02*
X609269D01*
X601750Y621099D02*
X609250D01*
X601750Y708849D02*
X609219D01*
X601750Y610299D02*
X609172D01*
X601750Y731349D02*
X609046D01*
X601750Y641349D02*
X609046D01*
X604981Y608499D02*
X609010D01*
X601750Y758799D02*
X609008D01*
X601750Y668799D02*
X609008D01*
X601750Y609849D02*
X608947D01*
X601750Y608949D02*
X608874D01*
X601750Y771399D02*
X608869D01*
X601750Y681399D02*
X608869D01*
X601750Y609399D02*
X608854D01*
X601750Y718749D02*
X608836D01*
X601750Y721449D02*
X608717D01*
X601750Y678699D02*
X608689D01*
X601750Y768699D02*
X608689D01*
X601750Y671499D02*
X608584D01*
X601750Y761499D02*
X608584D01*
X601750Y728649D02*
X608558D01*
X601751Y781299D02*
X608546D01*
X601755Y711549D02*
X608463D01*
X601757Y778599D02*
X608440D01*
X601757Y688599D02*
X608440D01*
X601770Y751599D02*
X608353D01*
X601770Y661599D02*
X608353D01*
X601775Y738549D02*
X608332D01*
X601775Y648549D02*
X608332D01*
X601791Y628749D02*
X608287D01*
X601799Y701649D02*
X608251D01*
X601807Y698499D02*
X608232D01*
X601823Y631449D02*
X608204D01*
X601849Y741699D02*
X608157D01*
X601849Y651699D02*
X608157D01*
X601863Y748449D02*
X608138D01*
X601863Y658449D02*
X608138D01*
X601913Y638649D02*
X608087D01*
X601932Y691749D02*
X608068D01*
X601949Y708399D02*
X608051D01*
X601985Y621549D02*
X608015D01*
X602016Y731799D02*
X607984D01*
X602016Y641799D02*
X607984D01*
X602032Y758349D02*
X607968D01*
X602032Y668349D02*
X607968D01*
X602095Y771849D02*
X607905D01*
X602095Y681849D02*
X607905D01*
X602111Y718299D02*
X607889D01*
X602170Y721899D02*
X607830D01*
X602185Y678249D02*
X607815D01*
X602185Y768249D02*
X607815D01*
X602242Y671949D02*
X607758D01*
X602242Y761949D02*
X607758D01*
X602256Y728199D02*
X607744D01*
X602305Y781749D02*
X607695D01*
X602310Y711999D02*
X607690D01*
X602323Y778149D02*
X607677D01*
X602323Y688149D02*
X607677D01*
X602375Y752049D02*
X607625D01*
X602375Y662049D02*
X607625D01*
X602388Y738099D02*
X607612D01*
X602388Y648099D02*
X607612D01*
X602438Y702099D02*
X607562D01*
X602450Y698049D02*
X607550D01*
X602457Y628299D02*
X607543D01*
X602498Y742149D02*
X607502D01*
X602498Y652149D02*
X607502D01*
X602508Y631899D02*
X607492D01*
X602509Y747999D02*
X607491D01*
X602509Y657999D02*
X607491D01*
X602555Y692199D02*
X607445D01*
X602566Y707949D02*
X607434D01*
X602582Y638199D02*
X607418D01*
X602610Y732249D02*
X607390D01*
X602610Y642249D02*
X607390D01*
X602621Y757899D02*
X607379D01*
X602621Y667899D02*
X607379D01*
X602630Y621999D02*
X607370D01*
X602663Y772299D02*
X607337D01*
X602663Y682299D02*
X607337D01*
X602674Y717849D02*
X607326D01*
X602715Y722349D02*
X607285D01*
X602725Y677799D02*
X607275D01*
X602725Y767799D02*
X607275D01*
X602764Y672399D02*
X607236D01*
X602764Y762399D02*
X607236D01*
X602774Y727749D02*
X607226D01*
X602812Y712449D02*
X607188D01*
X602821Y777699D02*
X607179D01*
X602821Y687699D02*
X607179D01*
X602847Y782199D02*
X607153D01*
X602858Y752499D02*
X607142D01*
X602858Y662499D02*
X607142D01*
X602867Y737649D02*
X607133D01*
X602867Y647649D02*
X607133D01*
X602902Y702549D02*
X607098D01*
X602911Y697599D02*
X607089D01*
X602945Y742599D02*
X607055D01*
X602945Y652599D02*
X607055D01*
X602953Y747549D02*
X607047D01*
X602953Y657549D02*
X607047D01*
X602955Y627849D02*
X607045D01*
X602986Y692649D02*
X607014D01*
X602992Y632349D02*
X607008D01*
X602994Y707499D02*
X607006D01*
X603026Y732699D02*
X606974D01*
X603026Y642699D02*
X606974D01*
X603034Y757449D02*
X606966D01*
X603034Y667449D02*
X606966D01*
X603045Y637749D02*
X606955D01*
X603065Y772749D02*
X606935D01*
X603065Y682749D02*
X606935D01*
X603073Y717399D02*
X606927D01*
X603080Y622449D02*
X606920D01*
X603102Y722799D02*
X606898D01*
X603110Y677349D02*
X606890D01*
X603110Y767349D02*
X606890D01*
X603138Y672849D02*
X606862D01*
X603138Y762849D02*
X606862D01*
X603146Y727299D02*
X606854D01*
X603173Y712899D02*
X606827D01*
X603180Y777249D02*
X606820D01*
X603180Y687249D02*
X606820D01*
X603207Y752949D02*
X606793D01*
X603207Y662949D02*
X606793D01*
X603214Y737199D02*
X606786D01*
X603214Y647199D02*
X606786D01*
X603240Y702999D02*
X606760D01*
X603240Y782649D02*
X606760D01*
X603246Y697149D02*
X606754D01*
X603271Y743049D02*
X606729D01*
X603271Y653049D02*
X606729D01*
X603278Y747099D02*
X606722D01*
X603278Y657099D02*
X606722D01*
X603302Y693099D02*
X606698D01*
X603308Y707049D02*
X606692D01*
X603320Y627399D02*
X606680D01*
X603331Y733149D02*
X606669D01*
X603331Y643149D02*
X606669D01*
X603337Y756999D02*
X606663D01*
X603337Y666999D02*
X606663D01*
X603347Y632799D02*
X606653D01*
X603360Y773199D02*
X606640D01*
X603360Y683199D02*
X606640D01*
X603365Y716949D02*
X606635D01*
X603387Y723249D02*
X606613D01*
X603387Y637299D02*
X606613D01*
X603393Y676899D02*
X606607D01*
X603393Y766899D02*
X606607D01*
X603413Y622899D02*
X606587D01*
X603414Y673299D02*
X606586D01*
X603414Y763299D02*
X606586D01*
X603419Y726849D02*
X606581D01*
X603439Y713349D02*
X606561D01*
X603444Y776799D02*
X606556D01*
X603444Y686799D02*
X606556D01*
X603464Y753399D02*
X606536D01*
X603464Y663399D02*
X606536D01*
X603469Y736749D02*
X606531D01*
X603469Y646749D02*
X606531D01*
X603488Y703449D02*
X606512D01*
X603493Y696699D02*
X606507D01*
X603511Y743499D02*
X606489D01*
X603511Y653499D02*
X606489D01*
X603515Y746649D02*
X606485D01*
X603515Y656649D02*
X606485D01*
X603533Y693549D02*
X606467D01*
X603533Y783099D02*
X606467D01*
X603537Y706599D02*
X606463D01*
X603554Y733599D02*
X606446D01*
X603554Y643599D02*
X606446D01*
X603558Y756549D02*
X606442D01*
X603558Y666549D02*
X606442D01*
X603575Y773649D02*
X606425D01*
X603575Y683649D02*
X606425D01*
X603579Y716499D02*
X606421D01*
X603592Y626949D02*
X606408D01*
X603594Y723699D02*
X606406D01*
X603598Y676449D02*
X606402D01*
X603598Y766449D02*
X606402D01*
X603613Y633249D02*
X606387D01*
X603613Y673749D02*
X606387D01*
X603613Y763749D02*
X606387D01*
X603617Y726399D02*
X606383D01*
X603631Y713799D02*
X606369D01*
X603635Y776349D02*
X606365D01*
X603635Y686349D02*
X606365D01*
X603643Y636849D02*
X606357D01*
X603648Y753849D02*
X606352D01*
X603648Y663849D02*
X606352D01*
X603652Y736299D02*
X606348D01*
X603652Y646299D02*
X606348D01*
X603662Y623349D02*
X606338D01*
X603665Y703899D02*
X606335D01*
X603668Y696249D02*
X606332D01*
X603680Y743949D02*
X606320D01*
X603680Y653949D02*
X606320D01*
X603684Y746199D02*
X606316D01*
X603684Y656199D02*
X606316D01*
X603695Y693999D02*
X606305D01*
X603698Y706149D02*
X606302D01*
X603710Y734049D02*
X606290D01*
X603710Y644049D02*
X606290D01*
X603712Y756099D02*
X606288D01*
X603712Y666099D02*
X606288D01*
X603723Y774099D02*
X606277D01*
X603723Y684099D02*
X606277D01*
X603726Y716049D02*
X606274D01*
X603736Y724149D02*
X606264D01*
X603738Y675999D02*
X606262D01*
X603738Y765999D02*
X606262D01*
X603748Y674199D02*
X606252D01*
X603748Y764199D02*
X606252D01*
X603750Y783549D02*
X606250D01*
X603750Y725949D02*
X606250D01*
X603759Y714249D02*
X606241D01*
X603762Y775899D02*
X606238D01*
X603762Y685899D02*
X606238D01*
X603770Y754299D02*
X606230D01*
X603770Y664299D02*
X606230D01*
X603772Y735849D02*
X606228D01*
X603772Y645849D02*
X606228D01*
X603780Y704349D02*
X606220D01*
X603782Y695799D02*
X606218D01*
X603789Y744399D02*
X606211D01*
X603789Y654399D02*
X606211D01*
X603791Y745749D02*
X606209D01*
X603791Y655749D02*
X606209D01*
X603793Y626499D02*
X606207D01*
X603798Y694449D02*
X606202D01*
X603800Y705699D02*
X606200D01*
X603806Y734499D02*
X606194D01*
X603806Y644499D02*
X606194D01*
X603808Y755649D02*
X606192D01*
X603808Y665649D02*
X606192D01*
X603808Y633699D02*
X606192D01*
X603813Y774549D02*
X606187D01*
X603813Y684549D02*
X606187D01*
X603815Y715599D02*
X606185D01*
X603820Y724599D02*
X606180D01*
X603821Y675549D02*
X606179D01*
X603821Y765549D02*
X606179D01*
X603826Y674649D02*
X606174D01*
X603826Y764649D02*
X606174D01*
X603827Y725499D02*
X606173D01*
X603829Y636399D02*
X606171D01*
X603831Y714699D02*
X606169D01*
X603832Y775449D02*
X606168D01*
X603832Y685449D02*
X606168D01*
X603836Y754749D02*
X606164D01*
X603836Y664749D02*
X606164D01*
X603837Y735399D02*
X606163D01*
X603837Y645399D02*
X606163D01*
X603840Y704799D02*
X606160D01*
X603841Y695349D02*
X606159D01*
X603842Y623799D02*
X606158D01*
X603843Y744849D02*
X606157D01*
X603843Y654849D02*
X606157D01*
X603844Y745299D02*
X606156D01*
X603844Y655299D02*
X606156D01*
X603846Y694899D02*
X606154D01*
X603846Y705249D02*
X606154D01*
X603848Y734949D02*
X606152D01*
X603848Y644949D02*
X606152D01*
X603848Y755199D02*
X606152D01*
X603848Y665199D02*
X606152D01*
X603849Y774999D02*
X606151D01*
X603849Y684999D02*
X606151D01*
X603849Y715149D02*
X606151D01*
X603850Y725049D02*
X606150D01*
X603850Y675099D02*
X606150D01*
X603850Y765099D02*
X606150D01*
X603903Y783999D02*
X606097D01*
X603932Y626049D02*
X606068D01*
X603942Y634149D02*
X606058D01*
X603955Y635949D02*
X606045D01*
X603964Y624249D02*
X606036D01*
X604001Y784449D02*
X605999D01*
X604017Y625599D02*
X605983D01*
X604021Y634599D02*
X605979D01*
X604028Y635499D02*
X605972D01*
X604032Y624699D02*
X605968D01*
X604046Y784899D02*
X605954D01*
X604049Y625149D02*
X605951D01*
X604050Y635049D02*
X605950D01*
X601750Y617949D02*
X604576D01*
X601750Y614799D02*
X604447D01*
X601750Y617499D02*
X603811D01*
X601750Y615249D02*
X603773D01*
X601750Y617049D02*
X603502D01*
X601750Y615699D02*
X603484D01*
X601750Y616599D02*
X603367D01*
X601750Y616149D02*
X603361D01*
X601750Y605799D02*
X603121D01*
X601750Y608499D02*
X602816D01*
X601750Y606249D02*
X602590D01*
X601750Y608049D02*
X602453D01*
X601750Y606699D02*
X602345D01*
X601750Y607599D02*
X602285D01*
X601750Y607149D02*
X602252D01*
X696846Y752349D02*
X702449D01*
X696810Y751899D02*
X702449D01*
X696639Y751449D02*
X702449D01*
X696270Y750999D02*
X702449D01*
X680250Y750549D02*
X702449D01*
X688035Y750099D02*
X702449D01*
X688544Y749649D02*
X702449D01*
X688802Y749199D02*
X702449D01*
X688920Y748749D02*
X702449D01*
X688923Y748299D02*
X702449D01*
X688812Y747849D02*
X702449D01*
X688563Y747399D02*
X702449D01*
X688076Y746949D02*
X702449D01*
X680250Y746499D02*
X702449D01*
X680250Y746049D02*
X702449D01*
X680250Y745599D02*
X702449D01*
X680250Y745149D02*
X702449D01*
X680250Y744699D02*
X702449D01*
X680250Y744249D02*
X702449D01*
X680250Y743799D02*
X702449D01*
X680250Y743349D02*
X702449D01*
X680250Y742899D02*
X702449D01*
X680250Y742449D02*
X702449D01*
X680250Y741999D02*
X702449D01*
X680250Y741549D02*
X702449D01*
X680250Y741099D02*
X702449D01*
X680250Y740649D02*
X702449D01*
X680250Y740199D02*
X702449D01*
X680250Y739749D02*
X702449D01*
X680250Y739299D02*
X702449D01*
X680250Y738849D02*
X702449D01*
X680250Y738399D02*
X702449D01*
X680250Y737949D02*
X702449D01*
X680250Y737499D02*
X702449D01*
X680250Y737049D02*
X702449D01*
X680250Y736599D02*
X702449D01*
X680250Y736149D02*
X702449D01*
X680250Y735699D02*
X702449D01*
X680250Y735249D02*
X702449D01*
X680250Y734799D02*
X702449D01*
X680250Y734349D02*
X702449D01*
X680250Y733899D02*
X702449D01*
X680250Y733449D02*
X702449D01*
X680250Y732999D02*
X702449D01*
X691287Y732549D02*
X702449D01*
X691659Y732099D02*
X702449D01*
X691832Y731649D02*
X702449D01*
X691870Y731199D02*
X702449D01*
X691781Y730749D02*
X702449D01*
X686813Y727149D02*
X702449D01*
X686414Y726699D02*
X702449D01*
X685432Y726249D02*
X702449D01*
X685609Y725799D02*
X702449D01*
X685900Y725349D02*
X702449D01*
X700090Y724899D02*
X702449D01*
X700674Y724449D02*
X702449D01*
X700938Y723999D02*
X702449D01*
X701043Y723549D02*
X702449D01*
X701022Y723099D02*
X702449D01*
X700869Y722649D02*
X702449D01*
X700531Y722199D02*
X702449D01*
X684569Y721749D02*
X702449D01*
X684231Y721299D02*
X702449D01*
X660450Y720849D02*
X702449D01*
X660450Y720399D02*
X702449D01*
X660450Y719949D02*
X702449D01*
X660450Y719499D02*
X702449D01*
X663497Y719049D02*
X702449D01*
X664076Y718599D02*
X702449D01*
X664338Y718149D02*
X702449D01*
X674482Y717699D02*
X702449D01*
X674845Y717249D02*
X702449D01*
X675012Y716799D02*
X702449D01*
X675045Y716349D02*
X702449D01*
X674952Y715899D02*
X702449D01*
X674707Y715449D02*
X702449D01*
X674313Y714999D02*
X702449D01*
X674349Y714549D02*
X702449D01*
X674285Y714099D02*
X702449D01*
X674078Y713649D02*
X702449D01*
X674051Y713199D02*
X702449D01*
X674273Y712749D02*
X702449D01*
X674348Y712299D02*
X702449D01*
X674298Y711849D02*
X702449D01*
X674110Y711399D02*
X702449D01*
X673708Y710949D02*
X702449D01*
X673100Y710499D02*
X702449D01*
X673126Y710049D02*
X702449D01*
X673039Y709599D02*
X702449D01*
X672802Y709149D02*
X702449D01*
X672554Y708699D02*
X702449D01*
X674006Y708249D02*
X702449D01*
X674451Y707799D02*
X702449D01*
X674661Y707349D02*
X702449D01*
X674728Y706899D02*
X702449D01*
X674669Y706449D02*
X702449D01*
X674470Y705999D02*
X702449D01*
X683648Y705549D02*
X702449D01*
X684439Y705099D02*
X702449D01*
X684782Y704649D02*
X702449D01*
X684955Y704199D02*
X702449D01*
X685007Y703749D02*
X702449D01*
X684947Y703299D02*
X702449D01*
X684764Y702849D02*
X702449D01*
X684404Y702399D02*
X702449D01*
X683509Y701949D02*
X702449D01*
X673509Y701499D02*
X702449D01*
X673616Y701049D02*
X702449D01*
X673596Y700599D02*
X702449D01*
X673444Y700149D02*
X702449D01*
X673108Y699699D02*
X702449D01*
X702103Y727599D02*
X702295D01*
X688871D02*
X700375D01*
X691543Y730299D02*
X700211D01*
X689348Y728049D02*
X699892D01*
X691029Y729849D02*
X699817D01*
X689572Y728499D02*
X699666D01*
X689603Y729399D02*
X699633D01*
X689649Y728949D02*
X699587D01*
X694040Y724899D02*
X698710D01*
X694067Y722199D02*
X698269D01*
X694482Y724449D02*
X698126D01*
X694494Y722649D02*
X697931D01*
X694690Y723999D02*
X697862D01*
X694695Y723099D02*
X697778D01*
X694755Y723549D02*
X697757D01*
X680250Y750999D02*
X694127D01*
X690064Y751449D02*
X693758D01*
X690544Y751899D02*
X693587D01*
X690769Y752349D02*
X693551D01*
X686024Y724899D02*
X692170D01*
X684722Y722199D02*
X692143D01*
X686020Y724449D02*
X691728D01*
X684743Y722649D02*
X691716D01*
X685886Y723999D02*
X691520D01*
X684843Y723099D02*
X691515D01*
X685579Y723549D02*
X691455D01*
X680250Y732549D02*
X689157D01*
X680250Y732099D02*
X688785D01*
X680250Y731649D02*
X688612D01*
X680257Y730749D02*
X688592D01*
X680250Y731199D02*
X688574D01*
X680250Y751449D02*
X688334D01*
X680250Y751899D02*
X687853D01*
X680250Y752349D02*
X687628D01*
X680278Y730299D02*
X686982D01*
X680250Y729849D02*
X686585D01*
X680250Y750099D02*
X686135D01*
X680250Y746949D02*
X686094D01*
X680250Y749649D02*
X685626D01*
X680250Y747399D02*
X685607D01*
X680250Y749199D02*
X685368D01*
X680250Y747849D02*
X685358D01*
X680250Y748749D02*
X685250D01*
X680250Y748299D02*
X685247D01*
X680250Y729399D02*
X684525D01*
X671175Y726699D02*
X684361D01*
X680250Y728949D02*
X684050D01*
X654250Y727149D02*
X683987D01*
X671650Y726249D02*
X683847D01*
X680250Y728499D02*
X683827D01*
X656550Y727599D02*
X683800D01*
X680250Y728049D02*
X683751D01*
X671873Y725799D02*
X683166D01*
X671949Y725349D02*
X682875D01*
X673244Y701949D02*
X682805D01*
X671713Y724449D02*
X682755D01*
X671900Y724899D02*
X682751D01*
X674046Y705549D02*
X682666D01*
X671314Y723999D02*
X682410D01*
X660450Y721299D02*
X681969D01*
X679385Y702399D02*
X681910D01*
X679108Y705099D02*
X681875D01*
X659237Y723549D02*
X681826D01*
X660450Y721749D02*
X681631D01*
X659621Y723099D02*
X681562D01*
X679754Y702849D02*
X681550D01*
X679629Y704649D02*
X681532D01*
X660368Y722199D02*
X681478D01*
X660071Y722649D02*
X681457D01*
X679925Y703299D02*
X681367D01*
X679870Y704199D02*
X681359D01*
X679960Y703749D02*
X681307D01*
X661750Y705099D02*
X677518D01*
X672655Y702399D02*
X677241D01*
X661782Y704649D02*
X676997D01*
X667063Y702849D02*
X676872D01*
X662219Y704199D02*
X676756D01*
X663119Y703299D02*
X676701D01*
X662669Y703749D02*
X676666D01*
X664442Y717699D02*
X672316D01*
X661750Y705549D02*
X672109D01*
X661750Y708249D02*
X672010D01*
X664420Y717249D02*
X671953D01*
X664266Y716799D02*
X671785D01*
X663964Y716349D02*
X671752D01*
X664117Y715899D02*
X671731D01*
X661750Y707799D02*
X671704D01*
X661750Y705999D02*
X671686D01*
X661750Y707349D02*
X671494D01*
X661750Y706449D02*
X671486D01*
X661750Y706899D02*
X671428D01*
X664273Y713199D02*
X671346D01*
X664050Y713649D02*
X671319D01*
X664237Y715449D02*
X671312D01*
X667948Y702399D02*
X671291D01*
X664349Y712749D02*
X671125D01*
X663813Y714099D02*
X671113D01*
X664229Y714999D02*
X671110D01*
X664113Y711849D02*
X671069D01*
X664300Y712299D02*
X671049D01*
X664090Y714549D02*
X671049D01*
X667445Y699699D02*
X670838D01*
X668273Y701949D02*
X670702D01*
X661750Y708699D02*
X670661D01*
X668046Y700149D02*
X670502D01*
X668418Y701499D02*
X670437D01*
X663714Y711399D02*
X670419D01*
X668320Y700599D02*
X670350D01*
X668433Y701049D02*
X670330D01*
X661750Y709149D02*
X670153D01*
X661750Y710949D02*
X670043D01*
X661750Y709599D02*
X669916D01*
X661750Y710499D02*
X669869D01*
X661750Y710049D02*
X669830D01*
X654250Y726699D02*
X669425D01*
X659117Y723999D02*
X669286D01*
X654250Y726249D02*
X668950D01*
X658833Y724449D02*
X668887D01*
X654250Y725799D02*
X668727D01*
X658178Y724899D02*
X668700D01*
X654250Y725349D02*
X668651D01*
X663569Y702849D02*
X666521D01*
X664019Y702399D02*
X665636D01*
X664469Y701949D02*
X665311D01*
X660450Y719049D02*
X662100D01*
X656573Y720849D02*
X657950D01*
X657023Y720399D02*
X657950D01*
X657473Y719949D02*
X657916D01*
X656123Y721299D02*
X657885D01*
X655673Y721749D02*
X657216D01*
X654250Y724899D02*
X657019D01*
X655223Y722199D02*
X656420D01*
X654250Y724449D02*
X656364D01*
X654773Y722649D02*
X656107D01*
X654250Y723999D02*
X656080D01*
X654323Y723099D02*
X655968D01*
X654250Y723549D02*
X655960D01*
X654270Y727599D02*
X655447D01*
X701425Y695399D02*
X702449D01*
X690094Y694949D02*
X702449D01*
X689916Y694499D02*
X702449D01*
X689564Y694049D02*
X702449D01*
X688722Y693599D02*
X702449D01*
X691289Y689099D02*
X702449D01*
X691481Y688649D02*
X702449D01*
X691548Y688199D02*
X702449D01*
X697840Y687749D02*
X702449D01*
X698467Y687299D02*
X702449D01*
X691866Y683249D02*
X702449D01*
X695672Y678749D02*
X702449D01*
X694933Y678299D02*
X702449D01*
X692919Y677849D02*
X702449D01*
X692919Y677399D02*
X702449D01*
X692919Y676949D02*
X702449D01*
X692919Y676499D02*
X702449D01*
X692919Y676049D02*
X702449D01*
X692919Y675599D02*
X702449D01*
X692919Y675149D02*
X702449D01*
X692919Y674699D02*
X702449D01*
X692919Y674249D02*
X702449D01*
X692919Y673799D02*
X702449D01*
X692919Y673349D02*
X702449D01*
X692919Y672899D02*
X702449D01*
X692897Y672449D02*
X702449D01*
X692444Y667949D02*
X702449D01*
X692085Y667499D02*
X702449D01*
X692358Y667049D02*
X702449D01*
X694213Y666599D02*
X702449D01*
X694920Y666149D02*
X702449D01*
X695244Y665699D02*
X702449D01*
X692316Y682799D02*
X702420D01*
X702002Y695849D02*
X702395D01*
X695406Y665249D02*
X702393D01*
X688627Y693149D02*
X702354D01*
X692894Y668399D02*
X702311D01*
X695448Y664799D02*
X701944D01*
X695378Y664349D02*
X701494D01*
X693645Y671999D02*
X701284D01*
X690914Y689549D02*
X701281D01*
X695183Y663899D02*
X701044D01*
X696004Y679199D02*
X700972D01*
X689318Y692699D02*
X700843D01*
X692708Y682349D02*
X700709D01*
X693874Y668849D02*
X700695D01*
X689836Y689999D02*
X700639D01*
X694802Y663449D02*
X700594D01*
X694211Y671549D02*
X700577D01*
X689644Y692249D02*
X700439D01*
X696170Y679649D02*
X700395D01*
X698769Y686849D02*
X700361D01*
X689587Y690449D02*
X700333D01*
X694318Y669299D02*
X700314D01*
X691416Y683699D02*
X700296D01*
X694569Y681899D02*
X700272D01*
X694492Y671099D02*
X700253D01*
X689807Y691799D02*
X700231D01*
X689781Y690899D02*
X700183D01*
X689849Y691349D02*
X700151D01*
X653313Y662999D02*
X700144D01*
X694547Y669749D02*
X700119D01*
X696216Y680099D02*
X700110D01*
X694625Y670649D02*
X700091D01*
X694642Y670199D02*
X700049D01*
X695589Y681449D02*
X700047D01*
X696151Y680549D02*
X699974D01*
X695961Y680999D02*
X699954D01*
X698916Y686399D02*
X699845D01*
X690966Y684149D02*
X699815D01*
X692227Y695399D02*
X699772D01*
X653433Y662549D02*
X699694D01*
X698946Y685949D02*
X699584D01*
X698241Y684599D02*
X699568D01*
X698863Y685499D02*
X699465D01*
X698652Y685049D02*
X699460D01*
X653439Y662099D02*
X699244D01*
X692863Y695849D02*
X699195D01*
X693167Y696299D02*
X698910D01*
X653332Y661649D02*
X698794D01*
X693316Y696749D02*
X698774D01*
X693347Y697199D02*
X698754D01*
X693361Y697649D02*
X698748D01*
X667054Y661199D02*
X698344D01*
X667458Y660749D02*
X697889D01*
X695440Y687749D02*
X696357D01*
X692887Y681899D02*
X694165D01*
X691504Y687749D02*
X693957D01*
X692919Y678299D02*
X693800D01*
X690516Y684599D02*
X693556D01*
X691339Y687299D02*
X693330D01*
X689973Y685049D02*
X693145D01*
X691010Y686849D02*
X693028D01*
X692599Y666599D02*
X692984D01*
X686050Y685499D02*
X692934D01*
X690284Y686399D02*
X692881D01*
X686298Y685949D02*
X692852D01*
X683517Y663449D02*
X692395D01*
X684158Y663899D02*
X692014D01*
X691517Y664349D02*
X691741D01*
X690164Y695399D02*
X690773D01*
X684464Y664349D02*
X690081D01*
X688733Y697199D02*
X689653D01*
X676182Y697649D02*
X689639D01*
X684614Y664799D02*
X689439D01*
X684646Y665249D02*
X689133D01*
X686410Y686399D02*
X689113D01*
X684567Y665699D02*
X688983D01*
X684361Y666149D02*
X688951D01*
X686378Y686849D02*
X688387D01*
X683082Y689099D02*
X688108D01*
X686189Y687299D02*
X688058D01*
X682632Y689549D02*
X687972D01*
X683532Y688649D02*
X687916D01*
X685737Y687749D02*
X687893D01*
X676340Y697199D02*
X687867D01*
X683982Y688199D02*
X687849D01*
X685008Y693599D02*
X687728D01*
X680074Y693149D02*
X687396D01*
X674213Y660299D02*
X687275D01*
X685387Y694049D02*
X687036D01*
X684404Y696749D02*
X687034D01*
X674920Y659849D02*
X686833D01*
X682182Y689999D02*
X686792D01*
X685581Y694499D02*
X686684D01*
X685118Y696299D02*
X686683D01*
X679725Y692699D02*
X686682D01*
X675244Y659399D02*
X686589D01*
X675378Y658049D02*
X686540D01*
X685649Y694949D02*
X686506D01*
X685444Y695849D02*
X686505D01*
X675406Y658949D02*
X686470D01*
X675448Y658499D02*
X686454D01*
X685607Y695399D02*
X686450D01*
X681732Y690449D02*
X686413D01*
X679932Y692249D02*
X686356D01*
X681282Y690899D02*
X686219D01*
X680382Y691799D02*
X686193D01*
X680832Y691349D02*
X686151D01*
X676790Y696749D02*
X683196D01*
X680264Y693599D02*
X682592D01*
X677240Y696299D02*
X682482D01*
X680330Y694049D02*
X682213D01*
X679048Y695849D02*
X682156D01*
X663696Y663449D02*
X682081D01*
X680284Y694499D02*
X682019D01*
X679786Y695399D02*
X681993D01*
X680118Y694949D02*
X681951D01*
X664415Y663899D02*
X681439D01*
X664688Y666149D02*
X681236D01*
X664743Y664349D02*
X681133D01*
X664882Y665699D02*
X681031D01*
X664906Y664799D02*
X680983D01*
X664949Y665249D02*
X680951D01*
X677716Y695849D02*
X677912D01*
X667667Y660299D02*
X672984D01*
X667746Y659849D02*
X672277D01*
X667714Y659399D02*
X671953D01*
X666749Y658049D02*
X671819D01*
X667564Y658949D02*
X671791D01*
X667258Y658499D02*
X671749D01*
X664311Y666599D02*
X669324D01*
X663170Y667049D02*
X668696D01*
X641274Y667499D02*
X668246D01*
X664347Y667949D02*
X667796D01*
X664756Y668399D02*
X667346D01*
X664966Y668849D02*
X666896D01*
X665047Y669299D02*
X666446D01*
X665017Y669749D02*
X665996D01*
X664869Y670199D02*
X665546D01*
X664455Y661199D02*
X664743D01*
X663933Y671099D02*
X664233D01*
X659204Y671549D02*
X664196D01*
X660058Y671999D02*
X663751D01*
X660412Y672449D02*
X663484D01*
X660592Y672899D02*
X663395D01*
X662325Y686399D02*
X663394D01*
X662550Y685949D02*
X663394D01*
X662643Y685499D02*
X663394D01*
X662624Y685049D02*
X663394D01*
X662488Y684599D02*
X663394D01*
X662203Y684149D02*
X663394D01*
X661627Y683699D02*
X663394D01*
X648085Y683249D02*
X663394D01*
X647998Y682799D02*
X663394D01*
X660947Y682349D02*
X663394D01*
X661769Y681899D02*
X663394D01*
X662118Y681449D02*
X663394D01*
X662294Y680999D02*
X663394D01*
X662349Y680549D02*
X663394D01*
X662292Y680099D02*
X663394D01*
X662112Y679649D02*
X663394D01*
X661758Y679199D02*
X663394D01*
X660904Y678749D02*
X663394D01*
X641274Y678299D02*
X663394D01*
X641274Y677849D02*
X663394D01*
X641274Y677399D02*
X663394D01*
X641274Y676949D02*
X663394D01*
X641274Y676499D02*
X663394D01*
X641274Y676049D02*
X663394D01*
X641274Y675599D02*
X663394D01*
X659247Y675149D02*
X663394D01*
X660069Y674699D02*
X663394D01*
X660418Y674249D02*
X663394D01*
X660594Y673799D02*
X663394D01*
X660649Y673349D02*
X663394D01*
X641274Y667049D02*
X663030D01*
X662146Y686849D02*
X662840D01*
X653050Y663449D02*
X662504D01*
X652685Y671099D02*
X662467D01*
X659743Y661199D02*
X662143D01*
X652434Y667949D02*
X662053D01*
X641274Y666599D02*
X661889D01*
X653124Y670649D02*
X661835D01*
X652531Y663899D02*
X661785D01*
X660887Y660749D02*
X661739D01*
X653007Y668399D02*
X661644D01*
X653350Y670199D02*
X661531D01*
X641274Y666149D02*
X661512D01*
X641274Y664349D02*
X661457D01*
X653291Y668849D02*
X661434D01*
X653444Y669749D02*
X661383D01*
X653425Y669299D02*
X661353D01*
X641274Y665699D02*
X661318D01*
X641274Y664799D02*
X661294D01*
X641274Y665249D02*
X661251D01*
X641274Y678749D02*
X660093D01*
X659040Y682349D02*
X660051D01*
X648060Y683699D02*
X659971D01*
X641274Y686849D02*
X659666D01*
X644143Y689999D02*
X659467D01*
X653087Y661199D02*
X659454D01*
X641274Y687299D02*
X659439D01*
X647919Y684149D02*
X659395D01*
X641274Y686399D02*
X659273D01*
X641274Y689549D02*
X659239D01*
X653097Y693149D02*
X659161D01*
X641274Y656699D02*
X659155D01*
X641274Y687749D02*
X659133D01*
X647625Y684599D02*
X659110D01*
X644577Y690449D02*
X659059D01*
X641274Y685949D02*
X659048D01*
X641274Y689099D02*
X659031D01*
X652919Y692699D02*
X659003D01*
X641274Y688199D02*
X658983D01*
X647023Y685049D02*
X658974D01*
X641274Y685499D02*
X658955D01*
X641274Y688649D02*
X658951D01*
X644800Y690899D02*
X658791D01*
X652569Y692249D02*
X658763D01*
X653152Y693599D02*
X658722D01*
X641274Y657149D02*
X658705D01*
X644892Y691349D02*
X658668D01*
X651736Y691799D02*
X658659D01*
X641274Y671549D02*
X658393D01*
X641274Y675149D02*
X658351D01*
X653288Y660749D02*
X658311D01*
X653096Y694049D02*
X658272D01*
X653025Y657599D02*
X658255D01*
X653725Y660299D02*
X657898D01*
X653602Y658049D02*
X657872D01*
X652917Y694499D02*
X657822D01*
X653950Y659849D02*
X657670D01*
X653888Y658499D02*
X657656D01*
X654043Y659399D02*
X657563D01*
X654023Y658949D02*
X657559D01*
X652688Y682349D02*
X657557D01*
X641274Y671999D02*
X657539D01*
X641274Y674699D02*
X657528D01*
X652565Y694949D02*
X657372D01*
X641274Y672449D02*
X657185D01*
X641274Y674249D02*
X657179D01*
X652425Y679199D02*
X657156D01*
X641274Y672899D02*
X657005D01*
X641274Y673799D02*
X657003D01*
X641274Y673349D02*
X656949D01*
X653125Y681899D02*
X656930D01*
X651722Y695399D02*
X656922D01*
X653002Y679649D02*
X656745D01*
X653350Y681449D02*
X656628D01*
X653288Y680099D02*
X656534D01*
X653443Y680999D02*
X656481D01*
X648105Y695849D02*
X656472D01*
X653423Y680549D02*
X656452D01*
X647970Y696299D02*
X656022D01*
X647687Y696749D02*
X655572D01*
X647113Y697199D02*
X655122D01*
X646851Y697649D02*
X654672D01*
X644141Y657599D02*
X651372D01*
X648124Y695399D02*
X650882D01*
X644871Y691799D02*
X650868D01*
X644552Y658049D02*
X650795D01*
X641274Y679199D02*
X650772D01*
X641274Y667949D02*
X650766D01*
X641274Y663899D02*
X650669D01*
X641274Y671099D02*
X650515D01*
X644763Y658499D02*
X650510D01*
X647780Y682349D02*
X650509D01*
X644846Y658949D02*
X650374D01*
X641274Y679649D02*
X650195D01*
X641274Y668399D02*
X650193D01*
X641274Y663449D02*
X650150D01*
X641274Y670649D02*
X650076D01*
X647357Y681899D02*
X650072D01*
X648031Y694949D02*
X650039D01*
X644734Y692249D02*
X650035D01*
X641274Y680099D02*
X649910D01*
X641274Y668849D02*
X649909D01*
X641274Y670199D02*
X649850D01*
X641378Y681449D02*
X649847D01*
X641274Y669299D02*
X649775D01*
X641274Y680549D02*
X649774D01*
X641274Y662999D02*
X649758D01*
X641274Y669749D02*
X649756D01*
X641274Y680999D02*
X649754D01*
X647804Y694499D02*
X649687D01*
X644447Y692699D02*
X649685D01*
X647365Y694049D02*
X649508D01*
X643864Y693149D02*
X649507D01*
X641274Y693599D02*
X649452D01*
X644816Y659399D02*
X649313D01*
X641274Y662549D02*
X648683D01*
X644669Y659849D02*
X648587D01*
X641274Y662099D02*
X648308D01*
X644367Y660299D02*
X648258D01*
X641274Y661649D02*
X648116D01*
X643740Y660749D02*
X648093D01*
X641274Y661199D02*
X648049D01*
X641323Y697649D02*
X645709D01*
X641274Y685049D02*
X645455D01*
X641274Y697199D02*
X645447D01*
X641274Y694049D02*
X645195D01*
X641448Y681899D02*
X645121D01*
X641274Y696749D02*
X644873D01*
X641274Y684599D02*
X644853D01*
X641274Y694499D02*
X644756D01*
X641406Y682349D02*
X644698D01*
X641274Y696299D02*
X644590D01*
X641274Y684149D02*
X644559D01*
X641274Y694949D02*
X644529D01*
X641274Y682799D02*
X644480D01*
X641274Y695849D02*
X644455D01*
X641274Y695399D02*
X644436D01*
X641274Y683699D02*
X644418D01*
X641274Y683249D02*
X644393D01*
X641274Y660749D02*
X642257D01*
X641274Y693149D02*
X642230D01*
X641274Y689999D02*
X641951D01*
X641277Y657599D02*
X641856D01*
X641441Y692699D02*
X641607D01*
X641515Y660299D02*
X641532D01*
X693725Y780799D02*
X702449D01*
X685547Y780349D02*
X702449D01*
X686369Y779899D02*
X702449D01*
X686718Y779449D02*
X702449D01*
X686894Y778999D02*
X702449D01*
X686949Y778549D02*
X702449D01*
X686892Y778099D02*
X702449D01*
X686712Y777649D02*
X702449D01*
X686358Y777199D02*
X702449D01*
X685504Y776749D02*
X702449D01*
X659583Y776299D02*
X702449D01*
X659202Y775849D02*
X702449D01*
X698921Y775399D02*
X702449D01*
X699792Y774949D02*
X702449D01*
X700148Y774499D02*
X702449D01*
X700330Y774049D02*
X702449D01*
X700388Y773599D02*
X702449D01*
X700335Y773149D02*
X702449D01*
X676518Y768649D02*
X702449D01*
X687236Y768199D02*
X702449D01*
X688314Y767749D02*
X702449D01*
X688689Y767299D02*
X702449D01*
X688881Y766849D02*
X702449D01*
X688948Y766399D02*
X702449D01*
X688904Y765949D02*
X702449D01*
X694813Y765499D02*
X702449D01*
X695520Y765049D02*
X702449D01*
X701445Y764599D02*
X702449D01*
X701674Y761449D02*
X702449D01*
X685684Y760999D02*
X702449D01*
X675323Y760549D02*
X702449D01*
X675188Y760099D02*
X702449D01*
X674902Y759649D02*
X702449D01*
X674325Y759199D02*
X702449D01*
X671725Y758749D02*
X702449D01*
X671742Y758299D02*
X702449D01*
X671647Y757849D02*
X702449D01*
X671418Y757399D02*
X702449D01*
X684036Y756949D02*
X702449D01*
X684552Y756499D02*
X702449D01*
X684813Y756049D02*
X702449D01*
X684932Y755599D02*
X702449D01*
X684937Y755149D02*
X702449D01*
X689336Y754699D02*
X702449D01*
X694302Y781249D02*
X702446D01*
X702011Y764149D02*
X702386D01*
X702036Y772699D02*
X702288D01*
X700159D02*
X701762D01*
X676169Y769099D02*
X701313D01*
X699813Y772249D02*
X700683D01*
X675347Y769549D02*
X700587D01*
X699005Y771799D02*
X700308D01*
X667732Y769999D02*
X700258D01*
X694588Y781699D02*
X700256D01*
X696226Y771349D02*
X700116D01*
X667613Y770449D02*
X700093D01*
X695800Y770899D02*
X700049D01*
X694723Y782149D02*
X699845D01*
X638883Y784399D02*
X699779D01*
X695844Y764599D02*
X699752D01*
X693988Y783949D02*
X699728D01*
X694743Y782599D02*
X699634D01*
X694425Y783499D02*
X699581D01*
X694650Y783049D02*
X699552D01*
X639078Y784849D02*
X699550D01*
X689817Y761449D02*
X699523D01*
X696006Y764149D02*
X699186D01*
X690458Y761899D02*
X699079D01*
X696048Y763699D02*
X698905D01*
X695402Y762349D02*
X698850D01*
X695978Y763249D02*
X698772D01*
X695783Y762799D02*
X698755D01*
X643494Y775399D02*
X698155D01*
X696446Y771799D02*
X698070D01*
X693588Y774949D02*
X697283D01*
X696534Y772249D02*
X697262D01*
X694025Y774499D02*
X696927D01*
X695483Y774049D02*
X696746D01*
X696079Y773599D02*
X696688D01*
X688739Y765499D02*
X693584D01*
X667352Y770899D02*
X693577D01*
X666836Y771349D02*
X693151D01*
X690764Y762349D02*
X692995D01*
X688722Y765049D02*
X692877D01*
X690914Y762799D02*
X692614D01*
X690254Y764599D02*
X692553D01*
X690946Y763249D02*
X692419D01*
X690658Y764149D02*
X692391D01*
X690867Y763699D02*
X692349D01*
X676391Y780799D02*
X692072D01*
X675993Y783949D02*
X691809D01*
X685441Y771799D02*
X691672D01*
X676758Y781249D02*
X691495D01*
X685040Y774949D02*
X691409D01*
X676598Y783499D02*
X691372D01*
X676975Y781699D02*
X691210D01*
X676894Y783049D02*
X691147D01*
X685852Y772249D02*
X691095D01*
X677062Y782149D02*
X691074D01*
X677036Y782599D02*
X691054D01*
X685667Y774499D02*
X690972D01*
X686063Y772699D02*
X690810D01*
X685969Y774049D02*
X690747D01*
X686146Y773149D02*
X690674D01*
X686116Y773599D02*
X690654D01*
X684829Y754699D02*
X689062D01*
X686410Y761449D02*
X688381D01*
X686739Y761899D02*
X687739D01*
X686904Y762349D02*
X687433D01*
X676694Y768199D02*
X686962D01*
X685236Y764599D02*
X685934D01*
X676749Y767749D02*
X685883D01*
X677238Y765049D02*
X685787D01*
X676692Y767299D02*
X685508D01*
X677133Y765499D02*
X685458D01*
X676512Y766849D02*
X685316D01*
X676890Y765949D02*
X685293D01*
X676433Y766399D02*
X685249D01*
X677231Y764599D02*
X684962D01*
X659778Y776749D02*
X684693D01*
X676554Y780349D02*
X684651D01*
X675343Y760999D02*
X684513D01*
X677109Y764149D02*
X683883D01*
X659848Y777199D02*
X683839D01*
X676712Y779899D02*
X683828D01*
X675250Y761449D02*
X683787D01*
X649547Y774949D02*
X683557D01*
X676844Y763699D02*
X683508D01*
X659806Y777649D02*
X683485D01*
X676750Y779449D02*
X683479D01*
X675025Y761899D02*
X683458D01*
X676319Y763249D02*
X683316D01*
X676090Y778099D02*
X683305D01*
X676678Y778999D02*
X683303D01*
X674588Y762349D02*
X683293D01*
X663716Y762799D02*
X683249D01*
X676478Y778549D02*
X683249D01*
X650358Y771799D02*
X683156D01*
X650369Y774499D02*
X682930D01*
X650712Y772249D02*
X682745D01*
X650718Y774049D02*
X682628D01*
X650892Y772699D02*
X682534D01*
X650894Y773599D02*
X682481D01*
X650949Y773149D02*
X682452D01*
X670974Y756949D02*
X682161D01*
X670293Y756499D02*
X681645D01*
X670836Y756049D02*
X681384D01*
X676854Y754699D02*
X681368D01*
X671352Y755599D02*
X681265D01*
X671613Y755149D02*
X681260D01*
X677258Y754249D02*
X678750D01*
X677467Y753799D02*
X678750D01*
X677546Y753349D02*
X678750D01*
X677514Y752899D02*
X678750D01*
X677364Y752449D02*
X678750D01*
X677058Y751999D02*
X678750D01*
X676417Y751549D02*
X678750D01*
X671633Y751099D02*
X678750D01*
X671738Y750649D02*
X678750D01*
X676013Y750199D02*
X678750D01*
X676720Y749749D02*
X678750D01*
X677044Y749299D02*
X678750D01*
X677206Y748849D02*
X678750D01*
X677248Y748399D02*
X678750D01*
X677178Y747949D02*
X678750D01*
X676983Y747499D02*
X678750D01*
X676602Y747049D02*
X678750D01*
X662861Y746599D02*
X678750D01*
X662827Y746149D02*
X678750D01*
X663254Y745699D02*
X678750D01*
X663658Y745249D02*
X678750D01*
X663867Y744799D02*
X678750D01*
X663946Y744349D02*
X678750D01*
X663914Y743899D02*
X678750D01*
X663764Y743449D02*
X678750D01*
X663458Y742999D02*
X678750D01*
X662817Y742549D02*
X678750D01*
X649216Y742099D02*
X678750D01*
X649690Y741649D02*
X678750D01*
X649933Y741199D02*
X678750D01*
X650038Y740749D02*
X678750D01*
X650031Y740299D02*
X678750D01*
X649909Y739849D02*
X678750D01*
X649644Y739399D02*
X678750D01*
X649119Y738949D02*
X678750D01*
X644042Y738499D02*
X678750D01*
X643947Y738049D02*
X678750D01*
X643718Y737599D02*
X678750D01*
X671414Y733099D02*
X678750D01*
X671264Y732649D02*
X678750D01*
X674339Y733549D02*
X678748D01*
X678455Y737149D02*
X678545D01*
X670958Y732199D02*
X678043D01*
X670317Y731749D02*
X677321D01*
X671432Y729499D02*
X677010D01*
X647894Y731299D02*
X676993D01*
X643274Y737149D02*
X676937D01*
X671313Y729949D02*
X676853D01*
X670536Y730849D02*
X676829D01*
X671052Y730399D02*
X676786D01*
X674906Y733999D02*
X676551D01*
X674573Y736699D02*
X676316D01*
X675188Y734449D02*
X676138D01*
X675016Y736249D02*
X676015D01*
X675321Y734899D02*
X675925D01*
X675244Y735799D02*
X675870D01*
X675339Y735349D02*
X675841D01*
X671390Y751549D02*
X674981D01*
X671731Y750199D02*
X674784D01*
X671732Y754699D02*
X674543D01*
X663569Y763249D02*
X674479D01*
X667737Y769549D02*
X674451D01*
X638502Y783949D02*
X674439D01*
X670916Y751999D02*
X674339D01*
X662784Y747049D02*
X674195D01*
X671737Y754249D02*
X674139D01*
X671609Y749749D02*
X674077D01*
X670289Y752449D02*
X674033D01*
X663267Y763699D02*
X673953D01*
X671629Y753799D02*
X673931D01*
X652947Y765949D02*
X673901D01*
X670901Y752899D02*
X673883D01*
X671382Y753349D02*
X673851D01*
X637523Y783499D02*
X673833D01*
X662579Y747499D02*
X673814D01*
X671344Y749299D02*
X673753D01*
X659644Y778099D02*
X673713D01*
X662640Y764149D02*
X673688D01*
X670290Y781249D02*
X673673D01*
X653769Y765499D02*
X673665D01*
X647489Y766399D02*
X673639D01*
X667629Y769099D02*
X673628D01*
X662180Y747949D02*
X673619D01*
X670819Y748849D02*
X673591D01*
X670533Y780799D02*
X673568D01*
X654294Y764599D02*
X673566D01*
X654118Y765049D02*
X673559D01*
X661772Y748399D02*
X673549D01*
X637492Y783049D02*
X673538D01*
X669816Y781699D02*
X673456D01*
X637646Y782599D02*
X673395D01*
X637681Y782149D02*
X673370D01*
X669719Y778549D02*
X673325D01*
X647114Y766849D02*
X673285D01*
X667382Y768649D02*
X673279D01*
X670638Y780349D02*
X673249D01*
X670244Y778999D02*
X673126D01*
X646036Y767299D02*
X673105D01*
X666901Y768199D02*
X673103D01*
X670631Y779899D02*
X673091D01*
X670509Y779449D02*
X673053D01*
X659219Y767749D02*
X673049D01*
X671592Y759199D02*
X672672D01*
X671446Y733549D02*
X672651D01*
X641547Y736699D02*
X672417D01*
X663746Y762349D02*
X672409D01*
X671311Y759649D02*
X672095D01*
X671367Y733999D02*
X672084D01*
X641650Y736249D02*
X671974D01*
X663663Y761899D02*
X671972D01*
X670745Y760099D02*
X671810D01*
X671158Y734449D02*
X671802D01*
X663452Y761449D02*
X671747D01*
X656813Y735799D02*
X671746D01*
X662308Y760549D02*
X671674D01*
X670754Y734899D02*
X671669D01*
X663041Y760999D02*
X671654D01*
X657520Y735349D02*
X671651D01*
X666745Y760099D02*
X669052D01*
X666819Y748849D02*
X668979D01*
X647718Y731749D02*
X668881D01*
X656740Y730849D02*
X668661D01*
X667311Y759649D02*
X668486D01*
X667344Y749299D02*
X668453D01*
X657844Y734899D02*
X668443D01*
X647369Y732199D02*
X668239D01*
X667592Y759199D02*
X668205D01*
X667609Y749749D02*
X668188D01*
X657367Y730399D02*
X668145D01*
X658006Y734449D02*
X668039D01*
X657402Y732649D02*
X667933D01*
X657669Y729949D02*
X667884D01*
X659320Y778549D02*
X667879D01*
X658048Y733999D02*
X667831D01*
X657783Y733099D02*
X667783D01*
X637604Y781699D02*
X667781D01*
X657816Y729499D02*
X667765D01*
X657978Y733549D02*
X667751D01*
X658613Y778999D02*
X667353D01*
X637400Y781249D02*
X667307D01*
X634137Y779449D02*
X667088D01*
X637003Y780799D02*
X667065D01*
X634137Y779899D02*
X666966D01*
X634137Y780349D02*
X666959D01*
X662745Y760099D02*
X665052D01*
X662819Y748849D02*
X664979D01*
X649504Y771349D02*
X664961D01*
X659744Y768199D02*
X664896D01*
X663311Y759649D02*
X664486D01*
X663344Y749299D02*
X664453D01*
X659316Y770899D02*
X664445D01*
X660009Y768649D02*
X664415D01*
X663592Y759199D02*
X664205D01*
X663609Y749749D02*
X664188D01*
X659790Y770449D02*
X664184D01*
X660131Y769099D02*
X664168D01*
X660033Y769999D02*
X664065D01*
X660138Y769549D02*
X664060D01*
X646147Y752449D02*
X661508D01*
X655611Y760549D02*
X661490D01*
X658219Y742549D02*
X661381D01*
X654349Y764149D02*
X661157D01*
X658745Y760099D02*
X661052D01*
X634137Y748399D02*
X661026D01*
X646104Y748849D02*
X660979D01*
X658901Y752899D02*
X660896D01*
X646969Y751999D02*
X660881D01*
X655045Y760999D02*
X660756D01*
X658744Y742999D02*
X660739D01*
X654292Y763699D02*
X660530D01*
X659311Y759649D02*
X660486D01*
X646958Y749299D02*
X660453D01*
X659009Y743449D02*
X660433D01*
X659382Y753349D02*
X660415D01*
X647318Y751549D02*
X660407D01*
X644719Y761449D02*
X660345D01*
X659131Y743899D02*
X660283D01*
X659138Y744349D02*
X660251D01*
X659033Y744799D02*
X660241D01*
X654112Y763249D02*
X660228D01*
X659592Y759199D02*
X660205D01*
X647312Y749749D02*
X660188D01*
X659629Y753799D02*
X660168D01*
X647494Y751099D02*
X660165D01*
X645244Y761899D02*
X660134D01*
X653758Y762799D02*
X660081D01*
X647492Y750199D02*
X660066D01*
X647549Y750649D02*
X660059D01*
X652904Y762349D02*
X660052D01*
X634137Y747949D02*
X659845D01*
X658790Y745249D02*
X659663D01*
X646616Y747499D02*
X659447D01*
X658316Y745699D02*
X659352D01*
X647090Y747049D02*
X659242D01*
X647438Y746149D02*
X659199D01*
X647333Y746599D02*
X659165D01*
X653648Y756499D02*
X657504D01*
X634137Y778999D02*
X657384D01*
X634137Y767749D02*
X657379D01*
X643614Y770899D02*
X657281D01*
X655892Y760099D02*
X657052D01*
X653578Y756049D02*
X656961D01*
X645215Y752899D02*
X656896D01*
X634137Y768199D02*
X656853D01*
X653606Y756949D02*
X656823D01*
X643464Y770449D02*
X656807D01*
X643318Y775849D02*
X656795D01*
X634137Y778549D02*
X656677D01*
X634137Y768649D02*
X656588D01*
X643158Y769999D02*
X656565D01*
X656037Y759649D02*
X656486D01*
X639187Y769099D02*
X656466D01*
X642517Y769549D02*
X656459D01*
X653383Y755599D02*
X656445D01*
X645682Y753349D02*
X656415D01*
X642969Y776299D02*
X656414D01*
X653532Y757399D02*
X656379D01*
X648646Y742549D02*
X656379D01*
X634137Y778099D02*
X656353D01*
X647431Y745699D02*
X656281D01*
X642147Y776749D02*
X656219D01*
X634137Y777649D02*
X656191D01*
X653002Y755149D02*
X656184D01*
X645929Y753799D02*
X656168D01*
X655274Y757849D02*
X656150D01*
X634137Y777199D02*
X656149D01*
X646032Y754699D02*
X656065D01*
X646037Y754249D02*
X656060D01*
X648616Y742999D02*
X655853D01*
X647309Y745249D02*
X655807D01*
X648469Y743449D02*
X655588D01*
X641743Y735799D02*
X655584D01*
X647053Y744799D02*
X655565D01*
X648167Y743899D02*
X655466D01*
X647540Y744349D02*
X655459D01*
X647949Y730849D02*
X655257D01*
X646547Y732649D02*
X654995D01*
X641723Y735349D02*
X654877D01*
X647892Y730399D02*
X654630D01*
X640887Y733099D02*
X654614D01*
X641588Y734899D02*
X654553D01*
X640443Y733549D02*
X654419D01*
X641302Y734449D02*
X654391D01*
X640725Y733999D02*
X654349D01*
X647712Y729949D02*
X654328D01*
X648042Y729499D02*
X654181D01*
X634137Y760999D02*
X653352D01*
X634142Y760549D02*
X652786D01*
X635512Y760099D02*
X652505D01*
X636399Y758749D02*
X652450D01*
X636022Y759649D02*
X652372D01*
X636282Y759199D02*
X652355D01*
X645509Y762349D02*
X652093D01*
X647681Y765949D02*
X652051D01*
X645631Y762799D02*
X651239D01*
X647748Y765499D02*
X651228D01*
X636403Y758299D02*
X651184D01*
X645638Y763249D02*
X650885D01*
X647704Y765049D02*
X650879D01*
X646484Y763699D02*
X650705D01*
X647539Y764599D02*
X650703D01*
X647210Y764149D02*
X650649D01*
X645913Y755149D02*
X650595D01*
X636293Y757849D02*
X650477D01*
X645652Y755599D02*
X650214D01*
X636044Y757399D02*
X650153D01*
X645136Y756049D02*
X650019D01*
X635557Y756949D02*
X649991D01*
X634150Y756499D02*
X649949D01*
X643646Y771349D02*
X648693D01*
X643549Y774949D02*
X648651D01*
X643567Y771799D02*
X647839D01*
X643492Y774499D02*
X647828D01*
X643358Y772249D02*
X647485D01*
X643312Y774049D02*
X647479D01*
X642954Y772699D02*
X647305D01*
X642958Y773599D02*
X647303D01*
X646119Y738949D02*
X647279D01*
X642491Y773149D02*
X647249D01*
X634137Y767299D02*
X645762D01*
X641337Y732649D02*
X645651D01*
X634137Y743899D02*
X645366D01*
X634137Y748849D02*
X645293D01*
X634137Y743449D02*
X645128D01*
X634137Y742999D02*
X644981D01*
X634137Y742549D02*
X644945D01*
X641787Y732199D02*
X644828D01*
X634137Y766849D02*
X644683D01*
X641719Y744349D02*
X644679D01*
X641816Y747499D02*
X644581D01*
X642237Y731749D02*
X644479D01*
X643501Y749299D02*
X644439D01*
X634137Y766399D02*
X644308D01*
X643587Y730399D02*
X644305D01*
X642687Y731299D02*
X644303D01*
X643137Y730849D02*
X644249D01*
X635645Y742099D02*
X644181D01*
X642244Y744799D02*
X644153D01*
X634137Y765949D02*
X644116D01*
X642290Y747049D02*
X644107D01*
X634137Y765499D02*
X644049D01*
X634137Y765049D02*
X644047D01*
X642509Y745249D02*
X643888D01*
X642533Y746599D02*
X643865D01*
X642631Y745699D02*
X643766D01*
X642638Y746149D02*
X643759D01*
X636211Y741649D02*
X643707D01*
X636492Y741199D02*
X643465D01*
X636625Y740749D02*
X643359D01*
X634137Y756049D02*
X643261D01*
X634137Y752899D02*
X642990D01*
X634137Y761449D02*
X642879D01*
X634137Y764599D02*
X642781D01*
X634137Y755599D02*
X642745D01*
X634137Y753349D02*
X642715D01*
X634137Y755149D02*
X642484D01*
X634137Y753799D02*
X642468D01*
X634137Y754699D02*
X642365D01*
X634137Y754249D02*
X642360D01*
X634137Y761899D02*
X642353D01*
X634137Y764149D02*
X642307D01*
X634137Y762349D02*
X642088D01*
X634137Y763699D02*
X642065D01*
X634137Y762799D02*
X641966D01*
X634137Y763249D02*
X641959D01*
X634137Y752449D02*
X641561D01*
X634137Y749299D02*
X641496D01*
X636642Y740299D02*
X641352D01*
X634137Y776749D02*
X641251D01*
X639623Y769549D02*
X641081D01*
X634137Y751999D02*
X641045D01*
X634137Y749749D02*
X641015D01*
X634137Y773149D02*
X640996D01*
X636547Y739849D02*
X640786D01*
X634137Y751549D02*
X640784D01*
X634137Y750199D02*
X640768D01*
X634137Y751099D02*
X640665D01*
X634137Y750649D02*
X640660D01*
X634137Y772699D02*
X640643D01*
X636387Y737599D02*
X640546D01*
X636318Y739399D02*
X640505D01*
X635937Y738049D02*
X640450D01*
X639847Y769999D02*
X640439D01*
X634137Y773599D02*
X640439D01*
X634137Y776299D02*
X640428D01*
X635874Y738949D02*
X640372D01*
X635520Y738499D02*
X640355D01*
X638917Y772249D02*
X640239D01*
X634137Y774049D02*
X640085D01*
X634137Y775849D02*
X640079D01*
X639497Y771799D02*
X640031D01*
X634137Y774499D02*
X639905D01*
X634137Y775399D02*
X639903D01*
X634137Y744349D02*
X639879D01*
X634137Y774949D02*
X639849D01*
X634137Y747499D02*
X639781D01*
X634137Y744799D02*
X639353D01*
X634137Y747049D02*
X639307D01*
X634137Y745249D02*
X639088D01*
X634137Y746599D02*
X639065D01*
X634137Y745699D02*
X638966D01*
X634137Y746149D02*
X638959D01*
X636837Y737149D02*
X638809D01*
X637287Y736699D02*
X638372D01*
X637737Y736249D02*
X638134D01*
X634137Y772249D02*
X637272D01*
X634137Y769099D02*
X637002D01*
X634137Y771799D02*
X636693D01*
X634137Y769549D02*
X636567D01*
X634137Y771349D02*
X636407D01*
X634137Y769999D02*
X636342D01*
X634137Y770899D02*
X636270D01*
X634137Y770449D02*
X636250D01*
X634153Y780799D02*
X634663D01*
X680963Y838002D02*
X720297D01*
X680963Y837552D02*
X720297D01*
X718738Y837102D02*
X720297D01*
X719308Y836652D02*
X720297D01*
X719590Y836202D02*
X720297D01*
X719724Y835752D02*
X720297D01*
X719742Y835302D02*
X720297D01*
X719648Y834852D02*
X720297D01*
X719421Y834402D02*
X720297D01*
X718980Y833952D02*
X720297D01*
X685539Y833502D02*
X720297D01*
X685754Y833052D02*
X720297D01*
X685892Y832602D02*
X720297D01*
X685961Y832152D02*
X720297D01*
X685971Y831702D02*
X720297D01*
X685971Y831252D02*
X720297D01*
X685971Y830802D02*
X720297D01*
X685971Y830352D02*
X720297D01*
X685971Y829902D02*
X720297D01*
X685971Y829452D02*
X720297D01*
X685969Y829002D02*
X720297D01*
X685918Y828552D02*
X720297D01*
X695738Y828102D02*
X720297D01*
X696308Y827652D02*
X720297D01*
X704503Y827202D02*
X720297D01*
X705216Y826752D02*
X720297D01*
X705542Y826302D02*
X720297D01*
X705705Y825852D02*
X720297D01*
X705748Y825402D02*
X720297D01*
X713983Y824952D02*
X720297D01*
X714423Y824502D02*
X720297D01*
X714649Y824052D02*
X720297D01*
X714743Y823602D02*
X720297D01*
X714724Y823152D02*
X720297D01*
X714589Y822702D02*
X720297D01*
X714306Y822252D02*
X720297D01*
X713733Y821802D02*
X720297D01*
X699385Y821352D02*
X720297D01*
X698907Y820902D02*
X720297D01*
X682230Y820452D02*
X720297D01*
X689911Y820002D02*
X720297D01*
X695983Y819552D02*
X720297D01*
X712508Y819102D02*
X720297D01*
X705049Y811002D02*
X720297D01*
X705499Y810552D02*
X720297D01*
X705949Y810102D02*
X720297D01*
X706399Y809652D02*
X720297D01*
X706849Y809202D02*
X720297D01*
X712816Y801102D02*
X720297D01*
X709249Y800652D02*
X720297D01*
X709249Y800202D02*
X720297D01*
X709249Y799752D02*
X720297D01*
X709249Y799302D02*
X720297D01*
X713221Y791202D02*
X720297D01*
X709249Y790752D02*
X720297D01*
X709249Y790302D02*
X720297D01*
X709249Y789852D02*
X720297D01*
X709249Y789402D02*
X720297D01*
X713229Y788952D02*
X720297D01*
X713518Y798852D02*
X720295D01*
X713752Y808752D02*
X720259D01*
X713851Y811452D02*
X720220D01*
X713953Y818652D02*
X720142D01*
X714039Y801552D02*
X720055D01*
X714207Y791652D02*
X719888D01*
X714211Y788502D02*
X719884D01*
X714361Y798402D02*
X719733D01*
X714499Y808302D02*
X719596D01*
X714560Y811902D02*
X719535D01*
X714625Y818202D02*
X719469D01*
X714681Y802002D02*
X719413D01*
X714794Y792102D02*
X719301D01*
X714797Y788052D02*
X719298D01*
X714901Y797952D02*
X719193D01*
X714998Y807852D02*
X719096D01*
X715042Y812352D02*
X719052D01*
X715089Y817752D02*
X719005D01*
X715130Y802452D02*
X718964D01*
X715213Y792552D02*
X718882D01*
X715215Y787602D02*
X718880D01*
X715292Y797502D02*
X718802D01*
X715364Y807402D02*
X718730D01*
X715397Y812802D02*
X718697D01*
X715432Y817302D02*
X718662D01*
X715463Y802902D02*
X718632D01*
X715525Y793002D02*
X718570D01*
X715526Y787152D02*
X718568D01*
X715584Y797052D02*
X718511D01*
X715638Y806952D02*
X718457D01*
X715662Y813252D02*
X718432D01*
X715688Y816852D02*
X718406D01*
X715711Y803352D02*
X718384D01*
X715756Y793452D02*
X718338D01*
X715800Y796602D02*
X718295D01*
X715839Y806502D02*
X718256D01*
X715856Y813702D02*
X718238D01*
X715875Y816402D02*
X718220D01*
X715891Y803802D02*
X718204D01*
X715923Y793902D02*
X718172D01*
X715952Y796152D02*
X718142D01*
X715978Y806052D02*
X718116D01*
X715990Y814152D02*
X718105D01*
X716002Y815952D02*
X718093D01*
X716012Y804252D02*
X718082D01*
X716032Y794352D02*
X718063D01*
X716049Y795702D02*
X718046D01*
X716063Y805602D02*
X718031D01*
X716069Y814602D02*
X718025D01*
X716075Y815502D02*
X718019D01*
X716080Y804702D02*
X718015D01*
X716088Y794802D02*
X718007D01*
X716094Y795252D02*
X718001D01*
X716097Y805152D02*
X717998D01*
X716097Y815052D02*
X717997D01*
X697738Y837102D02*
X717059D01*
X697980Y833952D02*
X716818D01*
X698308Y836652D02*
X716489D01*
X698421Y834402D02*
X716376D01*
X698590Y836202D02*
X716207D01*
X698648Y834852D02*
X716149D01*
X698724Y835752D02*
X716073D01*
X698742Y835302D02*
X716055D01*
X699630Y821802D02*
X712065D01*
X705679Y824952D02*
X711814D01*
X696423Y819102D02*
X711586D01*
X699738Y822252D02*
X711492D01*
X705485Y824502D02*
X711375D01*
X709249Y801102D02*
X711278D01*
X699732Y822702D02*
X711208D01*
X705106Y824052D02*
X711148D01*
X699612Y823152D02*
X711073D01*
X699349Y823602D02*
X711055D01*
X709249Y791202D02*
X710874D01*
X709249Y788952D02*
X710865D01*
X709249Y798852D02*
X710577D01*
X707299Y808752D02*
X710342D01*
X704546Y811452D02*
X710244D01*
X696649Y818652D02*
X710142D01*
X709249Y801552D02*
X710055D01*
X709251Y791652D02*
X709888D01*
X709252Y788502D02*
X709884D01*
X709291Y798402D02*
X709733D01*
X707749Y808302D02*
X709596D01*
X697515Y811902D02*
X709535D01*
X696743Y818202D02*
X709469D01*
X708199Y807852D02*
X709096D01*
X697546Y812352D02*
X709052D01*
X696724Y817752D02*
X709005D01*
X697465Y812802D02*
X708697D01*
X696589Y817302D02*
X708662D01*
X697256Y813252D02*
X708432D01*
X696306Y816852D02*
X708406D01*
X696849Y813702D02*
X708238D01*
X695733Y816402D02*
X708220D01*
X686067Y814152D02*
X708105D01*
X681517Y815952D02*
X708093D01*
X685764Y814602D02*
X708025D01*
X680802Y815502D02*
X708019D01*
X685131Y815052D02*
X707997D01*
X686732Y804702D02*
X705149D01*
X686738Y804252D02*
X705149D01*
X696538Y803802D02*
X705149D01*
X697108Y803352D02*
X705149D01*
X697390Y802902D02*
X705149D01*
X697524Y802452D02*
X705149D01*
X702873Y802002D02*
X705149D01*
X704082Y801552D02*
X705149D01*
X704549Y801102D02*
X705149D01*
X686612Y805152D02*
X705098D01*
X686349Y805602D02*
X704651D01*
X695625Y806052D02*
X704201D01*
X696261Y806502D02*
X703751D01*
X696566Y806952D02*
X703301D01*
X696590Y827202D02*
X703295D01*
X696715Y807402D02*
X702851D01*
X697542Y802002D02*
X702725D01*
X698830Y824052D02*
X702691D01*
X696724Y826752D02*
X702581D01*
X693567Y797052D02*
X702449D01*
X693715Y796602D02*
X702449D01*
X693746Y796152D02*
X702449D01*
X693665Y795702D02*
X702449D01*
X693454Y795252D02*
X702449D01*
X678730Y790752D02*
X702449D01*
X679249Y790302D02*
X702449D01*
X679512Y789852D02*
X702449D01*
X701369Y789402D02*
X702444D01*
X698633Y791202D02*
X702401D01*
X696746Y807852D02*
X702401D01*
X693264Y797502D02*
X702351D01*
X680963Y824502D02*
X702312D01*
X696742Y826302D02*
X702255D01*
X697366Y811452D02*
X702251D01*
X695980Y824952D02*
X702118D01*
X696648Y825852D02*
X702092D01*
X696421Y825402D02*
X702049D01*
X696665Y808302D02*
X701951D01*
X692881Y797952D02*
X701901D01*
X697061Y811002D02*
X701773D01*
X696456Y808752D02*
X701610D01*
X697448Y801552D02*
X701515D01*
X696425Y810552D02*
X701511D01*
X693933Y798402D02*
X701451D01*
X696049Y809202D02*
X701424D01*
X686123Y810102D02*
X701378D01*
X686349Y809652D02*
X701351D01*
X700503Y794802D02*
X701259D01*
X679632Y789402D02*
X701228D01*
X697221Y801102D02*
X701101D01*
X694506Y798852D02*
X701070D01*
X696780Y800652D02*
X700871D01*
X694789Y799302D02*
X700855D01*
X694964Y800202D02*
X700764D01*
X694924Y799752D02*
X700759D01*
X679638Y788952D02*
X700088D01*
X696338Y788502D02*
X699710D01*
X696908Y788052D02*
X699517D01*
X697324Y787152D02*
X699493D01*
X697190Y787602D02*
X699449D01*
X693212Y794802D02*
X699295D01*
X680963Y824052D02*
X696968D01*
X693633Y791202D02*
X696965D01*
X681885Y820902D02*
X696891D01*
X693883Y794352D02*
X696714D01*
X680963Y823602D02*
X696448D01*
X681388Y821352D02*
X696412D01*
X694206Y791652D02*
X696392D01*
X694323Y793902D02*
X696275D01*
X680963Y823152D02*
X696186D01*
X680963Y821802D02*
X696167D01*
X694489Y792102D02*
X696108D01*
X680963Y822702D02*
X696065D01*
X680963Y822252D02*
X696060D01*
X680963Y837102D02*
X696059D01*
X694549Y793452D02*
X696048D01*
X694624Y792552D02*
X695973D01*
X694643Y793002D02*
X695955D01*
X685224Y833952D02*
X695818D01*
X680963Y836652D02*
X695489D01*
X684765Y834402D02*
X695376D01*
X680963Y836202D02*
X695207D01*
X684010Y834852D02*
X695149D01*
X680963Y835752D02*
X695073D01*
X680963Y835302D02*
X695055D01*
X685683Y810552D02*
X694972D01*
X686630Y803802D02*
X694859D01*
X690838Y788502D02*
X694659D01*
X686215Y813702D02*
X694548D01*
X681050Y811002D02*
X694336D01*
X686385Y803352D02*
X694289D01*
X685830Y806052D02*
X694172D01*
X686246Y813252D02*
X694141D01*
X691408Y788052D02*
X694089D01*
X681972Y816402D02*
X694065D01*
X689738Y828102D02*
X694059D01*
X681050Y811452D02*
X694031D01*
X685907Y802902D02*
X694007D01*
X686165Y812802D02*
X693932D01*
X685546Y811902D02*
X693882D01*
X672905Y802452D02*
X693873D01*
X685954Y812352D02*
X693851D01*
X672741Y802002D02*
X693832D01*
X689980Y824952D02*
X693818D01*
X690387Y819552D02*
X693814D01*
X691690Y787602D02*
X693807D01*
X686443Y809202D02*
X693748D01*
X691824Y787152D02*
X693673D01*
X678679Y806502D02*
X693536D01*
X689825Y816852D02*
X693492D01*
X690308Y827652D02*
X693489D01*
X690421Y825402D02*
X693376D01*
X690631Y819102D02*
X693375D01*
X686424Y808752D02*
X693341D01*
X679726Y806952D02*
X693231D01*
X690347Y817302D02*
X693208D01*
X690590Y827202D02*
X693207D01*
X690648Y825852D02*
X693149D01*
X690738Y818652D02*
X693148D01*
X686289Y808302D02*
X693132D01*
X685433Y807402D02*
X693082D01*
X690611Y817752D02*
X693073D01*
X690724Y826752D02*
X693073D01*
X690742Y826302D02*
X693055D01*
X690731Y818202D02*
X693055D01*
X686006Y807852D02*
X693051D01*
X675321Y798402D02*
X692111D01*
X672414Y801552D02*
X692014D01*
X677973Y791202D02*
X691965D01*
X675548Y798852D02*
X691692D01*
X674638Y801102D02*
X691575D01*
X677730Y794352D02*
X691471D01*
X675642Y799302D02*
X691408D01*
X678285Y791652D02*
X691392D01*
X675208Y800652D02*
X691348D01*
X678249Y793902D02*
X691275D01*
X675624Y799752D02*
X691273D01*
X675490Y800202D02*
X691255D01*
X674880Y797952D02*
X691166D01*
X678530Y792102D02*
X691108D01*
X678512Y793452D02*
X691048D01*
X678638Y792552D02*
X690973D01*
X678632Y793002D02*
X690955D01*
X650832Y794802D02*
X690751D01*
X634523Y797502D02*
X690534D01*
X650712Y795252D02*
X690343D01*
X634749Y797052D02*
X690230D01*
X650449Y795702D02*
X690133D01*
X634843Y796602D02*
X690082D01*
X649930Y796152D02*
X690051D01*
X679530Y788502D02*
X689159D01*
X679285Y788052D02*
X688589D01*
X678807Y787602D02*
X688307D01*
X673741Y787152D02*
X688173D01*
X685801Y828102D02*
X688059D01*
X682292Y816852D02*
X687972D01*
X682473Y820002D02*
X687887D01*
X680963Y824952D02*
X687818D01*
X685609Y827652D02*
X687489D01*
X682516Y817302D02*
X687450D01*
X682638Y819552D02*
X687410D01*
X680963Y825402D02*
X687376D01*
X685325Y827202D02*
X687207D01*
X682666Y817752D02*
X687187D01*
X682736Y819102D02*
X687166D01*
X680963Y825852D02*
X687149D01*
X684914Y826752D02*
X687073D01*
X682749Y818202D02*
X687066D01*
X682772Y818652D02*
X687059D01*
X684276Y826302D02*
X687055D01*
X673249Y806052D02*
X683968D01*
X672948Y802902D02*
X683891D01*
X680249Y807402D02*
X683765D01*
X680550Y815052D02*
X683666D01*
X681050Y810552D02*
X683514D01*
X673193Y805602D02*
X683448D01*
X672880Y803352D02*
X683412D01*
X681050Y811902D02*
X683251D01*
X680592Y807852D02*
X683192D01*
X673014Y805152D02*
X683186D01*
X672687Y803802D02*
X683167D01*
X681050Y810102D02*
X683075D01*
X672662Y804702D02*
X683065D01*
X672356Y804252D02*
X683060D01*
X680795Y814602D02*
X683034D01*
X680823Y808302D02*
X682908D01*
X681050Y809652D02*
X682848D01*
X681050Y812352D02*
X682843D01*
X680968Y808752D02*
X682773D01*
X681040Y809202D02*
X682755D01*
X680952Y814152D02*
X682730D01*
X681050Y812802D02*
X682633D01*
X681034Y813702D02*
X682582D01*
X681050Y813252D02*
X682551D01*
X681007Y834852D02*
X681502D01*
X673193Y806502D02*
X677384D01*
X674361Y787602D02*
X676791D01*
X671548Y790752D02*
X676618D01*
X674149Y790302D02*
X676348D01*
X673016Y806952D02*
X676337D01*
X674666Y788052D02*
X676312D01*
X674556Y789852D02*
X676086D01*
X674815Y788502D02*
X676067D01*
X674765Y789402D02*
X675965D01*
X674846Y788952D02*
X675960D01*
X650838Y794352D02*
X675868D01*
X672665Y807402D02*
X675814D01*
X671642Y791202D02*
X675791D01*
X671831Y807852D02*
X675471D01*
X650730Y793902D02*
X675348D01*
X671624Y791652D02*
X675312D01*
X646807Y808302D02*
X675240D01*
X646952Y808752D02*
X675095D01*
X650485Y793452D02*
X675086D01*
X671490Y792102D02*
X675067D01*
X647024Y809202D02*
X675023D01*
X647034Y810102D02*
X675013D01*
X647034Y809652D02*
X675013D01*
X670638Y793002D02*
X674965D01*
X671208Y792552D02*
X674960D01*
X673025Y810552D02*
X674634D01*
X649043Y815052D02*
X673004D01*
X671695Y801102D02*
X672959D01*
X658669Y814602D02*
X672906D01*
X649980Y797952D02*
X672718D01*
X659810Y814152D02*
X672708D01*
X650308Y800652D02*
X672389D01*
X650421Y798402D02*
X672276D01*
X655406Y787152D02*
X672256D01*
X650590Y800202D02*
X672107D01*
X650648Y798852D02*
X672049D01*
X650724Y799752D02*
X671973D01*
X650742Y799302D02*
X671955D01*
X671618Y790302D02*
X671840D01*
X655785Y787602D02*
X671636D01*
X663708Y810552D02*
X671572D01*
X668920Y788052D02*
X671331D01*
X670880Y789852D02*
X671251D01*
X670293Y789402D02*
X671232D01*
X669762Y788502D02*
X671182D01*
X670114Y788952D02*
X671151D01*
X663250Y813702D02*
X671148D01*
X646576Y807852D02*
X670966D01*
X664109Y811002D02*
X670936D01*
X663900Y813252D02*
X670741D01*
X664315Y811452D02*
X670631D01*
X664209Y812802D02*
X670532D01*
X649738Y801102D02*
X670502D01*
X664393Y811902D02*
X670482D01*
X664360Y812352D02*
X670451D01*
X662103Y807402D02*
X670132D01*
X669465Y804702D02*
X669906D01*
X668620Y801552D02*
X669784D01*
X668631Y805152D02*
X669783D01*
X662816Y806952D02*
X669782D01*
X663348Y805602D02*
X669604D01*
X663142Y806502D02*
X669604D01*
X663305Y806052D02*
X669549D01*
X650007Y793002D02*
X668959D01*
X634137Y792552D02*
X668389D01*
X634137Y792102D02*
X668107D01*
X655979Y788052D02*
X668077D01*
X634137Y791652D02*
X667939D01*
X656225Y801552D02*
X667777D01*
X663279Y805152D02*
X667766D01*
X656048Y788502D02*
X667235D01*
X634137Y791202D02*
X667232D01*
X659407Y802002D02*
X666935D01*
X663085Y804702D02*
X666932D01*
X656005Y788952D02*
X666883D01*
X649731Y790752D02*
X666882D01*
X655842Y789402D02*
X666704D01*
X654803Y790302D02*
X666704D01*
X655516Y789852D02*
X666649D01*
X659885Y802452D02*
X666583D01*
X662706Y804252D02*
X666582D01*
X660130Y802902D02*
X666404D01*
X660233Y803802D02*
X666404D01*
X660238Y803352D02*
X666349D01*
X661405Y813702D02*
X661841D01*
X660338Y807402D02*
X660895D01*
X651120Y810552D02*
X659473D01*
X650769Y807402D02*
X658659D01*
X649141Y814602D02*
X658528D01*
X651910Y806952D02*
X658089D01*
X651962Y811002D02*
X658002D01*
X652287Y806502D02*
X657807D01*
X652480Y806052D02*
X657673D01*
X652548Y805602D02*
X657655D01*
X653031Y805152D02*
X657468D01*
X656861Y802002D02*
X657391D01*
X651131Y814152D02*
X657388D01*
X652314Y811452D02*
X657284D01*
X651965Y813702D02*
X657010D01*
X652493Y811902D02*
X656956D01*
X656650Y804702D02*
X656936D01*
X652316Y813252D02*
X656817D01*
X652549Y812352D02*
X656793D01*
X652493Y812802D02*
X656749D01*
X653020Y801552D02*
X654772D01*
X653865Y804702D02*
X654348D01*
X653870Y802002D02*
X654122D01*
X650565Y790302D02*
X653595D01*
X649787Y787152D02*
X652991D01*
X650916Y789852D02*
X652881D01*
X650562Y787602D02*
X652612D01*
X651093Y789402D02*
X652555D01*
X650914Y788052D02*
X652418D01*
X651149Y788952D02*
X652392D01*
X651093Y788502D02*
X652349D01*
X629267Y801552D02*
X652177D01*
X628964Y802002D02*
X651335D01*
X628331Y802452D02*
X650983D01*
X632433Y802902D02*
X650804D01*
X633006Y803352D02*
X650749D01*
X646233Y807402D02*
X650628D01*
X647413Y810552D02*
X650277D01*
X649298Y814152D02*
X650266D01*
X633289Y803802D02*
X650102D01*
X645710Y806952D02*
X649488D01*
X648228Y811002D02*
X649435D01*
X633424Y804252D02*
X649384D01*
X644663Y806502D02*
X649110D01*
X648694Y811452D02*
X649079D01*
X633443Y804702D02*
X649056D01*
X632683Y806052D02*
X648917D01*
X633349Y805152D02*
X648893D01*
X634137Y790752D02*
X648866D01*
X633123Y805602D02*
X648849D01*
X637731Y787152D02*
X648810D01*
X634824Y796152D02*
X648068D01*
X629415Y801102D02*
X648059D01*
X634137Y787602D02*
X648035D01*
X634137Y790302D02*
X648032D01*
X634090Y793002D02*
X647991D01*
X634083Y797952D02*
X647818D01*
X634137Y788052D02*
X647683D01*
X634137Y789852D02*
X647682D01*
X634689Y795702D02*
X647548D01*
X633887Y793452D02*
X647512D01*
X634137Y788502D02*
X647504D01*
X634137Y789402D02*
X647504D01*
X629446Y800652D02*
X647489D01*
X634137Y788952D02*
X647449D01*
X628974Y798402D02*
X647376D01*
X634406Y795252D02*
X647286D01*
X633474Y793902D02*
X647267D01*
X629365Y800202D02*
X647207D01*
X633833Y794802D02*
X647165D01*
X633099Y794352D02*
X647160D01*
X628531Y798852D02*
X647149D01*
X629154Y799752D02*
X647073D01*
X628746Y799302D02*
X647055D01*
X620522Y806502D02*
X643369D01*
X613591Y806952D02*
X642322D01*
X640933Y807402D02*
X641799D01*
X614028Y815502D02*
X641534D01*
X640631Y815052D02*
X641498D01*
X601750Y838002D02*
X641085D01*
X606719Y837552D02*
X641085D01*
X607860Y837102D02*
X641085D01*
X608237Y836652D02*
X641085D01*
X608430Y836202D02*
X641085D01*
X608498Y835752D02*
X641085D01*
X608455Y835302D02*
X641085D01*
X601750Y825852D02*
X641085D01*
X601750Y825402D02*
X641085D01*
X601750Y824952D02*
X641085D01*
X601750Y824502D02*
X641085D01*
X601750Y824052D02*
X641085D01*
X601750Y823602D02*
X641085D01*
X601750Y823152D02*
X641085D01*
X601750Y822702D02*
X641085D01*
X617661Y822252D02*
X641085D01*
X618137Y821802D02*
X641085D01*
X640545Y834852D02*
X641040D01*
X620840Y811452D02*
X640996D01*
X620974Y811002D02*
X640992D01*
X618381Y821352D02*
X640968D01*
X613955Y815952D02*
X640840D01*
X618488Y820902D02*
X640473D01*
X613828Y816402D02*
X640385D01*
X618481Y820452D02*
X640128D01*
X613641Y816852D02*
X640067D01*
X618361Y820002D02*
X639885D01*
X613385Y817302D02*
X639842D01*
X618097Y819552D02*
X639720D01*
X613042Y817752D02*
X639693D01*
X617575Y819102D02*
X639623D01*
X612578Y818202D02*
X639609D01*
X611906Y818652D02*
X639586D01*
X613317Y807402D02*
X639265D01*
X614050Y815052D02*
X639166D01*
X620992Y810552D02*
X639014D01*
X620558Y811902D02*
X638751D01*
X612951Y807852D02*
X638692D01*
X620898Y810102D02*
X638575D01*
X614022Y814602D02*
X638534D01*
X612452Y808302D02*
X638408D01*
X620671Y809652D02*
X638348D01*
X619988Y812352D02*
X638343D01*
X611705Y808752D02*
X638273D01*
X620230Y809202D02*
X638255D01*
X613943Y814152D02*
X638230D01*
X613350Y812802D02*
X638133D01*
X613809Y813702D02*
X638082D01*
X613615Y813252D02*
X638051D01*
X608291Y834852D02*
X638037D01*
X601750Y826302D02*
X637771D01*
X607964Y834402D02*
X637283D01*
X601750Y826752D02*
X637133D01*
X634137Y787152D02*
X636866D01*
X607245Y833952D02*
X636823D01*
X601750Y827202D02*
X636722D01*
X616411Y833502D02*
X636508D01*
X601750Y827652D02*
X636439D01*
X616887Y833052D02*
X636293D01*
X601750Y828102D02*
X636247D01*
X617131Y832602D02*
X636155D01*
X601750Y828552D02*
X636129D01*
X617238Y832152D02*
X636087D01*
X601750Y829002D02*
X636079D01*
X617231Y831702D02*
X636076D01*
X617111Y831252D02*
X636076D01*
X616847Y830802D02*
X636076D01*
X616325Y830352D02*
X636076D01*
X601750Y829902D02*
X636076D01*
X601750Y829452D02*
X636076D01*
X629424Y797952D02*
X631914D01*
X629874Y797502D02*
X631475D01*
X630324Y797052D02*
X631248D01*
X630777Y796602D02*
X631078D01*
X624474Y802902D02*
X630765D01*
X621324Y806052D02*
X630514D01*
X624024Y803352D02*
X630192D01*
X621774Y805602D02*
X630075D01*
X623574Y803802D02*
X629908D01*
X622224Y805152D02*
X629848D01*
X623124Y804252D02*
X629773D01*
X622674Y804702D02*
X629755D01*
X622765Y791202D02*
X629750D01*
X622846Y790752D02*
X629750D01*
X622815Y790302D02*
X629750D01*
X622666Y789852D02*
X629750D01*
X622361Y789402D02*
X629750D01*
X621725Y788952D02*
X629750D01*
X624869Y788502D02*
X629750D01*
X626010Y788052D02*
X629750D01*
X626387Y787602D02*
X629750D01*
X626580Y787152D02*
X629750D01*
X622556Y791652D02*
X629576D01*
X622149Y792102D02*
X629126D01*
X613166Y792552D02*
X628676D01*
X613477Y793002D02*
X628226D01*
X613709Y793452D02*
X627776D01*
X624924Y802452D02*
X626866D01*
X618980Y796602D02*
X626320D01*
X625374Y802002D02*
X626234D01*
X618944Y797052D02*
X626222D01*
X618925Y797502D02*
X625772D01*
X618790Y797952D02*
X625322D01*
X618506Y798402D02*
X624872D01*
X612164Y788502D02*
X624728D01*
X621825Y798852D02*
X624422D01*
X622347Y799302D02*
X623972D01*
X612750Y788052D02*
X623588D01*
X622611Y799752D02*
X623522D01*
X613168Y787602D02*
X623210D01*
X622835Y800202D02*
X623053D01*
X613479Y787152D02*
X623017D01*
X613083Y802452D02*
X620668D01*
X613416Y802902D02*
X620372D01*
X611182Y788952D02*
X620272D01*
X617932Y798852D02*
X619972D01*
X613664Y803352D02*
X619922D01*
X612634Y802002D02*
X619887D01*
X612747Y792102D02*
X619848D01*
X601750Y789402D02*
X619636D01*
X601750Y799302D02*
X619450D01*
X612159Y791652D02*
X619441D01*
X611992Y801552D02*
X619410D01*
X601750Y789852D02*
X619331D01*
X611173Y791202D02*
X619232D01*
X601750Y799752D02*
X619187D01*
X601750Y790302D02*
X619182D01*
X610769Y801102D02*
X619166D01*
X601750Y790752D02*
X619151D01*
X601750Y800202D02*
X619066D01*
X601750Y800652D02*
X619059D01*
X612995Y812352D02*
X618309D01*
X601750Y809202D02*
X618068D01*
X612513Y811902D02*
X617739D01*
X601750Y809652D02*
X617626D01*
X611803Y811452D02*
X617457D01*
X601750Y810102D02*
X617399D01*
X601750Y811002D02*
X617323D01*
X601750Y810552D02*
X617305D01*
X611470Y798852D02*
X616268D01*
X610461Y819102D02*
X615722D01*
X612314Y798402D02*
X615694D01*
X601750Y822252D02*
X615637D01*
X612854Y797952D02*
X615410D01*
X613245Y797502D02*
X615275D01*
X613537Y797052D02*
X615256D01*
X613772Y796602D02*
X615220D01*
X601750Y819552D02*
X615200D01*
X601750Y821802D02*
X615160D01*
X601750Y820002D02*
X614937D01*
X601750Y821352D02*
X614916D01*
X601750Y820452D02*
X614816D01*
X601750Y820902D02*
X614809D01*
X601750Y830352D02*
X614472D01*
X601750Y833502D02*
X614387D01*
X601750Y830802D02*
X613950D01*
X601750Y833052D02*
X613910D01*
X601750Y831252D02*
X613687D01*
X601750Y832602D02*
X613666D01*
X601750Y831702D02*
X613566D01*
X601750Y832152D02*
X613559D01*
X601750Y819102D02*
X609539D01*
X601750Y801102D02*
X609231D01*
X601750Y791202D02*
X608827D01*
X601750Y788952D02*
X608818D01*
X601752Y798852D02*
X608530D01*
X601788Y808752D02*
X608295D01*
X601827Y811452D02*
X608197D01*
X601906Y818652D02*
X608094D01*
X601992Y801552D02*
X608008D01*
X602159Y791652D02*
X607841D01*
X602164Y788502D02*
X607836D01*
X602314Y798402D02*
X607686D01*
X602452Y808302D02*
X607548D01*
X602513Y811902D02*
X607487D01*
X602578Y818202D02*
X607422D01*
X602634Y802002D02*
X607366D01*
X602747Y792102D02*
X607253D01*
X602750Y788052D02*
X607250D01*
X602854Y797952D02*
X607146D01*
X602951Y807852D02*
X607049D01*
X602995Y812352D02*
X607005D01*
X603042Y817752D02*
X606958D01*
X603083Y802452D02*
X606917D01*
X603166Y792552D02*
X606834D01*
X603168Y787602D02*
X606832D01*
X603245Y797502D02*
X606755D01*
X603317Y807402D02*
X606683D01*
X603350Y812802D02*
X606650D01*
X603385Y817302D02*
X606615D01*
X603416Y802902D02*
X606584D01*
X601750Y837552D02*
X606578D01*
X603477Y793002D02*
X606523D01*
X603479Y787152D02*
X606521D01*
X603537Y797052D02*
X606463D01*
X603591Y806952D02*
X606409D01*
X603615Y813252D02*
X606385D01*
X603641Y816852D02*
X606359D01*
X603664Y803352D02*
X606336D01*
X603709Y793452D02*
X606291D01*
X603752Y796602D02*
X606248D01*
X603792Y806502D02*
X606208D01*
X603809Y813702D02*
X606191D01*
X603828Y816402D02*
X606172D01*
X603844Y803802D02*
X606156D01*
X603875Y793902D02*
X606125D01*
X603905Y796152D02*
X606095D01*
X603931Y806052D02*
X606069D01*
X603943Y814152D02*
X606057D01*
X601750Y833952D02*
X606052D01*
X603955Y815952D02*
X606045D01*
X603965Y804252D02*
X606035D01*
X603984Y794352D02*
X606016D01*
X604002Y795702D02*
X605998D01*
X604016Y805602D02*
X605984D01*
X604022Y814602D02*
X605978D01*
X604028Y815502D02*
X605972D01*
X604032Y804702D02*
X605967D01*
X604041Y794802D02*
X605959D01*
X604046Y795252D02*
X605954D01*
X604049Y805152D02*
X605951D01*
X604050Y815052D02*
X605950D01*
X601750Y837102D02*
X605438D01*
X601750Y834402D02*
X605334D01*
X601750Y836652D02*
X605060D01*
X601750Y834852D02*
X605006D01*
X601750Y836202D02*
X604867D01*
X601750Y835302D02*
X604843D01*
X601750Y835752D02*
X604799D01*
G54D48*
X661499Y647454D02*
Y650254D01*
X658499Y653254*
X648999*
X675973Y690235D02*
X674384Y691800D01*
X681793Y685479D02*
X680729D01*
X680729D02*
X675973Y690235D01*
X714770Y647801D02*
X714169Y647200D01*
X709325Y647801D02*
X709926Y647200D01*
X709325Y642356D02*
X709926Y642957D01*
X714770Y642356D02*
X714169Y642957D01*
X714770Y637801D02*
X714169Y637200D01*
X709325Y637801D02*
X709926Y637200D01*
X709325Y632356D02*
X709926Y632957D01*
X714770Y632356D02*
X714169Y632957D01*
G54D91*
X662411Y628548D03*
X667136D03*
Y632092D03*
X662411D03*
X670679D03*
X658868D03*
X670679Y636816D03*
X667136D03*
X662411D03*
X658868D03*
X662411Y640359D03*
X667136D03*
G54D120*
X600000Y815079D03*
Y805079D03*
Y795079D03*
Y785079D03*
Y775079D03*
Y765079D03*
Y755079D03*
Y745079D03*
Y735079D03*
Y725079D03*
Y715079D03*
Y705079D03*
Y695079D03*
Y685079D03*
Y675079D03*
Y665079D03*
Y655079D03*
Y645079D03*
Y635079D03*
Y625079D03*
X722047D03*
Y635079D03*
Y645079D03*
Y655079D03*
Y665079D03*
Y675079D03*
Y685079D03*
Y695079D03*
Y705079D03*
Y715079D03*
Y725079D03*
Y735079D03*
Y745079D03*
Y755079D03*
Y765079D03*
Y775079D03*
Y785079D03*
Y795079D03*
Y805079D03*
Y815079D03*
X610000D03*
Y805079D03*
Y795079D03*
Y785079D03*
Y775079D03*
Y765079D03*
Y755079D03*
Y745079D03*
Y735079D03*
Y725079D03*
Y715079D03*
Y705079D03*
Y695079D03*
Y685079D03*
Y675079D03*
Y665079D03*
Y655079D03*
Y645079D03*
Y635079D03*
Y625079D03*
X712047D03*
Y635079D03*
Y645079D03*
Y655079D03*
Y665079D03*
Y675079D03*
Y685079D03*
Y695079D03*
Y705079D03*
Y715079D03*
Y725079D03*
Y735079D03*
Y745079D03*
Y755079D03*
Y765079D03*
Y775079D03*
Y785079D03*
Y795079D03*
Y805079D03*
Y815079D03*
G54D122*
G54D280*
X678031Y811419D03*
X644016D03*
G54D281*
X682756Y830514D03*
X639291D03*
G54D282*
X645197Y813388D03*
X676850D03*
G54D287*
X662199Y602554D03*
X684299Y603854D03*
X691199Y604054D03*
X603899Y607254D03*
X610699Y609254D03*
X613699Y606654D03*
X613799Y613254D03*
X632799Y611854D03*
X640399Y605154D03*
X648399Y607954D03*
Y610454D03*
X642799Y612154D03*
X650899Y610454D03*
Y607954D03*
X679699Y611654D03*
X675199Y613154D03*
X673399Y610154D03*
X679499Y608054D03*
X705399Y611454D03*
Y608454D03*
X702899Y611454D03*
Y608454D03*
X701499Y604554D03*
X604999Y616354D03*
X620199Y622554D03*
X630099Y620054D03*
X626199Y621954D03*
X658299Y621354D03*
X654399Y624454D03*
X668599Y619554D03*
X666199Y619854D03*
X661999Y618454D03*
X673399Y620054D03*
X682299Y623654D03*
X704599Y622554D03*
X620499Y632454D03*
X630599Y624954D03*
X626099Y633454D03*
X635999Y634354D03*
X640299Y624654D03*
X640499Y629454D03*
X638299Y632554D03*
X650699Y633554D03*
X651799Y626154D03*
X650799Y631354D03*
X676999Y625054D03*
X680799Y634254D03*
X682599Y626854D03*
X706799Y627854D03*
X704499D03*
X630199Y643954D03*
X627799Y635654D03*
X637104Y638748D03*
X635899Y636954D03*
X640399Y635054D03*
X642799Y641754D03*
X677999Y642254D03*
X683799Y640554D03*
X705499Y640254D03*
X703199Y642554D03*
X622099Y654054D03*
X629299Y650754D03*
X633299Y650254D03*
X648999Y653254D03*
X642799Y646754D03*
X643000Y653287D03*
X654399Y647454D03*
X659199D03*
X651199Y647254D03*
X662499Y653154D03*
X661499Y647454D03*
X664599Y647754D03*
X673499Y648954D03*
X671899Y647654D03*
X679199Y653154D03*
X679299Y650154D03*
X681999Y652754D03*
X707399Y648854D03*
X705299Y651854D03*
X625699Y662354D03*
X632899Y662854D03*
X642999Y659054D03*
X649899Y661154D03*
X659599Y659154D03*
X651600Y662300D03*
X652199Y659254D03*
X663299Y659754D03*
X665899D03*
X674399Y662554D03*
X673599Y658554D03*
X688499Y658654D03*
X658799Y673354D03*
X651600Y669600D03*
X670099Y673354D03*
X663100Y665200D03*
X663200Y669400D03*
X679399Y665354D03*
X674099Y674054D03*
X686699Y673954D03*
X682799Y665154D03*
X685899Y671954D03*
X692799Y670354D03*
X697499Y670154D03*
X693599Y664854D03*
X690799Y666054D03*
X701899Y670254D03*
X639599Y681954D03*
X632020Y681510D03*
X646239Y683373D03*
X651599Y680854D03*
X653899Y682554D03*
X656999D03*
X658299Y680654D03*
X660499Y680554D03*
X670044Y683654D03*
X673399Y683354D03*
X672099Y674554D03*
X672499Y681154D03*
X679799Y676854D03*
X679399Y674654D03*
X674399Y676454D03*
X683699Y675754D03*
X689699Y680754D03*
X681699Y674554D03*
X694367Y680060D03*
X693799Y675754D03*
X701799Y680854D03*
X629599Y687254D03*
X629699Y692654D03*
X643047Y691489D03*
X651302Y693597D03*
X660499Y691610D03*
X663244Y688654D03*
X670099Y686054D03*
X660799Y688554D03*
Y685353D03*
X675048Y694177D03*
X678480Y694088D03*
X674384Y691800D03*
X675973Y690235D03*
X689699Y688154D03*
X688000Y691400D03*
X691800Y690200D03*
X697099Y686054D03*
X694699D03*
X701999Y691254D03*
X701299Y685254D03*
X629699Y702054D03*
X621636Y702402D03*
X634989Y702373D03*
X635999Y699254D03*
X646280Y695547D03*
X650200Y701200D03*
X647400D03*
X641099Y702954D03*
X666792Y701221D03*
X671800Y697900D03*
X678313Y703653D03*
X671973Y700896D03*
X688300Y695400D03*
X683157Y703765D03*
X683800Y695000D03*
X693899Y695954D03*
X700599Y697054D03*
X691500Y697100D03*
X620995Y706802D03*
Y712153D03*
X632299Y712054D03*
X638099Y712254D03*
X646299Y711554D03*
X655800Y708600D03*
X657500Y710700D03*
X662700Y712700D03*
X665000Y708200D03*
X673078Y706885D03*
X672699Y712254D03*
X671478Y710133D03*
X621299Y718254D03*
X634199Y723054D03*
X639899Y721154D03*
X631299Y721654D03*
X647399Y722054D03*
X642900Y719200D03*
X657599Y723354D03*
X662599Y715254D03*
X662799Y717554D03*
X673399Y716454D03*
X672699Y714554D03*
X683100Y722500D03*
X688042Y722897D03*
X699400Y723400D03*
X693105Y723539D03*
X619399Y727754D03*
X624299Y727054D03*
X630799Y727354D03*
X646099Y730854D03*
X656199Y734054D03*
X652099Y731254D03*
X655999Y729154D03*
X669599Y729254D03*
Y733454D03*
X670300Y725300D03*
X678635Y730446D03*
X673334Y725579D03*
X675700Y725608D03*
X684388Y724690D03*
X685400Y728000D03*
X688000Y729000D03*
X690222Y731288D03*
X701236Y729006D03*
X617799Y740154D03*
X623799Y736854D03*
X626599Y737154D03*
X634799Y740454D03*
X639899Y735654D03*
X642199Y738654D03*
X645199Y740554D03*
X648199D03*
X646799Y742654D03*
X657299Y744154D03*
X662099Y744254D03*
X677688Y735458D03*
X673495Y735195D03*
X701236Y741448D03*
X620399Y750154D03*
X619000Y753700D03*
X627899Y751554D03*
X624199Y749854D03*
X644199Y754454D03*
X645599Y745954D03*
X642499Y750854D03*
X640799Y745954D03*
X645699Y750654D03*
X657899Y754454D03*
X670310Y744650D03*
X661899Y750454D03*
X665899Y754454D03*
Y750454D03*
X661899Y754454D03*
X669899Y750454D03*
Y754454D03*
X661013Y746514D03*
X675399Y748454D03*
X675699Y753254D03*
X687085Y748511D03*
X689199Y752854D03*
X692973Y749501D03*
X695199Y752254D03*
X617799Y763854D03*
X624099Y760554D03*
X634565Y758510D03*
X643799Y763054D03*
X641399Y760554D03*
X657899Y758454D03*
X652499Y764154D03*
X654199Y759354D03*
X651799Y756554D03*
X661899Y762454D03*
Y758454D03*
X669899D03*
X665899D03*
X673499Y760854D03*
X685099Y762754D03*
X689099Y763154D03*
X683099Y755354D03*
X682699Y758154D03*
X694199Y763754D03*
X700599Y762954D03*
X620399Y767154D03*
X626337Y767461D03*
X638095Y770592D03*
X645899Y765454D03*
X649099Y773154D03*
X641799Y771254D03*
X658299Y769354D03*
X665899Y769754D03*
X675399Y764854D03*
X674899Y767754D03*
X684299Y773254D03*
X687099Y766354D03*
X692499Y773454D03*
X698538Y773589D03*
X694689Y772378D03*
X701899Y770854D03*
X620399Y782254D03*
X625799Y779354D03*
X623599Y774854D03*
X635833Y782232D03*
X641699Y774954D03*
X657999Y777254D03*
X668799Y780154D03*
X674902Y779517D03*
X675216Y782270D03*
X680677Y782254D03*
X685099Y778554D03*
X683599Y782254D03*
X692899Y782454D03*
X701399Y783154D03*
X624799Y786654D03*
X620999Y790654D03*
X637299Y785354D03*
X645199Y791954D03*
X649299Y788954D03*
X654199Y788554D03*
X669799Y791354D03*
X668499Y789854D03*
X676799Y792754D03*
X677799Y789154D03*
X672999Y788854D03*
X689999Y786854D03*
X695499D03*
X699899Y793054D03*
X692799Y792854D03*
X697799D03*
X701299Y785454D03*
X702099Y793154D03*
X701299Y787554D03*
X617100Y797200D03*
X620899Y800454D03*
X627599Y800754D03*
X638999Y800654D03*
X636599Y803654D03*
X632999Y796454D03*
X641999Y796754D03*
X648999Y794554D03*
X648899Y799454D03*
X655499Y803254D03*
X658399Y803554D03*
X652599Y803354D03*
X668199D03*
X676799Y801154D03*
X673799Y799454D03*
X671099Y802854D03*
X684899Y804454D03*
X691899Y796254D03*
X693099Y800054D03*
X695699Y802154D03*
X702799Y799954D03*
X619149Y810704D03*
X637899Y806954D03*
X635699Y809654D03*
X639899Y813354D03*
X640099Y809054D03*
X631599Y804554D03*
X653999Y805354D03*
X660522Y812077D03*
X659499Y805754D03*
X658599Y812754D03*
X650699Y812354D03*
Y805554D03*
X666899Y805854D03*
X661499Y805654D03*
X662546Y811992D03*
X672299Y812254D03*
X671399Y806054D03*
X684399Y813354D03*
X684599Y809054D03*
X695699Y812254D03*
X694899Y807754D03*
X703399Y809754D03*
X616649Y820704D03*
X688899Y818454D03*
X697899Y822454D03*
X694899Y818054D03*
X712899Y823454D03*
X615399Y831954D03*
X688899Y826454D03*
X694899D03*
X703899Y825454D03*
X606649Y835704D03*
X696899Y835454D03*
X717899D03*
G74*
X0Y0D02*
M02*
