*
*
G04 PADS VX.2.4 Build Number: 11282995 generated Gerber (RS-274-X) file*
G04 PC Version=2.1*
*
%IN "UP201 MCU BOARD 2V0-250"*%
*
%MOIN*%
*
%FSLAX35Y35*%
*
*
*
*
G04 PC Standard Apertures*
*
*
G04 Thermal Relief Aperture macro.*
%AMTER*
1,1,$1,0,0*
1,0,$1-$2,0,0*
21,0,$3,$4,0,0,45*
21,0,$3,$4,0,0,135*
%
*
*
G04 Annular Aperture macro.*
%AMANN*
1,1,$1,0,0*
1,0,$2,0,0*
%
*
*
G04 Odd Aperture macro.*
%AMODD*
1,1,$1,0,0*
1,0,$1-0.005,0,0*
%
*
*
G04 PC Custom Aperture Macros*
*
*
*
*
*
*
G04 PC Aperture Table*
*
%ADD010C,0.01*%
%ADD024C,0.03*%
%ADD028C,0.02*%
%ADD030C,0.008*%
%ADD032C,0.005*%
%ADD048C,0.015*%
%ADD091C,0.01575*%
%ADD120C,0.06*%
%ADD122C,0.001*%
%ADD280O,0.03937X0.07874*%
%ADD281O,0.04331X0.07087*%
%ADD282O,0.06299X0.03937*%
%ADD287C,0.016*%
*
*
*
*
G04 PC Circuitry*
G04 Layer Name UP201 MCU BOARD 2V0-250 - circuitry*
%LPD*%
*
*
G04 PC Custom Flashes*
G04 Layer Name UP201 MCU BOARD 2V0-250 - flashes*
%LPD*%
*
*
G04 PC Circuitry*
G04 Layer Name UP201 MCU BOARD 2V0-250 - circuitry*
%LPD*%
*
G54D10*
G01X600000Y840157D02*
X642835D01*
Y820276*
X642903*
X642905D02*
G75*
G03X642902Y816929I108J-1674D01*
G01X642903D02*
X679311D01*
G03Y820276I38J1673*
G01X679213*
Y840157*
X722047*
Y600000*
X600000*
Y840157*
G54D24*
X712047Y625079D02*
X722047D01*
X600000Y645079D02*
X610000D01*
X712047Y655079D02*
X722047D01*
X600000Y695079D02*
X610000D01*
X712047Y715079D02*
X722047D01*
X600000Y735079D02*
X610000D01*
X600000Y785079D02*
X610000D01*
X712047Y795079D02*
X722047D01*
X640099Y809054D02*
X649999D01*
X644016*
Y811419*
X649999Y809054D02*
X673999D01*
X677899*
Y811419*
X678031*
X673999Y809054D02*
X684599D01*
X600000Y815079D02*
X610000D01*
G54D28*
X681849Y692283D02*
X681100Y693032D01*
Y696773*
X678313Y699560*
Y703653*
X639899Y813354D02*
Y813388D01*
X645197*
X684399Y813354D02*
X676850D01*
Y813388*
G54D30*
X658799Y673354D02*
X662299Y676854D01*
X672501*
X678034Y682387*
X679454*
X674218Y673935D02*
X679454Y679170D01*
Y681009*
X674218Y673935D02*
X674099Y674054D01*
X712047Y675079D02*
X710822Y673854D01*
X689436*
X684966Y678324*
Y681009*
X672378Y678654D02*
X677489Y683765D01*
X679454*
X672378Y678654D02*
X653799D01*
X651599Y680854*
X686344Y681584D02*
X686395D01*
X687198Y682387*
X686344D02*
Y681584D01*
Y681009*
Y682387D02*
X687198D01*
X701799Y680854D02*
X700266Y682387D01*
X687198*
X679454Y687899D02*
Y689162D01*
X676800Y691816*
Y694688*
X673588Y697900*
X671800*
X679454Y686521D02*
X677027D01*
X674893Y688654*
X663244*
X679454Y685143D02*
X676053D01*
X675142Y686054*
X670099*
X687598Y684926D02*
X687345D01*
X687128Y685143*
X686344*
Y686521D02*
X691816D01*
X686344Y687899D02*
X686761D01*
X689900Y691037*
Y699804*
X675150Y714554*
X672699*
X680832Y687899D02*
Y690121D01*
X679699Y691254*
X682210Y687899D02*
Y691543D01*
X681899Y691854*
X683588Y687899D02*
Y689350D01*
X683980Y689742*
X691816Y686521D02*
X696549Y691254D01*
X701999*
X679454Y682387D03*
Y683765D03*
Y681009D03*
X684966D03*
Y682387D03*
X683588Y681009D03*
X686344Y683765D03*
X682210Y682387D03*
X683588D03*
X682210Y681009D03*
X680832Y682387D03*
Y683765D03*
X684966D03*
X683588D03*
X680832Y681009D03*
X682210Y683765D03*
X686344Y681009D03*
Y682387D03*
X679454Y687899D03*
Y686521D03*
Y685143D03*
X686344Y686521D03*
X683588Y685143D03*
X684966Y686521D03*
Y685143D03*
X686344Y687899D03*
X682210Y686521D03*
X680832D03*
X684966Y687899D03*
X680832Y685143D03*
X686344D03*
X680832Y687899D03*
X682210D03*
X683588D03*
X682210Y685143D03*
X683588Y686521D03*
G54D32*
X655649Y642704D02*
X673049D01*
Y626304*
X655649*
Y642704*
Y642502D02*
X673049D01*
X655649Y642052D02*
X673049D01*
X655649Y641602D02*
X673049D01*
X655649Y641152D02*
X673049D01*
X655649Y640702D02*
X673049D01*
X655649Y640252D02*
X673049D01*
X655649Y639802D02*
X673049D01*
X655649Y639352D02*
X673049D01*
X655649Y638902D02*
X673049D01*
X655649Y638452D02*
X673049D01*
X655649Y638002D02*
X673049D01*
X655649Y637552D02*
X673049D01*
X655649Y637102D02*
X673049D01*
X655649Y636652D02*
X673049D01*
X655649Y636202D02*
X673049D01*
X655649Y635752D02*
X673049D01*
X655649Y635302D02*
X673049D01*
X655649Y634852D02*
X673049D01*
X655649Y634402D02*
X673049D01*
X655649Y633952D02*
X673049D01*
X655649Y633502D02*
X673049D01*
X655649Y633052D02*
X673049D01*
X655649Y632602D02*
X673049D01*
X655649Y632152D02*
X673049D01*
X655649Y631702D02*
X673049D01*
X655649Y631252D02*
X673049D01*
X655649Y630802D02*
X673049D01*
X655649Y630352D02*
X673049D01*
X655649Y629902D02*
X673049D01*
X655649Y629452D02*
X673049D01*
X655649Y629002D02*
X673049D01*
X655649Y628552D02*
X673049D01*
X655649Y628102D02*
X673049D01*
X655649Y627652D02*
X673049D01*
X655649Y627202D02*
X673049D01*
X655649Y626752D02*
X673049D01*
X715897Y685079D02*
G03X715897I-3850J0D01*
G01Y695079D02*
G03X715897I-3850J0D01*
G01Y705079D02*
G03X715897I-3850J0D01*
G01Y715079D02*
G03X715897I-3850J0D01*
G01Y725079D02*
G03X715897I-3850J0D01*
G01Y735079D02*
G03X715897I-3850J0D01*
G01Y745079D02*
G03X715897I-3850J0D01*
G01Y755079D02*
G03X715897I-3850J0D01*
G01Y765079D02*
G03X715897I-3850J0D01*
G01Y775079D02*
G03X715897I-3850J0D01*
G01Y785079D02*
G03X715897I-3850J0D01*
G01Y795079D02*
G03X715897I-3850J0D01*
G01X716097Y805079D02*
G03X716097I-4050J0D01*
G01X715897Y815079D02*
G03X715897I-3850J0D01*
G01X702886Y741448D02*
G03X702886I-1650J0D01*
G01X702449Y762954D02*
G03X702449I-1850J0D01*
G01X700188Y773589D02*
G03X700188I-1650J0D01*
G01X695749Y695954D02*
G03X695749I-1850J0D01*
G01X694623Y749501D02*
G03X694623I-1650J0D01*
G01X695849Y763754D02*
G03X695849I-1650J0D01*
G01X694149Y773454D02*
G03X694149I-1650J0D01*
G01X694549Y782454D02*
G03X694549I-1650J0D01*
G01X697149Y786854D02*
G03X697149I-1650J0D01*
G01X704649Y799954D02*
G03X704649I-1850J0D01*
G01X705049Y809754D02*
G03X705049I-1650J0D01*
G01X690749Y818454D02*
G03X690749I-1850J0D01*
G01Y826454D02*
G03X690749I-1850J0D01*
G01X689692Y722897D02*
G03X689692I-1650J0D01*
G01X688935Y748511D02*
G03X688935I-1850J0D01*
G01X690749Y763154D02*
G03X690749I-1650J0D01*
G01X691649Y786854D02*
G03X691649I-1650J0D01*
G01X694449Y792854D02*
G03X694449I-1650J0D01*
G01X686749Y762754D02*
G03X686749I-1650J0D01*
G01X685949Y773254D02*
G03X685949I-1650J0D01*
G01X680285Y730446D02*
G03X680285I-1650J0D01*
G01X679538Y735458D02*
G03X679538I-1850J0D01*
G01X677049Y764854D02*
G03X677049I-1650J0D01*
G01X678449Y792754D02*
G03X678449I-1650J0D01*
G01X678649Y801154D02*
G03X678649I-1850J0D01*
G01X671249Y729254D02*
G03X671249I-1650J0D01*
G01X672160Y744650D02*
G03X672160I-1850J0D01*
G01X667549Y769754D02*
G03X667549I-1650J0D01*
G01X670449Y780154D02*
G03X670449I-1650J0D01*
G01X663749Y744254D02*
G03X663749I-1650J0D01*
G01X659249Y723354D02*
G03X659249I-1650J0D01*
G01X657849Y734054D02*
G03X657849I-1650J0D01*
G01X658949Y744154D02*
G03X658949I-1650J0D01*
G01X659949Y769354D02*
G03X659949I-1650J0D01*
G01X659649Y777254D02*
G03X659649I-1650J0D01*
G01X653949Y731254D02*
G03X653949I-1850J0D01*
G01X655849Y788554D02*
G03X655849I-1650J0D01*
G01X650749Y773154D02*
G03X650749I-1650J0D01*
G01X650949Y788954D02*
G03X650949I-1650J0D01*
G01X647049Y791954D02*
G03X647049I-1850J0D01*
G01X643849Y796754D02*
G03X643849I-1850J0D01*
G01X637683Y782232D02*
G03X637683I-1850J0D01*
G01X702949Y685254D02*
G03X702949I-1650J0D01*
G01X696017Y680060D02*
G03X696017I-1650J0D01*
G01X691349Y680754D02*
G03X691349I-1650J0D01*
G01X715897Y635079D02*
G03X715897I-3850J0D01*
G01Y655079D02*
G03X715897I-3850J0D01*
G01Y665079D02*
G03X715897I-3850J0D01*
G01X699349Y670154D02*
G03X699349I-1850J0D01*
G01X694449Y670354D02*
G03X694449I-1650J0D01*
G01X690349Y658654D02*
G03X690349I-1850J0D01*
G01X681349Y611654D02*
G03X681349I-1650J0D01*
G01X683949Y623654D02*
G03X683949I-1650J0D01*
G01X682449Y634254D02*
G03X682449I-1650J0D01*
G01X678649Y625054D02*
G03X678649I-1650J0D01*
G01X679649Y642254D02*
G03X679649I-1650J0D01*
G01X680849Y653154D02*
G03X680849I-1650J0D01*
G01X681249Y665354D02*
G03X681249I-1850J0D01*
G01X675049Y620054D02*
G03X675049I-1650J0D01*
G01X676249Y662554D02*
G03X676249I-1850J0D01*
G01X659949Y621354D02*
G03X659949I-1650J0D01*
G01X664149Y653154D02*
G03X664149I-1650J0D01*
G01X656249Y647454D02*
G03X656249I-1850J0D01*
G01X650649Y653254D02*
G03X650649I-1650J0D01*
G01X653450Y662300D02*
G03X653450I-1850J0D01*
G01X644449Y612154D02*
G03X644449I-1650J0D01*
G01X642149Y624654D02*
G03X642149I-1850J0D01*
G01Y629454D02*
G03X642149I-1650J0D01*
G01X642249Y635054D02*
G03X642249I-1850J0D01*
G01X644449Y641754D02*
G03X644449I-1650J0D01*
G01X634649Y611854D02*
G03X634649I-1850J0D01*
G01X631949Y620054D02*
G03X631949I-1850J0D01*
G01X632449Y624954D02*
G03X632449I-1850J0D01*
G01X636639Y702373D02*
G03X636639I-1650J0D01*
G01X627749Y633454D02*
G03X627749I-1650J0D01*
G01X631449Y687254D02*
G03X631449I-1850J0D01*
G01X631349Y692654D02*
G03X631349I-1650J0D01*
G01Y702054D02*
G03X631349I-1650J0D01*
G01X627549Y662354D02*
G03X627549I-1850J0D01*
G01X622149Y632454D02*
G03X622149I-1650J0D01*
G01X622845Y706802D02*
G03X622845I-1850J0D01*
G01Y712153D02*
G03X622845I-1850J0D01*
G01X623149Y718254D02*
G03X623149I-1850J0D01*
G01X625449Y736854D02*
G03X625449I-1650J0D01*
G01X621249Y727754D02*
G03X621249I-1850J0D01*
G01X615649Y613254D02*
G03X615649I-1850J0D01*
G01X614050Y625079D02*
G03X614050I-4050J0D01*
G01Y635079D02*
G03X614050I-4050J0D01*
G01X613850Y645079D02*
G03X613850I-3850J0D01*
G01Y655079D02*
G03X613850I-3850J0D01*
G01Y665079D02*
G03X613850I-3850J0D01*
G01Y675079D02*
G03X613850I-3850J0D01*
G01Y685079D02*
G03X613850I-3850J0D01*
G01Y695079D02*
G03X613850I-3850J0D01*
G01Y705079D02*
G03X613850I-3850J0D01*
G01Y715079D02*
G03X613850I-3850J0D01*
G01Y725079D02*
G03X613850I-3850J0D01*
G01Y735079D02*
G03X613850I-3850J0D01*
G01X653152Y693597D02*
G03X653152I-1850J0D01*
G01X648130Y695547D02*
G03X648130I-1850J0D01*
G01X648149Y711554D02*
G03X648149I-1850J0D01*
G01X649249Y722054D02*
G03X649249I-1850J0D01*
G01X642649Y745954D02*
G03X642649I-1850J0D01*
G01X619649Y763854D02*
G03X619649I-1850J0D01*
G01X614050Y755079D02*
G03X614050I-4050J0D01*
G01Y765079D02*
G03X614050I-4050J0D01*
G01Y775079D02*
G03X614050I-4050J0D01*
G01Y785079D02*
G03X614050I-4050J0D01*
G01Y795079D02*
G03X614050I-4050J0D01*
G01Y805079D02*
G03X614050I-4050J0D01*
G01Y815079D02*
G03X614050I-4050J0D01*
G01X648089Y683373D02*
G03X648089I-1850J0D01*
G01X641449Y681954D02*
G03X641449I-1850J0D01*
G01X720297Y838157D02*
G03X720047Y838407I-250J0D01*
G01X681213*
G03X680963Y838157I-0J-250*
G01Y834994*
G03X681324Y834771I250J0*
G01X685971Y831892D02*
G03X681324Y834771I-3215J-0D01*
G01X685971Y831892D02*
Y829136D01*
X681324Y826257D02*
G03X685971Y829136I1432J2879D01*
G01X681324Y826257D02*
G03X680963Y826033I-111J-224D01*
G01Y821768*
G03X681086Y821553I250J0*
G01X682773Y818602D02*
G03X681086Y821553I-3424J0D01*
G01X681391Y815854D02*
G03X682773Y818602I-2042J2748D01*
G01X681391Y815854D02*
G03X681540Y815404I149J-200D01*
G01X684399*
X685685Y811757D02*
G03X684399Y815404I-1286J1597D01*
G01X685685Y811757D02*
G03X685592Y811563I157J-194D01*
X685731Y811339I250J-0*
G01X684599Y806504D02*
G03X685731Y811339I-0J2550D01*
G01X684599Y806504D02*
X678711D01*
G03X678659Y806498I0J-250*
G01X677404D02*
G03X678659I627J2953D01*
G01X677404D02*
G03X677352Y806504I-52J-244D01*
G01X668960*
G03X668715Y806206I0J-250*
G01X665082D02*
G03X668715I1817J-352D01*
G01X665082D02*
G03X664837Y806504I-245J48D01*
G01X663301*
G03X663064Y806175I0J-250*
G01X663149Y805654D02*
G03X663064Y806175I-1650J-0D01*
G01X663149Y805654D02*
X663149D01*
X660560Y804297D02*
G03X663149Y805654I939J1357D01*
G01X660560Y804297D02*
G03X660297Y804310I-142J-206D01*
G01X657907Y806188D02*
G03X660297Y804310I1592J-434D01*
G01X657907Y806188D02*
G03X657666Y806504I-241J66D01*
G01X655896*
G03X655646Y806254I0J-250*
X655670Y806147I250J-0*
G01X655831Y805098D02*
G03X655670Y806147I-1832J256D01*
G01X655831Y805098D02*
G03X655828Y805063I247J-35D01*
G01X655828*
G03X656002Y804825I250J0*
G01X653849Y803254D02*
G03X656002Y804825I1650J-0D01*
G01X653849Y803287D02*
G03Y803254I1650J-33D01*
G01Y803287D02*
G03Y803292I-250J5D01*
G01X653849*
G03X653647Y803538I-250J0*
G01X652149Y805354D02*
G03X653647Y803538I1850J-0D01*
G01X652327Y806147D02*
G03X652149Y805354I1672J-793D01*
G01X652327Y806147D02*
G03X652351Y806254I-226J107D01*
X652101Y806504I-250J-0*
G01X644695*
G03X644643Y806498I0J-250*
G01X643388D02*
G03X644643I628J2953D01*
G01X643388D02*
G03X643336Y806504I-52J-244D01*
G01X640099*
X639901Y806511D02*
G03X640099Y806504I198J2543D01*
G01X639901Y806511D02*
G03X639645Y806344I-20J-249D01*
G01X638248Y805137D02*
G03X639645Y806344I-349J1817D01*
G01X638248Y805137D02*
G03X638093Y804744I47J-246D01*
G01X638240Y802799D02*
G03X638093Y804744I-1641J855D01*
G01X638240Y802799D02*
G03X638211Y802684I221J-115D01*
X638525Y802442I250J-0*
G01X637358Y801508D02*
G03X638525Y802442I1641J-854D01*
G01X637358Y801508D02*
G03X637386Y801624I-222J116D01*
X637072Y801865I-250J-0*
G01X636249Y805470D02*
G03X637072Y801865I350J-1816D01*
G01X636249Y805470D02*
G03X636404Y805863I-47J246D01*
G01X636128Y807490D02*
G03X636404Y805863I1771J-536D01*
G01X636128Y807490D02*
G03X635866Y807811I-239J72D01*
G01X637421Y810328D02*
G03X635866Y807811I-1722J-674D01*
G01X637421Y810328D02*
G03X637872Y810297I233J91D01*
G01X638759Y811224D02*
G03X637872Y810297I1340J-2170D01*
G01X638759Y811224D02*
G03X638766Y811645I-131J213D01*
G01X637849Y813354D02*
G03X638766Y811645I2050J-0D01*
G01X637849Y813354D02*
Y813388D01*
X639899Y815438D02*
G03X637849Y813388I-0J-2050D01*
G01X639899Y815438D02*
X640771D01*
G03X640924Y815886I0J250*
G01X640983Y821363D02*
G03X640924Y815886I2030J-2761D01*
G01X640983Y821363D02*
G03X641085Y821565I-148J202D01*
G01Y826033*
G03X640723Y826257I-250J0*
G01X636076Y829136D02*
G03X640723Y826257I3215J-0D01*
G01X636076Y829136D02*
Y831892D01*
X640723Y834771D02*
G03X636076Y831892I-1432J-2879D01*
G01X640723Y834771D02*
G03X641085Y834994I112J223D01*
G01Y838157*
G03X640835Y838407I-250J0*
G01X624399*
G03X624149Y838157I-0J-250*
G01Y788715*
G03X624446Y788470I250J0*
G01Y784838D02*
G03Y788470I353J1816D01*
G01Y784838D02*
G03X624149Y784592I-47J-246D01*
G01Y780638*
G03X624583Y780469I250J0*
G01Y778238D02*
G03Y780469I1216J1116D01*
G01Y778238D02*
G03X624149Y778069I-184J-169D01*
G01Y776577*
G03X624293Y776350I250J0*
G01Y773357D02*
G03Y776350I-694J1497D01*
G01Y773357D02*
G03X624149Y773130I106J-227D01*
G01Y762430*
G03X624359Y762183I250J-0*
G01Y758924D02*
G03Y762183I-260J1630D01*
G01Y758924D02*
G03X624149Y758678I40J-246D01*
G01Y756954*
G03X624399Y756704I250J-0*
G01X645149*
Y755927*
G03X645241Y755733I250J-0*
G01Y753174D02*
G03Y755733I-1042J1280D01*
G01Y753174D02*
G03X645149Y752981I158J-193D01*
G01Y752530*
G03X645438Y752283I250J-0*
G01Y749024D02*
G03Y752283I261J1630D01*
G01Y749024D02*
G03X645149Y748778I-39J-246D01*
G01Y747843*
G03X645425Y747595I250J0*
G01Y744313D02*
G03Y747595I174J1641D01*
G01Y744313D02*
G03X645149Y744064I-26J-249D01*
G01Y742443*
G03X645372Y742195I250J0*
G01X646501Y741567D02*
G03X645372Y742195I-1302J-1013D01*
G01X646501Y741567D02*
G03X646896I198J153D01*
G01Y739541D02*
G03Y741567I1303J1013D01*
G01Y739541D02*
G03X646501I-197J-153D01*
G01X645372Y738913D02*
G03X646501Y739541I-173J1641D01*
G01X645372Y738913D02*
G03X645149Y738664I27J-249D01*
G01Y729792*
G03X645222Y729615I250J0*
G01X660906Y713931*
G03X661282Y714259I177J177*
G01X660949Y715254D02*
G03X661282Y714259I1650J-0D01*
G01X661380Y716366D02*
G03X660949Y715254I1219J-1112D01*
G01X661380Y716366D02*
G03X661406Y716669I-185J168D01*
G01X664017Y716442D02*
G03X661406Y716669I-1218J1112D01*
G01X664017Y716442D02*
G03X663991Y716139I185J-169D01*
G01X663863Y714193D02*
G03X663991Y716139I-1264J1061D01*
G01X663863Y714193D02*
G03X663876Y713857I191J-160D01*
G01X663772Y711446D02*
G03X663876Y713857I-1072J1254D01*
G01X663772Y711446D02*
G03X663758Y711079I163J-190D01*
G01X664916Y709921*
G03X665081Y709848I177J177*
G01X666215Y707083D02*
G03X665081Y709848I-1215J1117D01*
G01X666215Y707083D02*
G03X666149Y706914I184J-169D01*
G01Y703080*
G03X666450Y702835I250J-0*
G01Y699607D02*
G03Y702835I342J1614D01*
G01Y699607D02*
G03X666149Y699362I-51J-245D01*
G01Y690154*
G03X666399Y689904I250J0*
G01X674893*
X675777Y689538D02*
G03X674893Y689904I-884J-884D01*
G01X675777Y689538D02*
X677471Y687844D01*
G03X677648Y687771I177J177*
G01X677954*
G03X678204Y688021I-0J250*
G01Y688540*
G03X678131Y688717I-250J0*
G01X675916Y690932*
X675550Y691816D02*
G03X675916Y690932I1250J-0D01*
G01X675550Y691816D02*
Y692092D01*
G03X675270Y692340I-250J0*
G01X673198Y694177D02*
G03X675270Y692340I1850J0D01*
G01X673804Y695546D02*
G03X673198Y694177I1244J-1369D01*
G01X673804Y695546D02*
G03X673812Y695908I-169J185D01*
G01X673143Y696577*
G03X672966Y696650I-177J-177*
G01X672966*
G03X672813Y696597I0J-250*
G01Y699203D02*
G03Y696597I-1013J-1303D01*
G01Y699203D02*
G03X672966Y699150I153J197D01*
G01X673588*
X674472Y698784D02*
G03X673588Y699150I-884J-884D01*
G01X674472Y698784D02*
X677433Y695822D01*
G03X677713Y695772I177J177*
G01X678700Y695925D02*
G03X677713Y695772I-220J-1837D01*
G01X678700Y695925D02*
G03X678906Y696350I30J248D01*
G01X677005Y698251*
X676463Y699560D02*
G03X677005Y698251I1850J-0D01*
G01X676463Y699560D02*
Y703653D01*
X680163D02*
G03X676463I-1850J0D01*
G01X680163D02*
Y700429D01*
G03X680236Y700253I250J0*
G01X682408Y698081*
X682950Y696799D02*
G03X682408Y698081I-1850J-26D01*
G01X682950Y696799D02*
G03X683279Y696566I250J4D01*
G01X683929Y696645D02*
G03X683279Y696566I-129J-1645D01*
G01X683929Y696645D02*
G03X684199Y696894I20J249D01*
G01Y700074*
G03X684126Y700251I-250J-0*
G01X682206Y702170*
G03X682164Y702204I-176J-177*
G01X682173Y705331D02*
G03X682164Y702204I984J-1566D01*
G01X682173Y705331D02*
G03X682216Y705720I-133J212D01*
G01X674706Y713230*
G03X674529Y713304I-177J-176*
G01X674422*
G03X674172Y713054I0J-250*
X674195Y712948I250J-0*
G01X673262Y710703D02*
G03X674195Y712948I-563J1551D01*
G01X673262Y710703D02*
G03X673098Y710468I86J-235D01*
X673102Y710424I250J0*
G01X672622Y708944D02*
G03X673102Y710424I-1144J1189D01*
G01X672622Y708944D02*
G03X672832Y708516I173J-180D01*
G01X671934Y708074D02*
G03X672832Y708516I1144J-1189D01*
G01X671934Y708074D02*
G03X671723Y708501I-174J180D01*
G01X670914Y711683D02*
G03X671723Y708501I564J-1550D01*
G01X670914Y711683D02*
G03X671078Y711918I-86J235D01*
X671075Y711963I-250J0*
G01X671385Y713252D02*
G03X671075Y711963I1314J-998D01*
G01X671385Y713252D02*
G03Y713555I-199J152D01*
G01X671692Y715861D02*
G03X671385Y713555I1007J-1307D01*
G01X671692Y715861D02*
G03X671784Y716111I-152J199D01*
G01X675049Y716454D02*
G03X671785Y716111I-1650J-0D01*
G01X675049Y716454D02*
X675049D01*
X675011Y716103D02*
G03X675049Y716454I-1612J351D01*
G01X675011Y716103D02*
G03X675005Y716050I244J-53D01*
G01X675005*
G03X675238Y715801I250J0*
G01X676034Y715438D02*
G03X675238Y715801I-884J-884D01*
G01X676034Y715438D02*
X690784Y700688D01*
X691150Y699804D02*
G03X690784Y700688I-1250J0D01*
G01X691150Y699804D02*
Y692262D01*
G03X691448Y692016I250J-0*
G01X693603Y690616D02*
G03X691448Y692016I-1803J-416D01*
G01X693603Y690616D02*
G03X694023Y690496I243J57D01*
G01X695665Y692138*
X696549Y692504D02*
G03X695665Y692138I-0J-1250D01*
G01X696549Y692504D02*
X700832D01*
G03X700986Y692556I0J250*
G01Y689951D02*
G03Y692556I1013J1303D01*
G01Y689951D02*
G03X700832Y690004I-154J-197D01*
G01X697170*
G03X696993Y689930I-0J-250*
G01X695259Y688197*
G03X695348Y687786I177J-177*
G01X695756Y687572D02*
G03X695348Y687786I-1057J-1518D01*
G01X695756Y687572D02*
G03X696041I143J205D01*
G01Y684536D02*
G03Y687572I1058J1518D01*
G01Y684536D02*
G03X695756I-142J-206D01*
G01X695692Y684493D02*
G03X695756Y684536I-993J1561D01*
G01X695692Y684493D02*
G03X695649Y684459I134J-211D01*
G01X694844Y683653*
X693571Y683126D02*
G03X694844Y683653I-0J1800D01*
G01X693571Y683126D02*
X687598D01*
X687558D02*
G03X687598I40J1800D01*
G01X687558D02*
G03X687351Y683025I-6J-250D01*
G01X686441Y682519D02*
G03X687351Y683025I-97J1246D01*
G01X686441Y682519D02*
G03X686212Y682289I20J-250D01*
G01X686076Y681813D02*
G03X686212Y682289I-1110J574D01*
G01X686076Y681813D02*
G03Y681583I222J-115D01*
G01X686216Y681009D02*
G03X686076Y681583I-1250J-0D01*
G01X686216Y681009D02*
Y678945D01*
G03X686289Y678769I250J0*
G01X689880Y675177*
G03X690057Y675104I177J177*
G01X691737*
G03X691982Y675401I0J250*
G01X695615D02*
G03X691982I-1816J353D01*
G01X695615D02*
G03X695860Y675104I245J-47D01*
G01X707956*
G03X708206Y675337I0J250*
G01X709171Y672520D02*
G03X708206Y675337I2876J2559D01*
G01X709171Y672520D02*
G03X708984Y672604I-187J-166D01*
G01X689436*
X688552Y672970D02*
G03X689436Y672604I884J884D01*
G01X688552Y672970D02*
X688452Y673070D01*
G03X688068Y673033I-177J-177*
G01X685065Y674183D02*
G03X688068Y673033I1634J-229D01*
G01X685065Y674183D02*
G03X684670Y674420I-248J35D01*
G01X683681Y674104D02*
G03X684670Y674420I18J1650D01*
G01X683681Y674104D02*
G03X683443Y673937I-2J-250D01*
G01X680470Y673170D02*
G03X683443Y673937I1229J1384D01*
G01X680470Y673170D02*
G03X680185Y673203I-166J-187D01*
G01X678260Y675848D02*
G03X680185Y673203I1139J-1194D01*
G01X678260Y675848D02*
G03X678337Y676029I-173J181D01*
X678312Y676137I-250J-0*
G01X678149Y676854D02*
G03X678312Y676137I1650J-0D01*
G01X681439Y676680D02*
G03X678149Y676854I-1640J174D01*
G01X681439Y676680D02*
G03X681438Y676654I249J-26D01*
G01X681438*
G03X681689Y676404I250J-0*
G01X681975Y676383D02*
G03X681689Y676404I-276J-1829D01*
G01X681975Y676383D02*
G03X682235Y676515I38J247D01*
G01X683634Y677402D02*
G03X682235Y676515I65J-1648D01*
G01X683634Y677403D02*
G03X683848Y677764I-10J249D01*
G01X683716Y678324D02*
G03X683848Y677764I1250J0D01*
G01X683716Y678324D02*
Y679514D01*
G03X683486Y679763I-250J-0*
G01X683013Y679898D02*
G03X683486Y679763I575J1111D01*
G01X683013Y679898D02*
G03X682784I-114J-222D01*
G01X681829Y679818D02*
G03X682784Y679898I381J1191D01*
G01X681829Y679818D02*
G03X681617Y679790I-76J-238D01*
G01X679385Y680905D02*
G03X681617Y679790I1447J104D01*
G01X679385Y680905D02*
G03X679136Y681137I-249J-18D01*
G01X678655*
G03X678479Y681064I0J-250*
G01X675474Y678059*
G03X675401Y677883I177J-176*
G01X675401D02*
G03X675486Y677695I250J-0D01*
G01X676049Y676454D02*
G03X675486Y677695I-1650J-0D01*
G01X674051Y674841D02*
G03X676049Y676454I348J1613D01*
G01X674051Y674841D02*
G03X673748Y674591I-53J-245D01*
G01X673749Y674554D02*
G03X673748Y674591I-1650J-0D01*
G01X673749Y674554D02*
X673749D01*
X671900Y672916D02*
G03X673749Y674554I199J1638D01*
G01X671900Y672916D02*
G03X671637Y672758I-30J-249D01*
G01X670297Y674992D02*
G03X671637Y672758I-198J-1638D01*
G01X670297Y674992D02*
G03X670560Y675150I30J248D01*
G01X670602Y675248D02*
G03X670560Y675150I1497J-694D01*
G01X670602Y675248D02*
G03X670375Y675604I-227J106D01*
G01X666399*
G03X666149Y675354I-0J-250*
G01Y670204*
X653670*
G03X653424Y669912I0J-250*
G01X649776D02*
G03X653424I1824J-312D01*
G01X649776D02*
G03X649530Y670204I-246J42D01*
G01X642399*
G03X642149Y669954I-0J-250*
G01Y660857*
G03X642478Y660619I250J-0*
G01Y657488D02*
G03Y660619I521J1566D01*
G01Y657488D02*
G03X642149Y657251I-79J-237D01*
G01Y648611*
G03X642451Y648367I250J0*
G01X641149Y646754D02*
G03X642451Y648367I1650J-0D01*
G01X641158Y646927D02*
G03X641149Y646754I1641J-173D01*
G01X641158Y646927D02*
G03X641159Y646954I-249J27D01*
G01X641159*
G03X640909Y647204I-250J-0*
G01X630649*
Y680519*
G03X630612Y680650I-250J0*
G01X630370Y681510D02*
G03X630612Y680650I1650J0D01*
G01X632802Y682963D02*
G03X630370Y681510I-782J-1453D01*
G01X632802Y682963D02*
G03X633098Y683006I119J220D01*
G01X639575Y689484*
G03X639649Y689661I-176J177*
G01Y702105*
G03X639622Y702217I-250J0*
G01Y703691D02*
G03Y702217I1477J-737D01*
G01Y703691D02*
G03X639649Y703802I-223J111D01*
G01Y711115*
G03X639575Y711292I-250J0*
G01X633229Y717638*
X632971Y718007D02*
G03X633229Y717638I1178J550D01*
G01X632971Y718007D02*
G03X632921Y718078I-226J-106D01*
G01X632649Y718350*
Y719865*
G03X632268Y720078I-250J-0*
G01X632221Y723257D02*
G03X632268Y720078I-922J-1603D01*
G01X632221Y723257D02*
G03X632589Y723419I125J217D01*
G01X632635Y723582D02*
G03X632589Y723419I1564J-528D01*
G01X632635Y723582D02*
G03X632649Y723662I-236J80D01*
G01Y739954*
G03X632399Y740204I-250J-0*
G01X619889*
G03X619640Y739978I0J-250*
G01X615957D02*
G03X619640I1842J176D01*
G01X615957D02*
G03X615708Y740204I-249J-24D01*
G01X602000*
G03X601750Y739954I0J-250*
G01Y738658*
G03X601878Y738440I250J-0*
G01Y731718D02*
G03Y738440I-1878J3361D01*
G01Y731718D02*
G03X601750Y731500I122J-218D01*
G01Y728658*
G03X601878Y728440I250J-0*
G01Y721718D02*
G03Y728440I-1878J3361D01*
G01Y721718D02*
G03X601750Y721500I122J-218D01*
G01Y718658*
G03X601878Y718440I250J-0*
G01Y711718D02*
G03Y718440I-1878J3361D01*
G01Y711718D02*
G03X601750Y711500I122J-218D01*
G01Y708658*
G03X601878Y708440I250J-0*
G01Y701718D02*
G03Y708440I-1878J3361D01*
G01Y701718D02*
G03X601750Y701500I122J-218D01*
G01Y698658*
G03X601878Y698440I250J-0*
G01Y691718D02*
G03Y698440I-1878J3361D01*
G01Y691718D02*
G03X601750Y691500I122J-218D01*
G01Y688658*
G03X601878Y688440I250J-0*
G01Y681718D02*
G03Y688440I-1878J3361D01*
G01Y681718D02*
G03X601750Y681500I122J-218D01*
G01Y678658*
G03X601878Y678440I250J-0*
G01Y671718D02*
G03Y678440I-1878J3361D01*
G01Y671718D02*
G03X601750Y671500I122J-218D01*
G01Y668658*
G03X601878Y668440I250J-0*
G01Y661718D02*
G03Y668440I-1878J3361D01*
G01Y661718D02*
G03X601750Y661500I122J-218D01*
G01Y658658*
G03X601878Y658440I250J-0*
G01Y651718D02*
G03Y658440I-1878J3361D01*
G01Y651718D02*
G03X601750Y651500I122J-218D01*
G01Y648658*
G03X601878Y648440I250J-0*
G01Y641718D02*
G03Y648440I-1878J3361D01*
G01Y641718D02*
G03X601750Y641500I122J-218D01*
G01Y638885*
G03X601884Y638664I250J0*
G01Y631493D02*
G03Y638664I-1884J3586D01*
G01Y631493D02*
G03X601750Y631272I116J-221D01*
G01Y628885*
G03X601884Y628664I250J0*
G01Y621493D02*
G03Y628664I-1884J3586D01*
G01Y621493D02*
G03X601750Y621272I116J-221D01*
G01Y602000*
G03X602000Y601750I250J0*
G01X720047*
G03X720297Y602000I0J250*
G01Y621500*
G03X720169Y621718I-250J-0*
G01Y628440D02*
G03Y621718I1878J-3361D01*
G01Y628440D02*
G03X720297Y628658I-122J218D01*
G01Y631500*
G03X720169Y631718I-250J-0*
G01Y638440D02*
G03Y631718I1878J-3361D01*
G01Y638440D02*
G03X720297Y638658I-122J218D01*
G01Y641500*
G03X720169Y641718I-250J-0*
G01Y648440D02*
G03Y641718I1878J-3361D01*
G01Y648440D02*
G03X720297Y648658I-122J218D01*
G01Y651500*
G03X720169Y651718I-250J-0*
G01Y658440D02*
G03Y651718I1878J-3361D01*
G01Y658440D02*
G03X720297Y658658I-122J218D01*
G01Y661500*
G03X720169Y661718I-250J-0*
G01Y668440D02*
G03Y661718I1878J-3361D01*
G01Y668440D02*
G03X720297Y668658I-122J218D01*
G01Y671500*
G03X720169Y671718I-250J-0*
G01Y678440D02*
G03Y671718I1878J-3361D01*
G01Y678440D02*
G03X720297Y678658I-122J218D01*
G01Y681500*
G03X720169Y681718I-250J-0*
G01Y688440D02*
G03Y681718I1878J-3361D01*
G01Y688440D02*
G03X720297Y688658I-122J218D01*
G01Y691500*
G03X720169Y691718I-250J-0*
G01Y698440D02*
G03Y691718I1878J-3361D01*
G01Y698440D02*
G03X720297Y698658I-122J218D01*
G01Y701500*
G03X720169Y701718I-250J-0*
G01Y708440D02*
G03Y701718I1878J-3361D01*
G01Y708440D02*
G03X720297Y708658I-122J218D01*
G01Y711500*
G03X720169Y711718I-250J-0*
G01Y718440D02*
G03Y711718I1878J-3361D01*
G01Y718440D02*
G03X720297Y718658I-122J218D01*
G01Y721500*
G03X720169Y721718I-250J-0*
G01Y728440D02*
G03Y721718I1878J-3361D01*
G01Y728440D02*
G03X720297Y728658I-122J218D01*
G01Y731500*
G03X720169Y731718I-250J-0*
G01Y738440D02*
G03Y731718I1878J-3361D01*
G01Y738440D02*
G03X720297Y738658I-122J218D01*
G01Y741500*
G03X720169Y741718I-250J-0*
G01Y748440D02*
G03Y741718I1878J-3361D01*
G01Y748440D02*
G03X720297Y748658I-122J218D01*
G01Y751500*
G03X720169Y751718I-250J-0*
G01Y758440D02*
G03Y751718I1878J-3361D01*
G01Y758440D02*
G03X720297Y758658I-122J218D01*
G01Y761500*
G03X720169Y761718I-250J-0*
G01Y768440D02*
G03Y761718I1878J-3361D01*
G01Y768440D02*
G03X720297Y768658I-122J218D01*
G01Y771500*
G03X720169Y771718I-250J-0*
G01Y778440D02*
G03Y771718I1878J-3361D01*
G01Y778440D02*
G03X720297Y778658I-122J218D01*
G01Y781500*
G03X720169Y781718I-250J-0*
G01Y788440D02*
G03Y781718I1878J-3361D01*
G01Y788440D02*
G03X720297Y788658I-122J218D01*
G01Y791500*
G03X720169Y791718I-250J-0*
G01Y798440D02*
G03Y791718I1878J-3361D01*
G01Y798440D02*
G03X720297Y798658I-122J218D01*
G01Y801272*
G03X720164Y801493I-250J0*
G01Y808664D02*
G03Y801493I1883J-3585D01*
G01Y808664D02*
G03X720297Y808885I-117J221D01*
G01Y811500*
G03X720169Y811718I-250J-0*
G01Y818440D02*
G03Y811718I1878J-3361D01*
G01Y818440D02*
G03X720297Y818658I-122J218D01*
G01Y838157*
X672787Y815179D02*
X649260D01*
G03X649040Y814811I0J-250*
G01X649043Y811971D02*
G03X649040Y814811I-2665J1417D01*
G01X649043Y811971D02*
G03X649014Y811854I221J-117D01*
X649264Y811604I250J-0*
G01X656925*
G03X657145Y811972I0J250*
G01X659896Y813773D02*
G03X657145Y811972I-1297J-1019D01*
G01X659896Y813773D02*
G03X660149Y813684I197J155D01*
G01X661459Y813435D02*
G03X660149Y813684I-937J-1358D01*
G01X661459Y813435D02*
G03X661725Y813423I142J205D01*
G01X664196Y811992D02*
G03X661725Y813423I-1650J-0D01*
G01X664196Y811992D02*
X664196D01*
X664191Y811872D02*
G03X664196Y811992I-1645J120D01*
G01X664191Y811872D02*
G03Y811854I250J-18D01*
G01X664191*
G03X664441Y811604I250J-0*
G01X672783*
G03X673033Y811854I0J250*
X673004Y811971I-250J-0*
G01X673007Y814811D02*
G03X673004Y811971I2662J-1423D01*
G01X673007Y814811D02*
G03X672787Y815179I-220J118D01*
G01X664649Y706188D02*
G03X664470Y706427I-250J-0D01*
G01X663425Y709171D02*
G03X664470Y706427I1575J-971D01*
G01X663425Y709171D02*
G03X663389Y709478I-213J131D01*
G01X661784Y711084*
G03X661737Y711120I-177J-177*
G01X661120Y711737D02*
G03X661737Y711120I1580J963D01*
G01X661120Y711737D02*
G03X661084Y711784I-213J-130D01*
G01X644229Y728638*
X643971Y729007D02*
G03X644229Y728638I1178J550D01*
G01X643971Y729007D02*
G03X643921Y729078I-226J-106D01*
G01X643649Y729350*
Y736930*
G03X643256Y737136I-250J0*
G01X642991Y740325D02*
G03X643256Y737136I-792J-1671D01*
G01X642991Y740325D02*
G03X643349Y740551I108J226D01*
G01Y740554*
X643613Y741507D02*
G03X643349Y740554I1586J-953D01*
G01X643613Y741507D02*
G03X643649Y741635I-214J128D01*
G01Y748956*
G03X643291Y749182I-250J0*
G01X642714Y752691D02*
G03X643291Y749182I-215J-1837D01*
G01X642714Y752691D02*
G03X642917Y753120I30J248D01*
G01X642402Y754894D02*
G03X642917Y753120I1797J-440D01*
G01X642402Y754894D02*
G03X642409Y754954I-243J60D01*
X642159Y755204I-250J-0*
G01X622649*
Y759321*
G03X622601Y759468I-250J-0*
G01X622249Y760554D02*
G03X622601Y759468I1850J-0D01*
G01X622249Y760554D02*
X622249D01*
X622601Y761640D02*
G03X622249Y760554I1498J-1086D01*
G01X622601Y761640D02*
G03X622649Y761787I-202J147D01*
G01Y766513*
G03X622161Y766590I-250J0*
G01Y767718D02*
G03Y766590I-1762J-564D01*
G01Y767718D02*
G03X622649Y767794I238J76D01*
G01Y773130*
G03X622541Y773336I-250J0*
G01Y776372D02*
G03Y773336I1058J-1518D01*
G01Y776372D02*
G03X622649Y776577I-142J205D01*
G01Y781613*
G03X622161Y781690I-250J0*
G01Y782818D02*
G03Y781690I-1762J-564D01*
G01Y782818D02*
G03X622649Y782894I238J76D01*
G01Y789088*
G03X622232Y789275I-250J0*
G01Y792033D02*
G03Y789275I-1233J-1379D01*
G01Y792033D02*
G03X622649Y792219I167J186D01*
G01Y838157*
G03X622399Y838407I-250J0*
G01X602000*
G03X601750Y838157I0J-250*
G01Y818885*
G03X601884Y818664I250J0*
G01Y811493D02*
G03Y818664I-1884J3586D01*
G01Y811493D02*
G03X601750Y811272I116J-221D01*
G01Y808885*
G03X601884Y808664I250J0*
G01Y801493D02*
G03Y808664I-1884J3586D01*
G01Y801493D02*
G03X601750Y801272I116J-221D01*
G01Y798885*
G03X601884Y798664I250J0*
G01Y791493D02*
G03Y798664I-1884J3586D01*
G01Y791493D02*
G03X601750Y791272I116J-221D01*
G01Y788885*
G03X601884Y788664I250J0*
G01Y781493D02*
G03Y788664I-1884J3586D01*
G01Y781493D02*
G03X601750Y781272I116J-221D01*
G01Y778885*
G03X601884Y778664I250J0*
G01Y771493D02*
G03Y778664I-1884J3586D01*
G01Y771493D02*
G03X601750Y771272I116J-221D01*
G01Y768885*
G03X601884Y768664I250J0*
G01Y761493D02*
G03Y768664I-1884J3586D01*
G01Y761493D02*
G03X601750Y761272I116J-221D01*
G01Y758885*
G03X601884Y758664I250J0*
G01Y751493D02*
G03Y758664I-1884J3586D01*
G01Y751493D02*
G03X601750Y751272I116J-221D01*
G01Y748885*
G03X601884Y748664I250J0*
G01X602782Y742135D02*
G03X601884Y748664I-2782J2944D01*
G01X602782Y742135D02*
G03X602954Y741704I172J-181D01*
G01X607046*
G03X607218Y742135I0J250*
G01X612782D02*
G03X607218I-2782J2944D01*
G01X612782D02*
G03X612954Y741704I172J-181D01*
G01X616717*
G03X616846Y741739I-0J250*
G01X618752D02*
G03X616846I-953J-1585D01*
G01X618752D02*
G03X618880Y741704I128J215D01*
G01X633329*
G03X633504Y741775I-0J250*
G01X634446Y738638D02*
G03X633504Y741775I353J1816D01*
G01X634446Y738638D02*
G03X634149Y738392I-47J-246D01*
G01Y725144*
G03X634375Y724895I250J0*
G01Y721212D02*
G03Y724895I-176J1842D01*
G01Y721212D02*
G03X634149Y720963I24J-249D01*
G01Y718792*
G03X634222Y718615I250J0*
G01X638904Y713933*
G03X638964Y713889I177J177*
G01X639734Y713119D02*
G03X638964Y713889I-1635J-865D01*
G01X639734Y713119D02*
G03X639778Y713059I221J117D01*
G01X640568Y712269*
X640826Y711901D02*
G03X640568Y712269I-1177J-551D01*
G01X640826Y711901D02*
G03X640876Y711830I227J106D01*
G01X641149Y711557*
Y705032*
G03X641363Y704785I250J0*
G01Y701123D02*
G03Y704785I-264J1831D01*
G01Y701123D02*
G03X641149Y700875I36J-248D01*
G01Y692790*
G03X641595Y692635I250J0*
G01Y690343D02*
G03Y692635I1452J1146D01*
G01Y690343D02*
G03X641149Y690188I-196J-155D01*
G01Y688350*
X633842Y681044*
G03X633781Y680944I177J-177*
G01X632586Y679749D02*
G03X633781Y680944I-566J1761D01*
G01X632586Y679749D02*
G03X632486Y679688I77J-238D01*
G01X632222Y679423*
G03X632149Y679247I177J-176*
G01Y664893*
G03X632458Y664651I250J0*
G01Y661057D02*
G03Y664651I441J1797D01*
G01Y661057D02*
G03X632149Y660814I-59J-243D01*
G01Y648954*
G03X632399Y648704I250J-0*
G01X640399*
G03X640649Y648954I-0J250*
G01Y671704*
X657233*
G03X657420Y672120I0J250*
G01X656949Y673354D02*
G03X657420Y672120I1850J-0D01*
G01X658508Y675181D02*
G03X656949Y673354I291J-1827D01*
G01X658508Y675181D02*
G03X658645Y675251I-40J247D01*
G01X660171Y676777*
G03X659994Y677204I-177J177*
G01X653799*
X652773Y677628D02*
G03X653799Y677204I1026J1026D01*
G01X652773Y677628D02*
X651445Y678957D01*
G03X651308Y679027I-177J-177*
G01X649749Y680854D02*
G03X651308Y679027I1850J-0D01*
G01X651806Y682692D02*
G03X649749Y680854I-207J-1838D01*
G01X651806Y682692D02*
G03X652080Y682894I29J248D01*
G01X655264Y683802D02*
G03X652080Y682894I-1365J-1248D01*
G01X655264Y683802D02*
G03X655633I185J169D01*
G01Y681306D02*
G03Y683802I1366J1248D01*
G01Y681306D02*
G03X655264I-184J-169D01*
G01X654299Y680748D02*
G03X655264Y681306I-400J1806D01*
G01X654299Y680748D02*
G03X654176Y680327I54J-245D01*
G01X654326Y680177*
G03X654503Y680104I177J177*
G01X664399*
G03X664649Y680354I-0J250*
G01Y686900*
G03X664261Y687109I-250J-0*
G01X661657Y689606D02*
G03X664261Y687109I1587J-952D01*
G01X661657Y689606D02*
G03X661331Y689957I-214J128D01*
G01X662086Y690658D02*
G03X661331Y689957I-1587J952D01*
G01X662086Y690658D02*
G03X662412Y690307I214J-128D01*
G01X664261Y690199D02*
G03X662412Y690307I-1017J-1545D01*
G01X664261Y690199D02*
G03X664649Y690408I138J209D01*
G01Y706188*
X715897Y685079D02*
G03X715897I-3850J0D01*
G01Y695079D02*
G03X715897I-3850J0D01*
G01Y705079D02*
G03X715897I-3850J0D01*
G01Y715079D02*
G03X715897I-3850J0D01*
G01Y725079D02*
G03X715897I-3850J0D01*
G01Y735079D02*
G03X715897I-3850J0D01*
G01Y745079D02*
G03X715897I-3850J0D01*
G01Y755079D02*
G03X715897I-3850J0D01*
G01Y765079D02*
G03X715897I-3850J0D01*
G01Y775079D02*
G03X715897I-3850J0D01*
G01Y785079D02*
G03X715897I-3850J0D01*
G01Y795079D02*
G03X715897I-3850J0D01*
G01X716097Y805079D02*
G03X716097I-4050J0D01*
G01X715897Y815079D02*
G03X715897I-3850J0D01*
G01X702886Y741448D02*
G03X702886I-1650J0D01*
G01X702449Y762954D02*
G03X702449I-1850J0D01*
G01X700188Y773589D02*
G03X700188I-1650J0D01*
G01X700044Y784095D02*
G03X699749Y783154I1355J-941D01*
G01X700044Y784095D02*
G03X700031Y784398I-206J143D01*
G01X699649Y785454D02*
G03X700031Y784398I1650J-0D01*
G01X699923Y786366D02*
G03X699649Y785454I1376J-912D01*
G01X699923Y786366D02*
G03Y786642I-208J138D01*
G01X702674D02*
G03X699923I-1375J912D01*
G01X702674D02*
G03Y786366I208J-138D01*
G01X702949Y785454D02*
G03X702674Y786366I-1650J-0D01*
G01X702654Y784512D02*
G03X702949Y785454I-1355J942D01*
G01X702654Y784512D02*
G03X702667Y784209I205J-143D01*
G01X699749Y783154D02*
G03X702667Y784209I1650J-0D01*
G01X695749Y695954D02*
G03X695749I-1850J0D01*
G01X694623Y749501D02*
G03X694623I-1650J0D01*
G01X695849Y763754D02*
G03X695849I-1650J0D01*
G01X694149Y773454D02*
G03X694149I-1650J0D01*
G01X694549Y782454D02*
G03X694549I-1650J0D01*
G01X697149Y786854D02*
G03X697149I-1650J0D01*
G01X701204Y791767D02*
G03X700915Y791754I-135J-210D01*
G01X699117Y791601D02*
G03X700915Y791754I782J1453D01*
G01X699117Y791601D02*
G03X698841Y791574I-119J-221D01*
G01X698580Y794307D02*
G03X698841Y791574I-781J-1453D01*
G01X698580Y794307D02*
G03X698857Y794333I119J220D01*
G01X700793Y794440D02*
G03X698857Y794333I-894J-1386D01*
G01X700793Y794440D02*
G03X701082Y794454I135J211D01*
G01X701204Y791767D02*
G03X701082Y794454I895J1387D01*
G01X704649Y799954D02*
G03X704649I-1850J0D01*
G01X705049Y809754D02*
G03X705049I-1650J0D01*
G01X690749Y818454D02*
G03X690749I-1850J0D01*
G01Y826454D02*
G03X690749I-1850J0D01*
G01X689692Y722897D02*
G03X689692I-1650J0D01*
G01X687274Y727518D02*
G03X686932Y727387I-110J-224D01*
G01X685611Y726364D02*
G03X686932Y727387I-211J1636D01*
G01X685611Y726364D02*
G03X685478Y725928I32J-248D01*
G01X686038Y724690D02*
G03X685478Y725928I-1650J-0D01*
G01X684886Y723117D02*
G03X686038Y724690I-498J1573D01*
G01X684886Y723117D02*
G03X684717Y722829I76J-238D01*
G01X682601Y724073D02*
G03X684717Y722829I499J-1573D01*
G01X682601Y724073D02*
G03X682771Y724361I-75J238D01*
G01X682738Y724690D02*
G03X682771Y724361I1650J-0D01*
G01X684176Y726326D02*
G03X682738Y724690I212J-1636D01*
G01X684176Y726326D02*
G03X684309Y726762I-32J248D01*
G01X683750Y728000D02*
G03X684309Y726762I1650J0D01*
G01X686126Y729482D02*
G03X683750Y728000I-726J-1482D01*
G01X686126Y729482D02*
G03X686468Y729613I110J224D01*
G01X687274Y727518D02*
G03X686468Y729613I726J1482D01*
G01X688935Y748511D02*
G03X688935I-1850J0D01*
G01X690749Y763154D02*
G03X690749I-1650J0D01*
G01X691649Y786854D02*
G03X691649I-1650J0D01*
G01X694449Y792854D02*
G03X694449I-1650J0D01*
G01X681730Y756275D02*
G03X681662Y756621I-208J139D01*
G01X684123Y756973D02*
G03X681662Y756621I-1424J1181D01*
G01X684123Y756973D02*
G03X684155Y756621I192J-160D01*
G01X681730Y756275D02*
G03X684155Y756621I1369J-921D01*
G01X686749Y762754D02*
G03X686749I-1650J0D01*
G01X685949Y773254D02*
G03X685949I-1650J0D01*
G01X684381Y780040D02*
G03X684468Y780109I-108J225D01*
X684579Y780120I32J248*
G01X684381Y780040D02*
G03X684579Y780120I718J-1486D01*
G01X674688Y724304D02*
G03X674377Y724300I-153J-197D01*
G01X674345Y726882D02*
G03X674377Y724300I-1011J-1303D01*
G01X674345Y726882D02*
G03X674656Y726886I153J198D01*
G01X674688Y724304D02*
G03X674656Y726886I1012J1304D01*
G01X680285Y730446D02*
G03X680285I-1650J0D01*
G01X679538Y735458D02*
G03X679538I-1850J0D01*
G01X684393Y780583D02*
G03X684304Y780513I107J-226D01*
X684192Y780502I-31J-248*
G01X682312Y780925D02*
G03X684192Y780502I1287J1329D01*
G01X682312Y780925D02*
G03X681964I-174J-180D01*
G01Y783583D02*
G03Y780925I-1287J-1329D01*
G01Y783583D02*
G03X682312I174J179D01*
G01X684393Y780583D02*
G03X682312Y783583I-794J1671D01*
G01X677049Y764854D02*
G03X677049I-1650J0D01*
G01X676201Y780946D02*
G03X676101Y780746I150J-200D01*
X676160Y780584I250J-0*
G01X673916Y780840D02*
G03X676160Y780584I986J-1323D01*
G01X673916Y780840D02*
G03X674017Y781041I-149J201D01*
X673957Y781202I-250J-0*
G01X676201Y780946D02*
G03X673957Y781202I-985J1324D01*
G01X678449Y792754D02*
G03X678449I-1650J0D01*
G01X678649Y801154D02*
G03X678649I-1850J0D01*
G01X671249Y729254D02*
G03X671249I-1650J0D01*
G01X672160Y744650D02*
G03X672160I-1850J0D01*
G01X667549Y769754D02*
G03X667549I-1650J0D01*
G01X670449Y780154D02*
G03X670449I-1650J0D01*
G01X663749Y744254D02*
G03X663749I-1650J0D01*
G01X659249Y723354D02*
G03X659249I-1650J0D01*
G01X657849Y734054D02*
G03X657849I-1650J0D01*
G01X658949Y744154D02*
G03X658949I-1650J0D01*
G01X659949Y769354D02*
G03X659949I-1650J0D01*
G01X659649Y777254D02*
G03X659649I-1650J0D01*
G01X653949Y731254D02*
G03X653949I-1850J0D01*
G01X655849Y788554D02*
G03X655849I-1650J0D01*
G01X645662Y763821D02*
G03X645386Y763505I-36J-248D01*
G01X643451Y761441D02*
G03X645386Y763505I348J1613D01*
G01X643451Y761441D02*
G03X643160Y761120I-53J-245D01*
G01X641893Y762337D02*
G03X643160Y761120I-494J-1783D01*
G01X641893Y762337D02*
G03X642201Y762640I66J241D01*
G01X644035Y764687D02*
G03X642201Y762640I-236J-1633D01*
G01X644035Y764687D02*
G03X644311Y765002I36J247D01*
G01X645662Y763821D02*
G03X644312Y765003I237J1633D01*
G01X650749Y773154D02*
G03X650749I-1650J0D01*
G01X650949Y788954D02*
G03X650949I-1650J0D01*
G01X642412Y773247D02*
G03X642415Y772784I97J-231D01*
G01X643449Y771254D02*
G03X642415Y772784I-1650J-0D01*
G01X640149Y771254D02*
G03X643449I1650J-0D01*
G01X641100Y772749D02*
G03X640149Y771254I699J-1495D01*
G01X641100Y772749D02*
G03X641078Y773211I-105J226D01*
G01X642412Y773247D02*
G03X641078Y773211I-713J1707D01*
G01X647049Y791954D02*
G03X647049I-1850J0D01*
G01X643849Y796754D02*
G03X643849I-1850J0D01*
G01X637683Y782232D02*
G03X637683I-1850J0D01*
G01X702949Y685254D02*
G03X702949I-1650J0D01*
G01X696017Y680060D02*
G03X696017I-1650J0D01*
G01X691349Y680754D02*
G03X691349I-1650J0D01*
G01X708483Y626535D02*
G03X708502Y626630I-231J95D01*
X708061Y626791I-250J-0*
G01X705800Y626540D02*
G03X708061Y626791I999J1314D01*
G01X705800Y626540D02*
G03X705497I-151J-199D01*
G01Y629167D02*
G03Y626540I-998J-1313D01*
G01Y629167D02*
G03X705800I152J199D01*
G01X708388Y627409D02*
G03X705800Y629167I-1589J445D01*
G01X708388Y627409D02*
G03X708837Y627204I240J-67D01*
G01X708483Y626535D02*
G03X708837Y627204I3564J-1456D01*
G01X706411Y610151D02*
G03Y609756I154J-197D01*
G01X704313Y607211D02*
G03X706411Y609756I1086J1243D01*
G01X704313Y607211D02*
G03X703984I-164J-188D01*
G01X701886Y609756D02*
G03X703984Y607211I1013J-1302D01*
G01X701886Y609756D02*
G03Y610151I-154J198D01*
G01X703984Y612696D02*
G03X701886Y610151I-1085J-1242D01*
G01X703984Y612696D02*
G03X704313I165J189D01*
G01X706411Y610151D02*
G03X704313Y612696I-1012J1303D01*
G01X715897Y635079D02*
G03X715897I-3850J0D01*
G01X708958Y647377D02*
G03X708197Y645079I3089J-2298D01*
G01X708958Y647377D02*
G03X709007Y647548I-200J149D01*
X709164Y647630I-30J248*
G01X708197Y645079D02*
G03X709164Y647630I3850J-0D01*
G01X708769Y647935D02*
G03X708728Y647774I208J-139D01*
X708579Y647701I30J-248*
G01X706126Y649904D02*
G03X708579Y647701I1273J-1050D01*
G01X706126Y649904D02*
G03X705849Y650298I-193J159D01*
G01X706572Y650804D02*
G03X705849Y650298I-1273J1050D01*
G01X706572Y650804D02*
G03X706848Y650409I192J-159D01*
G01X708769Y647935D02*
G03X706848Y650409I-1370J919D01*
G01X715897Y655079D02*
G03X715897I-3850J0D01*
G01Y665079D02*
G03X715897I-3850J0D01*
G01X699349Y670154D02*
G03X699349I-1850J0D01*
G01X694449Y670354D02*
G03X694449I-1650J0D01*
G01X690349Y658654D02*
G03X690349I-1850J0D01*
G01X681349Y611654D02*
G03X681349I-1650J0D01*
G01X683949Y623654D02*
G03X683949I-1650J0D01*
G01X682449Y634254D02*
G03X682449I-1650J0D01*
G01X674969Y611520D02*
G03X674733Y611125I-34J-248D01*
G01X673628Y611788D02*
G03X674732Y611125I-229J-1634D01*
G01X673628Y611788D02*
G03X673865Y612182I35J247D01*
G01X674969Y611520D02*
G03X673865Y612182I230J1634D01*
G01X678649Y625054D02*
G03X678649I-1650J0D01*
G01X679649Y642254D02*
G03X679649I-1650J0D01*
G01X680849Y653154D02*
G03X680849I-1650J0D01*
G01X681249Y665354D02*
G03X681249I-1850J0D01*
G01X675049Y620054D02*
G03X675049I-1650J0D01*
G01X667399Y618421D02*
G03X667083Y618461I-182J-171D01*
G01X664549Y619854D02*
G03X667083Y618461I1650J-0D01*
G01X667399Y620986D02*
G03X664549Y619854I-1200J-1132D01*
G01X667399Y620986D02*
G03X667714Y620947I181J172D01*
G01X667399Y618421D02*
G03X667714Y620947I1200J1133D01*
G01X669142Y631527D02*
G03X668673I-235J-86D01*
G01X667700Y630555D02*
G03X668673Y631527I-564J1537D01*
G01X667700Y630555D02*
G03Y630085I87J-235D01*
G01X666571D02*
G03X667700I565J-1537D01*
G01X666571D02*
G03Y630555I-86J235D01*
G01X668673Y632656D02*
G03X666571Y630555I-1537J-564D01*
G01X668673Y632656D02*
G03X669142I234J86D01*
G01Y631527D02*
G03Y632656I1537J565D01*
G01Y636251D02*
G03X668673I-235J-86D01*
G01X666571Y638353D02*
G03X668673Y636251I565J-1537D01*
G01X666571Y638353D02*
G03Y638822I-86J235D01*
G01X667700D02*
G03X666571I-564J1537D01*
G01X667700D02*
G03Y638353I87J-234D01*
G01X668673Y637381D02*
G03X667700Y638353I-1537J-565D01*
G01X668673Y637381D02*
G03X669142I234J86D01*
G01Y636251D02*
G03Y637381I1537J565D01*
G01X673678Y647313D02*
G03X673467Y647142I27J-248D01*
G01X671719Y649294D02*
G03X673467Y647142I180J-1640D01*
G01X671719Y649294D02*
G03X671930Y649465I-27J249D01*
G01X673678Y647313D02*
G03X671930Y649465I-179J1641D01*
G01X676249Y662554D02*
G03X676249I-1850J0D01*
G01X662976Y630555D02*
G03Y630085I86J-235D01*
G01X661847D02*
G03X662976I564J-1537D01*
G01X661847D02*
G03Y630555I-86J235D01*
G01X660874Y631527D02*
G03X661847Y630555I1537J565D01*
G01X660874Y631527D02*
G03X660405I-234J-86D01*
G01Y632656D02*
G03Y631527I-1537J-564D01*
G01Y632656D02*
G03X660874I235J86D01*
G01X662976Y630555D02*
G03X660874Y632656I-565J1537D01*
G01X659949Y621354D02*
G03X659949I-1650J0D01*
G01X662976Y638822D02*
G03Y638353I86J-234D01*
G01X660874Y636251D02*
G03X662976Y638353I1537J565D01*
G01X660874Y636251D02*
G03X660405I-234J-86D01*
G01Y637381D02*
G03Y636251I-1537J-565D01*
G01Y637381D02*
G03X660874I235J86D01*
G01X661847Y638353D02*
G03X660874Y637381I564J-1537D01*
G01X661847Y638353D02*
G03Y638822I-86J235D01*
G01X662976D02*
G03X661847I-565J1537D01*
G01X663227Y646512D02*
G03X662838Y646491I-186J-167D01*
G01X660500Y646140D02*
G03X662838Y646491I999J1314D01*
G01X660500Y646140D02*
G03X660197I-151J-199D01*
G01Y648767D02*
G03Y646140I-998J-1313D01*
G01Y648767D02*
G03X660500I152J199D01*
G01X662629Y648656D02*
G03X660500Y648767I-1130J-1202D01*
G01X662629Y648656D02*
G03X663014Y648709I171J182D01*
G01X663227Y646512D02*
G03X663014Y648709I1372J1242D01*
G01X664149Y653154D02*
G03X664149I-1650J0D01*
G01X664770Y658550D02*
G03X664428I-171J-182D01*
G01X661735Y659225D02*
G03X664428Y658550I1564J529D01*
G01X661735Y659225D02*
G03X661249Y659146I-236J-80D01*
G01X661162Y659682D02*
G03X661249Y659146I-1563J-528D01*
G01X661162Y659682D02*
G03X661649Y659761I237J80D01*
G01X664428Y660957D02*
G03X661649Y659761I-1129J-1203D01*
G01X664428Y660957D02*
G03X664770I171J182D01*
G01Y658550D02*
G03Y660957I1129J1204D01*
G01X652141Y609368D02*
G03Y609039I189J-164D01*
G01X652549Y607954D02*
G03X652141Y609039I-1650J-0D01*
G01X649813Y606711D02*
G03X652549Y607954I1086J1243D01*
G01X649813Y606711D02*
G03X649484I-164J-188D01*
G01X646749Y607954D02*
G03X649484Y606711I1650J-0D01*
G01X647156Y609039D02*
G03X646749Y607954I1243J-1085D01*
G01X647156Y609039D02*
G03Y609368I-188J165D01*
G01X646749Y610454D02*
G03X647156Y609368I1650J-0D01*
G01X649484Y611696D02*
G03X646749Y610454I-1085J-1242D01*
G01X649484Y611696D02*
G03X649813I165J189D01*
G01X652141Y609368D02*
G03X649813Y611696I-1242J1086D01*
G01X652750Y624396D02*
G03X652407Y624620I-250J-8D01*
G01X653448Y626211D02*
G03X652407Y624620I-1649J-57D01*
G01X653448Y626211D02*
G03X653790Y625987I249J9D01*
G01X652750Y624396D02*
G03X653790Y625987I1649J58D01*
G01X656249Y647454D02*
G03X656249I-1850J0D01*
G01X649412Y632248D02*
G03X649452Y632383I-210J135D01*
X649399Y632537I-250J0*
G01X652085Y632660D02*
G03X649399Y632537I-1386J894D01*
G01X652085Y632660D02*
G03X652045Y632524I210J-136D01*
X652098Y632370I250J0*
G01X649412Y632248D02*
G03X652098Y632370I1387J-894D01*
G01X650649Y653254D02*
G03X650649I-1650J0D01*
G01X653450Y662300D02*
G03X653450I-1850J0D01*
G01X644449Y612154D02*
G03X644449I-1650J0D01*
G01X642149Y624654D02*
G03X642149I-1850J0D01*
G01Y629454D02*
G03X642149I-1650J0D01*
G01X642249Y635054D02*
G03X642249I-1850J0D01*
G01X644449Y641754D02*
G03X644449I-1650J0D01*
G01X634649Y611854D02*
G03X634649I-1850J0D01*
G01X637707Y637212D02*
G03X637548Y636979I91J-233D01*
Y636976I250J1*
G01X637549Y636954D02*
G03X637548Y636976I-1650J-0D01*
G01X637549Y636954D02*
X637549D01*
X637144Y635871D02*
G03X637549Y636954I-1245J1083D01*
G01X637144Y635871D02*
G03X637157Y635529I188J-164D01*
G01X634754Y635436D02*
G03X637157Y635529I1245J-1082D01*
G01X634754Y635436D02*
G03X634740Y635779I-189J165D01*
G01X635296Y638490D02*
G03X634740Y635779I603J-1536D01*
G01X635296Y638490D02*
G03X635454Y638722I-92J232D01*
Y638726I-250J0*
G01Y638748D02*
G03Y638726I1650J-0D01*
G01Y638748D02*
X635454D01*
X637707Y637212D02*
G03X635454Y638748I-603J1536D01*
G01X631949Y620054D02*
G03X631949I-1850J0D01*
G01X632449Y624954D02*
G03X632449I-1850J0D01*
G01X636639Y702373D02*
G03X636639I-1650J0D01*
G01X627749Y633454D02*
G03X627749I-1650J0D01*
G01X631449Y687254D02*
G03X631449I-1850J0D01*
G01X631349Y692654D02*
G03X631349I-1650J0D01*
G01Y702054D02*
G03X631349I-1650J0D01*
G01X627549Y662354D02*
G03X627549I-1850J0D01*
G01X622149Y632454D02*
G03X622149I-1650J0D01*
G01X622845Y706802D02*
G03X622845I-1850J0D01*
G01Y712153D02*
G03X622845I-1850J0D01*
G01X623149Y718254D02*
G03X623149I-1850J0D01*
G01X625449Y736854D02*
G03X625449I-1650J0D01*
G01X621249Y727754D02*
G03X621249I-1850J0D01*
G01X611982Y607343D02*
G03X611624Y607652I-232J93D01*
G01X612416Y608565D02*
G03X611624Y607652I-1717J689D01*
G01X612416Y608565D02*
G03X612773Y608255I232J-93D01*
G01X611982Y607343D02*
G03X612773Y608255I1717J-689D01*
G01X615649Y613254D02*
G03X615649I-1850J0D01*
G01X614050Y625079D02*
G03X614050I-4050J0D01*
G01Y635079D02*
G03X614050I-4050J0D01*
G01X613850Y645079D02*
G03X613850I-3850J0D01*
G01Y655079D02*
G03X613850I-3850J0D01*
G01Y665079D02*
G03X613850I-3850J0D01*
G01Y675079D02*
G03X613850I-3850J0D01*
G01Y685079D02*
G03X613850I-3850J0D01*
G01Y695079D02*
G03X613850I-3850J0D01*
G01Y705079D02*
G03X613850I-3850J0D01*
G01Y715079D02*
G03X613850I-3850J0D01*
G01Y725079D02*
G03X613850I-3850J0D01*
G01Y735079D02*
G03X613850I-3850J0D01*
G01X657852Y708884D02*
G03X657650Y708634I48J-246D01*
G01Y708600D02*
G03Y708634I-1850J-0D01*
G01X655448Y710416D02*
G03X657650Y708600I352J-1816D01*
G01X655448Y710416D02*
G03X655650Y710666I-48J246D01*
G01Y710700D02*
G03Y710666I1850J0D01*
G01X657852Y708884D02*
G03X655650Y710700I-352J1816D01*
G01X653152Y693597D02*
G03X653152I-1850J0D01*
G01X648130Y695547D02*
G03X648130I-1850J0D01*
G01X648967Y699821D02*
G03X648633I-167J-186D01*
G01Y702579D02*
G03Y699821I-1233J-1379D01*
G01Y702579D02*
G03X648967I167J186D01*
G01Y699821D02*
G03Y702579I1233J1379D01*
G01X648149Y711554D02*
G03X648149I-1850J0D01*
G01X649249Y722054D02*
G03X649249I-1850J0D01*
G01X641051Y719251D02*
G03Y719257I-250J6D01*
X640693Y719483I-250J0*
G01X641748Y721103D02*
G03X640693Y719483I-1849J51D01*
G01X641748Y721103D02*
G03Y721096I250J-7D01*
X642105Y720871I250J0*
G01X641051Y719251D02*
G03X642105Y720871I1849J-51D01*
G01X642649Y745954D02*
G03X642649I-1850J0D01*
G01X626458Y750393D02*
G03X626014Y750236I-194J-157D01*
G01X626014*
G03X626018Y750190I250J-0*
G01X626049Y749854D02*
G03X626018Y750190I-1850J-0D01*
G01X626049Y749854D02*
X626049D01*
X622464Y749211D02*
G03X626049Y749854I1735J643D01*
G01X622464Y749211D02*
G03X622011Y749247I-235J-86D01*
G01X619060Y751431D02*
G03X622011Y749247I1339J-1277D01*
G01X619060Y751431D02*
G03X619129Y751603I-181J172D01*
X618894Y751853I-250J0*
G01X617150Y753700D02*
G03X618894Y751853I1850J0D01*
G01X620338Y752423D02*
G03X617150Y753700I-1338J1277D01*
G01X620338Y752423D02*
G03X620269Y752250I181J-173D01*
X620505Y752001I250J0*
G01X622134Y750796D02*
G03X620505Y752001I-1735J-642D01*
G01X622134Y750796D02*
G03X622586Y750760I234J87D01*
G01X625639Y751015D02*
G03X622586Y750760I-1440J-1161D01*
G01X625639Y751015D02*
G03X626084Y751172I195J157D01*
G01X626084*
G03X626079Y751217I-250J-0*
G01X626049Y751554D02*
G03X626079Y751217I1850J-0D01*
G01X626049Y751554D02*
X626049D01*
X626458Y750393D02*
G03X626049Y751554I1441J1161D01*
G01X619649Y763854D02*
G03X619649I-1850J0D01*
G01X614050Y755079D02*
G03X614050I-4050J0D01*
G01Y765079D02*
G03X614050I-4050J0D01*
G01Y775079D02*
G03X614050I-4050J0D01*
G01Y785079D02*
G03X614050I-4050J0D01*
G01Y795079D02*
G03X614050I-4050J0D01*
G01Y805079D02*
G03X614050I-4050J0D01*
G01Y815079D02*
G03X614050I-4050J0D01*
G01X648089Y683373D02*
G03X648089I-1850J0D01*
G01X641449Y681954D02*
G03X641449I-1850J0D01*
G01X680963Y837999D02*
X720297D01*
X680963Y837549D02*
X720297D01*
X680963Y837099D02*
X720297D01*
X680963Y836649D02*
X720297D01*
X680963Y836199D02*
X720297D01*
X680963Y835749D02*
X720297D01*
X680963Y835299D02*
X720297D01*
X684019Y834849D02*
X720297D01*
X684769Y834399D02*
X720297D01*
X685227Y833949D02*
X720297D01*
X685541Y833499D02*
X720297D01*
X685756Y833049D02*
X720297D01*
X685893Y832599D02*
X720297D01*
X685961Y832149D02*
X720297D01*
X685971Y831699D02*
X720297D01*
X685971Y831249D02*
X720297D01*
X685971Y830799D02*
X720297D01*
X685971Y830349D02*
X720297D01*
X685971Y829899D02*
X720297D01*
X685971Y829449D02*
X720297D01*
X685968Y828999D02*
X720297D01*
X685917Y828549D02*
X720297D01*
X689745Y828099D02*
X720297D01*
X690311Y827649D02*
X720297D01*
X690592Y827199D02*
X720297D01*
X690725Y826749D02*
X720297D01*
X690742Y826299D02*
X720297D01*
X690647Y825849D02*
X720297D01*
X690418Y825399D02*
X720297D01*
X689974Y824949D02*
X720297D01*
X680963Y824499D02*
X720297D01*
X680963Y824049D02*
X720297D01*
X680963Y823599D02*
X720297D01*
X680963Y823149D02*
X720297D01*
X680963Y822699D02*
X720297D01*
X680963Y822249D02*
X720297D01*
X680963Y821799D02*
X720297D01*
X681393Y821349D02*
X720297D01*
X681888Y820899D02*
X720297D01*
X682232Y820449D02*
X720297D01*
X689916Y819999D02*
X720297D01*
X690390Y819549D02*
X720297D01*
X690633Y819099D02*
X720297D01*
X713330Y811449D02*
X720297D01*
X704481Y810999D02*
X720297D01*
X704845Y810549D02*
X720297D01*
X705012Y810099D02*
X720297D01*
X705045Y809649D02*
X720297D01*
X704952Y809199D02*
X720297D01*
X712797Y801099D02*
X720297D01*
X704513Y800649D02*
X720297D01*
X704632Y800199D02*
X720297D01*
X704637Y799749D02*
X720297D01*
X704529Y799299D02*
X720297D01*
X712828Y798849D02*
X720297D01*
X677350Y791199D02*
X720297D01*
X646602Y790749D02*
X720297D01*
X650254Y790299D02*
X720297D01*
X655221Y789849D02*
X720297D01*
X655616Y789399D02*
X720297D01*
X702180Y788949D02*
X720297D01*
X712778Y781299D02*
X720297D01*
X693281Y780849D02*
X720297D01*
X676296Y780399D02*
X720297D01*
X685980Y779949D02*
X720297D01*
X686451Y779499D02*
X720297D01*
X686673Y779049D02*
X720297D01*
X713179Y771399D02*
X720297D01*
X667036Y770949D02*
X720297D01*
X667371Y770499D02*
X720297D01*
X667522Y770049D02*
X720297D01*
X667541Y769599D02*
X720297D01*
X667434Y769149D02*
X720297D01*
X713358Y768699D02*
X720297D01*
X713464Y761499D02*
X720297D01*
X643181Y761049D02*
X720297D01*
X643248Y760599D02*
X720297D01*
X643204Y760149D02*
X720297D01*
X683716Y759699D02*
X720297D01*
X684190Y759249D02*
X720297D01*
X713039Y758799D02*
X720297D01*
X693060Y751149D02*
X720297D01*
X694108Y750699D02*
X720297D01*
X694444Y750249D02*
X720297D01*
X694596Y749799D02*
X720297D01*
X694616Y749349D02*
X720297D01*
X712527Y748899D02*
X720297D01*
X712439Y741249D02*
X720297D01*
X702753Y740799D02*
X720297D01*
X702466Y740349D02*
X720297D01*
X701804Y739899D02*
X720297D01*
X649424Y739449D02*
X720297D01*
X648750Y738999D02*
X720297D01*
X713001Y731349D02*
X720297D01*
X680222Y730899D02*
X720297D01*
X688790Y730449D02*
X720297D01*
X689313Y729999D02*
X720297D01*
X689556Y729549D02*
X720297D01*
X689647Y729099D02*
X720297D01*
X713330Y721449D02*
X720297D01*
X683785Y720999D02*
X720297D01*
X654289Y720549D02*
X720297D01*
X654739Y720099D02*
X720297D01*
X655189Y719649D02*
X720297D01*
X662928Y719199D02*
X720297D01*
X713211Y718749D02*
X720297D01*
X680373Y711099D02*
X720297D01*
X680823Y710649D02*
X720297D01*
X681273Y710199D02*
X720297D01*
X681723Y709749D02*
X720297D01*
X682173Y709299D02*
X720297D01*
X712828Y708849D02*
X720297D01*
X690273Y701199D02*
X720297D01*
X690723Y700749D02*
X720297D01*
X691048Y700299D02*
X720297D01*
X691149Y699849D02*
X720297D01*
X691150Y699399D02*
X720297D01*
X691150Y698949D02*
X720297D01*
X712778Y691299D02*
X720297D01*
X703598Y690849D02*
X720297D01*
X703410Y690399D02*
X720297D01*
X703008Y689949D02*
X720297D01*
X696561Y689499D02*
X720297D01*
X696111Y689049D02*
X720297D01*
X713179Y681399D02*
X720297D01*
X695757Y680949D02*
X720297D01*
X695957Y680499D02*
X720297D01*
X696017Y680049D02*
X720297D01*
X695951Y679599D02*
X720297D01*
X695742Y679149D02*
X720297D01*
X713358Y678699D02*
X720297D01*
X713464Y671499D02*
X720297D01*
X699118Y671049D02*
X720297D01*
X699294Y670599D02*
X720297D01*
X699349Y670149D02*
X720297D01*
X699292Y669699D02*
X720297D01*
X699112Y669249D02*
X720297D01*
X713039Y668799D02*
X720297D01*
X675602Y661149D02*
X720297D01*
X667251Y660699D02*
X720297D01*
X689436Y660249D02*
X720297D01*
X689952Y659799D02*
X720297D01*
X690213Y659349D02*
X720297D01*
X712527Y658899D02*
X720297D01*
X712439Y651249D02*
X720297D01*
X706567Y650799D02*
X720297D01*
X708097Y650349D02*
X720297D01*
X708676Y649899D02*
X720297D01*
X708938Y649449D02*
X720297D01*
X709042Y648999D02*
X720297D01*
X713001Y641349D02*
X720297D01*
X678940Y640899D02*
X720297D01*
X668771Y640449D02*
X720297D01*
X668733Y639999D02*
X720297D01*
X668559Y639549D02*
X720297D01*
X668181Y639099D02*
X720297D01*
X713330Y631449D02*
X720297D01*
X671899Y630999D02*
X720297D01*
X671228Y630549D02*
X720297D01*
X667670Y630099D02*
X720297D01*
X668348Y629649D02*
X720297D01*
X707754Y629199D02*
X720297D01*
X713211Y628749D02*
X720297D01*
X674676Y621099D02*
X720297D01*
X674938Y620649D02*
X720297D01*
X675042Y620199D02*
X720297D01*
X675020Y619749D02*
X720297D01*
X674866Y619299D02*
X720297D01*
X674526Y618849D02*
X720297D01*
X669777Y618399D02*
X720297D01*
X668981Y617949D02*
X720297D01*
X601750Y617499D02*
X720297D01*
X601750Y617049D02*
X720297D01*
X601750Y616599D02*
X720297D01*
X601750Y616149D02*
X720297D01*
X601750Y615699D02*
X720297D01*
X601750Y615249D02*
X720297D01*
X675328Y614799D02*
X720297D01*
X676336Y614349D02*
X720297D01*
X676671Y613899D02*
X720297D01*
X676822Y613449D02*
X720297D01*
X705978Y612999D02*
X720297D01*
X706633Y612549D02*
X720297D01*
X706917Y612099D02*
X720297D01*
X707037Y611649D02*
X720297D01*
X707029Y611199D02*
X720297D01*
X706890Y610749D02*
X720297D01*
X706577Y610299D02*
X720297D01*
X706338Y609849D02*
X720297D01*
X706751Y609399D02*
X720297D01*
X706973Y608949D02*
X720297D01*
X707048Y608499D02*
X720297D01*
X706998Y608049D02*
X720297D01*
X706810Y607599D02*
X720297D01*
X706408Y607149D02*
X720297D01*
X651970Y606699D02*
X720297D01*
X615504Y606249D02*
X720297D01*
X615339Y605799D02*
X720297D01*
X615010Y605349D02*
X720297D01*
X614284Y604899D02*
X720297D01*
X601750Y604449D02*
X720297D01*
X601750Y603999D02*
X720297D01*
X601750Y603549D02*
X720297D01*
X601750Y603099D02*
X720297D01*
X601750Y602649D02*
X720297D01*
X601750Y602199D02*
X720297D01*
X713489Y818649D02*
X720297D01*
X713489Y728649D02*
X720297D01*
X713489Y638649D02*
X720297D01*
X713584Y711549D02*
X720292D01*
X713584Y621549D02*
X720292D01*
X713607Y778599D02*
X720290D01*
X713607Y688599D02*
X720290D01*
X713694Y751599D02*
X720277D01*
X713694Y661599D02*
X720277D01*
X713715Y738549D02*
X720272D01*
X713715Y648549D02*
X720272D01*
X713760Y808749D02*
X720257D01*
X713796Y791649D02*
X720248D01*
X713796Y701649D02*
X720248D01*
X713815Y788499D02*
X720240D01*
X713815Y698499D02*
X720240D01*
X713891Y741699D02*
X720198D01*
X713891Y651699D02*
X720198D01*
X713909Y748449D02*
X720184D01*
X713909Y658449D02*
X720184D01*
X713979Y781749D02*
X720115D01*
X713979Y691749D02*
X720115D01*
X713997Y798399D02*
X720098D01*
X713997Y708399D02*
X720098D01*
X714033Y801549D02*
X720062D01*
X714063Y731799D02*
X720031D01*
X714063Y641799D02*
X720031D01*
X714079Y758349D02*
X720015D01*
X714079Y668349D02*
X720015D01*
X714142Y771849D02*
X719952D01*
X714142Y681849D02*
X719952D01*
X714158Y718299D02*
X719937D01*
X714158Y628299D02*
X719937D01*
X714218Y811899D02*
X719877D01*
X714218Y721899D02*
X719877D01*
X714218Y631899D02*
X719877D01*
X714232Y768249D02*
X719862D01*
X714232Y678249D02*
X719862D01*
X714289Y761949D02*
X719805D01*
X714289Y671949D02*
X719805D01*
X714303Y818199D02*
X719791D01*
X714303Y728199D02*
X719791D01*
X714303Y638199D02*
X719791D01*
X714357Y711999D02*
X719737D01*
X714357Y621999D02*
X719737D01*
X714371Y778149D02*
X719724D01*
X714371Y688149D02*
X719724D01*
X714422Y752049D02*
X719672D01*
X714422Y662049D02*
X719672D01*
X714435Y738099D02*
X719659D01*
X714435Y648099D02*
X719659D01*
X714485Y792099D02*
X719610D01*
X714485Y702099D02*
X719610D01*
X714497Y788049D02*
X719597D01*
X714497Y698049D02*
X719597D01*
X714504Y808299D02*
X719591D01*
X714545Y742149D02*
X719550D01*
X714545Y652149D02*
X719550D01*
X714557Y747999D02*
X719538D01*
X714557Y657999D02*
X719538D01*
X714602Y782199D02*
X719492D01*
X714602Y692199D02*
X719492D01*
X714614Y797949D02*
X719481D01*
X714614Y707949D02*
X719481D01*
X714658Y732249D02*
X719437D01*
X714658Y642249D02*
X719437D01*
X714668Y757899D02*
X719426D01*
X714668Y667899D02*
X719426D01*
X714677Y801999D02*
X719417D01*
X714711Y772299D02*
X719384D01*
X714711Y682299D02*
X719384D01*
X714721Y717849D02*
X719373D01*
X714721Y627849D02*
X719373D01*
X714762Y812349D02*
X719333D01*
X714762Y722349D02*
X719333D01*
X714762Y632349D02*
X719333D01*
X714772Y767799D02*
X719322D01*
X714772Y677799D02*
X719322D01*
X714811Y762399D02*
X719283D01*
X714811Y672399D02*
X719283D01*
X714821Y817749D02*
X719273D01*
X714821Y727749D02*
X719273D01*
X714821Y637749D02*
X719273D01*
X714859Y712449D02*
X719236D01*
X714859Y622449D02*
X719236D01*
X714868Y777699D02*
X719226D01*
X714868Y687699D02*
X719226D01*
X714905Y752499D02*
X719190D01*
X714905Y662499D02*
X719190D01*
X714914Y737649D02*
X719181D01*
X714914Y647649D02*
X719181D01*
X714949Y792549D02*
X719145D01*
X714949Y702549D02*
X719145D01*
X714958Y787599D02*
X719137D01*
X714958Y697599D02*
X719137D01*
X714992Y742599D02*
X719102D01*
X714992Y652599D02*
X719102D01*
X715001Y747549D02*
X719094D01*
X715001Y657549D02*
X719094D01*
X715002Y807849D02*
X719093D01*
X715033Y782649D02*
X719061D01*
X715033Y692649D02*
X719061D01*
X715042Y797499D02*
X719053D01*
X715042Y707499D02*
X719053D01*
X715073Y732699D02*
X719021D01*
X715073Y642699D02*
X719021D01*
X715081Y757449D02*
X719013D01*
X715081Y667449D02*
X719013D01*
X715112Y772749D02*
X718982D01*
X715112Y682749D02*
X718982D01*
X715120Y717399D02*
X718975D01*
X715120Y627399D02*
X718975D01*
X715127Y802449D02*
X718967D01*
X715150Y812799D02*
X718945D01*
X715150Y722799D02*
X718945D01*
X715150Y632799D02*
X718945D01*
X715157Y767349D02*
X718938D01*
X715157Y677349D02*
X718938D01*
X715186Y762849D02*
X718909D01*
X715186Y672849D02*
X718909D01*
X715193Y817299D02*
X718902D01*
X715193Y727299D02*
X718902D01*
X715193Y637299D02*
X718902D01*
X715221Y712899D02*
X718874D01*
X715221Y622899D02*
X718874D01*
X715227Y777249D02*
X718867D01*
X715227Y687249D02*
X718867D01*
X715254Y752949D02*
X718840D01*
X715254Y662949D02*
X718840D01*
X715261Y737199D02*
X718833D01*
X715261Y647199D02*
X718833D01*
X715287Y792999D02*
X718807D01*
X715287Y702999D02*
X718807D01*
X715293Y787149D02*
X718801D01*
X715293Y697149D02*
X718801D01*
X715319Y743049D02*
X718776D01*
X715319Y653049D02*
X718776D01*
X715325Y747099D02*
X718770D01*
X715325Y657099D02*
X718770D01*
X715349Y783099D02*
X718745D01*
X715349Y693099D02*
X718745D01*
X715355Y797049D02*
X718739D01*
X715355Y707049D02*
X718739D01*
X715367Y807399D02*
X718728D01*
X715379Y733149D02*
X718716D01*
X715379Y643149D02*
X718716D01*
X715384Y756999D02*
X718710D01*
X715384Y666999D02*
X718710D01*
X715407Y773199D02*
X718687D01*
X715407Y683199D02*
X718687D01*
X715413Y716949D02*
X718682D01*
X715413Y626949D02*
X718682D01*
X715435Y813249D02*
X718660D01*
X715435Y723249D02*
X718660D01*
X715435Y633249D02*
X718660D01*
X715440Y766899D02*
X718655D01*
X715440Y676899D02*
X718655D01*
X715460Y802899D02*
X718634D01*
X715461Y763299D02*
X718633D01*
X715461Y673299D02*
X718633D01*
X715466Y816849D02*
X718628D01*
X715466Y726849D02*
X718628D01*
X715466Y636849D02*
X718628D01*
X715487Y713349D02*
X718608D01*
X715487Y623349D02*
X718608D01*
X715492Y776799D02*
X718603D01*
X715492Y686799D02*
X718603D01*
X715511Y753399D02*
X718583D01*
X715511Y663399D02*
X718583D01*
X715516Y736749D02*
X718578D01*
X715516Y646749D02*
X718578D01*
X715535Y793449D02*
X718559D01*
X715535Y703449D02*
X718559D01*
X715540Y786699D02*
X718555D01*
X715540Y696699D02*
X718555D01*
X715558Y743499D02*
X718536D01*
X715558Y653499D02*
X718536D01*
X715563Y746649D02*
X718532D01*
X715563Y656649D02*
X718532D01*
X715580Y783549D02*
X718514D01*
X715580Y693549D02*
X718514D01*
X715585Y796599D02*
X718510D01*
X715585Y706599D02*
X718510D01*
X715601Y733599D02*
X718493D01*
X715601Y643599D02*
X718493D01*
X715606Y756549D02*
X718489D01*
X715606Y666549D02*
X718489D01*
X715622Y773649D02*
X718473D01*
X715622Y683649D02*
X718473D01*
X715626Y716499D02*
X718469D01*
X715626Y626499D02*
X718469D01*
X715640Y806949D02*
X718455D01*
X715641Y813699D02*
X718453D01*
X715641Y723699D02*
X718453D01*
X715641Y633699D02*
X718453D01*
X715645Y766449D02*
X718449D01*
X715645Y676449D02*
X718449D01*
X715660Y763749D02*
X718434D01*
X715660Y673749D02*
X718434D01*
X715664Y816399D02*
X718431D01*
X715664Y726399D02*
X718431D01*
X715664Y636399D02*
X718431D01*
X715678Y713799D02*
X718416D01*
X715678Y623799D02*
X718416D01*
X715682Y776349D02*
X718413D01*
X715682Y686349D02*
X718413D01*
X715695Y753849D02*
X718399D01*
X715695Y663849D02*
X718399D01*
X715699Y736299D02*
X718396D01*
X715699Y646299D02*
X718396D01*
X715709Y803349D02*
X718385D01*
X715712Y793899D02*
X718383D01*
X715712Y703899D02*
X718383D01*
X715715Y786249D02*
X718379D01*
X715715Y696249D02*
X718379D01*
X715728Y743949D02*
X718367D01*
X715728Y653949D02*
X718367D01*
X715731Y746199D02*
X718364D01*
X715731Y656199D02*
X718364D01*
X715743Y783999D02*
X718352D01*
X715743Y693999D02*
X718352D01*
X715746Y796149D02*
X718349D01*
X715746Y706149D02*
X718349D01*
X715757Y734049D02*
X718338D01*
X715757Y644049D02*
X718338D01*
X715760Y756099D02*
X718335D01*
X715760Y666099D02*
X718335D01*
X715770Y774099D02*
X718324D01*
X715770Y684099D02*
X718324D01*
X715773Y716049D02*
X718321D01*
X715773Y626049D02*
X718321D01*
X715783Y814149D02*
X718311D01*
X715783Y724149D02*
X718311D01*
X715783Y634149D02*
X718311D01*
X715786Y765999D02*
X718309D01*
X715786Y675999D02*
X718309D01*
X715795Y764199D02*
X718299D01*
X715795Y674199D02*
X718299D01*
X715798Y815949D02*
X718297D01*
X715798Y725949D02*
X718297D01*
X715798Y635949D02*
X718297D01*
X715807Y714249D02*
X718288D01*
X715807Y624249D02*
X718288D01*
X715809Y775899D02*
X718286D01*
X715809Y685899D02*
X718286D01*
X715817Y754299D02*
X718277D01*
X715817Y664299D02*
X718277D01*
X715819Y735849D02*
X718275D01*
X715819Y645849D02*
X718275D01*
X715827Y794349D02*
X718267D01*
X715827Y704349D02*
X718267D01*
X715829Y785799D02*
X718265D01*
X715829Y695799D02*
X718265D01*
X715837Y744399D02*
X718258D01*
X715837Y654399D02*
X718258D01*
X715839Y745749D02*
X718256D01*
X715839Y655749D02*
X718256D01*
X715840Y806499D02*
X718254D01*
X715845Y784449D02*
X718249D01*
X715845Y694449D02*
X718249D01*
X715847Y795699D02*
X718247D01*
X715847Y705699D02*
X718247D01*
X715853Y734499D02*
X718241D01*
X715853Y644499D02*
X718241D01*
X715855Y755649D02*
X718240D01*
X715855Y665649D02*
X718240D01*
X715861Y774549D02*
X718234D01*
X715861Y684549D02*
X718234D01*
X715862Y715599D02*
X718232D01*
X715862Y625599D02*
X718232D01*
X715867Y814599D02*
X718227D01*
X715867Y724599D02*
X718227D01*
X715867Y634599D02*
X718227D01*
X715868Y765549D02*
X718226D01*
X715868Y675549D02*
X718226D01*
X715873Y764649D02*
X718221D01*
X715873Y674649D02*
X718221D01*
X715874Y815499D02*
X718220D01*
X715874Y725499D02*
X718220D01*
X715874Y635499D02*
X718220D01*
X715878Y714699D02*
X718216D01*
X715878Y624699D02*
X718216D01*
X715879Y775449D02*
X718215D01*
X715879Y685449D02*
X718215D01*
X715883Y754749D02*
X718211D01*
X715883Y664749D02*
X718211D01*
X715884Y735399D02*
X718211D01*
X715884Y645399D02*
X718211D01*
X715887Y794799D02*
X718207D01*
X715887Y704799D02*
X718207D01*
X715888Y785349D02*
X718207D01*
X715888Y695349D02*
X718207D01*
X715890Y803799D02*
X718205D01*
X715890Y744849D02*
X718204D01*
X715890Y654849D02*
X718204D01*
X715891Y745299D02*
X718204D01*
X715891Y655299D02*
X718204D01*
X715893Y784899D02*
X718201D01*
X715893Y694899D02*
X718201D01*
X715894Y795249D02*
X718201D01*
X715894Y705249D02*
X718201D01*
X715895Y734949D02*
X718199D01*
X715895Y644949D02*
X718199D01*
X715895Y755199D02*
X718199D01*
X715895Y665199D02*
X718199D01*
X715896Y774999D02*
X718198D01*
X715896Y684999D02*
X718198D01*
X715897Y715149D02*
X718198D01*
X715897Y625149D02*
X718198D01*
X715897Y815049D02*
X718197D01*
X715897Y725049D02*
X718197D01*
X715897Y635049D02*
X718197D01*
X715897Y765099D02*
X718197D01*
X715897Y675099D02*
X718197D01*
X715979Y806049D02*
X718115D01*
X716011Y804249D02*
X718083D01*
X716064Y805599D02*
X718031D01*
X716079Y804699D02*
X718015D01*
X716097Y805149D02*
X717998D01*
X702874Y741249D02*
X711655D01*
X706834Y651249D02*
X711655D01*
X694509Y748899D02*
X711567D01*
X690332Y658899D02*
X711567D01*
X694077Y781299D02*
X711316D01*
X703648Y691299D02*
X711316D01*
X704252Y801099D02*
X711298D01*
X704282Y798849D02*
X711266D01*
X682623Y708849D02*
X711266D01*
X680016Y731349D02*
X711094D01*
X679378Y641349D02*
X711094D01*
X684433Y758799D02*
X711055D01*
X698758Y668799D02*
X711055D01*
X666028Y771399D02*
X710916D01*
X695331Y681399D02*
X710916D01*
X708185Y628749D02*
X710884D01*
X663936Y718749D02*
X710884D01*
X685619Y811449D02*
X710764D01*
X688833Y721449D02*
X710764D01*
X672185Y631449D02*
X710764D01*
X695299Y678699D02*
X710736D01*
X667167Y768699D02*
X710736D01*
X698769Y671499D02*
X710631D01*
X701741Y761499D02*
X710631D01*
X690738Y818649D02*
X710606D01*
X689612Y728649D02*
X710606D01*
X667544Y638649D02*
X710606D01*
X679923Y711549D02*
X710511D01*
X674097Y621549D02*
X710511D01*
X686748Y778599D02*
X710488D01*
X695661Y688599D02*
X710488D01*
X647051Y751599D02*
X710400D01*
X675983Y661599D02*
X710400D01*
X709020Y648549D02*
X710379D01*
X645149Y738549D02*
X710379D01*
X704707Y808749D02*
X710334D01*
X702775Y791649D02*
X710299D01*
X689823Y701649D02*
X710299D01*
X702651Y788499D02*
X710279D01*
X691150Y698499D02*
X710279D01*
X702867Y741699D02*
X710204D01*
X706941Y651699D02*
X710204D01*
X694244Y748449D02*
X710186D01*
X690337Y658449D02*
X710186D01*
X702264Y781749D02*
X710115D01*
X703573Y691749D02*
X710115D01*
X703801Y798399D02*
X710098D01*
X683073Y708399D02*
X710098D01*
X703736Y801549D02*
X710062D01*
X679580Y731799D02*
X710031D01*
X679585Y641799D02*
X710031D01*
X684538Y758349D02*
X710015D01*
X697904Y668349D02*
X710015D01*
X692881Y771849D02*
X709952D01*
X690933Y681849D02*
X709952D01*
X708388Y628299D02*
X709937D01*
X664271Y718299D02*
X709937D01*
X685843Y811899D02*
X709877D01*
X689356Y721899D02*
X709877D01*
X672305Y631899D02*
X709877D01*
X686809Y678249D02*
X709862D01*
X666575Y768249D02*
X709862D01*
X697947Y671949D02*
X709805D01*
X702152Y761949D02*
X709805D01*
X690731Y818199D02*
X709791D01*
X689442Y728199D02*
X709791D01*
X671556Y638199D02*
X709791D01*
X679473Y711999D02*
X709737D01*
X659817Y621999D02*
X709737D01*
X686698Y778149D02*
X709724D01*
X695222Y688149D02*
X709724D01*
X646580Y752049D02*
X709672D01*
X676178Y662049D02*
X709672D01*
X708866Y648099D02*
X709659D01*
X645149Y738099D02*
X709659D01*
X703367Y792099D02*
X709610D01*
X689373Y702099D02*
X709610D01*
X702873Y788049D02*
X709597D01*
X691150Y698049D02*
X709597D01*
X704177Y808299D02*
X709591D01*
X702730Y742149D02*
X709550D01*
X706922Y652149D02*
X709550D01*
X693655Y747999D02*
X709538D01*
X690229Y657999D02*
X709538D01*
X702744Y782199D02*
X709492D01*
X703351Y692199D02*
X709492D01*
X643411Y797949D02*
X709481D01*
X683523Y707949D02*
X709481D01*
X653658Y732249D02*
X709437D01*
X679649Y642249D02*
X709437D01*
X684531Y757899D02*
X709426D01*
X652327Y667899D02*
X709426D01*
X678444Y801999D02*
X709417D01*
X699566Y772299D02*
X709384D01*
X690278Y682299D02*
X709384D01*
X708449Y627849D02*
X709373D01*
X674280Y717849D02*
X709373D01*
X686185Y812349D02*
X709333D01*
X689598Y722349D02*
X709333D01*
X672296Y632349D02*
X709333D01*
X687259Y677799D02*
X709322D01*
X658850Y767799D02*
X709322D01*
X687250Y672399D02*
X709283D01*
X702363Y762399D02*
X709283D01*
X690609Y817749D02*
X709273D01*
X689076Y727749D02*
X709273D01*
X672025Y637749D02*
X709273D01*
X679023Y712449D02*
X709236D01*
X683426Y622449D02*
X709236D01*
X686510Y777699D02*
X709226D01*
X697945Y687699D02*
X709226D01*
X645151Y752499D02*
X709190D01*
X676248Y662499D02*
X709190D01*
X708526Y647649D02*
X709181D01*
X645149Y737649D02*
X709181D01*
X703634Y792549D02*
X709145D01*
X688923Y702549D02*
X709145D01*
X702948Y787599D02*
X709137D01*
X694745Y697599D02*
X709137D01*
X702419Y742599D02*
X709102D01*
X706771Y652599D02*
X709102D01*
X688665Y747549D02*
X709094D01*
X689982Y657549D02*
X709094D01*
X686846Y807849D02*
X709093D01*
X702969Y782649D02*
X709061D01*
X702880Y692649D02*
X709061D01*
X643692Y797499D02*
X709053D01*
X683973Y707499D02*
X709053D01*
X657140Y732699D02*
X709021D01*
X679588Y642699D02*
X709021D01*
X684409Y757449D02*
X709013D01*
X642149Y667449D02*
X709013D01*
X699958Y772749D02*
X708982D01*
X687072Y682749D02*
X708982D01*
X708385Y627399D02*
X708975D01*
X674751Y717399D02*
X708975D01*
X678120Y802449D02*
X708967D01*
X686372Y812799D02*
X708945D01*
X689689Y722799D02*
X708945D01*
X681577Y632799D02*
X708945D01*
X694736Y677349D02*
X708938D01*
X624149Y767349D02*
X708938D01*
X702446Y762849D02*
X708909D01*
X690344Y817299D02*
X708902D01*
X686894Y727299D02*
X708902D01*
X672244Y637299D02*
X708902D01*
X678573Y712899D02*
X708874D01*
X683766Y622899D02*
X708874D01*
X686108Y777249D02*
X708867D01*
X698511Y687249D02*
X708867D01*
X645149Y752949D02*
X708840D01*
X676206Y662949D02*
X708840D01*
X678315Y737199D02*
X708833D01*
X673494Y647199D02*
X708833D01*
X703741Y792999D02*
X708807D01*
X688473Y702999D02*
X708807D01*
X702898Y787149D02*
X708801D01*
X695311Y697149D02*
X708801D01*
X701636Y743049D02*
X708776D01*
X706436Y653049D02*
X708776D01*
X688280Y747099D02*
X708770D01*
X689501Y657099D02*
X708770D01*
X703048Y783099D02*
X708745D01*
X691150Y693099D02*
X708745D01*
X643825Y797049D02*
X708739D01*
X684423Y707049D02*
X708739D01*
X686539Y807399D02*
X708728D01*
X657578Y733149D02*
X708716D01*
X679385Y643149D02*
X708716D01*
X684144Y756999D02*
X708710D01*
X680245Y666999D02*
X708710D01*
X700141Y773199D02*
X708687D01*
X694077Y683199D02*
X708687D01*
X674973Y716949D02*
X708682D01*
X686446Y813249D02*
X708660D01*
X689654Y723249D02*
X708660D01*
X682107Y633249D02*
X708660D01*
X695252Y676899D02*
X708655D01*
X646695Y766899D02*
X708655D01*
X677413Y802899D02*
X708634D01*
X702416Y763299D02*
X708633D01*
X689819Y816849D02*
X708628D01*
X686582Y726849D02*
X708628D01*
X672316Y636849D02*
X708628D01*
X678123Y713349D02*
X708608D01*
X683920Y623349D02*
X708608D01*
X659585Y776799D02*
X708603D01*
X701878Y686799D02*
X708603D01*
X645467Y753399D02*
X708583D01*
X676044Y663399D02*
X708583D01*
X679013Y736749D02*
X708578D01*
X673278Y646749D02*
X708578D01*
X703722Y793449D02*
X708559D01*
X688023Y703449D02*
X708559D01*
X702710Y786699D02*
X708555D01*
X695592Y696699D02*
X708555D01*
X671758Y743499D02*
X708536D01*
X705428Y653499D02*
X708536D01*
X647095Y746649D02*
X708532D01*
X642149Y656649D02*
X708532D01*
X703001Y783549D02*
X708514D01*
X691150Y693549D02*
X708514D01*
X643842Y796599D02*
X708510D01*
X684873Y706599D02*
X708510D01*
X657785Y733599D02*
X708493D01*
X678955Y643599D02*
X708493D01*
X684236Y756549D02*
X708489D01*
X680811Y666549D02*
X708489D01*
X700187Y773649D02*
X708473D01*
X701681Y683649D02*
X708473D01*
X675048Y716499D02*
X708469D01*
X707740Y626499D02*
X708469D01*
X686038Y806949D02*
X708455D01*
X686419Y813699D02*
X708453D01*
X689484Y723699D02*
X708453D01*
X682352Y633699D02*
X708453D01*
X695513Y676449D02*
X708449D01*
X675821Y766449D02*
X708449D01*
X702269Y763749D02*
X708434D01*
X681969Y816399D02*
X708431D01*
X685798Y726399D02*
X708431D01*
X672263Y636399D02*
X708431D01*
X677673Y713799D02*
X708416D01*
X683942Y623799D02*
X708416D01*
X659378Y776349D02*
X708413D01*
X702533Y686349D02*
X708413D01*
X683775Y753849D02*
X708399D01*
X680474Y663849D02*
X708399D01*
X679336Y736299D02*
X708396D01*
X672840Y646299D02*
X708396D01*
X657146Y803349D02*
X708385D01*
X703571Y793899D02*
X708383D01*
X687573Y703899D02*
X708383D01*
X702745Y786249D02*
X708379D01*
X695725Y696249D02*
X708379D01*
X672022Y743949D02*
X708367D01*
X680645Y653949D02*
X708367D01*
X671321Y746199D02*
X708364D01*
X642149Y656199D02*
X708364D01*
X702816Y783999D02*
X708352D01*
X691150Y693999D02*
X708352D01*
X643747Y796149D02*
X708349D01*
X685323Y706149D02*
X708349D01*
X678887Y734049D02*
X708338D01*
X613710Y644049D02*
X708338D01*
X684571Y756099D02*
X708335D01*
X681092Y666099D02*
X708335D01*
X700107Y774099D02*
X708324D01*
X702477Y684099D02*
X708324D01*
X675005Y716049D02*
X708321D01*
X678315Y626049D02*
X708321D01*
X686288Y814149D02*
X708311D01*
X689116Y724149D02*
X708311D01*
X682445Y634149D02*
X708311D01*
X695632Y675999D02*
X708309D01*
X676587Y765999D02*
X708309D01*
X701967Y764199D02*
X708299D01*
X681512Y815949D02*
X708297D01*
X685457Y725949D02*
X708297D01*
X672068Y635949D02*
X708297D01*
X677223Y714249D02*
X708288D01*
X683838Y624249D02*
X708288D01*
X658940Y775899D02*
X708286D01*
X702817Y685899D02*
X708286D01*
X684367Y754299D02*
X708277D01*
X680918Y664299D02*
X708277D01*
X679496Y735849D02*
X708275D01*
X661881Y645849D02*
X708275D01*
X703236Y794349D02*
X708267D01*
X687123Y704349D02*
X708267D01*
X702912Y785799D02*
X708265D01*
X695742Y695799D02*
X708265D01*
X672143Y744399D02*
X708258D01*
X680281Y654399D02*
X708258D01*
X671798Y745749D02*
X708256D01*
X642149Y655749D02*
X708256D01*
X678661Y806499D02*
X708254D01*
X702622Y784449D02*
X708249D01*
X694974Y694449D02*
X708249D01*
X643518Y795699D02*
X708247D01*
X685773Y705699D02*
X708247D01*
X679270Y734499D02*
X708241D01*
X613806Y644499D02*
X708241D01*
X684722Y755649D02*
X708240D01*
X681225Y665649D02*
X708240D01*
X699880Y774549D02*
X708234D01*
X702790Y684549D02*
X708234D01*
X678556Y625599D02*
X708232D01*
X675836Y715599D02*
X708232D01*
X686027Y814599D02*
X708227D01*
X686035Y724599D02*
X708227D01*
X682412Y634599D02*
X708227D01*
X695637Y675549D02*
X708226D01*
X676895Y765549D02*
X708226D01*
X701340Y764649D02*
X708221D01*
X681344Y815499D02*
X708220D01*
X685826Y725499D02*
X708220D01*
X681881Y635499D02*
X708220D01*
X676773Y714699D02*
X708216D01*
X683576Y624699D02*
X708216D01*
X643481Y775449D02*
X708215D01*
X702937Y685449D02*
X708215D01*
X684634Y754749D02*
X708211D01*
X681147Y664749D02*
X708211D01*
X679537Y735399D02*
X708211D01*
X643740Y645399D02*
X708211D01*
X702228Y794799D02*
X708207D01*
X686673Y704799D02*
X708207D01*
X702945Y785349D02*
X708207D01*
X695647Y695349D02*
X708207D01*
X657056Y803799D02*
X708205D01*
X672149Y744849D02*
X708204D01*
X649421Y654849D02*
X708204D01*
X672042Y745299D02*
X708204D01*
X642149Y655299D02*
X708204D01*
X702852Y784899D02*
X708201D01*
X695418Y694899D02*
X708201D01*
X643074Y795249D02*
X708201D01*
X686223Y705249D02*
X708201D01*
X679467Y734949D02*
X708199D01*
X613848Y644949D02*
X708199D01*
X684741Y755199D02*
X708199D01*
X681242Y665199D02*
X708199D01*
X699395Y774999D02*
X708198D01*
X702929Y684999D02*
X708198D01*
X676323Y715149D02*
X708198D01*
X682997Y625149D02*
X708198D01*
X685552Y815049D02*
X708197D01*
X685998Y725049D02*
X708197D01*
X682245Y635049D02*
X708197D01*
X695154Y765099D02*
X708197D01*
X668738Y806049D02*
X708115D01*
X667819Y804249D02*
X708083D01*
X668731Y805599D02*
X708031D01*
X668344Y804699D02*
X708015D01*
X668609Y805149D02*
X707998D01*
X674508Y647649D02*
X706271D01*
X674851Y649899D02*
X706122D01*
X674910Y648099D02*
X705931D01*
X675073Y649449D02*
X705860D01*
X705440Y626499D02*
X705857D01*
X705454Y629199D02*
X705843D01*
X675098Y648549D02*
X705777D01*
X675148Y648999D02*
X705755D01*
X680812Y653499D02*
X705170D01*
X703478Y612999D02*
X704819D01*
X674380Y650349D02*
X704622D01*
X703908Y607149D02*
X704389D01*
X680845Y653049D02*
X704161D01*
X642149Y650799D02*
X704030D01*
X680752Y652599D02*
X703826D01*
X642149Y651249D02*
X703764D01*
X680507Y652149D02*
X703675D01*
X679977Y651699D02*
X703656D01*
X677795Y626499D02*
X703557D01*
X668638Y629199D02*
X703543D01*
X667486Y626949D02*
X703119D01*
X668761Y628749D02*
X703112D01*
X668302Y627399D02*
X702913D01*
X668754Y628299D02*
X702910D01*
X668616Y627849D02*
X702849D01*
X687034Y808299D02*
X702621D01*
X680654Y612999D02*
X702319D01*
X686248Y810999D02*
X702316D01*
X687130Y808749D02*
X702090D01*
X624149Y794799D02*
X701970D01*
X675020Y609849D02*
X701959D01*
X686664Y810549D02*
X701953D01*
X652339Y607149D02*
X701889D01*
X678606Y801549D02*
X701861D01*
X687145Y809199D02*
X701845D01*
X642845Y798399D02*
X701796D01*
X686925Y810099D02*
X701785D01*
X687078Y809649D02*
X701752D01*
X680640Y610299D02*
X701720D01*
X681085Y612549D02*
X701664D01*
X674866Y609399D02*
X701546D01*
X652510Y607599D02*
X701487D01*
X700764Y791649D02*
X701422D01*
X681078Y610749D02*
X701407D01*
X681288Y612099D02*
X701380D01*
X678648Y801099D02*
X701345D01*
X674526Y608949D02*
X701325D01*
X639404Y798849D02*
X701315D01*
X652546Y608049D02*
X701299D01*
X681285Y611199D02*
X701268D01*
X681349Y611649D02*
X701260D01*
X652456Y608499D02*
X701249D01*
X691150Y692649D02*
X701117D01*
X678578Y800649D02*
X701084D01*
X640258Y799299D02*
X701068D01*
X697013Y689949D02*
X700989D01*
X678383Y800199D02*
X700965D01*
X678002Y799749D02*
X700960D01*
X694839Y683649D02*
X700916D01*
X671237Y743049D02*
X700836D01*
X698792Y686799D02*
X700719D01*
X649713Y739899D02*
X700668D01*
X694390Y781749D02*
X700533D01*
X655801Y788949D02*
X700417D01*
X695289Y684099D02*
X700120D01*
X698925Y686349D02*
X700064D01*
X657850Y742599D02*
X700053D01*
X694529Y782199D02*
X700053D01*
X649836Y740349D02*
X700006D01*
X624149Y784449D02*
X699990D01*
X693478Y783999D02*
X699981D01*
X695628Y788499D02*
X699946D01*
X697141Y786699D02*
X699887D01*
X695585Y764649D02*
X699857D01*
X697034Y786249D02*
X699853D01*
X694537Y782649D02*
X699828D01*
X698174Y684549D02*
X699807D01*
X694133Y783549D02*
X699797D01*
X698942Y685899D02*
X699780D01*
X694417Y783099D02*
X699750D01*
X625384Y784899D02*
X699745D01*
X648621Y742149D02*
X699742D01*
X696636Y788049D02*
X699725D01*
X649830Y740799D02*
X699719D01*
X697122Y787149D02*
X699699D01*
X696767Y785799D02*
X699685D01*
X698618Y684999D02*
X699668D01*
X698847Y685449D02*
X699660D01*
X696175Y785349D02*
X699652D01*
X696971Y787599D02*
X699649D01*
X649387Y741699D02*
X699605D01*
X649695Y741249D02*
X699598D01*
X686170Y761499D02*
X699456D01*
X695788Y764199D02*
X699230D01*
X690226Y761949D02*
X699045D01*
X695849Y763749D02*
X698928D01*
X698497Y794349D02*
X698876D01*
X695140Y762399D02*
X698834D01*
X695785Y763299D02*
X698781D01*
X695578Y762849D02*
X698752D01*
X693078Y774999D02*
X697681D01*
X693677Y772299D02*
X697509D01*
X693733Y774549D02*
X697196D01*
X693990Y772749D02*
X697117D01*
X693497Y794349D02*
X697100D01*
X652963Y668349D02*
X697093D01*
X693221Y671949D02*
X697051D01*
X694017Y774099D02*
X696968D01*
X694129Y773199D02*
X696934D01*
X694137Y773649D02*
X696889D01*
X693926Y791649D02*
X696671D01*
X694076Y793899D02*
X696522D01*
X694266Y792099D02*
X696331D01*
X694338Y793449D02*
X696260D01*
X695545Y687699D02*
X696252D01*
X693350Y668799D02*
X696239D01*
X693987Y671499D02*
X696228D01*
X694420Y792549D02*
X696177D01*
X694442Y792999D02*
X696155D01*
X695777Y684549D02*
X696020D01*
X694024Y669249D02*
X695885D01*
X694295Y671049D02*
X695879D01*
X691158Y692199D02*
X695730D01*
X694313Y669699D02*
X695705D01*
X694430Y670599D02*
X695703D01*
X694436Y670149D02*
X695649D01*
X690128Y788499D02*
X695370D01*
X692812Y691749D02*
X695276D01*
X693288Y691299D02*
X694826D01*
X690675Y785349D02*
X694822D01*
X693533Y690849D02*
X694376D01*
X691136Y788049D02*
X694361D01*
X691267Y785799D02*
X694230D01*
X691471Y787599D02*
X694026D01*
X691534Y786249D02*
X693964D01*
X691622Y787149D02*
X693875D01*
X691641Y786699D02*
X693856D01*
X686359Y678699D02*
X693434D01*
X691217Y681399D02*
X693402D01*
X690566Y762399D02*
X693257D01*
X677030Y765099D02*
X693243D01*
X691150Y697599D02*
X693052D01*
X690081Y679149D02*
X692991D01*
X691337Y680949D02*
X692977D01*
X647273Y751149D02*
X692886D01*
X687709Y677349D02*
X692861D01*
X691150Y694449D02*
X692823D01*
X690720Y762849D02*
X692819D01*
X689797Y764649D02*
X692812D01*
X690877Y679599D02*
X692782D01*
X691329Y680499D02*
X692776D01*
X691190Y680049D02*
X692717D01*
X690742Y763299D02*
X692613D01*
X690376Y764199D02*
X692610D01*
X690638Y763749D02*
X692549D01*
X684802Y780849D02*
X692516D01*
X691150Y697149D02*
X692486D01*
X691150Y694899D02*
X692379D01*
X670964Y671949D02*
X692376D01*
X688159Y676899D02*
X692345D01*
X684213Y783999D02*
X692319D01*
X688863Y747999D02*
X692291D01*
X653267Y668799D02*
X692247D01*
X691150Y696699D02*
X692205D01*
X691150Y695349D02*
X692150D01*
X685164Y771849D02*
X692116D01*
X677221Y794349D02*
X692100D01*
X688609Y676449D02*
X692084D01*
X691150Y696249D02*
X692072D01*
X691150Y695799D02*
X692055D01*
X689059Y675999D02*
X691965D01*
X689509Y675549D02*
X691960D01*
X643548Y774999D02*
X691919D01*
X647348Y750699D02*
X691838D01*
X685183Y781299D02*
X691720D01*
X688934Y748449D02*
X691702D01*
X678024Y791649D02*
X691671D01*
X684920Y783549D02*
X691664D01*
X666149Y671499D02*
X691611D01*
X653416Y669249D02*
X691573D01*
X677987Y793899D02*
X691522D01*
X687720Y750249D02*
X691502D01*
X688894Y748899D02*
X691437D01*
X685378Y781749D02*
X691407D01*
X685244Y783099D02*
X691380D01*
X688413Y749799D02*
X691350D01*
X678313Y792099D02*
X691331D01*
X688734Y749349D02*
X691330D01*
X685644Y772299D02*
X691320D01*
X666149Y671049D02*
X691302D01*
X653447Y669699D02*
X691284D01*
X685448Y782199D02*
X691268D01*
X685321Y774549D02*
X691264D01*
X685406Y782649D02*
X691260D01*
X678295Y793449D02*
X691260D01*
X678436Y792549D02*
X691177D01*
X666149Y670599D02*
X691167D01*
X653514Y670149D02*
X691161D01*
X678430Y792999D02*
X691155D01*
X685869Y772749D02*
X691007D01*
X685716Y774099D02*
X690980D01*
X685948Y773199D02*
X690868D01*
X685901Y773649D02*
X690860D01*
X655848Y788499D02*
X689870D01*
X626110Y785349D02*
X689322D01*
X686216Y679149D02*
X689316D01*
X686213Y682299D02*
X689119D01*
X655769Y788049D02*
X688861D01*
X626439Y785799D02*
X688730D01*
X687924Y672849D02*
X688693D01*
X655544Y787599D02*
X688526D01*
X686216Y679599D02*
X688520D01*
X686094Y681849D02*
X688464D01*
X626604Y786249D02*
X688464D01*
X677036Y764649D02*
X688400D01*
X655064Y787149D02*
X688375D01*
X626648Y786699D02*
X688356D01*
X686216Y680049D02*
X688207D01*
X686153Y681399D02*
X688180D01*
X686216Y680499D02*
X688068D01*
X686216Y680949D02*
X688060D01*
X685799Y828099D02*
X688052D01*
X682289Y816849D02*
X687979D01*
X686539Y761949D02*
X687971D01*
X682475Y819999D02*
X687881D01*
X680963Y824949D02*
X687823D01*
X685895Y764199D02*
X687822D01*
X686710Y762399D02*
X687631D01*
X667473Y660249D02*
X687561D01*
X686415Y763749D02*
X687560D01*
X642149Y657099D02*
X687496D01*
X685607Y827649D02*
X687486D01*
X686746Y762849D02*
X687477D01*
X686656Y763299D02*
X687455D01*
X682515Y817299D02*
X687453D01*
X682639Y819549D02*
X687407D01*
X680963Y825399D02*
X687379D01*
X684372Y721449D02*
X687251D01*
X680285Y730449D02*
X687210D01*
X685322Y827199D02*
X687205D01*
X682665Y817749D02*
X687188D01*
X682737Y819099D02*
X687165D01*
X680963Y825849D02*
X687150D01*
X684910Y826749D02*
X687072D01*
X682749Y818199D02*
X687066D01*
X682772Y818649D02*
X687059D01*
X684269Y826299D02*
X687055D01*
X667548Y659799D02*
X687045D01*
X659981Y657549D02*
X687015D01*
X685946Y724149D02*
X686967D01*
X667498Y659349D02*
X686784D01*
X660777Y657999D02*
X686768D01*
X684637Y721899D02*
X686728D01*
X680223Y729999D02*
X686687D01*
X667310Y658899D02*
X686665D01*
X666908Y658449D02*
X686660D01*
X685707Y723699D02*
X686600D01*
X684743Y722349D02*
X686485D01*
X647298Y750249D02*
X686450D01*
X685969Y729549D02*
X686430D01*
X685191Y723249D02*
X686430D01*
X684723Y722799D02*
X686395D01*
X671444Y672399D02*
X686147D01*
X646787Y747099D02*
X685890D01*
X647110Y749799D02*
X685757D01*
X646021Y747549D02*
X685505D01*
X682417Y672849D02*
X685473D01*
X646708Y749349D02*
X685436D01*
X645149Y747999D02*
X685307D01*
X645180Y748899D02*
X685276D01*
X645149Y748449D02*
X685236D01*
X683058Y673299D02*
X685184D01*
X684250Y674199D02*
X685066D01*
X683364Y673749D02*
X685061D01*
X680020Y729549D02*
X684831D01*
X677148Y726399D02*
X684322D01*
X676913Y764199D02*
X684302D01*
X676787Y726849D02*
X684218D01*
X676494Y779949D02*
X684217D01*
X680640Y699849D02*
X684199D01*
X681090Y699399D02*
X684199D01*
X681540Y698949D02*
X684199D01*
X681990Y698499D02*
X684199D01*
X682439Y698049D02*
X684199D01*
X682755Y697599D02*
X684199D01*
X682911Y697149D02*
X684199D01*
X679588Y729099D02*
X684169D01*
X682972Y696699D02*
X684105D01*
X659649Y777249D02*
X684089D01*
X680200Y700299D02*
X684078D01*
X644350Y761499D02*
X684027D01*
X647539Y727299D02*
X683906D01*
X671134Y728649D02*
X683883D01*
X681151Y677799D02*
X683831D01*
X676624Y763749D02*
X683782D01*
X670275Y727749D02*
X683769D01*
X670867Y728199D02*
X683762D01*
X676552Y779499D02*
X683746D01*
X680680Y678249D02*
X683718D01*
X676564Y679149D02*
X683716D01*
X676114Y678699D02*
X683716D01*
X681169Y679599D02*
X683701D01*
X659588Y777699D02*
X683687D01*
X645024Y761949D02*
X683658D01*
X680163Y700749D02*
X683628D01*
X675950Y763299D02*
X683541D01*
X676484Y779049D02*
X683525D01*
X675824Y778149D02*
X683499D01*
X645313Y762399D02*
X683487D01*
X645436Y762849D02*
X683451D01*
X676273Y778599D02*
X683449D01*
X650108Y771849D02*
X683433D01*
X677314Y725949D02*
X683321D01*
X649980Y774549D02*
X683276D01*
X681373Y677349D02*
X683276D01*
X680163Y701199D02*
X683178D01*
X681291Y783999D02*
X682984D01*
X650510Y772299D02*
X682953D01*
X677346Y725499D02*
X682950D01*
X650451Y774099D02*
X682881D01*
X677252Y725049D02*
X682777D01*
X677005Y724599D02*
X682740D01*
X650698Y772749D02*
X682728D01*
X680163Y701649D02*
X682728D01*
X676470Y724149D02*
X682716D01*
X650673Y773649D02*
X682697D01*
X650748Y773199D02*
X682650D01*
X681448Y676899D02*
X682511D01*
X645734Y753849D02*
X682422D01*
X653839Y720999D02*
X682415D01*
X681880Y780849D02*
X682395D01*
X680163Y702099D02*
X682278D01*
X682008Y783549D02*
X682268D01*
X674225Y705699D02*
X682235D01*
X681545Y676449D02*
X682185D01*
X679249Y705249D02*
X682052D01*
X659212Y723699D02*
X681966D01*
X645841Y754299D02*
X681830D01*
X653389Y721449D02*
X681828D01*
X674554Y706149D02*
X681787D01*
X680163Y702549D02*
X681763D01*
X645149Y756549D02*
X681733D01*
X643039Y759699D02*
X681681D01*
X659245Y723249D02*
X681630D01*
X645149Y756099D02*
X681626D01*
X679766Y704799D02*
X681623D01*
X678646Y625149D02*
X681600D01*
X645822Y754749D02*
X681564D01*
X658377Y721899D02*
X681563D01*
X681010Y834849D02*
X681493D01*
X659152Y722799D02*
X681477D01*
X645336Y755649D02*
X681475D01*
X680163Y702999D02*
X681473D01*
X658907Y722349D02*
X681457D01*
X645671Y755199D02*
X681456D01*
X680027Y704349D02*
X681401D01*
X674703Y706599D02*
X681337D01*
X680163Y703449D02*
X681334D01*
X680147Y703899D02*
X681312D01*
X624149Y756999D02*
X681253D01*
X642710Y759249D02*
X681207D01*
X659533Y622449D02*
X681171D01*
X678610Y624699D02*
X681022D01*
X624149Y757449D02*
X680988D01*
X671698Y672849D02*
X680981D01*
X641984Y758799D02*
X680965D01*
X674719Y707049D02*
X680887D01*
X624149Y757899D02*
X680866D01*
X624149Y758349D02*
X680859D01*
X658878Y622899D02*
X680831D01*
X678439Y624249D02*
X680760D01*
X655624Y623349D02*
X680677D01*
X678070Y623799D02*
X680655D01*
X677014Y679599D02*
X680494D01*
X674609Y707499D02*
X680437D01*
X636381Y783999D02*
X680062D01*
X672156Y632799D02*
X680021D01*
X674339Y707949D02*
X679987D01*
X677464Y680049D02*
X679745D01*
X671652Y635499D02*
X679716D01*
X673734Y708399D02*
X679537D01*
X671838Y633249D02*
X679490D01*
X677914Y680499D02*
X679474D01*
X676123Y780849D02*
X679473D01*
X678364Y680949D02*
X679378D01*
X676258Y783549D02*
X679355D01*
X651397Y635049D02*
X679353D01*
X670992Y633699D02*
X679245D01*
X651976Y634599D02*
X679185D01*
X652238Y634149D02*
X679152D01*
X676550Y781299D02*
X679092D01*
X672560Y708849D02*
X679087D01*
X676642Y783099D02*
X679031D01*
X677007Y696249D02*
X678968D01*
X675664Y678249D02*
X678917D01*
X676781Y781749D02*
X678897D01*
X676822Y782649D02*
X678869D01*
X676864Y782199D02*
X678827D01*
X675042Y610299D02*
X678757D01*
X676841Y612999D02*
X678743D01*
X672901Y709299D02*
X678637D01*
X676557Y696699D02*
X678558D01*
X642149Y666999D02*
X678552D01*
X673170Y673299D02*
X678457D01*
X675416Y677799D02*
X678446D01*
X663277Y651699D02*
X678421D01*
X675985Y675999D02*
X678335D01*
X675720Y663849D02*
X678323D01*
X674938Y610749D02*
X678319D01*
X676734Y612549D02*
X678312D01*
X675785Y677349D02*
X678225D01*
X677166Y688149D02*
X678204D01*
X676049Y676449D02*
X678199D01*
X676716Y688599D02*
X678197D01*
X673082Y709749D02*
X678187D01*
X675988Y676899D02*
X678149D01*
X663581Y654399D02*
X678116D01*
X674696Y611199D02*
X678113D01*
X676467Y612099D02*
X678110D01*
X676107Y697149D02*
X678108D01*
X675875Y611649D02*
X678049D01*
X673539Y673749D02*
X678019D01*
X675778Y675549D02*
X678012D01*
X642149Y666549D02*
X677986D01*
X663807Y652149D02*
X677890D01*
X675013Y664299D02*
X677879D01*
X673710Y674199D02*
X677813D01*
X675340Y675099D02*
X677810D01*
X676266Y689049D02*
X677799D01*
X677461Y695799D02*
X677776D01*
X663945Y653949D02*
X677753D01*
X673754Y674649D02*
X677749D01*
X673126Y710199D02*
X677737D01*
X642149Y666099D02*
X677705D01*
X653867Y731799D02*
X677690D01*
X671241Y729099D02*
X677682D01*
X675657Y697599D02*
X677658D01*
X642149Y664749D02*
X677650D01*
X664052Y652599D02*
X677645D01*
X664112Y653499D02*
X677585D01*
X642149Y665649D02*
X677572D01*
X642149Y665199D02*
X677555D01*
X664145Y653049D02*
X677552D01*
X668910Y806499D02*
X677402D01*
X673292Y705249D02*
X677377D01*
X675816Y689499D02*
X677349D01*
X673175Y710649D02*
X677287D01*
X653946Y731349D02*
X677254D01*
X671222Y729549D02*
X677250D01*
X675207Y698049D02*
X677208D01*
X645149Y737199D02*
X677061D01*
X668682Y640899D02*
X677058D01*
X669728Y730899D02*
X677048D01*
X671071Y729999D02*
X677047D01*
X613554Y643599D02*
X677043D01*
X670736Y730449D02*
X676985D01*
X666256Y689949D02*
X676899D01*
X666149Y704799D02*
X676860D01*
X673877Y711099D02*
X676837D01*
X674757Y698499D02*
X676797D01*
X668440Y641349D02*
X676620D01*
X643680Y643149D02*
X676613D01*
X666149Y704349D02*
X676599D01*
X674268Y698949D02*
X676567D01*
X657849Y734049D02*
X676489D01*
X666149Y703899D02*
X676479D01*
X672490Y699399D02*
X676470D01*
X666149Y703449D02*
X676463D01*
X666162Y702999D02*
X676463D01*
X667772Y702549D02*
X676463D01*
X668189Y702099D02*
X676463D01*
X668386Y701649D02*
X676463D01*
X668442Y701199D02*
X676463D01*
X668373Y700749D02*
X676463D01*
X668160Y700299D02*
X676463D01*
X667708Y699849D02*
X676463D01*
X666149Y690399D02*
X676449D01*
X667916Y641799D02*
X676413D01*
X644151Y642699D02*
X676410D01*
X674190Y711549D02*
X676387D01*
X624149Y794349D02*
X676376D01*
X645149Y736749D02*
X676363D01*
X644373Y642249D02*
X676349D01*
X646888Y791199D02*
X676247D01*
X653412Y626499D02*
X676202D01*
X657110Y802899D02*
X676184D01*
X657788Y734499D02*
X676106D01*
X645149Y736299D02*
X676040D01*
X666149Y690849D02*
X675999D01*
X674329Y711999D02*
X675937D01*
X655913Y623799D02*
X675927D01*
X657585Y734949D02*
X675909D01*
X645149Y735849D02*
X675880D01*
X657154Y735399D02*
X675839D01*
X654821Y626049D02*
X675682D01*
X666149Y691299D02*
X675662D01*
X624149Y793899D02*
X675611D01*
X640612Y799749D02*
X675595D01*
X647023Y791649D02*
X675573D01*
X656036Y624249D02*
X675558D01*
X666149Y691749D02*
X675552D01*
X666149Y692199D02*
X675526D01*
X674337Y712449D02*
X675487D01*
X656939Y802449D02*
X675477D01*
X655587Y625599D02*
X675441D01*
X656030Y624699D02*
X675387D01*
X655895Y625149D02*
X675351D01*
X646288Y793449D02*
X675302D01*
X647043Y792099D02*
X675284D01*
X640792Y800199D02*
X675214D01*
X646725Y792999D02*
X675167D01*
X646950Y792549D02*
X675161D01*
X656570Y801999D02*
X675153D01*
X614816Y614799D02*
X675070D01*
X674217Y712899D02*
X675037D01*
X640849Y800649D02*
X675019D01*
X640618Y801549D02*
X674991D01*
X647215Y766449D02*
X674976D01*
X640794Y801099D02*
X674949D01*
X674157Y724149D02*
X674929D01*
X645430Y763299D02*
X674847D01*
X674403Y726849D02*
X674594D01*
X647456Y765999D02*
X674211D01*
X645448Y763749D02*
X674173D01*
X637132Y783549D02*
X674173D01*
X615290Y614349D02*
X674061D01*
X666149Y692649D02*
X674005D01*
X659385Y778149D02*
X673979D01*
X670295Y780849D02*
X673927D01*
X651028Y612099D02*
X673904D01*
X647546Y765549D02*
X673902D01*
X646970Y764199D02*
X673884D01*
X669987Y781299D02*
X673882D01*
X666149Y695799D02*
X673876D01*
X637467Y783099D02*
X673789D01*
X642149Y664299D02*
X673784D01*
X647510Y765099D02*
X673767D01*
X647339Y764649D02*
X673761D01*
X615533Y613899D02*
X673726D01*
X644401Y612549D02*
X673664D01*
X669221Y781749D02*
X673650D01*
X666149Y695349D02*
X673616D01*
X637635Y782649D02*
X673610D01*
X643821Y613449D02*
X673575D01*
X637682Y782199D02*
X673567D01*
X644216Y612999D02*
X673556D01*
X666149Y693099D02*
X673545D01*
X669350Y778599D02*
X673531D01*
X670430Y780399D02*
X673507D01*
X666149Y696249D02*
X673471D01*
X666149Y694899D02*
X673345D01*
X670024Y779049D02*
X673319D01*
X670436Y779949D02*
X673309D01*
X666149Y693549D02*
X673308D01*
X670313Y779499D02*
X673252D01*
X666149Y694449D02*
X673218D01*
X666149Y693999D02*
X673207D01*
X666780Y661149D02*
X673195D01*
X652612Y663849D02*
X673077D01*
X666149Y705249D02*
X672863D01*
X653312Y661599D02*
X672814D01*
X653088Y663399D02*
X672753D01*
X659937Y621549D02*
X672700D01*
X652036Y611649D02*
X672700D01*
X653433Y662049D02*
X672619D01*
X642149Y650349D02*
X672617D01*
X653333Y662949D02*
X672591D01*
X653439Y662499D02*
X672549D01*
X664422Y717849D02*
X672517D01*
X659045Y724149D02*
X672510D01*
X647989Y726849D02*
X672280D01*
X670090Y618849D02*
X672271D01*
X652215Y608949D02*
X672271D01*
X642149Y649899D02*
X672146D01*
X669178Y621099D02*
X672122D01*
X652371Y611199D02*
X672122D01*
X664441Y717399D02*
X672046D01*
X658681Y724599D02*
X672006D01*
X666638Y708399D02*
X671964D01*
X670229Y619299D02*
X671931D01*
X652167Y609399D02*
X671931D01*
X666149Y705699D02*
X671930D01*
X665340Y649449D02*
X671924D01*
X648439Y726399D02*
X671902D01*
X669833Y620649D02*
X671860D01*
X652522Y610749D02*
X671860D01*
X664334Y716949D02*
X671825D01*
X666631Y707949D02*
X671816D01*
X664045Y716049D02*
X671790D01*
X670237Y619749D02*
X671777D01*
X652434Y609849D02*
X671777D01*
X649789Y725049D02*
X671771D01*
X670117Y620199D02*
X671755D01*
X652541Y610299D02*
X671755D01*
X664067Y716499D02*
X671749D01*
X648889Y725949D02*
X671726D01*
X649339Y725499D02*
X671686D01*
X666149Y706149D02*
X671601D01*
X666494Y707499D02*
X671546D01*
X666149Y706599D02*
X671453D01*
X666188Y707049D02*
X671436D01*
X664217Y713349D02*
X671430D01*
X664212Y715599D02*
X671422D01*
X663931Y713799D02*
X671231D01*
X664338Y712899D02*
X671180D01*
X664245Y715149D02*
X671160D01*
X666151Y699399D02*
X671110D01*
X663907Y714249D02*
X671077D01*
X664194Y711999D02*
X671068D01*
X664331Y712449D02*
X671060D01*
X664152Y714699D02*
X671055D01*
X665741Y646299D02*
X670957D01*
X665967Y648999D02*
X670943D01*
X666149Y696699D02*
X670669D01*
X663882Y711549D02*
X670631D01*
X666149Y675099D02*
X670533D01*
X666242Y675549D02*
X670532D01*
X666149Y698949D02*
X670526D01*
X666152Y646749D02*
X670519D01*
X666269Y648549D02*
X670512D01*
X666517Y708849D02*
X670441D01*
X667449Y633699D02*
X670366D01*
X666149Y697149D02*
X670331D01*
X666363Y647199D02*
X670313D01*
X666416Y648099D02*
X670310D01*
X666149Y698499D02*
X670262D01*
X666446Y647649D02*
X670249D01*
X666149Y697599D02*
X670178D01*
X666149Y698049D02*
X670157D01*
X663741Y711099D02*
X670140D01*
X667686Y630549D02*
X670131D01*
X666231Y709299D02*
X670054D01*
X664189Y710649D02*
X669910D01*
X665569Y709749D02*
X669873D01*
X664639Y710199D02*
X669829D01*
X668013Y638199D02*
X669802D01*
X668108Y635499D02*
X669706D01*
X668294Y633249D02*
X669521D01*
X653914Y730899D02*
X669470D01*
X668355Y630999D02*
X669460D01*
X663226Y743049D02*
X669383D01*
X668482Y637749D02*
X669333D01*
X647230Y746199D02*
X669298D01*
X668525Y635949D02*
X669290D01*
X666149Y671949D02*
X669233D01*
X668613Y632799D02*
X669202D01*
X668642Y631449D02*
X669173D01*
X668722Y637299D02*
X669093D01*
X666149Y674649D02*
X669076D01*
X668818Y636399D02*
X668996D01*
X647089Y727749D02*
X668922D01*
X663566Y743499D02*
X668861D01*
X662797Y745749D02*
X668821D01*
X666149Y672399D02*
X668753D01*
X666149Y674199D02*
X668681D01*
X663720Y743949D02*
X668598D01*
X663376Y745299D02*
X668577D01*
X666149Y672849D02*
X668528D01*
X666149Y673749D02*
X668497D01*
X663742Y744399D02*
X668477D01*
X663638Y744849D02*
X668470D01*
X653764Y730449D02*
X668461D01*
X666149Y673299D02*
X668450D01*
X637618Y781749D02*
X668376D01*
X646639Y728199D02*
X668330D01*
X658954Y778599D02*
X668247D01*
X601750Y617949D02*
X668216D01*
X653458Y729999D02*
X668126D01*
X646189Y728649D02*
X668064D01*
X667282Y621099D02*
X668019D01*
X652817Y729549D02*
X667975D01*
X645739Y729099D02*
X667956D01*
X637430Y781299D02*
X667611D01*
X627420Y779049D02*
X667573D01*
X666977Y618399D02*
X667420D01*
X637061Y780849D02*
X667302D01*
X627442Y779499D02*
X667284D01*
X636083Y780399D02*
X667167D01*
X627338Y779949D02*
X667161D01*
X662725Y633699D02*
X666823D01*
X662762Y626949D02*
X666786D01*
X662820Y638649D02*
X666727D01*
X662946Y630099D02*
X666602D01*
X662962Y630549D02*
X666586D01*
X663192Y641799D02*
X666355D01*
X663288Y638199D02*
X666259D01*
X663384Y635499D02*
X666163D01*
X663456Y639099D02*
X666091D01*
X662364Y804249D02*
X665979D01*
X663570Y633249D02*
X665977D01*
X663577Y627399D02*
X665970D01*
X663624Y629649D02*
X665923D01*
X663631Y630999D02*
X665916D01*
X663716Y641349D02*
X665831D01*
X663757Y637749D02*
X665790D01*
X643442Y771399D02*
X665770D01*
X663800Y635949D02*
X665747D01*
X663834Y639549D02*
X665713D01*
X663888Y632799D02*
X665659D01*
X663892Y627849D02*
X665655D01*
X663914Y629199D02*
X665633D01*
X663917Y631449D02*
X665630D01*
X663957Y640899D02*
X665590D01*
X663976Y637299D02*
X665571D01*
X663995Y636399D02*
X665552D01*
X664009Y639999D02*
X665539D01*
X664029Y632349D02*
X665519D01*
X664030Y628299D02*
X665518D01*
X664037Y628749D02*
X665511D01*
X664037Y631899D02*
X665510D01*
X664046Y640449D02*
X665501D01*
X664049Y636849D02*
X665499D01*
X662844Y804699D02*
X665453D01*
X630925Y618399D02*
X665421D01*
X659524Y768249D02*
X665222D01*
X663069Y805149D02*
X665188D01*
X659929Y621099D02*
X665116D01*
X663148Y805599D02*
X665066D01*
X663101Y806049D02*
X665059D01*
X664180Y661149D02*
X665017D01*
X631502Y618849D02*
X664890D01*
X664308Y658449D02*
X664889D01*
X663252Y806499D02*
X664887D01*
X658721Y770949D02*
X664761D01*
X659790Y620649D02*
X664753D01*
X631788Y619299D02*
X664645D01*
X659813Y768699D02*
X664630D01*
X659477Y620199D02*
X664585D01*
X658681Y619749D02*
X664552D01*
X659487Y770499D02*
X664426D01*
X659936Y769149D02*
X664364D01*
X659795Y770049D02*
X664275D01*
X659930Y769599D02*
X664256D01*
X642149Y649449D02*
X663857D01*
X662677Y646299D02*
X663456D01*
X662078Y648999D02*
X663230D01*
X655639Y719199D02*
X662670D01*
X653048Y661149D02*
X662417D01*
X661090Y658449D02*
X662289D01*
X659181Y633699D02*
X662098D01*
X653245Y626949D02*
X662061D01*
X638751Y638649D02*
X662003D01*
X660178Y660699D02*
X661946D01*
X661229Y658899D02*
X661887D01*
X651870Y630099D02*
X661877D01*
X659417Y630549D02*
X661861D01*
X660833Y660249D02*
X661725D01*
X649550Y651699D02*
X661721D01*
X656089Y718749D02*
X661661D01*
X661117Y659799D02*
X661649D01*
X661353Y659349D02*
X661644D01*
X644448Y641799D02*
X661631D01*
X659745Y638199D02*
X661534D01*
X658339Y716499D02*
X661443D01*
X659841Y635499D02*
X661439D01*
X650187Y654399D02*
X661416D01*
X657721Y745749D02*
X661400D01*
X638716Y639099D02*
X661366D01*
X656539Y718299D02*
X661326D01*
X660589Y714249D02*
X661290D01*
X657889Y716949D02*
X661264D01*
X660027Y633249D02*
X661253D01*
X652881Y627399D02*
X661245D01*
X642137Y629649D02*
X661199D01*
X660087Y630999D02*
X661192D01*
X650224Y652149D02*
X661190D01*
X656989Y717849D02*
X661175D01*
X657439Y717399D02*
X661156D01*
X658789Y716049D02*
X661153D01*
X659581Y645849D02*
X661116D01*
X644398Y641349D02*
X661107D01*
X660214Y637749D02*
X661066D01*
X650495Y653949D02*
X661053D01*
X660139Y714699D02*
X661045D01*
X660257Y635949D02*
X661023D01*
X638547Y639549D02*
X660989D01*
X659239Y715599D02*
X660985D01*
X658524Y743049D02*
X660971D01*
X659689Y715149D02*
X660952D01*
X650513Y652599D02*
X660945D01*
X660345Y632799D02*
X660935D01*
X640881Y627849D02*
X660931D01*
X659778Y648999D02*
X660919D01*
X642129Y629199D02*
X660909D01*
X660374Y631449D02*
X660905D01*
X650630Y653499D02*
X660885D01*
X644210Y640899D02*
X660865D01*
X650636Y653049D02*
X660852D01*
X660455Y637299D02*
X660825D01*
X658487Y745299D02*
X660822D01*
X638180Y639999D02*
X660814D01*
X641677Y628299D02*
X660793D01*
X641990Y628749D02*
X660786D01*
X643808Y640449D02*
X660776D01*
X660551Y636399D02*
X660729D01*
X660175Y804249D02*
X660633D01*
X658813Y743499D02*
X660631D01*
X658795Y744849D02*
X660560D01*
X658936Y743949D02*
X660477D01*
X658930Y744399D02*
X660455D01*
X643675Y657549D02*
X659216D01*
X652527Y660699D02*
X659019D01*
X656815Y804249D02*
X658822D01*
X655319Y645849D02*
X658816D01*
X655416Y648999D02*
X658619D01*
X652342Y633699D02*
X658555D01*
X644267Y657999D02*
X658420D01*
X644136Y660249D02*
X658364D01*
X652239Y630549D02*
X658320D01*
X656295Y804699D02*
X658230D01*
X644534Y658449D02*
X658107D01*
X644471Y659799D02*
X658080D01*
X655844Y646299D02*
X658020D01*
X638660Y638199D02*
X657991D01*
X644641Y658899D02*
X657968D01*
X655890Y648549D02*
X657964D01*
X655837Y805149D02*
X657964D01*
X644622Y659349D02*
X657960D01*
X631923Y619749D02*
X657916D01*
X642194Y635499D02*
X657895D01*
X643420Y770949D02*
X657876D01*
X655713Y806049D02*
X657875D01*
X655832Y805599D02*
X657856D01*
X624149Y767799D02*
X657747D01*
X654950Y622899D02*
X657719D01*
X655846Y806499D02*
X657715D01*
X652320Y633249D02*
X657710D01*
X656109Y646749D02*
X657707D01*
X656133Y648099D02*
X657680D01*
X652410Y630999D02*
X657649D01*
X656231Y647199D02*
X657568D01*
X656238Y647649D02*
X657560D01*
X638417Y637749D02*
X657522D01*
X642018Y635949D02*
X657479D01*
X652166Y632799D02*
X657391D01*
X652446Y631449D02*
X657362D01*
X637893Y637299D02*
X657303D01*
X641669Y636399D02*
X657285D01*
X652115Y632349D02*
X657251D01*
X652356Y631899D02*
X657242D01*
X640847Y636849D02*
X657231D01*
X631943Y620199D02*
X657120D01*
X643266Y770499D02*
X657111D01*
X624149Y768249D02*
X657073D01*
X613080Y622449D02*
X657064D01*
X643289Y775899D02*
X657057D01*
X627266Y778599D02*
X657043D01*
X647236Y745749D02*
X656876D01*
X652939Y721899D02*
X656821D01*
X631850Y620649D02*
X656807D01*
X642926Y770049D02*
X656802D01*
X624149Y768699D02*
X656784D01*
X612630Y621999D02*
X656780D01*
X645149Y742599D02*
X656747D01*
X631625Y621099D02*
X656668D01*
X624149Y769599D02*
X656667D01*
X624149Y769149D02*
X656661D01*
X631188Y621549D02*
X656660D01*
X642914Y776349D02*
X656619D01*
X626926Y778149D02*
X656612D01*
X650239Y724599D02*
X656516D01*
X641835Y776799D02*
X656413D01*
X624149Y777699D02*
X656410D01*
X624149Y777249D02*
X656349D01*
X652489Y722349D02*
X656290D01*
X650689Y724149D02*
X656153D01*
X647113Y745299D02*
X656111D01*
X645149Y743049D02*
X656073D01*
X652039Y722799D02*
X656045D01*
X651139Y723699D02*
X655985D01*
X651589Y723249D02*
X655952D01*
X646824Y744849D02*
X655802D01*
X645149Y743499D02*
X655784D01*
X646150Y744399D02*
X655667D01*
X645149Y743949D02*
X655661D01*
X653254Y732699D02*
X655257D01*
X645149Y735399D02*
X655243D01*
X645149Y733149D02*
X654819D01*
X645149Y734949D02*
X654812D01*
X645149Y733599D02*
X654613D01*
X645149Y734499D02*
X654610D01*
X645149Y734049D02*
X654549D01*
X640269Y801999D02*
X654427D01*
X639447Y802449D02*
X654058D01*
X653515Y626049D02*
X653976D01*
X638288Y802899D02*
X653887D01*
X640884Y622899D02*
X653847D01*
X638423Y803349D02*
X653842D01*
X644178Y645849D02*
X653479D01*
X642149Y648999D02*
X653381D01*
X626581Y787149D02*
X653333D01*
X650685Y789849D02*
X653176D01*
X641610Y623349D02*
X653173D01*
X638443Y803799D02*
X652996D01*
X644385Y646299D02*
X652953D01*
X642157Y648549D02*
X652907D01*
X641939Y623799D02*
X652884D01*
X650240Y787599D02*
X652853D01*
X650888Y789399D02*
X652781D01*
X642104Y624249D02*
X652761D01*
X644449Y646749D02*
X652688D01*
X643754Y648099D02*
X652665D01*
X650678Y788049D02*
X652628D01*
X650949Y788949D02*
X652597D01*
X644388Y647199D02*
X652566D01*
X644185Y647649D02*
X652559D01*
X650885Y788499D02*
X652550D01*
X638350Y804249D02*
X652515D01*
X639512Y806049D02*
X652284D01*
X638125Y804699D02*
X652268D01*
X639158Y805599D02*
X652165D01*
X638304Y805149D02*
X652160D01*
X644646Y806499D02*
X652151D01*
X645289Y729549D02*
X651381D01*
X642148Y624699D02*
X651021D01*
X645149Y732699D02*
X650943D01*
X642149Y667899D02*
X650873D01*
X648528Y612099D02*
X650770D01*
X645149Y729999D02*
X650739D01*
X613320Y627399D02*
X650716D01*
X643128Y660699D02*
X650673D01*
X642149Y663849D02*
X650588D01*
X645149Y732249D02*
X650539D01*
X642081Y625149D02*
X650490D01*
X645149Y730449D02*
X650433D01*
X613592Y626949D02*
X650353D01*
X645149Y731799D02*
X650331D01*
X645149Y730899D02*
X650283D01*
X645149Y731349D02*
X650251D01*
X641889Y625599D02*
X650245D01*
X642149Y668349D02*
X650237D01*
X640435Y626499D02*
X650185D01*
X641514Y626049D02*
X650152D01*
X642149Y661149D02*
X650152D01*
X642149Y663399D02*
X650112D01*
X642249Y635049D02*
X650000D01*
X642149Y668799D02*
X649933D01*
X642149Y661599D02*
X649888D01*
X642149Y662949D02*
X649867D01*
X649470Y606699D02*
X649827D01*
X642149Y669249D02*
X649784D01*
X642149Y662049D02*
X649767D01*
X642149Y662499D02*
X649761D01*
X642149Y669699D02*
X649753D01*
X649566Y611649D02*
X649731D01*
X642017Y630099D02*
X649727D01*
X642242Y670149D02*
X649686D01*
X627324Y632349D02*
X649449D01*
X642192Y634599D02*
X649422D01*
X641733Y630549D02*
X649358D01*
X626650Y631899D02*
X649241D01*
X636550Y632799D02*
X649231D01*
X641078Y630999D02*
X649187D01*
X642012Y634149D02*
X649160D01*
X621807Y631449D02*
X649151D01*
X640804Y633249D02*
X649077D01*
X641658Y633699D02*
X649055D01*
X642149Y654849D02*
X648576D01*
X642149Y651699D02*
X648447D01*
X626389Y787599D02*
X648357D01*
X646025Y790299D02*
X648343D01*
X644448Y612099D02*
X648270D01*
X643504Y774549D02*
X648217D01*
X643338Y771849D02*
X648089D01*
X626014Y788049D02*
X647919D01*
X624149Y789849D02*
X647912D01*
X642149Y654399D02*
X647811D01*
X645621Y742149D02*
X647776D01*
X642149Y652149D02*
X647773D01*
X643339Y774099D02*
X647746D01*
X624935Y788499D02*
X647713D01*
X624149Y789399D02*
X647710D01*
X643076Y772299D02*
X647687D01*
X624149Y788949D02*
X647649D01*
X645750Y738999D02*
X647647D01*
X643010Y773649D02*
X647525D01*
X642149Y653949D02*
X647502D01*
X642497Y772749D02*
X647499D01*
X642149Y652599D02*
X647484D01*
X642338Y773199D02*
X647449D01*
X642149Y653499D02*
X647367D01*
X642149Y653049D02*
X647361D01*
X615548Y606699D02*
X647327D01*
X644369Y611649D02*
X647261D01*
X612543Y609399D02*
X647130D01*
X612523Y608949D02*
X647082D01*
X646387Y741699D02*
X647011D01*
X646424Y739449D02*
X646973D01*
X615481Y607149D02*
X646958D01*
X644144Y611199D02*
X646926D01*
X612450Y609849D02*
X646864D01*
X613835Y608499D02*
X646841D01*
X615289Y607599D02*
X646787D01*
X643664Y610749D02*
X646775D01*
X633801Y610299D02*
X646756D01*
X614914Y608049D02*
X646751D01*
X624149Y766899D02*
X645102D01*
X624149Y766449D02*
X644582D01*
X624149Y790299D02*
X644372D01*
X624149Y765999D02*
X644341D01*
X624149Y765099D02*
X644287D01*
X624149Y765549D02*
X644251D01*
X624149Y793449D02*
X644109D01*
X624149Y790749D02*
X643795D01*
X624149Y792999D02*
X643672D01*
X624149Y791199D02*
X643510D01*
X624149Y792549D02*
X643447D01*
X639801Y806499D02*
X643386D01*
X624149Y764649D02*
X643376D01*
X624149Y791649D02*
X643374D01*
X624149Y792099D02*
X643354D01*
X642205Y660699D02*
X642870D01*
X624149Y764199D02*
X642611D01*
X624149Y763749D02*
X642302D01*
X624149Y763299D02*
X642167D01*
X624149Y762849D02*
X642161D01*
X641535Y762399D02*
X642134D01*
X634282Y610749D02*
X641933D01*
X613331Y643149D02*
X641917D01*
X613837Y645399D02*
X641857D01*
X601750Y640449D02*
X641789D01*
X633736Y613449D02*
X641776D01*
X624149Y776799D02*
X641562D01*
X634529Y611199D02*
X641453D01*
X613026Y642699D02*
X641446D01*
X613772Y645849D02*
X641419D01*
X601750Y640899D02*
X641387D01*
X634252Y612999D02*
X641381D01*
X624151Y762399D02*
X641262D01*
X634637Y611649D02*
X641228D01*
X612610Y642249D02*
X641225D01*
X613652Y646299D02*
X641213D01*
X610954Y641349D02*
X641199D01*
X634513Y612549D02*
X641197D01*
X624149Y798399D02*
X641152D01*
X634632Y612099D02*
X641150D01*
X612016Y641799D02*
X641149D01*
X613469Y646749D02*
X641149D01*
X624158Y773199D02*
X641107D01*
X624149Y772749D02*
X641100D01*
X624149Y837999D02*
X641085D01*
X624149Y837549D02*
X641085D01*
X624149Y837099D02*
X641085D01*
X624149Y836649D02*
X641085D01*
X624149Y836199D02*
X641085D01*
X624149Y835749D02*
X641085D01*
X624149Y835299D02*
X641085D01*
X624149Y825849D02*
X641085D01*
X624149Y825399D02*
X641085D01*
X624149Y824949D02*
X641085D01*
X624149Y824499D02*
X641085D01*
X624149Y824049D02*
X641085D01*
X624149Y823599D02*
X641085D01*
X624149Y823149D02*
X641085D01*
X624149Y822699D02*
X641085D01*
X624149Y822249D02*
X641085D01*
X624149Y821799D02*
X641085D01*
X640554Y834849D02*
X641038D01*
X624149Y821349D02*
X640963D01*
X613214Y647199D02*
X640959D01*
X624149Y815499D02*
X640935D01*
X624149Y795249D02*
X640923D01*
X624149Y815949D02*
X640845D01*
X624180Y758799D02*
X640813D01*
X624149Y770049D02*
X640671D01*
X624149Y797949D02*
X640586D01*
X624149Y772299D02*
X640522D01*
X624297Y776349D02*
X640483D01*
X624149Y795699D02*
X640479D01*
X624149Y820899D02*
X640469D01*
X624149Y816399D02*
X640389D01*
X624726Y773649D02*
X640387D01*
X624149Y770499D02*
X640331D01*
X624149Y797499D02*
X640305D01*
X624149Y771849D02*
X640260D01*
X624149Y796149D02*
X640250D01*
X624980Y761949D02*
X640183D01*
X624149Y770949D02*
X640177D01*
X624149Y797049D02*
X640172D01*
X631616Y626499D02*
X640162D01*
X624149Y796599D02*
X640155D01*
X624149Y771399D02*
X640155D01*
X624149Y820449D02*
X640126D01*
X612955Y627849D02*
X640116D01*
X624876Y775899D02*
X640108D01*
X625108Y759249D02*
X640087D01*
X624149Y816849D02*
X640069D01*
X625066Y774099D02*
X640058D01*
X637224Y633249D02*
X639993D01*
X637545Y636849D02*
X639951D01*
X621277Y630999D02*
X639919D01*
X625138Y775449D02*
X639916D01*
X625220Y774549D02*
X639893D01*
X624149Y819999D02*
X639883D01*
X625242Y774999D02*
X639849D01*
X624149Y817299D02*
X639844D01*
X625451Y761499D02*
X639808D01*
X625510Y759699D02*
X639758D01*
X624149Y819549D02*
X639719D01*
X613413Y622899D02*
X639713D01*
X624149Y817749D02*
X639694D01*
X622515Y711099D02*
X639649D01*
X622072Y710649D02*
X639649D01*
X601750Y710199D02*
X639649D01*
X601750Y709749D02*
X639649D01*
X601750Y709299D02*
X639649D01*
X610781Y708849D02*
X639649D01*
X621929Y708399D02*
X639649D01*
X622446Y707949D02*
X639649D01*
X622708Y707499D02*
X639649D01*
X622828Y707049D02*
X639649D01*
X622833Y706599D02*
X639649D01*
X622726Y706149D02*
X639649D01*
X622480Y705699D02*
X639649D01*
X622000Y705249D02*
X639649D01*
X613840Y704799D02*
X639649D01*
X613780Y704349D02*
X639649D01*
X635616Y703899D02*
X639649D01*
X636616Y702099D02*
X639649D01*
X636471Y701649D02*
X639649D01*
X636148Y701199D02*
X639649D01*
X635280Y700749D02*
X639649D01*
X601750Y700299D02*
X639649D01*
X601750Y699849D02*
X639649D01*
X601750Y699399D02*
X639649D01*
X601750Y698949D02*
X639649D01*
X611768Y698499D02*
X639649D01*
X612450Y698049D02*
X639649D01*
X612911Y697599D02*
X639649D01*
X613246Y697149D02*
X639649D01*
X613493Y696699D02*
X639649D01*
X613668Y696249D02*
X639649D01*
X613782Y695799D02*
X639649D01*
X613841Y695349D02*
X639649D01*
X613846Y694899D02*
X639649D01*
X613798Y694449D02*
X639649D01*
X630654Y693999D02*
X639649D01*
X631085Y693549D02*
X639649D01*
X631288Y693099D02*
X639649D01*
X631349Y692649D02*
X639649D01*
X631285Y692199D02*
X639649D01*
X631078Y691749D02*
X639649D01*
X630640Y691299D02*
X639649D01*
X601750Y690849D02*
X639649D01*
X601750Y690399D02*
X639649D01*
X601750Y689949D02*
X639649D01*
X624149Y819099D02*
X639622D01*
X625673Y761049D02*
X639616D01*
X624149Y818199D02*
X639610D01*
X625698Y760149D02*
X639593D01*
X601750Y689499D02*
X639589D01*
X624149Y818649D02*
X639586D01*
X625748Y760599D02*
X639549D01*
X636240Y703449D02*
X639525D01*
X636629Y702549D02*
X639499D01*
X636515Y702999D02*
X639449D01*
X612457Y628299D02*
X639320D01*
X622743Y711549D02*
X639319D01*
X601750Y630549D02*
X639264D01*
X630047Y689049D02*
X639140D01*
X637513Y633699D02*
X639139D01*
X637452Y636399D02*
X639128D01*
X632090Y626049D02*
X639083D01*
X611713Y628749D02*
X639007D01*
X631519Y623349D02*
X638987D01*
X601750Y630099D02*
X638980D01*
X636147Y811449D02*
X638878D01*
X622838Y711999D02*
X638869D01*
X601750Y629199D02*
X638868D01*
X601750Y629649D02*
X638860D01*
X637636Y634149D02*
X638785D01*
X637207Y635949D02*
X638779D01*
X632333Y625599D02*
X638708D01*
X624149Y815049D02*
X638697D01*
X630869Y688599D02*
X638690D01*
X632044Y623799D02*
X638658D01*
X637630Y634599D02*
X638605D01*
X637187Y635499D02*
X638603D01*
X624149Y798849D02*
X638593D01*
X638376Y802449D02*
X638551D01*
X637495Y635049D02*
X638549D01*
X632438Y625149D02*
X638516D01*
X632309Y624249D02*
X638493D01*
X624149Y811899D02*
X638455D01*
X636969Y810999D02*
X638449D01*
X632431Y624699D02*
X638449D01*
X622821Y712449D02*
X638419D01*
X624149Y814599D02*
X638244D01*
X631218Y688149D02*
X638240D01*
X624149Y812349D02*
X638112D01*
X637318Y810549D02*
X638033D01*
X624149Y834849D02*
X638028D01*
X624149Y814149D02*
X637995D01*
X622688Y712899D02*
X637969D01*
X624149Y812799D02*
X637925D01*
X624149Y813699D02*
X637872D01*
X624149Y813249D02*
X637851D01*
X631394Y687699D02*
X637790D01*
X624149Y826299D02*
X637778D01*
X624149Y799299D02*
X637739D01*
X622406Y713349D02*
X637519D01*
X624149Y799749D02*
X637385D01*
X624149Y801549D02*
X637375D01*
X631449Y687249D02*
X637340D01*
X624149Y834399D02*
X637278D01*
X624149Y800199D02*
X637205D01*
X624149Y801099D02*
X637203D01*
X624149Y800649D02*
X637149D01*
X624149Y826749D02*
X637137D01*
X621839Y713799D02*
X637069D01*
X631392Y686799D02*
X636890D01*
X624149Y833949D02*
X636820D01*
X624149Y827199D02*
X636725D01*
X613759Y714249D02*
X636619D01*
X624149Y833499D02*
X636506D01*
X624149Y827649D02*
X636441D01*
X631212Y686349D02*
X636440D01*
X624149Y805599D02*
X636423D01*
X624149Y833049D02*
X636291D01*
X624149Y806049D02*
X636285D01*
X624149Y828099D02*
X636248D01*
X613831Y714699D02*
X636169D01*
X624149Y832599D02*
X636155D01*
X624149Y828549D02*
X636130D01*
X624149Y806499D02*
X636105D01*
X624149Y807399D02*
X636103D01*
X624149Y832149D02*
X636086D01*
X624149Y828999D02*
X636079D01*
X624149Y831699D02*
X636076D01*
X624149Y831249D02*
X636076D01*
X624149Y830799D02*
X636076D01*
X624149Y830349D02*
X636076D01*
X624149Y829899D02*
X636076D01*
X624149Y829449D02*
X636076D01*
X624149Y806949D02*
X636049D01*
X601750Y639999D02*
X636028D01*
X630858Y685899D02*
X635990D01*
X624149Y801999D02*
X635772D01*
X613849Y715149D02*
X635719D01*
X601750Y639549D02*
X635661D01*
X627076Y780399D02*
X635582D01*
X630004Y685449D02*
X635540D01*
X624149Y805149D02*
X635509D01*
X610492Y639099D02*
X635492D01*
X627613Y632799D02*
X635447D01*
X611913Y638649D02*
X635443D01*
X624149Y807849D02*
X635293D01*
X624149Y783999D02*
X635285D01*
X613815Y715599D02*
X635269D01*
X624149Y811449D02*
X635251D01*
X624149Y802449D02*
X635195D01*
X613849Y684999D02*
X635090D01*
X624149Y804699D02*
X635072D01*
X624149Y802899D02*
X634910D01*
X624149Y804249D02*
X634847D01*
X613726Y716049D02*
X634819D01*
X612582Y638199D02*
X634816D01*
X614028Y635499D02*
X634793D01*
X624149Y803349D02*
X634774D01*
X627736Y633249D02*
X634773D01*
X624149Y803799D02*
X634754D01*
X630708Y700749D02*
X634697D01*
X613813Y684549D02*
X634640D01*
X626497Y780849D02*
X634604D01*
X613955Y635949D02*
X634590D01*
X624149Y783549D02*
X634533D01*
X626521Y635049D02*
X634502D01*
X627730Y633699D02*
X634484D01*
X613045Y637749D02*
X634453D01*
X624149Y808299D02*
X634439D01*
X624149Y810999D02*
X634428D01*
X621884Y716499D02*
X634369D01*
X627287Y634599D02*
X634367D01*
X627595Y634149D02*
X634361D01*
X613665Y703899D02*
X634361D01*
X613829Y636399D02*
X634345D01*
X613387Y637299D02*
X634285D01*
X613643Y636849D02*
X634252D01*
X624149Y781299D02*
X634235D01*
X624149Y783099D02*
X634198D01*
X613723Y684099D02*
X634190D01*
X624149Y808749D02*
X634085D01*
X624149Y810549D02*
X634079D01*
X624149Y781749D02*
X634047D01*
X624149Y782649D02*
X634030D01*
X624149Y782199D02*
X633983D01*
X622610Y716949D02*
X633919D01*
X624149Y809199D02*
X633905D01*
X624149Y810099D02*
X633903D01*
X624149Y809649D02*
X633849D01*
X631110Y701199D02*
X633829D01*
X613575Y683649D02*
X633740D01*
X630580Y703449D02*
X633738D01*
X631298Y701649D02*
X633506D01*
X622939Y717399D02*
X633469D01*
X631051Y702999D02*
X633462D01*
X631348Y702099D02*
X633362D01*
X631273Y702549D02*
X633348D01*
X613360Y683199D02*
X633290D01*
X623104Y717849D02*
X633059D01*
X623148Y718299D02*
X632700D01*
X619631Y739899D02*
X632649D01*
X619509Y739449D02*
X632649D01*
X619244Y738999D02*
X632649D01*
X618719Y738549D02*
X632649D01*
X624881Y738099D02*
X632649D01*
X625245Y737649D02*
X632649D01*
X625412Y737199D02*
X632649D01*
X625445Y736749D02*
X632649D01*
X625352Y736299D02*
X632649D01*
X625107Y735849D02*
X632649D01*
X624577Y735399D02*
X632649D01*
X613848Y734949D02*
X632649D01*
X613806Y734499D02*
X632649D01*
X613710Y734049D02*
X632649D01*
X613554Y733599D02*
X632649D01*
X613331Y733149D02*
X632649D01*
X613026Y732699D02*
X632649D01*
X612610Y732249D02*
X632649D01*
X612016Y731799D02*
X632649D01*
X610954Y731349D02*
X632649D01*
X601750Y730899D02*
X632649D01*
X601750Y730449D02*
X632649D01*
X601750Y729999D02*
X632649D01*
X619847Y729549D02*
X632649D01*
X620669Y729099D02*
X632649D01*
X621018Y728649D02*
X632649D01*
X621194Y728199D02*
X632649D01*
X621249Y727749D02*
X632649D01*
X621192Y727299D02*
X632649D01*
X621012Y726849D02*
X632649D01*
X620658Y726399D02*
X632649D01*
X619804Y725949D02*
X632649D01*
X613827Y725499D02*
X632649D01*
X613850Y725049D02*
X632649D01*
X613820Y724599D02*
X632649D01*
X613736Y724149D02*
X632649D01*
X613594Y723699D02*
X632649D01*
X622514Y719649D02*
X632649D01*
X622889Y719199D02*
X632649D01*
X623081Y718749D02*
X632649D01*
X632310Y720099D02*
X632487D01*
X632238Y723249D02*
X632454D01*
X615638Y613449D02*
X631861D01*
X612225Y610299D02*
X631796D01*
X615631Y612999D02*
X631345D01*
X611788Y610749D02*
X631315D01*
X615509Y612549D02*
X631084D01*
X601750Y611199D02*
X631068D01*
X615244Y612099D02*
X630965D01*
X614719Y611649D02*
X630960D01*
X613065Y682749D02*
X630930D01*
X601750Y680499D02*
X630649D01*
X601750Y680049D02*
X630649D01*
X601750Y679599D02*
X630649D01*
X601750Y679149D02*
X630649D01*
X611311Y678699D02*
X630649D01*
X612185Y678249D02*
X630649D01*
X612725Y677799D02*
X630649D01*
X613110Y677349D02*
X630649D01*
X613393Y676899D02*
X630649D01*
X613598Y676449D02*
X630649D01*
X613738Y675999D02*
X630649D01*
X613821Y675549D02*
X630649D01*
X613850Y675099D02*
X630649D01*
X613826Y674649D02*
X630649D01*
X613748Y674199D02*
X630649D01*
X613613Y673749D02*
X630649D01*
X613414Y673299D02*
X630649D01*
X613138Y672849D02*
X630649D01*
X612764Y672399D02*
X630649D01*
X612242Y671949D02*
X630649D01*
X611416Y671499D02*
X630649D01*
X601750Y671049D02*
X630649D01*
X601750Y670599D02*
X630649D01*
X601750Y670149D02*
X630649D01*
X601750Y669699D02*
X630649D01*
X601750Y669249D02*
X630649D01*
X610992Y668799D02*
X630649D01*
X612032Y668349D02*
X630649D01*
X612621Y667899D02*
X630649D01*
X613034Y667449D02*
X630649D01*
X613337Y666999D02*
X630649D01*
X613558Y666549D02*
X630649D01*
X613712Y666099D02*
X630649D01*
X613808Y665649D02*
X630649D01*
X613848Y665199D02*
X630649D01*
X613836Y664749D02*
X630649D01*
X613770Y664299D02*
X630649D01*
X626788Y663849D02*
X630649D01*
X627225Y663399D02*
X630649D01*
X627450Y662949D02*
X630649D01*
X627543Y662499D02*
X630649D01*
X627523Y662049D02*
X630649D01*
X627388Y661599D02*
X630649D01*
X627102Y661149D02*
X630649D01*
X626525Y660699D02*
X630649D01*
X601750Y660249D02*
X630649D01*
X601750Y659799D02*
X630649D01*
X601750Y659349D02*
X630649D01*
X610480Y658899D02*
X630649D01*
X611862Y658449D02*
X630649D01*
X612509Y657999D02*
X630649D01*
X612953Y657549D02*
X630649D01*
X613278Y657099D02*
X630649D01*
X613515Y656649D02*
X630649D01*
X613684Y656199D02*
X630649D01*
X613791Y655749D02*
X630649D01*
X613844Y655299D02*
X630649D01*
X613843Y654849D02*
X630649D01*
X613789Y654399D02*
X630649D01*
X613680Y653949D02*
X630649D01*
X613511Y653499D02*
X630649D01*
X613271Y653049D02*
X630649D01*
X612945Y652599D02*
X630649D01*
X612498Y652149D02*
X630649D01*
X611843Y651699D02*
X630649D01*
X610392Y651249D02*
X630649D01*
X601750Y650799D02*
X630649D01*
X601750Y650349D02*
X630649D01*
X601750Y649899D02*
X630649D01*
X601750Y649449D02*
X630649D01*
X601750Y648999D02*
X630649D01*
X611668Y648549D02*
X630649D01*
X612388Y648099D02*
X630649D01*
X612867Y647649D02*
X630649D01*
X612663Y682299D02*
X630571D01*
X601750Y680949D02*
X630468D01*
X612095Y681849D02*
X630405D01*
X611131Y681399D02*
X630374D01*
X613387Y723249D02*
X630361D01*
X621435Y720099D02*
X630296D01*
X613102Y722799D02*
X629845D01*
X601750Y720549D02*
X629815D01*
X613662Y623349D02*
X629679D01*
X612715Y722349D02*
X629584D01*
X613793Y626499D02*
X629581D01*
X601750Y720999D02*
X629568D01*
X612170Y721899D02*
X629465D01*
X611283Y721449D02*
X629460D01*
X601750Y618399D02*
X629272D01*
X613832Y685449D02*
X629193D01*
X613842Y623799D02*
X629153D01*
X601750Y689049D02*
X629151D01*
X613932Y626049D02*
X629107D01*
X611985Y621549D02*
X629009D01*
X613964Y624249D02*
X628888D01*
X614017Y625599D02*
X628865D01*
X613488Y703449D02*
X628817D01*
X614032Y624699D02*
X628766D01*
X614049Y625149D02*
X628759D01*
X610731Y691299D02*
X628757D01*
X613695Y693999D02*
X628743D01*
X601750Y618849D02*
X628695D01*
X601750Y700749D02*
X628689D01*
X610750Y621099D02*
X628572D01*
X601750Y619299D02*
X628410D01*
X601750Y620649D02*
X628347D01*
X613240Y702999D02*
X628346D01*
X613762Y685899D02*
X628339D01*
X611560Y688599D02*
X628328D01*
X611932Y691749D02*
X628319D01*
X613533Y693549D02*
X628312D01*
X601750Y701199D02*
X628287D01*
X601750Y619749D02*
X628274D01*
X601750Y620199D02*
X628254D01*
X612902Y702549D02*
X628125D01*
X612555Y692199D02*
X628113D01*
X613302Y693099D02*
X628110D01*
X611749Y701649D02*
X628099D01*
X612438Y702099D02*
X628049D01*
X612986Y692649D02*
X628049D01*
X613635Y686349D02*
X627985D01*
X612323Y688149D02*
X627979D01*
X613444Y686799D02*
X627805D01*
X612821Y687699D02*
X627803D01*
X613180Y687249D02*
X627749D01*
X614050Y635049D02*
X625676D01*
X622052Y631899D02*
X625547D01*
X624149Y780849D02*
X625100D01*
X614021Y634599D02*
X624911D01*
X622145Y632349D02*
X624873D01*
X601750Y660699D02*
X624872D01*
X624162Y778149D02*
X624671D01*
X624274Y788499D02*
X624662D01*
X613648Y663849D02*
X624609D01*
X613942Y634149D02*
X624602D01*
X622112Y632799D02*
X624584D01*
X624327Y780399D02*
X624470D01*
X621581Y633699D02*
X624467D01*
X621945Y633249D02*
X624461D01*
X601750Y661149D02*
X624295D01*
X613464Y663399D02*
X624172D01*
X611647Y661599D02*
X624010D01*
X613207Y662949D02*
X623947D01*
X612375Y662049D02*
X623874D01*
X612858Y662499D02*
X623854D01*
X613837Y735399D02*
X623021D01*
X612388Y738099D02*
X622716D01*
X613772Y735849D02*
X622490D01*
X612867Y737649D02*
X622353D01*
X613652Y736299D02*
X622245D01*
X613214Y737199D02*
X622185D01*
X613469Y736749D02*
X622152D01*
X601750Y720099D02*
X621162D01*
X613579Y716499D02*
X620713D01*
X613631Y713799D02*
X620150D01*
X601750Y719649D02*
X620083D01*
X611949Y708399D02*
X620061D01*
X613846Y705249D02*
X619989D01*
X613365Y716949D02*
X619987D01*
X601750Y710649D02*
X619917D01*
X601750Y630999D02*
X619721D01*
X601750Y719199D02*
X619708D01*
X613073Y717399D02*
X619658D01*
X613439Y713349D02*
X619583D01*
X612566Y707949D02*
X619543D01*
X611164Y718749D02*
X619516D01*
X613800Y705699D02*
X619509D01*
X612674Y717849D02*
X619493D01*
X601750Y711099D02*
X619474D01*
X612111Y718299D02*
X619449D01*
X613808Y633699D02*
X619416D01*
X613173Y712899D02*
X619302D01*
X612994Y707499D02*
X619281D01*
X613698Y706149D02*
X619264D01*
X611537Y711549D02*
X619246D01*
X611796Y631449D02*
X619190D01*
X612812Y712449D02*
X619168D01*
X613308Y707049D02*
X619161D01*
X613537Y706599D02*
X619156D01*
X612310Y711999D02*
X619151D01*
X613613Y633249D02*
X619053D01*
X613750Y725949D02*
X618993D01*
X601750Y729549D02*
X618951D01*
X612508Y631899D02*
X618945D01*
X613347Y632799D02*
X618885D01*
X612992Y632349D02*
X618852D01*
X613617Y726399D02*
X618139D01*
X601750Y729099D02*
X618128D01*
X613419Y726849D02*
X617785D01*
X611442Y728649D02*
X617779D01*
X613146Y727299D02*
X617605D01*
X612256Y728199D02*
X617603D01*
X612774Y727749D02*
X617549D01*
X611668Y738549D02*
X616879D01*
X601750Y738999D02*
X616353D01*
X601750Y739449D02*
X616088D01*
X601750Y739899D02*
X615966D01*
X612399Y608499D02*
X613562D01*
X601750Y604899D02*
X613113D01*
X601750Y611649D02*
X612879D01*
X601750Y614799D02*
X612781D01*
X601750Y605349D02*
X612387D01*
X601750Y612099D02*
X612353D01*
X601750Y614349D02*
X612307D01*
X601750Y612549D02*
X612088D01*
X601750Y613899D02*
X612065D01*
X601750Y605799D02*
X612058D01*
X601750Y612999D02*
X611966D01*
X601750Y613449D02*
X611959D01*
X611525Y607599D02*
X611939D01*
X601750Y607149D02*
X611916D01*
X601750Y606249D02*
X611893D01*
X601750Y606699D02*
X611849D01*
X601750Y607599D02*
X609872D01*
X601750Y610749D02*
X609609D01*
X601750Y651249D02*
X609608D01*
X601750Y658899D02*
X609520D01*
X601750Y639099D02*
X609508D01*
X601750Y608049D02*
X609295D01*
X601750Y691299D02*
X609269D01*
X601750Y621099D02*
X609250D01*
X601750Y708849D02*
X609219D01*
X601750Y610299D02*
X609172D01*
X601750Y731349D02*
X609046D01*
X601750Y641349D02*
X609046D01*
X601750Y608499D02*
X609010D01*
X601750Y668799D02*
X609008D01*
X601750Y609849D02*
X608947D01*
X601750Y608949D02*
X608874D01*
X601750Y681399D02*
X608869D01*
X601750Y609399D02*
X608854D01*
X601750Y718749D02*
X608836D01*
X601750Y721449D02*
X608717D01*
X601750Y678699D02*
X608689D01*
X601750Y671499D02*
X608584D01*
X601750Y728649D02*
X608558D01*
X601755Y711549D02*
X608463D01*
X601757Y688599D02*
X608440D01*
X601770Y661599D02*
X608353D01*
X601775Y738549D02*
X608332D01*
X601775Y648549D02*
X608332D01*
X601791Y628749D02*
X608287D01*
X601799Y701649D02*
X608251D01*
X601807Y698499D02*
X608232D01*
X601823Y631449D02*
X608204D01*
X601849Y651699D02*
X608157D01*
X601863Y658449D02*
X608138D01*
X601913Y638649D02*
X608087D01*
X601932Y691749D02*
X608068D01*
X601949Y708399D02*
X608051D01*
X601985Y621549D02*
X608015D01*
X602016Y731799D02*
X607984D01*
X602016Y641799D02*
X607984D01*
X602032Y668349D02*
X607968D01*
X602095Y681849D02*
X607905D01*
X602111Y718299D02*
X607889D01*
X602170Y721899D02*
X607830D01*
X602185Y678249D02*
X607815D01*
X602242Y671949D02*
X607758D01*
X602256Y728199D02*
X607744D01*
X602310Y711999D02*
X607690D01*
X602323Y688149D02*
X607677D01*
X602375Y662049D02*
X607625D01*
X602388Y738099D02*
X607612D01*
X602388Y648099D02*
X607612D01*
X602438Y702099D02*
X607562D01*
X602450Y698049D02*
X607550D01*
X602457Y628299D02*
X607543D01*
X602498Y652149D02*
X607502D01*
X602508Y631899D02*
X607492D01*
X602509Y657999D02*
X607491D01*
X602555Y692199D02*
X607445D01*
X602566Y707949D02*
X607434D01*
X602582Y638199D02*
X607418D01*
X602610Y732249D02*
X607390D01*
X602610Y642249D02*
X607390D01*
X602621Y667899D02*
X607379D01*
X602630Y621999D02*
X607370D01*
X602663Y682299D02*
X607337D01*
X602674Y717849D02*
X607326D01*
X602715Y722349D02*
X607285D01*
X602725Y677799D02*
X607275D01*
X602764Y672399D02*
X607236D01*
X602774Y727749D02*
X607226D01*
X602812Y712449D02*
X607188D01*
X602821Y687699D02*
X607179D01*
X602858Y662499D02*
X607142D01*
X602867Y737649D02*
X607133D01*
X602867Y647649D02*
X607133D01*
X602902Y702549D02*
X607098D01*
X602911Y697599D02*
X607089D01*
X602945Y652599D02*
X607055D01*
X602953Y657549D02*
X607047D01*
X602955Y627849D02*
X607045D01*
X602986Y692649D02*
X607014D01*
X602992Y632349D02*
X607008D01*
X602994Y707499D02*
X607006D01*
X603026Y732699D02*
X606974D01*
X603026Y642699D02*
X606974D01*
X603034Y667449D02*
X606966D01*
X603045Y637749D02*
X606955D01*
X603065Y682749D02*
X606935D01*
X603073Y717399D02*
X606927D01*
X603080Y622449D02*
X606920D01*
X603102Y722799D02*
X606898D01*
X603110Y677349D02*
X606890D01*
X603138Y672849D02*
X606862D01*
X603146Y727299D02*
X606854D01*
X603173Y712899D02*
X606827D01*
X603180Y687249D02*
X606820D01*
X603207Y662949D02*
X606793D01*
X603214Y737199D02*
X606786D01*
X603214Y647199D02*
X606786D01*
X603240Y702999D02*
X606760D01*
X603246Y697149D02*
X606754D01*
X603271Y653049D02*
X606729D01*
X603278Y657099D02*
X606722D01*
X603302Y693099D02*
X606698D01*
X603308Y707049D02*
X606692D01*
X603320Y627399D02*
X606680D01*
X603331Y733149D02*
X606669D01*
X603331Y643149D02*
X606669D01*
X603337Y666999D02*
X606663D01*
X603347Y632799D02*
X606653D01*
X603360Y683199D02*
X606640D01*
X603365Y716949D02*
X606635D01*
X603387Y723249D02*
X606613D01*
X603387Y637299D02*
X606613D01*
X603393Y676899D02*
X606607D01*
X603413Y622899D02*
X606587D01*
X603414Y673299D02*
X606586D01*
X603419Y726849D02*
X606581D01*
X603439Y713349D02*
X606561D01*
X603444Y686799D02*
X606556D01*
X603464Y663399D02*
X606536D01*
X603469Y736749D02*
X606531D01*
X603469Y646749D02*
X606531D01*
X603488Y703449D02*
X606512D01*
X603493Y696699D02*
X606507D01*
X603511Y653499D02*
X606489D01*
X603515Y656649D02*
X606485D01*
X603533Y693549D02*
X606467D01*
X603537Y706599D02*
X606463D01*
X603554Y733599D02*
X606446D01*
X603554Y643599D02*
X606446D01*
X603558Y666549D02*
X606442D01*
X603575Y683649D02*
X606425D01*
X603579Y716499D02*
X606421D01*
X603592Y626949D02*
X606408D01*
X603594Y723699D02*
X606406D01*
X603598Y676449D02*
X606402D01*
X603613Y633249D02*
X606387D01*
X603613Y673749D02*
X606387D01*
X603617Y726399D02*
X606383D01*
X603631Y713799D02*
X606369D01*
X603635Y686349D02*
X606365D01*
X603643Y636849D02*
X606357D01*
X603648Y663849D02*
X606352D01*
X603652Y736299D02*
X606348D01*
X603652Y646299D02*
X606348D01*
X603662Y623349D02*
X606338D01*
X603665Y703899D02*
X606335D01*
X603668Y696249D02*
X606332D01*
X603680Y653949D02*
X606320D01*
X603684Y656199D02*
X606316D01*
X603695Y693999D02*
X606305D01*
X603698Y706149D02*
X606302D01*
X603710Y734049D02*
X606290D01*
X603710Y644049D02*
X606290D01*
X603712Y666099D02*
X606288D01*
X603723Y684099D02*
X606277D01*
X603726Y716049D02*
X606274D01*
X603736Y724149D02*
X606264D01*
X603738Y675999D02*
X606262D01*
X603748Y674199D02*
X606252D01*
X603750Y725949D02*
X606250D01*
X603759Y714249D02*
X606241D01*
X603762Y685899D02*
X606238D01*
X603770Y664299D02*
X606230D01*
X603772Y735849D02*
X606228D01*
X603772Y645849D02*
X606228D01*
X603780Y704349D02*
X606220D01*
X603782Y695799D02*
X606218D01*
X603789Y654399D02*
X606211D01*
X603791Y655749D02*
X606209D01*
X603793Y626499D02*
X606207D01*
X603798Y694449D02*
X606202D01*
X603800Y705699D02*
X606200D01*
X603806Y734499D02*
X606194D01*
X603806Y644499D02*
X606194D01*
X603808Y665649D02*
X606192D01*
X603808Y633699D02*
X606192D01*
X603813Y684549D02*
X606187D01*
X603815Y715599D02*
X606185D01*
X603820Y724599D02*
X606180D01*
X603821Y675549D02*
X606179D01*
X603826Y674649D02*
X606174D01*
X603827Y725499D02*
X606173D01*
X603829Y636399D02*
X606171D01*
X603831Y714699D02*
X606169D01*
X603832Y685449D02*
X606168D01*
X603836Y664749D02*
X606164D01*
X603837Y735399D02*
X606163D01*
X603837Y645399D02*
X606163D01*
X603840Y704799D02*
X606160D01*
X603841Y695349D02*
X606159D01*
X603842Y623799D02*
X606158D01*
X603843Y654849D02*
X606157D01*
X603844Y655299D02*
X606156D01*
X603846Y694899D02*
X606154D01*
X603846Y705249D02*
X606154D01*
X603848Y734949D02*
X606152D01*
X603848Y644949D02*
X606152D01*
X603848Y665199D02*
X606152D01*
X603849Y684999D02*
X606151D01*
X603849Y715149D02*
X606151D01*
X603850Y725049D02*
X606150D01*
X603850Y675099D02*
X606150D01*
X603932Y626049D02*
X606068D01*
X603942Y634149D02*
X606058D01*
X603955Y635949D02*
X606045D01*
X603964Y624249D02*
X606036D01*
X604017Y625599D02*
X605983D01*
X604021Y634599D02*
X605979D01*
X604028Y635499D02*
X605972D01*
X604032Y624699D02*
X605968D01*
X604049Y625149D02*
X605951D01*
X604050Y635049D02*
X605950D01*
X664193Y811899D02*
X673029D01*
X649041Y815049D02*
X673007D01*
X649143Y814599D02*
X672904D01*
X664157Y812349D02*
X672835D01*
X659480Y814149D02*
X672748D01*
X663985Y812799D02*
X672709D01*
X660825Y813699D02*
X672667D01*
X663615Y813249D02*
X672654D01*
X659992Y813699D02*
X660219D01*
X649299Y814149D02*
X657717D01*
X649380Y813699D02*
X657246D01*
X649018Y811899D02*
X657171D01*
X649393Y813249D02*
X657025D01*
X649212Y812349D02*
X656999D01*
X649338Y812799D02*
X656949D01*
X641149Y705852D02*
X664649D01*
X641149Y705402D02*
X664649D01*
X641162Y704952D02*
X664649D01*
X642111Y704502D02*
X664649D01*
X642587Y704052D02*
X664649D01*
X642831Y703602D02*
X664649D01*
X642938Y703152D02*
X664649D01*
X651279Y702702D02*
X664649D01*
X651722Y702252D02*
X664649D01*
X651949Y701802D02*
X664649D01*
X652044Y701352D02*
X664649D01*
X652026Y700902D02*
X664649D01*
X651892Y700452D02*
X664649D01*
X651610Y700002D02*
X664649D01*
X651041Y699552D02*
X664649D01*
X641149Y699102D02*
X664649D01*
X641149Y698652D02*
X664649D01*
X641149Y698202D02*
X664649D01*
X641149Y697752D02*
X664649D01*
X646864Y697302D02*
X664649D01*
X647591Y696852D02*
X664649D01*
X647920Y696402D02*
X664649D01*
X648085Y695952D02*
X664649D01*
X648129Y695502D02*
X664649D01*
X652444Y695052D02*
X664649D01*
X652855Y694602D02*
X664649D01*
X653067Y694152D02*
X664649D01*
X653149Y693702D02*
X664649D01*
X661350Y693252D02*
X664649D01*
X661913Y692802D02*
X664649D01*
X662194Y692352D02*
X664649D01*
X662326Y691902D02*
X664649D01*
X662342Y691452D02*
X664649D01*
X662246Y691002D02*
X664649D01*
X662051Y690552D02*
X664649D01*
X639301Y686502D02*
X664649D01*
X638851Y686052D02*
X664649D01*
X638401Y685602D02*
X664649D01*
X646745Y685152D02*
X664649D01*
X647526Y684702D02*
X664649D01*
X657731Y684252D02*
X664649D01*
X658364Y683802D02*
X664649D01*
X658667Y683352D02*
X664649D01*
X658815Y682902D02*
X664649D01*
X658846Y682452D02*
X664649D01*
X658765Y682002D02*
X664649D01*
X658554Y681552D02*
X664649D01*
X658146Y681102D02*
X664649D01*
X654152Y680652D02*
X664649D01*
X663970Y686952D02*
X664643D01*
X641149Y706302D02*
X664621D01*
X654301Y680202D02*
X664598D01*
X655895Y706752D02*
X663848D01*
X657012Y707202D02*
X663442D01*
X658866Y709452D02*
X663412D01*
X658235Y709002D02*
X663333D01*
X657389Y707652D02*
X663233D01*
X657649Y708552D02*
X663184D01*
X657582Y708102D02*
X663153D01*
X659169Y709902D02*
X662965D01*
X639751Y686952D02*
X662518D01*
X659317Y710352D02*
X662515D01*
X659347Y710802D02*
X662065D01*
X640201Y687402D02*
X661882D01*
X643270Y689652D02*
X661679D01*
X640651Y687852D02*
X661577D01*
X659266Y711252D02*
X661548D01*
X641149Y689202D02*
X661477D01*
X641101Y688302D02*
X661428D01*
X641149Y688752D02*
X661397D01*
X659055Y711702D02*
X661142D01*
X658646Y712152D02*
X660715D01*
X647823Y712602D02*
X660265D01*
X632149Y677052D02*
X660224D01*
X632149Y676602D02*
X659997D01*
X647383Y713052D02*
X659815D01*
X653120Y693252D02*
X659648D01*
X632149Y676152D02*
X659547D01*
X644272Y690102D02*
X659427D01*
X639464Y713502D02*
X659365D01*
X632149Y675702D02*
X659097D01*
X652973Y692802D02*
X659085D01*
X644642Y690552D02*
X658981D01*
X638885Y713952D02*
X658915D01*
X652671Y692352D02*
X658804D01*
X644832Y691002D02*
X658752D01*
X652044Y691902D02*
X658672D01*
X644897Y691452D02*
X658656D01*
X632149Y675252D02*
X658647D01*
X638435Y714402D02*
X658465D01*
X637985Y714852D02*
X658015D01*
X632149Y674802D02*
X657648D01*
X637535Y715302D02*
X657565D01*
X632149Y672102D02*
X657434D01*
X632149Y674352D02*
X657241D01*
X632149Y672552D02*
X657131D01*
X637085Y715752D02*
X657115D01*
X632149Y673902D02*
X657032D01*
X632149Y673002D02*
X656982D01*
X632149Y673452D02*
X656951D01*
X636635Y716202D02*
X656665D01*
X648049Y712152D02*
X656354D01*
X654631Y684252D02*
X656266D01*
X636185Y716652D02*
X656215D01*
X648143Y711702D02*
X655945D01*
X655046Y681102D02*
X655851D01*
X635735Y717102D02*
X655765D01*
X648124Y711252D02*
X655734D01*
X641149Y706752D02*
X655705D01*
X647989Y710802D02*
X655653D01*
X655264Y683802D02*
X655634D01*
X643741Y717552D02*
X655315D01*
X647706Y710352D02*
X655207D01*
X644310Y718002D02*
X654865D01*
X641149Y707202D02*
X654588D01*
X647133Y709902D02*
X654486D01*
X644592Y718452D02*
X654415D01*
X641149Y707652D02*
X654211D01*
X641149Y709452D02*
X654158D01*
X641149Y708102D02*
X654018D01*
X641149Y709002D02*
X653994D01*
X644726Y718902D02*
X653965D01*
X641149Y708552D02*
X653951D01*
X644744Y719352D02*
X653515D01*
X647867Y684252D02*
X653166D01*
X644649Y719802D02*
X653065D01*
X632149Y677502D02*
X652917D01*
X647820Y720252D02*
X652615D01*
X648038Y683802D02*
X652534D01*
X632149Y677952D02*
X652449D01*
X648089Y683352D02*
X652230D01*
X648662Y720702D02*
X652165D01*
X648028Y682902D02*
X652082D01*
X632149Y678402D02*
X651999D01*
X649014Y721152D02*
X651715D01*
X632149Y678852D02*
X651549D01*
X649193Y721602D02*
X651265D01*
X649249Y722052D02*
X650815D01*
X647844Y682452D02*
X650668D01*
X632155Y679302D02*
X650591D01*
X644850Y691902D02*
X650560D01*
X649193Y722502D02*
X650365D01*
X648063Y695052D02*
X650160D01*
X647482Y682002D02*
X650148D01*
X632598Y679752D02*
X650112D01*
X644683Y692352D02*
X649933D01*
X649016Y722952D02*
X649915D01*
X646568Y681552D02*
X649886D01*
X640195Y680202D02*
X649867D01*
X641241Y681102D02*
X649765D01*
X640914Y680652D02*
X649760D01*
X647871Y694602D02*
X649749D01*
X644350Y692802D02*
X649631D01*
X647496Y694152D02*
X649537D01*
X643606Y693252D02*
X649484D01*
X648665Y723402D02*
X649465D01*
X646422Y693702D02*
X649455D01*
X648241Y699552D02*
X649359D01*
X648479Y702702D02*
X649121D01*
X647831Y723852D02*
X649015D01*
X635564Y724302D02*
X648565D01*
X634931Y724752D02*
X648115D01*
X634149Y725202D02*
X647665D01*
X634149Y725652D02*
X647215D01*
X644422Y720252D02*
X646977D01*
X635867Y723852D02*
X646966D01*
X634149Y726102D02*
X646765D01*
X641149Y699552D02*
X646559D01*
X642931Y702702D02*
X646321D01*
X634149Y726552D02*
X646315D01*
X641149Y693702D02*
X646138D01*
X643979Y720702D02*
X646135D01*
X636015Y723402D02*
X646132D01*
X641149Y700002D02*
X645990D01*
X641405Y681552D02*
X645910D01*
X642811Y702252D02*
X645878D01*
X634149Y727002D02*
X645865D01*
X641749Y721152D02*
X645783D01*
X640331Y722952D02*
X645782D01*
X637951Y685152D02*
X645733D01*
X641149Y700452D02*
X645708D01*
X641149Y697302D02*
X645696D01*
X642547Y701802D02*
X645651D01*
X641693Y721602D02*
X645604D01*
X641165Y722502D02*
X645604D01*
X641150Y700902D02*
X645574D01*
X642025Y701352D02*
X645556D01*
X641516Y722052D02*
X645549D01*
X641149Y709902D02*
X645465D01*
X634149Y727452D02*
X645415D01*
X639785Y713052D02*
X645214D01*
X641149Y694152D02*
X645064D01*
X641448Y682002D02*
X644996D01*
X641149Y696852D02*
X644969D01*
X634149Y727902D02*
X644965D01*
X637501Y684702D02*
X644952D01*
X641149Y710352D02*
X644892D01*
X640235Y712602D02*
X644775D01*
X641149Y694602D02*
X644689D01*
X641149Y696402D02*
X644640D01*
X641380Y682452D02*
X644634D01*
X637051Y684252D02*
X644611D01*
X641149Y710802D02*
X644608D01*
X640672Y712152D02*
X644548D01*
X634149Y728352D02*
X644515D01*
X641149Y695052D02*
X644497D01*
X641149Y695952D02*
X644475D01*
X641149Y711252D02*
X644473D01*
X641003Y711702D02*
X644455D01*
X641187Y682902D02*
X644450D01*
X639669Y683802D02*
X644440D01*
X641149Y695502D02*
X644431D01*
X640810Y683352D02*
X644389D01*
X634149Y728802D02*
X644090D01*
X634149Y729252D02*
X643746D01*
X625561Y748602D02*
X643649D01*
X624925Y748152D02*
X643649D01*
X641403Y747702D02*
X643649D01*
X642116Y747252D02*
X643649D01*
X642442Y746802D02*
X643649D01*
X642605Y746352D02*
X643649D01*
X642648Y745902D02*
X643649D01*
X642579Y745452D02*
X643649D01*
X642385Y745002D02*
X643649D01*
X642006Y744552D02*
X643649D01*
X613931Y744102D02*
X643649D01*
X613791Y743652D02*
X643649D01*
X613589Y743202D02*
X643649D01*
X613315Y742752D02*
X643649D01*
X634869Y742302D02*
X643649D01*
X636010Y741852D02*
X643649D01*
X642795Y736902D02*
X643649D01*
X634149Y736452D02*
X643649D01*
X634149Y736002D02*
X643649D01*
X634149Y735552D02*
X643649D01*
X634149Y735102D02*
X643649D01*
X634149Y734652D02*
X643649D01*
X634149Y734202D02*
X643649D01*
X634149Y733752D02*
X643649D01*
X634149Y733302D02*
X643649D01*
X634149Y732852D02*
X643649D01*
X634149Y732402D02*
X643649D01*
X634149Y731952D02*
X643649D01*
X634149Y731502D02*
X643649D01*
X634149Y731052D02*
X643649D01*
X634149Y730602D02*
X643649D01*
X634149Y730152D02*
X643649D01*
X634149Y729702D02*
X643649D01*
X642920Y749052D02*
X643629D01*
X636387Y741402D02*
X643555D01*
X636580Y740952D02*
X643392D01*
X642269Y740502D02*
X643344D01*
X628911Y753102D02*
X642933D01*
X641149Y689652D02*
X642824D01*
X620844Y753552D02*
X642583D01*
X641149Y693252D02*
X642488D01*
X620825Y754002D02*
X642404D01*
X620406Y754902D02*
X642404D01*
X620690Y754452D02*
X642349D01*
X636648Y740502D02*
X642128D01*
X625866Y749052D02*
X642077D01*
X629387Y752652D02*
X642066D01*
X635285Y717552D02*
X642059D01*
X641149Y690102D02*
X641822D01*
X641149Y692802D02*
X641744D01*
X634149Y736902D02*
X641602D01*
X634835Y718002D02*
X641490D01*
X626015Y749502D02*
X641235D01*
X629631Y752202D02*
X641232D01*
X634385Y718452D02*
X641208D01*
X634149Y718902D02*
X641074D01*
X640320Y719352D02*
X641032D01*
X636605Y740052D02*
X640988D01*
X634149Y737352D02*
X640884D01*
X628825Y749952D02*
X640883D01*
X629738Y751752D02*
X640882D01*
X629347Y750402D02*
X640704D01*
X629731Y751302D02*
X640704D01*
X632149Y671652D02*
X640649D01*
X632149Y671202D02*
X640649D01*
X632149Y670752D02*
X640649D01*
X632149Y670302D02*
X640649D01*
X632149Y669852D02*
X640649D01*
X632149Y669402D02*
X640649D01*
X632149Y668952D02*
X640649D01*
X632149Y668502D02*
X640649D01*
X632149Y668052D02*
X640649D01*
X632149Y667602D02*
X640649D01*
X632149Y667152D02*
X640649D01*
X632149Y666702D02*
X640649D01*
X632149Y666252D02*
X640649D01*
X632149Y665802D02*
X640649D01*
X632149Y665352D02*
X640649D01*
X632149Y664902D02*
X640649D01*
X633830Y664452D02*
X640649D01*
X634349Y664002D02*
X640649D01*
X634612Y663552D02*
X640649D01*
X634732Y663102D02*
X640649D01*
X634738Y662652D02*
X640649D01*
X634630Y662202D02*
X640649D01*
X634385Y661752D02*
X640649D01*
X633907Y661302D02*
X640649D01*
X632152Y660852D02*
X640649D01*
X632149Y660402D02*
X640649D01*
X632149Y659952D02*
X640649D01*
X632149Y659502D02*
X640649D01*
X632149Y659052D02*
X640649D01*
X632149Y658602D02*
X640649D01*
X632149Y658152D02*
X640649D01*
X632149Y657702D02*
X640649D01*
X632149Y657252D02*
X640649D01*
X632149Y656802D02*
X640649D01*
X632149Y656352D02*
X640649D01*
X632149Y655902D02*
X640649D01*
X632149Y655452D02*
X640649D01*
X632149Y655002D02*
X640649D01*
X632149Y654552D02*
X640649D01*
X632149Y654102D02*
X640649D01*
X632149Y653652D02*
X640649D01*
X632149Y653202D02*
X640649D01*
X632149Y652752D02*
X640649D01*
X632149Y652302D02*
X640649D01*
X632149Y651852D02*
X640649D01*
X632149Y651402D02*
X640649D01*
X632149Y650952D02*
X640649D01*
X632149Y650502D02*
X640649D01*
X632149Y650052D02*
X640649D01*
X632149Y649602D02*
X640649D01*
X632149Y649152D02*
X640649D01*
X629611Y750852D02*
X640649D01*
X636441Y739602D02*
X640610D01*
X634149Y737802D02*
X640556D01*
X636114Y739152D02*
X640417D01*
X634149Y738252D02*
X640393D01*
X635395Y738702D02*
X640349D01*
X613085Y747702D02*
X640195D01*
X614016Y744552D02*
X639591D01*
X636601Y683802D02*
X639528D01*
X613417Y747252D02*
X639481D01*
X634149Y719352D02*
X639477D01*
X636046Y722952D02*
X639466D01*
X614049Y745002D02*
X639212D01*
X613665Y746802D02*
X639155D01*
X614033Y745452D02*
X639018D01*
X633329Y680202D02*
X639002D01*
X613845Y746352D02*
X638992D01*
X613965Y745902D02*
X638949D01*
X634149Y719802D02*
X638635D01*
X635965Y722502D02*
X638632D01*
X636151Y683352D02*
X638388D01*
X633659Y680652D02*
X638284D01*
X634149Y720252D02*
X638283D01*
X635754Y722052D02*
X638282D01*
X634149Y720702D02*
X638104D01*
X635346Y721602D02*
X638104D01*
X634235Y721152D02*
X638049D01*
X635701Y682902D02*
X638010D01*
X633901Y681102D02*
X637956D01*
X635251Y682452D02*
X637817D01*
X634351Y681552D02*
X637793D01*
X634801Y682002D02*
X637749D01*
X612949Y742302D02*
X634728D01*
X618531Y741852D02*
X633588D01*
X626046Y749952D02*
X626972D01*
X620751Y753102D02*
X626887D01*
X626077Y750402D02*
X626450D01*
X620525Y752652D02*
X626410D01*
X620274Y752202D02*
X626166D01*
X625349Y751302D02*
X626066D01*
X621330Y751752D02*
X626059D01*
X612637Y748152D02*
X623472D01*
X621849Y751302D02*
X623048D01*
X621407Y748602D02*
X622836D01*
X601750Y838152D02*
X622649D01*
X601750Y837702D02*
X622649D01*
X601750Y837252D02*
X622649D01*
X601750Y836802D02*
X622649D01*
X601750Y836352D02*
X622649D01*
X601750Y835902D02*
X622649D01*
X601750Y835452D02*
X622649D01*
X601750Y835002D02*
X622649D01*
X601750Y834552D02*
X622649D01*
X601750Y834102D02*
X622649D01*
X601750Y833652D02*
X622649D01*
X601750Y833202D02*
X622649D01*
X601750Y832752D02*
X622649D01*
X601750Y832302D02*
X622649D01*
X601750Y831852D02*
X622649D01*
X601750Y831402D02*
X622649D01*
X601750Y830952D02*
X622649D01*
X601750Y830502D02*
X622649D01*
X601750Y830052D02*
X622649D01*
X601750Y829602D02*
X622649D01*
X601750Y829152D02*
X622649D01*
X601750Y828702D02*
X622649D01*
X601750Y828252D02*
X622649D01*
X601750Y827802D02*
X622649D01*
X601750Y827352D02*
X622649D01*
X601750Y826902D02*
X622649D01*
X601750Y826452D02*
X622649D01*
X601750Y826002D02*
X622649D01*
X601750Y825552D02*
X622649D01*
X601750Y825102D02*
X622649D01*
X601750Y824652D02*
X622649D01*
X601750Y824202D02*
X622649D01*
X601750Y823752D02*
X622649D01*
X601750Y823302D02*
X622649D01*
X601750Y822852D02*
X622649D01*
X601750Y822402D02*
X622649D01*
X601750Y821952D02*
X622649D01*
X601750Y821502D02*
X622649D01*
X601750Y821052D02*
X622649D01*
X601750Y820602D02*
X622649D01*
X601750Y820152D02*
X622649D01*
X601750Y819702D02*
X622649D01*
X601750Y819252D02*
X622649D01*
X611593Y818802D02*
X622649D01*
X612384Y818352D02*
X622649D01*
X612903Y817902D02*
X622649D01*
X613282Y817452D02*
X622649D01*
X613564Y817002D02*
X622649D01*
X613772Y816552D02*
X622649D01*
X613919Y816102D02*
X622649D01*
X614009Y815652D02*
X622649D01*
X614048Y815202D02*
X622649D01*
X614037Y814752D02*
X622649D01*
X613975Y814302D02*
X622649D01*
X613860Y813852D02*
X622649D01*
X613687Y813402D02*
X622649D01*
X613447Y812952D02*
X622649D01*
X613125Y812502D02*
X622649D01*
X612691Y812052D02*
X622649D01*
X612078Y811602D02*
X622649D01*
X610993Y811152D02*
X622649D01*
X601750Y810702D02*
X622649D01*
X601750Y810252D02*
X622649D01*
X601750Y809802D02*
X622649D01*
X601750Y809352D02*
X622649D01*
X611335Y808902D02*
X622649D01*
X612241Y808452D02*
X622649D01*
X612803Y808002D02*
X622649D01*
X613207Y807552D02*
X622649D01*
X613508Y807102D02*
X622649D01*
X613732Y806652D02*
X622649D01*
X613891Y806202D02*
X622649D01*
X613994Y805752D02*
X622649D01*
X614044Y805302D02*
X622649D01*
X614044Y804852D02*
X622649D01*
X613993Y804402D02*
X622649D01*
X613890Y803952D02*
X622649D01*
X613731Y803502D02*
X622649D01*
X613507Y803052D02*
X622649D01*
X613205Y802602D02*
X622649D01*
X612800Y802152D02*
X622649D01*
X612237Y801702D02*
X622649D01*
X611327Y801252D02*
X622649D01*
X601750Y800802D02*
X622649D01*
X601750Y800352D02*
X622649D01*
X601750Y799902D02*
X622649D01*
X601750Y799452D02*
X622649D01*
X611004Y799002D02*
X622649D01*
X612082Y798552D02*
X622649D01*
X612694Y798102D02*
X622649D01*
X613127Y797652D02*
X622649D01*
X613449Y797202D02*
X622649D01*
X613688Y796752D02*
X622649D01*
X613861Y796302D02*
X622649D01*
X613975Y795852D02*
X622649D01*
X614037Y795402D02*
X622649D01*
X614048Y794952D02*
X622649D01*
X614009Y794502D02*
X622649D01*
X613918Y794052D02*
X622649D01*
X613771Y793602D02*
X622649D01*
X613563Y793152D02*
X622649D01*
X613280Y792702D02*
X622649D01*
X621930Y792252D02*
X622649D01*
X611906Y788652D02*
X622649D01*
X612578Y788202D02*
X622649D01*
X613042Y787752D02*
X622649D01*
X613385Y787302D02*
X622649D01*
X613641Y786852D02*
X622649D01*
X613828Y786402D02*
X622649D01*
X613955Y785952D02*
X622649D01*
X614028Y785502D02*
X622649D01*
X614050Y785052D02*
X622649D01*
X614022Y784602D02*
X622649D01*
X613943Y784152D02*
X622649D01*
X621549Y783702D02*
X622649D01*
X621956Y783252D02*
X622649D01*
X622066Y781452D02*
X622649D01*
X621761Y781002D02*
X622649D01*
X621125Y780552D02*
X622649D01*
X601750Y780102D02*
X622649D01*
X601750Y779652D02*
X622649D01*
X601750Y779202D02*
X622649D01*
X611705Y778752D02*
X622649D01*
X612452Y778302D02*
X622649D01*
X612951Y777852D02*
X622649D01*
X613317Y777402D02*
X622649D01*
X613591Y776952D02*
X622649D01*
X613416Y772902D02*
X622649D01*
X613083Y772452D02*
X622649D01*
X612634Y772002D02*
X622649D01*
X611992Y771552D02*
X622649D01*
X610769Y771102D02*
X622649D01*
X601750Y770652D02*
X622649D01*
X601750Y770202D02*
X622649D01*
X601750Y769752D02*
X622649D01*
X601750Y769302D02*
X622649D01*
X621131Y768852D02*
X622649D01*
X621764Y768402D02*
X622649D01*
X622067Y767952D02*
X622649D01*
X621954Y766152D02*
X622649D01*
X621546Y765702D02*
X622649D01*
X619010Y765252D02*
X622649D01*
X619387Y764802D02*
X622649D01*
X619580Y764352D02*
X622649D01*
X619648Y763902D02*
X622649D01*
X619605Y763452D02*
X622649D01*
X619441Y763002D02*
X622649D01*
X619114Y762552D02*
X622649D01*
X618395Y762102D02*
X622649D01*
X611182Y758952D02*
X622649D01*
X612164Y758502D02*
X622649D01*
X612750Y758052D02*
X622649D01*
X613168Y757602D02*
X622649D01*
X613479Y757152D02*
X622649D01*
X613710Y756702D02*
X622649D01*
X613876Y756252D02*
X622649D01*
X613985Y755802D02*
X622649D01*
X619832Y755352D02*
X622649D01*
X622007Y789102D02*
X622648D01*
X622112Y750852D02*
X622641D01*
X613792Y776502D02*
X622637D01*
X601750Y759402D02*
X622635D01*
X622165Y766602D02*
X622632D01*
X622166Y782802D02*
X622631D01*
X612159Y761652D02*
X622610D01*
X621885Y749052D02*
X622531D01*
X613664Y773352D02*
X622518D01*
X601750Y759852D02*
X622387D01*
X611173Y761202D02*
X622366D01*
X601750Y760302D02*
X622266D01*
X601750Y760752D02*
X622259D01*
X613931Y776052D02*
X622189D01*
X613844Y773802D02*
X622076D01*
X614016Y775602D02*
X621907D01*
X613965Y774252D02*
X621849D01*
X614049Y775152D02*
X621773D01*
X614033Y774702D02*
X621755D01*
X612901Y792252D02*
X620068D01*
X610461Y789102D02*
X619991D01*
X601750Y780552D02*
X619672D01*
X611470Y768852D02*
X619666D01*
X612381Y791802D02*
X619548D01*
X601750Y789552D02*
X619512D01*
X611997Y748602D02*
X619391D01*
X611587Y791352D02*
X619286D01*
X601750Y790002D02*
X619267D01*
X617869Y765702D02*
X619251D01*
X613809Y783702D02*
X619248D01*
X601750Y790902D02*
X619165D01*
X601750Y790452D02*
X619160D01*
X612310Y751752D02*
X619080D01*
X601750Y781002D02*
X619036D01*
X612314Y768402D02*
X619034D01*
X611464Y751302D02*
X618948D01*
X610783Y749052D02*
X618912D01*
X613905Y766152D02*
X618843D01*
X613615Y783252D02*
X618841D01*
X611803Y781452D02*
X618731D01*
X612854Y767952D02*
X618730D01*
X601750Y750852D02*
X618686D01*
X601750Y749502D02*
X618667D01*
X613752Y766602D02*
X618633D01*
X613350Y782802D02*
X618632D01*
X612513Y781902D02*
X618582D01*
X613245Y767502D02*
X618582D01*
X601750Y750402D02*
X618565D01*
X601750Y749952D02*
X618560D01*
X613537Y767052D02*
X618551D01*
X612995Y782352D02*
X618551D01*
X614041Y755352D02*
X618168D01*
X612851Y752202D02*
X617914D01*
X614002Y765702D02*
X617728D01*
X614046Y754902D02*
X617594D01*
X613243Y752652D02*
X617475D01*
X614001Y754452D02*
X617310D01*
X613535Y753102D02*
X617249D01*
X612747Y762102D02*
X617202D01*
X613904Y754002D02*
X617175D01*
X613751Y753552D02*
X617156D01*
X612725Y741852D02*
X617066D01*
X614046Y765252D02*
X616588D01*
X613166Y762552D02*
X616484D01*
X614041Y764802D02*
X616210D01*
X613477Y763002D02*
X616156D01*
X613984Y764352D02*
X616017D01*
X613709Y763452D02*
X615993D01*
X613875Y763902D02*
X615949D01*
X601750Y789102D02*
X609539D01*
X601750Y771102D02*
X609231D01*
X601750Y749052D02*
X609217D01*
X601750Y811152D02*
X609007D01*
X601750Y799002D02*
X608996D01*
X601750Y761202D02*
X608827D01*
X601750Y758952D02*
X608818D01*
X601750Y801252D02*
X608673D01*
X601750Y808902D02*
X608665D01*
X601752Y751302D02*
X608536D01*
X601752Y768852D02*
X608530D01*
X601763Y791352D02*
X608413D01*
X601764Y818802D02*
X608407D01*
X601788Y778752D02*
X608295D01*
X601827Y781452D02*
X608197D01*
X601906Y788652D02*
X608094D01*
X601992Y771552D02*
X608008D01*
X601997Y748602D02*
X608003D01*
X602078Y811602D02*
X607922D01*
X602082Y798552D02*
X607918D01*
X602159Y761652D02*
X607841D01*
X602164Y758502D02*
X607836D01*
X602237Y801702D02*
X607763D01*
X602241Y808452D02*
X607759D01*
X602310Y751752D02*
X607690D01*
X602314Y768402D02*
X607686D01*
X602381Y791802D02*
X607619D01*
X602384Y818352D02*
X607616D01*
X602452Y778302D02*
X607548D01*
X602513Y781902D02*
X607487D01*
X602578Y788202D02*
X607422D01*
X602634Y772002D02*
X607366D01*
X602637Y748152D02*
X607363D01*
X602691Y812052D02*
X607309D01*
X602694Y798102D02*
X607306D01*
X602725Y741852D02*
X607275D01*
X602747Y762102D02*
X607253D01*
X602750Y758052D02*
X607250D01*
X602800Y802152D02*
X607200D01*
X602803Y808002D02*
X607197D01*
X602851Y752202D02*
X607149D01*
X602854Y767952D02*
X607146D01*
X602901Y792252D02*
X607099D01*
X602903Y817902D02*
X607097D01*
X602949Y742302D02*
X607051D01*
X602951Y777852D02*
X607049D01*
X602995Y782352D02*
X607005D01*
X603042Y787752D02*
X606958D01*
X603083Y772452D02*
X606917D01*
X603085Y747702D02*
X606915D01*
X603125Y812502D02*
X606875D01*
X603127Y797652D02*
X606873D01*
X603166Y762552D02*
X606834D01*
X603168Y757602D02*
X606832D01*
X603205Y802602D02*
X606795D01*
X603207Y807552D02*
X606793D01*
X603243Y752652D02*
X606757D01*
X603245Y767502D02*
X606755D01*
X603280Y792702D02*
X606720D01*
X603282Y817452D02*
X606718D01*
X603315Y742752D02*
X606685D01*
X603317Y777402D02*
X606683D01*
X603350Y782802D02*
X606650D01*
X603385Y787302D02*
X606615D01*
X603416Y772902D02*
X606584D01*
X603417Y747252D02*
X606583D01*
X603447Y812952D02*
X606553D01*
X603449Y797202D02*
X606551D01*
X603477Y763002D02*
X606523D01*
X603479Y757152D02*
X606521D01*
X603507Y803052D02*
X606493D01*
X603508Y807102D02*
X606492D01*
X603535Y753102D02*
X606465D01*
X603537Y767052D02*
X606463D01*
X603563Y793152D02*
X606437D01*
X603564Y817002D02*
X606436D01*
X603589Y743202D02*
X606411D01*
X603591Y776952D02*
X606409D01*
X603615Y783252D02*
X606385D01*
X603641Y786852D02*
X606359D01*
X603664Y773352D02*
X606336D01*
X603665Y746802D02*
X606335D01*
X603687Y813402D02*
X606313D01*
X603688Y796752D02*
X606312D01*
X603709Y763452D02*
X606291D01*
X603710Y756702D02*
X606290D01*
X603731Y803502D02*
X606269D01*
X603732Y806652D02*
X606268D01*
X603751Y753552D02*
X606249D01*
X603752Y766602D02*
X606248D01*
X603771Y793602D02*
X606229D01*
X603772Y816552D02*
X606228D01*
X603791Y743652D02*
X606209D01*
X603792Y776502D02*
X606208D01*
X603809Y783702D02*
X606191D01*
X603828Y786402D02*
X606172D01*
X603844Y773802D02*
X606156D01*
X603845Y746352D02*
X606155D01*
X603860Y813852D02*
X606140D01*
X603861Y796302D02*
X606139D01*
X603875Y763902D02*
X606125D01*
X603876Y756252D02*
X606124D01*
X603890Y803952D02*
X606110D01*
X603891Y806202D02*
X606109D01*
X603904Y754002D02*
X606096D01*
X603905Y766152D02*
X606095D01*
X603918Y794052D02*
X606082D01*
X603919Y816102D02*
X606081D01*
X603931Y744102D02*
X606069D01*
X603931Y776052D02*
X606069D01*
X603943Y784152D02*
X606057D01*
X603955Y785952D02*
X606045D01*
X603965Y774252D02*
X606035D01*
X603965Y745902D02*
X606035D01*
X603975Y814302D02*
X606025D01*
X603975Y795852D02*
X606025D01*
X603984Y764352D02*
X606016D01*
X603985Y755802D02*
X606015D01*
X603993Y804402D02*
X606007D01*
X603994Y805752D02*
X606006D01*
X604001Y754452D02*
X605999D01*
X604002Y765702D02*
X605998D01*
X604009Y794502D02*
X605991D01*
X604009Y815652D02*
X605991D01*
X604016Y744552D02*
X605984D01*
X604016Y775602D02*
X605984D01*
X604022Y784602D02*
X605978D01*
X604028Y785502D02*
X605972D01*
X604032Y774702D02*
X605967D01*
X604033Y745452D02*
X605967D01*
X604037Y814752D02*
X605963D01*
X604037Y795402D02*
X605963D01*
X604041Y764802D02*
X605959D01*
X604041Y755352D02*
X605959D01*
X604044Y804852D02*
X605956D01*
X604044Y805302D02*
X605956D01*
X604046Y754902D02*
X605954D01*
X604046Y765252D02*
X605954D01*
X604048Y794952D02*
X605952D01*
X604048Y815202D02*
X605952D01*
X604049Y745002D02*
X605951D01*
X604049Y775152D02*
X605951D01*
X604050Y785052D02*
X605950D01*
G54D48*
X679699Y691254D02*
X678480Y692472D01*
Y694088*
X685999Y692054D02*
Y700923D01*
X681899Y691854D02*
Y692233D01*
X681849Y692283*
X683980Y689742D02*
X685999Y691761D01*
Y692054*
X687598Y684926D02*
X693571D01*
X694699Y686054*
X685999Y700923D02*
X683157Y703765D01*
X714770Y797801D02*
X714169Y797200D01*
X709325Y797801D02*
X709926Y797200D01*
X709325Y792356D02*
X709926Y792957D01*
X714770Y792356D02*
X714169Y792957D01*
X714770Y717801D02*
X714169Y717200D01*
X709325Y717801D02*
X709926Y717200D01*
X709325Y712356D02*
X709926Y712957D01*
X714770Y712356D02*
X714169Y712957D01*
X714770Y657801D02*
X714169Y657200D01*
X709325Y657801D02*
X709926Y657200D01*
X709325Y652356D02*
X709926Y652957D01*
X714770Y652356D02*
X714169Y652957D01*
X714770Y627801D02*
X714169Y627200D01*
X709325Y627801D02*
X709926Y627200D01*
X709325Y622356D02*
X709926Y622957D01*
X714770Y622356D02*
X714169Y622957D01*
X612722Y647801D02*
X612121Y647200D01*
X607278Y647801D02*
X607879Y647200D01*
X607278Y642356D02*
X607879Y642957D01*
X612722Y642356D02*
X612121Y642957D01*
X612722Y697801D02*
X612121Y697200D01*
X607278Y697801D02*
X607879Y697200D01*
X607278Y692356D02*
X607879Y692957D01*
X612722Y692356D02*
X612121Y692957D01*
X612722Y737801D02*
X612121Y737200D01*
X607278Y737801D02*
X607879Y737200D01*
X607278Y732356D02*
X607879Y732957D01*
X612722Y732356D02*
X612121Y732957D01*
X665978Y635658D02*
X666579Y636259D01*
X668294Y635658D02*
X667693Y636259D01*
X668294Y637974D02*
X667693Y637373D01*
X665978Y637974D02*
X666579Y637373D01*
X669521Y635658D02*
X670122Y636259D01*
X671837Y635658D02*
X671236Y636259D01*
X671837Y637974D02*
X671236Y637373D01*
X669521Y637974D02*
X670122Y637373D01*
X669521Y630934D02*
X670122Y631535D01*
X671837Y630934D02*
X671236Y631535D01*
X671837Y633249D02*
X671236Y632648D01*
X669521Y633249D02*
X670122Y632648D01*
X657710Y630934D02*
X658311Y631535D01*
X660026Y630934D02*
X659425Y631535D01*
X660026Y633249D02*
X659425Y632648D01*
X657710Y633249D02*
X658311Y632648D01*
X661254Y630934D02*
X661855Y631535D01*
X663569Y630934D02*
X662968Y631535D01*
X663569Y633249D02*
X662968Y632648D01*
X661254Y633249D02*
X661855Y632648D01*
X661254Y639201D02*
X661855Y639802D01*
X663569Y639201D02*
X662968Y639802D01*
X663569Y641517D02*
X662968Y640916D01*
X661254Y641517D02*
X661855Y640916D01*
X665978Y630934D02*
X666579Y631535D01*
X668294Y630934D02*
X667693Y631535D01*
X668294Y633249D02*
X667693Y632648D01*
X665978Y633249D02*
X666579Y632648D01*
X661254Y627390D02*
X661855Y627991D01*
X663569Y627390D02*
X662968Y627991D01*
X663569Y629706D02*
X662968Y629105D01*
X661254Y629706D02*
X661855Y629105D01*
X661254Y635658D02*
X661855Y636259D01*
X663569Y635658D02*
X662968Y636259D01*
X663569Y637974D02*
X662968Y637373D01*
X661254Y637974D02*
X661855Y637373D01*
X657710Y635658D02*
X658311Y636259D01*
X660026Y635658D02*
X659425Y636259D01*
X660026Y637974D02*
X659425Y637373D01*
X657710Y637974D02*
X658311Y637373D01*
X665978Y627390D02*
X666579Y627991D01*
X668294Y627390D02*
X667693Y627991D01*
X668294Y629706D02*
X667693Y629105D01*
X665978Y629706D02*
X666579Y629105D01*
X665978Y639201D02*
X666579Y639802D01*
X668294Y639201D02*
X667693Y639802D01*
X668294Y641517D02*
X667693Y640916D01*
X665978Y641517D02*
X666579Y640916D01*
X612864Y787943D02*
X612121Y787200D01*
X607136Y787943D02*
X607879Y787200D01*
X607136Y782215D02*
X607879Y782957D01*
X612864Y782215D02*
X612121Y782957D01*
X612864Y817943D02*
X612121Y817200D01*
X607136Y817943D02*
X607879Y817200D01*
X607136Y812215D02*
X607879Y812957D01*
X612864Y812215D02*
X612121Y812957D01*
G54D91*
X662411Y628548D03*
X667136D03*
Y632092D03*
X662411D03*
X670679D03*
X658868D03*
X670679Y636816D03*
X667136D03*
X662411D03*
X658868D03*
X662411Y640359D03*
X667136D03*
G54D120*
X600000Y815079D03*
Y805079D03*
Y795079D03*
Y785079D03*
Y775079D03*
Y765079D03*
Y755079D03*
Y745079D03*
Y735079D03*
Y725079D03*
Y715079D03*
Y705079D03*
Y695079D03*
Y685079D03*
Y675079D03*
Y665079D03*
Y655079D03*
Y645079D03*
Y635079D03*
Y625079D03*
X722047D03*
Y635079D03*
Y645079D03*
Y655079D03*
Y665079D03*
Y675079D03*
Y685079D03*
Y695079D03*
Y705079D03*
Y715079D03*
Y725079D03*
Y735079D03*
Y745079D03*
Y755079D03*
Y765079D03*
Y775079D03*
Y785079D03*
Y795079D03*
Y805079D03*
Y815079D03*
X610000D03*
Y805079D03*
Y795079D03*
Y785079D03*
Y775079D03*
Y765079D03*
Y755079D03*
Y745079D03*
Y735079D03*
Y725079D03*
Y715079D03*
Y705079D03*
Y695079D03*
Y685079D03*
Y675079D03*
Y665079D03*
Y655079D03*
Y645079D03*
Y635079D03*
Y625079D03*
X712047D03*
Y635079D03*
Y645079D03*
Y655079D03*
Y665079D03*
Y675079D03*
Y685079D03*
Y695079D03*
Y705079D03*
Y715079D03*
Y725079D03*
Y735079D03*
Y745079D03*
Y755079D03*
Y765079D03*
Y775079D03*
Y785079D03*
Y795079D03*
Y805079D03*
Y815079D03*
G54D122*
G54D280*
X678031Y811419D03*
X644016D03*
G54D281*
X682756Y830514D03*
X639291D03*
G54D282*
X645197Y813388D03*
X676850D03*
G54D287*
X662199Y602554D03*
X684299Y603854D03*
X691199Y604054D03*
X603899Y607254D03*
X610699Y609254D03*
X613699Y606654D03*
X613799Y613254D03*
X632799Y611854D03*
X640399Y605154D03*
X648399Y607954D03*
Y610454D03*
X642799Y612154D03*
X650899Y610454D03*
Y607954D03*
X679699Y611654D03*
X675199Y613154D03*
X673399Y610154D03*
X679499Y608054D03*
X705399Y611454D03*
Y608454D03*
X702899Y611454D03*
Y608454D03*
X701499Y604554D03*
X604999Y616354D03*
X620199Y622554D03*
X630099Y620054D03*
X626199Y621954D03*
X658299Y621354D03*
X654399Y624454D03*
X668599Y619554D03*
X666199Y619854D03*
X661999Y618454D03*
X673399Y620054D03*
X682299Y623654D03*
X704599Y622554D03*
X620499Y632454D03*
X630599Y624954D03*
X626099Y633454D03*
X635999Y634354D03*
X640299Y624654D03*
X640499Y629454D03*
X638299Y632554D03*
X650699Y633554D03*
X651799Y626154D03*
X650799Y631354D03*
X676999Y625054D03*
X680799Y634254D03*
X682599Y626854D03*
X706799Y627854D03*
X704499D03*
X630199Y643954D03*
X627799Y635654D03*
X637104Y638748D03*
X635899Y636954D03*
X640399Y635054D03*
X642799Y641754D03*
X677999Y642254D03*
X683799Y640554D03*
X705499Y640254D03*
X703199Y642554D03*
X622099Y654054D03*
X629299Y650754D03*
X633299Y650254D03*
X648999Y653254D03*
X642799Y646754D03*
X643000Y653287D03*
X654399Y647454D03*
X659199D03*
X651199Y647254D03*
X662499Y653154D03*
X661499Y647454D03*
X664599Y647754D03*
X673499Y648954D03*
X671899Y647654D03*
X679199Y653154D03*
X679299Y650154D03*
X681999Y652754D03*
X707399Y648854D03*
X705299Y651854D03*
X625699Y662354D03*
X632899Y662854D03*
X642999Y659054D03*
X649899Y661154D03*
X659599Y659154D03*
X651600Y662300D03*
X652199Y659254D03*
X663299Y659754D03*
X665899D03*
X674399Y662554D03*
X673599Y658554D03*
X688499Y658654D03*
X658799Y673354D03*
X651600Y669600D03*
X670099Y673354D03*
X663100Y665200D03*
X663200Y669400D03*
X679399Y665354D03*
X674099Y674054D03*
X686699Y673954D03*
X682799Y665154D03*
X685899Y671954D03*
X692799Y670354D03*
X697499Y670154D03*
X693599Y664854D03*
X690799Y666054D03*
X701899Y670254D03*
X639599Y681954D03*
X632020Y681510D03*
X646239Y683373D03*
X651599Y680854D03*
X653899Y682554D03*
X656999D03*
X658299Y680654D03*
X660499Y680554D03*
X670044Y683654D03*
X673399Y683354D03*
X672099Y674554D03*
X672499Y681154D03*
X679799Y676854D03*
X679399Y674654D03*
X674399Y676454D03*
X683699Y675754D03*
X689699Y680754D03*
X681699Y674554D03*
X694367Y680060D03*
X693799Y675754D03*
X701799Y680854D03*
X629599Y687254D03*
X629699Y692654D03*
X643047Y691489D03*
X651302Y693597D03*
X660499Y691610D03*
X663244Y688654D03*
X670099Y686054D03*
X660799Y688554D03*
Y685353D03*
X675048Y694177D03*
X678480Y694088D03*
X674384Y691800D03*
X675973Y690235D03*
X689699Y688154D03*
X688000Y691400D03*
X691800Y690200D03*
X697099Y686054D03*
X694699D03*
X701999Y691254D03*
X701299Y685254D03*
X629699Y702054D03*
X621636Y702402D03*
X634989Y702373D03*
X635999Y699254D03*
X646280Y695547D03*
X650200Y701200D03*
X647400D03*
X641099Y702954D03*
X666792Y701221D03*
X671800Y697900D03*
X678313Y703653D03*
X671973Y700896D03*
X688300Y695400D03*
X683157Y703765D03*
X683800Y695000D03*
X693899Y695954D03*
X700599Y697054D03*
X691500Y697100D03*
X620995Y706802D03*
Y712153D03*
X632299Y712054D03*
X638099Y712254D03*
X646299Y711554D03*
X655800Y708600D03*
X657500Y710700D03*
X662700Y712700D03*
X665000Y708200D03*
X673078Y706885D03*
X672699Y712254D03*
X671478Y710133D03*
X621299Y718254D03*
X634199Y723054D03*
X639899Y721154D03*
X631299Y721654D03*
X647399Y722054D03*
X642900Y719200D03*
X657599Y723354D03*
X662599Y715254D03*
X662799Y717554D03*
X673399Y716454D03*
X672699Y714554D03*
X683100Y722500D03*
X688042Y722897D03*
X699400Y723400D03*
X693105Y723539D03*
X619399Y727754D03*
X624299Y727054D03*
X630799Y727354D03*
X646099Y730854D03*
X656199Y734054D03*
X652099Y731254D03*
X655999Y729154D03*
X669599Y729254D03*
Y733454D03*
X670300Y725300D03*
X678635Y730446D03*
X673334Y725579D03*
X675700Y725608D03*
X684388Y724690D03*
X685400Y728000D03*
X688000Y729000D03*
X690222Y731288D03*
X701236Y729006D03*
X617799Y740154D03*
X623799Y736854D03*
X626599Y737154D03*
X634799Y740454D03*
X639899Y735654D03*
X642199Y738654D03*
X645199Y740554D03*
X648199D03*
X646799Y742654D03*
X657299Y744154D03*
X662099Y744254D03*
X677688Y735458D03*
X673495Y735195D03*
X701236Y741448D03*
X620399Y750154D03*
X619000Y753700D03*
X627899Y751554D03*
X624199Y749854D03*
X644199Y754454D03*
X645599Y745954D03*
X642499Y750854D03*
X640799Y745954D03*
X645699Y750654D03*
X657899Y754454D03*
X670310Y744650D03*
X661899Y750454D03*
X665899Y754454D03*
Y750454D03*
X661899Y754454D03*
X669899Y750454D03*
Y754454D03*
X661013Y746514D03*
X675399Y748454D03*
X675699Y753254D03*
X687085Y748511D03*
X689199Y752854D03*
X692973Y749501D03*
X695199Y752254D03*
X617799Y763854D03*
X624099Y760554D03*
X634565Y758510D03*
X643799Y763054D03*
X641399Y760554D03*
X657899Y758454D03*
X652499Y764154D03*
X654199Y759354D03*
X651799Y756554D03*
X661899Y762454D03*
Y758454D03*
X669899D03*
X665899D03*
X673499Y760854D03*
X685099Y762754D03*
X689099Y763154D03*
X683099Y755354D03*
X682699Y758154D03*
X694199Y763754D03*
X700599Y762954D03*
X620399Y767154D03*
X626337Y767461D03*
X638095Y770592D03*
X645899Y765454D03*
X649099Y773154D03*
X641799Y771254D03*
X658299Y769354D03*
X665899Y769754D03*
X675399Y764854D03*
X674899Y767754D03*
X684299Y773254D03*
X687099Y766354D03*
X692499Y773454D03*
X698538Y773589D03*
X694689Y772378D03*
X701899Y770854D03*
X620399Y782254D03*
X625799Y779354D03*
X623599Y774854D03*
X635833Y782232D03*
X641699Y774954D03*
X657999Y777254D03*
X668799Y780154D03*
X674902Y779517D03*
X675216Y782270D03*
X680677Y782254D03*
X685099Y778554D03*
X683599Y782254D03*
X692899Y782454D03*
X701399Y783154D03*
X624799Y786654D03*
X620999Y790654D03*
X637299Y785354D03*
X645199Y791954D03*
X649299Y788954D03*
X654199Y788554D03*
X669799Y791354D03*
X668499Y789854D03*
X676799Y792754D03*
X677799Y789154D03*
X672999Y788854D03*
X689999Y786854D03*
X695499D03*
X699899Y793054D03*
X692799Y792854D03*
X697799D03*
X701299Y785454D03*
X702099Y793154D03*
X701299Y787554D03*
X617100Y797200D03*
X620899Y800454D03*
X627599Y800754D03*
X638999Y800654D03*
X636599Y803654D03*
X632999Y796454D03*
X641999Y796754D03*
X648999Y794554D03*
X648899Y799454D03*
X655499Y803254D03*
X658399Y803554D03*
X652599Y803354D03*
X668199D03*
X676799Y801154D03*
X673799Y799454D03*
X671099Y802854D03*
X684899Y804454D03*
X691899Y796254D03*
X693099Y800054D03*
X695699Y802154D03*
X702799Y799954D03*
X619149Y810704D03*
X637899Y806954D03*
X635699Y809654D03*
X639899Y813354D03*
X640099Y809054D03*
X631599Y804554D03*
X653999Y805354D03*
X660522Y812077D03*
X659499Y805754D03*
X658599Y812754D03*
X650699Y812354D03*
Y805554D03*
X666899Y805854D03*
X661499Y805654D03*
X662546Y811992D03*
X672299Y812254D03*
X671399Y806054D03*
X684399Y813354D03*
X684599Y809054D03*
X695699Y812254D03*
X694899Y807754D03*
X703399Y809754D03*
X616649Y820704D03*
X688899Y818454D03*
X697899Y822454D03*
X694899Y818054D03*
X712899Y823454D03*
X615399Y831954D03*
X688899Y826454D03*
X694899D03*
X703899Y825454D03*
X606649Y835704D03*
X696899Y835454D03*
X717899D03*
G74*
X0Y0D02*
M02*
