M48
;FILE_FORMAT=2:4
INCH,LZ
FMAT,2
ICI,OFF
;TYPE=PLATED
T1C.00787
T2C.008
T3C.02362
T4C.035
%
M72
G90
G93X0Y0
T1C.00787F0S0
X066241Y062855
X066714Y062855
X066714Y063209
X066241Y063209
X067068Y063209
X065887Y063209
X067068Y063682
X066714Y063682
X066241Y063682
X065887Y063682
X066241Y064036
X066714Y064036
T2C.008F0S0
X06137Y060665
X06039Y060725
X06107Y060925
X06138Y061325
X0605Y061635
X06202Y062255
X06205Y063245
X06221Y065405
X062164Y07024
X062099Y07068
X062099Y071215
X06213Y071825
X06243Y072705
X06194Y072775
X06238Y073685
X06178Y074015
X06242Y074985
X06204Y075015
X0619Y07537
X06241Y076055
X06178Y076385
X06204Y076715
X06236Y077485
X06204Y078225
X06248Y078665
X0621Y079065
X06171Y07972
X06209Y080045
X061915Y08107
X061665Y08207
X06154Y083195
X060665Y08357
X06399Y081335
X06357Y080965
X06401Y080905
X06379Y080695
X06316Y080455
X06366Y080365
X06276Y080075
X0639Y080065
X06489Y079945
X0642Y079675
X0633Y079645
X0649Y079455
X06452Y079195
X06493Y078895
X06373Y078535
X063583Y078223
X06258Y077935
X06417Y077495
X06491Y077315
X06418Y077125
X063809Y077059
X062634Y076746
X06459Y076545
X06438Y076305
X06414Y076055
X063456Y075851
X06442Y075445
X06279Y075155
X06425Y075085
X06457Y075065
X06456Y074595
X06408Y074595
X06468Y074265
X06452Y074055
X06482Y074055
X06348Y074045
X06422Y073865
X06266Y073715
X06399Y073565
X06461Y073085
X06308Y072735
X06342Y072305
X06474Y072205
X06313Y072165
X06399Y072115
X06429Y07192
X06381Y071225
X06323Y071205
X06463Y071155
X06411Y070295
X063499Y070237
X06297Y070205
X06474Y07012
X0636Y069925
X064628Y069555
X06297Y069265
X064305Y069149
X06296Y068725
X064624Y068337
X06396Y068195
X063202Y068151
X06329Y066285
X06257Y066235
X06499Y066115
X0643Y065905
X0643Y065329
X0649Y065325
X06293Y065075
X06333Y065025
X06428Y064675
X06302Y064395
X06428Y064175
X06371Y063875
X06359Y063695
X06278Y063565
X06404Y063505
X0636Y063435
X06261Y063345
X06383Y063255
X06405Y062945
X06306Y062495
X06403Y062465
X06262Y062195
X06301Y062005
X06428Y061215
X06328Y061185
X06484Y061045
X06484Y060795
X06404Y060515
X06622Y060255
X06509Y060795
X06734Y061015
X06509Y061045
X0662Y061845
X06686Y061955
X06662Y061985
X06734Y062005
X06583Y062135
X06544Y062445
X06518Y062615
X06508Y063135
X06507Y063355
X06512Y064725
X06592Y064745
X06615Y064745
X06544Y064745
X06719Y064765
X06646Y064775
X06735Y064895
X06625Y065315
X06736Y065855
X06596Y065915
X06522Y065925
X06633Y065975
X06659Y065975
X06516Y06623
X06744Y066255
X06631Y06652
X06632Y06694
X06516Y06696
X06588Y067335
X06701Y067335
X06741Y067405
X06721Y067455
X06744Y067645
X06605Y068055
X06583Y068065
X06516Y068085
X06725Y068115
X06539Y068255
X0657Y068255
X06734Y068335
X067004Y068365
X06608Y068535
X06701Y068605
X06608Y068855
X066324Y068865
X06605Y069161
X067438Y06918
X06513Y06936
X06718Y06979
X067197Y07009
X06502Y07012
X066679Y070122
X067308Y070688
X0665Y07082
X06558Y07086
X067148Y071013
X06575Y07107
X06727Y071225
X06627Y07127
X06727Y071455
X06626Y071525
X06734Y071645
X06628Y071755
X06576Y072335
X06703Y07253
X067333Y072558
X0656Y072915
X06696Y072925
X06521Y073125
X06696Y073345
X06562Y073405
X06735Y07352
X06573Y074415
X06621Y074425
X067031Y074465
X066101Y074651
X06699Y075045
X06659Y075045
X06619Y075045
X06699Y075445
X06579Y075445
X06659Y075445
X06619Y075445
X06518Y075655
X06579Y075845
X06659Y075845
X06619Y075845
X06699Y075845
X06542Y075935
X06735Y076085
X06619Y076245
X06525Y076415
X06749Y076775
X06583Y076935
X06659Y076975
X0658Y077725
X06749Y077952
X06688Y078015
X06542Y078855
X0673Y078885
X06685Y078985
X06698Y079135
X06738Y079945
X06711Y080285
X06555Y080325
X06526Y080335
X06682Y080335
X06584Y080355
X0654Y080535
X06507Y080555
X06615Y080565
X06595Y080575
X06669Y080585
X06714Y080605
X066255Y081199
X066052Y081208
X06723Y081225
X06507Y081235
X06586Y081275
X06969Y083545
X06889Y082645
X06949Y082645
X06979Y082245
X06889Y081845
X06949Y081805
X06844Y081335
X06957Y081225
X06846Y080905
X06949Y080775
X06849Y080445
X06957Y080215
X06768Y080115
X06931Y080005
X06919Y079625
X06999Y079305
X06928Y079285
X06978Y079285
X06768Y079275
X06778Y078915
X069Y078685
X06955Y078685
X06929Y078245
X067522Y078227
X068068Y078225
X06836Y078225
X06851Y077855
X069854Y077359
X06925Y077345
X06843Y077325
X069469Y077238
X06871Y076635
X06754Y076485
X06942Y076375
X06891Y076315
X06851Y076275
X06827Y075815
X06831Y075535
X06757Y075325
X06892Y075285
X06952Y075225
X069297Y07495
X068709Y074851
X06754Y074845
X067769Y073546
X069022Y073129
X067864Y073045
X0688Y0729
X06854Y0728
X06757Y072561
X068439Y072469
X069311Y072354
X06994Y07234
X068804Y07229
X06831Y07225
X068316Y070377
X067831Y070365
X06915Y06971
X06939Y069595
X06883Y06954
X06838Y0695
X067505Y069418
X067848Y069409
X0688Y06914
X067597Y069024
X06918Y06902
X06897Y068815
X06971Y068605
X06947Y068605
X06897Y068075
X069437Y068006
X06798Y067685
X06938Y067575
X06837Y067575
X06794Y067465
X06817Y067455
X06867Y067395
X06859Y067195
X06928Y067035
X06975Y067015
X06908Y066605
X06794Y066535
X06828Y066515
X06936Y066485
X06885Y065865
X06792Y065315
X0682Y065275
X06793Y065015
X0678Y064225
X06838Y064055
X06808Y063425
X06826Y062685
X0677Y062505
X06823Y062365
X06752Y061315
X06797Y061165
X06795Y060805
X06912Y060405
X06843Y060385
X07015Y060455
X07054Y060845
X07029Y060845
X07054Y061145
X07029Y061145
X07046Y062255
X07045Y062785
X07068Y062785
X07055Y064025
X07032Y064255
X07074Y064885
X07053Y065185
X07019Y067025
X07018Y068085
X07013Y068525
X0702Y069125
X07006Y069705
X070124Y072901
X070124Y074145
X07006Y076295
X07019Y077085
X07014Y078315
X07013Y078545
X07013Y078755
X07021Y079315
X07028Y079995
X07034Y080975
X07129Y082345
X07039Y082545
X07179Y083545
T3C.02362F197S55
X067803Y081339G85X067803Y080945
X064402Y081339G85X064402Y080945
X068276Y083169G85X068276Y082933
X063929Y083169G85X063929Y082933
X064638Y081339G85X064402Y081339
X067803Y081339G85X067567Y081339
T4C.035F197S55
X06Y062508
X061Y062508
X06Y063508
X061Y063508
X06Y064508
X061Y064508
X06Y065508
X061Y065508
X06Y066508
X061Y066508
X06Y067508
X061Y067508
X06Y068508
X061Y068508
X061Y069508
X06Y069508
X061Y070508
X06Y070508
X061Y071508
X06Y071508
X061Y072508
X06Y072508
X061Y073508
X06Y073508
X061Y074508
X06Y074508
X061Y075508
X06Y075508
X061Y076508
X06Y076508
X061Y077508
X06Y077508
X061Y078508
X06Y078508
X06Y079508
X061Y079508
X061Y080508
X06Y080508
X06Y081508
X061Y081508
X072205Y081508
X071205Y081508
X072205Y080508
X071205Y080508
X072205Y079508
X071205Y079508
X072205Y078508
X071205Y078508
X072205Y077508
X071205Y077508
X072205Y076508
X071205Y076508
X072205Y075508
X071205Y075508
X071205Y074508
X072205Y074508
X071205Y073508
X072205Y073508
X071205Y072508
X072205Y072508
X071205Y071508
X072205Y071508
X071205Y070508
X072205Y070508
X071205Y069508
X072205Y069508
X071205Y068508
X072205Y068508
X071205Y067508
X072205Y067508
X071205Y066508
X072205Y066508
X071205Y065508
X072205Y065508
X072205Y064508
X071205Y064508
X071205Y063508
X072205Y063508
X072205Y062508
X071205Y062508
M30
