*
*
G04 PADS VX.2.4 Build Number: 11282995 generated Gerber (RS-274-X) file*
G04 PC Version=2.1*
*
%IN "UP201 MCU BOARD 2V0-250"*%
*
%MOIN*%
*
%FSLAX35Y35*%
*
*
*
*
G04 PC Standard Apertures*
*
*
G04 Thermal Relief Aperture macro.*
%AMTER*
1,1,$1,0,0*
1,0,$1-$2,0,0*
21,0,$3,$4,0,0,45*
21,0,$3,$4,0,0,135*
%
*
*
G04 Annular Aperture macro.*
%AMANN*
1,1,$1,0,0*
1,0,$2,0,0*
%
*
*
G04 Odd Aperture macro.*
%AMODD*
1,1,$1,0,0*
1,0,$1-0.005,0,0*
%
*
*
G04 PC Custom Aperture Macros*
*
*
*
*
*
*
G04 PC Aperture Table*
*
%ADD010C,0.01*%
%ADD014R,0.065X0.065*%
%ADD122C,0.001*%
%ADD318R,0.025X0.03*%
%ADD319R,0.035X0.04*%
%ADD321R,0.027X0.03*%
%ADD322R,0.03X0.025*%
%ADD324R,0.14673X0.065*%
%ADD328C,0.02075*%
%ADD335O,0.04437X0.08374*%
%ADD336O,0.04831X0.07587*%
%ADD337O,0.06799X0.04437*%
%ADD338R,0.04X0.05*%
%ADD340R,0.04X0.035*%
%ADD341C,0.045*%
%ADD342R,0.03X0.027*%
%ADD350R,0.02862X0.01366*%
%ADD351R,0.01366X0.02862*%
%ADD352R,0.0365X0.01406*%
%ADD353R,0.01406X0.0365*%
%ADD354R,0.17429X0.17429*%
%ADD355R,0.04437X0.03846*%
%ADD356R,0.02665X0.0365*%
*
*
*
*
G04 PC Circuitry*
G04 Layer Name UP201 MCU BOARD 2V0-250 - circuitry*
%LPD*%
*
*
G04 PC Custom Flashes*
G04 Layer Name UP201 MCU BOARD 2V0-250 - flashes*
%LPD*%
*
*
G04 PC Circuitry*
G04 Layer Name UP201 MCU BOARD 2V0-250 - circuitry*
%LPD*%
*
G54D10*
G01X600000Y840157D02*
X642835D01*
Y820276*
X642903*
X642905D02*
G75*
G03X642902Y816929I108J-1674D01*
G01X642903D02*
X679311D01*
G03Y820276I38J1673*
G01X679213*
Y840157*
X722047*
Y600000*
X600000*
Y840157*
G54D14*
Y815079D03*
Y805079D03*
Y795079D03*
Y785079D03*
Y775079D03*
Y765079D03*
Y755079D03*
Y745079D03*
Y735079D03*
Y725079D03*
Y715079D03*
Y705079D03*
Y695079D03*
Y685079D03*
Y675079D03*
Y665079D03*
Y655079D03*
Y645079D03*
Y635079D03*
Y625079D03*
X722047D03*
Y635079D03*
Y645079D03*
Y655079D03*
Y665079D03*
Y675079D03*
Y685079D03*
Y695079D03*
Y705079D03*
Y715079D03*
Y725079D03*
Y735079D03*
Y745079D03*
Y755079D03*
Y765079D03*
Y775079D03*
Y785079D03*
Y795079D03*
Y805079D03*
Y815079D03*
G54D122*
G54D318*
X664680Y655704D03*
X668617D03*
X676180Y706454D03*
X680117D03*
X664906Y705625D03*
X668844D03*
X634680Y743829D03*
X638617D03*
X698617Y683204D03*
X694680D03*
X664680Y650079D03*
X668617D03*
X691117Y678204D03*
X687180D03*
X676180Y711454D03*
X680117D03*
X632180Y696954D03*
X636117D03*
X643617Y780079D03*
X639680D03*
X643617Y785079D03*
X639680D03*
X668867Y715829D03*
X664930D03*
X676180Y716454D03*
X680117D03*
X668867Y710829D03*
X664930D03*
X643219Y638750D03*
X639281D03*
G54D319*
X667774Y615704D03*
X661774D03*
X674899Y630704D03*
X680899D03*
X630274Y718204D03*
X624274D03*
X700899Y796329D03*
X694899D03*
X629649Y706329D03*
X623649D03*
Y711954D03*
X629649D03*
X620524Y740079D03*
X626524D03*
X649024Y650704D03*
X643024D03*
X652149Y734454D03*
X646149D03*
X643024Y656329D03*
X649024D03*
X663649Y643829D03*
X669649D03*
X658399D03*
X652399D03*
X641524Y768204D03*
X635524D03*
X620524Y763829D03*
X626524D03*
G54D321*
X621649Y727288D03*
Y731619D03*
X705399Y648494D03*
Y644163D03*
X632274Y687288D03*
Y691619D03*
X677899Y782288D03*
Y786619D03*
X650399Y809788D03*
Y814119D03*
X654149Y809788D03*
Y814119D03*
X667899Y809788D03*
Y814119D03*
X671649Y809788D03*
Y814119D03*
X672899Y782288D03*
Y786619D03*
X682899Y671619D03*
Y667288D03*
X659774Y655994D03*
Y651663D03*
X702899Y762913D03*
Y767244D03*
X694774Y688538D03*
Y692869D03*
X637899Y659744D03*
Y655413D03*
X655899Y633588D03*
Y637919D03*
X636024Y687288D03*
Y691619D03*
G54D322*
X651250Y687406D03*
Y691344D03*
X674375Y697231D03*
Y701169D03*
X669375D03*
Y697231D03*
X670399Y624360D03*
Y628297D03*
X658524Y624360D03*
Y628297D03*
X682899Y612047D03*
Y608110D03*
X677899Y621422D03*
Y617485D03*
X682899Y621422D03*
Y617485D03*
X646024Y687485D03*
Y691422D03*
X627899Y753735D03*
Y757672D03*
X702899Y779547D03*
Y775610D03*
X692899Y779547D03*
Y775610D03*
X622899Y757672D03*
Y753735D03*
X627899Y731422D03*
Y727485D03*
X697849Y775760D03*
Y779697D03*
X673524Y651235D03*
Y655172D03*
X668524Y786422D03*
Y782485D03*
X620399Y774985D03*
Y778922D03*
X640399Y687485D03*
Y691422D03*
X654149Y786422D03*
Y782485D03*
X649149Y786422D03*
Y782485D03*
X674774Y642047D03*
Y638110D03*
X687899Y720172D03*
Y716235D03*
X672899Y613110D03*
Y617047D03*
G54D324*
X606063Y815079D03*
Y805079D03*
Y795079D03*
Y785079D03*
Y775079D03*
Y765079D03*
Y755079D03*
Y745079D03*
Y735079D03*
Y725079D03*
Y715079D03*
Y705079D03*
Y695079D03*
Y685079D03*
Y675079D03*
Y665079D03*
Y655079D03*
Y645079D03*
Y635079D03*
Y625079D03*
X715984D03*
Y635079D03*
Y645079D03*
Y655079D03*
Y665079D03*
Y675079D03*
Y685079D03*
Y695079D03*
Y705079D03*
Y715079D03*
Y725079D03*
Y735079D03*
Y745079D03*
Y755079D03*
Y765079D03*
Y775079D03*
Y785079D03*
Y795079D03*
Y805079D03*
Y815079D03*
G54D328*
X662411Y628548D03*
X667136D03*
Y632092D03*
X662411D03*
X670679D03*
X658868D03*
X670679Y636816D03*
X667136D03*
X662411D03*
X658868D03*
X662411Y640359D03*
X667136D03*
G54D335*
X678031Y811419D03*
X644016D03*
G54D336*
X682756Y830514D03*
X639291D03*
G54D337*
X645197Y813388D03*
X676850D03*
G54D338*
X620899Y796454D03*
X626899D03*
X659024Y799454D03*
X653024D03*
X664899D03*
X670899D03*
G54D340*
X699774Y688329D03*
Y694329D03*
X664774Y623954D03*
Y629954D03*
X681024Y637079D03*
Y643079D03*
X705399Y631454D03*
Y637454D03*
X641024Y706454D03*
Y712454D03*
X635399Y706454D03*
Y712454D03*
X632899Y659954D03*
Y653954D03*
X625399Y659954D03*
Y653954D03*
X654774Y650829D03*
Y656829D03*
G54D341*
X712899Y831954D03*
X617899Y605704D03*
X715399Y606954D03*
X635399Y791954D03*
G54D342*
X667564Y686329D03*
X663233D03*
X667564Y681954D03*
X663233D03*
X679085Y697500D03*
X683415D03*
X679085Y701250D03*
X683415D03*
X701314Y790079D03*
X696983D03*
X694483Y766954D03*
X698814D03*
X620733Y746954D03*
X625064D03*
X641314Y763204D03*
X636983D03*
X641314Y758204D03*
X636983D03*
X654483Y669454D03*
X658814D03*
X625733Y665079D03*
X630064D03*
G54D350*
X634715Y748179D03*
Y749754D03*
Y751329D03*
Y752904D03*
Y754478D03*
X639833D03*
Y752904D03*
Y751329D03*
Y749754D03*
Y748179D03*
X698583Y761353D03*
Y759779D03*
Y758204D03*
Y756629D03*
Y755054D03*
X693465D03*
Y756629D03*
Y758204D03*
Y759779D03*
Y761353D03*
G54D351*
X637274Y754478D03*
Y748179D03*
X696024Y755054D03*
Y761353D03*
G54D352*
X679897Y769552D03*
Y767977D03*
Y766403D03*
Y764828D03*
Y763253D03*
Y761678D03*
Y760103D03*
Y758529D03*
Y756954D03*
Y755379D03*
Y753804D03*
Y752229D03*
Y750655D03*
Y749080D03*
Y747505D03*
Y745930D03*
Y744355D03*
X648401D03*
Y745930D03*
Y747505D03*
Y749080D03*
Y750655D03*
Y752229D03*
Y753804D03*
Y755379D03*
Y756954D03*
Y758529D03*
Y760103D03*
Y761678D03*
Y763253D03*
Y764828D03*
Y766403D03*
Y767977D03*
Y769552D03*
G54D353*
X676747Y741206D03*
X675172D03*
X673597D03*
X672023D03*
X670448D03*
X668873D03*
X667298D03*
X665723D03*
X664149D03*
X662574D03*
X660999D03*
X659424D03*
X657849D03*
X656275D03*
X654700D03*
X653125D03*
X651550D03*
Y772702D03*
X653125D03*
X654700D03*
X656275D03*
X657849D03*
X659424D03*
X660999D03*
X662574D03*
X664149D03*
X665723D03*
X667298D03*
X668873D03*
X670448D03*
X672023D03*
X673597D03*
X675172D03*
X676747D03*
G54D354*
X664149Y756954D03*
G54D355*
X666442Y728573D03*
X659355D03*
Y734085D03*
X666442D03*
G54D356*
X660007Y790320D03*
Y783588D03*
X663590D03*
Y790320D03*
G74*
X0Y0D02*
M02*
