*
*
G04 PADS VX.2.4 Build Number: 11282995 generated Gerber (RS-274-X) file*
G04 PC Version=2.1*
*
%IN "UP201 MCU BOARD 2V0-250"*%
*
%MOIN*%
*
%FSLAX35Y35*%
*
*
*
*
G04 PC Standard Apertures*
*
*
G04 Thermal Relief Aperture macro.*
%AMTER*
1,1,$1,0,0*
1,0,$1-$2,0,0*
21,0,$3,$4,0,0,45*
21,0,$3,$4,0,0,135*
%
*
*
G04 Annular Aperture macro.*
%AMANN*
1,1,$1,0,0*
1,0,$2,0,0*
%
*
*
G04 Odd Aperture macro.*
%AMODD*
1,1,$1,0,0*
1,0,$1-0.005,0,0*
%
*
*
G04 PC Custom Aperture Macros*
*
*
%AM_PSI_PAC_SJO_S_000_0000022_P324000000*
4,1,25,
   0.01966,-0.0125,
   0.0211,-0.01199,
   0.02246,-0.01132,
   0.02374,-0.01049,
   0.02492,-0.00952,
   0.02597,-0.00842,
   0.02689,-0.0072,
   0.02765,-0.00588,
   0.02826,-0.00448,
   0.0287,-0.00302,
   0.02897,-0.00152,
   0.02906,0,
   0.02897,0.00152,
   0.0287,0.00302,
   0.02826,0.00448,
   0.02765,0.00588,
   0.02689,0.0072,
   0.02597,0.00842,
   0.02492,0.00952,
   0.02374,0.01049,
   0.02246,0.01132,
   0.0211,0.01199,
   0.01966,0.0125,
   0.005,0.0125,
   0.005,-0.0125,
   0.01966,-0.0125,
0*
%
*
%AM_PSI_PAC_SJO_S_001_0000023_P324000000*
4,1,25,
   -0.01966,0.0125,
   -0.0211,0.01199,
   -0.02246,0.01132,
   -0.02374,0.01049,
   -0.02492,0.00952,
   -0.02597,0.00842,
   -0.02689,0.0072,
   -0.02765,0.00588,
   -0.02826,0.00448,
   -0.0287,0.00302,
   -0.02897,0.00152,
   -0.02906,0,
   -0.02897,-0.00152,
   -0.0287,-0.00302,
   -0.02826,-0.00448,
   -0.02765,-0.00588,
   -0.02689,-0.0072,
   -0.02597,-0.00842,
   -0.02492,-0.00952,
   -0.02374,-0.01049,
   -0.02246,-0.01132,
   -0.0211,-0.01199,
   -0.01966,-0.0125,
   -0.005,-0.0125,
   -0.005,0.0125,
   -0.01966,0.0125,
0*
%
*
*
*
*
*
G04 PC Aperture Table*
*
%ADD010C,0.01*%
%ADD027C,0.04*%
%ADD122C,0.001*%
%ADD145R,0.02X0.025*%
%ADD146R,0.035X0.03*%
%ADD147R,0.06299X0.15748*%
%ADD148R,0.03543X0.00787*%
%ADD149R,0.00787X0.03543*%
%ADD150R,0.1378X0.1378*%
%ADD151R,0.025X0.02*%
%ADD152R,0.022X0.025*%
%ADD157R,0.025X0.022*%
%ADD161R,0.035X0.045*%
%ADD173C,0.00866*%
%ADD177R,0.15748X0.06299*%
%ADD179R,0.03X0.035*%
%ADD186R,0.03937X0.0315*%
%ADD198R,0.01968X0.04331*%
%ADD204R,0.04331X0.01968*%
%ADD209R,0.015X0.025*%
%ADD210C,0.00787*%
%ADD276R,0.04134X0.02362*%
%ADD277R,0.07874X0.03937*%
%ADD278R,0.01181X0.03346*%
%ADD279R,0.01181X0.0374*%
%ADD283R,0.0315X0.06299*%
%ADD284R,0.03937X0.07087*%
%ADD285R,0.02362X0.00984*%
%ADD286R,0.01181X0.06299*%
%ADD357R,0.04331X0.0748*%
*
*
*
*
G04 PC Circuitry*
G04 Layer Name UP201 MCU BOARD 2V0-250 - circuitry*
%LPD*%
*
*
G04 PC Custom Flashes*
G04 Layer Name UP201 MCU BOARD 2V0-250 - flashes*
%LPD*%
*
%ADD9999_PSI_PAC_SJO_S_000_0000022_P324000000*%
G54D9999*
X650000Y698500D03*
%ADD9998_PSI_PAC_SJO_S_001_0000023_P324000000*%
G54D9998*
X650000D03*
*
G04 PC Circuitry*
G04 Layer Name UP201 MCU BOARD 2V0-250 - circuitry*
%LPD*%
*
G54D10*
G01X600000Y840157D02*
X642835D01*
Y820276*
X642903*
X642905D02*
G75*
G03X642902Y816929I108J-1674D01*
G01X642903D02*
X679311D01*
G03Y820276I38J1673*
G01X679213*
Y840157*
X722047*
Y600000*
X600000*
Y840157*
G54D27*
X636649Y667579D03*
X627274Y606329D03*
X636024D03*
X646024Y667579D03*
X685399Y786954D03*
X617899Y605704D03*
X619774Y667579D03*
X627899D03*
X712899Y831954D03*
X715399Y606954D03*
G54D122*
G54D145*
X677805Y765079D03*
X681742D03*
X642805Y634454D03*
X646742D03*
X697992Y761329D03*
X694055D03*
X635305Y765079D03*
X639242D03*
X632805Y630079D03*
X636742D03*
X642805Y615079D03*
X646742D03*
X632805D03*
X636742D03*
X632805Y620079D03*
X636742D03*
X642180Y649454D03*
X646117D03*
X642805Y629454D03*
X646742D03*
X642805Y639454D03*
X646742D03*
X642805Y644454D03*
X646742D03*
X632805Y625079D03*
X636742D03*
X642805Y624454D03*
X646742D03*
X694055Y698829D03*
X697992D03*
X635492Y806954D03*
X631555D03*
X652805Y779454D03*
X656742D03*
G54D146*
X694149Y609954D03*
Y603954D03*
X687899Y609954D03*
Y603954D03*
X626024Y630579D03*
Y624579D03*
X632899Y659954D03*
Y653954D03*
X625399Y659954D03*
Y653954D03*
X701250Y738000D03*
Y732000D03*
G54D147*
X667982Y610079D03*
X656565D03*
G54D148*
X674813Y627367D03*
Y628942D03*
Y630517D03*
Y632092D03*
Y633666D03*
Y635241D03*
Y636816D03*
Y638391D03*
Y639966D03*
Y641540D03*
X654734D03*
Y639966D03*
Y638391D03*
Y636816D03*
Y635241D03*
Y633666D03*
Y632092D03*
Y630517D03*
Y628942D03*
Y627367D03*
G54D149*
X671860Y644493D03*
X670285D03*
X668711D03*
X667136D03*
X665561D03*
X663986D03*
X662411D03*
X660837D03*
X659262D03*
X657687D03*
Y624414D03*
X659262D03*
X660837D03*
X662411D03*
X663986D03*
X665561D03*
X667136D03*
X668711D03*
X670285D03*
X671860D03*
G54D150*
X664774Y634454D03*
G54D151*
X646250Y708219D03*
Y704281D03*
X637899Y723735D03*
Y727672D03*
X676649Y798922D03*
Y794985D03*
X697899Y790797D03*
Y786860D03*
X624774Y702485D03*
Y706422D03*
X682399Y647922D03*
Y643985D03*
X686649Y702047D03*
Y698110D03*
X664774Y655172D03*
Y651235D03*
X669774Y655172D03*
Y651235D03*
X640625Y677594D03*
Y673656D03*
X635625Y677594D03*
Y673656D03*
X644149Y774985D03*
Y778922D03*
X685399Y794985D03*
Y798922D03*
X692899Y790797D03*
Y786860D03*
X646274Y713860D03*
Y717797D03*
X630625Y677594D03*
Y673656D03*
X625625Y677594D03*
Y673656D03*
G54D152*
X678750Y696585D03*
Y700915D03*
X675000Y696585D03*
Y700915D03*
X639774Y749163D03*
Y753494D03*
X667899Y744163D03*
Y748494D03*
X687899Y778494D03*
Y774163D03*
X664149Y744163D03*
Y748494D03*
X634774Y749163D03*
Y753494D03*
X699149Y609119D03*
Y604788D03*
X689149Y760994D03*
Y756663D03*
X666649Y729163D03*
Y733494D03*
X659149D03*
Y729163D03*
X649774Y752288D03*
Y756619D03*
X688524Y661663D03*
Y665994D03*
X699375Y716585D03*
Y720915D03*
X693125Y716585D03*
Y720915D03*
X620399Y629744D03*
Y625413D03*
X681024Y794788D03*
Y799119D03*
X654149Y752288D03*
Y756619D03*
G54D157*
X693858Y693829D03*
X698189D03*
X666983Y761954D03*
X671314D03*
X678233Y667579D03*
X682564D03*
X663858Y801014D03*
X668189D03*
X667564Y681954D03*
X663233D03*
X667564Y686329D03*
X663233D03*
X693858Y690079D03*
X698189D03*
X697608Y672579D03*
X701939D03*
X678233Y671954D03*
X682564D03*
X656939Y801014D03*
X652608D03*
X700064Y810079D03*
X695733D03*
X700064Y800079D03*
X695733D03*
X610689Y606954D03*
X606358D03*
X674689Y722079D03*
X670358D03*
X643233Y661329D03*
X647564D03*
X680064Y755704D03*
X675733D03*
X680064Y760704D03*
X675733D03*
X657564Y761954D03*
X653233D03*
X677790Y738125D03*
X673460D03*
G54D161*
X657149Y740704D03*
X651149D03*
X664274Y794764D03*
X670274D03*
X658399Y773204D03*
X652399D03*
X657774Y794764D03*
X651774D03*
X694899Y822454D03*
X688899D03*
X666149Y773204D03*
X672149D03*
G54D173*
X678076Y689277D03*
X679454D03*
X680832D03*
X682210D03*
X683588D03*
X684966D03*
X686344D03*
X687721D03*
X678076Y687899D03*
X679454D03*
X680832D03*
X682210D03*
X683588D03*
X684966D03*
X686344D03*
X687721D03*
X678076Y686521D03*
X679454D03*
X680832D03*
X682210D03*
X683588D03*
X684966D03*
X686344D03*
X687721D03*
X678076Y685143D03*
X679454D03*
X680832D03*
X682210D03*
X683588D03*
X684966D03*
X686344D03*
X687721D03*
X678076Y683765D03*
X679454D03*
X680832D03*
X682210D03*
X683588D03*
X684966D03*
X686344D03*
X687721D03*
X678076Y682387D03*
X679454D03*
X680832D03*
X682210D03*
X683588D03*
X684966D03*
X686344D03*
X687721D03*
X678076Y681009D03*
X679454D03*
X680832D03*
X682210D03*
X683588D03*
X684966D03*
X686344D03*
X687721D03*
X678076Y679631D03*
X679454D03*
X680832D03*
X682210D03*
X683588D03*
X684966D03*
X686344D03*
X687721D03*
G54D177*
X694149Y636870D03*
Y648287D03*
Y628287D03*
Y616870D03*
G54D179*
X647399Y676954D03*
X653399D03*
X657149Y746954D03*
X651149D03*
X653649Y650704D03*
X659649D03*
X620524Y740079D03*
X626524D03*
X649649Y605079D03*
X643649D03*
X678024Y662579D03*
X684024D03*
X659649Y656329D03*
X653649D03*
X667149Y676954D03*
X661149D03*
X697399Y677579D03*
X703399D03*
X699649Y661954D03*
X693649D03*
X654274Y668829D03*
X660274D03*
X666149D03*
X672149D03*
X699649Y655704D03*
X693649D03*
X688399D03*
X682399D03*
X660274Y662579D03*
X654274D03*
X666149D03*
X672149D03*
X636524Y800704D03*
X630524D03*
X700899Y815079D03*
X694899D03*
X700899Y805079D03*
X694899D03*
X610899Y613204D03*
X604899D03*
X658399Y766954D03*
X652399D03*
X666149D03*
X672149D03*
X649024Y656329D03*
X643024D03*
X620524Y763829D03*
X626524D03*
X687000Y744375D03*
X693000D03*
G54D186*
X629149Y779281D03*
Y773376D03*
X637899Y779281D03*
Y773376D03*
X620399Y779281D03*
Y773376D03*
G54D198*
X620408Y722889D03*
X624149D03*
X627889D03*
Y733519D03*
X624149D03*
X620408D03*
X630408Y706014D03*
X634149D03*
X637889D03*
Y716644D03*
X634149D03*
X630408D03*
X639764Y696019D03*
X636024D03*
X632283D03*
Y685389D03*
X636024D03*
X639764D03*
X692283Y767264D03*
X696024D03*
X699764D03*
Y777894D03*
X696024D03*
X692283D03*
X620408Y746639D03*
X624149D03*
X627889D03*
Y757269D03*
X624149D03*
X620408D03*
G54D204*
X684060Y738115D03*
Y734375D03*
Y730635D03*
X694690D03*
Y734375D03*
Y738115D03*
G54D209*
X651200Y698500D03*
X648800D03*
G54D210*
X633716Y637018D03*
Y635640D03*
X632338Y637018D03*
Y635640D03*
X630960Y637018D03*
Y635640D03*
X629582Y637018D03*
Y635640D03*
G54D276*
X656964Y685714D03*
Y689454D03*
Y693194D03*
X646334D03*
Y685714D03*
G54D277*
X623524Y697165D03*
Y682992D03*
X655024Y719165D03*
Y704992D03*
G54D278*
X662500Y814274D03*
X660531D03*
X664469D03*
X666437D03*
X668406D03*
X670374D03*
X658563D03*
X656594D03*
X654626D03*
X652657D03*
X672343D03*
X650689D03*
G54D279*
X661516Y808959D03*
X659547D03*
X663484D03*
X665453D03*
X667421D03*
X669390D03*
X657579D03*
X655610D03*
X653642D03*
X651673D03*
X649705D03*
X671358D03*
G54D283*
X625871Y643829D03*
X634926D03*
G54D284*
X642185Y791954D03*
X624862D03*
G54D285*
X665531Y717531D03*
Y715563D03*
Y713594D03*
Y711626D03*
X675767D03*
Y713594D03*
Y715563D03*
Y717531D03*
G54D286*
X670649Y714579D03*
G54D357*
X691329Y708750D03*
X701171D03*
G74*
X0Y0D02*
M02*
