*
*
G04 PADS VX.2.4 Build Number: 11282995 generated Gerber (RS-274-X) file*
G04 PC Version=2.1*
*
%IN "UP201 MCU BOARD 2V0-250"*%
*
%MOIN*%
*
%FSLAX35Y35*%
*
*
*
*
G04 PC Standard Apertures*
*
*
G04 Thermal Relief Aperture macro.*
%AMTER*
1,1,$1,0,0*
1,0,$1-$2,0,0*
21,0,$3,$4,0,0,45*
21,0,$3,$4,0,0,135*
%
*
*
G04 Annular Aperture macro.*
%AMANN*
1,1,$1,0,0*
1,0,$2,0,0*
%
*
*
G04 Odd Aperture macro.*
%AMODD*
1,1,$1,0,0*
1,0,$1-0.005,0,0*
%
*
*
G04 PC Custom Aperture Macros*
*
*
*
*
*
*
G04 PC Aperture Table*
*
%ADD010C,0.01*%
%ADD029C,0.006*%
%ADD030C,0.008*%
%ADD032C,0.005*%
%ADD033C,0.004*%
%ADD048C,0.015*%
%ADD067C,0.007*%
%ADD122C,0.001*%
%ADD210C,0.00787*%
%ADD212C,0.00591*%
%ADD316C,0.0045*%
*
*
*
*
G04 PC Circuitry*
G04 Layer Name UP201 MCU BOARD 2V0-250 - circuitry*
%LPD*%
*
*
G04 PC Copper Outlines (0)*
G04 Layer Name UP201 MCU BOARD 2V0-250 - dark (0)*
%LPD*%
*
*
G04 PC Area=System Text*
G75*
G36*
G01*
X604437Y613611D02*
Y612964D01*
X604361Y612660D01*
X604285Y612394D01*
X604171Y612204D01*
X604019Y612014D01*
X603829Y611900D01*
X603563Y611862D01*
X603259Y611824D01*
X602726Y611900D01*
X602536Y612014D01*
X602384Y612204D01*
X602270Y612394D01*
X602194Y612660D01*
X602118Y612964D01*
Y613611D01*
X602194Y613915D01*
X602270Y614143D01*
X602384Y614371D01*
X602536Y614523D01*
X602726Y614637D01*
X602840Y614670D01*
Y613269D01*
X602879Y612850D01*
X602955Y612546D01*
X603069Y612356D01*
X603259Y612318D01*
X603487Y612356D01*
X603601Y612546D01*
X603677Y612850D01*
X603715Y613269D01*
X603677Y613725D01*
X603601Y614029D01*
X603487Y614181D01*
X603259Y614257D01*
X603069Y614181D01*
X602955Y614029D01*
X602879Y613725D01*
X602840Y613269D01*
Y614670D01*
X602993Y614713D01*
X603259Y614751D01*
X603563Y614713D01*
X603791Y614637D01*
X604019Y614523D01*
X604171Y614371D01*
X604285Y614181D01*
X604361Y613915D01*
X604437Y613611D01*
G37*
G74*
*
G75*
G36*
G01*
X607479Y614675D02*
X606452Y611900D01*
X605654D01*
X604665Y614675D01*
X605388D01*
X606072Y612698D01*
X606756Y614675D01*
X607479D01*
G37*
G74*
*
G75*
G36*
G01*
X609874Y612356D02*
Y611900D01*
X607745D01*
Y612432D01*
X608961D01*
X608847Y612508D01*
X608733Y612622D01*
X608391Y612888D01*
X608163Y613155D01*
X607973Y613383D01*
X607897Y613649D01*
X607859Y613915D01*
X607935Y614257D01*
X608125Y614523D01*
X608467Y614675D01*
X608923Y614751D01*
X609417Y614675D01*
X609645Y614637D01*
X609798Y614561D01*
Y613953D01*
X609721D01*
X609379Y614143D01*
X609037Y614219D01*
X608847Y614181D01*
X608695Y614105D01*
X608619Y613991D01*
X608581Y613801D01*
X608657Y613497D01*
X608809Y613307D01*
X608999Y613117D01*
X609151Y612926D01*
X609379Y612736D01*
X609874Y612356D01*
G37*
G74*
*
G75*
G36*
G01*
X612953Y611634D02*
Y611254D01*
X610178D01*
Y611634D01*
X612953D01*
G37*
G74*
*
G75*
G36*
G01*
X615728Y614675D02*
Y611900D01*
X614436D01*
X614169Y611938D01*
X613941Y612014D01*
X613713Y612128D01*
X613485Y612318D01*
X613295Y612584D01*
X613143Y612926D01*
X613105Y613269D01*
X613143Y613649D01*
X613257Y613991D01*
X613447Y614257D01*
X613713Y614447D01*
X613827Y614516D01*
Y613269D01*
X613903Y612812D01*
X614055Y612660D01*
X614207Y612546D01*
X614436Y612470D01*
X614588Y612432D01*
X615006D01*
Y614143D01*
X614626D01*
X614474Y614105D01*
X614245Y614067D01*
X614055Y613915D01*
X613941Y613763D01*
X613865Y613535D01*
X613827Y613269D01*
Y614516D01*
X613903Y614561D01*
X614131Y614599D01*
X614398Y614675D01*
X615728D01*
G37*
G74*
*
G75*
G36*
G01*
X618693D02*
Y611900D01*
X617971D01*
Y612926D01*
X617667D01*
X616907Y611900D01*
X616032D01*
X616945Y613079D01*
X616717Y613231D01*
X616564Y613421D01*
X616450Y613649D01*
X616412Y613915D01*
X616488Y614295D01*
X616755Y614523D01*
X617097Y614637D01*
X617135Y614641D01*
Y613839D01*
X617173Y613649D01*
X617287Y613497D01*
X617477Y613421D01*
X617971D01*
Y614181D01*
X617477D01*
X617325Y614143D01*
X617173Y614029D01*
X617135Y613839D01*
Y614641D01*
X617515Y614675D01*
X618693D01*
G37*
G74*
*
G75*
G36*
G01*
X621963Y611900D02*
X621240D01*
X621050Y612470D01*
X619986D01*
X619796Y611900D01*
X619074D01*
X620100Y614675D01*
X620176D01*
Y612964D01*
X620860D01*
X620518Y613991D01*
X620176Y612964D01*
Y614675D01*
X620936D01*
X621963Y611900D01*
G37*
G74*
*
G75*
G36*
G01*
X625042Y613269D02*
X625004Y612964D01*
X624928Y612660D01*
X624814Y612432D01*
X624662Y612204D01*
X624472Y612052D01*
X624206Y611938D01*
X623940Y611862D01*
X623636Y611824D01*
X623293Y611862D01*
X623027Y611938D01*
X622761Y612052D01*
X622571Y612204D01*
X622267Y612660D01*
X622191Y613269D01*
X622229Y613611D01*
X622267Y613877D01*
X622419Y614143D01*
X622571Y614371D01*
X622761Y614523D01*
X622913Y614588D01*
Y613269D01*
X622951Y612888D01*
X623141Y612584D01*
X623331Y612394D01*
X623598Y612356D01*
X623902Y612394D01*
X624092Y612584D01*
X624244Y612850D01*
X624320Y613040D01*
Y613269D01*
X624244Y613725D01*
X624206Y613877D01*
X624092Y613991D01*
X623864Y614181D01*
X623598Y614219D01*
X623331Y614181D01*
X623141Y613991D01*
X622989Y613725D01*
X622913Y613269D01*
Y614588D01*
X623027Y614637D01*
X623293Y614713D01*
X623636Y614751D01*
X623940Y614713D01*
X624206Y614637D01*
X624472Y614523D01*
X624662Y614371D01*
X624814Y614143D01*
X624928Y613877D01*
X625004Y613611D01*
X625042Y613269D01*
G37*
G74*
*
G75*
G36*
G01*
X627779Y614675D02*
Y611900D01*
X626297D01*
X626069Y611938D01*
X625879Y612014D01*
X625726Y612128D01*
X625498Y612394D01*
X625422Y612546D01*
Y612736D01*
X625460Y613002D01*
X625574Y613193D01*
X625764Y613307D01*
X625993Y613421D01*
X625840Y613535D01*
X625726Y613649D01*
X625650Y613839D01*
X625612Y614029D01*
Y614181D01*
X625688Y614333D01*
X625917Y614561D01*
X626145Y614618D01*
Y612736D01*
X626183Y612546D01*
X626259Y612508D01*
X626335Y612432D01*
X626563Y612394D01*
X627057D01*
Y613079D01*
X626601D01*
X626373Y613040D01*
X626259Y613002D01*
X626183Y612926D01*
X626145Y612736D01*
Y614618D01*
X626221Y614637D01*
X626335Y614660D01*
Y613877D01*
X626373Y613725D01*
X626487Y613611D01*
X626677Y613573D01*
X627057D01*
Y614181D01*
X626677D01*
X626487Y614143D01*
X626373Y614029D01*
X626335Y613877D01*
Y614660D01*
X626411Y614675D01*
X627779D01*
G37*
G74*
*
G75*
G36*
G01*
X630859Y611634D02*
Y611254D01*
X628083D01*
Y611634D01*
X630859D01*
G37*
G74*
*
G75*
G36*
G01*
X632365Y608295D02*
Y607839D01*
X631795D01*
Y606394D01*
X632365D01*
Y605900D01*
X630540D01*
Y606394D01*
X631111D01*
Y608675D01*
X631719D01*
X631757Y608485D01*
X631909Y608371D01*
X632099Y608295D01*
X632365D01*
G37*
G74*
*
G75*
G36*
G01*
X633596Y614675D02*
Y612888D01*
X633520Y612432D01*
X633406Y612242D01*
X633292Y612090D01*
X632912Y611900D01*
X632379Y611824D01*
X632075D01*
X631809Y611900D01*
X631429Y612090D01*
X631315Y612242D01*
X631201Y612432D01*
X631125Y612660D01*
Y614675D01*
X631847D01*
Y612926D01*
X631885Y612660D01*
X631961Y612508D01*
X632113Y612394D01*
X632379Y612356D01*
X632607Y612394D01*
X632760Y612508D01*
X632836Y612660D01*
X632874Y612926D01*
Y614675D01*
X633596D01*
G37*
G74*
*
G75*
G36*
G01*
X635293Y606622D02*
Y606014D01*
X634912Y605862D01*
X634608Y605824D01*
X634038D01*
X633810Y605900D01*
X633430Y606052D01*
X633202Y606356D01*
X633126Y606546D01*
Y606736D01*
X633164Y607002D01*
X633316Y607193D01*
X633506Y607307D01*
X633696Y607383D01*
Y607421D01*
X633506Y607497D01*
X633354Y607649D01*
X633240Y607839D01*
X633202Y608067D01*
Y608219D01*
X633278Y608371D01*
X633354Y608485D01*
X633506Y608599D01*
X633810Y608713D01*
X634266Y608751D01*
X634798Y608675D01*
X635026Y608637D01*
X635217Y608561D01*
Y607991D01*
X635140D01*
X634760Y608143D01*
X634380Y608219D01*
X634190D01*
X634038Y608143D01*
X633924Y608067D01*
X633886Y607953D01*
X633924Y607763D01*
X634038Y607649D01*
X634228Y607611D01*
X634646D01*
Y607117D01*
X634266D01*
X634038Y607079D01*
X633886Y606964D01*
X633848Y606774D01*
X633886Y606584D01*
X634000Y606470D01*
X634190Y606356D01*
X634646D01*
X634836Y606432D01*
X635217Y606622D01*
X635293D01*
G37*
G74*
*
G75*
G36*
G01*
X636447Y613269D02*
X636409Y612926D01*
X636333Y612660D01*
X636219Y612394D01*
X636067Y612204D01*
X635839Y612014D01*
X635611Y611900D01*
X635345Y611862D01*
X635040Y611824D01*
X634736D01*
X634470Y611900D01*
X634090Y612052D01*
Y612736D01*
X634166D01*
X634280Y612622D01*
X634470Y612508D01*
X634698Y612394D01*
X634964Y612356D01*
X635231Y612394D01*
X635459Y612546D01*
X635573Y612660D01*
X635649Y612812D01*
X635725Y613269D01*
X635649Y613725D01*
X635497Y613991D01*
X635231Y614181D01*
X634964Y614219D01*
X634698Y614181D01*
X634470Y614067D01*
X634166Y613839D01*
X634090D01*
Y614523D01*
X634470Y614675D01*
X634736Y614713D01*
X635040Y614751D01*
X635345Y614713D01*
X635611Y614637D01*
X635877Y614523D01*
X636067Y614371D01*
X636219Y614143D01*
X636333Y613877D01*
X636409Y613611D01*
X636447Y613269D01*
G37*
G74*
*
G75*
G36*
G01*
X637954Y605292D02*
X637383D01*
X635901Y608789D01*
X636471D01*
X637954Y605292D01*
G37*
G74*
*
G75*
G36*
G01*
X639907Y614675D02*
Y611900D01*
X639222D01*
Y613763D01*
X638690Y612546D01*
X638234D01*
X637702Y613763D01*
Y611900D01*
X636979D01*
Y614675D01*
X637816D01*
X638424Y613269D01*
X639070Y614675D01*
X639907D01*
G37*
G74*
*
G75*
G36*
G01*
X640615Y606622D02*
Y606014D01*
X640235Y605862D01*
X639931Y605824D01*
X639360D01*
X639132Y605900D01*
X638752Y606052D01*
X638524Y606356D01*
X638448Y606546D01*
Y606736D01*
X638486Y607002D01*
X638638Y607193D01*
X638828Y607307D01*
X639018Y607383D01*
Y607421D01*
X638828Y607497D01*
X638676Y607649D01*
X638562Y607839D01*
X638524Y608067D01*
Y608219D01*
X638600Y608371D01*
X638676Y608485D01*
X638828Y608599D01*
X639132Y608713D01*
X639588Y608751D01*
X640121Y608675D01*
X640349Y608637D01*
X640539Y608561D01*
Y607991D01*
X640463D01*
X640083Y608143D01*
X639702Y608219D01*
X639512D01*
X639360Y608143D01*
X639246Y608067D01*
X639208Y607953D01*
X639246Y607763D01*
X639360Y607649D01*
X639550Y607611D01*
X639969D01*
Y607117D01*
X639588D01*
X639360Y607079D01*
X639208Y606964D01*
X639170Y606774D01*
X639208Y606584D01*
X639322Y606470D01*
X639512Y606356D01*
X639969D01*
X640159Y606432D01*
X640539Y606622D01*
X640615D01*
G37*
G74*
*
G75*
G36*
G01*
X642986Y611634D02*
Y611254D01*
X640211D01*
Y611634D01*
X642986D01*
G37*
G74*
*
G75*
G36*
G01*
X643390Y607611D02*
Y606964D01*
X643314Y606660D01*
X643238Y606394D01*
X643124Y606204D01*
X642972Y606014D01*
X642782Y605900D01*
X642516Y605862D01*
X642212Y605824D01*
X641679Y605900D01*
X641489Y606014D01*
X641337Y606204D01*
X641223Y606394D01*
X641147Y606660D01*
X641071Y606964D01*
Y607611D01*
X641147Y607915D01*
X641223Y608143D01*
X641337Y608371D01*
X641489Y608523D01*
X641679Y608637D01*
X641793Y608670D01*
Y607269D01*
X641831Y606850D01*
X641907Y606546D01*
X642021Y606356D01*
X642212Y606318D01*
X642440Y606356D01*
X642554Y606546D01*
X642630Y606850D01*
X642668Y607269D01*
X642630Y607725D01*
X642554Y608029D01*
X642440Y608181D01*
X642212Y608257D01*
X642021Y608181D01*
X641907Y608029D01*
X641831Y607725D01*
X641793Y607269D01*
Y608670D01*
X641945Y608713D01*
X642212Y608751D01*
X642516Y608713D01*
X642744Y608637D01*
X642972Y608523D01*
X643124Y608371D01*
X643238Y608181D01*
X643314Y607915D01*
X643390Y607611D01*
G37*
G74*
*
G75*
G36*
G01*
X645153Y614295D02*
Y613839D01*
X644583D01*
Y612394D01*
X645153D01*
Y611900D01*
X643328D01*
Y612394D01*
X643898D01*
Y614675D01*
X644507D01*
X644545Y614485D01*
X644697Y614371D01*
X644887Y614295D01*
X645153D01*
G37*
G74*
*
G75*
G36*
G01*
X645975Y605292D02*
X645405D01*
X643922Y608789D01*
X644493D01*
X645975Y605292D01*
G37*
G74*
*
G75*
G36*
G01*
X648156Y613611D02*
Y612964D01*
X648080Y612660D01*
X648004Y612394D01*
X647890Y612204D01*
X647738Y612014D01*
X647548Y611900D01*
X647282Y611862D01*
X646978Y611824D01*
X646445Y611900D01*
X646255Y612014D01*
X646103Y612204D01*
X645989Y612394D01*
X645913Y612660D01*
X645837Y612964D01*
Y613611D01*
X645913Y613915D01*
X645989Y614143D01*
X646103Y614371D01*
X646255Y614523D01*
X646445Y614637D01*
X646560Y614670D01*
Y613269D01*
X646598Y612850D01*
X646674Y612546D01*
X646788Y612356D01*
X646978Y612318D01*
X647206Y612356D01*
X647320Y612546D01*
X647396Y612850D01*
X647434Y613269D01*
X647396Y613725D01*
X647320Y614029D01*
X647206Y614181D01*
X646978Y614257D01*
X646788Y614181D01*
X646674Y614029D01*
X646598Y613725D01*
X646560Y613269D01*
Y614670D01*
X646712Y614713D01*
X646978Y614751D01*
X647282Y614713D01*
X647510Y614637D01*
X647738Y614523D01*
X647890Y614371D01*
X648004Y614181D01*
X648080Y613915D01*
X648156Y613611D01*
G37*
G74*
*
G75*
G36*
G01*
X648598Y606584D02*
Y605976D01*
X648446Y605938D01*
X648218Y605862D01*
X647990Y605824D01*
X647686D01*
X647154Y605900D01*
X646964Y605976D01*
X646774Y606090D01*
X646660Y606242D01*
X646545Y606432D01*
X646469Y606622D01*
Y606812D01*
X646507Y607040D01*
X646545Y607231D01*
X646812Y607535D01*
X647116Y607649D01*
X647496Y607687D01*
X647800D01*
Y608143D01*
X646545D01*
Y608675D01*
X648484D01*
Y607117D01*
X648408D01*
X648142Y607155D01*
X647838Y607193D01*
X647572Y607155D01*
X647344Y607079D01*
X647230Y606964D01*
X647192Y606812D01*
Y606698D01*
X647230Y606584D01*
X647306Y606470D01*
X647534Y606394D01*
X647762Y606356D01*
X648180Y606432D01*
X648522Y606584D01*
X648598D01*
G37*
G74*
*
G75*
G36*
G01*
X650703Y612356D02*
Y611900D01*
X648574D01*
Y612432D01*
X649791D01*
X649677Y612508D01*
X649563Y612622D01*
X649221Y612888D01*
X648993Y613155D01*
X648802Y613383D01*
X648726Y613649D01*
X648688Y613915D01*
X648764Y614257D01*
X648955Y614523D01*
X649297Y614675D01*
X649753Y614751D01*
X650247Y614675D01*
X650475Y614637D01*
X650627Y614561D01*
Y613953D01*
X650551D01*
X650209Y614143D01*
X649867Y614219D01*
X649677Y614181D01*
X649525Y614105D01*
X649449Y613991D01*
X649411Y613801D01*
X649487Y613497D01*
X649639Y613307D01*
X649829Y613117D01*
X649981Y612926D01*
X650209Y612736D01*
X650703Y612356D01*
G37*
G74*
*
G75*
G36*
G01*
X651260Y606356D02*
Y605900D01*
X649131D01*
Y606432D01*
X650347D01*
X650233Y606508D01*
X650119Y606622D01*
X649777Y606888D01*
X649549Y607155D01*
X649359Y607383D01*
X649283Y607649D01*
X649245Y607915D01*
X649321Y608257D01*
X649511Y608523D01*
X649853Y608675D01*
X650309Y608751D01*
X650803Y608675D01*
X651031Y608637D01*
X651183Y608561D01*
Y607953D01*
X651107D01*
X650765Y608143D01*
X650423Y608219D01*
X650233Y608181D01*
X650081Y608105D01*
X650005Y607991D01*
X649967Y607801D01*
X650043Y607497D01*
X650195Y607307D01*
X650385Y607117D01*
X650537Y606926D01*
X650765Y606736D01*
X651260Y606356D01*
G37*
G74*
*
G75*
G36*
G01*
X653479Y614675D02*
Y611900D01*
X652756D01*
Y612812D01*
X652034D01*
X651806Y612888D01*
X651616Y613002D01*
X651464Y613155D01*
X651274Y613421D01*
X651198Y613801D01*
X651236Y614029D01*
X651274Y614219D01*
X651388Y614371D01*
X651540Y614485D01*
X651844Y614637D01*
X651920Y614650D01*
Y613763D01*
X651958Y613573D01*
X652034Y613459D01*
X652262Y613345D01*
X652756D01*
Y614143D01*
X652338D01*
X652148Y614105D01*
X651996Y613991D01*
X651920Y613763D01*
Y614650D01*
X652072Y614675D01*
X653479D01*
G37*
G74*
*
G75*
G36*
G01*
X654111Y607611D02*
Y606964D01*
X654035Y606660D01*
X653959Y606394D01*
X653845Y606204D01*
X653693Y606014D01*
X653502Y605900D01*
X653236Y605862D01*
X652932Y605824D01*
X652400Y605900D01*
X652210Y606014D01*
X652058Y606204D01*
X651944Y606394D01*
X651868Y606660D01*
X651792Y606964D01*
Y607611D01*
X651868Y607915D01*
X651944Y608143D01*
X652058Y608371D01*
X652210Y608523D01*
X652400Y608637D01*
X652514Y608670D01*
Y607269D01*
X652552Y606850D01*
X652628Y606546D01*
X652742Y606356D01*
X652932Y606318D01*
X653160Y606356D01*
X653274Y606546D01*
X653350Y606850D01*
X653388Y607269D01*
X653350Y607725D01*
X653274Y608029D01*
X653160Y608181D01*
X652932Y608257D01*
X652742Y608181D01*
X652628Y608029D01*
X652552Y607725D01*
X652514Y607269D01*
Y608670D01*
X652666Y608713D01*
X652932Y608751D01*
X653236Y608713D01*
X653464Y608637D01*
X653693Y608523D01*
X653845Y608371D01*
X653959Y608181D01*
X654035Y607915D01*
X654111Y607611D01*
G37*
G74*
*
G75*
G36*
G01*
X656596Y614675D02*
Y612888D01*
X656520Y612432D01*
X656406Y612242D01*
X656292Y612090D01*
X655912Y611900D01*
X655379Y611824D01*
X655075D01*
X654809Y611900D01*
X654429Y612090D01*
X654315Y612242D01*
X654201Y612432D01*
X654125Y612660D01*
Y614675D01*
X654847D01*
Y612926D01*
X654885Y612660D01*
X654961Y612508D01*
X655113Y612394D01*
X655379Y612356D01*
X655607Y612394D01*
X655760Y612508D01*
X655836Y612660D01*
X655874Y612926D01*
Y614675D01*
X656596D01*
G37*
G74*
*
G75*
G36*
G01*
X656658Y606356D02*
Y605900D01*
X654529D01*
Y606432D01*
X655745D01*
X655631Y606508D01*
X655517Y606622D01*
X655175Y606888D01*
X654947Y607155D01*
X654757Y607383D01*
X654681Y607649D01*
X654643Y607915D01*
X654719Y608257D01*
X654909Y608523D01*
X655251Y608675D01*
X655707Y608751D01*
X656202Y608675D01*
X656430Y608637D01*
X656582Y608561D01*
Y607953D01*
X656506D01*
X656164Y608143D01*
X655821Y608219D01*
X655631Y608181D01*
X655479Y608105D01*
X655403Y607991D01*
X655365Y607801D01*
X655441Y607497D01*
X655593Y607307D01*
X655783Y607117D01*
X655936Y606926D01*
X656164Y606736D01*
X656658Y606356D01*
G37*
G74*
*
*
G04 PC Custom Flashes*
G04 Layer Name UP201 MCU BOARD 2V0-250 - flashes*
%LPD*%
*
*
G04 PC Circuitry*
G04 Layer Name UP201 MCU BOARD 2V0-250 - circuitry*
%LPD*%
*
G54D10*
G01X663686Y735659D02*
X662111D01*
X663686Y726998D02*
X661718D01*
X670828Y728277D02*
G75*
G03X670828I-844J0D01*
G01X600000Y840157D02*
X642835D01*
Y820276*
X642903*
X642905D02*
G03X642902Y816929I108J-1674D01*
G01X642903D02*
X679311D01*
G03Y820276I38J1673*
G01X679213*
Y840157*
X722047*
Y600000*
X600000*
Y840157*
G54D29*
X670649Y657704D02*
X662649D01*
Y653704*
X670649*
Y657704*
X666649Y654704D02*
Y656704D01*
X682149Y708454D02*
X674149D01*
Y704454*
X682149*
Y708454*
X678149Y705454D02*
Y707454D01*
X670875Y707625D02*
X662875D01*
Y703625*
X670875*
Y707625*
X666875Y704625D02*
Y706625D01*
X649250Y693375D02*
Y685375D01*
X653250*
Y693375*
X649250*
X652250Y689375D02*
X650250D01*
X672375Y703200D02*
Y695200D01*
X676375*
Y703200*
X672375*
X675375Y699200D02*
X673375D01*
X671375Y695200D02*
Y703200D01*
X667375*
Y695200*
X671375*
X668375Y699200D02*
X670375D01*
X640649Y745829D02*
X632649D01*
Y741829*
X640649*
Y745829*
X636649Y742829D02*
Y744829D01*
X633140Y747628D02*
X634163Y746604D01*
X641407*
Y756053*
X633140*
Y747628*
X632274Y748061D02*
X631447Y747234D01*
Y749045*
X632352Y748140*
X668399Y630329D02*
Y622329D01*
X672399*
Y630329*
X668399*
X671399Y626329D02*
X669399D01*
X656524Y630329D02*
Y622329D01*
X660524*
Y630329*
X656524*
X659524Y626329D02*
X657524D01*
X684899Y606079D02*
Y614079D01*
X680899*
Y606079*
X684899*
X681899Y610079D02*
X683899D01*
X679899Y615454D02*
Y623454D01*
X675899*
Y615454*
X679899*
X676899Y619454D02*
X678899D01*
X684899Y615454D02*
Y623454D01*
X680899*
Y615454*
X684899*
X681899Y619454D02*
X683899D01*
X644024Y693454D02*
Y685454D01*
X648024*
Y693454*
X644024*
X647024Y689454D02*
X645024D01*
X625899Y759704D02*
Y751704D01*
X629899*
Y759704*
X625899*
X628899Y755704D02*
X626899D01*
X692649Y681204D02*
X700649D01*
Y685204*
X692649*
Y681204*
X696649Y684204D02*
Y682204D01*
X670649Y652079D02*
X662649D01*
Y648079*
X670649*
Y652079*
X666649Y649079D02*
Y651079D01*
X704899Y773579D02*
Y781579D01*
X700899*
Y773579*
X704899*
X701899Y777579D02*
X703899D01*
X694899Y773579D02*
Y781579D01*
X690899*
Y773579*
X694899*
X691899Y777579D02*
X693899D01*
X624899Y751704D02*
Y759704D01*
X620899*
Y751704*
X624899*
X621899Y755704D02*
X623899D01*
X629899Y725454D02*
Y733454D01*
X625899*
Y725454*
X629899*
X626899Y729454D02*
X628899D01*
X700157Y761905D02*
X699134Y762928D01*
X691890*
Y753479*
X700157*
Y761905*
X701024Y761471D02*
X701850Y762298D01*
Y760487*
X700945Y761393*
X695849Y781729D02*
Y773729D01*
X699849*
Y781729*
X695849*
X698849Y777729D02*
X696849D01*
X671524Y657204D02*
Y649204D01*
X675524*
Y657204*
X671524*
X674524Y653204D02*
X672524D01*
X685149Y676204D02*
X693149D01*
Y680204*
X685149*
Y676204*
X689149Y679204D02*
Y677204D01*
X670524Y780454D02*
Y788454D01*
X666524*
Y780454*
X670524*
X667524Y784454D02*
X669524D01*
X682149Y713454D02*
X674149D01*
Y709454*
X682149*
Y713454*
X678149Y710454D02*
Y712454D01*
X618399Y780954D02*
Y772954D01*
X622399*
Y780954*
X618399*
X621399Y776954D02*
X619399D01*
X638399Y693454D02*
Y685454D01*
X642399*
Y693454*
X638399*
X641399Y689454D02*
X639399D01*
X638149Y698954D02*
X630149D01*
Y694954*
X638149*
Y698954*
X634149Y695954D02*
Y697954D01*
X637649Y778079D02*
X645649D01*
Y782079*
X637649*
Y778079*
X641649Y781079D02*
Y779079D01*
X637649Y783079D02*
X645649D01*
Y787079*
X637649*
Y783079*
X641649Y786079D02*
Y784079D01*
X662899Y713829D02*
X670899D01*
Y717829*
X662899*
Y713829*
X666899Y716829D02*
Y714829D01*
X682149Y718454D02*
X674149D01*
Y714454*
X682149*
Y718454*
X678149Y715454D02*
Y717454D01*
X656149Y780454D02*
Y788454D01*
X652149*
Y780454*
X656149*
X653149Y784454D02*
X655149D01*
X651149Y780454D02*
Y788454D01*
X647149*
Y780454*
X651149*
X648149Y784454D02*
X650149D01*
X676774Y636079D02*
Y644079D01*
X672774*
Y636079*
X676774*
X673774Y640079D02*
X675774D01*
X662899Y708829D02*
X670899D01*
Y712829*
X662899*
Y708829*
X666899Y711829D02*
Y709829D01*
X689899Y714204D02*
Y722204D01*
X685899*
Y714204*
X689899*
X686899Y718204D02*
X688899D01*
X670899Y619079D02*
Y611079D01*
X674899*
Y619079*
X670899*
X673899Y615079D02*
X671899D01*
X637250Y636750D02*
X645250D01*
Y640750*
X637250*
Y636750*
X641250Y639750D02*
Y637750D01*
G54D30*
X629399Y799454D02*
X618399D01*
Y793454*
X629399*
Y799454*
X650524Y796454D02*
X661524D01*
Y802454*
X650524*
Y796454*
X673399Y802454D02*
X662399D01*
Y796454*
X673399*
Y802454*
G54D32*
X668899Y687829D02*
X661899D01*
G03Y684829I1750J-1500*
G01X668899*
G03Y687829I-1750J1500*
G01Y683454D02*
X661899D01*
G03Y680454I1750J-1500*
G01X668899*
G03Y683454I-1750J1500*
G01X677750Y696000D02*
X684750D01*
G03Y699000I-1750J1500*
G01X677750*
G03Y696000I1750J-1500*
G01X623149Y725954D02*
Y732954D01*
G03X620149I-1500J-1750*
G01Y725954*
G03X623149I1500J1750*
G01X677750Y699750D02*
X684750D01*
G03Y702750I-1750J1500*
G01X677750*
G03Y699750I1750J-1500*
G01X702649Y791579D02*
X695649D01*
G03Y788579I1750J-1500*
G01X702649*
G03Y791579I-1750J1500*
G01X703899Y649829D02*
Y642829D01*
G03X706899I1500J1750*
G01Y649829*
G03X703899I-1500J-1750*
G01X633774Y685954D02*
Y692954D01*
G03X630774I-1500J-1750*
G01Y685954*
G03X633774I1500J1750*
G01X679399Y780954D02*
Y787954D01*
G03X676399I-1500J-1750*
G01Y780954*
G03X679399I1500J1750*
G01X693149Y765454D02*
X700149D01*
G03Y768454I-1750J1500*
G01X693149*
G03Y765454I1750J-1500*
G01X651899Y808454D02*
Y815454D01*
G03X648899I-1500J-1750*
G01Y808454*
G03X651899I1500J1750*
G01X655649D02*
Y815454D01*
G03X652649I-1500J-1750*
G01Y808454*
G03X655649I1500J1750*
G01X669399D02*
Y815454D01*
G03X666399I-1500J-1750*
G01Y808454*
G03X669399I1500J1750*
G01X673149D02*
Y815454D01*
G03X670149I-1500J-1750*
G01Y808454*
G03X673149I1500J1750*
G01X619399Y745454D02*
X626399D01*
G03Y748454I-1750J1500*
G01X619399*
G03Y745454I1750J-1500*
G01X674399Y780954D02*
Y787954D01*
G03X671399I-1500J-1750*
G01Y780954*
G03X674399I1500J1750*
G01X642649Y764704D02*
X635649D01*
G03Y761704I1750J-1500*
G01X642649*
G03Y764704I-1750J1500*
G01X681399Y672954D02*
Y665954D01*
G03X684399I1500J1750*
G01Y672954*
G03X681399I-1500J-1750*
G01X658274Y657329D02*
Y650329D01*
G03X661274I1500J1750*
G01Y657329*
G03X658274I-1500J-1750*
G01X642649Y759704D02*
X635649D01*
G03Y756704I1750J-1500*
G01X642649*
G03Y759704I-1750J1500*
G01X653149Y667954D02*
X660149D01*
G03Y670954I-1750J1500*
G01X653149*
G03Y667954I1750J-1500*
G01X704399Y761579D02*
Y768579D01*
G03X701399I-1500J-1750*
G01Y761579*
G03X704399I1500J1750*
G01X696274Y687204D02*
Y694204D01*
G03X693274I-1500J-1750*
G01Y687204*
G03X696274I1500J1750*
G01X624399Y663579D02*
X631399D01*
G03Y666579I-1750J1500*
G01X624399*
G03Y663579I1750J-1500*
G01X636399Y661079D02*
Y654079D01*
G03X639399I1500J1750*
G01Y661079*
G03X636399I-1500J-1750*
G01X657399Y632254D02*
Y639254D01*
G03X654399I-1500J-1750*
G01Y632254*
G03X657399I1500J1750*
G01X637524Y685954D02*
Y692954D01*
G03X634524I-1500J-1750*
G01Y685954*
G03X637524I1500J1750*
G54D33*
G01X668699Y663885D02*
Y661654D01*
Y663885D02*
X667921D01*
X667662Y663779*
X667576Y663672*
X667490Y663460*
Y663247*
X667576Y663035*
X667662Y662929*
X667921Y662822*
X668699*
X668094D02*
X667490Y661654D01*
X665849Y663885D02*
X666712Y662397D01*
X665417*
X665849Y663885D02*
Y661654D01*
X664640Y663460D02*
X664467Y663566D01*
X664208Y663885*
Y661654*
X686699Y707885D02*
Y705654D01*
Y707885D02*
X685921D01*
X685662Y707779*
X685576Y707672*
X685490Y707460*
Y707247*
X685576Y707035*
X685662Y706929*
X685921Y706822*
X686699*
X686094D02*
X685490Y705654D01*
X684712Y707460D02*
X684540Y707566D01*
X684280Y707885*
Y705654*
X683503Y707460D02*
X683330Y707566D01*
X683071Y707885*
Y705654*
X675403Y687354D02*
X675490Y687566D01*
X675662Y687779*
X675835Y687885*
X676180*
X676353Y687779*
X676526Y687566*
X676612Y687354*
X676699Y687035*
Y686504*
X676612Y686185*
X676526Y685972*
X676353Y685760*
X676180Y685654*
X675835*
X675662Y685760*
X675490Y685972*
X675403Y686185*
X674626Y687885D02*
Y685654D01*
Y687885D02*
X673849D01*
X673590Y687779*
X673503Y687672*
X673417Y687460*
Y687247*
X673503Y687035*
X673590Y686929*
X673849Y686822*
X674626D02*
X673849D01*
X673590Y686716*
X673503Y686610*
X673417Y686397*
Y686079*
X673503Y685866*
X673590Y685760*
X673849Y685654*
X674626*
X672640Y687460D02*
X672467Y687566D01*
X672208Y687885*
Y685654*
X671430Y687460D02*
X671258Y687566D01*
X670999Y687885*
Y685654*
X675403Y682354D02*
X675490Y682566D01*
X675662Y682779*
X675835Y682885*
X676180*
X676353Y682779*
X676526Y682566*
X676612Y682354*
X676699Y682035*
Y681504*
X676612Y681185*
X676526Y680972*
X676353Y680760*
X676180Y680654*
X675835*
X675662Y680760*
X675490Y680972*
X675403Y681185*
X674626Y682885D02*
Y680654D01*
Y682885D02*
X673849D01*
X673590Y682779*
X673503Y682672*
X673417Y682460*
Y682247*
X673503Y682035*
X673590Y681929*
X673849Y681822*
X674626D02*
X673849D01*
X673590Y681716*
X673503Y681610*
X673417Y681397*
Y681079*
X673503Y680866*
X673590Y680760*
X673849Y680654*
X674626*
X671517Y682885D02*
X672380D01*
X672467Y681929*
X672380Y682035*
X672121Y682141*
X671862*
X671603Y682035*
X671430Y681822*
X671344Y681504*
X671430Y681291*
X671517Y680972*
X671690Y680760*
X671949Y680654*
X672208*
X672467Y680760*
X672553Y680866*
X672640Y681079*
X691936Y698500D02*
X692027Y698725D01*
X692209Y698950*
X692391Y699063*
X692391D02*
X692755D01*
X692755D02*
X692936Y698950D01*
X693118Y698725*
X693209Y698500*
X693300Y698163*
X693300D02*
Y697600D01*
X693209Y697263*
X693209D02*
X693118Y697038D01*
X693118D02*
X692936Y696813D01*
X692936D02*
X692755Y696700D01*
X692391*
X692209Y696813*
X692209D02*
X692027Y697038D01*
X692027D02*
X691936Y697263D01*
X691118Y699063D02*
Y696700D01*
Y699063D02*
X690300D01*
X690300D02*
X690027Y698950D01*
X689936Y698838*
X689936D02*
X689845Y698613D01*
X689845D02*
Y698388D01*
X689845D02*
X689936Y698163D01*
X689936D02*
X690027Y698050D01*
X690300Y697938*
X691118D02*
X690300D01*
X690300D02*
X690027Y697825D01*
X689936Y697713*
X689936D02*
X689845Y697488D01*
X689845D02*
Y697150D01*
X689936Y696925*
X690027Y696813*
X690027D02*
X690300Y696700D01*
X691118*
X688936Y698500D02*
Y698613D01*
X688936D02*
X688845Y698838D01*
X688845D02*
X688755Y698950D01*
X688573Y699063*
X688573D02*
X688209D01*
X688209D02*
X688027Y698950D01*
X687936Y698838*
X687936D02*
X687845Y698613D01*
X687845D02*
Y698388D01*
X687845D02*
X687936Y698163D01*
X687936D02*
X688118Y697825D01*
X689027Y696700*
X687755*
X686845Y698500D02*
Y698613D01*
X686845D02*
X686755Y698838D01*
X686755D02*
X686664Y698950D01*
X686482Y699063*
X686482D02*
X686118D01*
X686118D02*
X685936Y698950D01*
X685845Y698838*
X685845D02*
X685755Y698613D01*
X685755D02*
Y698388D01*
X685755D02*
X685845Y698163D01*
X685845D02*
X686027Y697825D01*
X686936Y696700*
X685664*
X661800Y706931D02*
Y704700D01*
Y706931D02*
X661023D01*
X660764Y706825*
X660677Y706719*
X660591Y706506*
Y706294*
X660677Y706081*
X660764Y705975*
X661023Y705869*
X661800*
X661195D02*
X660591Y704700D01*
X659382Y706931D02*
X659641Y706825D01*
X659727Y706613*
Y706400*
X659641Y706188*
X659468Y706081*
X659123Y705975*
X658864Y705869*
X658691Y705656*
X658605Y705444*
Y705125*
X658691Y704913*
X658777Y704806*
X659036Y704700*
X659382*
X659641Y704806*
X659727Y704913*
X659814Y705125*
Y705444*
X659727Y705656*
X659555Y705869*
X659295Y705975*
X658950Y706081*
X658777Y706188*
X658691Y706400*
Y706613*
X658777Y706825*
X659036Y706931*
X659382*
X657827Y706506D02*
X657655Y706613D01*
X657395Y706931*
Y704700*
X649069Y684300D02*
X651300D01*
X649069D02*
Y683523D01*
X649175Y683264*
X649281Y683177*
X649494Y683091*
X649706*
X649919Y683177*
X650025Y683264*
X650131Y683523*
Y684300*
Y683695D02*
X651300Y683091D01*
X649069Y681105D02*
X651300Y681968D01*
X649069Y682314D02*
Y681105D01*
Y679118D02*
X651300Y679982D01*
X649069Y680327D02*
Y679118D01*
X662937Y701800D02*
X665300D01*
X662937D02*
Y700982D01*
X662937D02*
X663050Y700709D01*
X663162Y700618*
X663162D02*
X663387Y700527D01*
X663387D02*
X663612D01*
X663612D02*
X663837Y700618D01*
X663837D02*
X663950Y700709D01*
X664062Y700982*
X664062D02*
Y701800D01*
Y701164D02*
X665300Y700527D01*
X662937Y699255D02*
X663050Y699527D01*
X663275Y699618*
X663500*
X663725Y699527*
X663837Y699345*
X663837D02*
X663950Y698982D01*
X664062Y698709*
X664062D02*
X664287Y698527D01*
X664287D02*
X664512Y698436D01*
X664512D02*
X664850D01*
X665075Y698527*
X665187Y698618*
X665187D02*
X665300Y698891D01*
Y699255*
X665187Y699527*
X665187D02*
X665075Y699618D01*
X664850Y699709*
X664512*
X664512D02*
X664287Y699618D01*
X664287D02*
X664062Y699436D01*
X664062D02*
X663950Y699164D01*
X663837Y698800*
X663837D02*
X663725Y698618D01*
X663500Y698527*
X663275*
X663050Y698618*
X662937Y698891*
X662937D02*
Y699255D01*
Y696436D02*
Y697345D01*
X662937D02*
X663950Y697436D01*
X663837Y697345*
X663837D02*
X663725Y697073D01*
Y696800*
X663837Y696527*
X663837D02*
X664062Y696345D01*
X664062D02*
X664400Y696255D01*
X664625Y696345*
X664962Y696436*
X664962D02*
X665187Y696618D01*
X665187D02*
X665300Y696891D01*
Y697164*
X665187Y697436*
X665187D02*
X665075Y697527D01*
X664850Y697618*
X659937Y701800D02*
X662300D01*
X659937D02*
Y700982D01*
X659937D02*
X660050Y700709D01*
X660162Y700618*
X660162D02*
X660387Y700527D01*
X660387D02*
X660612D01*
X660612D02*
X660837Y700618D01*
X660837D02*
X660950Y700709D01*
X661062Y700982*
X661062D02*
Y701800D01*
Y701164D02*
X662300Y700527D01*
X659937Y699255D02*
X660050Y699527D01*
X660275Y699618*
X660500*
X660725Y699527*
X660837Y699345*
X660837D02*
X660950Y698982D01*
X661062Y698709*
X661062D02*
X661287Y698527D01*
X661287D02*
X661512Y698436D01*
X661512D02*
X661850D01*
X662075Y698527*
X662187Y698618*
X662187D02*
X662300Y698891D01*
Y699255*
X662187Y699527*
X662187D02*
X662075Y699618D01*
X661850Y699709*
X661512*
X661512D02*
X661287Y699618D01*
X661287D02*
X661062Y699436D01*
X661062D02*
X660950Y699164D01*
X660837Y698800*
X660837D02*
X660725Y698618D01*
X660500Y698527*
X660275*
X660050Y698618*
X659937Y698891*
X659937D02*
Y699255D01*
Y696709D02*
X661512Y697618D01*
X661512D02*
Y696255D01*
X659937Y696709D02*
X662300D01*
X616999Y731958D02*
X616786Y732045D01*
X616574Y732217*
X616467Y732390*
Y732736*
X616574Y732908*
X616786Y733081*
X616999Y733167*
X617317Y733254*
X617849*
X618167Y733167*
X618380Y733081*
X618592Y732908*
X618699Y732736*
Y732390*
X618592Y732217*
X618380Y732045*
X618167Y731958*
X616467Y731181D02*
X618699D01*
X616467D02*
Y730404D01*
X616574Y730145*
X616680Y730058*
X616892Y729972*
X617105*
X617317Y730058*
X617424Y730145*
X617530Y730404*
Y731181D02*
Y730404D01*
X617636Y730145*
X617742Y730058*
X617955Y729972*
X618274*
X618486Y730058*
X618592Y730145*
X618699Y730404*
Y731181*
X616999Y729108D02*
X616892D01*
X616680Y729022*
X616574Y728936*
X616467Y728763*
Y728417*
X616574Y728245*
X616680Y728158*
X616892Y728072*
X617105*
X617317Y728158*
X617636Y728331*
X618699Y729195*
Y727986*
X616892Y727208D02*
X616786Y727036D01*
X616467Y726776*
X618699*
X639699Y740885D02*
Y738654D01*
Y740885D02*
X638921D01*
X638662Y740779*
X638576Y740672*
X638490Y740460*
Y740247*
X638576Y740035*
X638662Y739929*
X638921Y739822*
X639699*
X639094D02*
X638490Y738654D01*
X636503Y740885D02*
X637367Y738654D01*
X637712Y740885D02*
X636503D01*
X635726Y740460D02*
X635553Y740566D01*
X635294Y740885*
Y738654*
X631699Y746885D02*
Y745291D01*
X631612Y744972*
X631440Y744760*
X631180Y744654*
X631008*
X630749Y744760*
X630576Y744972*
X630490Y745291*
Y746885*
X629712Y746460D02*
X629540Y746566D01*
X629280Y746885*
Y744654*
X628503Y746460D02*
X628330Y746566D01*
X628071Y746885*
Y744654*
X698999Y698958D02*
X698786Y699045D01*
X698574Y699217*
X698467Y699390*
Y699736*
X698574Y699908*
X698786Y700081*
X698999Y700167*
X699317Y700254*
X699849*
X700167Y700167*
X700380Y700081*
X700592Y699908*
X700699Y699736*
Y699390*
X700592Y699217*
X700380Y699045*
X700167Y698958*
X698892Y698181D02*
X698786Y698008D01*
X698467Y697749*
X700699*
X649999Y627958D02*
X649786Y628045D01*
X649574Y628217*
X649467Y628390*
Y628736*
X649574Y628908*
X649786Y629081*
X649999Y629167*
X650317Y629254*
X650849*
X651167Y629167*
X651380Y629081*
X651592Y628908*
X651699Y628736*
Y628390*
X651592Y628217*
X651380Y628045*
X651167Y627958*
X649892Y627181D02*
X649786Y627008D01*
X649467Y626749*
X651699*
X650211Y624849D02*
X650530Y624936D01*
X650742Y625108*
X650849Y625367*
Y625454*
X650742Y625713*
X650530Y625886*
X650211Y625972*
X650105*
X649786Y625886*
X649574Y625713*
X649467Y625454*
Y625367*
X649574Y625108*
X649786Y624936*
X650211Y624849*
X650742*
X651274Y624936*
X651592Y625108*
X651699Y625367*
Y625540*
X651592Y625799*
X651380Y625886*
X665705Y611800D02*
X665791Y612013D01*
X665791D02*
X665964Y612225D01*
X666136Y612331*
X666482*
X666655Y612225*
X666827Y612013*
X666827D02*
X666914Y611800D01*
X667000Y611481*
Y610950*
X666914Y610631*
X666827Y610419*
X666655Y610206*
X666482Y610100*
X666136*
X665964Y610206*
X665791Y610419*
X665705Y610631*
X664927Y611906D02*
X664755Y612013D01*
X664755D02*
X664495Y612331D01*
Y610100*
X662509Y612331D02*
X663373Y610100D01*
X663718Y612331D02*
X662509D01*
X652467Y629254D02*
X654699D01*
X652467D02*
Y628476D01*
X652574Y628217*
X652680Y628131*
X652892Y628045*
X653105*
X653317Y628131*
X653424Y628217*
X653530Y628476*
Y629254*
Y628649D02*
X654699Y628045D01*
X652467Y626404D02*
X653955Y627267D01*
Y625972*
X652467Y626404D02*
X654699D01*
X652467Y624763D02*
X652574Y625022D01*
X652786Y625108*
X652999*
X653211Y625022*
X653317Y624849*
X653424Y624504*
X653530Y624245*
X653742Y624072*
X653955Y623986*
X654274*
X654486Y624072*
X654592Y624158*
X654699Y624417*
Y624763*
X654592Y625022*
X654486Y625108*
X654274Y625195*
X653955*
X653742Y625108*
X653530Y624936*
X653424Y624676*
X653317Y624331*
X653211Y624158*
X652999Y624072*
X652786*
X652574Y624158*
X652467Y624417*
Y624763*
X646467Y629254D02*
X648699D01*
X646467D02*
Y628476D01*
X646574Y628217*
X646680Y628131*
X646892Y628045*
X647105*
X647317Y628131*
X647424Y628217*
X647530Y628476*
Y629254*
Y628649D02*
X648699Y628045D01*
X646892Y627267D02*
X646786Y627095D01*
X646467Y626836*
X648699*
X646467Y624849D02*
X648699Y625713D01*
X646467Y626058D02*
Y624849D01*
X686467Y612254D02*
X688699D01*
X686467D02*
Y611476D01*
X686574Y611217*
X686680Y611131*
X686892Y611045*
X687105*
X687317Y611131*
X687424Y611217*
X687530Y611476*
Y612254*
Y611649D02*
X688699Y611045D01*
X686467Y609404D02*
X687955Y610267D01*
Y608972*
X686467Y609404D02*
X688699D01*
X687211Y607072D02*
X687530Y607158D01*
X687742Y607331*
X687849Y607590*
Y607676*
X687742Y607936*
X687530Y608108*
X687211Y608195*
X687105*
X686786Y608108*
X686574Y607936*
X686467Y607676*
Y607590*
X686574Y607331*
X686786Y607158*
X687211Y607072*
X687742*
X688274Y607158*
X688592Y607331*
X688699Y607590*
Y607763*
X688592Y608022*
X688380Y608108*
X686467Y622254D02*
X688699D01*
X686467D02*
Y621476D01*
X686574Y621217*
X686680Y621131*
X686892Y621045*
X687105*
X687317Y621131*
X687424Y621217*
X687530Y621476*
Y622254*
Y621649D02*
X688699Y621045D01*
X686467Y619404D02*
X687955Y620267D01*
Y618972*
X686467Y619404D02*
X688699D01*
X686786Y617158D02*
X686574Y617245D01*
X686467Y617504*
Y617676*
X686574Y617936*
X686892Y618108*
X687424Y618195*
X687955*
X688380Y618108*
X688592Y617936*
X688699Y617676*
Y617590*
X688592Y617331*
X688380Y617158*
X688061Y617072*
X687955*
X687636Y617158*
X687424Y617331*
X687317Y617590*
Y617676*
X687424Y617936*
X687636Y618108*
X687955Y618195*
X689467Y622254D02*
X691699D01*
X689467D02*
Y621476D01*
X689574Y621217*
X689680Y621131*
X689892Y621045*
X690105*
X690317Y621131*
X690424Y621217*
X690530Y621476*
Y622254*
Y621649D02*
X691699Y621045D01*
X689467Y619404D02*
X690955Y620267D01*
Y618972*
X689467Y619404D02*
X691699D01*
X689467Y616986D02*
X691699Y617849D01*
X689467Y618195D02*
Y616986D01*
X687403Y631354D02*
X687490Y631566D01*
X687662Y631779*
X687835Y631885*
X688180*
X688353Y631779*
X688526Y631566*
X688612Y631354*
X688699Y631035*
Y630504*
X688612Y630185*
X688526Y629972*
X688353Y629760*
X688180Y629654*
X687835*
X687662Y629760*
X687490Y629972*
X687403Y630185*
X686626Y631460D02*
X686453Y631566D01*
X686194Y631885*
Y629654*
X684985Y631885D02*
X685244Y631779D01*
X685330Y631566*
Y631354*
X685244Y631141*
X685071Y631035*
X684726Y630929*
X684467Y630822*
X684294Y630610*
X684208Y630397*
Y630079*
X684294Y629866*
X684380Y629760*
X684640Y629654*
X684985*
X685244Y629760*
X685330Y629866*
X685417Y630079*
Y630397*
X685330Y630610*
X685158Y630822*
X684899Y630929*
X684553Y631035*
X684380Y631141*
X684294Y631354*
Y631566*
X684380Y631779*
X684640Y631885*
X684985*
X688999Y641958D02*
X688786Y642045D01*
X688574Y642217*
X688467Y642390*
Y642736*
X688574Y642908*
X688786Y643081*
X688999Y643167*
X689317Y643254*
X689849*
X690167Y643167*
X690380Y643081*
X690592Y642908*
X690699Y642736*
Y642390*
X690592Y642217*
X690380Y642045*
X690167Y641958*
X688999Y641095D02*
X688892D01*
X688680Y641008*
X688574Y640922*
X688467Y640749*
Y640404*
X688574Y640231*
X688680Y640145*
X688892Y640058*
X689105*
X689317Y640145*
X689636Y640317*
X690699Y641181*
Y639972*
X688467Y638676D02*
X688574Y638936D01*
X688892Y639108*
X689424Y639195*
X689742*
X690274Y639108*
X690592Y638936*
X690699Y638676*
Y638504*
X690592Y638245*
X690274Y638072*
X689742Y637986*
X689424*
X688892Y638072*
X688574Y638245*
X688467Y638504*
Y638676*
X690130Y701900D02*
X690216Y702113D01*
X690216D02*
X690389Y702325D01*
X690561Y702431*
X690907*
X691080Y702325*
X691252Y702113*
X691252D02*
X691339Y701900D01*
X691425Y701581*
Y701050*
X691339Y700731*
X691252Y700519*
X691080Y700306*
X690907Y700200*
X690561*
X690389Y700306*
X690216Y700519*
X690130Y700731*
X689352Y702431D02*
Y700200D01*
Y702431D02*
X688575D01*
X688316Y702325*
X688230Y702219*
X688143Y702006*
Y701794*
X688230Y701581*
X688316Y701475*
X688575Y701369*
X689352D02*
X688575D01*
X688316Y701263*
X688316D02*
X688230Y701156D01*
X688143Y700944*
Y700625*
X688230Y700413*
X688230D02*
X688316Y700306D01*
X688575Y700200*
X689352*
X687280Y701900D02*
Y702006D01*
X687193Y702219*
X687107Y702325*
X686934Y702431*
X686589*
X686416Y702325*
X686330Y702219*
X686243Y702006*
Y701794*
X686330Y701581*
X686502Y701263*
X686502D02*
X687366Y700200D01*
X686157*
X644467Y684254D02*
X646699D01*
X644467D02*
Y683476D01*
X644574Y683217*
X644680Y683131*
X644892Y683045*
X645105*
X645317Y683131*
X645424Y683217*
X645530Y683476*
Y684254*
Y683649D02*
X646699Y683045D01*
X644467Y681058D02*
X646699Y681922D01*
X644467Y682267D02*
Y681058D01*
Y679849D02*
X644574Y680108D01*
X644786Y680195*
X644999*
X645211Y680108*
X645317Y679936*
X645424Y679590*
X645530Y679331*
X645742Y679158*
X645955Y679072*
X646274*
X646486Y679158*
X646592Y679245*
X646699Y679504*
Y679849*
X646592Y680108*
X646486Y680195*
X646274Y680281*
X645955*
X645742Y680195*
X645530Y680022*
X645424Y679763*
X645317Y679417*
X645211Y679245*
X644999Y679158*
X644786*
X644574Y679245*
X644467Y679504*
Y679849*
X630467Y758254D02*
X632699D01*
X630467D02*
Y757476D01*
X630574Y757217*
X630680Y757131*
X630892Y757045*
X631105*
X631317Y757131*
X631424Y757217*
X631530Y757476*
Y758254*
Y757649D02*
X632699Y757045D01*
X630467Y755404D02*
X631955Y756267D01*
Y754972*
X630467Y755404D02*
X632699D01*
X630467Y753331D02*
X631955Y754195D01*
Y752899*
X630467Y753331D02*
X632699D01*
X619699Y718885D02*
Y716654D01*
Y718885D02*
X618921D01*
X618662Y718779*
X618576Y718672*
X618490Y718460*
Y718247*
X618576Y718035*
X618662Y717929*
X618921Y717822*
X619699*
X619094D02*
X618490Y716654D01*
X617626Y718354D02*
Y718460D01*
X617540Y718672*
X617453Y718779*
X617280Y718885*
X616935*
X616762Y718779*
X616676Y718672*
X616590Y718460*
Y718247*
X616676Y718035*
X616849Y717716*
X617712Y716654*
X616503*
X614603Y718885D02*
X615467D01*
X615553Y717929*
X615467Y718035*
X615208Y718141*
X614949*
X614690Y718035*
X614517Y717822*
X614430Y717504*
X614517Y717291*
X614603Y716972*
X614776Y716760*
X615035Y716654*
X615294*
X615553Y716760*
X615640Y716866*
X615726Y717079*
X699699Y679885D02*
Y677654D01*
Y679885D02*
X698921D01*
X698662Y679779*
X698576Y679672*
X698490Y679460*
Y679247*
X698576Y679035*
X698662Y678929*
X698921Y678822*
X699699*
X699094D02*
X698490Y677654D01*
X696503Y679885D02*
X697367Y677654D01*
X697712Y679885D02*
X696503D01*
X695640Y679354D02*
Y679460D01*
X695553Y679672*
X695467Y679779*
X695294Y679885*
X694949*
X694776Y679779*
X694690Y679672*
X694603Y679460*
Y679247*
X694690Y679035*
X694862Y678716*
X695726Y677654*
X694517*
X699803Y802229D02*
X699890Y802441D01*
X700062Y802654*
X700235Y802760*
X700580*
X700753Y802654*
X700926Y802441*
X701012Y802229*
X701099Y801910*
Y801379*
X701012Y801060*
X700926Y800847*
X700753Y800635*
X700580Y800529*
X700235*
X700062Y800635*
X699890Y800847*
X699803Y801060*
X697903Y802760D02*
X698767D01*
X698853Y801804*
X698767Y801910*
X698508Y802016*
X698249*
X697990Y801910*
X697817Y801697*
X697730Y801379*
X697817Y801166*
X697903Y800847*
X698076Y800635*
X698335Y800529*
X698594*
X698853Y800635*
X698940Y800741*
X699026Y800954*
X696953Y802335D02*
X696780Y802441D01*
X696521Y802760*
Y800529*
X692403Y791354D02*
X692490Y791566D01*
X692662Y791779*
X692835Y791885*
X693180*
X693353Y791779*
X693526Y791566*
X693612Y791354*
X693699Y791035*
Y790504*
X693612Y790185*
X693526Y789972*
X693353Y789760*
X693180Y789654*
X692835*
X692662Y789760*
X692490Y789972*
X692403Y790185*
X690503Y791885D02*
X691367D01*
X691453Y790929*
X691367Y791035*
X691108Y791141*
X690849*
X690590Y791035*
X690417Y790822*
X690330Y790504*
X690417Y790291*
X690503Y789972*
X690676Y789760*
X690935Y789654*
X691194*
X691453Y789760*
X691540Y789866*
X691626Y790079*
X689467Y791354D02*
Y791460D01*
X689380Y791672*
X689294Y791779*
X689121Y791885*
X688776*
X688603Y791779*
X688517Y791672*
X688430Y791460*
Y791247*
X688517Y791035*
X688690Y790716*
X689553Y789654*
X688344*
X699999Y635958D02*
X699786Y636045D01*
X699574Y636217*
X699467Y636390*
Y636736*
X699574Y636908*
X699786Y637081*
X699999Y637167*
X700317Y637254*
X700849*
X701167Y637167*
X701380Y637081*
X701592Y636908*
X701699Y636736*
Y636390*
X701592Y636217*
X701380Y636045*
X701167Y635958*
X699467Y634058D02*
Y634922D01*
X700424Y635008*
X700317Y634922*
X700211Y634663*
Y634404*
X700317Y634145*
X700530Y633972*
X700849Y633886*
X701061Y633972*
X701380Y634058*
X701592Y634231*
X701699Y634490*
Y634749*
X701592Y635008*
X701486Y635095*
X701274Y635181*
X699467Y632936D02*
Y631986D01*
X700317Y632504*
Y632245*
X700424Y632072*
X700530Y631986*
X700849Y631899*
X701061*
X701380Y631986*
X701592Y632158*
X701699Y632417*
Y632676*
X701592Y632936*
X701486Y633022*
X701274Y633108*
X700999Y647958D02*
X700786Y648045D01*
X700574Y648217*
X700467Y648390*
Y648736*
X700574Y648908*
X700786Y649081*
X700999Y649167*
X701317Y649254*
X701849*
X702167Y649167*
X702380Y649081*
X702592Y648908*
X702699Y648736*
Y648390*
X702592Y648217*
X702380Y648045*
X702167Y647958*
X700467Y646058D02*
Y646922D01*
X701424Y647008*
X701317Y646922*
X701211Y646663*
Y646404*
X701317Y646145*
X701530Y645972*
X701849Y645886*
X702061Y645972*
X702380Y646058*
X702592Y646231*
X702699Y646490*
Y646749*
X702592Y647008*
X702486Y647095*
X702274Y647181*
X700467Y644245D02*
X701955Y645108D01*
Y643813*
X700467Y644245D02*
X702699D01*
X631999Y682958D02*
X631786Y683045D01*
X631574Y683217*
X631467Y683390*
Y683736*
X631574Y683908*
X631786Y684081*
X631999Y684167*
X632317Y684254*
X632849*
X633167Y684167*
X633380Y684081*
X633592Y683908*
X633699Y683736*
Y683390*
X633592Y683217*
X633380Y683045*
X633167Y682958*
X631999Y682095D02*
X631892D01*
X631680Y682008*
X631574Y681922*
X631467Y681749*
Y681404*
X631574Y681231*
X631680Y681145*
X631892Y681058*
X632105*
X632317Y681145*
X632636Y681317*
X633699Y682181*
Y680972*
X631467Y678986D02*
X633699Y679849D01*
X631467Y680195D02*
Y678986D01*
X668699Y660885D02*
Y658654D01*
Y660885D02*
X667921D01*
X667662Y660779*
X667576Y660672*
X667490Y660460*
Y660247*
X667576Y660035*
X667662Y659929*
X667921Y659822*
X668699*
X668094D02*
X667490Y658654D01*
X665849Y660885D02*
X666712Y659397D01*
X665417*
X665849Y660885D02*
Y658654D01*
X663517Y660885D02*
X664380D01*
X664467Y659929*
X664380Y660035*
X664121Y660141*
X663862*
X663603Y660035*
X663430Y659822*
X663344Y659504*
X663430Y659291*
X663517Y658972*
X663690Y658760*
X663949Y658654*
X664208*
X664467Y658760*
X664553Y658866*
X664640Y659079*
X677999Y794958D02*
X677786Y795045D01*
X677574Y795217*
X677467Y795390*
Y795736*
X677574Y795908*
X677786Y796081*
X677999Y796167*
X678317Y796254*
X678849*
X679167Y796167*
X679380Y796081*
X679592Y795908*
X679699Y795736*
Y795390*
X679592Y795217*
X679380Y795045*
X679167Y794958*
X677467Y794181D02*
X679699D01*
X677467D02*
Y793404D01*
X677574Y793145*
X677680Y793058*
X677892Y792972*
X678105*
X678317Y793058*
X678424Y793145*
X678530Y793404*
Y794181D02*
Y793404D01*
X678636Y793145*
X678742Y793058*
X678955Y792972*
X679274*
X679486Y793058*
X679592Y793145*
X679699Y793404*
Y794181*
X677467Y792022D02*
Y791072D01*
X678317Y791590*
Y791331*
X678424Y791158*
X678530Y791072*
X678849Y790986*
X679061*
X679380Y791072*
X679592Y791245*
X679699Y791504*
Y791763*
X679592Y792022*
X679486Y792108*
X679274Y792195*
X677467Y789086D02*
Y789949D01*
X678424Y790036*
X678317Y789949*
X678211Y789690*
Y789431*
X678317Y789172*
X678530Y788999*
X678849Y788913*
X679061Y788999*
X679380Y789086*
X679592Y789258*
X679699Y789517*
Y789776*
X679592Y790036*
X679486Y790122*
X679274Y790208*
X702467Y787254D02*
X704699D01*
X702467D02*
Y786476D01*
X702574Y786217*
X702680Y786131*
X702892Y786045*
X703105*
X703317Y786131*
X703424Y786217*
X703530Y786476*
Y787254*
Y786649D02*
X704699Y786045D01*
X702467Y784145D02*
Y785008D01*
X703424Y785095*
X703317Y785008*
X703211Y784749*
Y784490*
X703317Y784231*
X703530Y784058*
X703849Y783972*
X704061Y784058*
X704380Y784145*
X704592Y784317*
X704699Y784576*
Y784836*
X704592Y785095*
X704486Y785181*
X704274Y785267*
X703211Y782072D02*
X703530Y782158D01*
X703742Y782331*
X703849Y782590*
Y782676*
X703742Y782936*
X703530Y783108*
X703211Y783195*
X703105*
X702786Y783108*
X702574Y782936*
X702467Y782676*
Y782590*
X702574Y782331*
X702786Y782158*
X703211Y782072*
X703742*
X704274Y782158*
X704592Y782331*
X704699Y782590*
Y782763*
X704592Y783022*
X704380Y783108*
X698403Y771354D02*
X698490Y771566D01*
X698662Y771779*
X698835Y771885*
X699180*
X699353Y771779*
X699526Y771566*
X699612Y771354*
X699699Y771035*
Y770504*
X699612Y770185*
X699526Y769972*
X699353Y769760*
X699180Y769654*
X698835*
X698662Y769760*
X698490Y769972*
X698403Y770185*
X696503Y771885D02*
X697367D01*
X697453Y770929*
X697367Y771035*
X697108Y771141*
X696849*
X696590Y771035*
X696417Y770822*
X696330Y770504*
X696417Y770291*
X696503Y769972*
X696676Y769760*
X696935Y769654*
X697194*
X697453Y769760*
X697540Y769866*
X697626Y770079*
X694430Y771885D02*
X695294D01*
X695380Y770929*
X695294Y771035*
X695035Y771141*
X694776*
X694517Y771035*
X694344Y770822*
X694258Y770504*
X694344Y770291*
X694430Y769972*
X694603Y769760*
X694862Y769654*
X695121*
X695380Y769760*
X695467Y769866*
X695553Y770079*
X691467Y787254D02*
X693699D01*
X691467D02*
Y786476D01*
X691574Y786217*
X691680Y786131*
X691892Y786045*
X692105*
X692317Y786131*
X692424Y786217*
X692530Y786476*
Y787254*
Y786649D02*
X693699Y786045D01*
X691786Y784231D02*
X691574Y784317D01*
X691467Y784576*
Y784749*
X691574Y785008*
X691892Y785181*
X692424Y785267*
X692955*
X693380Y785181*
X693592Y785008*
X693699Y784749*
Y784663*
X693592Y784404*
X693380Y784231*
X693061Y784145*
X692955*
X692636Y784231*
X692424Y784404*
X692317Y784663*
Y784749*
X692424Y785008*
X692636Y785181*
X692955Y785267*
X691786Y782331D02*
X691574Y782417D01*
X691467Y782676*
Y782849*
X691574Y783108*
X691892Y783281*
X692424Y783367*
X692955*
X693380Y783281*
X693592Y783108*
X693699Y782849*
Y782763*
X693592Y782504*
X693380Y782331*
X693061Y782245*
X692955*
X692636Y782331*
X692424Y782504*
X692317Y782763*
Y782849*
X692424Y783108*
X692636Y783281*
X692955Y783367*
X656999Y812958D02*
X656786Y813045D01*
X656574Y813217*
X656467Y813390*
Y813736*
X656574Y813908*
X656786Y814081*
X656999Y814167*
X657317Y814254*
X657849*
X658167Y814167*
X658380Y814081*
X658592Y813908*
X658699Y813736*
Y813390*
X658592Y813217*
X658380Y813045*
X658167Y812958*
X656467Y812008D02*
Y811058D01*
X657317Y811576*
Y811317*
X657424Y811145*
X657530Y811058*
X657849Y810972*
X658061*
X658380Y811058*
X658592Y811231*
X658699Y811490*
Y811749*
X658592Y812008*
X658486Y812095*
X658274Y812181*
X656467Y809763D02*
X656574Y810022D01*
X656786Y810108*
X656999*
X657211Y810022*
X657317Y809849*
X657424Y809504*
X657530Y809245*
X657742Y809072*
X657955Y808986*
X658274*
X658486Y809072*
X658592Y809158*
X658699Y809417*
Y809763*
X658592Y810022*
X658486Y810108*
X658274Y810195*
X657955*
X657742Y810108*
X657530Y809936*
X657424Y809676*
X657317Y809331*
X657211Y809158*
X656999Y809072*
X656786*
X656574Y809158*
X656467Y809417*
Y809763*
X659999Y812958D02*
X659786Y813045D01*
X659574Y813217*
X659467Y813390*
Y813736*
X659574Y813908*
X659786Y814081*
X659999Y814167*
X660317Y814254*
X660849*
X661167Y814167*
X661380Y814081*
X661592Y813908*
X661699Y813736*
Y813390*
X661592Y813217*
X661380Y813045*
X661167Y812958*
X659467Y811317D02*
X660955Y812181D01*
Y810886*
X659467Y811317D02*
X661699D01*
X659892Y810108D02*
X659786Y809936D01*
X659467Y809676*
X661699*
X663999Y812958D02*
X663786Y813045D01*
X663574Y813217*
X663467Y813390*
Y813736*
X663574Y813908*
X663786Y814081*
X663999Y814167*
X664317Y814254*
X664849*
X665167Y814167*
X665380Y814081*
X665592Y813908*
X665699Y813736*
Y813390*
X665592Y813217*
X665380Y813045*
X665167Y812958*
X663467Y811317D02*
X664955Y812181D01*
Y810886*
X663467Y811317D02*
X665699D01*
X663467Y809590D02*
X663574Y809849D01*
X663892Y810022*
X664424Y810108*
X664742*
X665274Y810022*
X665592Y809849*
X665699Y809590*
Y809417*
X665592Y809158*
X665274Y808986*
X664742Y808899*
X664424*
X663892Y808986*
X663574Y809158*
X663467Y809417*
Y809590*
X673999Y806958D02*
X673786Y807045D01*
X673574Y807217*
X673467Y807390*
Y807736*
X673574Y807908*
X673786Y808081*
X673999Y808167*
X674317Y808254*
X674849*
X675167Y808167*
X675380Y808081*
X675592Y807908*
X675699Y807736*
Y807390*
X675592Y807217*
X675380Y807045*
X675167Y806958*
X673467Y806008D02*
Y805058D01*
X674317Y805576*
Y805317*
X674424Y805145*
X674530Y805058*
X674849Y804972*
X675061*
X675380Y805058*
X675592Y805231*
X675699Y805490*
Y805749*
X675592Y806008*
X675486Y806095*
X675274Y806181*
X674211Y803072D02*
X674530Y803158D01*
X674742Y803331*
X674849Y803590*
Y803676*
X674742Y803936*
X674530Y804108*
X674211Y804195*
X674105*
X673786Y804108*
X673574Y803936*
X673467Y803676*
Y803590*
X673574Y803331*
X673786Y803158*
X674211Y803072*
X674742*
X675274Y803158*
X675592Y803331*
X675699Y803590*
Y803763*
X675592Y804022*
X675380Y804108*
X623605Y744700D02*
X623691Y744913D01*
X623691D02*
X623864Y745125D01*
X624036Y745231*
X624382*
X624555Y745125*
X624727Y744913*
X624727D02*
X624814Y744700D01*
X624900Y744381*
Y743850*
X624814Y743531*
X624727Y743319*
X624555Y743106*
X624382Y743000*
X624036*
X623864Y743106*
X623691Y743319*
X623605Y743531*
X622827Y745231D02*
Y743000D01*
Y745231D02*
X622050D01*
X621791Y745125*
X621705Y745019*
X621618Y744806*
Y744594*
X621705Y744381*
X621791Y744275*
X622050Y744169*
X622827D02*
X622050D01*
X621791Y744063*
X621791D02*
X621705Y743956D01*
X621618Y743744*
Y743425*
X621705Y743213*
X621705D02*
X621791Y743106D01*
X622050Y743000*
X622827*
X620755Y744700D02*
Y744806D01*
X620668Y745019*
X620582Y745125*
X620409Y745231*
X620064*
X619891Y745125*
X619805Y745019*
X619718Y744806*
Y744594*
X619805Y744381*
X619977Y744063*
X619977D02*
X620841Y743000D01*
X619632*
X617991Y745231D02*
X618855Y743744D01*
X617559*
X617991Y745231D02*
Y743000D01*
X617467Y758254D02*
X619699D01*
X617467D02*
Y757476D01*
X617574Y757217*
X617680Y757131*
X617892Y757045*
X618105*
X618317Y757131*
X618424Y757217*
X618530Y757476*
Y758254*
Y757649D02*
X619699Y757045D01*
X617467Y755836D02*
X617574Y756095D01*
X617786Y756181*
X617999*
X618211Y756095*
X618317Y755922*
X618424Y755576*
X618530Y755317*
X618742Y755145*
X618955Y755058*
X619274*
X619486Y755145*
X619592Y755231*
X619699Y755490*
Y755836*
X619592Y756095*
X619486Y756181*
X619274Y756267*
X618955*
X618742Y756181*
X618530Y756008*
X618424Y755749*
X618317Y755404*
X618211Y755231*
X617999Y755145*
X617786*
X617574Y755231*
X617467Y755490*
Y755836*
Y754108D02*
Y753158D01*
X618317Y753676*
Y753417*
X618424Y753245*
X618530Y753158*
X618849Y753072*
X619061*
X619380Y753158*
X619592Y753331*
X619699Y753590*
Y753849*
X619592Y754108*
X619486Y754195*
X619274Y754281*
X619699Y706885D02*
Y704654D01*
Y706885D02*
X618921D01*
X618662Y706779*
X618576Y706672*
X618490Y706460*
Y706247*
X618576Y706035*
X618662Y705929*
X618921Y705822*
X619699*
X619094D02*
X618490Y704654D01*
X617540Y706885D02*
X616590D01*
X617108Y706035*
X616849*
X616676Y705929*
X616590Y705822*
X616503Y705504*
Y705291*
X616590Y704972*
X616762Y704760*
X617021Y704654*
X617280*
X617540Y704760*
X617626Y704866*
X617712Y705079*
X614690Y706566D02*
X614776Y706779D01*
X615035Y706885*
X615208*
X615467Y706779*
X615640Y706460*
X615726Y705929*
Y705397*
X615640Y704972*
X615467Y704760*
X615208Y704654*
X615121*
X614862Y704760*
X614690Y704972*
X614603Y705291*
Y705397*
X614690Y705716*
X614862Y705929*
X615121Y706035*
X615208*
X615467Y705929*
X615640Y705716*
X615726Y705397*
X631069Y733200D02*
X633300D01*
X631069D02*
Y732423D01*
X631175Y732164*
X631281Y732077*
X631494Y731991*
X631706*
X631919Y732077*
X632025Y732164*
X632131Y732423*
Y733200*
Y732595D02*
X633300Y731991D01*
X631069Y730782D02*
X631175Y731041D01*
X631387Y731127*
X631387D02*
X631600D01*
X631812Y731041*
X631812D02*
X631919Y730868D01*
X632025Y730523*
X632131Y730264*
X632344Y730091*
X632556Y730005*
X632875*
X633087Y730091*
X633087D02*
X633194Y730177D01*
X633300Y730436*
Y730782*
X633194Y731041*
X633087Y731127*
X633087D02*
X632875Y731214D01*
X632556*
X632344Y731127*
X632131Y730955*
X632025Y730695*
X631919Y730350*
X631812Y730177*
X631812D02*
X631600Y730091D01*
X631387*
X631387D02*
X631175Y730177D01*
X631069Y730436*
Y730782*
X631600Y729141D02*
X631494D01*
X631281Y729055*
X631175Y728968*
X631069Y728795*
Y728450*
X631175Y728277*
X631281Y728191*
X631494Y728105*
X631706*
X631919Y728191*
X632237Y728364*
X632237D02*
X633300Y729227D01*
Y728018*
X618403Y712354D02*
X618490Y712566D01*
X618662Y712779*
X618835Y712885*
X619180*
X619353Y712779*
X619526Y712566*
X619612Y712354*
X619699Y712035*
Y711504*
X619612Y711185*
X619526Y710972*
X619353Y710760*
X619180Y710654*
X618835*
X618662Y710760*
X618490Y710972*
X618403Y711185*
X617540Y712354D02*
Y712460D01*
X617453Y712672*
X617367Y712779*
X617194Y712885*
X616849*
X616676Y712779*
X616590Y712672*
X616503Y712460*
Y712247*
X616590Y712035*
X616762Y711716*
X617626Y710654*
X616417*
X615640Y712460D02*
X615467Y712566D01*
X615208Y712885*
Y710654*
X640200Y719205D02*
X639987Y719291D01*
X639987D02*
X639775Y719464D01*
X639669Y719636*
Y719982*
X639775Y720155*
X639987Y720327*
X639987D02*
X640200Y720414D01*
X640519Y720500*
X641050*
X641369Y720414*
X641581Y720327*
X641794Y720155*
X641900Y719982*
Y719636*
X641794Y719464*
X641581Y719291*
X641369Y719205*
X640200Y718341D02*
X640094D01*
X639881Y718255*
X639775Y718168*
X639669Y717995*
Y717650*
X639775Y717477*
X639881Y717391*
X640094Y717305*
X640306*
X640519Y717391*
X640837Y717564*
X640837D02*
X641900Y718427D01*
Y717218*
X640200Y716355D02*
X640094D01*
X639881Y716268*
X639775Y716182*
X639669Y716009*
Y715664*
X639775Y715491*
X639881Y715405*
X640094Y715318*
X640306*
X640519Y715405*
X640837Y715577*
X640837D02*
X641900Y716441D01*
Y715232*
X635100Y719205D02*
X634887Y719291D01*
X634887D02*
X634675Y719464D01*
X634569Y719636*
Y719982*
X634675Y720155*
X634887Y720327*
X634887D02*
X635100Y720414D01*
X635419Y720500*
X635950*
X636269Y720414*
X636481Y720327*
X636694Y720155*
X636800Y719982*
Y719636*
X636694Y719464*
X636481Y719291*
X636269Y719205*
X635100Y718341D02*
X634994D01*
X634781Y718255*
X634675Y718168*
X634569Y717995*
Y717650*
X634675Y717477*
X634781Y717391*
X634994Y717305*
X635206*
X635419Y717391*
X635737Y717564*
X635737D02*
X636800Y718427D01*
Y717218*
X634569Y716268D02*
Y715318D01*
X635419Y715836*
Y715577*
X635525Y715405*
X635631Y715318*
X635950Y715232*
X636162*
X636162D02*
X636481Y715318D01*
X636694Y715491*
X636800Y715750*
Y716009*
X636694Y716268*
X636587Y716355*
X636587D02*
X636375Y716441D01*
X624403Y736354D02*
X624490Y736566D01*
X624662Y736779*
X624835Y736885*
X625180*
X625353Y736779*
X625526Y736566*
X625612Y736354*
X625699Y736035*
Y735504*
X625612Y735185*
X625526Y734972*
X625353Y734760*
X625180Y734654*
X624835*
X624662Y734760*
X624490Y734972*
X624403Y735185*
X622503Y736885D02*
X623367D01*
X623453Y735929*
X623367Y736035*
X623108Y736141*
X622849*
X622590Y736035*
X622417Y735822*
X622330Y735504*
X622417Y735291*
X622503Y734972*
X622676Y734760*
X622935Y734654*
X623194*
X623453Y734760*
X623540Y734866*
X623626Y735079*
X620517Y736566D02*
X620603Y736779D01*
X620862Y736885*
X621035*
X621294Y736779*
X621467Y736460*
X621553Y735929*
Y735397*
X621467Y734972*
X621294Y734760*
X621035Y734654*
X620949*
X620690Y734760*
X620517Y734972*
X620430Y735291*
Y735397*
X620517Y735716*
X620690Y735929*
X620949Y736035*
X621035*
X621294Y735929*
X621467Y735716*
X621553Y735397*
X674999Y794958D02*
X674786Y795045D01*
X674574Y795217*
X674467Y795390*
Y795736*
X674574Y795908*
X674786Y796081*
X674999Y796167*
X675317Y796254*
X675849*
X676167Y796167*
X676380Y796081*
X676592Y795908*
X676699Y795736*
Y795390*
X676592Y795217*
X676380Y795045*
X676167Y794958*
X674467Y794181D02*
X676699D01*
X674467D02*
Y793404D01*
X674574Y793145*
X674680Y793058*
X674892Y792972*
X675105*
X675317Y793058*
X675424Y793145*
X675530Y793404*
Y794181D02*
Y793404D01*
X675636Y793145*
X675742Y793058*
X675955Y792972*
X676274*
X676486Y793058*
X676592Y793145*
X676699Y793404*
Y794181*
X674999Y792108D02*
X674892D01*
X674680Y792022*
X674574Y791936*
X674467Y791763*
Y791417*
X674574Y791245*
X674680Y791158*
X674892Y791072*
X675105*
X675317Y791158*
X675636Y791331*
X676699Y792195*
Y790986*
X675211Y789086D02*
X675530Y789172D01*
X675742Y789345*
X675849Y789604*
Y789690*
X675742Y789949*
X675530Y790122*
X675211Y790208*
X675105*
X674786Y790122*
X674574Y789949*
X674467Y789690*
Y789604*
X674574Y789345*
X674786Y789172*
X675211Y789086*
X675742*
X676274Y789172*
X676592Y789345*
X676699Y789604*
Y789776*
X676592Y790036*
X676380Y790122*
X682699Y779885D02*
Y778291D01*
X682612Y777972*
X682440Y777760*
X682180Y777654*
X682008*
X681749Y777760*
X681576Y777972*
X681490Y778291*
Y779885*
X680280D02*
X680540Y779779D01*
X680626Y779566*
Y779354*
X680540Y779141*
X680367Y779035*
X680021Y778929*
X679762Y778822*
X679590Y778610*
X679503Y778397*
Y778079*
X679590Y777866*
X679676Y777760*
X679935Y777654*
X680280*
X680540Y777760*
X680626Y777866*
X680712Y778079*
Y778397*
X680626Y778610*
X680453Y778822*
X680194Y778929*
X679849Y779035*
X679676Y779141*
X679590Y779354*
Y779566*
X679676Y779779*
X679935Y779885*
X680280*
X697699Y750885D02*
Y749291D01*
X697612Y748972*
X697440Y748760*
X697180Y748654*
X697008*
X696749Y748760*
X696576Y748972*
X696490Y749291*
Y750885*
X695712Y750460D02*
X695540Y750566D01*
X695280Y750885*
Y748654*
X694417Y750354D02*
Y750460D01*
X694330Y750672*
X694244Y750779*
X694071Y750885*
X693726*
X693553Y750779*
X693467Y750672*
X693380Y750460*
Y750247*
X693467Y750035*
X693640Y749716*
X694503Y748654*
X693294*
X631403Y774354D02*
X631490Y774566D01*
X631662Y774779*
X631835Y774885*
X632180*
X632353Y774779*
X632526Y774566*
X632612Y774354*
X632699Y774035*
Y773504*
X632612Y773185*
X632526Y772972*
X632353Y772760*
X632180Y772654*
X631835*
X631662Y772760*
X631490Y772972*
X631403Y773185*
X630626Y774885D02*
Y772654D01*
Y774885D02*
X629849D01*
X629590Y774779*
X629503Y774672*
X629417Y774460*
Y774247*
X629503Y774035*
X629590Y773929*
X629849Y773822*
X630626D02*
X629849D01*
X629590Y773716*
X629503Y773610*
X629417Y773397*
Y773079*
X629503Y772866*
X629590Y772760*
X629849Y772654*
X630626*
X628467Y774885D02*
X627517D01*
X628035Y774035*
X627776*
X627603Y773929*
X627517Y773822*
X627430Y773504*
Y773291*
X627517Y772972*
X627690Y772760*
X627949Y772654*
X628208*
X628467Y772760*
X628553Y772866*
X628640Y773079*
X626653Y774460D02*
X626480Y774566D01*
X626221Y774885*
Y772654*
X626699Y803885D02*
Y801654D01*
Y803885D02*
X625576D01*
X626699Y802822D02*
X626008D01*
X624799Y803885D02*
Y801654D01*
Y803885D02*
X624021D01*
X623762Y803779*
X623676Y803672*
X623590Y803460*
Y803247*
X623676Y803035*
X623762Y802929*
X624021Y802822*
X624799D02*
X624021D01*
X623762Y802716*
X623676Y802610*
X623590Y802397*
Y802079*
X623676Y801866*
X623762Y801760*
X624021Y801654*
X624799*
X622812Y803460D02*
X622640Y803566D01*
X622380Y803885*
Y801654*
X696467Y787254D02*
X698699D01*
X696467D02*
Y786476D01*
X696574Y786217*
X696680Y786131*
X696892Y786045*
X697105*
X697317Y786131*
X697424Y786217*
X697530Y786476*
Y787254*
Y786649D02*
X698699Y786045D01*
X696786Y784231D02*
X696574Y784317D01*
X696467Y784576*
Y784749*
X696574Y785008*
X696892Y785181*
X697424Y785267*
X697955*
X698380Y785181*
X698592Y785008*
X698699Y784749*
Y784663*
X698592Y784404*
X698380Y784231*
X698061Y784145*
X697955*
X697636Y784231*
X697424Y784404*
X697317Y784663*
Y784749*
X697424Y785008*
X697636Y785181*
X697955Y785267*
X697211Y782245D02*
X697530Y782331D01*
X697742Y782504*
X697849Y782763*
Y782849*
X697742Y783108*
X697530Y783281*
X697211Y783367*
X697105*
X696786Y783281*
X696574Y783108*
X696467Y782849*
Y782763*
X696574Y782504*
X696786Y782331*
X697211Y782245*
X697742*
X698274Y782331*
X698592Y782504*
X698699Y782763*
Y782936*
X698592Y783195*
X698380Y783281*
X678999Y670958D02*
X678786Y671045D01*
X678574Y671217*
X678467Y671390*
Y671736*
X678574Y671908*
X678786Y672081*
X678999Y672167*
X679317Y672254*
X679849*
X680167Y672167*
X680380Y672081*
X680592Y671908*
X680699Y671736*
Y671390*
X680592Y671217*
X680380Y671045*
X680167Y670958*
X678467Y670181D02*
X680699D01*
X678467D02*
Y669404D01*
X678574Y669145*
X678680Y669058*
X678892Y668972*
X679105*
X679317Y669058*
X679424Y669145*
X679530Y669404*
Y670181D02*
Y669404D01*
X679636Y669145*
X679742Y669058*
X679955Y668972*
X680274*
X680486Y669058*
X680592Y669145*
X680699Y669404*
Y670181*
X678786Y667158D02*
X678574Y667245D01*
X678467Y667504*
Y667676*
X678574Y667936*
X678892Y668108*
X679424Y668195*
X679955*
X680380Y668108*
X680592Y667936*
X680699Y667676*
Y667590*
X680592Y667331*
X680380Y667158*
X680061Y667072*
X679955*
X679636Y667158*
X679424Y667331*
X679317Y667590*
Y667676*
X679424Y667936*
X679636Y668108*
X679955Y668195*
X676467Y656254D02*
X678699D01*
X676467D02*
Y655476D01*
X676574Y655217*
X676680Y655131*
X676892Y655045*
X677105*
X677317Y655131*
X677424Y655217*
X677530Y655476*
Y656254*
Y655649D02*
X678699Y655045D01*
X676467Y653404D02*
X677955Y654267D01*
Y652972*
X676467Y653404D02*
X678699D01*
X676999Y652108D02*
X676892D01*
X676680Y652022*
X676574Y651936*
X676467Y651763*
Y651417*
X676574Y651245*
X676680Y651158*
X676892Y651072*
X677105*
X677317Y651158*
X677636Y651331*
X678699Y652195*
Y650986*
X659999Y663958D02*
X659786Y664045D01*
X659574Y664217*
X659467Y664390*
Y664736*
X659574Y664908*
X659786Y665081*
X659999Y665167*
X660317Y665254*
X660849*
X661167Y665167*
X661380Y665081*
X661592Y664908*
X661699Y664736*
Y664390*
X661592Y664217*
X661380Y664045*
X661167Y663958*
X659467Y663181D02*
X661699D01*
X659467D02*
Y662404D01*
X659574Y662145*
X659680Y662058*
X659892Y661972*
X660105*
X660317Y662058*
X660424Y662145*
X660530Y662404*
Y663181D02*
Y662404D01*
X660636Y662145*
X660742Y662058*
X660955Y661972*
X661274*
X661486Y662058*
X661592Y662145*
X661699Y662404*
Y663181*
X659892Y661195D02*
X659786Y661022D01*
X659467Y660763*
X661699*
X659467Y658776D02*
X661699Y659640D01*
X659467Y659986D02*
Y658776D01*
X646505Y661900D02*
X646591Y662113D01*
X646591D02*
X646764Y662325D01*
X646936Y662431*
X647282*
X647455Y662325*
X647627Y662113*
X647627D02*
X647714Y661900D01*
X647800Y661581*
Y661050*
X647714Y660731*
X647627Y660519*
X647455Y660306*
X647282Y660200*
X646936*
X646764Y660306*
X646591Y660519*
X646505Y660731*
X645727Y662006D02*
X645555Y662113D01*
X645555D02*
X645295Y662431D01*
Y660200*
X643655Y662431D02*
X644518Y660944D01*
X643223*
X643655Y662431D02*
Y660200D01*
X630999Y648958D02*
X630786Y649045D01*
X630574Y649217*
X630467Y649390*
Y649736*
X630574Y649908*
X630786Y650081*
X630999Y650167*
X631317Y650254*
X631849*
X632167Y650167*
X632380Y650081*
X632592Y649908*
X632699Y649736*
Y649390*
X632592Y649217*
X632380Y649045*
X632167Y648958*
X630467Y648008D02*
Y647058D01*
X631317Y647576*
Y647317*
X631424Y647145*
X631530Y647058*
X631849Y646972*
X632061*
X632380Y647058*
X632592Y647231*
X632699Y647490*
Y647749*
X632592Y648008*
X632486Y648095*
X632274Y648181*
X630892Y646195D02*
X630786Y646022D01*
X630467Y645763*
X632699*
X664200Y725731D02*
X663509Y724669D01*
Y723500*
X662818Y725731D02*
X663509Y724669D01*
X661955Y725200D02*
Y725306D01*
X661868Y725519*
X661782Y725625*
X661609Y725731*
X661264*
X661091Y725625*
X661005Y725519*
X660918Y725306*
Y725094*
X661005Y724881*
X661177Y724563*
X661177D02*
X662041Y723500D01*
X660832*
X650403Y730354D02*
X650490Y730566D01*
X650662Y730779*
X650835Y730885*
X651180*
X651353Y730779*
X651526Y730566*
X651612Y730354*
X651699Y730035*
Y729504*
X651612Y729185*
X651526Y728972*
X651353Y728760*
X651180Y728654*
X650835*
X650662Y728760*
X650490Y728972*
X650403Y729185*
X649453Y730885D02*
X648503D01*
X649021Y730035*
X648762*
X648590Y729929*
X648503Y729822*
X648417Y729504*
Y729291*
X648503Y728972*
X648676Y728760*
X648935Y728654*
X649194*
X649453Y728760*
X649540Y728866*
X649626Y729079*
X646517Y730885D02*
X647380D01*
X647467Y729929*
X647380Y730035*
X647121Y730141*
X646862*
X646603Y730035*
X646430Y729822*
X646344Y729504*
X646430Y729291*
X646517Y728972*
X646690Y728760*
X646949Y728654*
X647208*
X647467Y728760*
X647553Y728866*
X647640Y729079*
X631403Y771354D02*
X631490Y771566D01*
X631662Y771779*
X631835Y771885*
X632180*
X632353Y771779*
X632526Y771566*
X632612Y771354*
X632699Y771035*
Y770504*
X632612Y770185*
X632526Y769972*
X632353Y769760*
X632180Y769654*
X631835*
X631662Y769760*
X631490Y769972*
X631403Y770185*
X630626Y771885D02*
Y769654D01*
Y771885D02*
X629849D01*
X629590Y771779*
X629503Y771672*
X629417Y771460*
Y771247*
X629503Y771035*
X629590Y770929*
X629849Y770822*
X630626D02*
X629849D01*
X629590Y770716*
X629503Y770610*
X629417Y770397*
Y770079*
X629503Y769866*
X629590Y769760*
X629849Y769654*
X630626*
X628467Y771885D02*
X627517D01*
X628035Y771035*
X627776*
X627603Y770929*
X627517Y770822*
X627430Y770504*
Y770291*
X627517Y769972*
X627690Y769760*
X627949Y769654*
X628208*
X628467Y769760*
X628553Y769866*
X628640Y770079*
X626480Y771885D02*
X625530D01*
X626049Y771035*
X625790*
X625617Y770929*
X625530Y770822*
X625444Y770504*
Y770291*
X625530Y769972*
X625703Y769760*
X625962Y769654*
X626221*
X626480Y769760*
X626567Y769866*
X626653Y770079*
X690699Y674885D02*
Y672654D01*
Y674885D02*
X689921D01*
X689662Y674779*
X689576Y674672*
X689490Y674460*
Y674247*
X689576Y674035*
X689662Y673929*
X689921Y673822*
X690699*
X690094D02*
X689490Y672654D01*
X688712Y674460D02*
X688540Y674566D01*
X688280Y674885*
Y672654*
X657699Y806885D02*
Y804654D01*
Y806885D02*
X657094D01*
X656835Y806779*
X656662Y806566*
X656576Y806354*
X656490Y806035*
Y805504*
X656576Y805185*
X656662Y804972*
X656835Y804760*
X657094Y804654*
X657699*
X655712Y806460D02*
X655540Y806566D01*
X655280Y806885*
Y804654*
X665699Y805885D02*
Y803654D01*
Y805885D02*
X665094D01*
X664835Y805779*
X664662Y805566*
X664576Y805354*
X664490Y805035*
Y804504*
X664576Y804185*
X664662Y803972*
X664835Y803760*
X665094Y803654*
X665699*
X663626Y805354D02*
Y805460D01*
X663540Y805672*
X663453Y805779*
X663280Y805885*
X662935*
X662762Y805779*
X662676Y805672*
X662590Y805460*
Y805247*
X662676Y805035*
X662849Y804716*
X663712Y803654*
X662503*
X665699Y795885D02*
Y794291D01*
X665612Y793972*
X665440Y793760*
X665180Y793654*
X665008*
X664749Y793760*
X664576Y793972*
X664490Y794291*
Y795885*
X662590Y795141D02*
X662676Y794822D01*
X662849Y794610*
X663108Y794504*
X663194*
X663453Y794610*
X663626Y794822*
X663712Y795141*
Y795247*
X663626Y795566*
X663453Y795779*
X663194Y795885*
X663108*
X662849Y795779*
X662676Y795566*
X662590Y795141*
Y794610*
X662676Y794079*
X662849Y793760*
X663108Y793654*
X663280*
X663540Y793760*
X663626Y793972*
X670467Y795254D02*
X672699D01*
X670467D02*
Y794476D01*
X670574Y794217*
X670680Y794131*
X670892Y794045*
X671105*
X671317Y794131*
X671424Y794217*
X671530Y794476*
Y795254*
Y794649D02*
X672699Y794045D01*
X670786Y792231D02*
X670574Y792317D01*
X670467Y792576*
Y792749*
X670574Y793008*
X670892Y793181*
X671424Y793267*
X671955*
X672380Y793181*
X672592Y793008*
X672699Y792749*
Y792663*
X672592Y792404*
X672380Y792231*
X672061Y792145*
X671955*
X671636Y792231*
X671424Y792404*
X671317Y792663*
Y792749*
X671424Y793008*
X671636Y793181*
X671955Y793267*
X670467Y790849D02*
X670574Y791108D01*
X670892Y791281*
X671424Y791367*
X671742*
X672274Y791281*
X672592Y791108*
X672699Y790849*
Y790676*
X672592Y790417*
X672274Y790245*
X671742Y790158*
X671424*
X670892Y790245*
X670574Y790417*
X670467Y790676*
Y790849*
X656403Y674354D02*
X656490Y674566D01*
X656662Y674779*
X656835Y674885*
X657180*
X657353Y674779*
X657526Y674566*
X657612Y674354*
X657699Y674035*
Y673504*
X657612Y673185*
X657526Y672972*
X657353Y672760*
X657180Y672654*
X656835*
X656662Y672760*
X656490Y672972*
X656403Y673185*
X655626Y674885D02*
Y672654D01*
Y674885D02*
X654849D01*
X654590Y674779*
X654503Y674672*
X654417Y674460*
Y674247*
X654503Y674035*
X654590Y673929*
X654849Y673822*
X655626D02*
X654849D01*
X654590Y673716*
X654503Y673610*
X654417Y673397*
Y673079*
X654503Y672866*
X654590Y672760*
X654849Y672654*
X655626*
X653553Y674354D02*
Y674460D01*
X653467Y674672*
X653380Y674779*
X653208Y674885*
X652862*
X652690Y674779*
X652603Y674672*
X652517Y674460*
Y674247*
X652603Y674035*
X652776Y673716*
X653640Y672654*
X652430*
X651135Y674885D02*
X651394Y674779D01*
X651567Y674460*
X651653Y673929*
Y673610*
X651567Y673079*
X651394Y672760*
X651135Y672654*
X650962*
X650703Y672760*
X650530Y673079*
X650444Y673610*
Y673929*
X650530Y674460*
X650703Y674779*
X650962Y674885*
X651135*
X705999Y767958D02*
X705786Y768045D01*
X705574Y768217*
X705467Y768390*
Y768736*
X705574Y768908*
X705786Y769081*
X705999Y769167*
X706317Y769254*
X706849*
X707167Y769167*
X707380Y769081*
X707592Y768908*
X707699Y768736*
Y768390*
X707592Y768217*
X707380Y768045*
X707167Y767958*
X705467Y767181D02*
X707699D01*
X705467D02*
Y766404D01*
X705574Y766145*
X705680Y766058*
X705892Y765972*
X706105*
X706317Y766058*
X706424Y766145*
X706530Y766404*
Y767181D02*
Y766404D01*
X706636Y766145*
X706742Y766058*
X706955Y765972*
X707274*
X707486Y766058*
X707592Y766145*
X707699Y766404*
Y767181*
X705467Y764331D02*
X706955Y765195D01*
Y763899*
X705467Y764331D02*
X707699D01*
X705467Y762604D02*
X705574Y762863D01*
X705892Y763036*
X706424Y763122*
X706742*
X707274Y763036*
X707592Y762863*
X707699Y762604*
Y762431*
X707592Y762172*
X707274Y761999*
X706742Y761913*
X706424*
X705892Y761999*
X705574Y762172*
X705467Y762431*
Y762604*
X694999Y699958D02*
X694786Y700045D01*
X694574Y700217*
X694467Y700390*
Y700736*
X694574Y700908*
X694786Y701081*
X694999Y701167*
X695317Y701254*
X695849*
X696167Y701167*
X696380Y701081*
X696592Y700908*
X696699Y700736*
Y700390*
X696592Y700217*
X696380Y700045*
X696167Y699958*
X694467Y699181D02*
X696699D01*
X694467D02*
Y698404D01*
X694574Y698145*
X694680Y698058*
X694892Y697972*
X695105*
X695317Y698058*
X695424Y698145*
X695530Y698404*
Y699181D02*
Y698404D01*
X695636Y698145*
X695742Y698058*
X695955Y697972*
X696274*
X696486Y698058*
X696592Y698145*
X696699Y698404*
Y699181*
X694467Y697022D02*
Y696072D01*
X695317Y696590*
Y696331*
X695424Y696158*
X695530Y696072*
X695849Y695986*
X696061*
X696380Y696072*
X696592Y696245*
X696699Y696504*
Y696763*
X696592Y697022*
X696486Y697108*
X696274Y697195*
X629403Y669354D02*
X629490Y669566D01*
X629662Y669779*
X629835Y669885*
X630180*
X630353Y669779*
X630526Y669566*
X630612Y669354*
X630699Y669035*
Y668504*
X630612Y668185*
X630526Y667972*
X630353Y667760*
X630180Y667654*
X629835*
X629662Y667760*
X629490Y667972*
X629403Y668185*
X628626Y669885D02*
Y667654D01*
Y669885D02*
X627849D01*
X627590Y669779*
X627503Y669672*
X627417Y669460*
Y669247*
X627503Y669035*
X627590Y668929*
X627849Y668822*
X628626D02*
X627849D01*
X627590Y668716*
X627503Y668610*
X627417Y668397*
Y668079*
X627503Y667866*
X627590Y667760*
X627849Y667654*
X628626*
X626553Y669354D02*
Y669460D01*
X626467Y669672*
X626380Y669779*
X626208Y669885*
X625862*
X625690Y669779*
X625603Y669672*
X625517Y669460*
Y669247*
X625603Y669035*
X625776Y668716*
X626640Y667654*
X625430*
X623530Y669885D02*
X624394D01*
X624480Y668929*
X624394Y669035*
X624135Y669141*
X623876*
X623617Y669035*
X623444Y668822*
X623358Y668504*
X623444Y668291*
X623530Y667972*
X623703Y667760*
X623962Y667654*
X624221*
X624480Y667760*
X624567Y667866*
X624653Y668079*
X624999Y648958D02*
X624786Y649045D01*
X624574Y649217*
X624467Y649390*
Y649736*
X624574Y649908*
X624786Y650081*
X624999Y650167*
X625317Y650254*
X625849*
X626167Y650167*
X626380Y650081*
X626592Y649908*
X626699Y649736*
Y649390*
X626592Y649217*
X626380Y649045*
X626167Y648958*
X624999Y648095D02*
X624892D01*
X624680Y648008*
X624574Y647922*
X624467Y647749*
Y647404*
X624574Y647231*
X624680Y647145*
X624892Y647058*
X625105*
X625317Y647145*
X625636Y647317*
X626699Y648181*
Y646972*
X624467Y645763D02*
X624574Y646022D01*
X624786Y646108*
X624999*
X625211Y646022*
X625317Y645849*
X625424Y645504*
X625530Y645245*
X625742Y645072*
X625955Y644986*
X626274*
X626486Y645072*
X626592Y645158*
X626699Y645417*
Y645763*
X626592Y646022*
X626486Y646108*
X626274Y646195*
X625955*
X625742Y646108*
X625530Y645936*
X625424Y645676*
X625317Y645331*
X625211Y645158*
X624999Y645072*
X624786*
X624574Y645158*
X624467Y645417*
Y645763*
X636999Y650958D02*
X636786Y651045D01*
X636574Y651217*
X636467Y651390*
Y651736*
X636574Y651908*
X636786Y652081*
X636999Y652167*
X637317Y652254*
X637849*
X638167Y652167*
X638380Y652081*
X638592Y651908*
X638699Y651736*
Y651390*
X638592Y651217*
X638380Y651045*
X638167Y650958*
X636467Y650181D02*
X638699D01*
X636467D02*
Y649404D01*
X636574Y649145*
X636680Y649058*
X636892Y648972*
X637105*
X637317Y649058*
X637424Y649145*
X637530Y649404*
Y650181D02*
Y649404D01*
X637636Y649145*
X637742Y649058*
X637955Y648972*
X638274*
X638486Y649058*
X638592Y649145*
X638699Y649404*
Y650181*
X636999Y648108D02*
X636892D01*
X636680Y648022*
X636574Y647936*
X636467Y647763*
Y647417*
X636574Y647245*
X636680Y647158*
X636892Y647072*
X637105*
X637317Y647158*
X637636Y647331*
X638699Y648195*
Y646986*
X636467Y644999D02*
X638699Y645863D01*
X636467Y646208D02*
Y644999D01*
X687699Y712885D02*
Y710654D01*
Y712885D02*
X686921D01*
X686662Y712779*
X686576Y712672*
X686490Y712460*
Y712247*
X686576Y712035*
X686662Y711929*
X686921Y711822*
X687699*
X687094D02*
X686490Y710654D01*
X685712Y712460D02*
X685540Y712566D01*
X685280Y712885*
Y710654*
X683985Y712885D02*
X684244Y712779D01*
X684417Y712460*
X684503Y711929*
Y711610*
X684417Y711079*
X684244Y710760*
X683985Y710654*
X683812*
X683553Y710760*
X683380Y711079*
X683294Y711610*
Y711929*
X683380Y712460*
X683553Y712779*
X683812Y712885*
X683985*
X646403Y665354D02*
X646490Y665566D01*
X646662Y665779*
X646835Y665885*
X647180*
X647353Y665779*
X647526Y665566*
X647612Y665354*
X647699Y665035*
Y664504*
X647612Y664185*
X647526Y663972*
X647353Y663760*
X647180Y663654*
X646835*
X646662Y663760*
X646490Y663972*
X646403Y664185*
X645626Y665460D02*
X645453Y665566D01*
X645194Y665885*
Y663654*
X643294Y665885D02*
X644158D01*
X644244Y664929*
X644158Y665035*
X643899Y665141*
X643640*
X643380Y665035*
X643208Y664822*
X643121Y664504*
X643208Y664291*
X643294Y663972*
X643467Y663760*
X643726Y663654*
X643985*
X644244Y663760*
X644330Y663866*
X644417Y664079*
X651800Y637605D02*
X651588Y637691D01*
X651588D02*
X651375Y637864D01*
X651269Y638036*
Y638382*
X651375Y638555*
X651588Y638727*
X651588D02*
X651800Y638814D01*
X652119Y638900*
X652650*
X652969Y638814*
X653181Y638727*
X653394Y638555*
X653500Y638382*
Y638036*
X653394Y637864*
X653181Y637691*
X652969Y637605*
X651800Y636741D02*
X651694D01*
X651481Y636655*
X651375Y636568*
X651269Y636395*
Y636050*
X651375Y635877*
X651481Y635791*
X651694Y635705*
X651906*
X652119Y635791*
X652438Y635964*
X652438D02*
X653500Y636827D01*
Y635618*
X651269Y633977D02*
X652756Y634841D01*
Y633545*
X651269Y633977D02*
X653500D01*
X668403Y639354D02*
X668490Y639566D01*
X668662Y639779*
X668835Y639885*
X669180*
X669353Y639779*
X669526Y639566*
X669612Y639354*
X669699Y639035*
Y638504*
X669612Y638185*
X669526Y637972*
X669353Y637760*
X669180Y637654*
X668835*
X668662Y637760*
X668490Y637972*
X668403Y638185*
X667540Y639354D02*
Y639460D01*
X667453Y639672*
X667367Y639779*
X667194Y639885*
X666849*
X666676Y639779*
X666590Y639672*
X666503Y639460*
Y639247*
X666590Y639035*
X666762Y638716*
X667626Y637654*
X666417*
X664517Y639885D02*
X665380D01*
X665467Y638929*
X665380Y639035*
X665121Y639141*
X664862*
X664603Y639035*
X664430Y638822*
X664344Y638504*
X664430Y638291*
X664517Y637972*
X664690Y637760*
X664949Y637654*
X665208*
X665467Y637760*
X665553Y637866*
X665640Y638079*
X647005Y644400D02*
X647091Y644613D01*
X647091D02*
X647264Y644825D01*
X647436Y644931*
X647782*
X647955Y644825*
X648127Y644613*
X648127D02*
X648214Y644400D01*
X648300Y644081*
Y643550*
X648214Y643231*
X648127Y643019*
X647955Y642806*
X647782Y642700*
X647436*
X647264Y642806*
X647091Y643019*
X647005Y643231*
X646141Y644400D02*
Y644506D01*
X646055Y644719*
X645968Y644825*
X645795Y644931*
X645450*
X645277Y644825*
X645191Y644719*
X645105Y644506*
Y644294*
X645191Y644081*
X645364Y643763*
X645364D02*
X646227Y642700D01*
X645018*
X643205Y644613D02*
X643291Y644825D01*
X643550Y644931*
X643723*
X643982Y644825*
X644155Y644506*
X644241Y643975*
Y643444*
X644155Y643019*
X643982Y642806*
X643723Y642700*
X643636*
X643377Y642806*
X643205Y643019*
X643118Y643338*
X643118D02*
Y643444D01*
X643205Y643763*
X643205D02*
X643377Y643975D01*
X643636Y644081*
X643723*
X643982Y643975*
X644155Y643763*
X644155D02*
X644241Y643444D01*
X635999Y682958D02*
X635786Y683045D01*
X635574Y683217*
X635467Y683390*
Y683736*
X635574Y683908*
X635786Y684081*
X635999Y684167*
X636317Y684254*
X636849*
X637167Y684167*
X637380Y684081*
X637592Y683908*
X637699Y683736*
Y683390*
X637592Y683217*
X637380Y683045*
X637167Y682958*
X635467Y682008D02*
Y681058D01*
X636317Y681576*
Y681317*
X636424Y681145*
X636530Y681058*
X636849Y680972*
X637061*
X637380Y681058*
X637592Y681231*
X637699Y681490*
Y681749*
X637592Y682008*
X637486Y682095*
X637274Y682181*
X635467Y679676D02*
X635574Y679936D01*
X635892Y680108*
X636424Y680195*
X636742*
X637274Y680108*
X637592Y679936*
X637699Y679676*
Y679504*
X637592Y679245*
X637274Y679072*
X636742Y678986*
X636424*
X635892Y679072*
X635574Y679245*
X635467Y679504*
Y679676*
X631403Y777354D02*
X631490Y777566D01*
X631662Y777779*
X631835Y777885*
X632180*
X632353Y777779*
X632526Y777566*
X632612Y777354*
X632699Y777035*
Y776504*
X632612Y776185*
X632526Y775972*
X632353Y775760*
X632180Y775654*
X631835*
X631662Y775760*
X631490Y775972*
X631403Y776185*
X630453Y777885D02*
X629503D01*
X630021Y777035*
X629762*
X629590Y776929*
X629503Y776822*
X629417Y776504*
Y776291*
X629503Y775972*
X629676Y775760*
X629935Y775654*
X630194*
X630453Y775760*
X630540Y775866*
X630626Y776079*
X628553Y777354D02*
Y777460D01*
X628467Y777672*
X628380Y777779*
X628208Y777885*
X627862*
X627690Y777779*
X627603Y777672*
X627517Y777460*
Y777247*
X627603Y777035*
X627776Y776716*
X628640Y775654*
X627430*
X653999Y661958D02*
X653786Y662045D01*
X653574Y662217*
X653467Y662390*
Y662736*
X653574Y662908*
X653786Y663081*
X653999Y663167*
X654317Y663254*
X654849*
X655167Y663167*
X655380Y663081*
X655592Y662908*
X655699Y662736*
Y662390*
X655592Y662217*
X655380Y662045*
X655167Y661958*
X653467Y660749D02*
X653574Y661008D01*
X653786Y661095*
X653999*
X654211Y661008*
X654317Y660836*
X654424Y660490*
X654530Y660231*
X654742Y660058*
X654955Y659972*
X655274*
X655486Y660058*
X655592Y660145*
X655699Y660404*
Y660749*
X655592Y661008*
X655486Y661095*
X655274Y661181*
X654955*
X654742Y661095*
X654530Y660922*
X654424Y660663*
X654317Y660317*
X654211Y660145*
X653999Y660058*
X653786*
X653574Y660145*
X653467Y660404*
Y660749*
X620467Y788254D02*
X622699D01*
X620467D02*
Y787476D01*
X620574Y787217*
X620680Y787131*
X620892Y787045*
X621105*
X621317Y787131*
X621424Y787217*
X621530Y787476*
Y788254*
Y787649D02*
X622699Y787045D01*
X620999Y786181D02*
X620892D01*
X620680Y786095*
X620574Y786008*
X620467Y785836*
Y785490*
X620574Y785317*
X620680Y785231*
X620892Y785145*
X621105*
X621317Y785231*
X621636Y785404*
X622699Y786267*
Y785058*
X620467Y783849D02*
X620574Y784108D01*
X620786Y784195*
X620999*
X621211Y784108*
X621317Y783936*
X621424Y783590*
X621530Y783331*
X621742Y783158*
X621955Y783072*
X622274*
X622486Y783158*
X622592Y783245*
X622699Y783504*
Y783849*
X622592Y784108*
X622486Y784195*
X622274Y784281*
X621955*
X621742Y784195*
X621530Y784022*
X621424Y783763*
X621317Y783417*
X621211Y783245*
X620999Y783158*
X620786*
X620574Y783245*
X620467Y783504*
Y783849*
X640467Y684254D02*
X642699D01*
X640467D02*
Y683476D01*
X640574Y683217*
X640680Y683131*
X640892Y683045*
X641105*
X641317Y683131*
X641424Y683217*
X641530Y683476*
Y684254*
Y683649D02*
X642699Y683045D01*
X640467Y681145D02*
Y682008D01*
X641424Y682095*
X641317Y682008*
X641211Y681749*
Y681490*
X641317Y681231*
X641530Y681058*
X641849Y680972*
X642061Y681058*
X642380Y681145*
X642592Y681317*
X642699Y681576*
Y681836*
X642592Y682095*
X642486Y682181*
X642274Y682267*
X640467Y679676D02*
X640574Y679936D01*
X640892Y680108*
X641424Y680195*
X641742*
X642274Y680108*
X642592Y679936*
X642699Y679676*
Y679504*
X642592Y679245*
X642274Y679072*
X641742Y678986*
X641424*
X640892Y679072*
X640574Y679245*
X640467Y679504*
Y679676*
X628699Y697885D02*
Y695654D01*
Y697885D02*
X627921D01*
X627662Y697779*
X627576Y697672*
X627490Y697460*
Y697247*
X627576Y697035*
X627662Y696929*
X627921Y696822*
X628699*
X628094D02*
X627490Y695654D01*
X625590Y697885D02*
X626453D01*
X626540Y696929*
X626453Y697035*
X626194Y697141*
X625935*
X625676Y697035*
X625503Y696822*
X625417Y696504*
X625503Y696291*
X625590Y695972*
X625762Y695760*
X626021Y695654*
X626280*
X626540Y695760*
X626626Y695866*
X626712Y696079*
X624467Y697885D02*
X623517D01*
X624035Y697035*
X623776*
X623603Y696929*
X623517Y696822*
X623430Y696504*
Y696291*
X623517Y695972*
X623690Y695760*
X623949Y695654*
X624208*
X624467Y695760*
X624553Y695866*
X624640Y696079*
X635937Y782116D02*
Y779885D01*
Y782116D02*
X635160D01*
X634900Y782010*
X634814Y781904*
X634728Y781691*
Y781479*
X634814Y781266*
X634900Y781160*
X635160Y781054*
X635937*
X635332D02*
X634728Y779885D01*
X632828Y782116D02*
X633691D01*
X633778Y781160*
X633691Y781266*
X633432Y781373*
X633173*
X632914Y781266*
X632741Y781054*
X632655Y780735*
X632741Y780523*
X632828Y780204*
X633000Y779991*
X633260Y779885*
X633519*
X633778Y779991*
X633864Y780098*
X633950Y780310*
X630669Y782116D02*
X631532Y779885D01*
X631878Y782116D02*
X630669D01*
X635700Y785931D02*
Y783700D01*
Y785931D02*
X634923D01*
X634664Y785825*
X634577Y785719*
X634491Y785506*
Y785294*
X634577Y785081*
X634664Y784975*
X634923Y784869*
X635700*
X635095D02*
X634491Y783700D01*
X632591Y785931D02*
X633455D01*
X633541Y784975*
X633455Y785081*
X633195Y785188*
X633195D02*
X632936D01*
X632936D02*
X632677Y785081D01*
X632505Y784869*
X632418Y784550*
X632505Y784338*
X632505D02*
X632591Y784019D01*
X632764Y783806*
X633023Y783700*
X633282*
X633541Y783806*
X633627Y783913*
X633627D02*
X633714Y784125D01*
X631209Y785931D02*
X631468Y785825D01*
X631555Y785613*
X631555D02*
Y785400D01*
X631468Y785188*
X631468D02*
X631295Y785081D01*
X630950Y784975*
X630691Y784869*
X630518Y784656*
X630432Y784444*
Y784125*
X630518Y783913*
X630518D02*
X630605Y783806D01*
X630864Y783700*
X631209*
X631468Y783806*
X631555Y783913*
X631555D02*
X631641Y784125D01*
Y784444*
X631555Y784656*
X631382Y784869*
X631123Y784975*
X630777Y785081*
X630605Y785188*
X630605D02*
X630518Y785400D01*
Y785613*
X630518D02*
X630605Y785825D01*
X630864Y785931*
X631209*
X661187Y717866D02*
Y715635D01*
Y717866D02*
X660410D01*
X660150Y717760*
X660064Y717654*
X659978Y717441*
Y717229*
X660064Y717016*
X660150Y716910*
X660410Y716804*
X661187*
X660582D02*
X659978Y715635D01*
X658164Y717548D02*
X658250Y717760D01*
X658510Y717866*
X658682*
X658941Y717760*
X659114Y717441*
X659200Y716910*
Y716379*
X659114Y715954*
X658941Y715741*
X658682Y715635*
X658596*
X658337Y715741*
X658164Y715954*
X658078Y716273*
Y716379*
X658164Y716698*
X658337Y716910*
X658596Y717016*
X658682*
X658941Y716910*
X659114Y716698*
X659200Y716379*
X679699Y721885D02*
Y719654D01*
Y721885D02*
X678921D01*
X678662Y721779*
X678576Y721672*
X678490Y721460*
Y721247*
X678576Y721035*
X678662Y720929*
X678921Y720822*
X679699*
X679094D02*
X678490Y719654D01*
X676503Y721885D02*
X677367Y719654D01*
X677712Y721885D02*
X676503D01*
X654467Y794254D02*
X656699D01*
X654467D02*
Y793476D01*
X654574Y793217*
X654680Y793131*
X654892Y793045*
X655105*
X655317Y793131*
X655424Y793217*
X655530Y793476*
Y794254*
Y793649D02*
X656699Y793045D01*
X654467Y791058D02*
X656699Y791922D01*
X654467Y792267D02*
Y791058D01*
Y789417D02*
X655955Y790281D01*
Y788986*
X654467Y789417D02*
X656699D01*
X649467Y794254D02*
X651699D01*
X649467D02*
Y793476D01*
X649574Y793217*
X649680Y793131*
X649892Y793045*
X650105*
X650317Y793131*
X650424Y793217*
X650530Y793476*
Y794254*
Y793649D02*
X651699Y793045D01*
X649467Y791058D02*
X651699Y791922D01*
X649467Y792267D02*
Y791058D01*
Y789158D02*
Y790022D01*
X650424Y790108*
X650317Y790022*
X650211Y789763*
Y789504*
X650317Y789245*
X650530Y789072*
X650849Y788986*
X651061Y789072*
X651380Y789158*
X651592Y789331*
X651699Y789590*
Y789849*
X651592Y790108*
X651486Y790195*
X651274Y790281*
X685467Y643254D02*
X687699D01*
X685467D02*
Y642476D01*
X685574Y642217*
X685680Y642131*
X685892Y642045*
X686105*
X686317Y642131*
X686424Y642217*
X686530Y642476*
Y643254*
Y642649D02*
X687699Y642045D01*
X685467Y640058D02*
X687699Y640922D01*
X685467Y641267D02*
Y640058D01*
X686211Y638158D02*
X686530Y638245D01*
X686742Y638417*
X686849Y638676*
Y638763*
X686742Y639022*
X686530Y639195*
X686211Y639281*
X686105*
X685786Y639195*
X685574Y639022*
X685467Y638763*
Y638676*
X685574Y638417*
X685786Y638245*
X686211Y638158*
X686742*
X687274Y638245*
X687592Y638417*
X687699Y638676*
Y638849*
X687592Y639108*
X687380Y639195*
X661187Y712866D02*
Y710635D01*
Y712866D02*
X660410D01*
X660150Y712760*
X660064Y712654*
X659978Y712441*
Y712229*
X660064Y712016*
X660150Y711910*
X660410Y711804*
X661187*
X660582D02*
X659978Y710635D01*
X658078Y712123D02*
X658164Y711804D01*
X658337Y711591*
X658596Y711485*
X658682*
X658941Y711591*
X659114Y711804*
X659200Y712123*
Y712229*
X659114Y712548*
X658941Y712760*
X658682Y712866*
X658596*
X658337Y712760*
X658164Y712548*
X658078Y712123*
Y711591*
X658164Y711060*
X658337Y710741*
X658596Y710635*
X658769*
X659028Y710741*
X659114Y710954*
X715095Y825931D02*
Y823700D01*
X715700Y825931D02*
X714491D01*
X713714D02*
Y823700D01*
Y825931D02*
X712936D01*
X712677Y825825*
X712591Y825719*
X712505Y825506*
Y825188*
X712505D02*
X712591Y824975D01*
X712677Y824869*
X712936Y824763*
X712936D02*
X713714D01*
X711727Y825506D02*
X711555Y825613D01*
X711555D02*
X711295Y825931D01*
Y823700*
X710518Y825506D02*
X710345Y825613D01*
X710345D02*
X710086Y825931D01*
Y823700*
X628095Y604131D02*
Y601900D01*
X628700Y604131D02*
X627491D01*
X626714D02*
Y601900D01*
Y604131D02*
X625936D01*
X625677Y604025*
X625591Y603919*
X625505Y603706*
Y603388*
X625505D02*
X625591Y603175D01*
X625677Y603069*
X625936Y602963*
X625936D02*
X626714D01*
X623691Y603813D02*
X623777Y604025D01*
X624036Y604131*
X624209*
X624468Y604025*
X624641Y603706*
X624727Y603175*
Y602644*
X624641Y602219*
X624468Y602006*
X624209Y601900*
X624123*
X623864Y602006*
X623691Y602219*
X623605Y602538*
X623605D02*
Y602644D01*
X623691Y602963*
X623691D02*
X623864Y603175D01*
X624123Y603281*
X624209*
X624468Y603175*
X624641Y602963*
X624641D02*
X624727Y602644D01*
X717695Y614931D02*
Y612700D01*
X718300Y614931D02*
X717091D01*
X716314D02*
Y612700D01*
Y614931D02*
X715536D01*
X715277Y614825*
X715191Y614719*
X715105Y614506*
Y614188*
X715105D02*
X715191Y613975D01*
X715277Y613869*
X715536Y613763*
X715536D02*
X716314D01*
X713895Y614931D02*
X714155Y614825D01*
X714241Y614613*
X714241D02*
Y614400D01*
X714155Y614188*
X714155D02*
X713982Y614081D01*
X713636Y613975*
X713377Y613869*
X713205Y613656*
X713118Y613444*
Y613125*
X713205Y612913*
X713205D02*
X713291Y612806D01*
X713550Y612700*
X713895*
X714155Y612806*
X714241Y612913*
X714241D02*
X714327Y613125D01*
Y613444*
X714241Y613656*
X714068Y613869*
X713809Y613975*
X713464Y614081*
X713291Y614188*
X713291D02*
X713205Y614400D01*
Y614613*
X713205D02*
X713291Y614825D01*
X713550Y614931*
X713895*
X637395Y799631D02*
Y797400D01*
X638000Y799631D02*
X636791D01*
X636014D02*
Y797400D01*
Y799631D02*
X635236D01*
X634977Y799525*
X634891Y799419*
X634805Y799206*
Y798888*
X634805D02*
X634891Y798675D01*
X634977Y798569*
X635236Y798463*
X635236D02*
X636014D01*
X632905Y798888D02*
X632991Y798569D01*
X633164Y798356*
X633423Y798250*
X633509*
X633768Y798356*
X633941Y798569*
X634027Y798888*
X634027D02*
Y798994D01*
X633941Y799313*
X633941D02*
X633768Y799525D01*
X633509Y799631*
X633423*
X633164Y799525*
X632991Y799313*
X632991D02*
X632905Y798888D01*
X632905D02*
Y798356D01*
X632991Y797825*
X633164Y797506*
X633423Y797400*
X633595*
X633855Y797506*
X633941Y797719*
X622403Y770354D02*
X622490Y770566D01*
X622662Y770779*
X622835Y770885*
X623180*
X623353Y770779*
X623526Y770566*
X623612Y770354*
X623699Y770035*
Y769504*
X623612Y769185*
X623526Y768972*
X623353Y768760*
X623180Y768654*
X622835*
X622662Y768760*
X622490Y768972*
X622403Y769185*
X620503Y770885D02*
X621367D01*
X621453Y769929*
X621367Y770035*
X621108Y770141*
X620849*
X620590Y770035*
X620417Y769822*
X620330Y769504*
X620417Y769291*
X620503Y768972*
X620676Y768760*
X620935Y768654*
X621194*
X621453Y768760*
X621540Y768866*
X621626Y769079*
X618430Y770141D02*
X618517Y769822D01*
X618690Y769610*
X618949Y769504*
X619035*
X619294Y769610*
X619467Y769822*
X619553Y770141*
Y770247*
X619467Y770566*
X619294Y770779*
X619035Y770885*
X618949*
X618690Y770779*
X618517Y770566*
X618430Y770141*
Y769610*
X618517Y769079*
X618690Y768760*
X618949Y768654*
X619121*
X619380Y768760*
X619467Y768972*
X690769Y720500D02*
X693000D01*
X690769D02*
Y719723D01*
X690875Y719464*
X690981Y719377*
X691194Y719291*
X691406*
X691619Y719377*
X691725Y719464*
X691831Y719723*
Y720500*
Y719895D02*
X693000Y719291D01*
X690769Y718082D02*
X690875Y718341D01*
X691087Y718427*
X691087D02*
X691300D01*
X691512Y718341*
X691512D02*
X691619Y718168D01*
X691725Y717823*
X691831Y717564*
X692044Y717391*
X692256Y717305*
X692575*
X692787Y717391*
X692787D02*
X692894Y717477D01*
X693000Y717736*
Y718082*
X692894Y718341*
X692787Y718427*
X692787D02*
X692575Y718514D01*
X692256*
X692044Y718427*
X691831Y718255*
X691725Y717995*
X691619Y717650*
X691512Y717477*
X691512D02*
X691300Y717391D01*
X691087*
X691087D02*
X690875Y717477D01*
X690769Y717736*
Y718082*
Y716009D02*
X690875Y716268D01*
X691194Y716441*
X691725Y716527*
X692044*
X692575Y716441*
X692894Y716268*
X693000Y716009*
Y715836*
X692894Y715577*
X692575Y715405*
X692044Y715318*
X691725*
X691194Y715405*
X690875Y715577*
X690769Y715836*
Y716009*
X671467Y609254D02*
X673699D01*
X671467D02*
Y608476D01*
X671574Y608217*
X671680Y608131*
X671892Y608045*
X672105*
X672317Y608131*
X672424Y608217*
X672530Y608476*
Y609254*
Y608649D02*
X673699Y608045D01*
X671999Y607181D02*
X671892D01*
X671680Y607095*
X671574Y607008*
X671467Y606836*
Y606490*
X671574Y606317*
X671680Y606231*
X671892Y606145*
X672105*
X672317Y606231*
X672636Y606404*
X673699Y607267*
Y606058*
X671892Y605281D02*
X671786Y605108D01*
X671467Y604849*
X673699*
X635500Y640125D02*
Y637500D01*
Y640125D02*
X634682D01*
X634409Y640000*
X634318Y639875*
X634227Y639625*
Y639375*
X634318Y639125*
X634409Y639000*
X634682Y638875*
X635500*
X634864D02*
X634227Y637500D01*
X632955Y640125D02*
X633227Y640000D01*
X633318Y639750*
Y639500*
X633227Y639250*
X633045Y639125*
X632682Y639000*
X632409Y638875*
X632227Y638625*
X632136Y638375*
Y638000*
X632227Y637750*
X632318Y637625*
X632591Y637500*
X632955*
X633227Y637625*
X633318Y637750*
X633409Y638000*
Y638375*
X633318Y638625*
X633136Y638875*
X632864Y639000*
X632500Y639125*
X632318Y639250*
X632227Y639500*
Y639750*
X632318Y640000*
X632591Y640125*
X632955*
X630045D02*
X630955Y637500D01*
X631318Y640125D02*
X630045D01*
G54D48*
X718584Y606957D02*
G03X718584I-3200J0D01*
G01X621148Y605684D02*
G03X621148I-3200J0D01*
G01X638667Y792023D02*
G03X638667I-3200J0D01*
G01X716116Y831950D02*
G03X716116I-3200J0D01*
G54D67*
G01X702174Y687529D02*
Y695129D01*
G03X700773Y696429I-1299J5*
G01X700774D02*
X698774D01*
G03X697374Y695128I-183J-1207*
G01Y695129D02*
Y687529D01*
X697373Y687530D02*
G03X698774Y686229I1527J239D01*
G01X700774*
G03X702174Y687529I-40J1446*
G01X667174Y623154D02*
Y630754D01*
G03X665773Y632054I-1299J5*
G01X665774D02*
X663774D01*
G03X662374Y630753I-183J-1207*
G01Y630754D02*
Y623154D01*
X662373Y623155D02*
G03X663774Y621854I1527J239D01*
G01X665774*
G03X667174Y623154I-40J1446*
G01X668574Y618104D02*
X660974D01*
X660973D02*
G03X659674Y616703I-5J-1299D01*
G01Y616704D02*
Y614704D01*
G03X660975Y613304I1207J-183*
G01X660974D02*
X668574D01*
X668572D02*
G03X669874Y614704I-239J1526D01*
G01Y616704*
G03X668573Y618104I-1447J-40*
G01X674099Y628304D02*
X681699D01*
G03X682999Y629704I5J1298*
G01Y631704*
G03X681698Y633104I-1208J182*
G01X681699D02*
X674099D01*
X674100D02*
G03X672799Y631704I239J-1527D01*
G01Y629704*
Y629703D02*
G03X674099Y628304I1446J40D01*
G01X683424Y636279D02*
Y643879D01*
G03X682023Y645179I-1299J5*
G01X682024D02*
X680024D01*
G03X678624Y643878I-183J-1207*
G01Y643879D02*
Y636279D01*
X678623Y636280D02*
G03X680024Y634979I1527J239D01*
G01X682024*
G03X683424Y636279I-40J1446*
G01X632374Y720604D02*
X622174D01*
Y715804*
X632374*
Y720604*
X701699Y798729D02*
X694099D01*
X694098D02*
G03X692799Y797328I-5J-1299D01*
G01Y797329D02*
Y795329D01*
G03X694100Y793929I1207J-183*
G01X694099D02*
X701699D01*
X701697D02*
G03X702999Y795329I-239J1526D01*
G01Y797329*
G03X701698Y798729I-1447J-40*
G01X707799Y630654D02*
Y638254D01*
G03X706398Y639554I-1299J5*
G01X706399D02*
X704399D01*
G03X702999Y638253I-183J-1207*
G01Y638254D02*
Y630654D01*
X702998Y630655D02*
G03X704399Y629354I1527J239D01*
G01X706399*
G03X707799Y630654I-40J1446*
G01X631749Y708729D02*
X621549D01*
Y703929*
X631749*
Y708729*
X622849Y709554D02*
X630449D01*
G03X631749Y710954I5J1298*
G01Y712954*
G03X630448Y714354I-1208J182*
G01X630449D02*
X622849D01*
X622850D02*
G03X621549Y712954I239J-1527D01*
G01Y710954*
Y710953D02*
G03X622849Y709554I1446J40D01*
G01X643424Y705654D02*
Y713254D01*
G03X642023Y714554I-1299J5*
G01X642024D02*
X640024D01*
G03X638624Y713253I-183J-1207*
G01Y713254D02*
Y705654D01*
X638623Y705655D02*
G03X640024Y704354I1527J239D01*
G01X642024*
G03X643424Y705654I-40J1446*
G01X637799D02*
Y713254D01*
G03X636398Y714554I-1299J5*
G01X636399D02*
X634399D01*
G03X632999Y713253I-183J-1207*
G01Y713254D02*
Y705654D01*
X632998Y705655D02*
G03X634399Y704354I1527J239D01*
G01X636399*
G03X637799Y705654I-40J1446*
G01X619724Y737679D02*
X627324D01*
G03X628624Y739079I5J1298*
G01Y741079*
G03X627323Y742479I-1208J182*
G01X627324D02*
X619724D01*
X619725D02*
G03X618424Y741079I239J-1527D01*
G01Y739079*
Y739078D02*
G03X619724Y737679I1446J40D01*
G01X649824Y653104D02*
X642224D01*
X642223D02*
G03X640924Y651703I-5J-1299D01*
G01Y651704D02*
Y649704D01*
G03X642225Y648304I1207J-183*
G01X642224D02*
X649824D01*
X649822D02*
G03X651124Y649704I-239J1526D01*
G01Y651704*
G03X649823Y653104I-1447J-40*
G01X630499Y660754D02*
Y653154D01*
Y653153D02*
G03X631899Y651854I1298J-5D01*
G01X633899*
G03X635299Y653155I182J1207*
G01Y653154D02*
Y660754D01*
Y660753D02*
G03X633899Y662054I-1527J-239D01*
G01X631899*
X631898D02*
G03X630499Y660753I40J-1447D01*
G01X652949Y736854D02*
X645349D01*
X645348D02*
G03X644049Y735453I-5J-1299D01*
G01Y735454D02*
Y733454D01*
G03X645350Y732054I1207J-183*
G01X645349D02*
X652949D01*
X652947D02*
G03X654249Y733454I-239J1526D01*
G01Y735454*
G03X652948Y736854I-1447J-40*
G01X622999Y660754D02*
Y653154D01*
Y653153D02*
G03X624399Y651854I1298J-5D01*
G01X626399*
G03X627799Y653155I182J1207*
G01Y653154D02*
Y660754D01*
Y660753D02*
G03X626399Y662054I-1527J-239D01*
G01X624399*
X624398D02*
G03X622999Y660753I40J-1447D01*
G01X642224Y653929D02*
X649824D01*
G03X651124Y655329I5J1298*
G01Y657329*
G03X649823Y658729I-1208J182*
G01X649824D02*
X642224D01*
X642225D02*
G03X640924Y657329I239J-1527D01*
G01Y655329*
Y655328D02*
G03X642224Y653929I1446J40D01*
G01X662849Y641429D02*
X670449D01*
G03X671749Y642829I5J1298*
G01Y644829*
G03X670448Y646229I-1208J182*
G01X670449D02*
X662849D01*
X662850D02*
G03X661549Y644829I239J-1527D01*
G01Y642829*
Y642828D02*
G03X662849Y641429I1446J40D01*
G01X659199Y646229D02*
X651599D01*
X651598D02*
G03X650299Y644828I-5J-1299D01*
G01Y644829D02*
Y642829D01*
G03X651600Y641429I1207J-183*
G01X651599D02*
X659199D01*
X659197D02*
G03X660499Y642829I-239J1526D01*
G01Y644829*
G03X659198Y646229I-1447J-40*
G01X642324Y770604D02*
X634724D01*
X634723D02*
G03X633424Y769203I-5J-1299D01*
G01Y769204D02*
Y767204D01*
G03X634725Y765804I1207J-183*
G01X634724D02*
X642324D01*
X642322D02*
G03X643624Y767204I-239J1526D01*
G01Y769204*
G03X642323Y770604I-1447J-40*
G01X657174Y650029D02*
Y657629D01*
G03X655773Y658929I-1299J5*
G01X655774D02*
X653774D01*
G03X652374Y657628I-183J-1207*
G01Y657629D02*
Y650029D01*
X652373Y650030D02*
G03X653774Y648729I1527J239D01*
G01X655774*
G03X657174Y650029I-40J1446*
G01X619724Y761429D02*
X627324D01*
G03X628624Y762829I5J1298*
G01Y764829*
G03X627323Y766229I-1208J182*
G01X627324D02*
X619724D01*
X619725D02*
G03X618424Y764829I239J-1527D01*
G01Y762829*
Y762828D02*
G03X619724Y761429I1446J40D01*
G54D122*
G54D210*
G01X682259Y738844D02*
X646038D01*
Y775064*
X682259*
Y738844*
X681142Y772702D02*
G03X681142I-1245J0D01*
G01X658452Y792466D02*
Y781442D01*
X665145*
Y792466*
X658452*
X659892Y793500D02*
X658367Y795025D01*
X661447*
X659947Y793525*
G54D212*
X715683Y831954D02*
G03X715683I-2784J0D01*
G01X620683Y605704D02*
G03X620683I-2784J0D01*
G01X718183Y606954D02*
G03X718183I-2784J0D01*
G01X638183Y791954D02*
G03X638183I-2784J0D01*
G54D316*
G01X613249Y617304D02*
X612840D01*
X612703Y617248*
X612658Y617191*
X612613Y617079*
X636227Y617022D02*
Y617135D01*
X636273Y617248*
X636409Y617304*
X636591*
X636727Y617248*
X636773Y617135*
Y617022*
X619925Y620989D02*
X620085D01*
Y620829*
X619925*
Y620989*
X619445Y621349D02*
X619165D01*
Y621069*
X619445*
Y621349*
X619565Y617749D02*
X617645D01*
Y617549*
X619565*
Y617749*
X619925Y620749D02*
X620045D01*
Y619429*
X619925*
Y620749*
X631965Y622589D02*
X632085D01*
Y620589*
X631965*
Y622589*
X612885Y617549D02*
X612725D01*
Y617309*
X612885*
Y617549*
X613045Y620509D02*
X612965D01*
Y617269*
X613045*
Y620509*
X613325Y620669D02*
X612645D01*
Y617629*
X613325*
Y620669*
X613285Y621229D02*
X612925D01*
Y620629*
X613285*
Y621229*
X615405Y621429D02*
X613525D01*
Y621269*
X615405*
Y621429*
X615525Y621509D02*
X613365D01*
Y621029*
X615525*
Y621509*
X615965Y622749D02*
X615805D01*
Y617509*
X615965*
Y622749*
X616125Y622909D02*
X615605D01*
Y617309*
X616125*
Y622909*
X623965Y618189D02*
X623805D01*
Y618069*
X623965*
Y618189*
X617525Y617669D02*
X617205D01*
Y617549*
X617525*
Y617669*
X617605Y617789D02*
X617005D01*
Y617349*
X617605*
Y617789*
X619765Y617909D02*
X617445D01*
Y617509*
X619765*
Y617909*
X620045Y618189D02*
X619645D01*
Y617909*
X620045*
Y618189*
X620285Y619109D02*
X619885D01*
Y618309*
X620285*
Y619109*
X620245Y620789D02*
X619845D01*
Y619269*
X620245*
Y620789*
X619925Y621229D02*
X619725D01*
Y620709*
X619925*
Y621229*
X619565Y621389D02*
X619125D01*
Y620989*
X619565*
Y621389*
X619005D02*
X617085D01*
Y621229*
X619005*
Y621389*
X619125Y621629D02*
X616925D01*
Y621029*
X619125*
Y621629*
X623765Y617629D02*
X621445D01*
Y617549*
X623765*
Y617629*
X623965Y617869D02*
X621285D01*
Y617389*
X623965*
Y617869*
X624325Y618389D02*
X624005D01*
Y617789*
X624325*
Y618389*
X623845Y619229D02*
X623645D01*
Y619109*
X623845*
Y619229*
X624005Y619469D02*
X623445D01*
Y618869*
X624005*
Y619469*
X624645Y620269D02*
X624325D01*
Y618229*
X624645*
Y620269*
X624285Y621309D02*
X624205D01*
Y618549*
X624285*
Y621309*
X624565Y621509D02*
X624005D01*
Y620509*
X624565*
Y621509*
X623205Y619309D02*
X622165D01*
Y619109*
X623205*
Y619309*
X623245Y619509D02*
X621845D01*
Y618949*
X623245*
Y619509*
X621525Y620069D02*
X621645D01*
Y619509*
X621525*
Y620069*
X621805Y620189D02*
X621325D01*
Y619309*
X621805*
Y620189*
X621685Y621349D02*
X621525D01*
Y620509*
X621685*
Y621349*
X621805Y621069D02*
X621365D01*
Y620149*
X621805*
Y621069*
X622285Y621389D02*
X621925D01*
Y620989*
X622285*
Y621389*
X623605Y621309D02*
X622725D01*
Y621229*
X623605*
Y621309*
X623765Y621549D02*
X622525D01*
Y621029*
X623765*
Y621549*
X627685Y621949D02*
X627565D01*
Y617269*
X627685*
Y621949*
X627885Y622229D02*
X627325D01*
Y617149*
X627885*
Y622229*
X629685Y622669D02*
X625485D01*
Y622589*
X629685*
Y622669*
X629885Y622869D02*
X625325D01*
Y622429*
X629885*
Y622869*
X631485Y617669D02*
X630565D01*
Y617509*
X631485*
Y617669*
X631685Y617909D02*
X630325D01*
Y617309*
X631685*
Y617909*
X632125Y617989D02*
X631965D01*
Y617829*
X632125*
Y617989*
X631725Y618309D02*
X631605D01*
Y618189*
X631725*
Y618309*
X631885Y618109D02*
X631605D01*
Y617709*
X631885*
Y618109*
X632205Y620389D02*
X631885D01*
Y618149*
X632205*
Y620389*
X632685Y621389D02*
X631405D01*
Y621229*
X632685*
Y621389*
X632285Y622909D02*
X631885D01*
Y620509*
X632285*
Y622909*
X633045Y621589D02*
X631045D01*
Y620989*
X633045*
Y621589*
X643125Y621029D02*
X643205D01*
Y620749*
X643125*
Y621029*
X641045Y619229D02*
X639805D01*
Y619069*
X641045*
Y619229*
X637245Y618989D02*
X637085D01*
Y617869*
X637245*
Y618989*
X636885Y619589D02*
X637365D01*
Y619109*
X636885*
Y619589*
X637125Y619789D02*
X636645D01*
Y619229*
X637125*
Y619789*
X637485Y619109D02*
X636925D01*
Y618189*
X637485*
Y619109*
X637005Y617709D02*
X636565D01*
Y617309*
X637005*
Y617709*
X637445Y618269D02*
X636805D01*
Y617709*
X637445*
Y618269*
X636245Y617629D02*
X635005D01*
Y617469*
X636245*
Y617629*
X636485Y617829D02*
X634845D01*
Y617269*
X636485*
Y617829*
X634685Y619229D02*
X634565D01*
Y617269*
X634685*
Y619229*
X634445Y620269D02*
X634245D01*
Y617229*
X634445*
Y620269*
X636365Y619589D02*
X634685D01*
Y619429*
X636365*
Y619589*
X636525Y619869D02*
X634685D01*
Y619309*
X636525*
Y619869*
X634645Y620709D02*
X634205D01*
Y619509*
X634645*
Y620709*
X634885Y621029D02*
X634445D01*
Y620429*
X634885*
Y621029*
X635165Y621429D02*
X634805D01*
Y620909*
X635165*
Y621429*
X636885Y621309D02*
X635285D01*
Y621109*
X636885*
Y621309*
X637045Y621509D02*
X635365D01*
Y620989*
X637045*
Y621509*
X638765Y621069D02*
X638605D01*
Y620349*
X638765*
Y621069*
X639045Y621349D02*
X638725D01*
Y621109*
X639045*
Y621349*
X639565Y621589D02*
X639245D01*
Y620949*
X639565*
Y621589*
X639005Y620989D02*
X638485D01*
Y620349*
X639005*
Y620989*
X638805Y620109D02*
X638765D01*
Y619029*
X638805*
Y620109*
X639005Y620229D02*
X638525D01*
Y619429*
X639005*
Y620229*
X639565Y619549D02*
X639005D01*
Y618989*
X639565*
Y619549*
X641005Y619269D02*
X639325D01*
Y618869*
X641005*
Y619269*
X641085Y619469D02*
X640245D01*
Y618869*
X641085*
Y619469*
X639885Y617669D02*
X638605D01*
Y617509*
X639885*
Y617669*
X640085Y617909D02*
X638405D01*
Y617229*
X640085*
Y617909*
X641245Y617629D02*
X640125D01*
Y617469*
X641245*
Y617629*
X640965Y617909D02*
X640245D01*
Y617309*
X640965*
Y617909*
X641525Y618149D02*
X641005D01*
Y617829*
X641525*
Y618149*
X641565Y619229D02*
X641485D01*
Y618469*
X641565*
Y619229*
X641805Y619349D02*
X641325D01*
Y618229*
X641805*
Y619349*
X641605Y620709D02*
X641485D01*
Y619709*
X641605*
Y620709*
X641805Y620789D02*
X641245D01*
Y619549*
X641805*
Y620789*
X641605Y621309D02*
X639765D01*
Y621149*
X641605*
Y621309*
X641725Y621629D02*
X639725D01*
Y620949*
X641725*
Y621629*
X645485Y617829D02*
X643765D01*
Y617589*
X645485*
Y617829*
X645685Y617949D02*
X643445D01*
Y617349*
X645685*
Y617949*
X645965Y618149D02*
X645445D01*
Y617949*
X645965*
Y618149*
X642965Y618589D02*
X642925D01*
Y617469*
X642965*
Y618589*
X643165Y618669D02*
X642725D01*
Y617229*
X643165*
Y618669*
X643085Y620069D02*
X642965D01*
Y618989*
X643085*
Y620069*
X643245Y620469D02*
X642725D01*
Y618869*
X643245*
Y620469*
X643365Y621149D02*
X642965D01*
Y620189*
X643365*
Y621149*
X643685Y621429D02*
X643445D01*
Y620749*
X643685*
Y621429*
X645405Y621349D02*
X644085D01*
Y621109*
X645405*
Y621349*
X645605Y621589D02*
X643845D01*
Y620949*
X645605*
Y621589*
X645925Y622789D02*
X645885D01*
Y618509*
X645925*
Y622789*
X646125Y622949D02*
X645645D01*
Y618309*
X646125*
Y622949*
X647365Y620749D02*
X647085D01*
Y620309*
X647365*
Y620749*
X647605Y621149D02*
X647405D01*
Y620909*
X647605*
Y621149*
X647765Y620829D02*
X647445D01*
Y620309*
X647765*
Y620829*
X648005Y621349D02*
X647765D01*
Y620909*
X648005*
Y621349*
X649845D02*
X648365D01*
Y621069*
X649845*
Y621349*
X650365Y621589D02*
X648165D01*
Y620949*
X650365*
Y621589*
X647445Y620109D02*
X647325D01*
Y618309*
X647445*
Y620109*
X647645Y620229D02*
X647125D01*
Y618029*
X647645*
Y620229*
X649325Y617669D02*
X647365D01*
Y617589*
X649325*
Y617669*
X649485Y617869D02*
X647125D01*
Y617349*
X649485*
Y617869*
X649845Y618149D02*
X649605D01*
Y617229*
X649845*
Y618149*
X650365Y619069D02*
X650285D01*
Y616029*
X650365*
Y619069*
X650565Y619309D02*
X650005D01*
Y615869*
X650565*
Y619309*
X650325Y621149D02*
X650285D01*
Y619829*
X650325*
Y621149*
X650565Y621269D02*
X650005D01*
Y619509*
X650565*
Y621269*
X651805Y622749D02*
X651685D01*
Y619349*
X651805*
Y622749*
X652005Y622909D02*
X651445D01*
Y619149*
X652005*
Y622909*
X651685Y618909D02*
X651725D01*
Y617829*
X651685*
Y618909*
X652085D02*
X651405D01*
Y617669*
X652085*
Y618909*
X655045Y617709D02*
X651645D01*
Y617349*
X655045*
Y617709*
X655205Y618029D02*
X654645D01*
Y617469*
X655205*
Y618029*
X655445Y622949D02*
X655085D01*
Y618029*
X655445*
Y622949*
X634871Y618025D02*
X635696D01*
X636210Y618026*
X636414Y618032*
X636470Y618038*
X636527Y618046*
X636543Y618050*
X636558Y618054*
X636574Y618060*
X636589Y618067*
X636602Y618075*
X636620Y618086*
X636636Y618099*
X636666Y618127*
X636679Y618143*
X636691Y618160*
X636702Y618177*
X636711Y618195*
X636719Y618214*
X636726Y618234*
X636737Y618278*
X636745Y618322*
X636750Y618368*
X636756Y618588*
X636749Y618810*
X636744Y618855*
X636734Y618900*
X636722Y618944*
X636714Y618963*
X636705Y618982*
X636694Y619000*
X636682Y619017*
X636669Y619033*
X636654Y619048*
X636638Y619062*
X636620Y619075*
X636602Y619087*
X636582Y619098*
X636564Y619106*
X636545Y619113*
X636525Y619118*
X636505Y619122*
X636440Y619129*
X636375Y619134*
X636155Y619139*
X635683Y619141*
X634871*
Y618025*
X637202Y620778D02*
X636338D01*
X635697Y620774*
X635562Y620767*
X635428Y620752*
X635385Y620744*
X635342Y620733*
X635301Y620718*
X635260Y620701*
X635220Y620679*
X635181Y620655*
X635143Y620629*
X635108Y620600*
X635076Y620570*
X635047Y620538*
X635020Y620505*
X634979Y620447*
X634943Y620386*
X634914Y620326*
X634889Y620265*
X634881Y620241*
X634876Y620216*
X634873Y620190*
X634871Y620166*
Y620083*
X635746Y620082*
X636230Y620079*
X636491Y620073*
X636659Y620061*
X636722Y620051*
X636783Y620038*
X636863Y620014*
X636942Y619983*
X637018Y619947*
X637091Y619906*
X637164Y619857*
X637234Y619803*
X637299Y619746*
X637361Y619683*
X637418Y619618*
X637471Y619547*
X637519Y619474*
X637562Y619398*
X637598Y619322*
X637629Y619243*
X637654Y619163*
X637672Y619081*
X637686Y618979*
X637694Y618876*
X637698Y618558*
X637688Y618240*
X637679Y618141*
X637662Y618043*
X637642Y617963*
X637617Y617886*
X637586Y617810*
X637550Y617736*
X637508Y617664*
X637461Y617595*
X637410Y617530*
X637354Y617467*
X637294Y617408*
X637230Y617354*
X637162Y617303*
X637090Y617257*
X636990Y617202*
X636886Y617158*
X636778Y617121*
X636738Y617111*
X636698Y617104*
X636658Y617099*
X636457Y617090*
X636124Y617086*
X635448Y617088*
X634256Y617095*
X634148Y617173*
X634124Y617192*
X634101Y617212*
X634077Y617237*
X634054Y617262*
X634031Y617290*
X634011Y617318*
X633994Y617343*
X633978Y617370*
X633917Y617490*
X633909Y618781*
X633907Y619352*
X633910Y619794*
X633917Y620127*
X633921Y620202*
X633929Y620278*
X633952Y620415*
X633986Y620551*
X634027Y620677*
X634080Y620799*
X634142Y620915*
X634214Y621026*
X634296Y621134*
X634388Y621234*
X634456Y621301*
X634528Y621362*
X634602Y621418*
X634679Y621470*
X634761Y621518*
X634846Y621561*
X634938Y621602*
X635033Y621638*
X635231Y621707*
X637202Y621723*
Y620778*
X639338Y620734D02*
X639318Y620723D01*
X639300Y620711*
X639282Y620698*
X639266Y620684*
X639250Y620668*
X639236Y620652*
X639224Y620635*
X639214Y620618*
X639204Y620598*
X639197Y620579*
X639186Y620546*
X639178Y620513*
X639173Y620479*
X639170Y620446*
X639162Y620226*
X639168Y620014*
X639172Y619969*
X639178Y619925*
X639189Y619882*
X639196Y619858*
X639206Y619834*
X639217Y619811*
X639230Y619790*
X639245Y619769*
X639262Y619750*
X639279Y619732*
X639298Y619715*
X639309Y619708*
X639319Y619702*
X639330Y619696*
X639354Y619686*
X639366Y619683*
X639417Y619674*
X639469Y619669*
X639662Y619662*
X641046*
Y620778*
X640234*
X639762Y620776*
X639542Y620770*
X639478Y620766*
X639414Y620758*
X639394Y620755*
X639375Y620750*
X639356Y620742*
X639338Y620734*
X641679Y621674D02*
X641717Y621655D01*
X641752Y621633*
X641786Y621608*
X641819Y621580*
X641850Y621550*
X641878Y621516*
X641905Y621482*
X641928Y621446*
X641948Y621407*
X641965Y621369*
X641978Y621330*
X641989Y621289*
X641995Y621250*
X642000Y621211*
X642002Y621172*
X642008Y620867*
X642010Y620434*
X642007Y619792*
X641997Y618782*
X641990Y618608*
X641976Y618434*
X641964Y618355*
X641946Y618278*
X641922Y618202*
X641870Y618068*
X641807Y617938*
X641759Y617852*
X641706Y617770*
X641646Y617691*
X641580Y617614*
X641510Y617542*
X641434Y617474*
X641354Y617410*
X641269Y617350*
X641180Y617295*
X641040Y617222*
X640894Y617162*
X640712Y617095*
X639453Y617088*
X638194Y617080*
Y618025*
X639331*
X640178Y618028*
X640326Y618034*
X640475Y618047*
X640520Y618054*
X640565Y618066*
X640609Y618081*
X640651Y618098*
X640694Y618121*
X640736Y618146*
X640775Y618174*
X640813Y618206*
X640844Y618234*
X640873Y618266*
X640900Y618298*
X640940Y618354*
X640976Y618414*
X641005Y618471*
X641030Y618530*
X641037Y618554*
X641042Y618578*
X641045Y618602*
X641046Y618626*
Y618694*
X640246Y618695*
X639638Y618700*
X639481Y618706*
X639325Y618718*
X639218Y618734*
X639112Y618759*
X639045Y618781*
X638978Y618806*
X638914Y618835*
X638833Y618878*
X638756Y618928*
X638682Y618983*
X638614Y619042*
X638550Y619107*
X638490Y619177*
X638437Y619251*
X638389Y619330*
X638347Y619412*
X638310Y619499*
X638278Y619589*
X638254Y619680*
X638238Y619762*
X638227Y619843*
X638222Y619926*
Y620304*
X638244Y620677*
X638250Y620730*
X638260Y620783*
X638274Y620836*
X638290Y620887*
X638333Y620990*
X638383Y621090*
X638421Y621151*
X638462Y621210*
X638507Y621268*
X638556Y621323*
X638607Y621374*
X638662Y621424*
X638752Y621494*
X638848Y621556*
X638914Y621592*
X638982Y621623*
X639052Y621649*
X639126Y621670*
X639201Y621686*
X639277Y621696*
X639454Y621710*
X639633Y621716*
X640456Y621719*
X641133Y621718*
X641421Y621712*
X641585Y621700*
X641609Y621696*
X641633Y621690*
X641656Y621683*
X641679Y621674*
X648318Y620740D02*
X648276Y620726D01*
X648235Y620709*
X648194Y620690*
X648156Y620667*
X648118Y620642*
X648082Y620615*
X648048Y620585*
X648015Y620554*
X647985Y620519*
X647957Y620483*
X647930Y620446*
X647906Y620406*
X647830Y620270*
X647822Y619146*
X647815Y618022*
X649293Y618038*
X649429Y618114*
X649458Y618132*
X649487Y618151*
X649549Y618199*
X649605Y618250*
X649626Y618272*
X649646Y618295*
X649672Y618332*
X649696Y618371*
X649717Y618412*
X649735Y618454*
X649755Y618514*
X649770Y618575*
X649779Y618638*
X649792Y618790*
X649798Y618944*
X649801Y619716*
Y620778*
X649123*
X648773Y620776*
X648558Y620770*
X648414Y620759*
X648382Y620754*
X648350Y620748*
X648318Y620740*
X650396Y621687D02*
X650420Y621678D01*
X650444Y621668*
X650466Y621655*
X650488Y621641*
X650538Y621600*
X650585Y621555*
X650628Y621506*
X650667Y621454*
X650682Y621431*
X650694Y621407*
X650704Y621383*
X650713Y621358*
X650720Y621331*
X650725Y621305*
X650728Y621278*
X650730Y621250*
X650737Y620682*
X650742Y619859*
X650743Y618462*
Y615669*
X649801*
Y617082*
X648548*
X647639Y617085*
X647489Y617089*
X647339Y617100*
X647296Y617106*
X647254Y617114*
X647213Y617126*
X647172Y617141*
X647143Y617154*
X647115Y617169*
X647089Y617186*
X647063Y617206*
X647039Y617226*
X647023Y617242*
X647008Y617259*
X646975Y617302*
X646944Y617350*
X646933Y617370*
X646922Y617393*
X646912Y617417*
X646904Y617442*
X646898Y617467*
X646894Y617493*
X646882Y617686*
X646877Y618033*
X646875Y618895*
X646878Y619935*
X646884Y620134*
X646899Y620334*
X646910Y620421*
X646929Y620506*
X646953Y620591*
X647003Y620727*
X647065Y620859*
X647102Y620927*
X647145Y620993*
X647190Y621055*
X647274Y621155*
X647365Y621250*
X647462Y621338*
X647566Y621419*
X647630Y621465*
X647698Y621506*
X647769Y621543*
X647890Y621598*
X648015Y621644*
X648091Y621666*
X648168Y621682*
X648247Y621694*
X648413Y621708*
X648580Y621714*
X649318Y621717*
X649757Y621714*
X650080Y621709*
X650323Y621700*
X650342Y621699*
X650378Y621693*
X650396Y621687*
X622200Y620759D02*
X622164Y620738D01*
X622130Y620715*
X622098Y620690*
X622086Y620678*
X622075Y620666*
X622057Y620638*
X622043Y620608*
X622034Y620578*
X622026Y620546*
X622018Y620482*
X622013Y620232*
X622014Y620031*
X622016Y619982*
X622021Y619934*
X622024Y619912*
X622030Y619891*
X622036Y619871*
X622042Y619857*
X622048Y619844*
X622055Y619831*
X622064Y619818*
X622081Y619798*
X622099Y619778*
X622118Y619760*
X622140Y619743*
X622162Y619728*
X622186Y619715*
X622210Y619704*
X622235Y619695*
X622261Y619688*
X622287Y619683*
X622398Y619670*
X622509Y619665*
X623098Y619662*
X623910*
Y620802*
X623098*
X622625Y620801*
X622406Y620795*
X622342Y620790*
X622278Y620783*
X622258Y620780*
X622238Y620774*
X622218Y620767*
X622200Y620759*
X624490Y621708D02*
X624512Y621699D01*
X624534Y621689*
X624586Y621656*
X624639Y621618*
X624662Y621599*
X624683Y621579*
X624708Y621553*
X624730Y621525*
X624751Y621494*
X624770Y621462*
X624785Y621430*
X624802Y621382*
X624816Y621334*
X624826Y621286*
X624833Y621235*
X624846Y621059*
X624850Y620882*
X624846Y619843*
X624837Y618822*
X624817Y618467*
X624806Y618388*
X624790Y618310*
X624767Y618234*
X624718Y618102*
X624660Y617975*
X624623Y617907*
X624583Y617842*
X624538Y617779*
X624456Y617679*
X624368Y617585*
X624272Y617496*
X624171Y617413*
X624106Y617367*
X624039Y617325*
X623969Y617286*
X623847Y617229*
X623721Y617182*
X623644Y617159*
X623566Y617142*
X623488Y617131*
X623313Y617118*
X623138Y617111*
X622242Y617108*
X621033Y617107*
Y618050*
X623356*
X623511Y618127*
X623562Y618155*
X623610Y618187*
X623656Y618224*
X623699Y618265*
X623740Y618309*
X623777Y618357*
X623807Y618403*
X623834Y618453*
X623858Y618505*
X623867Y618532*
X623875Y618561*
X623881Y618590*
X623884Y618618*
X623885Y618648*
Y618719*
X623035Y618720*
X622602Y618722*
X622330Y618727*
X622148Y618738*
X622089Y618746*
X622031Y618757*
X621946Y618780*
X621862Y618809*
X621780Y618844*
X621701Y618885*
X621626Y618930*
X621554Y618981*
X621486Y619037*
X621422Y619098*
X621362Y619162*
X621307Y619230*
X621258Y619303*
X621214Y619379*
X621175Y619458*
X621142Y619539*
X621114Y619622*
X621094Y619708*
X621085Y619753*
X621079Y619798*
X621068Y619926*
X621061Y620075*
X621058Y620232*
X621061Y620389*
X621068Y620538*
X621079Y620666*
X621085Y620711*
X621094Y620756*
X621114Y620841*
X621142Y620925*
X621174Y621006*
X621214Y621086*
X621258Y621161*
X621307Y621234*
X621362Y621302*
X621422Y621367*
X621485Y621427*
X621553Y621483*
X621625Y621534*
X621701Y621579*
X621779Y621620*
X621861Y621655*
X621945Y621684*
X622031Y621707*
X622123Y621726*
X622217Y621738*
X622312Y621742*
X623288Y621747*
X624290Y621744*
X624341Y621741*
X624391Y621734*
X624441Y621723*
X624490Y621708*
X619366Y621745D02*
X619475Y621711D01*
X619582Y621670*
X619685Y621622*
X619787Y621565*
X619885Y621501*
X619979Y621430*
X620067Y621354*
X620150Y621271*
X620227Y621183*
X620295Y621094*
X620356Y621000*
X620410Y620902*
X620463Y620782*
X620509Y620659*
X620530Y620586*
X620547Y620510*
X620559Y620434*
X620574Y620275*
X620581Y620115*
X620586Y619451*
X620581Y618790*
X620574Y618630*
X620560Y618471*
X620548Y618395*
X620532Y618321*
X620510Y618247*
X620467Y618128*
X620414Y618013*
X620350Y617893*
X620275Y617778*
X620195Y617673*
X620106Y617575*
X620012Y617486*
X619910Y617406*
X619800Y617334*
X619685Y617271*
X619567Y617218*
X619446Y617176*
X619370Y617155*
X619292Y617140*
X619214Y617130*
X618858Y617111*
X617976Y617108*
X616766Y617107*
X616773Y617572*
X616780Y618038*
X617958Y618050*
X618733Y618059*
X619000Y618068*
X619074Y618074*
X619147Y618085*
X619174Y618090*
X619201Y618098*
X619227Y618108*
X619253Y618119*
X619285Y618137*
X619316Y618156*
X619346Y618177*
X619390Y618212*
X619431Y618252*
X619472Y618296*
X619508Y618344*
X619544Y618398*
X619576Y618454*
X619586Y618475*
X619595Y618497*
X619603Y618520*
X619609Y618543*
X619619Y618601*
X619625Y618660*
X619630Y618866*
X619632Y619438*
Y620319*
X619562Y620461*
X619541Y620501*
X619518Y620538*
X619493Y620575*
X619466Y620609*
X619438Y620640*
X619407Y620669*
X619374Y620697*
X619340Y620722*
X619304Y620744*
X619242Y620776*
X619178Y620803*
X619141Y620815*
X619102Y620825*
X619064Y620831*
X618982Y620840*
X618899Y620845*
X618613Y620851*
X617907Y620852*
X616767*
Y621794*
X617976Y621793*
X618700Y621791*
X619025Y621785*
X619220Y621771*
X619293Y621761*
X619366Y621745*
X655827Y620783D02*
X655825Y619061D01*
X655809Y618561*
X655799Y618462*
X655783Y618364*
X655760Y618267*
X655730Y618169*
X655694Y618074*
X655652Y617981*
X655604Y617891*
X655550Y617806*
X655490Y617726*
X655421Y617644*
X655346Y617567*
X655267Y617495*
X655182Y617427*
X655094Y617364*
X655001Y617306*
X654907Y617257*
X654811Y617213*
X654711Y617175*
X654666Y617161*
X654618Y617150*
X654570Y617142*
X654476Y617132*
X654381Y617126*
X654043Y617118*
X653112Y617113*
X652034Y617110*
X651866Y617114*
X651698Y617126*
X651652Y617133*
X651606Y617143*
X651562Y617158*
X651519Y617176*
X651488Y617193*
X651458Y617212*
X651430Y617234*
X651404Y617257*
X651380Y617282*
X651362Y617304*
X651346Y617327*
X651313Y617379*
X651285Y617432*
X651276Y617454*
X651268Y617476*
X651262Y617500*
X651258Y617524*
X651254Y617549*
X651253Y617574*
X651246Y618171*
X651241Y619002*
X651239Y620328*
Y623084*
X652182*
Y618050*
X653244*
X654034Y618053*
X654176Y618058*
X654319Y618072*
X654363Y618080*
X654407Y618090*
X654450Y618106*
X654491Y618123*
X654533Y618146*
X654574Y618170*
X654612Y618198*
X654649Y618228*
X654674Y618250*
X654697Y618274*
X654746Y618329*
X654789Y618385*
X654804Y618407*
X654818Y618431*
X654873Y618534*
X654886Y623084*
X655827*
Y620783*
X630110Y622166D02*
X628076D01*
Y617008*
X627059*
Y622166*
X625026*
Y623109*
X630110*
Y622166*
X643843Y620695D02*
X643813Y620679D01*
X643782Y620662*
X643718Y620617*
X643658Y620569*
X643636Y620548*
X643615Y620526*
X643587Y620490*
X643562Y620453*
X643539Y620414*
X643520Y620374*
X643503Y620331*
X643490Y620289*
X643480Y620245*
X643474Y620201*
X643461Y620054*
X643455Y619909*
X643452Y619110*
Y618022*
X644190Y618030*
X644658Y618036*
X644840Y618044*
X644894Y618050*
X644946Y618061*
X644976Y618069*
X645005Y618080*
X645033Y618094*
X645084Y618124*
X645134Y618158*
X645181Y618197*
X645225Y618239*
X645266Y618285*
X645302Y618334*
X645335Y618384*
X645365Y618438*
X645424Y618558*
X645438Y620781*
X644712Y620773*
X643986Y620766*
X643843Y620695*
X646366Y618410D02*
X646308Y618236D01*
X646271Y618134*
X646227Y618036*
X646178Y617940*
X646122Y617846*
X646061Y617756*
X645994Y617670*
X645923Y617589*
X645849Y617514*
X645769Y617442*
X645690Y617380*
X645606Y617324*
X645518Y617274*
X645394Y617214*
X645266Y617165*
X645189Y617141*
X645110Y617122*
X645030Y617110*
X644860Y617094*
X644690Y617087*
X643938Y617083*
X643329Y617085*
X643063Y617090*
X642911Y617103*
X642888Y617106*
X642865Y617112*
X642842Y617120*
X642819Y617129*
X642791Y617143*
X642763Y617160*
X642738Y617178*
X642693Y617216*
X642650Y617256*
X642612Y617298*
X642576Y617343*
X642563Y617362*
X642552Y617381*
X642542Y617401*
X642533Y617422*
X642529Y617434*
X642526Y617446*
X642524Y617459*
X642523Y617472*
X642517Y617867*
X642512Y618334*
X642510Y618901*
X642514Y619942*
X642531Y620328*
X642542Y620411*
X642558Y620494*
X642578Y620575*
X642622Y620703*
X642677Y620827*
X642714Y620898*
X642756Y620966*
X642803Y621031*
X642889Y621136*
X642982Y621235*
X643083Y621328*
X643190Y621414*
X643258Y621461*
X643329Y621504*
X643402Y621543*
X643518Y621595*
X643638Y621640*
X643708Y621662*
X643780Y621678*
X643854Y621691*
X643998Y621706*
X644146Y621714*
X644698Y621720*
X645436*
Y623109*
X646380*
X646366Y618410*
X616346Y617082D02*
X615881Y617088D01*
X615416Y617095*
X615403Y620802*
X614559*
X613969Y620800*
X613851Y620795*
X613735Y620785*
X613701Y620780*
X613668Y620772*
X613635Y620762*
X613603Y620750*
X613582Y620739*
X613561Y620726*
X613541Y620712*
X613523Y620697*
X613506Y620679*
X613494Y620663*
X613484Y620645*
X613481Y620636*
X613478Y620626*
X613474Y620606*
X613462Y620394*
X613453Y619999*
X613444Y618859*
X613432Y617095*
X612966Y617088*
X612502Y617082*
Y618902*
X612503Y620058*
X612509Y620493*
X612522Y620733*
X612528Y620784*
X612538Y620834*
X612551Y620884*
X612578Y620960*
X612610Y621034*
X612646Y621105*
X612689Y621175*
X612736Y621242*
X612788Y621306*
X612844Y621367*
X612904Y621425*
X612968Y621478*
X613035Y621527*
X613106Y621572*
X613179Y621612*
X613239Y621640*
X613301Y621664*
X613365Y621683*
X613469Y621707*
X613575Y621722*
X613893Y621740*
X614517Y621745*
X615403*
Y623158*
X616346*
Y617082*
X632540Y621720D02*
X633408D01*
Y620778*
X632543*
X632534Y619606*
X632523Y618741*
X632518Y618586*
X632503Y618431*
X632491Y618358*
X632474Y618286*
X632452Y618215*
X632399Y618082*
X632339Y617952*
X632291Y617863*
X632237Y617778*
X632176Y617697*
X632106Y617615*
X632031Y617539*
X631952Y617467*
X631868Y617399*
X631779Y617338*
X631687Y617281*
X631594Y617231*
X631498Y617188*
X631399Y617152*
X631346Y617135*
X631290Y617123*
X631233Y617113*
X631174Y617106*
X631009Y617096*
X630711Y617088*
X630184Y617078*
Y618025*
X630589*
X630896Y618031*
X630956Y618036*
X631015Y618044*
X631074Y618057*
X631109Y618066*
X631142Y618078*
X631175Y618093*
X631206Y618110*
X631253Y618138*
X631298Y618170*
X631339Y618206*
X631365Y618229*
X631389Y618254*
X631439Y618314*
X631483Y618378*
X631500Y618405*
X631514Y618433*
X631573Y618558*
Y620777*
X631133Y620783*
X630693Y620790*
X630679Y621720*
X631573*
Y623158*
X632540*
Y621720*
G74*
X0Y0D02*
M02*
