*
*
G04 PADS VX.2.4 Build Number: 11282995 generated Gerber (RS-274-X) file*
G04 PC Version=2.1*
*
%IN "UP201 MCU BOARD 2V0-250"*%
*
%MOIN*%
*
%FSLAX35Y35*%
*
*
*
*
G04 PC Standard Apertures*
*
*
G04 Thermal Relief Aperture macro.*
%AMTER*
1,1,$1,0,0*
1,0,$1-$2,0,0*
21,0,$3,$4,0,0,45*
21,0,$3,$4,0,0,135*
%
*
*
G04 Annular Aperture macro.*
%AMANN*
1,1,$1,0,0*
1,0,$2,0,0*
%
*
*
G04 Odd Aperture macro.*
%AMODD*
1,1,$1,0,0*
1,0,$1-0.005,0,0*
%
*
*
G04 PC Custom Aperture Macros*
*
*
*
*
*
*
G04 PC Aperture Table*
*
%ADD010C,0.01*%
%ADD029C,0.006*%
%ADD030C,0.008*%
%ADD032C,0.005*%
%ADD033C,0.004*%
%ADD048C,0.015*%
%ADD067C,0.007*%
%ADD101C,0.012*%
%ADD122C,0.001*%
%ADD137C,0.00984*%
%ADD210C,0.00787*%
%ADD212C,0.00591*%
%ADD213C,0.00394*%
*
*
*
*
G04 PC Circuitry*
G04 Layer Name UP201 MCU BOARD 2V0-250 - circuitry*
%LPD*%
*
*
G04 PC Copper Outlines (0)*
G04 Layer Name UP201 MCU BOARD 2V0-250 - dark (0)*
%LPD*%
*
*
G04 PC Area=System Text*
G75*
G36*
G01*
X615823Y617694D02*
Y617000D01*
X613046D01*
Y617595D01*
X613691Y618091D01*
X613988Y618339D01*
X614187Y618587D01*
X614435Y618835D01*
X614633Y619083D01*
X614732Y619479D01*
X614683Y619727D01*
X614583Y619876D01*
X614385Y619975D01*
X614137Y620025D01*
X613691Y619926D01*
X613245Y619678D01*
X613145D01*
Y620471D01*
X613344Y620570D01*
X613641Y620620D01*
X614286Y620719D01*
X614881Y620620D01*
X615327Y620421D01*
X615575Y620074D01*
X615674Y619628D01*
X615625Y619281D01*
X615526Y618934D01*
X615278Y618636D01*
X614980Y618289D01*
X614534Y617942D01*
X614385Y617793D01*
X614236Y617694D01*
X615823D01*
G37*
G74*
*
G75*
G36*
G01*
X613428Y661419D02*
Y658774D01*
X613221D01*
Y661419D01*
X613428D01*
G37*
G74*
*
G75*
G36*
G01*
X616155Y654601D02*
X616073Y654188D01*
X615825Y653857D01*
X615453Y653650D01*
X614916Y653568D01*
X614420Y653650D01*
X614048Y653857D01*
X613883Y654022D01*
X613800Y654188D01*
X613717Y654601D01*
X613800Y655055D01*
X613883Y655221D01*
X614048Y655386D01*
Y654601D01*
X614089Y654353D01*
X614255Y654105D01*
X614544Y653981D01*
X614916Y653940D01*
X615329Y653981D01*
X615618Y654105D01*
X615783Y654353D01*
X615825Y654601D01*
X615783Y654890D01*
X615618Y655138D01*
X615329Y655262D01*
X614916Y655303D01*
X614544Y655262D01*
X614255Y655138D01*
X614089Y654890D01*
X614048Y654601D01*
Y655386D01*
X614420Y655593D01*
X614916Y655675D01*
X615453Y655593D01*
X615825Y655386D01*
X616073Y655055D01*
X616155Y654601D01*
G37*
G74*
*
G75*
G36*
G01*
X616899Y657080D02*
X616817Y656584D01*
X616734Y656336D01*
X616651Y656047D01*
X616155D01*
Y656088D01*
X616486Y656584D01*
X616569Y657080D01*
X616486Y657493D01*
X616403Y657659D01*
X616238Y657824D01*
X616073Y657948D01*
X615866Y658031D01*
X615288Y658113D01*
X614998Y658072D01*
X614750Y658031D01*
X614502Y657948D01*
X614337Y657824D01*
X614213Y657659D01*
X614131Y657493D01*
X614048Y657287D01*
Y657080D01*
X614089Y656791D01*
X614131Y656543D01*
X614296Y656295D01*
X614461Y656088D01*
Y656047D01*
X614007D01*
X613883Y656254D01*
X613800Y656460D01*
X613759Y656750D01*
X613717Y657080D01*
Y657369D01*
X613800Y657659D01*
X613924Y657907D01*
X614089Y658113D01*
X614337Y658279D01*
X614585Y658402D01*
X614916Y658485D01*
X615288Y658526D01*
X615660Y658485D01*
X615990Y658402D01*
X616238Y658279D01*
X616486Y658113D01*
X616651Y657907D01*
X616775Y657659D01*
X616858Y657369D01*
X616899Y657080D01*
G37*
G74*
*
G75*
G36*
G01*
Y662741D02*
X616858Y662328D01*
X616693Y661998D01*
X616445Y661832D01*
X616114Y661750D01*
X615907Y661791D01*
X615701Y661874D01*
X615536Y662039D01*
X615412Y662245D01*
X615246Y661998D01*
X615081Y661832D01*
X614874Y661708D01*
X614626Y661667D01*
X614255Y661750D01*
X613965Y661956D01*
X613759Y662328D01*
X613717Y662741D01*
X613759Y663196D01*
X613965Y663526D01*
X614007Y663556D01*
Y662741D01*
X614048Y662452D01*
X614172Y662245D01*
X614337Y662121D01*
X614585Y662080D01*
X614750D01*
X614874Y662163D01*
X614998Y662287D01*
X615122Y662493D01*
X615205Y662700D01*
X615329Y662989D01*
X615040Y663279D01*
X614833Y663361D01*
X614668Y663402D01*
X614379Y663361D01*
X614172Y663196D01*
X614048Y662989D01*
X614007Y662741D01*
Y663556D01*
X614255Y663733D01*
X614626Y663816D01*
X614874Y663774D01*
X615081Y663650D01*
X615246Y663485D01*
X615412Y663237D01*
X615494Y663402D01*
Y662493D01*
X615783Y662204D01*
X615949Y662121D01*
X616114D01*
X616321Y662163D01*
X616486Y662287D01*
X616569Y662493D01*
X616610Y662741D01*
X616569Y662948D01*
X616486Y663155D01*
X616321Y663279D01*
X616155Y663320D01*
X615990Y663279D01*
X615907Y663237D01*
X615783Y663113D01*
X615701Y662989D01*
X615618Y662783D01*
X615494Y662493D01*
Y663402D01*
X615536Y663485D01*
X615701Y663609D01*
X615866Y663692D01*
X616114Y663733D01*
X616403Y663650D01*
X616651Y663444D01*
X616858Y663155D01*
X616899Y662741D01*
G37*
G74*
*
G75*
G36*
G01*
Y668196D02*
X616858Y667948D01*
X616817Y667741D01*
X616693Y667535D01*
X616279Y667287D01*
X615990Y667204D01*
X615701Y667163D01*
X614916D01*
X614585Y667204D01*
X614337Y667287D01*
X614089Y667411D01*
X613924Y667535D01*
X613800Y667741D01*
X613759Y667948D01*
X613717Y668196D01*
X613759Y668444D01*
X613800Y668650D01*
X613924Y668857D01*
X614048Y668950D01*
Y668031D01*
X614131Y667865D01*
X614213Y667783D01*
X614379Y667700D01*
X614750Y667617D01*
X614998Y667576D01*
X615618D01*
X615866Y667617D01*
X616238Y667700D01*
X616486Y667865D01*
X616569Y668196D01*
X616486Y668485D01*
X616238Y668692D01*
X616073Y668774D01*
X615825D01*
X615288Y668816D01*
X614998D01*
X614750Y668774D01*
X614379Y668692D01*
X614213Y668609D01*
X614131Y668526D01*
X614048Y668361D01*
Y668950D01*
X614089Y668981D01*
X614337Y669105D01*
X614585Y669146D01*
X614916Y669229D01*
X615701D01*
X615990Y669146D01*
X616279Y669105D01*
X616486Y668981D01*
X616693Y668816D01*
X616817Y668650D01*
X616858Y668444D01*
X616899Y668196D01*
G37*
G74*
*
G75*
G36*
G01*
X616155Y650262D02*
X616073Y649849D01*
X615866Y649560D01*
X615577Y649353D01*
X615122Y649312D01*
X614916D01*
Y651006D01*
X614544Y650923D01*
X614296Y650758D01*
X614131Y650510D01*
X614089Y650179D01*
Y649931D01*
X614172Y649725D01*
X614296Y649518D01*
X614379Y649353D01*
X613965D01*
X613800Y649766D01*
X613759Y650179D01*
X613841Y650675D01*
X614048Y651047D01*
X614420Y651295D01*
X614957Y651378D01*
X615205Y651336D01*
Y649683D01*
X615494Y649725D01*
X615701Y649849D01*
X615825Y650014D01*
X615866Y650303D01*
X615825Y650593D01*
X615660Y650799D01*
X615453Y650923D01*
X615205Y651006D01*
Y651336D01*
X615453Y651295D01*
X615825Y651088D01*
X616073Y650717D01*
X616155Y650262D01*
G37*
G74*
*
G75*
G36*
G01*
X616073Y652989D02*
Y652617D01*
X615742D01*
X615907Y652411D01*
X615990Y652204D01*
X616073Y651874D01*
Y651708D01*
X616031Y651584D01*
X615660D01*
X615701Y651750D01*
Y651956D01*
X615618Y652287D01*
X615412Y652617D01*
X613800D01*
Y652989D01*
X616073D01*
G37*
G74*
*
G75*
G36*
G01*
X616817Y666832D02*
Y666378D01*
X614213Y665469D01*
X616817Y664560D01*
Y664105D01*
X613800Y665221D01*
Y665717D01*
X616817Y666832D01*
G37*
G74*
*
G75*
G36*
G01*
Y672287D02*
Y671130D01*
X616734Y670840D01*
X616693Y670593D01*
X616569Y670427D01*
X616362Y670138D01*
X616073Y669931D01*
X615701Y669807D01*
X615288Y669766D01*
X614916Y669807D01*
X614544Y669931D01*
X614255Y670138D01*
X614048Y670427D01*
X613841Y670882D01*
X613800Y671171D01*
Y672287D01*
X614131D01*
Y671502D01*
X614172Y671006D01*
X614213Y670799D01*
X614337Y670634D01*
X614502Y670427D01*
X614709Y670303D01*
X614998Y670221D01*
X615329Y670179D01*
X615618Y670221D01*
X615907Y670303D01*
X616114Y670469D01*
X616321Y670675D01*
X616445Y671047D01*
X616486Y671254D01*
Y671874D01*
X614131D01*
Y672287D01*
X616817D01*
G37*
G74*
*
G75*
G36*
G01*
X617619Y690443D02*
X617520Y689749D01*
X617371Y689203D01*
X616776D01*
Y689253D01*
X616925Y689451D01*
X617074Y689749D01*
X617173Y690096D01*
X617222Y690443D01*
X617173Y690790D01*
X617024Y691038D01*
X616826Y691236D01*
X616627Y691286D01*
X616379Y691236D01*
X616231Y691187D01*
X616032Y690790D01*
X615983Y690592D01*
Y690344D01*
X615883Y689848D01*
X615735Y689501D01*
X615536Y689253D01*
X615288Y689104D01*
X614941Y689055D01*
X614693D01*
X614495Y689154D01*
X614148Y689402D01*
X613900Y689848D01*
X613801Y690145D01*
Y690493D01*
X613850Y691137D01*
X614098Y691782D01*
X614693D01*
Y691732D01*
X614495Y691435D01*
X614346Y691137D01*
X614247Y690790D01*
X614198Y690493D01*
X614247Y690096D01*
X614346Y689798D01*
X614594Y689600D01*
X614842Y689550D01*
X615040Y689600D01*
X615189Y689650D01*
X615288Y689798D01*
X615388Y689997D01*
X615487Y690393D01*
X615536Y690840D01*
X615685Y691286D01*
X615883Y691534D01*
X616181Y691732D01*
X616578Y691782D01*
X616974Y691683D01*
X617321Y691385D01*
X617520Y690988D01*
X617619Y690443D01*
G37*
G74*
*
G75*
G36*
G01*
X617520Y688757D02*
Y685683D01*
X617074D01*
Y686972D01*
X613900D01*
Y687468D01*
X617074D01*
Y688757D01*
X617520D01*
G37*
G74*
*
G75*
G36*
G01*
Y695104D02*
Y693765D01*
X617470Y693517D01*
X617321Y693121D01*
X617024Y692823D01*
X616528Y692724D01*
X616181Y692774D01*
X615883Y692922D01*
X615636Y693170D01*
X615487Y693468D01*
X613900Y692129D01*
Y692674D01*
X615338Y693864D01*
Y694608D01*
X613900D01*
Y695104D01*
X615735D01*
Y694112D01*
X615784Y693716D01*
X615933Y693418D01*
X616181Y693269D01*
X616528Y693220D01*
X616776Y693269D01*
X616974Y693468D01*
X617074Y693716D01*
X617123Y694063D01*
Y694608D01*
X615735D01*
Y695104D01*
X617520D01*
G37*
G74*
*
G75*
G36*
G01*
X616900Y787036D02*
Y786491D01*
X616855D01*
X616309Y786855D01*
X615764Y786945D01*
X615309Y786855D01*
X615127Y786764D01*
X614945Y786582D01*
X614809Y786400D01*
X614718Y786173D01*
X614627Y785536D01*
X614673Y785218D01*
X614718Y784945D01*
X614809Y784673D01*
X614945Y784491D01*
X615127Y784355D01*
X615309Y784264D01*
X615536Y784173D01*
X615764D01*
X616082Y784218D01*
X616355Y784264D01*
X616627Y784445D01*
X616855Y784627D01*
X616900D01*
Y784127D01*
X616673Y783991D01*
X616445Y783900D01*
X616127Y783855D01*
X615764Y783809D01*
X615445D01*
X615127Y783900D01*
X614855Y784036D01*
X614627Y784218D01*
X614445Y784491D01*
X614309Y784764D01*
X614218Y785127D01*
X614173Y785536D01*
X614218Y785945D01*
X614309Y786309D01*
X614445Y786582D01*
X614627Y786855D01*
X614855Y787036D01*
X615127Y787173D01*
X615445Y787264D01*
X615764Y787309D01*
X616309Y787218D01*
X616582Y787127D01*
X616900Y787036D01*
G37*
G74*
*
G75*
G36*
G01*
X617425Y816445D02*
Y815800D01*
X615045D01*
Y816445D01*
X615788D01*
Y818329D01*
X615045D01*
Y818924D01*
X615392D01*
X615640Y819023D01*
X615838Y819172D01*
X615888Y819420D01*
X616681D01*
Y816445D01*
X617425D01*
G37*
G74*
*
G75*
G36*
G01*
X619393Y619231D02*
Y618388D01*
X619294Y617992D01*
X619195Y617645D01*
X619046Y617397D01*
X618848Y617149D01*
X618600Y617000D01*
X617906Y616901D01*
X617509Y616950D01*
X617162Y617000D01*
X616914Y617149D01*
X616716Y617397D01*
X616567Y617645D01*
X616468Y617992D01*
X616369Y618388D01*
Y619231D01*
X616468Y619628D01*
X616567Y619975D01*
X616716Y620223D01*
X616914Y620421D01*
X617212Y620570D01*
X617311Y620603D01*
Y618785D01*
X617360Y618240D01*
X617460Y617843D01*
X617608Y617595D01*
X617906Y617545D01*
X618154Y617595D01*
X618302Y617843D01*
X618402Y618240D01*
X618451Y618785D01*
X618402Y619380D01*
X618302Y619777D01*
X618154Y619975D01*
X617906Y620074D01*
X617608Y619975D01*
X617460Y619777D01*
X617360Y619380D01*
X617311Y618785D01*
Y620603D01*
X617509Y620669D01*
X617906Y620719D01*
X618253Y620669D01*
X618600Y620570D01*
X618848Y620421D01*
X619046Y620223D01*
X619195Y619926D01*
X619294Y619628D01*
X619393Y619231D01*
G37*
G74*
*
G75*
G36*
G01*
X619536Y785536D02*
Y783900D01*
X619127D01*
Y785673D01*
X619036Y785900D01*
X618900Y786036D01*
X618627Y786082D01*
X618264Y785991D01*
X617900Y785764D01*
Y783900D01*
X617491D01*
Y787355D01*
X617900D01*
Y786127D01*
X618309Y786400D01*
X618491Y786445D01*
X618718Y786491D01*
X619082Y786445D01*
X619309Y786218D01*
X619491Y785945D01*
X619536Y785536D01*
G37*
G74*
*
G75*
G36*
G01*
X621192Y662100D02*
X620783D01*
X620522Y662881D01*
X619407D01*
X619146Y662100D01*
X618737D01*
X619518Y664212D01*
Y663179D01*
X620411D01*
X619964Y664443D01*
X619518Y663179D01*
Y664212D01*
X619741Y664815D01*
X620188D01*
X621192Y662100D01*
G37*
G74*
*
G75*
G36*
G01*
X622620Y808854D02*
Y808358D01*
X620140D01*
X619942Y808308D01*
X619595Y808209D01*
X619397Y807912D01*
X619298Y807515D01*
X619397Y807069D01*
X619595Y806771D01*
X619942Y806672D01*
X620140Y806622D01*
X622620D01*
Y806126D01*
X620041D01*
X619744Y806226D01*
X619496Y806325D01*
X619248Y806474D01*
X619099Y806672D01*
X619000Y806920D01*
X618901Y807515D01*
Y807812D01*
X619099Y808308D01*
X619248Y808507D01*
X619496Y808655D01*
X619744Y808755D01*
X620041Y808854D01*
X622620D01*
G37*
G74*
*
G75*
G36*
G01*
Y798837D02*
Y795763D01*
X622174D01*
Y797052D01*
X619000D01*
Y797548D01*
X622174D01*
Y798837D01*
X622620D01*
G37*
G74*
*
G75*
G36*
G01*
Y801812D02*
Y800474D01*
X622570Y800226D01*
X622421Y799829D01*
X622124Y799531D01*
X621628Y799432D01*
X621281Y799482D01*
X620983Y799631D01*
X620736Y799879D01*
X620587Y800176D01*
X619000Y798837D01*
Y799383D01*
X620438Y800573D01*
Y801317D01*
X619000D01*
Y801812D01*
X620835D01*
Y800821D01*
X620884Y800424D01*
X621033Y800126D01*
X621281Y799978D01*
X621628Y799928D01*
X621876Y799978D01*
X622074Y800176D01*
X622174Y800424D01*
X622223Y800771D01*
Y801317D01*
X620835D01*
Y801812D01*
X622620D01*
G37*
G74*
*
G75*
G36*
G01*
Y804292D02*
Y803697D01*
X619000Y802358D01*
Y802903D01*
X620041Y803250D01*
Y804738D01*
X619000Y805085D01*
Y805631D01*
X620438Y805099D01*
Y803399D01*
X622124Y803994D01*
X620438Y804589D01*
Y805099D01*
X622620Y804292D01*
G37*
G74*
*
G75*
G36*
G01*
X621900Y786355D02*
Y785945D01*
X621718Y785991D01*
X621491D01*
X621127Y785900D01*
X620764Y785673D01*
Y783900D01*
X620355D01*
Y786400D01*
X620764D01*
Y786036D01*
X620991Y786218D01*
X621218Y786309D01*
X621582Y786400D01*
X621764D01*
X621900Y786355D01*
G37*
G74*
*
G75*
G36*
G01*
X623349Y663811D02*
Y663104D01*
X623312Y662807D01*
X623237Y662583D01*
X623126Y662360D01*
X623014Y662212D01*
X622828Y662100D01*
X622642Y662063D01*
X622419Y662026D01*
X622196Y662063D01*
X622010Y662100D01*
X621824Y662212D01*
X621712Y662360D01*
X621601Y662583D01*
X621564Y662807D01*
X621489Y663104D01*
Y663811D01*
X621564Y664071D01*
X621601Y664331D01*
X621712Y664517D01*
X621861Y664703D01*
Y663179D01*
X621898Y662955D01*
X621973Y662621D01*
X622047Y662472D01*
X622121Y662398D01*
X622270Y662323D01*
X622568D01*
X622717Y662398D01*
X622791Y662472D01*
X622865Y662621D01*
X622940Y662955D01*
X622977Y663179D01*
Y663736D01*
X622940Y663960D01*
X622865Y664294D01*
X622717Y664517D01*
X622419Y664592D01*
X622159Y664517D01*
X621973Y664294D01*
X621898Y664145D01*
Y663922D01*
X621861Y663439D01*
Y664703D01*
X622010Y664815D01*
X622196Y664852D01*
X622419Y664889D01*
X622642Y664852D01*
X622828Y664815D01*
X623014Y664703D01*
X623237Y664331D01*
X623312Y664071D01*
X623349Y663811D01*
G37*
G74*
*
G75*
G36*
G01*
X624309Y786400D02*
Y784173D01*
X624218Y783627D01*
X624036Y783264D01*
X623673Y783036D01*
X623127Y782945D01*
X622400Y783036D01*
Y783491D01*
X622536Y783445D01*
X622764Y783355D01*
X623173Y783309D01*
X623536Y783355D01*
X623764Y783491D01*
X623855Y783718D01*
X623900Y783991D01*
Y784264D01*
X623536Y784036D01*
X623355Y783945D01*
X623082D01*
X622718Y784036D01*
X622400Y784264D01*
X622173Y784673D01*
X622127Y785173D01*
X622173Y785491D01*
X622218Y785764D01*
X622445Y786173D01*
X622536Y786230D01*
Y785218D01*
X622582Y784855D01*
X622673Y784582D01*
X622900Y784400D01*
X623173Y784355D01*
X623536Y784400D01*
X623900Y784627D01*
Y785991D01*
X623582Y786082D01*
X623309Y786127D01*
X622991Y786082D01*
X622718Y785900D01*
X622582Y785582D01*
X622536Y785218D01*
Y786230D01*
X622809Y786400D01*
X623218Y786491D01*
X623582Y786445D01*
X623900Y786309D01*
X623945Y786400D01*
X624309D01*
G37*
G74*
*
G75*
G36*
G01*
X626101Y664815D02*
X625097Y662100D01*
X624650D01*
X623646Y664815D01*
X624055D01*
X624874Y662472D01*
X625692Y664815D01*
X626101D01*
G37*
G74*
*
G75*
G36*
G01*
X628295Y662844D02*
X628221Y662509D01*
X628035Y662249D01*
X627700Y662063D01*
X627328Y662026D01*
X626919Y662063D01*
X626621Y662249D01*
X626436Y662509D01*
X626361Y662844D01*
X626398Y663067D01*
X626510Y663253D01*
X626659Y663402D01*
X626733Y663451D01*
Y662881D01*
X626770Y662621D01*
X626919Y662435D01*
X627105Y662323D01*
X627328Y662286D01*
X627588Y662323D01*
X627774Y662435D01*
X627886Y662583D01*
X627923Y662807D01*
Y662955D01*
X627849Y663067D01*
X627737Y663179D01*
X627551Y663290D01*
X627365Y663364D01*
X627105Y663476D01*
X626845Y663216D01*
X626770Y663030D01*
X626733Y662881D01*
Y663451D01*
X626882Y663550D01*
X626659Y663662D01*
X626547Y663811D01*
X626473Y663960D01*
X626436Y664183D01*
X626510Y664443D01*
X626696Y664666D01*
X626807Y664746D01*
Y664220D01*
X626845Y664071D01*
X626882Y663997D01*
X626993Y663885D01*
X627105Y663811D01*
X627291Y663736D01*
X627551Y663625D01*
X627812Y663885D01*
X627886Y664034D01*
Y664183D01*
X627849Y664369D01*
X627737Y664517D01*
X627551Y664592D01*
X627328Y664629D01*
X627142Y664592D01*
X626956Y664517D01*
X626845Y664369D01*
X626807Y664220D01*
Y664746D01*
X626956Y664852D01*
X627328Y664889D01*
X627700Y664852D01*
X627998Y664703D01*
X628146Y664480D01*
X628221Y664183D01*
X628183Y663997D01*
X628109Y663811D01*
X627960Y663662D01*
X627774Y663550D01*
X627998Y663402D01*
X628146Y663253D01*
X628258Y663067D01*
X628295Y662844D01*
G37*
G74*
*
G75*
G36*
G01*
X630898Y661765D02*
Y661579D01*
X628518D01*
Y661765D01*
X630898D01*
G37*
G74*
*
G75*
G36*
G01*
X633018Y663997D02*
X632944Y663662D01*
X632795Y663402D01*
X632646Y663253D01*
X632460Y663179D01*
X632237Y663104D01*
X631642D01*
Y662100D01*
X631270D01*
Y664815D01*
X631642D01*
Y663402D01*
X632126D01*
X632274Y663439D01*
X632498Y663550D01*
X632609Y663774D01*
X632646Y663997D01*
X632609Y664220D01*
X632460Y664406D01*
X632274Y664480D01*
X631977Y664517D01*
X631642D01*
Y664815D01*
X632200D01*
X632386Y664778D01*
X632683Y664629D01*
X632944Y664369D01*
X632981Y664220D01*
X633018Y663997D01*
G37*
G74*
*
G75*
G36*
G01*
X635091Y785218D02*
X635000Y784809D01*
X634818Y784491D01*
X634636Y784309D01*
X634409Y784218D01*
X634136Y784127D01*
X633409D01*
Y782900D01*
X632955D01*
Y786218D01*
X633409D01*
Y784491D01*
X634000D01*
X634182Y784536D01*
X634455Y784673D01*
X634591Y784945D01*
X634636Y785218D01*
X634591Y785491D01*
X634409Y785718D01*
X634182Y785809D01*
X633818Y785855D01*
X633409D01*
Y786218D01*
X634091D01*
X634318Y786173D01*
X634682Y785991D01*
X635000Y785673D01*
X635045Y785491D01*
X635091Y785218D01*
G37*
G74*
*
G75*
G36*
G01*
X635212Y662435D02*
Y662100D01*
X633502D01*
Y664815D01*
X633874D01*
Y662435D01*
X635212D01*
G37*
G74*
*
G75*
G36*
G01*
X639500Y786218D02*
X638636Y782900D01*
X638182D01*
X637455Y785673D01*
X636818Y782900D01*
X636318D01*
X635455Y786218D01*
X635909D01*
X636591Y783445D01*
X637273Y786218D01*
X637727D01*
X638409Y783445D01*
X639045Y786218D01*
X639500D01*
G37*
G74*
*
G75*
G36*
G01*
X637295Y662435D02*
Y662100D01*
X635584D01*
Y664815D01*
X635956D01*
Y662435D01*
X637295D01*
G37*
G74*
*
G75*
G36*
G01*
X642909Y782900D02*
X642409D01*
X641318Y784218D01*
X640636D01*
Y782900D01*
X640182D01*
Y786218D01*
X640636D01*
Y784582D01*
X641091D01*
X641455Y784627D01*
X641727Y784764D01*
X641864Y784991D01*
X641909Y785309D01*
X641864Y785536D01*
X641682Y785718D01*
X641455Y785809D01*
X641136Y785855D01*
X640636D01*
Y786218D01*
X641409D01*
X641636Y786173D01*
X642000Y786036D01*
X642273Y785764D01*
X642364Y785309D01*
X642318Y784991D01*
X642182Y784718D01*
X641955Y784491D01*
X641682Y784355D01*
X642909Y782900D01*
G37*
G74*
*
G75*
G36*
G01*
X650326Y725129D02*
X650227Y724683D01*
X650029Y724336D01*
X649831Y724137D01*
X649583Y724038D01*
X649285Y723939D01*
X648492D01*
Y722600D01*
X647996D01*
Y726220D01*
X648492D01*
Y724336D01*
X649136D01*
X649335Y724385D01*
X649632Y724534D01*
X649781Y724831D01*
X649831Y725129D01*
X649781Y725426D01*
X649583Y725674D01*
X649335Y725774D01*
X648938Y725823D01*
X648492D01*
Y726220D01*
X649236D01*
X649483Y726170D01*
X649880Y725972D01*
X650227Y725625D01*
X650277Y725426D01*
X650326Y725129D01*
G37*
G74*
*
G75*
G36*
G01*
X653946Y722600D02*
X653401D01*
X652211Y724038D01*
X651467D01*
Y722600D01*
X650971D01*
Y726220D01*
X651467D01*
Y724435D01*
X651963D01*
X652360Y724484D01*
X652657Y724633D01*
X652806Y724881D01*
X652855Y725228D01*
X652806Y725476D01*
X652607Y725674D01*
X652360Y725774D01*
X652012Y725823D01*
X651467D01*
Y726220D01*
X652310D01*
X652558Y726170D01*
X652955Y726021D01*
X653252Y725724D01*
X653351Y725228D01*
X653302Y724881D01*
X653153Y724583D01*
X652905Y724336D01*
X652607Y724187D01*
X653946Y722600D01*
G37*
G74*
*
G75*
G36*
G01*
X657566Y724385D02*
X657467Y723592D01*
X657318Y723245D01*
X657120Y722997D01*
X656872Y722798D01*
X656574Y722600D01*
X656277Y722550D01*
X655880Y722501D01*
X655533Y722550D01*
X655236Y722600D01*
X654938Y722798D01*
X654690Y722997D01*
X654492Y723245D01*
X654343Y723592D01*
X654244Y724385D01*
X654293Y724831D01*
X654343Y725228D01*
X654492Y725526D01*
X654690Y725823D01*
X654740Y725863D01*
Y724385D01*
X654839Y723740D01*
X655037Y723294D01*
X655434Y722997D01*
X655632Y722898D01*
X656178D01*
X656376Y722997D01*
X656773Y723294D01*
X656971Y723740D01*
X657070Y724385D01*
X656971Y725030D01*
X656773Y725526D01*
X656376Y725823D01*
X655930Y725922D01*
X655434Y725823D01*
X655037Y725526D01*
X654839Y725030D01*
X654740Y724385D01*
Y725863D01*
X654938Y726021D01*
X655236Y726170D01*
X655533Y726269D01*
X655880Y726319D01*
X656277Y726269D01*
X656574Y726170D01*
X656872Y726021D01*
X657120Y725823D01*
X657318Y725526D01*
X657467Y725228D01*
X657517Y724831D01*
X657566Y724385D01*
G37*
G74*
*
G75*
G36*
G01*
X661384Y725972D02*
Y725426D01*
X661335D01*
X661136Y725575D01*
X660839Y725724D01*
X660442Y725873D01*
X659996Y725922D01*
X659698Y725873D01*
X659450Y725823D01*
X659004Y725526D01*
X658756Y725030D01*
X658657Y724435D01*
X658756Y723790D01*
X659004Y723294D01*
X659202Y723096D01*
X659698Y722898D01*
X660045D01*
X660492Y722947D01*
X660888Y723046D01*
Y723988D01*
X659946D01*
Y724435D01*
X661384D01*
Y722848D01*
X660740Y722600D01*
X660393Y722501D01*
X660045D01*
X659649Y722550D01*
X659302Y722600D01*
X658955Y722749D01*
X658459Y723245D01*
X658310Y723592D01*
X658211Y723939D01*
X658161Y724435D01*
X658211Y724831D01*
X658310Y725179D01*
X658459Y725526D01*
X658657Y725823D01*
X658955Y726021D01*
X659252Y726170D01*
X659649Y726269D01*
X660045Y726319D01*
X660690Y726220D01*
X661037Y726121D01*
X661384Y725972D01*
G37*
G74*
*
G75*
G36*
G01*
X685308Y838672D02*
Y836308D01*
X685217Y836036D01*
X685126Y835808D01*
X684990Y835581D01*
X684808Y835445D01*
X684580Y835354D01*
X684035Y835263D01*
X683762D01*
X683308Y835445D01*
X683126Y835581D01*
X682990Y835808D01*
X682899Y836036D01*
X682808Y836308D01*
Y838672D01*
X683262D01*
Y836399D01*
X683308Y836217D01*
X683399Y835899D01*
X683671Y835717D01*
X684035Y835626D01*
X684444Y835717D01*
X684717Y835899D01*
X684808Y836217D01*
X684853Y836399D01*
Y838672D01*
X685308D01*
G37*
G74*
*
G75*
G36*
G01*
X688535Y836308D02*
Y836081D01*
X688444Y835899D01*
X688217Y835581D01*
X687808Y835354D01*
X687535Y835263D01*
X687217D01*
X686626Y835308D01*
X686035Y835536D01*
Y836081D01*
X686080D01*
X686353Y835899D01*
X686626Y835763D01*
X686944Y835672D01*
X687217Y835626D01*
X687580Y835672D01*
X687853Y835763D01*
X688035Y835990D01*
X688080Y836217D01*
X688035Y836399D01*
X687990Y836536D01*
X687853Y836626D01*
X687671Y836717D01*
X687308Y836808D01*
X686899Y836854D01*
X686490Y836990D01*
X686262Y837172D01*
X686080Y837445D01*
X686035Y837808D01*
X686126Y838172D01*
X686399Y838490D01*
X686762Y838672D01*
X687262Y838763D01*
X687899Y838672D01*
X688399Y838536D01*
Y837990D01*
X688353D01*
X688171Y838126D01*
X687899Y838263D01*
X687580Y838354D01*
X687262Y838399D01*
X686944Y838354D01*
X686717Y838217D01*
X686535Y838036D01*
X686490Y837854D01*
X686535Y837626D01*
X686580Y837490D01*
X686944Y837308D01*
X687126Y837263D01*
X687353D01*
X687808Y837172D01*
X688126Y837036D01*
X688353Y836854D01*
X688490Y836626D01*
X688535Y836308D01*
G37*
G74*
*
G75*
G36*
G01*
X691762Y836399D02*
Y836126D01*
X691671Y835945D01*
X691399Y835626D01*
X691217Y835490D01*
X690990Y835399D01*
X690762Y835354D01*
X689262D01*
Y838672D01*
X689717D01*
Y835717D01*
X690580D01*
X690762Y835763D01*
X691080Y835854D01*
X691262Y836081D01*
X691308Y836354D01*
X691262Y836672D01*
X691171Y836808D01*
X691035Y836899D01*
X690762Y836990D01*
X689717D01*
Y837354D01*
X690626D01*
X690853Y837445D01*
X690990Y837626D01*
X691035Y837899D01*
X690990Y838081D01*
X690853Y838217D01*
X690626Y838308D01*
X689717D01*
Y838672D01*
X690580D01*
X690808Y838626D01*
X691126Y838536D01*
X691308Y838399D01*
X691399Y838308D01*
X691490Y838126D01*
Y837945D01*
X691444Y837717D01*
X691353Y837536D01*
X691035Y837263D01*
X691353Y837126D01*
X691580Y836945D01*
X691717Y836717D01*
X691762Y836399D01*
G37*
G74*
*
G75*
G36*
G01*
X705122Y820388D02*
Y819743D01*
X704626D01*
Y818900D01*
X703734D01*
Y819743D01*
X701998D01*
Y820388D01*
X702693Y821266D01*
Y820388D01*
X703734D01*
Y821726D01*
X702693Y820388D01*
Y821266D01*
X703684Y822520D01*
X704626D01*
Y820388D01*
X705122D01*
G37*
G74*
*
G75*
G36*
G01*
X707099Y642124D02*
X707058Y641711D01*
X706851Y641380D01*
X706603Y641215D01*
X706273Y641132D01*
X705942Y641174D01*
X705653Y641298D01*
X705405Y641504D01*
X705116Y641752D01*
X704702Y642207D01*
X704331Y642620D01*
Y641008D01*
X704000D01*
Y643033D01*
X704413D01*
X705157Y642207D01*
X705488Y641876D01*
X705777Y641669D01*
X705983Y641587D01*
X706273Y641545D01*
X706479Y641587D01*
X706645Y641711D01*
X706727Y641876D01*
X706769Y642124D01*
X706686Y642537D01*
X706479Y642950D01*
X706893D01*
X706975Y642785D01*
X707017Y642579D01*
X707099Y642124D01*
G37*
G74*
*
G75*
G36*
G01*
X707017Y646132D02*
Y645678D01*
X704413Y644769D01*
X707017Y643860D01*
Y643405D01*
X704000Y644521D01*
Y645017D01*
X707017Y646132D01*
G37*
G74*
*
G75*
G36*
G01*
Y647537D02*
Y647248D01*
X704289D01*
Y646628D01*
X704000D01*
Y648240D01*
X704289D01*
Y647620D01*
X706314D01*
Y648240D01*
X706603D01*
Y647950D01*
X706686Y647744D01*
X706810Y647620D01*
X707017Y647537D01*
G37*
G74*
*
G75*
G36*
G01*
Y651587D02*
Y650430D01*
X706934Y650140D01*
X706893Y649893D01*
X706769Y649727D01*
X706562Y649438D01*
X706273Y649231D01*
X705901Y649107D01*
X705488Y649066D01*
X705116Y649107D01*
X704744Y649231D01*
X704455Y649438D01*
X704248Y649727D01*
X704041Y650182D01*
X704000Y650471D01*
Y651587D01*
X704331D01*
Y650802D01*
X704372Y650306D01*
X704413Y650099D01*
X704537Y649934D01*
X704702Y649727D01*
X704909Y649603D01*
X705198Y649521D01*
X705529Y649479D01*
X705818Y649521D01*
X706107Y649603D01*
X706314Y649769D01*
X706521Y649975D01*
X706645Y650347D01*
X706686Y650554D01*
Y651174D01*
X704331D01*
Y651587D01*
X707017D01*
G37*
G74*
*
G75*
G36*
G01*
X708593Y821131D02*
Y820288D01*
X708494Y819892D01*
X708395Y819545D01*
X708246Y819297D01*
X708048Y819049D01*
X707800Y818900D01*
X707106Y818801D01*
X706709Y818850D01*
X706362Y818900D01*
X706114Y819049D01*
X705916Y819297D01*
X705767Y819545D01*
X705668Y819892D01*
X705569Y820288D01*
Y821131D01*
X705668Y821528D01*
X705767Y821875D01*
X705916Y822123D01*
X706114Y822321D01*
X706412Y822470D01*
X706511Y822503D01*
Y820685D01*
X706560Y820140D01*
X706660Y819743D01*
X706808Y819495D01*
X707106Y819445D01*
X707354Y819495D01*
X707502Y819743D01*
X707602Y820140D01*
X707651Y820685D01*
X707602Y821280D01*
X707502Y821677D01*
X707354Y821875D01*
X707106Y821974D01*
X706808Y821875D01*
X706660Y821677D01*
X706560Y821280D01*
X706511Y820685D01*
Y822503D01*
X706709Y822569D01*
X707106Y822619D01*
X707453Y822569D01*
X707800Y822470D01*
X708048Y822321D01*
X708246Y822123D01*
X708395Y821826D01*
X708494Y821528D01*
X708593Y821131D01*
G37*
G74*
*
G75*
G36*
G01*
X712323Y617594D02*
Y616900D01*
X709546D01*
Y617495D01*
X710191Y617991D01*
X710488Y618239D01*
X710687Y618487D01*
X710935Y618735D01*
X711133Y618983D01*
X711232Y619379D01*
X711183Y619627D01*
X711083Y619776D01*
X710885Y619875D01*
X710637Y619925D01*
X710191Y619826D01*
X709745Y619578D01*
X709645D01*
Y620371D01*
X709844Y620470D01*
X710141Y620520D01*
X710786Y620619D01*
X711381Y620520D01*
X711827Y620321D01*
X712075Y619974D01*
X712174Y619528D01*
X712125Y619181D01*
X712026Y618834D01*
X711778Y618536D01*
X711480Y618189D01*
X711034Y617842D01*
X710885Y617693D01*
X710736Y617594D01*
X712323D01*
G37*
G74*
*
G75*
G36*
G01*
X715645Y617545D02*
Y616900D01*
X713265D01*
Y617545D01*
X714009D01*
Y619429D01*
X713265D01*
Y620024D01*
X713612D01*
X713860Y620123D01*
X714059Y620272D01*
X714108Y620520D01*
X714902D01*
Y617545D01*
X715645D01*
G37*
G74*
*
*
G04 PC Custom Flashes*
G04 Layer Name UP201 MCU BOARD 2V0-250 - flashes*
%LPD*%
*
*
G04 PC Circuitry*
G04 Layer Name UP201 MCU BOARD 2V0-250 - circuitry*
%LPD*%
*
G54D10*
G01X649090Y683454D02*
Y695454D01*
X654208*
Y683454*
X649090*
X649712Y683950D02*
X651649Y685887D01*
X653649Y683887*
X618602Y684173D02*
Y695984D01*
X628445*
Y684173*
X618602*
X626476Y690079D02*
G75*
G03X626476I-2952J0D01*
G01X650102Y706173D02*
Y717984D01*
X659945*
Y706173*
X650102*
X657976Y712079D02*
G03X657976I-2952J0D01*
G01X600000Y840157D02*
X642835D01*
Y820276*
X642903*
X642905D02*
G03X642902Y816929I108J-1674D01*
G01X642903D02*
X679311D01*
G03Y820276I38J1673*
G01X679213*
Y840157*
X722047*
Y600000*
X600000*
Y840157*
G54D29*
X644250Y702250D02*
Y710250D01*
X648250*
Y702250*
X644250*
X647250Y706250D02*
X645250D01*
X639899Y729704D02*
Y721704D01*
X635899*
Y729704*
X639899*
X636899Y725704D02*
X638899D01*
X683774Y763079D02*
X675774D01*
Y767079*
X683774*
Y763079*
X679774Y766079D02*
Y764079D01*
X676895Y679198D02*
X677564Y678529D01*
X674649Y792954D02*
Y800954D01*
X678649*
Y792954*
X674649*
X677649Y796954D02*
X675649D01*
X671722Y601811D02*
X652825D01*
Y618346*
X671722*
Y601811*
X685881Y633130D02*
Y652028D01*
X702416*
Y633130*
X685881*
X632149Y782329D02*
Y770329D01*
X626149*
Y782329*
X632149*
X631149Y775329D02*
X627149D01*
X629149D02*
X631149Y777329D01*
X627149*
X629149Y775329*
X632149Y770329D02*
Y768829D01*
X626149*
Y770329*
X632149Y769329D02*
X626149D01*
Y769829*
X632149*
Y769329*
X695899Y784829D02*
Y792829D01*
X699899*
Y784829*
X695899*
X698899Y788829D02*
X696899D01*
X648774Y632454D02*
X640774D01*
Y636454*
X648774*
Y632454*
X644774Y635454D02*
Y633454D01*
X626774Y708454D02*
Y700454D01*
X622774*
Y708454*
X626774*
X623774Y704454D02*
X625774D01*
X692024Y763329D02*
X700024D01*
Y759329*
X692024*
Y763329*
X696024Y760329D02*
Y762329D01*
X702416Y632028D02*
Y613130D01*
X685881*
Y632028*
X702416*
X641274Y763079D02*
X633274D01*
Y767079*
X641274*
Y763079*
X637274Y766079D02*
Y764079D01*
X638774Y628079D02*
X630774D01*
Y632079*
X638774*
Y628079*
X634774Y631079D02*
Y629079D01*
X648774Y613079D02*
X640774D01*
Y617079*
X648774*
Y613079*
X644774Y616079D02*
Y614079D01*
X638774Y613079D02*
X630774D01*
Y617079*
X638774*
Y613079*
X634774Y616079D02*
Y614079D01*
X638774Y618079D02*
X630774D01*
Y622079*
X638774*
Y618079*
X634774Y621079D02*
Y619079D01*
X648149Y647454D02*
X640149D01*
Y651454*
X648149*
Y647454*
X644149Y650454D02*
Y648454D01*
X640899Y782329D02*
Y770329D01*
X634899*
Y782329*
X640899*
X639899Y775329D02*
X635899D01*
X637899D02*
X639899Y777329D01*
X635899*
X637899Y775329*
X640899Y770329D02*
Y768829D01*
X634899*
Y770329*
X640899Y769329D02*
X634899D01*
Y769829*
X640899*
Y769329*
X680399Y641954D02*
Y649954D01*
X684399*
Y641954*
X680399*
X683399Y645954D02*
X681399D01*
X648774Y627454D02*
X640774D01*
Y631454*
X648774*
Y627454*
X644774Y630454D02*
Y628454D01*
X648774Y637454D02*
X640774D01*
Y641454*
X648774*
Y637454*
X644774Y640454D02*
Y638454D01*
X648774Y642454D02*
X640774D01*
Y646454*
X648774*
Y642454*
X644774Y645454D02*
Y643454D01*
X638774Y623079D02*
X630774D01*
Y627079*
X638774*
Y623079*
X634774Y626079D02*
Y624079D01*
X648774Y622454D02*
X640774D01*
Y626454*
X648774*
Y622454*
X644774Y625454D02*
Y623454D01*
X684649Y696079D02*
Y704079D01*
X688649*
Y696079*
X684649*
X687649Y700079D02*
X685649D01*
X623399Y782329D02*
Y770329D01*
X617399*
Y782329*
X623399*
X622399Y775329D02*
X618399D01*
X620399D02*
X622399Y777329D01*
X618399*
X620399Y775329*
X623399Y770329D02*
Y768829D01*
X617399*
Y770329*
X623399Y769329D02*
X617399D01*
Y769829*
X623399*
Y769329*
X662774Y649204D02*
Y657204D01*
X666774*
Y649204*
X662774*
X665774Y653204D02*
X663774D01*
X667774Y649204D02*
Y657204D01*
X671774*
Y649204*
X667774*
X670774Y653204D02*
X668774D01*
X700024Y696829D02*
X692024D01*
Y700829*
X700024*
Y696829*
X696024Y699829D02*
Y697829D01*
X638625Y671625D02*
Y679625D01*
X642625*
Y671625*
X638625*
X641625Y675625D02*
X639625D01*
X633625Y671625D02*
Y679625D01*
X637625*
Y671625*
X633625*
X636625Y675625D02*
X634625D01*
X629524Y808954D02*
X637524D01*
Y804954*
X629524*
Y808954*
X633524Y805954D02*
Y807954D01*
X646149Y780954D02*
Y772954D01*
X642149*
Y780954*
X646149*
X643149Y776954D02*
X645149D01*
X687399Y800954D02*
Y792954D01*
X683399*
Y800954*
X687399*
X684399Y796954D02*
X686399D01*
X690899Y784829D02*
Y792829D01*
X694899*
Y784829*
X690899*
X693899Y788829D02*
X691899D01*
X658774Y777454D02*
X650774D01*
Y781454*
X658774*
Y777454*
X654774Y780454D02*
Y778454D01*
X648274Y719829D02*
Y711829D01*
X644274*
Y719829*
X648274*
X645274Y715829D02*
X647274D01*
X666515Y718713D02*
X674782D01*
X666515Y710445D02*
X674782D01*
X628625Y671625D02*
Y679625D01*
X632625*
Y671625*
X628625*
X631625Y675625D02*
X629625D01*
X623625Y671625D02*
Y679625D01*
X627625*
Y671625*
X623625*
X626625Y675625D02*
X624625D01*
X621000Y795200D02*
Y790600D01*
X626950Y784650*
Y787000*
X626900Y784600D02*
X625000D01*
X632000Y767400D02*
X633900Y769300D01*
X633000*
X634000Y769200D02*
Y768200D01*
X624600Y648400D02*
X626800Y650600D01*
X625300*
X626800D02*
Y649100D01*
X624600Y648400D02*
X623300D01*
G54D30*
X648649Y743704D02*
X659649D01*
Y737704*
X648649*
Y743704*
X672774Y791764D02*
X661774D01*
Y797764*
X672774*
Y791764*
X649899Y776204D02*
X660899D01*
Y770204*
X649899*
Y776204*
X649274Y797764D02*
X660274D01*
Y791764*
X649274*
Y797764*
X686399Y825454D02*
X697399D01*
Y819454*
X686399*
Y825454*
X674649Y770204D02*
X663649D01*
Y776204*
X674649*
Y770204*
X689951Y713081D02*
X702549D01*
Y704419*
X689951*
Y713081*
G54D32*
X677250Y695250D02*
Y702250D01*
X680250D02*
G03X677250I-1500J-1750D01*
G01X680250D02*
Y695250D01*
X677250D02*
G03X680250I1500J1750D01*
G01X673500D02*
Y702250D01*
X676500D02*
G03X673500I-1500J-1750D01*
G01X676500D02*
Y695250D01*
X673500D02*
G03X676500I1500J1750D01*
G01X638274Y747829D02*
Y754829D01*
X641274D02*
G03X638274I-1500J-1750D01*
G01X641274D02*
Y747829D01*
X638274D02*
G03X641274I1500J1750D01*
G01X666399Y742829D02*
Y749829D01*
X669399D02*
G03X666399I-1500J-1750D01*
G01X669399D02*
Y742829D01*
X666399D02*
G03X669399I1500J1750D01*
G01X689399Y779829D02*
Y772829D01*
X686399D02*
G03X689399I1500J1750D01*
G01X686399D02*
Y779829D01*
X689399D02*
G03X686399I-1500J-1750D01*
G01X679099Y816931D02*
X642914D01*
X642912Y820179D02*
G03X642915Y816931I51J-1624D01*
G01X642914Y820179D02*
X642835D01*
Y840159*
X679213*
Y820179*
X679099*
Y816931D02*
G03Y820179I345J1624D01*
G01X662649Y742829D02*
Y749829D01*
X665649D02*
G03X662649I-1500J-1750D01*
G01X665649D02*
Y742829D01*
X662649D02*
G03X665649I1500J1750D01*
G01X633274Y747829D02*
Y754829D01*
X636274D02*
G03X633274I-1500J-1750D01*
G01X636274D02*
Y747829D01*
X633274D02*
G03X636274I1500J1750D01*
G01X628696Y637904D02*
X633967D01*
X634601Y637269*
Y634754*
X628696*
Y637904*
X700649Y610454D02*
Y603454D01*
X697649D02*
G03X700649I1500J1750D01*
G01X697649D02*
Y610454D01*
X700649D02*
G03X697649I-1500J-1750D01*
G01X692524Y695329D02*
X699524D01*
Y692329D02*
G03Y695329I-1750J1500D01*
G01Y692329D02*
X692524D01*
Y695329D02*
G03Y692329I1750J-1500D01*
G01X690649Y762329D02*
Y755329D01*
X687649D02*
G03X690649I1500J1750D01*
G01X687649D02*
Y762329D01*
X690649D02*
G03X687649I-1500J-1750D01*
G01X665649Y763454D02*
X672649D01*
Y760454D02*
G03Y763454I-1750J1500D01*
G01Y760454D02*
X665649D01*
Y763454D02*
G03Y760454I1750J-1500D01*
G01X665149Y727829D02*
Y734829D01*
X668149D02*
G03X665149I-1500J-1750D01*
G01X668149D02*
Y727829D01*
X665149D02*
G03X668149I1500J1750D01*
G01X660649Y734829D02*
Y727829D01*
X657649D02*
G03X660649I1500J1750D01*
G01X657649D02*
Y734829D01*
X660649D02*
G03X657649I-1500J-1750D01*
G01X648274Y750954D02*
Y757954D01*
X651274D02*
G03X648274I-1500J-1750D01*
G01X651274D02*
Y750954D01*
X648274D02*
G03X651274I1500J1750D01*
G01X676899Y669079D02*
X683899D01*
Y666079D02*
G03Y669079I-1750J1500D01*
G01Y666079D02*
X676899D01*
Y669079D02*
G03Y666079I1750J-1500D01*
G01X687024Y660329D02*
Y667329D01*
X690024D02*
G03X687024I-1500J-1750D01*
G01X690024D02*
Y660329D01*
X687024D02*
G03X690024I1500J1750D01*
G01X662524Y802514D02*
X669524D01*
Y799514D02*
G03Y802514I-1750J1500D01*
G01Y799514D02*
X662524D01*
Y802514D02*
G03Y799514I1750J-1500D01*
G01X668899Y680454D02*
X661899D01*
Y683454D02*
G03Y680454I1750J-1500D01*
G01Y683454D02*
X668899D01*
Y680454D02*
G03Y683454I-1750J1500D01*
G01Y684829D02*
X661899D01*
Y687829D02*
G03Y684829I1750J-1500D01*
G01Y687829D02*
X668899D01*
Y684829D02*
G03Y687829I-1750J1500D01*
G01X692524Y691579D02*
X699524D01*
Y688579D02*
G03Y691579I-1750J1500D01*
G01Y688579D02*
X692524D01*
Y691579D02*
G03Y688579I1750J-1500D01*
G01X697875Y715250D02*
Y722250D01*
X700875D02*
G03X697875I-1500J-1750D01*
G01X700875D02*
Y715250D01*
X697875D02*
G03X700875I1500J1750D01*
G01X691625D02*
Y722250D01*
X694625D02*
G03X691625I-1500J-1750D01*
G01X694625D02*
Y715250D01*
X691625D02*
G03X694625I1500J1750D01*
G01X696274Y674079D02*
X703274D01*
Y671079D02*
G03Y674079I-1750J1500D01*
G01Y671079D02*
X696274D01*
Y674079D02*
G03Y671079I1750J-1500D01*
G01X676899Y673454D02*
X683899D01*
Y670454D02*
G03Y673454I-1750J1500D01*
G01Y670454D02*
X676899D01*
Y673454D02*
G03Y670454I1750J-1500D01*
G01X621899Y631079D02*
Y624079D01*
X618899D02*
G03X621899I1500J1750D01*
G01X618899D02*
Y631079D01*
X621899D02*
G03X618899I-1500J-1750D01*
G01X658274Y799514D02*
X651274D01*
Y802514D02*
G03Y799514I1750J-1500D01*
G01Y802514D02*
X658274D01*
Y799514D02*
G03Y802514I-1750J1500D01*
G01X679524Y793454D02*
Y800454D01*
X682524D02*
G03X679524I-1500J-1750D01*
G01X682524D02*
Y793454D01*
X679524D02*
G03X682524I1500J1750D01*
G01X701399Y808579D02*
X694399D01*
Y811579D02*
G03Y808579I1750J-1500D01*
G01Y811579D02*
X701399D01*
Y808579D02*
G03Y811579I-1750J1500D01*
G01Y798579D02*
X694399D01*
Y801579D02*
G03Y798579I1750J-1500D01*
G01Y801579D02*
X701399D01*
Y798579D02*
G03Y801579I-1750J1500D01*
G01X612024Y605454D02*
X605024D01*
Y608454D02*
G03Y605454I1750J-1500D01*
G01Y608454D02*
X612024D01*
Y605454D02*
G03Y608454I-1750J1500D01*
G01X676024Y720579D02*
X669024D01*
Y723579D02*
G03Y720579I1750J-1500D01*
G01Y723579D02*
X676024D01*
Y720579D02*
G03Y723579I-1750J1500D01*
G01X641899Y662829D02*
X648899D01*
Y659829D02*
G03Y662829I-1750J1500D01*
G01Y659829D02*
X641899D01*
Y662829D02*
G03Y659829I1750J-1500D01*
G01X681399Y754204D02*
X674399D01*
Y757204D02*
G03Y754204I1750J-1500D01*
G01Y757204D02*
X681399D01*
Y754204D02*
G03Y757204I-1750J1500D01*
G01Y759204D02*
X674399D01*
Y762204D02*
G03Y759204I1750J-1500D01*
G01Y762204D02*
X681399D01*
Y759204D02*
G03Y762204I-1750J1500D01*
G01X652649Y750954D02*
Y757954D01*
X655649D02*
G03X652649I-1500J-1750D01*
G01X655649D02*
Y750954D01*
X652649D02*
G03X655649I1500J1750D01*
G01X658899Y760454D02*
X651899D01*
Y763454D02*
G03Y760454I1750J-1500D01*
G01Y763454D02*
X658899D01*
Y760454D02*
G03Y763454I-1750J1500D01*
G01X679125Y736625D02*
X672125D01*
Y739625D02*
G03Y736625I1750J-1500D01*
G01Y739625D02*
X679125D01*
Y736625D02*
G03Y739625I-1750J1500D01*
G01X671961Y681526D02*
X671245Y678942D01*
X671961Y681526D02*
X672677Y678942D01*
X671514Y679803D02*
X672408D01*
X673482Y681033D02*
X673661Y681156D01*
X673929Y681526*
Y678942*
X627438Y784123D02*
X630251D01*
X628845Y783100D02*
Y785146D01*
X642538Y784076D02*
X644788D01*
X643663Y783258D02*
Y784894D01*
X613728Y781525D02*
X616540D01*
X615134Y780502D02*
Y782547D01*
X652100Y663800D02*
X650550Y665350D01*
Y667200*
X649962Y666613*
X650600Y667200D02*
X651150Y666650D01*
X639800Y659200D02*
X640900Y660300D01*
X640200*
X640900D02*
Y659500D01*
G54D33*
X678099Y624016D02*
Y622329D01*
X678190Y621991*
X678371Y621766*
X678644Y621654*
X678826*
X679099Y621766*
X679280Y621991*
X679371Y622329*
Y624016*
X681099D02*
X680190Y622441D01*
X681553*
X681099Y624016D02*
Y621654D01*
X683000Y700186D02*
X683225Y700277D01*
X683450Y700459*
X683562Y700641*
X683562D02*
Y701005D01*
X683562D02*
X683450Y701186D01*
X683225Y701368*
X683000Y701459*
X682662Y701550*
X682662D02*
X682100D01*
X681762Y701459*
X681762D02*
X681537Y701368D01*
X681537D02*
X681312Y701186D01*
X681312D02*
X681200Y701005D01*
Y700641*
X681312Y700459*
X681312D02*
X681537Y700277D01*
X681537D02*
X681762Y700186D01*
X683562Y699368D02*
X681200D01*
X683562D02*
Y698550D01*
X683562D02*
X683450Y698277D01*
X683337Y698186*
X683337D02*
X683112Y698095D01*
X683112D02*
X682887D01*
X682887D02*
X682662Y698186D01*
X682662D02*
X682550Y698277D01*
X682437Y698550*
Y699368D02*
Y698550D01*
X682437D02*
X682325Y698277D01*
X682212Y698186*
X682212D02*
X681987Y698095D01*
X681987D02*
X681650D01*
X681425Y698186*
X681312Y698277*
X681312D02*
X681200Y698550D01*
Y699368*
X683562Y696368D02*
X681987Y697277D01*
X681987D02*
Y695914D01*
X683562Y696368D02*
X681200D01*
X655973Y699725D02*
X655791Y699950D01*
X655518Y700063*
X655155*
X654882Y699950*
X654700Y699725*
Y699500*
X654791Y699275*
X654882Y699163*
X655064Y699050*
X655609Y698825*
X655791Y698713*
X655882Y698600*
X655973Y698375*
Y698038*
X655791Y697813*
X655518Y697700*
X655155*
X654882Y697813*
X654700Y698038*
X656791Y700063D02*
Y697700D01*
Y700063D02*
X657609D01*
X657882Y699950*
X657973Y699838*
X658064Y699613*
Y699388*
X657973Y699163*
X657882Y699050*
X657609Y698938*
X656791D02*
X657609D01*
X657882Y698825*
X657973Y698713*
X658064Y698488*
Y698150*
X657973Y697925*
X657882Y697813*
X657609Y697700*
X656791*
X658882Y699613D02*
X659064Y699725D01*
X659336Y700063*
Y697700*
X641900Y699163D02*
Y697475D01*
X641991Y697138*
X641991D02*
X642173Y696913D01*
X642173D02*
X642445Y696800D01*
X642627*
X642900Y696913*
X642900D02*
X643082Y697138D01*
X643082D02*
X643173Y697475D01*
Y699163*
X643991Y698713D02*
X644173Y698825D01*
X644445Y699163*
X644445D02*
Y696800D01*
X645445Y699163D02*
X646445D01*
X646445D02*
X645900Y698263D01*
X645900D02*
X646173D01*
X646173D02*
X646355Y698150D01*
X646445Y698038*
X646445D02*
X646536Y697700D01*
Y697475*
X646445Y697138*
X646445D02*
X646264Y696913D01*
X646264D02*
X645991Y696800D01*
X645718*
X645445Y696913*
X645445D02*
X645355Y697025D01*
X645264Y697250*
X643263Y709100D02*
X640900D01*
X643263D02*
Y708282D01*
X643263D02*
X643150Y708009D01*
X643038Y707918*
X643038D02*
X642813Y707827D01*
X642813D02*
X642588D01*
X642588D02*
X642363Y707918D01*
X642363D02*
X642250Y708009D01*
X642138Y708282*
X642138D02*
Y709100D01*
Y708464D02*
X640900Y707827D01*
X643263Y706100D02*
X641688Y707009D01*
X641688D02*
Y705645D01*
X643263Y706100D02*
X640900D01*
X633763Y671364D02*
X631400D01*
X633763Y672000D02*
Y670727D01*
Y669909D02*
X631400D01*
X633763D02*
Y669091D01*
X633763D02*
X633650Y668818D01*
X633538Y668727*
X633538D02*
X633313Y668636D01*
X633313D02*
X632975D01*
X632750Y668727*
X632638Y668818*
X632638D02*
X632525Y669091D01*
Y669909*
X633313Y667818D02*
X633425Y667636D01*
X633763Y667364*
X633763D02*
X631400D01*
X633763Y665364D02*
Y666273D01*
X633763D02*
X632750Y666364D01*
X632863Y666273*
X632863D02*
X632975Y666000D01*
Y665727*
X632863Y665455*
X632863D02*
X632638Y665273D01*
X632638D02*
X632300Y665182D01*
X632075Y665273*
X631738Y665364*
X631738D02*
X631513Y665545D01*
X631513D02*
X631400Y665818D01*
Y666091*
X631513Y666364*
X631513D02*
X631625Y666455D01*
X631850Y666545*
X614100Y700763D02*
Y698400D01*
Y700763D02*
X614918D01*
X614918D02*
X615191Y700650D01*
X615282Y700538*
X615282D02*
X615373Y700313D01*
X615373D02*
Y699975D01*
X615282Y699750*
X615191Y699638*
X615191D02*
X614918Y699525D01*
X614100*
X616191Y700763D02*
Y698400D01*
Y700763D02*
X617009D01*
X617009D02*
X617282Y700650D01*
X617373Y700538*
X617373D02*
X617464Y700313D01*
X617464D02*
Y700088D01*
X617464D02*
X617373Y699863D01*
X617373D02*
X617282Y699750D01*
X617009Y699638*
X616191D02*
X617009D01*
X617009D02*
X617282Y699525D01*
X617373Y699413*
X617373D02*
X617464Y699188D01*
X617464D02*
Y698850D01*
X617373Y698625*
X617282Y698513*
X617282D02*
X617009Y698400D01*
X616191*
X618373Y700200D02*
Y700313D01*
X618373D02*
X618464Y700538D01*
X618464D02*
X618555Y700650D01*
X618736Y700763*
X618736D02*
X619100D01*
X619100D02*
X619282Y700650D01*
X619373Y700538*
X619373D02*
X619464Y700313D01*
X619464D02*
Y700088D01*
X619464D02*
X619373Y699863D01*
X619373D02*
X619191Y699525D01*
X618282Y698400*
X619555*
X644462Y682454D02*
X644371Y682679D01*
X644190Y682904*
X644008Y683016*
X643644*
X643462Y682904*
X643280Y682679*
X643190Y682454*
X643099Y682116*
Y681554*
X643190Y681216*
X643280Y680991*
X643462Y680766*
X643644Y680654*
X644008*
X644190Y680766*
X644371Y680991*
X644462Y681216*
X645280Y683016D02*
Y680654D01*
Y683016D02*
X646099D01*
X646371Y682904*
X646462Y682791*
X646553Y682566*
Y682341*
X646462Y682116*
X646371Y682004*
X646099Y681891*
X645280D02*
X646099D01*
X646371Y681779*
X646462Y681666*
X646553Y681441*
Y681104*
X646462Y680879*
X646371Y680766*
X646099Y680654*
X645280*
X648280Y683016D02*
X647371Y681441D01*
X648735*
X648280Y683016D02*
Y680654D01*
X650462Y683016D02*
X649553Y681441D01*
X650917*
X650462Y683016D02*
Y680654D01*
X643461Y728254D02*
X641099D01*
X643461D02*
Y727436D01*
X643349Y727163*
X643236Y727072*
X643011Y726981*
X642786*
X642561Y727072*
X642449Y727163*
X642336Y727436*
Y728254*
Y727617D02*
X641099Y726981D01*
X642899Y726072D02*
X643011D01*
X643236Y725981*
X643349Y725890*
X643461Y725708*
Y725345*
X643349Y725163*
X643236Y725072*
X643011Y724981*
X642786*
X642561Y725072*
X642224Y725254*
X641099Y726163*
Y724890*
X642674Y722890D02*
X642336Y722981D01*
X642111Y723163*
X641999Y723436*
Y723526*
X642111Y723799*
X642336Y723981*
X642674Y724072*
X642786*
X643124Y723981*
X643349Y723799*
X643461Y723526*
Y723436*
X643349Y723163*
X643124Y722981*
X642674Y722890*
X642111*
X641549Y722981*
X641211Y723163*
X641099Y723436*
Y723617*
X641211Y723890*
X641436Y723981*
X670300Y700736D02*
X670525Y700827D01*
X670750Y701009*
X670863Y701191*
X670863D02*
Y701555D01*
X670863D02*
X670750Y701736D01*
X670525Y701918*
X670300Y702009*
X669963Y702100*
X669963D02*
X669400D01*
X669063Y702009*
X669063D02*
X668838Y701918D01*
X668838D02*
X668613Y701736D01*
X668613D02*
X668500Y701555D01*
Y701191*
X668613Y701009*
X668613D02*
X668838Y700827D01*
X668838D02*
X669063Y700736D01*
X670863Y699918D02*
X668500D01*
X670863D02*
Y699100D01*
X670863D02*
X670750Y698827D01*
X670638Y698736*
X670638D02*
X670413Y698645D01*
X670413D02*
X670188D01*
X670188D02*
X669963Y698736D01*
X669963D02*
X669850Y698827D01*
X669738Y699100*
Y699918D02*
Y699100D01*
X669738D02*
X669625Y698827D01*
X669513Y698736*
X669513D02*
X669288Y698645D01*
X669288D02*
X668950D01*
X668725Y698736*
X668613Y698827*
X668613D02*
X668500Y699100D01*
Y699918*
X670863Y696555D02*
X668500Y697464D01*
X670863Y697827D02*
Y696555D01*
X622399Y719816D02*
Y718129D01*
X622490Y717791*
X622671Y717566*
X622944Y717454*
X623126*
X623399Y717566*
X623580Y717791*
X623671Y718129*
Y719816*
X624490Y719366D02*
X624671Y719479D01*
X624944Y719816*
Y717454*
X626671Y719816D02*
X625762Y718241D01*
X627126*
X626671Y719816D02*
Y717454D01*
X677880Y770545D02*
Y768182D01*
Y770545D02*
X678698D01*
X678698D02*
X678971Y770432D01*
X679062Y770320*
X679062D02*
X679153Y770095D01*
X679153D02*
Y769870D01*
X679153D02*
X679062Y769645D01*
X679062D02*
X678971Y769532D01*
X678698Y769420*
X678698D02*
X677880D01*
X678516D02*
X679153Y768182D01*
X681244Y770545D02*
X680335Y768182D01*
X679971Y770545D02*
X681244D01*
X683153Y770207D02*
X683062Y770432D01*
X682789Y770545*
X682789D02*
X682607D01*
X682607D02*
X682335Y770432D01*
X682153Y770095*
X682153D02*
X682062Y769532D01*
Y768970*
X682062D02*
X682153Y768520D01*
X682153D02*
X682335Y768295D01*
X682335D02*
X682607Y768182D01*
X682698*
X682971Y768295*
X682971D02*
X683153Y768520D01*
X683153D02*
X683244Y768857D01*
Y768970*
X683244D02*
X683153Y769307D01*
X682971Y769532*
X682698Y769645*
X682698D02*
X682607D01*
X682607D02*
X682335Y769532D01*
X682153Y769307*
X682062Y768970*
X644462Y748454D02*
X644371Y748679D01*
X644190Y748904*
X644008Y749016*
X643644*
X643462Y748904*
X643280Y748679*
X643190Y748454*
X643099Y748116*
Y747554*
X643190Y747216*
X643280Y746991*
X643462Y746766*
X643644Y746654*
X644008*
X644190Y746766*
X644371Y746991*
X644462Y747216*
X645917Y749016D02*
Y746654D01*
X645280Y749016D02*
X646553D01*
X647371Y748566D02*
X647553Y748679D01*
X647826Y749016*
Y746654*
X681400Y695363D02*
Y693675D01*
X681491Y693338*
X681491D02*
X681673Y693113D01*
X681673D02*
X681945Y693000D01*
X682127*
X682400Y693113*
X682400D02*
X682582Y693338D01*
X682582D02*
X682673Y693675D01*
Y695363*
X683491Y694913D02*
X683673Y695025D01*
X683945Y695363*
X683945D02*
Y693000D01*
X639899Y744890D02*
X640124Y744981D01*
X640349Y745163*
X640461Y745345*
Y745708*
X640349Y745890*
X640124Y746072*
X639899Y746163*
X639561Y746254*
X638999*
X638661Y746163*
X638436Y746072*
X638211Y745890*
X638099Y745708*
Y745345*
X638211Y745163*
X638436Y744981*
X638661Y744890*
X640461Y744072D02*
X638099D01*
X640461D02*
Y743254D01*
X640349Y742981*
X640236Y742890*
X640011Y742799*
X639786*
X639561Y742890*
X639449Y742981*
X639336Y743254*
Y744072D02*
Y743254D01*
X639224Y742981*
X639111Y742890*
X638886Y742799*
X638549*
X638324Y742890*
X638211Y742981*
X638099Y743254*
Y744072*
X640461Y741072D02*
X638886Y741981D01*
Y740617*
X640461Y741072D02*
X638099D01*
X640461Y739617D02*
Y738617D01*
X639561Y739163*
Y738890*
X639449Y738708*
X639336Y738617*
X638999Y738526*
X638774*
X638436Y738617*
X638211Y738799*
X638099Y739072*
Y739345*
X638211Y739617*
X638324Y739708*
X638549Y739799*
X677461Y791254D02*
X675099D01*
X677461D02*
Y790436D01*
X677349Y790163*
X677236Y790072*
X677011Y789981*
X676786*
X676561Y790072*
X676449Y790163*
X676336Y790436*
Y791254*
Y790617D02*
X675099Y789981D01*
X677124Y788072D02*
X677349Y788163D01*
X677461Y788436*
Y788617*
X677349Y788890*
X677011Y789072*
X676449Y789163*
X675886*
X675436Y789072*
X675211Y788890*
X675099Y788617*
Y788526*
X675211Y788254*
X675436Y788072*
X675774Y787981*
X675886*
X676224Y788072*
X676449Y788254*
X676561Y788526*
Y788617*
X676449Y788890*
X676224Y789072*
X675886Y789163*
X676899Y787072D02*
X677011D01*
X677236Y786981*
X677349Y786890*
X677461Y786708*
Y786345*
X677349Y786163*
X677236Y786072*
X677011Y785981*
X676786*
X676561Y786072*
X676224Y786254*
X675099Y787163*
Y785890*
X650963Y653000D02*
X648600D01*
X650963D02*
Y652182D01*
X650963D02*
X650850Y651909D01*
X650738Y651818*
X650738D02*
X650513Y651727D01*
X650513D02*
X650288D01*
X650288D02*
X650063Y651818D01*
X650063D02*
X649950Y651909D01*
X649838Y652182*
X649838D02*
Y653000D01*
Y652364D02*
X648600Y651727D01*
X650513Y650909D02*
X650625Y650727D01*
X650963Y650455*
X650963D02*
X648600D01*
X650963Y648727D02*
X649388Y649636D01*
X649388D02*
Y648273D01*
X650963Y648727D02*
X648600D01*
X678099Y619016D02*
Y616654D01*
X679190*
X680099Y618454D02*
Y618566D01*
X680190Y618791*
X680280Y618904*
X680462Y619016*
X680826*
X681008Y618904*
X681099Y618791*
X681190Y618566*
Y618341*
X681099Y618116*
X680917Y617779*
X680008Y616654*
X681280*
X606462Y824454D02*
X606371Y824679D01*
X606190Y824904*
X606008Y825016*
X605644*
X605462Y824904*
X605280Y824679*
X605190Y824454*
X605099Y824116*
Y823554*
X605190Y823216*
X605280Y822991*
X605462Y822766*
X605644Y822654*
X606008*
X606190Y822766*
X606371Y822991*
X606462Y823216*
X607826Y825016D02*
X607644Y824904D01*
X607462Y824679*
X607371Y824454*
X607280Y824116*
Y823554*
X607371Y823216*
X607462Y822991*
X607644Y822766*
X607826Y822654*
X608190*
X608371Y822766*
X608553Y822991*
X608644Y823216*
X608735Y823554*
Y824116*
X608644Y824454*
X608553Y824679*
X608371Y824904*
X608190Y825016*
X607826*
X609553D02*
Y822654D01*
Y825016D02*
X610826Y822654D01*
Y825016D02*
Y822654D01*
X611644Y824566D02*
X611826Y824679D01*
X612099Y825016*
Y822654*
X704099Y637016D02*
Y634654D01*
X705190*
X706190Y637016D02*
X707190D01*
X706644Y636116*
X706917*
X707099Y636004*
X707190Y635891*
X707280Y635554*
Y635329*
X707190Y634991*
X707008Y634766*
X706735Y634654*
X706462*
X706190Y634766*
X706099Y634879*
X706008Y635104*
X617661Y802254D02*
X615299D01*
Y801163*
X617661Y800345D02*
X615299D01*
X617661D02*
Y799163D01*
X616536Y800345D02*
Y799617D01*
X615299Y800345D02*
Y799163D01*
X617661Y798345D02*
X615299D01*
X617661D02*
Y797708D01*
X617549Y797436*
X617324Y797254*
X617099Y797163*
X616761Y797072*
X616199*
X615861Y797163*
X615636Y797254*
X615411Y797436*
X615299Y797708*
Y798345*
X617099Y796163D02*
X617211D01*
X617436Y796072*
X617549Y795981*
X617661Y795799*
Y795436*
X617549Y795254*
X617436Y795163*
X617211Y795072*
X616986*
X616761Y795163*
X616424Y795345*
X615299Y796254*
Y794981*
X624099Y713016D02*
Y711329D01*
X624190Y710991*
X624371Y710766*
X624644Y710654*
X624826*
X625099Y710766*
X625280Y710991*
X625371Y711329*
Y713016*
X626371D02*
X627371D01*
X626826Y712116*
X627099*
X627280Y712004*
X627371Y711891*
X627462Y711554*
Y711329*
X627371Y710991*
X627190Y710766*
X626917Y710654*
X626644*
X626371Y710766*
X626280Y710879*
X626190Y711104*
X707142Y791815D02*
X704779D01*
X707142D02*
Y790997D01*
X707142D02*
X707029Y790724D01*
X706917Y790633*
X706917D02*
X706692Y790542D01*
X706692D02*
X706467D01*
X706467D02*
X706242Y790633D01*
X706242D02*
X706129Y790724D01*
X706017Y790997*
X706017D02*
Y791815D01*
Y791179D02*
X704779Y790542D01*
X706804Y788633D02*
X707029Y788724D01*
X707142Y788997*
X707142D02*
Y789179D01*
X707142D02*
X707029Y789451D01*
X706692Y789633*
X706692D02*
X706129Y789724D01*
X705567*
X705567D02*
X705117Y789633D01*
X705117D02*
X704892Y789451D01*
X704892D02*
X704779Y789179D01*
Y789088*
X704892Y788815*
X704892D02*
X705117Y788633D01*
X705117D02*
X705454Y788542D01*
X705567*
X705567D02*
X705904Y788633D01*
X706129Y788815*
X706242Y789088*
X706242D02*
Y789179D01*
X706242D02*
X706129Y789451D01*
X705904Y789633*
X705567Y789724*
X707142Y787270D02*
X707029Y787542D01*
X706804Y787633*
X706579*
X706354Y787542*
X706242Y787360*
X706242D02*
X706129Y786997D01*
X706017Y786724*
X706017D02*
X705792Y786542D01*
X705792D02*
X705567Y786451D01*
X705567D02*
X705229D01*
X705004Y786542*
X704892Y786633*
X704892D02*
X704779Y786906D01*
Y787270*
X704892Y787542*
X704892D02*
X705004Y787633D01*
X705229Y787724*
X705567*
X705567D02*
X705792Y787633D01*
X705792D02*
X706017Y787451D01*
X706017D02*
X706129Y787179D01*
X706242Y786815*
X706242D02*
X706354Y786633D01*
X706579Y786542*
X706804*
X707029Y786633*
X707142Y786906*
X707142D02*
Y787270D01*
X630900Y701662D02*
Y699975D01*
X630991Y699637*
X630991D02*
X631173Y699412D01*
X631173D02*
X631445Y699300D01*
X631627*
X631900Y699412*
X631900D02*
X632082Y699637D01*
X632082D02*
X632173Y699975D01*
Y701662*
X634082Y701325D02*
X633991Y701550D01*
X633718Y701662*
X633718D02*
X633536D01*
X633536D02*
X633264Y701550D01*
X633082Y701212*
X633082D02*
X632991Y700650D01*
Y700087*
X632991D02*
X633082Y699637D01*
X633082D02*
X633264Y699412D01*
X633264D02*
X633536Y699300D01*
X633627*
X633900Y699412*
X633900D02*
X634082Y699637D01*
X634082D02*
X634173Y699975D01*
Y700087*
X634173D02*
X634082Y700425D01*
X633900Y700650*
X633627Y700762*
X633627D02*
X633536D01*
X633536D02*
X633264Y700650D01*
X633082Y700425*
X632991Y700087*
X652061Y636454D02*
X649699D01*
X652061D02*
Y635636D01*
X651949Y635363*
X651836Y635272*
X651611Y635181*
X651386*
X651161Y635272*
X651049Y635363*
X650936Y635636*
Y636454*
Y635817D02*
X649699Y635181D01*
X652061Y634181D02*
Y633181D01*
X651161Y633726*
Y633454*
X651049Y633272*
X650936Y633181*
X650599Y633090*
X650374*
X650036Y633181*
X649811Y633363*
X649699Y633636*
Y633908*
X649811Y634181*
X649924Y634272*
X650149Y634363*
X652061Y631363D02*
X650486Y632272D01*
Y630908*
X652061Y631363D02*
X649699D01*
X672899Y747890D02*
X673124Y747981D01*
X673349Y748163*
X673461Y748345*
Y748708*
X673349Y748890*
X673124Y749072*
X672899Y749163*
X672561Y749254*
X671999*
X671661Y749163*
X671436Y749072*
X671211Y748890*
X671099Y748708*
Y748345*
X671211Y748163*
X671436Y747981*
X671661Y747890*
X673461Y747072D02*
X671099D01*
X673461D02*
Y746254D01*
X673349Y745981*
X673236Y745890*
X673011Y745799*
X672786*
X672561Y745890*
X672449Y745981*
X672336Y746254*
Y747072D02*
Y746254D01*
X672224Y745981*
X672111Y745890*
X671886Y745799*
X671549*
X671324Y745890*
X671211Y745981*
X671099Y746254*
Y747072*
X673461Y744799D02*
Y743799D01*
X672561Y744345*
Y744072*
X672449Y743890*
X672336Y743799*
X671999Y743708*
X671774*
X671436Y743799*
X671211Y743981*
X671099Y744254*
Y744526*
X671211Y744799*
X671324Y744890*
X671549Y744981*
X673461Y741981D02*
X671886Y742890D01*
Y741526*
X673461Y741981D02*
X671099D01*
X683879Y779090D02*
X684104Y779181D01*
X684329Y779363*
X684442Y779545*
X684442D02*
Y779909D01*
X684442D02*
X684329Y780090D01*
X684104Y780272*
X683879Y780363*
X683542Y780454*
X683542D02*
X682979D01*
X682642Y780363*
X682642D02*
X682417Y780272D01*
X682417D02*
X682192Y780090D01*
X682192D02*
X682079Y779909D01*
Y779545*
X682192Y779363*
X682192D02*
X682417Y779181D01*
X682417D02*
X682642Y779090D01*
X684442Y778272D02*
X682079D01*
X684442D02*
Y777454D01*
X684442D02*
X684329Y777181D01*
X684217Y777090*
X684217D02*
X683992Y776999D01*
X683992D02*
X683767D01*
X683767D02*
X683542Y777090D01*
X683542D02*
X683429Y777181D01*
X683317Y777454*
Y778272D02*
Y777454D01*
X683317D02*
X683204Y777181D01*
X683092Y777090*
X683092D02*
X682867Y776999D01*
X682867D02*
X682529D01*
X682304Y777090*
X682192Y777181*
X682192D02*
X682079Y777454D01*
Y778272*
X684442Y775999D02*
Y774999D01*
X684442D02*
X683542Y775545D01*
X683542D02*
Y775272D01*
X683542D02*
X683429Y775090D01*
X683317Y774999*
X683317D02*
X682979Y774909D01*
X682754*
X682417Y774999*
X682417D02*
X682192Y775181D01*
X682192D02*
X682079Y775454D01*
Y775727*
X682192Y775999*
X682192D02*
X682304Y776090D01*
X682529Y776181*
X683654Y772909D02*
X683317Y772999D01*
X683317D02*
X683092Y773181D01*
X683092D02*
X682979Y773454D01*
Y773545*
X683092Y773818*
X683092D02*
X683317Y773999D01*
X683317D02*
X683654Y774090D01*
X683767*
X683767D02*
X684104Y773999D01*
X684329Y773818*
X684442Y773545*
X684442D02*
Y773454D01*
X684442D02*
X684329Y773181D01*
X684104Y772999*
X683654Y772909*
X683092*
X683092D02*
X682529Y772999D01*
X682192Y773181*
X682192D02*
X682079Y773454D01*
Y773636*
X682192Y773909*
X682192D02*
X682417Y773999D01*
X702700Y774225D02*
Y772350D01*
X702791Y771975*
X702973Y771725*
X703245Y771600*
X703427*
X703700Y771725*
X703882Y771975*
X703973Y772350*
Y774225*
X704791Y773725D02*
X704973Y773850D01*
X705245Y774225*
Y771600*
X706609Y774225D02*
X706336Y774100D01*
X706155Y773725*
X706064Y773100*
Y772725*
X706155Y772100*
X706336Y771725*
X706609Y771600*
X706791*
X707064Y771725*
X707245Y772100*
X707336Y772725*
Y773100*
X707245Y773725*
X707064Y774100*
X706791Y774225*
X706609*
X630462Y837454D02*
X630371Y837679D01*
X630190Y837904*
X630008Y838016*
X629644*
X629462Y837904*
X629280Y837679*
X629190Y837454*
X629099Y837116*
Y836554*
X629190Y836216*
X629280Y835991*
X629462Y835766*
X629644Y835654*
X630008*
X630190Y835766*
X630371Y835991*
X630462Y836216*
X631826Y838016D02*
X631644Y837904D01*
X631462Y837679*
X631371Y837454*
X631280Y837116*
Y836554*
X631371Y836216*
X631462Y835991*
X631644Y835766*
X631826Y835654*
X632190*
X632371Y835766*
X632553Y835991*
X632644Y836216*
X632735Y836554*
Y837116*
X632644Y837454*
X632553Y837679*
X632371Y837904*
X632190Y838016*
X631826*
X633553D02*
Y835654D01*
Y838016D02*
X634826Y835654D01*
Y838016D02*
Y835654D01*
X635735Y837454D02*
Y837566D01*
X635826Y837791*
X635917Y837904*
X636099Y838016*
X636462*
X636644Y837904*
X636735Y837791*
X636826Y837566*
Y837341*
X636735Y837116*
X636553Y836779*
X635644Y835654*
X636917*
X650193Y736063D02*
Y733700D01*
Y736063D02*
X651375D01*
X650193Y734938D02*
X650920D01*
X652193Y736063D02*
Y733700D01*
Y736063D02*
X653011D01*
X653011D02*
X653284Y735950D01*
X653375Y735838*
X653375D02*
X653466Y735613D01*
X653466D02*
Y735388D01*
X653466D02*
X653375Y735163D01*
X653375D02*
X653284Y735050D01*
X653011Y734938*
X652193D02*
X653011D01*
X653011D02*
X653284Y734825D01*
X653375Y734713*
X653375D02*
X653466Y734488D01*
X653466D02*
Y734150D01*
X653375Y733925*
X653284Y733813*
X653284D02*
X653011Y733700D01*
X652193*
X654466Y736063D02*
X655466D01*
X655466D02*
X654920Y735163D01*
X654920D02*
X655193D01*
X655193D02*
X655375Y735050D01*
X655466Y734938*
X655466D02*
X655557Y734600D01*
Y734375*
X655466Y734038*
X655466D02*
X655284Y733813D01*
X655284D02*
X655011Y733700D01*
X654738*
X654466Y733813*
X654466D02*
X654375Y733925D01*
X654284Y734150*
X664999Y739990D02*
X665224Y740081D01*
X665449Y740263*
X665561Y740445*
Y740808*
X665449Y740990*
X665224Y741172*
X664999Y741263*
X664661Y741354*
X664099*
X663761Y741263*
X663536Y741172*
X663311Y740990*
X663199Y740808*
Y740445*
X663311Y740263*
X663536Y740081*
X663761Y739990*
X665561Y738263D02*
X663986Y739172D01*
Y737808*
X665561Y738263D02*
X663199D01*
X665561Y736808D02*
Y735808D01*
X664661Y736354*
Y736081*
X664549Y735899*
X664436Y735808*
X664099Y735717*
X663874*
X663536Y735808*
X663311Y735990*
X663199Y736263*
Y736536*
X663311Y736808*
X663424Y736899*
X663649Y736990*
X636899Y744890D02*
X637124Y744981D01*
X637349Y745163*
X637461Y745345*
Y745708*
X637349Y745890*
X637124Y746072*
X636899Y746163*
X636561Y746254*
X635999*
X635661Y746163*
X635436Y746072*
X635211Y745890*
X635099Y745708*
Y745345*
X635211Y745163*
X635436Y744981*
X635661Y744890*
X637461Y744072D02*
X635099D01*
X637461D02*
Y743254D01*
X637349Y742981*
X637236Y742890*
X637011Y742799*
X636786*
X636561Y742890*
X636449Y742981*
X636336Y743254*
Y744072D02*
Y743254D01*
X636224Y742981*
X636111Y742890*
X635886Y742799*
X635549*
X635324Y742890*
X635211Y742981*
X635099Y743254*
Y744072*
X637461Y741072D02*
X635886Y741981D01*
Y740617*
X637461Y741072D02*
X635099D01*
X636899Y739708D02*
X637011D01*
X637236Y739617*
X637349Y739526*
X637461Y739345*
Y738981*
X637349Y738799*
X637236Y738708*
X637011Y738617*
X636786*
X636561Y738708*
X636224Y738890*
X635099Y739799*
Y738526*
X617225Y754700D02*
X615350D01*
X614975Y754609*
X614725Y754427*
X614600Y754155*
Y753973*
X614725Y753700*
X614975Y753518*
X615350Y753427*
X617225*
X616725Y752609D02*
X616850Y752427D01*
X617225Y752155*
X614600*
X617225Y750155D02*
Y751064D01*
X616100Y751155*
X616225Y751064*
X616350Y750791*
Y750518*
X616225Y750245*
X615975Y750064*
X615600Y749973*
X615350Y750064*
X614975Y750155*
X614725Y750336*
X614600Y750609*
Y750882*
X614725Y751155*
X614850Y751245*
X615100Y751336*
X620461Y707254D02*
X618099D01*
X620461D02*
Y706436D01*
X620349Y706163*
X620236Y706072*
X620011Y705981*
X619786*
X619561Y706072*
X619449Y706163*
X619336Y706436*
Y707254*
Y706617D02*
X618099Y705981D01*
X619899Y705072D02*
X620011D01*
X620236Y704981*
X620349Y704890*
X620461Y704708*
Y704345*
X620349Y704163*
X620236Y704072*
X620011Y703981*
X619786*
X619561Y704072*
X619224Y704254*
X618099Y705163*
Y703890*
X619899Y702981D02*
X620011D01*
X620236Y702890*
X620349Y702799*
X620461Y702617*
Y702254*
X620349Y702072*
X620236Y701981*
X620011Y701890*
X619786*
X619561Y701981*
X619224Y702163*
X618099Y703072*
Y701799*
X631899Y740890D02*
X632124Y740981D01*
X632349Y741163*
X632461Y741345*
Y741708*
X632349Y741890*
X632124Y742072*
X631899Y742163*
X631561Y742254*
X630999*
X630661Y742163*
X630436Y742072*
X630211Y741890*
X630099Y741708*
Y741345*
X630211Y741163*
X630436Y740981*
X630661Y740890*
X632461Y738890D02*
Y739799D01*
X631449Y739890*
X631561Y739799*
X631674Y739526*
Y739254*
X631561Y738981*
X631336Y738799*
X630999Y738708*
X630774Y738799*
X630436Y738890*
X630211Y739072*
X630099Y739345*
Y739617*
X630211Y739890*
X630324Y739981*
X630549Y740072*
X632461Y736617D02*
X630099Y737526D01*
X632461Y737890D02*
Y736617D01*
X694099Y758016D02*
Y755654D01*
Y758016D02*
X694917D01*
X695190Y757904*
X695280Y757791*
X695371Y757566*
Y757341*
X695280Y757116*
X695190Y757004*
X694917Y756891*
X694099*
X694735D02*
X695371Y755654D01*
X697462Y758016D02*
X696553Y755654D01*
X696190Y758016D02*
X697462D01*
X698826D02*
X698553Y757904D01*
X698371Y757566*
X698280Y757004*
Y756666*
X698371Y756104*
X698553Y755766*
X698826Y755654*
X699008*
X699280Y755766*
X699462Y756104*
X699553Y756666*
Y757004*
X699462Y757566*
X699280Y757904*
X699008Y758016*
X698826*
X623800Y637763D02*
Y636075D01*
X623891Y635738*
X623891D02*
X624073Y635513D01*
X624073D02*
X624345Y635400D01*
X624527*
X624800Y635513*
X624800D02*
X624982Y635738D01*
X624982D02*
X625073Y636075D01*
Y637763*
X627073D02*
X626164D01*
X626164D02*
X626073Y636750D01*
X626164Y636863*
X626164D02*
X626436Y636975D01*
X626709*
X626982Y636863*
X626982D02*
X627164Y636638D01*
X627164D02*
X627255Y636300D01*
X627164Y636075*
X627073Y635738*
X627073D02*
X626891Y635513D01*
X626891D02*
X626618Y635400D01*
X626345*
X626073Y635513*
X626073D02*
X625982Y635625D01*
X625891Y635850*
X706899Y608890D02*
X707124Y608981D01*
X707349Y609163*
X707461Y609345*
Y609708*
X707349Y609890*
X707124Y610072*
X706899Y610163*
X706561Y610254*
X705999*
X705661Y610163*
X705436Y610072*
X705211Y609890*
X705099Y609708*
Y609345*
X705211Y609163*
X705436Y608981*
X705661Y608890*
X707461Y608072D02*
X705099D01*
X707461D02*
Y607254D01*
X707349Y606981*
X707236Y606890*
X707011Y606799*
X706786*
X706561Y606890*
X706449Y606981*
X706336Y607254*
Y608072D02*
Y607254D01*
X706224Y606981*
X706111Y606890*
X705886Y606799*
X705549*
X705324Y606890*
X705211Y606981*
X705099Y607254*
Y608072*
X707011Y605981D02*
X707124Y605799D01*
X707461Y605526*
X705099*
X707461Y603799D02*
X705886Y604708D01*
Y603345*
X707461Y603799D02*
X705099D01*
X703899Y608890D02*
X704124Y608981D01*
X704349Y609163*
X704461Y609345*
Y609708*
X704349Y609890*
X704124Y610072*
X703899Y610163*
X703561Y610254*
X702999*
X702661Y610163*
X702436Y610072*
X702211Y609890*
X702099Y609708*
Y609345*
X702211Y609163*
X702436Y608981*
X702661Y608890*
X704011Y608072D02*
X704124Y607890D01*
X704461Y607617*
X702099*
X704461Y606254D02*
X704349Y606526D01*
X704011Y606708*
X703449Y606799*
X703111*
X702549Y606708*
X702211Y606526*
X702099Y606254*
Y606072*
X702211Y605799*
X702549Y605617*
X703111Y605526*
X703449*
X704011Y605617*
X704349Y605799*
X704461Y606072*
Y606254*
X704299Y618116D02*
Y615754D01*
X705390*
X706208Y617666D02*
X706390Y617779D01*
X706662Y618116*
Y615754*
X683900Y607436D02*
X684125Y607527D01*
X684350Y607709*
X684463Y607891*
X684463D02*
Y608255D01*
X684463D02*
X684350Y608436D01*
X684125Y608618*
X683900Y608709*
X683563Y608800*
X683563D02*
X683000D01*
X682663Y608709*
X682663D02*
X682438Y608618D01*
X682438D02*
X682213Y608436D01*
X682213D02*
X682100Y608255D01*
Y607891*
X682213Y607709*
X682213D02*
X682438Y607527D01*
X682438D02*
X682663Y607436D01*
X684463Y605436D02*
Y606345D01*
X684463D02*
X683450Y606436D01*
X683563Y606345*
X683563D02*
X683675Y606073D01*
Y605800*
X683563Y605527*
X683563D02*
X683338Y605345D01*
X683338D02*
X683000Y605255D01*
X682775Y605345*
X682438Y605436*
X682438D02*
X682213Y605618D01*
X682213D02*
X682100Y605891D01*
Y606164*
X682213Y606436*
X682213D02*
X682325Y606527D01*
X682550Y606618*
X635099Y762016D02*
Y759654D01*
Y762016D02*
X635917D01*
X636190Y761904*
X636280Y761791*
X636371Y761566*
Y761341*
X636280Y761116*
X636190Y761004*
X635917Y760891*
X635099*
X635735D02*
X636371Y759654D01*
X638280Y761679D02*
X638190Y761904D01*
X637917Y762016*
X637735*
X637462Y761904*
X637280Y761566*
X637190Y761004*
Y760441*
X637280Y759991*
X637462Y759766*
X637735Y759654*
X637826*
X638099Y759766*
X638280Y759991*
X638371Y760329*
Y760441*
X638280Y760779*
X638099Y761004*
X637826Y761116*
X637735*
X637462Y761004*
X637280Y760779*
X637190Y760441*
X639190Y761566D02*
X639371Y761679D01*
X639644Y762016*
Y759654*
X620899Y637890D02*
X621124Y637981D01*
X621349Y638163*
X621461Y638345*
Y638708*
X621349Y638890*
X621124Y639072*
X620899Y639163*
X620561Y639254*
X619999*
X619661Y639163*
X619436Y639072*
X619211Y638890*
X619099Y638708*
Y638345*
X619211Y638163*
X619436Y637981*
X619661Y637890*
X620899Y636981D02*
X621011D01*
X621236Y636890*
X621349Y636799*
X621461Y636617*
Y636254*
X621349Y636072*
X621236Y635981*
X621011Y635890*
X620786*
X620561Y635981*
X620224Y636163*
X619099Y637072*
Y635799*
X620674Y633799D02*
X620336Y633890D01*
X620111Y634072*
X619999Y634345*
Y634436*
X620111Y634708*
X620336Y634890*
X620674Y634981*
X620786*
X621124Y634890*
X621349Y634708*
X621461Y634436*
Y634345*
X621349Y634072*
X621124Y633890*
X620674Y633799*
X620111*
X619549Y633890*
X619211Y634072*
X619099Y634345*
Y634526*
X619211Y634799*
X619436Y634890*
X632678Y610584D02*
X630316D01*
X632678Y611220D02*
Y609947D01*
Y609129D02*
X630316D01*
X632678D02*
Y608311D01*
X632678D02*
X632566Y608038D01*
X632453Y607947*
X632453D02*
X632228Y607856D01*
X632228D02*
X631891D01*
X631666Y607947*
X631553Y608038*
X631553D02*
X631441Y608311D01*
Y609129*
X632678Y606856D02*
Y605856D01*
X632678D02*
X631778Y606402D01*
X631778D02*
Y606129D01*
X631778D02*
X631666Y605947D01*
X631553Y605856*
X631553D02*
X631216Y605765D01*
X630991*
X630653Y605856*
X630653D02*
X630428Y606038D01*
X630428D02*
X630316Y606311D01*
Y606584*
X630428Y606856*
X630428D02*
X630541Y606947D01*
X630766Y607038*
X641224Y611984D02*
X638862D01*
X641224Y612620D02*
Y611347D01*
Y610529D02*
X638862D01*
X641224D02*
Y609711D01*
X641224D02*
X641112Y609438D01*
X640999Y609347*
X640999D02*
X640774Y609256D01*
X640774D02*
X640437D01*
X640212Y609347*
X640099Y609438*
X640099D02*
X639987Y609711D01*
Y610529*
X641224Y607529D02*
X639649Y608438D01*
X639649D02*
Y607075D01*
X641224Y607529D02*
X638862D01*
X635099Y635016D02*
Y632654D01*
Y635016D02*
X635917D01*
X636190Y634904*
X636280Y634791*
X636371Y634566*
Y634341*
X636280Y634116*
X636190Y634004*
X635917Y633891*
X635099*
X635735D02*
X636371Y632654D01*
X638371Y635016D02*
X637462D01*
X637371Y634004*
X637462Y634116*
X637735Y634229*
X638008*
X638280Y634116*
X638462Y633891*
X638553Y633554*
X638462Y633329*
X638371Y632991*
X638190Y632766*
X637917Y632654*
X637644*
X637371Y632766*
X637280Y632879*
X637190Y633104*
X640462Y634679D02*
X640371Y634904D01*
X640099Y635016*
X639917*
X639644Y634904*
X639462Y634566*
X639371Y634004*
Y633441*
X639462Y632991*
X639644Y632766*
X639917Y632654*
X640008*
X640280Y632766*
X640462Y632991*
X640553Y633329*
Y633441*
X640462Y633779*
X640280Y634004*
X640008Y634116*
X639917*
X639644Y634004*
X639462Y633779*
X639371Y633441*
X652063Y617900D02*
X649700D01*
X652063D02*
Y617082D01*
X652063D02*
X651950Y616809D01*
X651838Y616718*
X651838D02*
X651613Y616627D01*
X651613D02*
X651388D01*
X651388D02*
X651163Y616718D01*
X651163D02*
X651050Y616809D01*
X650938Y617082*
X650938D02*
Y617900D01*
Y617264D02*
X649700Y616627D01*
X651500Y615718D02*
X651613D01*
X651613D02*
X651838Y615627D01*
X651838D02*
X651950Y615536D01*
X652063Y615355*
X652063D02*
Y614991D01*
X652063D02*
X651950Y614809D01*
X651838Y614718*
X651838D02*
X651613Y614627D01*
X651613D02*
X651388D01*
X651388D02*
X651163Y614718D01*
X651163D02*
X650825Y614900D01*
X649700Y615809*
Y614536*
X652063Y613536D02*
Y612536D01*
X652063D02*
X651163Y613082D01*
X651163D02*
Y612809D01*
X651163D02*
X651050Y612627D01*
X650938Y612536*
X650938D02*
X650600Y612445D01*
X650375*
X650038Y612536*
X650038D02*
X649813Y612718D01*
X649813D02*
X649700Y612991D01*
Y613264*
X649813Y613536*
X649813D02*
X649925Y613627D01*
X650150Y613718*
X644462Y610454D02*
X644371Y610679D01*
X644190Y610904*
X644008Y611016*
X643644*
X643462Y610904*
X643280Y610679*
X643190Y610454*
X643099Y610116*
Y609554*
X643190Y609216*
X643280Y608991*
X643462Y608766*
X643644Y608654*
X644008*
X644190Y608766*
X644371Y608991*
X644462Y609216*
X645280Y610566D02*
X645462Y610679D01*
X645735Y611016*
Y608654*
X646553Y610566D02*
X646735Y610679D01*
X647008Y611016*
Y608654*
X624500Y614463D02*
Y612100D01*
Y614463D02*
X625318D01*
X625318D02*
X625591Y614350D01*
X625682Y614238*
X625682D02*
X625773Y614013D01*
X625773D02*
Y613788D01*
X625773D02*
X625682Y613563D01*
X625682D02*
X625591Y613450D01*
X625318Y613338*
X625318D02*
X624500D01*
X625136D02*
X625773Y612100D01*
X626682Y613900D02*
Y614013D01*
X626682D02*
X626773Y614238D01*
X626773D02*
X626864Y614350D01*
X627045Y614463*
X627045D02*
X627409D01*
X627409D02*
X627591Y614350D01*
X627682Y614238*
X627682D02*
X627773Y614013D01*
X627773D02*
Y613788D01*
X627773D02*
X627682Y613563D01*
X627682D02*
X627500Y613225D01*
X626591Y612100*
X627864*
X629955Y614463D02*
X629045Y612100D01*
X628682Y614463D02*
X629955D01*
X624500Y617463D02*
Y615100D01*
Y617463D02*
X625318D01*
X625318D02*
X625591Y617350D01*
X625682Y617238*
X625682D02*
X625773Y617013D01*
X625773D02*
Y616788D01*
X625773D02*
X625682Y616563D01*
X625682D02*
X625591Y616450D01*
X625318Y616338*
X625318D02*
X624500D01*
X625136D02*
X625773Y615100D01*
X626682Y616900D02*
Y617013D01*
X626682D02*
X626773Y617238D01*
X626773D02*
X626864Y617350D01*
X627045Y617463*
X627045D02*
X627409D01*
X627409D02*
X627591Y617350D01*
X627682Y617238*
X627682D02*
X627773Y617013D01*
X627773D02*
Y616788D01*
X627773D02*
X627682Y616563D01*
X627682D02*
X627500Y616225D01*
X626591Y615100*
X627864*
X629591Y617463D02*
X628682Y615888D01*
X628682D02*
X630045D01*
X629591Y617463D02*
Y615100D01*
X686864Y670000D02*
X686773Y670225D01*
X686591Y670450*
X686409Y670563*
X686409D02*
X686045D01*
X686045D02*
X685864Y670450D01*
X685682Y670225*
X685591Y670000*
X685500Y669663*
X685500D02*
Y669100D01*
X685591Y668763*
X685591D02*
X685682Y668538D01*
X685682D02*
X685864Y668313D01*
X685864D02*
X686045Y668200D01*
X686409*
X686591Y668313*
X686591D02*
X686773Y668538D01*
X686773D02*
X686864Y668763D01*
X688773Y670225D02*
X688682Y670450D01*
X688409Y670563*
X688409D02*
X688227D01*
X688227D02*
X687955Y670450D01*
X687773Y670113*
X687773D02*
X687682Y669550D01*
Y668988*
X687682D02*
X687773Y668538D01*
X687773D02*
X687955Y668313D01*
X687955D02*
X688227Y668200D01*
X688318*
X688591Y668313*
X688591D02*
X688773Y668538D01*
X688773D02*
X688864Y668875D01*
Y668988*
X688864D02*
X688773Y669325D01*
X688591Y669550*
X688318Y669663*
X688318D02*
X688227D01*
X688227D02*
X687955Y669550D01*
X687773Y669325*
X687682Y668988*
X663462Y659454D02*
X663371Y659679D01*
X663190Y659904*
X663008Y660016*
X662644*
X662462Y659904*
X662280Y659679*
X662190Y659454*
X662099Y659116*
Y658554*
X662190Y658216*
X662280Y657991*
X662462Y657766*
X662644Y657654*
X663008*
X663190Y657766*
X663371Y657991*
X663462Y658216*
X665462Y659229D02*
X665371Y658891D01*
X665190Y658666*
X664917Y658554*
X664826*
X664553Y658666*
X664371Y658891*
X664280Y659229*
Y659341*
X664371Y659679*
X664553Y659904*
X664826Y660016*
X664917*
X665190Y659904*
X665371Y659679*
X665462Y659229*
Y658666*
X665371Y658104*
X665190Y657766*
X664917Y657654*
X664735*
X664462Y657766*
X664371Y657991*
X634099Y650216D02*
Y647854D01*
Y650216D02*
X634917D01*
X635190Y650104*
X635280Y649991*
X635371Y649766*
Y649541*
X635280Y649316*
X635190Y649204*
X634917Y649091*
X634099*
X634735D02*
X635371Y647854D01*
X636280Y649654D02*
Y649766D01*
X636371Y649991*
X636462Y650104*
X636644Y650216*
X637008*
X637190Y650104*
X637280Y649991*
X637371Y649766*
Y649541*
X637280Y649316*
X637099Y648979*
X636190Y647854*
X637462*
X639371Y649879D02*
X639280Y650104D01*
X639008Y650216*
X638826*
X638553Y650104*
X638371Y649766*
X638280Y649204*
Y648641*
X638371Y648191*
X638553Y647966*
X638826Y647854*
X638917*
X639190Y647966*
X639371Y648191*
X639462Y648529*
Y648641*
X639371Y648979*
X639190Y649204*
X638917Y649316*
X638826*
X638553Y649204*
X638371Y648979*
X638280Y648641*
X622462Y651400D02*
X620100D01*
X622462D02*
Y650582D01*
X622350Y650309*
X622237Y650218*
X622012Y650127*
X621787*
X621562Y650218*
X621450Y650309*
X621337Y650582*
Y651400*
Y650764D02*
X620100Y650127D01*
X622462Y648127D02*
Y649036D01*
X621450Y649127*
X621562Y649036*
X621675Y648764*
Y648491*
X621562Y648218*
X621337Y648036*
X621000Y647945*
X620775Y648036*
X620437Y648127*
X620212Y648309*
X620100Y648582*
Y648855*
X620212Y649127*
X620325Y649218*
X620550Y649309*
X622462Y646218D02*
X620887Y647127D01*
Y645764*
X622462Y646218D02*
X620100D01*
X702462Y694454D02*
X702371Y694679D01*
X702190Y694904*
X702008Y695016*
X701644*
X701462Y694904*
X701280Y694679*
X701190Y694454*
X701099Y694116*
Y693554*
X701190Y693216*
X701280Y692991*
X701462Y692766*
X701644Y692654*
X702008*
X702190Y692766*
X702371Y692991*
X702462Y693216*
X703280Y695016D02*
Y692654D01*
Y695016D02*
X704099D01*
X704371Y694904*
X704462Y694791*
X704553Y694566*
Y694341*
X704462Y694116*
X704371Y694004*
X704099Y693891*
X703280D02*
X704099D01*
X704371Y693779*
X704462Y693666*
X704553Y693441*
Y693104*
X704462Y692879*
X704371Y692766*
X704099Y692654*
X703280*
X705371Y694566D02*
X705553Y694679D01*
X705826Y695016*
Y692654*
X706735Y694454D02*
Y694566D01*
X706826Y694791*
X706917Y694904*
X707099Y695016*
X707462*
X707644Y694904*
X707735Y694791*
X707826Y694566*
Y694341*
X707735Y694116*
X707553Y693779*
X706644Y692654*
X707917*
X685899Y759890D02*
X686124Y759981D01*
X686349Y760163*
X686461Y760345*
Y760708*
X686349Y760890*
X686124Y761072*
X685899Y761163*
X685561Y761254*
X684999*
X684661Y761163*
X684436Y761072*
X684211Y760890*
X684099Y760708*
Y760345*
X684211Y760163*
X684436Y759981*
X684661Y759890*
X686461Y759072D02*
X684099D01*
X686461D02*
Y758254D01*
X686349Y757981*
X686236Y757890*
X686011Y757799*
X685786*
X685561Y757890*
X685449Y757981*
X685336Y758254*
Y759072D02*
Y758254D01*
X685224Y757981*
X685111Y757890*
X684886Y757799*
X684549*
X684324Y757890*
X684211Y757981*
X684099Y758254*
Y759072*
X686461Y756072D02*
X684886Y756981D01*
Y755617*
X686461Y756072D02*
X684099D01*
X686011Y754799D02*
X686124Y754617D01*
X686461Y754345*
X684099*
X666462Y758454D02*
X666371Y758679D01*
X666190Y758904*
X666008Y759016*
X665644*
X665462Y758904*
X665280Y758679*
X665190Y758454*
X665099Y758116*
Y757554*
X665190Y757216*
X665280Y756991*
X665462Y756766*
X665644Y756654*
X666008*
X666190Y756766*
X666371Y756991*
X666462Y757216*
X667280Y759016D02*
Y756654D01*
Y759016D02*
X668099D01*
X668371Y758904*
X668462Y758791*
X668553Y758566*
Y758341*
X668462Y758116*
X668371Y758004*
X668099Y757891*
X667280D02*
X668099D01*
X668371Y757779*
X668462Y757666*
X668553Y757441*
Y757104*
X668462Y756879*
X668371Y756766*
X668099Y756654*
X667280*
X669553Y759016D02*
X670553D01*
X670008Y758116*
X670280*
X670462Y758004*
X670553Y757891*
X670644Y757554*
Y757329*
X670553Y756991*
X670371Y756766*
X670099Y756654*
X669826*
X669553Y756766*
X669462Y756879*
X669371Y757104*
X671917Y759016D02*
X671644Y758904D01*
X671553Y758679*
Y758454*
X671644Y758229*
X671826Y758116*
X672190Y758004*
X672462Y757891*
X672644Y757666*
X672735Y757441*
Y757104*
X672644Y756879*
X672553Y756766*
X672280Y756654*
X671917*
X671644Y756766*
X671553Y756879*
X671462Y757104*
Y757441*
X671553Y757666*
X671735Y757891*
X672008Y758004*
X672371Y758116*
X672553Y758229*
X672644Y758454*
Y758679*
X672553Y758904*
X672280Y759016*
X671917*
X671500Y732836D02*
X671725Y732927D01*
X671950Y733109*
X672063Y733291*
X672063D02*
Y733655D01*
X672063D02*
X671950Y733836D01*
X671725Y734018*
X671500Y734109*
X671163Y734200*
X671163D02*
X670600D01*
X670263Y734109*
X670263D02*
X670038Y734018D01*
X670038D02*
X669813Y733836D01*
X669813D02*
X669700Y733655D01*
Y733291*
X669813Y733109*
X669813D02*
X670038Y732927D01*
X670038D02*
X670263Y732836D01*
X672063Y731836D02*
Y730836D01*
X672063D02*
X671163Y731382D01*
X671163D02*
Y731109D01*
X671163D02*
X671050Y730927D01*
X670938Y730836*
X670938D02*
X670600Y730745D01*
X670375*
X670038Y730836*
X670038D02*
X669813Y731018D01*
X669813D02*
X669700Y731291D01*
Y731564*
X669813Y731836*
X669813D02*
X669925Y731927D01*
X670150Y732018*
X672063Y729018D02*
X670488Y729927D01*
X670488D02*
Y728564D01*
X672063Y729018D02*
X669700D01*
X663399Y733090D02*
X663624Y733181D01*
X663849Y733363*
X663961Y733545*
Y733908*
X663849Y734090*
X663624Y734272*
X663399Y734363*
X663061Y734454*
X662499*
X662161Y734363*
X661936Y734272*
X661711Y734090*
X661599Y733908*
Y733545*
X661711Y733363*
X661936Y733181*
X662161Y733090*
X663961Y732090D02*
Y731090D01*
X663061Y731636*
Y731363*
X662949Y731181*
X662836Y731090*
X662499Y730999*
X662274*
X661936Y731090*
X661711Y731272*
X661599Y731545*
Y731817*
X661711Y732090*
X661824Y732181*
X662049Y732272*
X663961Y729999D02*
Y728999D01*
X663061Y729545*
Y729272*
X662949Y729090*
X662836Y728999*
X662499Y728908*
X662274*
X661936Y728999*
X661711Y729181*
X661599Y729454*
Y729726*
X661711Y729999*
X661824Y730090*
X662049Y730181*
X646899Y756890D02*
X647124Y756981D01*
X647349Y757163*
X647461Y757345*
Y757708*
X647349Y757890*
X647124Y758072*
X646899Y758163*
X646561Y758254*
X645999*
X645661Y758163*
X645436Y758072*
X645211Y757890*
X645099Y757708*
Y757345*
X645211Y757163*
X645436Y756981*
X645661Y756890*
X647461Y756072D02*
X645099D01*
X647461D02*
Y755254D01*
X647349Y754981*
X647236Y754890*
X647011Y754799*
X646786*
X646561Y754890*
X646449Y754981*
X646336Y755254*
Y756072D02*
Y755254D01*
X646224Y754981*
X646111Y754890*
X645886Y754799*
X645549*
X645324Y754890*
X645211Y754981*
X645099Y755254*
Y756072*
X647461Y753799D02*
Y752799D01*
X646561Y753345*
Y753072*
X646449Y752890*
X646336Y752799*
X645999Y752708*
X645774*
X645436Y752799*
X645211Y752981*
X645099Y753254*
Y753526*
X645211Y753799*
X645324Y753890*
X645549Y753981*
X647461Y751345D02*
X647349Y751617D01*
X647011Y751799*
X646449Y751890*
X646111*
X645549Y751799*
X645211Y751617*
X645099Y751345*
Y751163*
X645211Y750890*
X645549Y750708*
X646111Y750617*
X646449*
X647011Y750708*
X647349Y750890*
X647461Y751163*
Y751345*
X663462Y690454D02*
X663371Y690679D01*
X663190Y690904*
X663008Y691016*
X662644*
X662462Y690904*
X662280Y690679*
X662190Y690454*
X662099Y690116*
Y689554*
X662190Y689216*
X662280Y688991*
X662462Y688766*
X662644Y688654*
X663008*
X663190Y688766*
X663371Y688991*
X663462Y689216*
X664280Y690566D02*
X664462Y690679D01*
X664735Y691016*
Y688654*
X665735Y691016D02*
X666735D01*
X666190Y690116*
X666462*
X666644Y690004*
X666735Y689891*
X666826Y689554*
Y689329*
X666735Y688991*
X666553Y688766*
X666280Y688654*
X666008*
X665735Y688766*
X665644Y688879*
X665553Y689104*
X686564Y672700D02*
X686473Y672925D01*
X686291Y673150*
X686109Y673263*
X686109D02*
X685745D01*
X685745D02*
X685564Y673150D01*
X685382Y672925*
X685291Y672700*
X685200Y672363*
X685200D02*
Y671800D01*
X685291Y671463*
X685291D02*
X685382Y671238D01*
X685382D02*
X685564Y671013D01*
X685564D02*
X685745Y670900D01*
X686109*
X686291Y671013*
X686291D02*
X686473Y671238D01*
X686473D02*
X686564Y671463D01*
X687382Y673263D02*
Y670900D01*
Y673263D02*
X688200D01*
X688200D02*
X688473Y673150D01*
X688564Y673038*
X688564D02*
X688655Y672813D01*
X688655D02*
Y672588D01*
X688655D02*
X688564Y672363D01*
X688564D02*
X688473Y672250D01*
X688200Y672138*
X687382D02*
X688200D01*
X688200D02*
X688473Y672025D01*
X688564Y671913*
X688564D02*
X688655Y671688D01*
X688655D02*
Y671350D01*
X688564Y671125*
X688473Y671013*
X688473D02*
X688200Y670900D01*
X687382*
X689473Y672813D02*
X689655Y672925D01*
X689927Y673263*
X689927D02*
Y670900D01*
X691927Y673263D02*
X691018D01*
X691018D02*
X690927Y672250D01*
X691018Y672363*
X691018D02*
X691291Y672475D01*
X691564*
X691836Y672363*
X691836D02*
X692018Y672138D01*
X692018D02*
X692109Y671800D01*
X692018Y671575*
X691927Y671238*
X691927D02*
X691745Y671013D01*
X691745D02*
X691473Y670900D01*
X691200*
X690927Y671013*
X690927D02*
X690836Y671125D01*
X690745Y671350*
X632363Y766400D02*
X630000D01*
Y765309*
X632363Y764491D02*
X630000D01*
X632363D02*
Y763309D01*
X631238Y764491D02*
Y763764D01*
X630000Y764491D02*
Y763309D01*
X632363Y762491D02*
X630000D01*
X632363D02*
Y761855D01*
X632363D02*
X632250Y761582D01*
X632025Y761400*
X631800Y761309*
X631463Y761218*
X631463D02*
X630900D01*
X630563Y761309*
X630563D02*
X630338Y761400D01*
X630338D02*
X630113Y761582D01*
X630113D02*
X630000Y761855D01*
Y762491*
X632363Y760218D02*
Y759218D01*
X632363D02*
X631463Y759764D01*
X631463D02*
Y759491D01*
X631463D02*
X631350Y759309D01*
X631238Y759218*
X631238D02*
X630900Y759127D01*
X630675*
X630338Y759218*
X630338D02*
X630113Y759400D01*
X630113D02*
X630000Y759673D01*
Y759945*
X630113Y760218*
X630113D02*
X630225Y760309D01*
X630450Y760400*
X698562Y685579D02*
X698471Y685804D01*
X698290Y686029*
X698108Y686141*
X697744*
X697562Y686029*
X697380Y685804*
X697290Y685579*
X697199Y685241*
Y684679*
X697290Y684341*
X697380Y684116*
X697562Y683891*
X697744Y683779*
X698108*
X698290Y683891*
X698471Y684116*
X698562Y684341*
X699471Y685579D02*
Y685691D01*
X699562Y685916*
X699653Y686029*
X699835Y686141*
X700199*
X700380Y686029*
X700471Y685916*
X700562Y685691*
Y685466*
X700471Y685241*
X700290Y684904*
X699380Y683779*
X700653*
X693564Y668400D02*
X693473Y668625D01*
X693291Y668850*
X693109Y668963*
X693109D02*
X692745D01*
X692745D02*
X692564Y668850D01*
X692382Y668625*
X692291Y668400*
X692200Y668063*
X692200D02*
Y667500D01*
X692291Y667163*
X692291D02*
X692382Y666938D01*
X692382D02*
X692564Y666713D01*
X692564D02*
X692745Y666600D01*
X693109*
X693291Y666713*
X693291D02*
X693473Y666938D01*
X693473D02*
X693564Y667163D01*
X694382Y668963D02*
Y666600D01*
Y668963D02*
X695200D01*
X695200D02*
X695473Y668850D01*
X695564Y668738*
X695564D02*
X695655Y668513D01*
X695655D02*
Y668288D01*
X695655D02*
X695564Y668063D01*
X695564D02*
X695473Y667950D01*
X695200Y667838*
X694382D02*
X695200D01*
X695200D02*
X695473Y667725D01*
X695564Y667613*
X695564D02*
X695655Y667388D01*
X695655D02*
Y667050D01*
X695564Y666825*
X695473Y666713*
X695473D02*
X695200Y666600D01*
X694382*
X696473Y668513D02*
X696655Y668625D01*
X696927Y668963*
X696927D02*
Y666600D01*
X698836Y668625D02*
X698745Y668850D01*
X698473Y668963*
X698473D02*
X698291D01*
X698291D02*
X698018Y668850D01*
X697836Y668513*
X697836D02*
X697745Y667950D01*
Y667388*
X697745D02*
X697836Y666938D01*
X697836D02*
X698018Y666713D01*
X698018D02*
X698291Y666600D01*
X698382*
X698655Y666713*
X698655D02*
X698836Y666938D01*
X698836D02*
X698927Y667275D01*
Y667388*
X698927D02*
X698836Y667725D01*
X698655Y667950*
X698382Y668063*
X698382D02*
X698291D01*
X698291D02*
X698018Y667950D01*
X697836Y667725*
X697745Y667388*
X704599Y662790D02*
X704824Y662881D01*
X705049Y663063*
X705161Y663245*
Y663608*
X705049Y663790*
X704824Y663972*
X704599Y664063*
X704261Y664154*
X703699*
X703361Y664063*
X703136Y663972*
X702911Y663790*
X702799Y663608*
Y663245*
X702911Y663063*
X703136Y662881*
X703361Y662790*
X704711Y661972D02*
X704824Y661790D01*
X705161Y661517*
X702799*
X704599Y660608D02*
X704711D01*
X704936Y660517*
X705049Y660426*
X705161Y660245*
Y659881*
X705049Y659699*
X704936Y659608*
X704711Y659517*
X704486*
X704261Y659608*
X703924Y659790*
X702799Y660699*
Y659426*
X663099Y791016D02*
Y788654D01*
Y791016D02*
X663735D01*
X664008Y790904*
X664190Y790679*
X664280Y790454*
X664371Y790116*
Y789554*
X664280Y789216*
X664190Y788991*
X664008Y788766*
X663735Y788654*
X663099*
X665371Y791016D02*
X666371D01*
X665826Y790116*
X666099*
X666280Y790004*
X666371Y789891*
X666462Y789554*
Y789329*
X666371Y788991*
X666190Y788766*
X665917Y788654*
X665644*
X665371Y788766*
X665280Y788879*
X665190Y789104*
X644099Y772016D02*
Y769654D01*
Y772016D02*
X645280D01*
X644099Y770891D02*
X644826D01*
X646099Y772016D02*
Y769654D01*
Y772016D02*
X646917D01*
X647190Y771904*
X647280Y771791*
X647371Y771566*
Y771341*
X647280Y771116*
X647190Y771004*
X646917Y770891*
X646099D02*
X646917D01*
X647190Y770779*
X647280Y770666*
X647371Y770441*
Y770104*
X647280Y769879*
X647190Y769766*
X646917Y769654*
X646099*
X649099Y772016D02*
X648190Y770441D01*
X649553*
X649099Y772016D02*
Y769654D01*
X673162Y804754D02*
X673071Y804979D01*
X672890Y805204*
X672708Y805316*
X672344*
X672162Y805204*
X671980Y804979*
X671890Y804754*
X671799Y804416*
Y803854*
X671890Y803516*
X671980Y803291*
X672162Y803066*
X672344Y802954*
X672708*
X672890Y803066*
X673071Y803291*
X673162Y803516*
X674162Y805316D02*
X675162D01*
X674617Y804416*
X674890*
X675071Y804304*
X675162Y804191*
X675253Y803854*
Y803629*
X675162Y803291*
X674980Y803066*
X674708Y802954*
X674435*
X674162Y803066*
X674071Y803179*
X673980Y803404*
X677162Y804979D02*
X677071Y805204D01*
X676799Y805316*
X676617*
X676344Y805204*
X676162Y804866*
X676071Y804304*
Y803741*
X676162Y803291*
X676344Y803066*
X676617Y802954*
X676708*
X676980Y803066*
X677162Y803291*
X677253Y803629*
Y803741*
X677162Y804079*
X676980Y804304*
X676708Y804416*
X676617*
X676344Y804304*
X676162Y804079*
X676071Y803741*
X663462Y693454D02*
X663371Y693679D01*
X663190Y693904*
X663008Y694016*
X662644*
X662462Y693904*
X662280Y693679*
X662190Y693454*
X662099Y693116*
Y692554*
X662190Y692216*
X662280Y691991*
X662462Y691766*
X662644Y691654*
X663008*
X663190Y691766*
X663371Y691991*
X663462Y692216*
X664280Y694016D02*
Y691654D01*
Y694016D02*
X665099D01*
X665371Y693904*
X665462Y693791*
X665553Y693566*
Y693341*
X665462Y693116*
X665371Y693004*
X665099Y692891*
X664280D02*
X665099D01*
X665371Y692779*
X665462Y692666*
X665553Y692441*
Y692104*
X665462Y691879*
X665371Y691766*
X665099Y691654*
X664280*
X666371Y693566D02*
X666553Y693679D01*
X666826Y694016*
Y691654*
X668099Y694016D02*
X667826Y693904D01*
X667735Y693679*
Y693454*
X667826Y693229*
X668008Y693116*
X668371Y693004*
X668644Y692891*
X668826Y692666*
X668917Y692441*
Y692104*
X668826Y691879*
X668735Y691766*
X668462Y691654*
X668099*
X667826Y691766*
X667735Y691879*
X667644Y692104*
Y692441*
X667735Y692666*
X667917Y692891*
X668190Y693004*
X668553Y693116*
X668735Y693229*
X668826Y693454*
Y693679*
X668735Y693904*
X668462Y694016*
X668099*
X656064Y673700D02*
X655973Y673925D01*
X655791Y674150*
X655609Y674263*
X655609D02*
X655245D01*
X655245D02*
X655064Y674150D01*
X654882Y673925*
X654791Y673700*
X654700Y673363*
X654700D02*
Y672800D01*
X654791Y672463*
X654791D02*
X654882Y672238D01*
X654882D02*
X655064Y672013D01*
X655064D02*
X655245Y671900D01*
X655609*
X655791Y672013*
X655791D02*
X655973Y672238D01*
X655973D02*
X656064Y672463D01*
X656882Y673813D02*
X657064Y673925D01*
X657336Y674263*
X657336D02*
Y671900D01*
X659245Y673925D02*
X659155Y674150D01*
X658882Y674263*
X658882D02*
X658700D01*
X658700D02*
X658427Y674150D01*
X658245Y673813*
X658245D02*
X658155Y673250D01*
Y672688*
X658155D02*
X658245Y672238D01*
X658245D02*
X658427Y672013D01*
X658427D02*
X658700Y671900D01*
X658791*
X659064Y672013*
X659064D02*
X659245Y672238D01*
X659245D02*
X659336Y672575D01*
Y672688*
X659336D02*
X659245Y673025D01*
X659064Y673250*
X658791Y673363*
X658791D02*
X658700D01*
X658700D02*
X658427Y673250D01*
X658245Y673025*
X658155Y672688*
X671100Y674163D02*
Y671800D01*
Y674163D02*
X671918D01*
X671918D02*
X672191Y674050D01*
X672282Y673938*
X672282D02*
X672373Y673713D01*
X672373D02*
Y673488D01*
X672373D02*
X672282Y673263D01*
X672282D02*
X672191Y673150D01*
X671918Y673038*
X671918D02*
X671100D01*
X671736D02*
X672373Y671800D01*
X673191Y673713D02*
X673373Y673825D01*
X673645Y674163*
X673645D02*
Y671800D01*
X675555Y673825D02*
X675464Y674050D01*
X675191Y674163*
X675191D02*
X675009D01*
X675009D02*
X674736Y674050D01*
X674555Y673713*
X674555D02*
X674464Y673150D01*
Y672588*
X674464D02*
X674555Y672138D01*
X674555D02*
X674736Y671913D01*
X674736D02*
X675009Y671800D01*
X675100*
X675373Y671913*
X675373D02*
X675555Y672138D01*
X675555D02*
X675645Y672475D01*
Y672588*
X675645D02*
X675555Y672925D01*
X675373Y673150*
X675100Y673263*
X675100D02*
X675009D01*
X675009D02*
X674736Y673150D01*
X674555Y672925*
X674464Y672588*
X663462Y696454D02*
X663371Y696679D01*
X663190Y696904*
X663008Y697016*
X662644*
X662462Y696904*
X662280Y696679*
X662190Y696454*
X662099Y696116*
Y695554*
X662190Y695216*
X662280Y694991*
X662462Y694766*
X662644Y694654*
X663008*
X663190Y694766*
X663371Y694991*
X663462Y695216*
X664280Y697016D02*
Y694654D01*
Y697016D02*
X665099D01*
X665371Y696904*
X665462Y696791*
X665553Y696566*
Y696341*
X665462Y696116*
X665371Y696004*
X665099Y695891*
X664280D02*
X665099D01*
X665371Y695779*
X665462Y695666*
X665553Y695441*
Y695104*
X665462Y694879*
X665371Y694766*
X665099Y694654*
X664280*
X666371Y696566D02*
X666553Y696679D01*
X666826Y697016*
Y694654*
X702462Y690454D02*
X702371Y690679D01*
X702190Y690904*
X702008Y691016*
X701644*
X701462Y690904*
X701280Y690679*
X701190Y690454*
X701099Y690116*
Y689554*
X701190Y689216*
X701280Y688991*
X701462Y688766*
X701644Y688654*
X702008*
X702190Y688766*
X702371Y688991*
X702462Y689216*
X703280Y691016D02*
Y688654D01*
Y691016D02*
X704099D01*
X704371Y690904*
X704462Y690791*
X704553Y690566*
Y690341*
X704462Y690116*
X704371Y690004*
X704099Y689891*
X703280D02*
X704099D01*
X704371Y689779*
X704462Y689666*
X704553Y689441*
Y689104*
X704462Y688879*
X704371Y688766*
X704099Y688654*
X703280*
X705826Y691016D02*
X705553Y690904D01*
X705462Y690679*
Y690454*
X705553Y690229*
X705735Y690116*
X706099Y690004*
X706371Y689891*
X706553Y689666*
X706644Y689441*
Y689104*
X706553Y688879*
X706462Y688766*
X706190Y688654*
X705826*
X705553Y688766*
X705462Y688879*
X705371Y689104*
Y689441*
X705462Y689666*
X705644Y689891*
X705917Y690004*
X706280Y690116*
X706462Y690229*
X706553Y690454*
Y690679*
X706462Y690904*
X706190Y691016*
X705826*
X704000Y718736D02*
X704225Y718827D01*
X704450Y719009*
X704563Y719191*
X704563D02*
Y719555D01*
X704563D02*
X704450Y719736D01*
X704225Y719918*
X704000Y720009*
X703663Y720100*
X703663D02*
X703100D01*
X702763Y720009*
X702763D02*
X702538Y719918D01*
X702538D02*
X702313Y719736D01*
X702313D02*
X702200Y719555D01*
Y719191*
X702313Y719009*
X702313D02*
X702538Y718827D01*
X702538D02*
X702763Y718736D01*
X704563Y717009D02*
X702988Y717918D01*
X702988D02*
Y716555D01*
X704563Y717009D02*
X702200D01*
X689900Y718536D02*
X690125Y718627D01*
X690350Y718809*
X690463Y718991*
X690463D02*
Y719355D01*
X690463D02*
X690350Y719536D01*
X690125Y719718*
X689900Y719809*
X689563Y719900*
X689563D02*
X689000D01*
X688663Y719809*
X688663D02*
X688438Y719718D01*
X688438D02*
X688213Y719536D01*
X688213D02*
X688100Y719355D01*
Y718991*
X688213Y718809*
X688213D02*
X688438Y718627D01*
X688438D02*
X688663Y718536D01*
X690463Y717536D02*
Y716536D01*
X690463D02*
X689563Y717082D01*
X689563D02*
Y716809D01*
X689563D02*
X689450Y716627D01*
X689338Y716536*
X689338D02*
X689000Y716445D01*
X688775*
X688438Y716536*
X688438D02*
X688213Y716718D01*
X688213D02*
X688100Y716991D01*
Y717264*
X688213Y717536*
X688213D02*
X688325Y717627D01*
X688550Y717718*
X698462Y682454D02*
X698371Y682679D01*
X698190Y682904*
X698008Y683016*
X697644*
X697462Y682904*
X697280Y682679*
X697190Y682454*
X697099Y682116*
Y681554*
X697190Y681216*
X697280Y680991*
X697462Y680766*
X697644Y680654*
X698008*
X698190Y680766*
X698371Y680991*
X698462Y681216*
X699280Y683016D02*
Y680654D01*
Y683016D02*
X700099D01*
X700371Y682904*
X700462Y682791*
X700553Y682566*
Y682341*
X700462Y682116*
X700371Y682004*
X700099Y681891*
X699280D02*
X700099D01*
X700371Y681779*
X700462Y681666*
X700553Y681441*
Y681104*
X700462Y680879*
X700371Y680766*
X700099Y680654*
X699280*
X701371Y682566D02*
X701553Y682679D01*
X701826Y683016*
Y680654*
X703190Y683016D02*
X702917Y682904D01*
X702735Y682566*
X702644Y682004*
Y681666*
X702735Y681104*
X702917Y680766*
X703190Y680654*
X703371*
X703644Y680766*
X703826Y681104*
X703917Y681666*
Y682004*
X703826Y682566*
X703644Y682904*
X703371Y683016*
X703190*
X619263Y651300D02*
X616900D01*
X619263D02*
Y650482D01*
X619150Y650209*
X619038Y650118*
X618813Y650027*
X618588*
X618363Y650118*
X618250Y650209*
X618138Y650482*
Y651300*
Y650664D02*
X616900Y650027D01*
X619263Y648027D02*
Y648936D01*
X618250Y649027*
X618363Y648936*
X618475Y648664*
Y648391*
X618363Y648118*
X618138Y647936*
X617800Y647845*
X617575Y647936*
X617238Y648027*
X617013Y648209*
X616900Y648482*
Y648755*
X617013Y649027*
X617125Y649118*
X617350Y649209*
X618700Y646936D02*
X618813D01*
X619038Y646845*
X619150Y646755*
X619263Y646573*
Y646209*
X619150Y646027*
X619038Y645936*
X618813Y645845*
X618588*
X618363Y645936*
X618025Y646118*
X616900Y647027*
Y645755*
X642463Y671264D02*
X640100D01*
X642463Y671900D02*
Y670627D01*
Y669809D02*
X640100D01*
X642463D02*
Y668991D01*
X642463D02*
X642350Y668718D01*
X642238Y668627*
X642238D02*
X642013Y668536D01*
X642013D02*
X641675D01*
X641450Y668627*
X641338Y668718*
X641338D02*
X641225Y668991D01*
Y669809*
X642013Y667718D02*
X642125Y667536D01*
X642463Y667264*
X642463D02*
X640100D01*
X642125Y665355D02*
X642350Y665445D01*
X642463Y665718*
X642463D02*
Y665900D01*
X642463D02*
X642350Y666173D01*
X642013Y666355*
X642013D02*
X641450Y666445D01*
X640888*
X640888D02*
X640438Y666355D01*
X640438D02*
X640213Y666173D01*
X640213D02*
X640100Y665900D01*
Y665809*
X640213Y665536*
X640213D02*
X640438Y665355D01*
X640438D02*
X640775Y665264D01*
X640888*
X640888D02*
X641225Y665355D01*
X641450Y665536*
X641563Y665809*
X641563D02*
Y665900D01*
X641563D02*
X641450Y666173D01*
X641225Y666355*
X640888Y666445*
X686564Y675700D02*
X686473Y675925D01*
X686291Y676150*
X686109Y676263*
X686109D02*
X685745D01*
X685745D02*
X685564Y676150D01*
X685382Y675925*
X685291Y675700*
X685200Y675363*
X685200D02*
Y674800D01*
X685291Y674463*
X685291D02*
X685382Y674238D01*
X685382D02*
X685564Y674013D01*
X685564D02*
X685745Y673900D01*
X686109*
X686291Y674013*
X686291D02*
X686473Y674238D01*
X686473D02*
X686564Y674463D01*
X687382Y676263D02*
Y673900D01*
Y676263D02*
X688200D01*
X688200D02*
X688473Y676150D01*
X688564Y676038*
X688564D02*
X688655Y675813D01*
X688655D02*
Y675588D01*
X688655D02*
X688564Y675363D01*
X688564D02*
X688473Y675250D01*
X688200Y675138*
X687382D02*
X688200D01*
X688200D02*
X688473Y675025D01*
X688564Y674913*
X688564D02*
X688655Y674688D01*
X688655D02*
Y674350D01*
X688564Y674125*
X688473Y674013*
X688473D02*
X688200Y673900D01*
X687382*
X690655Y675475D02*
X690564Y675138D01*
X690564D02*
X690382Y674913D01*
X690382D02*
X690109Y674800D01*
X690018*
X689745Y674913*
X689745D02*
X689564Y675138D01*
X689564D02*
X689473Y675475D01*
Y675588*
X689473D02*
X689564Y675925D01*
X689745Y676150*
X690018Y676263*
X690018D02*
X690109D01*
X690109D02*
X690382Y676150D01*
X690564Y675925*
X690655Y675475*
Y674913*
X690655D02*
X690564Y674350D01*
X690382Y674013*
X690382D02*
X690109Y673900D01*
X689927*
X689655Y674013*
X689655D02*
X689564Y674238D01*
X682263Y640600D02*
X679900D01*
X682263D02*
Y639782D01*
X682150Y639509*
X682038Y639418*
X681813Y639327*
X681588*
X681363Y639418*
X681250Y639509*
X681138Y639782*
Y640600*
Y639964D02*
X679900Y639327D01*
X681813Y638509D02*
X681925Y638327D01*
X682263Y638055*
X679900*
X682263Y636055D02*
Y636964D01*
X681250Y637055*
X681363Y636964*
X681475Y636691*
Y636418*
X681363Y636145*
X681138Y635964*
X680800Y635873*
X680575Y635964*
X680238Y636055*
X680013Y636236*
X679900Y636509*
Y636782*
X680013Y637055*
X680125Y637145*
X680350Y637236*
X705261Y658354D02*
X702899D01*
X705261D02*
Y657536D01*
X705149Y657263*
X705036Y657172*
X704811Y657081*
X704586*
X704361Y657172*
X704249Y657263*
X704136Y657536*
Y658354*
Y657717D02*
X702899Y657081D01*
X704811Y656263D02*
X704924Y656081D01*
X705261Y655808*
X702899*
X705261Y654808D02*
Y653808D01*
X704361Y654354*
Y654081*
X704249Y653899*
X704136Y653808*
X703799Y653717*
X703574*
X703236Y653808*
X703011Y653990*
X702899Y654263*
Y654536*
X703011Y654808*
X703124Y654899*
X703349Y654990*
X677664Y658600D02*
X677573Y658825D01*
X677391Y659050*
X677209Y659162*
X677209D02*
X676845D01*
X676845D02*
X676664Y659050D01*
X676482Y658825*
X676391Y658600*
X676300Y658262*
X676300D02*
Y657700D01*
X676391Y657362*
X676391D02*
X676482Y657137D01*
X676482D02*
X676664Y656912D01*
X676664D02*
X676845Y656800D01*
X677209*
X677391Y656912*
X677391D02*
X677573Y657137D01*
X677573D02*
X677664Y657362D01*
X679755Y659162D02*
X678845Y656800D01*
X678482Y659162D02*
X679755D01*
X651363Y673600D02*
X649000D01*
X651363D02*
Y672782D01*
X651363D02*
X651250Y672509D01*
X651138Y672418*
X651138D02*
X650913Y672327D01*
X650913D02*
X650688D01*
X650688D02*
X650463Y672418D01*
X650463D02*
X650350Y672509D01*
X650238Y672782*
X650238D02*
Y673600D01*
Y672964D02*
X649000Y672327D01*
X650800Y671418D02*
X650913D01*
X650913D02*
X651138Y671327D01*
X651138D02*
X651250Y671236D01*
X651363Y671055*
X651363D02*
Y670691D01*
X651363D02*
X651250Y670509D01*
X651138Y670418*
X651138D02*
X650913Y670327D01*
X650913D02*
X650688D01*
X650688D02*
X650463Y670418D01*
X650463D02*
X650125Y670600D01*
X649000Y671509*
Y670236*
X651363Y668873D02*
X651250Y669145D01*
X650913Y669327*
X650913D02*
X650350Y669418D01*
X650013*
X650013D02*
X649450Y669327D01*
X649113Y669145*
X649113D02*
X649000Y668873D01*
Y668691*
X649113Y668418*
X649113D02*
X649450Y668236D01*
X650013Y668145*
X650013D02*
X650350D01*
X650913Y668236*
X650913D02*
X651250Y668418D01*
X651363Y668691*
X651363D02*
Y668873D01*
X668099Y660016D02*
Y657654D01*
Y660016D02*
X668917D01*
X669190Y659904*
X669280Y659791*
X669371Y659566*
Y659341*
X669280Y659116*
X669190Y659004*
X668917Y658891*
X668099*
X668735D02*
X669371Y657654D01*
X670190Y659566D02*
X670371Y659679D01*
X670644Y660016*
Y657654*
X671553Y659454D02*
Y659566D01*
X671644Y659791*
X671735Y659904*
X671917Y660016*
X672280*
X672462Y659904*
X672553Y659791*
X672644Y659566*
Y659341*
X672553Y659116*
X672371Y658779*
X671462Y657654*
X672735*
X619600Y645163D02*
Y642800D01*
X620691*
X622418Y645163D02*
X621509Y643588D01*
X621509D02*
X622873D01*
X622418Y645163D02*
Y642800D01*
X652461Y630254D02*
X650099D01*
X652461D02*
Y629436D01*
X652349Y629163*
X652236Y629072*
X652011Y628981*
X651786*
X651561Y629072*
X651449Y629163*
X651336Y629436*
Y630254*
Y629617D02*
X650099Y628981D01*
X652461Y627981D02*
Y626981D01*
X651561Y627526*
Y627254*
X651449Y627072*
X651336Y626981*
X650999Y626890*
X650774*
X650436Y626981*
X650211Y627163*
X650099Y627436*
Y627708*
X650211Y627981*
X650324Y628072*
X650549Y628163*
X652461Y624890D02*
Y625799D01*
X651449Y625890*
X651561Y625799*
X651674Y625526*
Y625254*
X651561Y624981*
X651336Y624799*
X650999Y624708*
X650774Y624799*
X650436Y624890*
X650211Y625072*
X650099Y625345*
Y625617*
X650211Y625890*
X650324Y625981*
X650549Y626072*
X651963Y642400D02*
X649600D01*
X651963D02*
Y641582D01*
X651963D02*
X651850Y641309D01*
X651738Y641218*
X651738D02*
X651513Y641127D01*
X651513D02*
X651288D01*
X651288D02*
X651063Y641218D01*
X651063D02*
X650950Y641309D01*
X650838Y641582*
X650838D02*
Y642400D01*
Y641764D02*
X649600Y641127D01*
X651963Y640127D02*
Y639127D01*
X651963D02*
X651063Y639673D01*
X651063D02*
Y639400D01*
X651063D02*
X650950Y639218D01*
X650838Y639127*
X650838D02*
X650500Y639036D01*
X650275*
X649938Y639127*
X649938D02*
X649713Y639309D01*
X649713D02*
X649600Y639582D01*
Y639855*
X649713Y640127*
X649713D02*
X649825Y640218D01*
X650050Y640309*
X651963Y638036D02*
Y637036D01*
X651963D02*
X651063Y637582D01*
X651063D02*
Y637309D01*
X651063D02*
X650950Y637127D01*
X650838Y637036*
X650838D02*
X650500Y636945D01*
X650275*
X649938Y637036*
X649938D02*
X649713Y637218D01*
X649713D02*
X649600Y637491D01*
Y637764*
X649713Y638036*
X649713D02*
X649825Y638127D01*
X650050Y638218*
X639563Y646500D02*
X637200D01*
X639563D02*
Y645682D01*
X639563D02*
X639450Y645409D01*
X639338Y645318*
X639338D02*
X639113Y645227D01*
X639113D02*
X638888D01*
X638888D02*
X638663Y645318D01*
X638663D02*
X638550Y645409D01*
X638438Y645682*
X638438D02*
Y646500D01*
Y645864D02*
X637200Y645227D01*
X639563Y644227D02*
Y643227D01*
X639563D02*
X638663Y643773D01*
X638663D02*
Y643500D01*
X638663D02*
X638550Y643318D01*
X638438Y643227*
X638438D02*
X638100Y643136D01*
X637875*
X637538Y643227*
X637538D02*
X637313Y643409D01*
X637313D02*
X637200Y643682D01*
Y643955*
X637313Y644227*
X637313D02*
X637425Y644318D01*
X637650Y644409*
X639000Y642227D02*
X639113D01*
X639113D02*
X639338Y642136D01*
X639338D02*
X639450Y642045D01*
X639563Y641864*
X639563D02*
Y641500D01*
X639563D02*
X639450Y641318D01*
X639338Y641227*
X639338D02*
X639113Y641136D01*
X639113D02*
X638888D01*
X638888D02*
X638663Y641227D01*
X638663D02*
X638325Y641409D01*
X637200Y642318*
Y641045*
X624500Y620463D02*
Y618100D01*
Y620463D02*
X625318D01*
X625318D02*
X625591Y620350D01*
X625682Y620238*
X625682D02*
X625773Y620013D01*
X625773D02*
Y619788D01*
X625773D02*
X625682Y619563D01*
X625682D02*
X625591Y619450D01*
X625318Y619338*
X625318D02*
X624500D01*
X625136D02*
X625773Y618100D01*
X626773Y620463D02*
X627773D01*
X627773D02*
X627227Y619563D01*
X627227D02*
X627500D01*
X627500D02*
X627682Y619450D01*
X627773Y619338*
X627773D02*
X627864Y619000D01*
Y618775*
X627773Y618438*
X627773D02*
X627591Y618213D01*
X627591D02*
X627318Y618100D01*
X627045*
X626773Y618213*
X626773D02*
X626682Y618325D01*
X626591Y618550*
X628682Y620013D02*
X628864Y620125D01*
X629136Y620463*
X629136D02*
Y618100D01*
X641600Y621563D02*
Y619200D01*
Y621563D02*
X642418D01*
X642418D02*
X642691Y621450D01*
X642782Y621338*
X642782D02*
X642873Y621113D01*
X642873D02*
Y620888D01*
X642873D02*
X642782Y620663D01*
X642782D02*
X642691Y620550D01*
X642418Y620438*
X642418D02*
X641600D01*
X642236D02*
X642873Y619200D01*
X643873Y621563D02*
X644873D01*
X644873D02*
X644327Y620663D01*
X644327D02*
X644600D01*
X644600D02*
X644782Y620550D01*
X644873Y620438*
X644873D02*
X644964Y620100D01*
Y619875*
X644873Y619538*
X644873D02*
X644691Y619313D01*
X644691D02*
X644418Y619200D01*
X644145*
X643873Y619313*
X643873D02*
X643782Y619425D01*
X643691Y619650*
X646327Y621563D02*
X646055Y621450D01*
X645873Y621113*
X645873D02*
X645782Y620550D01*
Y620213*
X645782D02*
X645873Y619650D01*
X646055Y619313*
X646055D02*
X646327Y619200D01*
X646509*
X646782Y619313*
X646782D02*
X646964Y619650D01*
X647055Y620213*
X647055D02*
Y620550D01*
X646964Y621113*
X646964D02*
X646782Y621450D01*
X646509Y621563*
X646509D02*
X646327D01*
X617899Y637890D02*
X618124Y637981D01*
X618349Y638163*
X618461Y638345*
Y638708*
X618349Y638890*
X618124Y639072*
X617899Y639163*
X617561Y639254*
X616999*
X616661Y639163*
X616436Y639072*
X616211Y638890*
X616099Y638708*
Y638345*
X616211Y638163*
X616436Y637981*
X616661Y637890*
X618461Y637072D02*
X616099D01*
X618461D02*
Y636254D01*
X618349Y635981*
X618236Y635890*
X618011Y635799*
X617786*
X617561Y635890*
X617449Y635981*
X617336Y636254*
Y637072D02*
Y636254D01*
X617224Y635981*
X617111Y635890*
X616886Y635799*
X616549*
X616324Y635890*
X616211Y635981*
X616099Y636254*
Y637072*
X617899Y634890D02*
X618011D01*
X618236Y634799*
X618349Y634708*
X618461Y634526*
Y634163*
X618349Y633981*
X618236Y633890*
X618011Y633799*
X617786*
X617561Y633890*
X617224Y634072*
X616099Y634981*
Y633708*
X618124Y631799D02*
X618349Y631890D01*
X618461Y632163*
Y632345*
X618349Y632617*
X618011Y632799*
X617449Y632890*
X616886*
X616436Y632799*
X616211Y632617*
X616099Y632345*
Y632254*
X616211Y631981*
X616436Y631799*
X616774Y631708*
X616886*
X617224Y631799*
X617449Y631981*
X617561Y632254*
Y632345*
X617449Y632617*
X617224Y632799*
X616886Y632890*
X685099Y708016D02*
Y705654D01*
Y708016D02*
X685917D01*
X686190Y707904*
X686280Y707791*
X686371Y707566*
Y707341*
X686280Y707116*
X686190Y707004*
X685917Y706891*
X685099*
X685735D02*
X686371Y705654D01*
X687371Y708016D02*
X688371D01*
X687826Y707116*
X688099*
X688280Y707004*
X688371Y706891*
X688462Y706554*
Y706329*
X688371Y705991*
X688190Y705766*
X687917Y705654*
X687644*
X687371Y705766*
X687280Y705879*
X687190Y706104*
X646962Y803954D02*
X646871Y804179D01*
X646690Y804404*
X646508Y804516*
X646144*
X645962Y804404*
X645780Y804179*
X645690Y803954*
X645599Y803616*
Y803054*
X645690Y802716*
X645780Y802491*
X645962Y802266*
X646144Y802154*
X646508*
X646690Y802266*
X646871Y802491*
X646962Y802716*
X647962Y804516D02*
X648962D01*
X648417Y803616*
X648690*
X648871Y803504*
X648962Y803391*
X649053Y803054*
Y802829*
X648962Y802491*
X648780Y802266*
X648508Y802154*
X648235*
X647962Y802266*
X647871Y802379*
X647780Y802604*
X651144Y804516D02*
X650235Y802154D01*
X649871Y804516D02*
X651144D01*
X632462Y815054D02*
X632371Y815279D01*
X632190Y815504*
X632008Y815616*
X631644*
X631462Y815504*
X631280Y815279*
X631190Y815054*
X631099Y814716*
Y814154*
X631190Y813816*
X631280Y813591*
X631462Y813366*
X631644Y813254*
X632008*
X632190Y813366*
X632371Y813591*
X632462Y813816*
X634190Y815616D02*
X633280Y814041D01*
X634644*
X634190Y815616D02*
Y813254D01*
X635553Y815054D02*
Y815166D01*
X635644Y815391*
X635735Y815504*
X635917Y815616*
X636280*
X636462Y815504*
X636553Y815391*
X636644Y815166*
Y814941*
X636553Y814716*
X636371Y814379*
X635462Y813254*
X636735*
X681817Y805835D02*
X682042Y805926D01*
X682267Y806108*
X682380Y806290*
X682380D02*
Y806654D01*
X682380D02*
X682267Y806835D01*
X682042Y807017*
X681817Y807108*
X681480Y807199*
X681480D02*
X680917D01*
X680580Y807108*
X680580D02*
X680355Y807017D01*
X680355D02*
X680130Y806835D01*
X680130D02*
X680017Y806654D01*
Y806290*
X680130Y806108*
X680130D02*
X680355Y805926D01*
X680355D02*
X680580Y805835D01*
X682380Y804108D02*
X680805Y805017D01*
X680805D02*
Y803654D01*
X682380Y804108D02*
X680017D01*
X682380Y801926D02*
X680805Y802835D01*
X680805D02*
Y801472D01*
X682380Y801926D02*
X680017D01*
X687462Y816454D02*
X687371Y816679D01*
X687190Y816904*
X687008Y817016*
X686644*
X686462Y816904*
X686280Y816679*
X686190Y816454*
X686099Y816116*
Y815554*
X686190Y815216*
X686280Y814991*
X686462Y814766*
X686644Y814654*
X687008*
X687190Y814766*
X687371Y814991*
X687462Y815216*
X689190Y817016D02*
X688280Y815441D01*
X689644*
X689190Y817016D02*
Y814654D01*
X691644Y817016D02*
X690735D01*
X690644Y816004*
X690735Y816116*
X691008Y816229*
X691280*
X691553Y816116*
X691735Y815891*
X691826Y815554*
X691735Y815329*
X691644Y814991*
X691462Y814766*
X691190Y814654*
X690917*
X690644Y814766*
X690553Y814879*
X690462Y815104*
X688462Y811454D02*
X688371Y811679D01*
X688190Y811904*
X688008Y812016*
X687644*
X687462Y811904*
X687280Y811679*
X687190Y811454*
X687099Y811116*
Y810554*
X687190Y810216*
X687280Y809991*
X687462Y809766*
X687644Y809654*
X688008*
X688190Y809766*
X688371Y809991*
X688462Y810216*
X690190Y812016D02*
X689280Y810441D01*
X690644*
X690190Y812016D02*
Y809654D01*
X692553Y811679D02*
X692462Y811904D01*
X692190Y812016*
X692008*
X691735Y811904*
X691553Y811566*
X691462Y811004*
Y810441*
X691553Y809991*
X691735Y809766*
X692008Y809654*
X692099*
X692371Y809766*
X692553Y809991*
X692644Y810329*
Y810441*
X692553Y810779*
X692371Y811004*
X692099Y811116*
X692008*
X691735Y811004*
X691553Y810779*
X691462Y810441*
X706056Y805982D02*
X706281Y806073D01*
X706506Y806255*
X706619Y806437*
X706619D02*
Y806801D01*
X706619D02*
X706506Y806982D01*
X706281Y807164*
X706056Y807255*
X705719Y807346*
X705719D02*
X705156D01*
X704819Y807255*
X704819D02*
X704594Y807164D01*
X704594D02*
X704369Y806982D01*
X704369D02*
X704256Y806801D01*
Y806437*
X704369Y806255*
X704369D02*
X704594Y806073D01*
X704594D02*
X704819Y805982D01*
X706619Y804255D02*
X705044Y805164D01*
X705044D02*
Y803801D01*
X706619Y804255D02*
X704256D01*
X706619Y801710D02*
X704256Y802619D01*
X706619Y802982D02*
Y801710D01*
X696462Y797454D02*
X696371Y797679D01*
X696190Y797904*
X696008Y798016*
X695644*
X695462Y797904*
X695280Y797679*
X695190Y797454*
X695099Y797116*
Y796554*
X695190Y796216*
X695280Y795991*
X695462Y795766*
X695644Y795654*
X696008*
X696190Y795766*
X696371Y795991*
X696462Y796216*
X698190Y798016D02*
X697280Y796441D01*
X698644*
X698190Y798016D02*
Y795654D01*
X699917Y798016D02*
X699644Y797904D01*
X699553Y797679*
Y797454*
X699644Y797229*
X699826Y797116*
X700190Y797004*
X700462Y796891*
X700644Y796666*
X700735Y796441*
Y796104*
X700644Y795879*
X700553Y795766*
X700280Y795654*
X699917*
X699644Y795766*
X699553Y795879*
X699462Y796104*
Y796441*
X699553Y796666*
X699735Y796891*
X700008Y797004*
X700371Y797116*
X700553Y797229*
X700644Y797454*
Y797679*
X700553Y797904*
X700280Y798016*
X699917*
X607462Y618454D02*
X607371Y618679D01*
X607190Y618904*
X607008Y619016*
X606644*
X606462Y618904*
X606280Y618679*
X606190Y618454*
X606099Y618116*
Y617554*
X606190Y617216*
X606280Y616991*
X606462Y616766*
X606644Y616654*
X607008*
X607190Y616766*
X607371Y616991*
X607462Y617216*
X609190Y619016D02*
X608280Y617441D01*
X609644*
X609190Y619016D02*
Y616654D01*
X611644Y618229D02*
X611553Y617891D01*
X611371Y617666*
X611099Y617554*
X611008*
X610735Y617666*
X610553Y617891*
X610462Y618229*
Y618341*
X610553Y618679*
X610735Y618904*
X611008Y619016*
X611099*
X611371Y618904*
X611553Y618679*
X611644Y618229*
Y617666*
X611553Y617104*
X611371Y616766*
X611099Y616654*
X610917*
X610644Y616766*
X610553Y616991*
X607264Y604200D02*
X607173Y604425D01*
X606991Y604650*
X606809Y604763*
X606809D02*
X606445D01*
X606445D02*
X606264Y604650D01*
X606082Y604425*
X605991Y604200*
X605900Y603863*
X605900D02*
Y603300D01*
X605991Y602963*
X605991D02*
X606082Y602738D01*
X606082D02*
X606264Y602513D01*
X606264D02*
X606445Y602400D01*
X606809*
X606991Y602513*
X606991D02*
X607173Y602738D01*
X607173D02*
X607264Y602963D01*
X609264Y604763D02*
X608355D01*
X608355D02*
X608264Y603750D01*
X608355Y603863*
X608355D02*
X608627Y603975D01*
X608900*
X609173Y603863*
X609173D02*
X609355Y603638D01*
X609355D02*
X609445Y603300D01*
X609355Y603075*
X609264Y602738*
X609264D02*
X609082Y602513D01*
X609082D02*
X608809Y602400D01*
X608536*
X608264Y602513*
X608264D02*
X608173Y602625D01*
X608082Y602850*
X610809Y604763D02*
X610536Y604650D01*
X610355Y604313*
X610355D02*
X610264Y603750D01*
Y603413*
X610264D02*
X610355Y602850D01*
X610536Y602513*
X610536D02*
X610809Y602400D01*
X610991*
X611264Y602513*
X611264D02*
X611445Y602850D01*
X611536Y603413*
X611536D02*
Y603750D01*
X611445Y604313*
X611445D02*
X611264Y604650D01*
X610991Y604763*
X610991D02*
X610809D01*
X679064Y721700D02*
X678973Y721925D01*
X678791Y722150*
X678609Y722263*
X678245*
X678064Y722150*
X677882Y721925*
X677791Y721700*
X677700Y721363*
Y720800*
X677791Y720463*
X677882Y720238*
X678064Y720013*
X678245Y719900*
X678609*
X678791Y720013*
X678973Y720238*
X679064Y720463*
X679882Y722263D02*
Y719900D01*
Y722263D02*
X680700D01*
X680973Y722150*
X681064Y722038*
X681155Y721813*
Y721588*
X681064Y721363*
X680973Y721250*
X680700Y721138*
X679882D02*
X680700D01*
X680973Y721025*
X681064Y720913*
X681155Y720688*
Y720350*
X681064Y720125*
X680973Y720013*
X680700Y719900*
X679882*
X681973Y721813D02*
X682155Y721925D01*
X682427Y722263*
Y719900*
X683427Y722263D02*
X684427D01*
X683882Y721363*
X684155*
X684336Y721250*
X684427Y721138*
X684518Y720800*
Y720575*
X684427Y720238*
X684245Y720013*
X683973Y719900*
X683700*
X683427Y720013*
X683336Y720125*
X683245Y720350*
X638500Y660236D02*
X638725Y660327D01*
X638950Y660509*
X639063Y660691*
X639063D02*
Y661055D01*
X639063D02*
X638950Y661236D01*
X638725Y661418*
X638500Y661509*
X638163Y661600*
X638163D02*
X637600D01*
X637263Y661509*
X637263D02*
X637038Y661418D01*
X637038D02*
X636813Y661236D01*
X636813D02*
X636700Y661055D01*
Y660691*
X636813Y660509*
X636813D02*
X637038Y660327D01*
X637038D02*
X637263Y660236D01*
X639063Y659418D02*
X636700D01*
X639063D02*
Y658600D01*
X639063D02*
X638950Y658327D01*
X638838Y658236*
X638838D02*
X638613Y658145D01*
X638613D02*
X638388D01*
X638388D02*
X638163Y658236D01*
X638163D02*
X638050Y658327D01*
X637938Y658600*
Y659418D02*
Y658600D01*
X637938D02*
X637825Y658327D01*
X637713Y658236*
X637713D02*
X637488Y658145D01*
X637488D02*
X637150D01*
X636925Y658236*
X636813Y658327*
X636813D02*
X636700Y658600D01*
Y659418*
X638613Y657327D02*
X638725Y657145D01*
X639063Y656873*
X639063D02*
X636700D01*
X638275Y654873D02*
X637938Y654964D01*
X637938D02*
X637713Y655145D01*
X637713D02*
X637600Y655418D01*
Y655509*
X637713Y655782*
X637713D02*
X637938Y655964D01*
X637938D02*
X638275Y656055D01*
X638388*
X638388D02*
X638725Y655964D01*
X638950Y655782*
X639063Y655509*
X639063D02*
Y655418D01*
X639063D02*
X638950Y655145D01*
X638725Y654964*
X638275Y654873*
X637713*
X637713D02*
X637150Y654964D01*
X636813Y655145*
X636813D02*
X636700Y655418D01*
Y655600*
X636813Y655873*
X636813D02*
X637038Y655964D01*
X676462Y749454D02*
X676371Y749679D01*
X676190Y749904*
X676008Y750016*
X675644*
X675462Y749904*
X675280Y749679*
X675190Y749454*
X675099Y749116*
Y748554*
X675190Y748216*
X675280Y747991*
X675462Y747766*
X675644Y747654*
X676008*
X676190Y747766*
X676371Y747991*
X676462Y748216*
X677280Y750016D02*
Y747654D01*
Y750016D02*
X678099D01*
X678371Y749904*
X678462Y749791*
X678553Y749566*
Y749341*
X678462Y749116*
X678371Y749004*
X678099Y748891*
X677280D02*
X678099D01*
X678371Y748779*
X678462Y748666*
X678553Y748441*
Y748104*
X678462Y747879*
X678371Y747766*
X678099Y747654*
X677280*
X679462Y749454D02*
Y749566D01*
X679553Y749791*
X679644Y749904*
X679826Y750016*
X680190*
X680371Y749904*
X680462Y749791*
X680553Y749566*
Y749341*
X680462Y749116*
X680280Y748779*
X679371Y747654*
X680644*
X681917Y750016D02*
X681644Y749904D01*
X681553Y749679*
Y749454*
X681644Y749229*
X681826Y749116*
X682190Y749004*
X682462Y748891*
X682644Y748666*
X682735Y748441*
Y748104*
X682644Y747879*
X682553Y747766*
X682280Y747654*
X681917*
X681644Y747766*
X681553Y747879*
X681462Y748104*
Y748441*
X681553Y748666*
X681735Y748891*
X682008Y749004*
X682371Y749116*
X682553Y749229*
X682644Y749454*
Y749679*
X682553Y749904*
X682280Y750016*
X681917*
X676462Y752454D02*
X676371Y752679D01*
X676190Y752904*
X676008Y753016*
X675644*
X675462Y752904*
X675280Y752679*
X675190Y752454*
X675099Y752116*
Y751554*
X675190Y751216*
X675280Y750991*
X675462Y750766*
X675644Y750654*
X676008*
X676190Y750766*
X676371Y750991*
X676462Y751216*
X677280Y753016D02*
Y750654D01*
Y753016D02*
X678099D01*
X678371Y752904*
X678462Y752791*
X678553Y752566*
Y752341*
X678462Y752116*
X678371Y752004*
X678099Y751891*
X677280D02*
X678099D01*
X678371Y751779*
X678462Y751666*
X678553Y751441*
Y751104*
X678462Y750879*
X678371Y750766*
X678099Y750654*
X677280*
X679553Y753016D02*
X680553D01*
X680008Y752116*
X680280*
X680462Y752004*
X680553Y751891*
X680644Y751554*
Y751329*
X680553Y750991*
X680371Y750766*
X680099Y750654*
X679826*
X679553Y750766*
X679462Y750879*
X679371Y751104*
X681553Y752454D02*
Y752566D01*
X681644Y752791*
X681735Y752904*
X681917Y753016*
X682280*
X682462Y752904*
X682553Y752791*
X682644Y752566*
Y752341*
X682553Y752116*
X682371Y751779*
X681462Y750654*
X682735*
X658899Y756890D02*
X659124Y756981D01*
X659349Y757163*
X659461Y757345*
Y757708*
X659349Y757890*
X659124Y758072*
X658899Y758163*
X658561Y758254*
X657999*
X657661Y758163*
X657436Y758072*
X657211Y757890*
X657099Y757708*
Y757345*
X657211Y757163*
X657436Y756981*
X657661Y756890*
X659461Y756072D02*
X657099D01*
X659461D02*
Y755254D01*
X659349Y754981*
X659236Y754890*
X659011Y754799*
X658786*
X658561Y754890*
X658449Y754981*
X658336Y755254*
Y756072D02*
Y755254D01*
X658224Y754981*
X658111Y754890*
X657886Y754799*
X657549*
X657324Y754890*
X657211Y754981*
X657099Y755254*
Y756072*
X659461Y753799D02*
Y752799D01*
X658561Y753345*
Y753072*
X658449Y752890*
X658336Y752799*
X657999Y752708*
X657774*
X657436Y752799*
X657211Y752981*
X657099Y753254*
Y753526*
X657211Y753799*
X657324Y753890*
X657549Y753981*
X659124Y750799D02*
X659349Y750890D01*
X659461Y751163*
Y751345*
X659349Y751617*
X659011Y751799*
X658449Y751890*
X657886*
X657436Y751799*
X657211Y751617*
X657099Y751345*
Y751254*
X657211Y750981*
X657436Y750799*
X657774Y750708*
X657886*
X658224Y750799*
X658449Y750981*
X658561Y751254*
Y751345*
X658449Y751617*
X658224Y751799*
X657886Y751890*
X644462Y762454D02*
X644371Y762679D01*
X644190Y762904*
X644008Y763016*
X643644*
X643462Y762904*
X643280Y762679*
X643190Y762454*
X643099Y762116*
Y761554*
X643190Y761216*
X643280Y760991*
X643462Y760766*
X643644Y760654*
X644008*
X644190Y760766*
X644371Y760991*
X644462Y761216*
X645280Y763016D02*
Y760654D01*
Y763016D02*
X646099D01*
X646371Y762904*
X646462Y762791*
X646553Y762566*
Y762341*
X646462Y762116*
X646371Y762004*
X646099Y761891*
X645280D02*
X646099D01*
X646371Y761779*
X646462Y761666*
X646553Y761441*
Y761104*
X646462Y760879*
X646371Y760766*
X646099Y760654*
X645280*
X647553Y763016D02*
X648553D01*
X648008Y762116*
X648280*
X648462Y762004*
X648553Y761891*
X648644Y761554*
Y761329*
X648553Y760991*
X648371Y760766*
X648099Y760654*
X647826*
X647553Y760766*
X647462Y760879*
X647371Y761104*
X650735Y763016D02*
X649826Y760654D01*
X649462Y763016D02*
X650735D01*
X645201Y768007D02*
X645110Y768232D01*
X644928Y768457*
X644746Y768570*
X644746D02*
X644382D01*
X644382D02*
X644201Y768457D01*
X644019Y768232*
X643928Y768007*
X643837Y767670*
X643837D02*
Y767107D01*
X643928Y766770*
X643928D02*
X644019Y766545D01*
X644019D02*
X644201Y766320D01*
X644201D02*
X644382Y766207D01*
X644746*
X644928Y766320*
X644928D02*
X645110Y766545D01*
X645110D02*
X645201Y766770D01*
X646655Y768570D02*
Y766207D01*
X646019Y768570D02*
X647292D01*
X648201Y768007D02*
Y768120D01*
X648201D02*
X648292Y768345D01*
X648292D02*
X648382Y768457D01*
X648564Y768570*
X648564D02*
X648928D01*
X648928D02*
X649110Y768457D01*
X649201Y768345*
X649201D02*
X649292Y768120D01*
X649292D02*
Y767895D01*
X649292D02*
X649201Y767670D01*
X649201D02*
X649019Y767332D01*
X648110Y766207*
X649382*
X663664Y779200D02*
X663573Y779425D01*
X663391Y779650*
X663209Y779763*
X663209D02*
X662845D01*
X662845D02*
X662664Y779650D01*
X662482Y779425*
X662391Y779200*
X662300Y778863*
X662300D02*
Y778300D01*
X662391Y777963*
X662391D02*
X662482Y777738D01*
X662482D02*
X662664Y777513D01*
X662664D02*
X662845Y777400D01*
X663209*
X663391Y777513*
X663391D02*
X663573Y777738D01*
X663573D02*
X663664Y777963D01*
X665118Y779763D02*
Y777400D01*
X664482Y779763D02*
X665755D01*
X666755D02*
X667755D01*
X667755D02*
X667209Y778863D01*
X667209D02*
X667482D01*
X667482D02*
X667664Y778750D01*
X667755Y778638*
X667755D02*
X667845Y778300D01*
Y778075*
X667755Y777738*
X667755D02*
X667573Y777513D01*
X667573D02*
X667300Y777400D01*
X667027*
X666755Y777513*
X666755D02*
X666664Y777625D01*
X666573Y777850*
X656099Y791016D02*
Y788654D01*
Y791016D02*
X656735D01*
X657008Y790904*
X657190Y790679*
X657280Y790454*
X657371Y790116*
Y789554*
X657280Y789216*
X657190Y788991*
X657008Y788766*
X656735Y788654*
X656099*
X659099Y791016D02*
X658190Y789441D01*
X659553*
X659099Y791016D02*
Y788654D01*
X631699Y812316D02*
Y809954D01*
Y812316D02*
X632335D01*
X632608Y812204*
X632790Y811979*
X632880Y811754*
X632971Y811416*
Y810854*
X632880Y810516*
X632790Y810291*
X632608Y810066*
X632335Y809954*
X631699*
X634971Y812316D02*
X634062D01*
X633971Y811304*
X634062Y811416*
X634335Y811529*
X634608*
X634880Y811416*
X635062Y811191*
X635153Y810854*
X635062Y810629*
X634971Y810291*
X634790Y810066*
X634517Y809954*
X634244*
X633971Y810066*
X633880Y810179*
X633790Y810404*
X689099Y830016D02*
Y827654D01*
Y830016D02*
X690280D01*
X689099Y828891D02*
X689826D01*
X691099Y830016D02*
Y827654D01*
Y830016D02*
X691917D01*
X692190Y829904*
X692280Y829791*
X692371Y829566*
Y829341*
X692280Y829116*
X692190Y829004*
X691917Y828891*
X691099D02*
X691917D01*
X692190Y828779*
X692280Y828666*
X692371Y828441*
Y828104*
X692280Y827879*
X692190Y827766*
X691917Y827654*
X691099*
X693280Y829454D02*
Y829566D01*
X693371Y829791*
X693462Y829904*
X693644Y830016*
X694008*
X694190Y829904*
X694280Y829791*
X694371Y829566*
Y829341*
X694280Y829116*
X694099Y828779*
X693190Y827654*
X694462*
X662300Y782763D02*
Y780400D01*
Y782763D02*
X663482D01*
X662300Y781638D02*
X663027D01*
X664300Y782763D02*
Y780400D01*
Y782763D02*
X665118D01*
X665118D02*
X665391Y782650D01*
X665482Y782538*
X665482D02*
X665573Y782313D01*
X665573D02*
Y782088D01*
X665573D02*
X665482Y781863D01*
X665482D02*
X665391Y781750D01*
X665118Y781638*
X664300D02*
X665118D01*
X665118D02*
X665391Y781525D01*
X665482Y781413*
X665482D02*
X665573Y781188D01*
X665573D02*
Y780850D01*
X665482Y780625*
X665391Y780513*
X665391D02*
X665118Y780400D01*
X664300*
X667573Y782763D02*
X666664D01*
X666664D02*
X666573Y781750D01*
X666664Y781863*
X666664D02*
X666936Y781975D01*
X667209*
X667482Y781863*
X667482D02*
X667664Y781638D01*
X667664D02*
X667755Y781300D01*
X667664Y781075*
X667573Y780738*
X667573D02*
X667391Y780513D01*
X667391D02*
X667118Y780400D01*
X666845*
X666573Y780513*
X666573D02*
X666482Y780625D01*
X666391Y780850*
X616663Y778700D02*
X614300D01*
Y777609*
X616663Y776791D02*
X614300D01*
X616663D02*
Y775609D01*
X615538Y776791D02*
Y776064D01*
X614300Y776791D02*
Y775609D01*
X616663Y774791D02*
X614300D01*
X616663D02*
Y774155D01*
X616663D02*
X616550Y773882D01*
X616325Y773700*
X616100Y773609*
X615763Y773518*
X615763D02*
X615200D01*
X614863Y773609*
X614863D02*
X614638Y773700D01*
X614638D02*
X614413Y773882D01*
X614413D02*
X614300Y774155D01*
Y774791*
X616213Y772700D02*
X616325Y772518D01*
X616663Y772245*
X616663D02*
X614300D01*
X662500Y706363D02*
Y704000D01*
Y706363D02*
X663318D01*
X663318D02*
X663591Y706250D01*
X663682Y706138*
X663682D02*
X663773Y705913D01*
X663773D02*
Y705575D01*
X663682Y705350*
X663591Y705238*
X663591D02*
X663318Y705125D01*
X662500*
X664591Y706363D02*
Y704000D01*
Y706363D02*
X665409D01*
X665409D02*
X665682Y706250D01*
X665773Y706138*
X665773D02*
X665864Y705913D01*
X665864D02*
Y705688D01*
X665864D02*
X665773Y705463D01*
X665773D02*
X665682Y705350D01*
X665409Y705238*
X664591D02*
X665409D01*
X665409D02*
X665682Y705125D01*
X665773Y705013*
X665773D02*
X665864Y704788D01*
X665864D02*
Y704450D01*
X665773Y704225*
X665682Y704113*
X665682D02*
X665409Y704000D01*
X664591*
X666682Y705913D02*
X666864Y706025D01*
X667136Y706363*
X667136D02*
Y704000D01*
X636000Y654263D02*
Y651900D01*
Y654263D02*
X636818D01*
X636818D02*
X637091Y654150D01*
X637182Y654038*
X637182D02*
X637273Y653813D01*
X637273D02*
Y653588D01*
X637273D02*
X637182Y653363D01*
X637182D02*
X637091Y653250D01*
X636818Y653138*
X636818D02*
X636000D01*
X636636D02*
X637273Y651900D01*
X638091Y653813D02*
X638273Y653925D01*
X638545Y654263*
X638545D02*
Y651900D01*
X640545Y653475D02*
X640455Y653138D01*
X640455D02*
X640273Y652913D01*
X640273D02*
X640000Y652800D01*
X639909*
X639636Y652913*
X639636D02*
X639455Y653138D01*
X639455D02*
X639364Y653475D01*
Y653588*
X639364D02*
X639455Y653925D01*
X639636Y654150*
X639909Y654263*
X639909D02*
X640000D01*
X640000D02*
X640273Y654150D01*
X640455Y653925*
X640545Y653475*
Y652913*
X640545D02*
X640455Y652350D01*
X640273Y652013*
X640273D02*
X640000Y651900D01*
X639818*
X639545Y652013*
X639545D02*
X639455Y652238D01*
X674863Y655700D02*
X672500D01*
X674863D02*
Y654882D01*
X674863D02*
X674750Y654609D01*
X674638Y654518*
X674638D02*
X674413Y654427D01*
X674413D02*
X674188D01*
X674188D02*
X673963Y654518D01*
X673963D02*
X673850Y654609D01*
X673738Y654882*
X673738D02*
Y655700D01*
Y655064D02*
X672500Y654427D01*
X674863Y653427D02*
Y652427D01*
X674863D02*
X673963Y652973D01*
X673963D02*
Y652700D01*
X673963D02*
X673850Y652518D01*
X673738Y652427*
X673738D02*
X673400Y652336D01*
X673175*
X672838Y652427*
X672838D02*
X672613Y652609D01*
X672613D02*
X672500Y652882D01*
Y653155*
X672613Y653427*
X672613D02*
X672725Y653518D01*
X672950Y653609*
X674863Y651064D02*
X674750Y651336D01*
X674525Y651427*
X674300*
X674075Y651336*
X673963Y651155*
X673963D02*
X673850Y650791D01*
X673738Y650518*
X673738D02*
X673513Y650336D01*
X673513D02*
X673288Y650245D01*
X673288D02*
X672950D01*
X672725Y650336*
X672613Y650427*
X672613D02*
X672500Y650700D01*
Y651064*
X672613Y651336*
X672613D02*
X672725Y651427D01*
X672950Y651518*
X673288*
X673288D02*
X673513Y651427D01*
X673513D02*
X673738Y651245D01*
X673738D02*
X673850Y650973D01*
X673963Y650609*
X673963D02*
X674075Y650427D01*
X674300Y650336*
X674525*
X674750Y650427*
X674863Y650700*
X674863D02*
Y651064D01*
X677863Y655700D02*
X675500D01*
X677863D02*
Y654882D01*
X677863D02*
X677750Y654609D01*
X677638Y654518*
X677638D02*
X677413Y654427D01*
X677413D02*
X677188D01*
X677188D02*
X676963Y654518D01*
X676963D02*
X676850Y654609D01*
X676738Y654882*
X676738D02*
Y655700D01*
Y655064D02*
X675500Y654427D01*
X677863Y653427D02*
Y652427D01*
X677863D02*
X676963Y652973D01*
X676963D02*
Y652700D01*
X676963D02*
X676850Y652518D01*
X676738Y652427*
X676738D02*
X676400Y652336D01*
X676175*
X675838Y652427*
X675838D02*
X675613Y652609D01*
X675613D02*
X675500Y652882D01*
Y653155*
X675613Y653427*
X675613D02*
X675725Y653518D01*
X675950Y653609*
X677075Y650336D02*
X676738Y650427D01*
X676738D02*
X676513Y650609D01*
X676513D02*
X676400Y650882D01*
Y650973*
X676513Y651245*
X676513D02*
X676738Y651427D01*
X676738D02*
X677075Y651518D01*
X677188*
X677188D02*
X677525Y651427D01*
X677750Y651245*
X677863Y650973*
X677863D02*
Y650882D01*
X677863D02*
X677750Y650609D01*
X677525Y650427*
X677075Y650336*
X676513*
X676513D02*
X675950Y650427D01*
X675613Y650609*
X675613D02*
X675500Y650882D01*
Y651064*
X675613Y651336*
X675613D02*
X675838Y651427D01*
X701735Y700998D02*
Y698635D01*
Y700998D02*
X702554D01*
X702826Y700885*
X702917Y700773*
X703008Y700548*
Y700323*
X702917Y700098*
X702826Y699985*
X702554Y699873*
X701735*
X702372D02*
X703008Y698635D01*
X705008Y700998D02*
X704099D01*
X704008Y699985*
X704099Y700098*
X704372Y700210*
X704645*
X704917Y700098*
X705099Y699873*
X705190Y699535*
X705099Y699310*
X705008Y698973*
X704826Y698748*
X704554Y698635*
X704281*
X704008Y698748*
X703917Y698860*
X703826Y699085*
X645363Y675800D02*
X643000D01*
X645363D02*
Y674982D01*
X645363D02*
X645250Y674709D01*
X645138Y674618*
X645138D02*
X644913Y674527D01*
X644913D02*
X644688D01*
X644688D02*
X644463Y674618D01*
X644463D02*
X644350Y674709D01*
X644238Y674982*
X644238D02*
Y675800D01*
Y675164D02*
X643000Y674527D01*
X645363Y672527D02*
Y673436D01*
X645363D02*
X644350Y673527D01*
X644463Y673436*
X644463D02*
X644575Y673164D01*
Y672891*
X644463Y672618*
X644463D02*
X644238Y672436D01*
X644238D02*
X643900Y672345D01*
X643675Y672436*
X643338Y672527*
X643338D02*
X643113Y672709D01*
X643113D02*
X643000Y672982D01*
Y673255*
X643113Y673527*
X643113D02*
X643225Y673618D01*
X643450Y673709*
X644913Y671527D02*
X645025Y671345D01*
X645363Y671073*
X645363D02*
X643000D01*
X622863Y679600D02*
X620500D01*
X622863D02*
Y678782D01*
X622750Y678509*
X622638Y678418*
X622413Y678327*
X622188*
X621963Y678418*
X621850Y678509*
X621738Y678782*
Y679600*
Y678964D02*
X620500Y678327D01*
X622863Y676327D02*
Y677236D01*
X621850Y677327*
X621963Y677236*
X622075Y676964*
Y676691*
X621963Y676418*
X621738Y676236*
X621400Y676145*
X621175Y676236*
X620838Y676327*
X620613Y676509*
X620500Y676782*
Y677055*
X620613Y677327*
X620725Y677418*
X620950Y677509*
X622863Y674145D02*
Y675055D01*
X621850Y675145*
X621963Y675055*
X622075Y674782*
Y674509*
X621963Y674236*
X621738Y674055*
X621400Y673964*
X621175Y674055*
X620838Y674145*
X620613Y674327*
X620500Y674600*
Y674873*
X620613Y675145*
X620725Y675236*
X620950Y675327*
X631599Y818716D02*
Y816354D01*
Y818716D02*
X632417D01*
X632690Y818604*
X632780Y818491*
X632871Y818266*
Y818041*
X632780Y817816*
X632690Y817704*
X632417Y817591*
X631599*
X632235D02*
X632871Y816354D01*
X634780Y818379D02*
X634690Y818604D01*
X634417Y818716*
X634235*
X633962Y818604*
X633780Y818266*
X633690Y817704*
Y817141*
X633780Y816691*
X633962Y816466*
X634235Y816354*
X634326*
X634599Y816466*
X634780Y816691*
X634871Y817029*
Y817141*
X634780Y817479*
X634599Y817704*
X634326Y817816*
X634235*
X633962Y817704*
X633780Y817479*
X633690Y817141*
X635871Y818716D02*
X636871D01*
X636326Y817816*
X636599*
X636780Y817704*
X636871Y817591*
X636962Y817254*
Y817029*
X636871Y816691*
X636690Y816466*
X636417Y816354*
X636144*
X635871Y816466*
X635780Y816579*
X635690Y816804*
X649461Y780254D02*
X647099D01*
X649461D02*
Y779436D01*
X649349Y779163*
X649236Y779072*
X649011Y778981*
X648786*
X648561Y779072*
X648449Y779163*
X648336Y779436*
Y780254*
Y779617D02*
X647099Y778981D01*
X649124Y777072D02*
X649349Y777163D01*
X649461Y777436*
Y777617*
X649349Y777890*
X649011Y778072*
X648449Y778163*
X647886*
X647436Y778072*
X647211Y777890*
X647099Y777617*
Y777526*
X647211Y777254*
X647436Y777072*
X647774Y776981*
X647886*
X648224Y777072*
X648449Y777254*
X648561Y777526*
Y777617*
X648449Y777890*
X648224Y778072*
X647886Y778163*
X649461Y775254D02*
X647886Y776163D01*
Y774799*
X649461Y775254D02*
X647099D01*
X686259Y807139D02*
X683896D01*
X686259D02*
Y806321D01*
X686259D02*
X686146Y806048D01*
X686034Y805957*
X686034D02*
X685809Y805866D01*
X685809D02*
X685584D01*
X685584D02*
X685359Y805957D01*
X685359D02*
X685246Y806048D01*
X685134Y806321*
X685134D02*
Y807139D01*
Y806503D02*
X683896Y805866D01*
X685921Y803957D02*
X686146Y804048D01*
X686259Y804321*
X686259D02*
Y804503D01*
X686259D02*
X686146Y804775D01*
X685809Y804957*
X685809D02*
X685246Y805048D01*
X684684*
X684684D02*
X684234Y804957D01*
X684234D02*
X684009Y804775D01*
X684009D02*
X683896Y804503D01*
Y804412*
X684009Y804139*
X684009D02*
X684234Y803957D01*
X684234D02*
X684571Y803866D01*
X684684*
X684684D02*
X685021Y803957D01*
X685246Y804139*
X685359Y804412*
X685359D02*
Y804503D01*
X685359D02*
X685246Y804775D01*
X685021Y804957*
X684684Y805048*
X686259Y801866D02*
Y802775D01*
X686259D02*
X685246Y802866D01*
X685359Y802775*
X685359D02*
X685471Y802503D01*
Y802230*
X685359Y801957*
X685359D02*
X685134Y801775D01*
X685134D02*
X684796Y801684D01*
X684571Y801775*
X684234Y801866*
X684234D02*
X684009Y802048D01*
X684009D02*
X683896Y802321D01*
Y802594*
X684009Y802866*
X684009D02*
X684121Y802957D01*
X684346Y803048*
X703974Y791741D02*
X701611D01*
X703974D02*
Y790923D01*
X703974D02*
X703861Y790650D01*
X703749Y790559*
X703749D02*
X703524Y790468D01*
X703524D02*
X703299D01*
X703299D02*
X703074Y790559D01*
X703074D02*
X702961Y790650D01*
X702849Y790923*
X702849D02*
Y791741D01*
Y791105D02*
X701611Y790468D01*
X703636Y788559D02*
X703861Y788650D01*
X703974Y788923*
X703974D02*
Y789105D01*
X703974D02*
X703861Y789377D01*
X703524Y789559*
X703524D02*
X702961Y789650D01*
X702399*
X702399D02*
X701949Y789559D01*
X701949D02*
X701724Y789377D01*
X701724D02*
X701611Y789105D01*
Y789014*
X701724Y788741*
X701724D02*
X701949Y788559D01*
X701949D02*
X702286Y788468D01*
X702399*
X702399D02*
X702736Y788559D01*
X702961Y788741*
X703074Y789014*
X703074D02*
Y789105D01*
X703074D02*
X702961Y789377D01*
X702736Y789559*
X702399Y789650*
X703974Y786377D02*
X701611Y787286D01*
X703974Y787650D02*
Y786377D01*
X653099Y785016D02*
Y782654D01*
Y785016D02*
X653917D01*
X654190Y784904*
X654280Y784791*
X654371Y784566*
Y784341*
X654280Y784116*
X654190Y784004*
X653917Y783891*
X653099*
X653735D02*
X654371Y782654D01*
X656462Y785016D02*
X655553Y782654D01*
X655190Y785016D02*
X656462D01*
X657462D02*
X658462D01*
X657917Y784116*
X658190*
X658371Y784004*
X658462Y783891*
X658553Y783554*
Y783329*
X658462Y782991*
X658280Y782766*
X658008Y782654*
X657735*
X657462Y782766*
X657371Y782879*
X657280Y783104*
X643461Y716254D02*
X641099D01*
X643461D02*
Y715436D01*
X643349Y715163*
X643236Y715072*
X643011Y714981*
X642786*
X642561Y715072*
X642449Y715163*
X642336Y715436*
Y716254*
Y715617D02*
X641099Y714981D01*
X643461Y713708D02*
X643349Y713981D01*
X643124Y714072*
X642899*
X642674Y713981*
X642561Y713799*
X642449Y713436*
X642336Y713163*
X642111Y712981*
X641886Y712890*
X641549*
X641324Y712981*
X641211Y713072*
X641099Y713345*
Y713708*
X641211Y713981*
X641324Y714072*
X641549Y714163*
X641886*
X642111Y714072*
X642336Y713890*
X642449Y713617*
X642561Y713254*
X642674Y713072*
X642899Y712981*
X643124*
X643349Y713072*
X643461Y713345*
Y713708*
X690672Y783733D02*
Y781370D01*
X690036Y783733D02*
X691309D01*
X692127D02*
Y781370D01*
Y783733D02*
X692945D01*
X692945D02*
X693218Y783620D01*
X693309Y783508*
X693309D02*
X693400Y783283D01*
X693400D02*
Y782945D01*
X693309Y782720*
X693218Y782608*
X693218D02*
X692945Y782495D01*
X692127*
X694218Y783283D02*
X694400Y783395D01*
X694672Y783733*
X694672D02*
Y781370D01*
X696036Y783733D02*
X695763Y783620D01*
X695581Y783283*
X695581D02*
X695491Y782720D01*
Y782383*
X695491D02*
X695581Y781820D01*
X695763Y781483*
X695763D02*
X696036Y781370D01*
X696218*
X696491Y781483*
X696491D02*
X696672Y781820D01*
X696763Y782383*
X696763D02*
Y782720D01*
X696672Y783283*
X696672D02*
X696491Y783620D01*
X696218Y783733*
X696218D02*
X696036D01*
X623027Y616183D02*
X620664D01*
X623027Y616819D02*
Y615546D01*
Y614728D02*
X620664D01*
X623027D02*
Y613910D01*
X623027D02*
X622914Y613637D01*
X622802Y613546*
X622802D02*
X622577Y613455D01*
X622577D02*
X622239D01*
X622014Y613546*
X621902Y613637*
X621902D02*
X621789Y613910D01*
Y614728*
X622577Y612637D02*
X622689Y612455D01*
X623027Y612183*
X623027D02*
X620664D01*
X622464Y611274D02*
X622577D01*
X622577D02*
X622802Y611183D01*
X622802D02*
X622914Y611092D01*
X623027Y610910*
X623027D02*
Y610546D01*
X623027D02*
X622914Y610364D01*
X622802Y610274*
X622802D02*
X622577Y610183D01*
X622577D02*
X622352D01*
X622352D02*
X622127Y610274D01*
X622127D02*
X621789Y610455D01*
X620664Y611364*
Y610092*
X620363Y659564D02*
X618000D01*
X620363Y660200D02*
Y658927D01*
Y658109D02*
X618000D01*
X620363D02*
Y657291D01*
X620363D02*
X620250Y657018D01*
X620138Y656927*
X620138D02*
X619913Y656836D01*
X619913D02*
X619575D01*
X619350Y656927*
X619238Y657018*
X619238D02*
X619125Y657291D01*
Y658109*
X619913Y656018D02*
X620025Y655836D01*
X620363Y655564*
X620363D02*
X618000D01*
X620363Y654564D02*
Y653564D01*
X620363D02*
X619463Y654109D01*
X619463D02*
Y653836D01*
X619463D02*
X619350Y653655D01*
X619238Y653564*
X619238D02*
X618900Y653473D01*
X618675*
X618338Y653564*
X618338D02*
X618113Y653745D01*
X618113D02*
X618000Y654018D01*
Y654291*
X618113Y654564*
X618113D02*
X618225Y654655D01*
X618450Y654745*
X624863Y671064D02*
X622500D01*
X624863Y671700D02*
Y670427D01*
Y669609D02*
X622500D01*
X624863D02*
Y668791D01*
X624863D02*
X624750Y668518D01*
X624638Y668427*
X624638D02*
X624413Y668336D01*
X624413D02*
X624075D01*
X623850Y668427*
X623738Y668518*
X623738D02*
X623625Y668791D01*
Y669609*
X624413Y667518D02*
X624525Y667336D01*
X624863Y667064*
X624863D02*
X622500D01*
X624863Y665336D02*
X623288Y666245D01*
X623288D02*
Y664882D01*
X624863Y665336D02*
X622500D01*
X711270Y826132D02*
Y823769D01*
X710634Y826132D02*
X711907D01*
X712725D02*
Y823769D01*
Y826132D02*
X713543D01*
X713543D02*
X713816Y826019D01*
X713907Y825907*
X713907D02*
X713998Y825682D01*
X713998D02*
Y825344D01*
X713907Y825119*
X713816Y825007*
X713816D02*
X713543Y824894D01*
X712725*
X715998Y826132D02*
X715089D01*
X715089D02*
X714998Y825119D01*
X715089Y825232*
X715089D02*
X715361Y825344D01*
X715634*
X715907Y825232*
X715907D02*
X716089Y825007D01*
X716089D02*
X716179Y824669D01*
X716089Y824444*
X715998Y824107*
X715998D02*
X715816Y823882D01*
X715816D02*
X715543Y823769D01*
X715270*
X714998Y823882*
X714998D02*
X714907Y823994D01*
X714816Y824219*
X709636Y614763D02*
Y612400D01*
X709000Y614763D02*
X710273D01*
X711091D02*
Y612400D01*
Y614763D02*
X711909D01*
X711909D02*
X712182Y614650D01*
X712273Y614538*
X712273D02*
X712364Y614313D01*
X712364D02*
Y613975D01*
X712273Y613750*
X712182Y613638*
X712182D02*
X711909Y613525D01*
X711091*
X714455Y614763D02*
X713545Y612400D01*
X713182Y614763D02*
X714455D01*
X664099Y722016D02*
Y720329D01*
X664190Y719991*
X664371Y719766*
X664644Y719654*
X664826*
X665099Y719766*
X665280Y719991*
X665371Y720329*
Y722016*
X666280Y721454D02*
Y721566D01*
X666371Y721791*
X666462Y721904*
X666644Y722016*
X667008*
X667190Y721904*
X667280Y721791*
X667371Y721566*
Y721341*
X667280Y721116*
X667099Y720779*
X666190Y719654*
X667462*
X615899Y765890D02*
X616124Y765981D01*
X616349Y766163*
X616461Y766345*
Y766708*
X616349Y766890*
X616124Y767072*
X615899Y767163*
X615561Y767254*
X614999*
X614661Y767163*
X614436Y767072*
X614211Y766890*
X614099Y766708*
Y766345*
X614211Y766163*
X614436Y765981*
X614661Y765890*
X616461Y763890D02*
Y764799D01*
X615449Y764890*
X615561Y764799*
X615674Y764526*
Y764254*
X615561Y763981*
X615336Y763799*
X614999Y763708*
X614774Y763799*
X614436Y763890*
X614211Y764072*
X614099Y764345*
Y764617*
X614211Y764890*
X614324Y764981*
X614549Y765072*
X616461Y762436D02*
X616349Y762708D01*
X616124Y762799*
X615899*
X615674Y762708*
X615561Y762526*
X615449Y762163*
X615336Y761890*
X615111Y761708*
X614886Y761617*
X614549*
X614324Y761708*
X614211Y761799*
X614099Y762072*
Y762436*
X614211Y762708*
X614324Y762799*
X614549Y762890*
X614886*
X615111Y762799*
X615336Y762617*
X615449Y762345*
X615561Y761981*
X615674Y761799*
X615899Y761708*
X616124*
X616349Y761799*
X616461Y762072*
Y762436*
X675892Y742401D02*
X675801Y742626D01*
X675619Y742851*
X675437Y742963*
X675437D02*
X675073D01*
X675073D02*
X674892Y742851D01*
X674710Y742626*
X674619Y742401*
X674528Y742063*
X674528D02*
Y741501D01*
X674619Y741163*
X674619D02*
X674710Y740938D01*
X674710D02*
X674892Y740713D01*
X674892D02*
X675073Y740601D01*
X675437*
X675619Y740713*
X675619D02*
X675801Y740938D01*
X675801D02*
X675892Y741163D01*
X676710Y742963D02*
Y740601D01*
Y742963D02*
X677528D01*
X677528D02*
X677801Y742851D01*
X677892Y742738*
X677892D02*
X677983Y742513D01*
X677983D02*
Y742288D01*
X677983D02*
X677892Y742063D01*
X677892D02*
X677801Y741951D01*
X677528Y741838*
X676710D02*
X677528D01*
X677528D02*
X677801Y741726D01*
X677892Y741613*
X677892D02*
X677983Y741388D01*
X677983D02*
Y741051D01*
X677892Y740826*
X677801Y740713*
X677801D02*
X677528Y740601D01*
X676710*
X678892Y742401D02*
Y742513D01*
X678892D02*
X678983Y742738D01*
X678983D02*
X679073Y742851D01*
X679255Y742963*
X679255D02*
X679619D01*
X679619D02*
X679801Y742851D01*
X679892Y742738*
X679892D02*
X679983Y742513D01*
X679983D02*
Y742288D01*
X679983D02*
X679892Y742063D01*
X679892D02*
X679710Y741726D01*
X678801Y740601*
X680073*
X681073Y742963D02*
X682073D01*
X682073D02*
X681528Y742063D01*
X681528D02*
X681801D01*
X681801D02*
X681983Y741951D01*
X682073Y741838*
X682073D02*
X682164Y741501D01*
Y741276*
X682073Y740938*
X682073D02*
X681892Y740713D01*
X681892D02*
X681619Y740601D01*
X681346*
X681073Y740713*
X681073D02*
X680983Y740826D01*
X680892Y741051*
X706800Y736336D02*
X707025Y736427D01*
X707250Y736609*
X707362Y736791*
X707362D02*
Y737155D01*
X707362D02*
X707250Y737336D01*
X707025Y737518*
X706800Y737609*
X706462Y737700*
X706462D02*
X705900D01*
X705562Y737609*
X705562D02*
X705337Y737518D01*
X705337D02*
X705112Y737336D01*
X705112D02*
X705000Y737155D01*
Y736791*
X705112Y736609*
X705112D02*
X705337Y736427D01*
X705337D02*
X705562Y736336D01*
X707025Y734427D02*
X707250Y734518D01*
X707362Y734791*
X707362D02*
Y734973D01*
X707362D02*
X707250Y735245D01*
X706912Y735427*
X706912D02*
X706350Y735518D01*
X705787*
X705787D02*
X705337Y735427D01*
X705337D02*
X705112Y735245D01*
X705112D02*
X705000Y734973D01*
Y734882*
X705112Y734609*
X705112D02*
X705337Y734427D01*
X705337D02*
X705675Y734336D01*
X705787*
X705787D02*
X706125Y734427D01*
X706350Y734609*
X706462Y734882*
X706462D02*
Y734973D01*
X706462D02*
X706350Y735245D01*
X706125Y735427*
X705787Y735518*
X707362Y732973D02*
X707250Y733245D01*
X706912Y733427*
X706912D02*
X706350Y733518D01*
X706012*
X706012D02*
X705450Y733427D01*
X705112Y733245*
X705112D02*
X705000Y732973D01*
Y732791*
X705112Y732518*
X705112D02*
X705450Y732336D01*
X706012Y732245*
X706012D02*
X706350D01*
X706912Y732336*
X706912D02*
X707250Y732518D01*
X707362Y732791*
X707362D02*
Y732973D01*
X619863Y679500D02*
X617500D01*
X619863D02*
Y678682D01*
X619863D02*
X619750Y678409D01*
X619638Y678318*
X619638D02*
X619413Y678227D01*
X619413D02*
X619188D01*
X619188D02*
X618963Y678318D01*
X618963D02*
X618850Y678409D01*
X618738Y678682*
X618738D02*
Y679500D01*
Y678864D02*
X617500Y678227D01*
X619863Y676955D02*
X619750Y677227D01*
X619525Y677318*
X619300*
X619075Y677227*
X618963Y677045*
X618963D02*
X618850Y676682D01*
X618738Y676409*
X618738D02*
X618513Y676227D01*
X618513D02*
X618288Y676136D01*
X618288D02*
X617950D01*
X617725Y676227*
X617613Y676318*
X617613D02*
X617500Y676591D01*
Y676955*
X617613Y677227*
X617613D02*
X617725Y677318D01*
X617950Y677409*
X618288*
X618288D02*
X618513Y677318D01*
X618513D02*
X618738Y677136D01*
X618738D02*
X618850Y676864D01*
X618963Y676500*
X618963D02*
X619075Y676318D01*
X619300Y676227*
X619525*
X619750Y676318*
X619863Y676591*
X619863D02*
Y676955D01*
X619525Y674227D02*
X619750Y674318D01*
X619863Y674591*
X619863D02*
Y674773D01*
X619863D02*
X619750Y675045D01*
X619413Y675227*
X619413D02*
X618850Y675318D01*
X618288*
X618288D02*
X617838Y675227D01*
X617838D02*
X617613Y675045D01*
X617613D02*
X617500Y674773D01*
Y674682*
X617613Y674409*
X617613D02*
X617838Y674227D01*
X617838D02*
X618175Y674136D01*
X618288*
X618288D02*
X618625Y674227D01*
X618850Y674409*
X618963Y674682*
X618963D02*
Y674773D01*
X618963D02*
X618850Y675045D01*
X618625Y675227*
X618288Y675318*
X616863Y679400D02*
X614500D01*
X616863D02*
Y678582D01*
X616863D02*
X616750Y678309D01*
X616638Y678218*
X616638D02*
X616413Y678127D01*
X616413D02*
X616188D01*
X616188D02*
X615963Y678218D01*
X615963D02*
X615850Y678309D01*
X615738Y678582*
X615738D02*
Y679400D01*
Y678764D02*
X614500Y678127D01*
X616863Y676855D02*
X616750Y677127D01*
X616525Y677218*
X616300*
X616075Y677127*
X615963Y676945*
X615963D02*
X615850Y676582D01*
X615738Y676309*
X615738D02*
X615513Y676127D01*
X615513D02*
X615288Y676036D01*
X615288D02*
X614950D01*
X614725Y676127*
X614613Y676218*
X614613D02*
X614500Y676491D01*
Y676855*
X614613Y677127*
X614613D02*
X614725Y677218D01*
X614950Y677309*
X615288*
X615288D02*
X615513Y677218D01*
X615513D02*
X615738Y677036D01*
X615738D02*
X615850Y676764D01*
X615963Y676400*
X615963D02*
X616075Y676218D01*
X616300Y676127*
X616525*
X616750Y676218*
X616863Y676491*
X616863D02*
Y676855D01*
Y674764D02*
X616750Y675036D01*
X616525Y675127*
X616300*
X616075Y675036*
X615963Y674855*
X615963D02*
X615850Y674491D01*
X615738Y674218*
X615738D02*
X615513Y674036D01*
X615513D02*
X615288Y673945D01*
X615288D02*
X614950D01*
X614725Y674036*
X614613Y674127*
X614613D02*
X614500Y674400D01*
Y674764*
X614613Y675036*
X614613D02*
X614725Y675127D01*
X614950Y675218*
X615288*
X615288D02*
X615513Y675127D01*
X615513D02*
X615738Y674945D01*
X615738D02*
X615850Y674673D01*
X615963Y674309*
X615963D02*
X616075Y674127D01*
X616300Y674036*
X616525*
X616750Y674127*
X616863Y674400*
X616863D02*
Y674764D01*
X686800Y750938D02*
Y748575D01*
Y750938D02*
X687618D01*
X687618D02*
X687891Y750825D01*
X687982Y750713*
X687982D02*
X688073Y750488D01*
X688073D02*
Y750263D01*
X688073D02*
X687982Y750038D01*
X687982D02*
X687891Y749925D01*
X687618Y749813*
X687618D02*
X686800D01*
X687436D02*
X688073Y748575D01*
X689073Y750938D02*
X690073D01*
X690073D02*
X689527Y750038D01*
X689527D02*
X689800D01*
X689800D02*
X689982Y749925D01*
X690073Y749813*
X690073D02*
X690164Y749475D01*
Y749250*
X690073Y748913*
X690073D02*
X689891Y748688D01*
X689891D02*
X689618Y748575D01*
X689345*
X689073Y748688*
X689073D02*
X688982Y748800D01*
X688891Y749025*
X692255Y750938D02*
X691345Y748575D01*
X690982Y750938D02*
X692255D01*
X686800Y727325D02*
Y725450D01*
X686891Y725075*
X687073Y724825*
X687345Y724700*
X687527*
X687800Y724825*
X687982Y725075*
X688073Y725450*
Y727325*
X688891Y726825D02*
X689073Y726950D01*
X689345Y727325*
Y724700*
X691255Y726950D02*
X691164Y727200D01*
X690891Y727325*
X690709*
X690436Y727200*
X690255Y726825*
X690164Y726200*
Y725575*
X690255Y725075*
X690436Y724825*
X690709Y724700*
X690800*
X691073Y724825*
X691255Y725075*
X691345Y725450*
Y725575*
X691255Y725950*
X691073Y726200*
X690800Y726325*
X690709*
X690436Y726200*
X690255Y725950*
X690164Y725575*
X704600Y710363D02*
X705327Y709238D01*
X705327D02*
Y708000D01*
X706055Y710363D02*
X705327Y709238D01*
X706873Y709913D02*
X707055Y710025D01*
X707327Y710363*
X707327D02*
Y708000D01*
G54D48*
X718600Y607000D02*
G03X718600I-3200J0D01*
G01X621100Y605700D02*
G03X621100I-3200J0D01*
G01X716075Y831940D02*
G03X716075I-3200J0D01*
G01X688575Y786918D02*
G03X688575I-3200J0D01*
G54D67*
G01X646599Y679354D02*
X654199D01*
X655499Y677953D02*
G03X654199Y679354I-1295J102D01*
G01X655499Y677954D02*
Y675954D01*
X654198Y674554D02*
G03X655499Y675954I93J1217D01*
G01X654199Y674554D02*
X646599D01*
X645299Y675954D02*
G03X646600Y674554I1540J126D01*
G01X645299Y675954D02*
Y677954D01*
X646599Y679354D02*
G03X645299Y677954I146J-1440D01*
G01X657949Y744554D02*
X650349D01*
X649049Y745954D02*
G03X650348Y744554I1294J-102D01*
G01X649049Y745954D02*
Y747954D01*
X650350Y749354D02*
G03X649049Y747954I-94J-1218D01*
G01X650349Y749354D02*
X657949D01*
X659249Y747954D02*
G03X657947Y749354I-1541J-127D01*
G01X659249Y747954D02*
Y745954D01*
X657948Y744554D02*
G03X659249Y745953I-146J1439D01*
G01X651549Y653104D02*
X661749D01*
Y648304*
X651549*
Y653104*
X619724Y742479D02*
X627324D01*
X628624Y741078D02*
G03X627324Y742479I-1295J102D01*
G01X628624Y741079D02*
Y739079D01*
X627323Y737679D02*
G03X628624Y739079I93J1217D01*
G01X627324Y737679D02*
X619724D01*
X618424Y739079D02*
G03X619725Y737679I1540J126D01*
G01X618424Y739079D02*
Y741079D01*
X619724Y742479D02*
G03X618424Y741079I146J-1440D01*
G01X696549Y610754D02*
Y603154D01*
X695148Y601854D02*
G03X696549Y603153I102J1294D01*
G01X695149Y601854D02*
X693149D01*
X691749Y603155D02*
G03X693149Y601854I1217J-94D01*
G01X691749Y603154D02*
Y610754D01*
X693149Y612054D02*
G03X691748Y610753I126J-1540D01*
G01X693149Y612054D02*
X695149D01*
X696549Y610753D02*
G03X695149Y612054I-1440J-146D01*
G01X690299Y610754D02*
Y603154D01*
X688898Y601854D02*
G03X690299Y603153I102J1294D01*
G01X688899Y601854D02*
X686899D01*
X685499Y603155D02*
G03X686899Y601854I1217J-94D01*
G01X685499Y603154D02*
Y610754D01*
X686899Y612054D02*
G03X685498Y610753I126J-1540D01*
G01X686899Y612054D02*
X688899D01*
X690299Y610753D02*
G03X688899Y612054I-1440J-146D01*
G01X628424Y631379D02*
Y623779D01*
X627023Y622479D02*
G03X628424Y623778I102J1294D01*
G01X627024Y622479D02*
X625024D01*
X623624Y623780D02*
G03X625024Y622479I1217J-94D01*
G01X623624Y623779D02*
Y631379D01*
X625024Y632679D02*
G03X623623Y631378I126J-1540D01*
G01X625024Y632679D02*
X627024D01*
X628424Y631378D02*
G03X627024Y632679I-1440J-146D01*
G01X650449Y602679D02*
X642849D01*
X641549Y604079D02*
G03X642848Y602679I1294J-102D01*
G01X641549Y604079D02*
Y606079D01*
X642850Y607479D02*
G03X641549Y606079I-94J-1218D01*
G01X642849Y607479D02*
X650449D01*
X651749Y606079D02*
G03X650447Y607479I-1541J-127D01*
G01X651749Y606079D02*
Y604079D01*
X650448Y602679D02*
G03X651749Y604078I-146J1439D01*
G01X677224Y664979D02*
X684824D01*
X686124Y663578D02*
G03X684824Y664979I-1295J102D01*
G01X686124Y663579D02*
Y661579D01*
X684823Y660179D02*
G03X686124Y661579I93J1217D01*
G01X684824Y660179D02*
X677224D01*
X675924Y661579D02*
G03X677225Y660179I1540J126D01*
G01X675924Y661579D02*
Y663579D01*
X677224Y664979D02*
G03X675924Y663579I146J-1440D01*
G01X660449Y653929D02*
X652849D01*
X651549Y655329D02*
G03X652848Y653929I1294J-102D01*
G01X651549Y655329D02*
Y657329D01*
X652850Y658729D02*
G03X651549Y657329I-94J-1218D01*
G01X652849Y658729D02*
X660449D01*
X661749Y657329D02*
G03X660447Y658729I-1541J-127D01*
G01X661749Y657329D02*
Y655329D01*
X660448Y653929D02*
G03X661749Y655328I-146J1439D01*
G01X635299Y662054D02*
Y651854D01*
X630499*
Y662054*
X635299*
X667949Y674554D02*
X660349D01*
X659049Y675954D02*
G03X660348Y674554I1294J-102D01*
G01X659049Y675954D02*
Y677954D01*
X660350Y679354D02*
G03X659049Y677954I-94J-1218D01*
G01X660349Y679354D02*
X667949D01*
X669249Y677954D02*
G03X667947Y679354I-1541J-127D01*
G01X669249Y677954D02*
Y675954D01*
X667948Y674554D02*
G03X669249Y675953I-146J1439D01*
G01X696599Y679979D02*
X704199D01*
X705499Y678578D02*
G03X704199Y679979I-1295J102D01*
G01X705499Y678579D02*
Y676579D01*
X704198Y675179D02*
G03X705499Y676579I93J1217D01*
G01X704199Y675179D02*
X696599D01*
X695299Y676579D02*
G03X696600Y675179I1540J126D01*
G01X695299Y676579D02*
Y678579D01*
X696599Y679979D02*
G03X695299Y678579I146J-1440D01*
G01X700449Y659554D02*
X692849D01*
X691549Y660954D02*
G03X692848Y659554I1294J-102D01*
G01X691549Y660954D02*
Y662954D01*
X692850Y664354D02*
G03X691549Y662954I-94J-1218D01*
G01X692849Y664354D02*
X700449D01*
X701749Y662954D02*
G03X700447Y664354I-1541J-127D01*
G01X701749Y662954D02*
Y660954D01*
X700448Y659554D02*
G03X701749Y660953I-146J1439D01*
G01X653474Y671229D02*
X661074D01*
X662374Y669828D02*
G03X661074Y671229I-1295J102D01*
G01X662374Y669829D02*
Y667829D01*
X661073Y666429D02*
G03X662374Y667829I93J1217D01*
G01X661074Y666429D02*
X653474D01*
X652174Y667829D02*
G03X653475Y666429I1540J126D01*
G01X652174Y667829D02*
Y669829D01*
X653474Y671229D02*
G03X652174Y669829I146J-1440D01*
G01X664049Y671229D02*
X674249D01*
Y666429*
X664049*
Y671229*
X627799Y662054D02*
Y651854D01*
X622999*
Y662054*
X627799*
X701749Y653304D02*
X691549D01*
Y658104*
X701749*
Y653304*
X689199D02*
X681599D01*
X680299Y654704D02*
G03X681598Y653304I1294J-102D01*
G01X680299Y654704D02*
Y656704D01*
X681600Y658104D02*
G03X680299Y656704I-94J-1218D01*
G01X681599Y658104D02*
X689199D01*
X690499Y656704D02*
G03X689197Y658104I-1541J-127D01*
G01X690499Y656704D02*
Y654704D01*
X689198Y653304D02*
G03X690499Y654703I-146J1439D01*
G01X662374Y660179D02*
X652174D01*
Y664979*
X662374*
Y660179*
X664049Y664979D02*
X674249D01*
Y660179*
X664049*
Y664979*
X637324Y798304D02*
X629724D01*
X628424Y799704D02*
G03X629723Y798304I1294J-102D01*
G01X628424Y799704D02*
Y801704D01*
X629725Y803104D02*
G03X628424Y801704I-94J-1218D01*
G01X629724Y803104D02*
X637324D01*
X638624Y801704D02*
G03X637322Y803104I-1541J-127D01*
G01X638624Y801704D02*
Y799704D01*
X637323Y798304D02*
G03X638624Y799703I-146J1439D01*
G01X701699Y812679D02*
X694099D01*
X692799Y814079D02*
G03X694098Y812679I1294J-102D01*
G01X692799Y814079D02*
Y816079D01*
X694100Y817479D02*
G03X692799Y816079I-94J-1218D01*
G01X694099Y817479D02*
X701699D01*
X702999Y816079D02*
G03X701697Y817479I-1541J-127D01*
G01X702999Y816079D02*
Y814079D01*
X701698Y812679D02*
G03X702999Y814078I-146J1439D01*
G01X701699Y802679D02*
X694099D01*
X692799Y804079D02*
G03X694098Y802679I1294J-102D01*
G01X692799Y804079D02*
Y806079D01*
X694100Y807479D02*
G03X692799Y806079I-94J-1218D01*
G01X694099Y807479D02*
X701699D01*
X702999Y806079D02*
G03X701697Y807479I-1541J-127D01*
G01X702999Y806079D02*
Y804079D01*
X701698Y802679D02*
G03X702999Y804078I-146J1439D01*
G01X611699Y610804D02*
X604099D01*
X602799Y612204D02*
G03X604098Y610804I1294J-102D01*
G01X602799Y612204D02*
Y614204D01*
X604100Y615604D02*
G03X602799Y614204I-94J-1218D01*
G01X604099Y615604D02*
X611699D01*
X612999Y614204D02*
G03X611697Y615604I-1541J-127D01*
G01X612999Y614204D02*
Y612204D01*
X611698Y610804D02*
G03X612999Y612203I-146J1439D01*
G01X659199Y764554D02*
X651599D01*
X650299Y765954D02*
G03X651598Y764554I1294J-102D01*
G01X650299Y765954D02*
Y767954D01*
X651600Y769354D02*
G03X650299Y767954I-94J-1218D01*
G01X651599Y769354D02*
X659199D01*
X660499Y767954D02*
G03X659197Y769354I-1541J-127D01*
G01X660499Y767954D02*
Y765954D01*
X659198Y764554D02*
G03X660499Y765953I-146J1439D01*
G01X665349Y769354D02*
X672949D01*
X674249Y767953D02*
G03X672949Y769354I-1295J102D01*
G01X674249Y767954D02*
Y765954D01*
X672948Y764554D02*
G03X674249Y765954I93J1217D01*
G01X672949Y764554D02*
X665349D01*
X664049Y765954D02*
G03X665350Y764554I1540J126D01*
G01X664049Y765954D02*
Y767954D01*
X665349Y769354D02*
G03X664049Y767954I146J-1440D01*
G01X651124Y653929D02*
X640924D01*
Y658729*
X651124*
Y653929*
X619724Y766229D02*
X627324D01*
X628624Y764828D02*
G03X627324Y766229I-1295J102D01*
G01X628624Y764829D02*
Y762829D01*
X627323Y761429D02*
G03X628624Y762829I93J1217D01*
G01X627324Y761429D02*
X619724D01*
X618424Y762829D02*
G03X619725Y761429I1540J126D01*
G01X618424Y762829D02*
Y764829D01*
X619724Y766229D02*
G03X618424Y764829I146J-1440D01*
G01X703650Y738800D02*
Y731200D01*
X702249Y729900D02*
G03X703650Y731199I102J1295D01*
G01X702250Y729900D02*
X700250D01*
X698850Y731201D02*
G03X700250Y729900I1217J-94D01*
G01X698850Y731200D02*
Y738800D01*
X700250Y740100D02*
G03X698850Y738799I127J-1540D01*
G01X700250Y740100D02*
X702250D01*
X703650Y738800D02*
G03X702251Y740100I-1440J-147D01*
G01X684900Y746775D02*
X695100D01*
Y741975*
X684900*
Y746775*
G54D101*
X628036Y646978D02*
X632367D01*
X628036Y640679D02*
X632367D01*
G54D122*
G54D137*
X689473Y691029D02*
Y677879D01*
X677032*
X676324Y678588*
Y691029*
X689473*
G54D210*
X673041Y624611D02*
X674616D01*
Y626186*
X656506Y624611D02*
X654931D01*
Y626186*
Y642721D02*
Y644296D01*
X656506*
X674616Y642721D02*
Y644296D01*
X673041*
X677372Y627367D02*
X678553Y626186D01*
Y628548*
X677372Y627367*
X641004Y787032D02*
X626043D01*
Y796875*
X641004*
Y787032*
X633130Y788804D02*
X631555Y790379D01*
Y793332*
X630079Y794808*
X631949Y791560D02*
X635098Y789592D01*
Y793922*
X631949Y791954*
X635492D02*
X639429D01*
X631555D02*
X628406D01*
G54D212*
X639433Y667579D02*
G03X639433I-2784J0D01*
G01X620568Y726928D02*
G03X620568I-513J0D01*
G01X618440Y725448D02*
Y730960D01*
X629857*
Y725448*
X618440*
X677032Y678548D02*
X676993Y678588D01*
Y690359*
X688804*
Y678548*
X677032*
X630568Y710053D02*
G03X630568I-513J0D01*
G01X628440Y708573D02*
Y714085D01*
X639857*
Y708573*
X628440*
X640629Y691979D02*
G03X640629I-512J0D01*
G01X641732Y693460D02*
Y687948D01*
X630315*
Y693460*
X641732*
X620568Y750678D02*
G03X620568I-513J0D01*
G01X618440Y749198D02*
Y754710D01*
X629857*
Y749198*
X618440*
X630058Y606329D02*
G03X630058I-2784J0D01*
G01X638808D02*
G03X638808I-2784J0D01*
G01X648808Y667579D02*
G03X648808I-2784J0D01*
G01X688183Y786954D02*
G03X688183I-2784J0D01*
G01X620683Y605704D02*
G03X620683I-2784J0D01*
G01X622558Y667579D02*
G03X622558I-2784J0D01*
G01X630683D02*
G03X630683I-2784J0D01*
G01X715683Y831954D02*
G03X715683I-2784J0D01*
G01X718183Y606954D02*
G03X718183I-2784J0D01*
G01X663562Y717728D02*
X662676Y718614D01*
Y716744*
X663513Y717581*
X688612Y738468D02*
G03X688612I-513J0D01*
G01X686619Y740084D02*
X692131D01*
Y728666*
X686619*
Y740084*
G54D213*
X692443Y771303D02*
G03X692443I-513J0D01*
G01X690315Y769823D02*
Y775335D01*
X701732*
Y769823*
X690315*
G74*
X0Y0D02*
M02*
